G04 #@! TF.GenerationSoftware,KiCad,Pcbnew,9.0.0*
G04 #@! TF.CreationDate,2025-07-09T11:38:48-07:00*
G04 #@! TF.ProjectId,bipolar_current_driver_ADA4700-1,6269706f-6c61-4725-9f63-757272656e74,rev?*
G04 #@! TF.SameCoordinates,Original*
G04 #@! TF.FileFunction,Soldermask,Top*
G04 #@! TF.FilePolarity,Negative*
%FSLAX46Y46*%
G04 Gerber Fmt 4.6, Leading zero omitted, Abs format (unit mm)*
G04 Created by KiCad (PCBNEW 9.0.0) date 2025-07-09 11:38:48*
%MOMM*%
%LPD*%
G01*
G04 APERTURE LIST*
G04 Aperture macros list*
%AMRoundRect*
0 Rectangle with rounded corners*
0 $1 Rounding radius*
0 $2 $3 $4 $5 $6 $7 $8 $9 X,Y pos of 4 corners*
0 Add a 4 corners polygon primitive as box body*
4,1,4,$2,$3,$4,$5,$6,$7,$8,$9,$2,$3,0*
0 Add four circle primitives for the rounded corners*
1,1,$1+$1,$2,$3*
1,1,$1+$1,$4,$5*
1,1,$1+$1,$6,$7*
1,1,$1+$1,$8,$9*
0 Add four rect primitives between the rounded corners*
20,1,$1+$1,$2,$3,$4,$5,0*
20,1,$1+$1,$4,$5,$6,$7,0*
20,1,$1+$1,$6,$7,$8,$9,0*
20,1,$1+$1,$8,$9,$2,$3,0*%
G04 Aperture macros list end*
%ADD10RoundRect,0.250000X-0.400000X-0.625000X0.400000X-0.625000X0.400000X0.625000X-0.400000X0.625000X0*%
%ADD11RoundRect,0.250000X-0.625000X0.400000X-0.625000X-0.400000X0.625000X-0.400000X0.625000X0.400000X0*%
%ADD12C,1.600000*%
%ADD13R,2.290000X5.080000*%
%ADD14R,2.420000X5.080000*%
%ADD15RoundRect,0.249999X-1.025001X-1.025001X1.025001X-1.025001X1.025001X1.025001X-1.025001X1.025001X0*%
%ADD16C,2.550000*%
%ADD17RoundRect,0.250000X0.265000X0.615000X-0.265000X0.615000X-0.265000X-0.615000X0.265000X-0.615000X0*%
%ADD18O,1.030000X1.730000*%
%ADD19O,1.600000X1.600000*%
%ADD20C,3.500000*%
%ADD21R,1.905000X2.000000*%
%ADD22O,1.905000X2.000000*%
%ADD23C,3.200000*%
%ADD24RoundRect,0.250000X-0.412500X-0.650000X0.412500X-0.650000X0.412500X0.650000X-0.412500X0.650000X0*%
%ADD25R,2.000000X2.000000*%
%ADD26C,2.000000*%
%ADD27C,1.800000*%
%ADD28C,2.400000*%
%ADD29O,2.400000X2.400000*%
%ADD30RoundRect,0.250000X0.650000X-0.412500X0.650000X0.412500X-0.650000X0.412500X-0.650000X-0.412500X0*%
%ADD31RoundRect,0.150000X-0.825000X-0.150000X0.825000X-0.150000X0.825000X0.150000X-0.825000X0.150000X0*%
%ADD32R,1.600000X1.600000*%
%ADD33RoundRect,0.250000X0.412500X0.650000X-0.412500X0.650000X-0.412500X-0.650000X0.412500X-0.650000X0*%
%ADD34R,1.980000X3.960000*%
%ADD35O,1.980000X3.960000*%
G04 APERTURE END LIST*
D10*
X123900000Y-96520000D03*
X127000000Y-96520000D03*
D11*
X124460000Y-100050000D03*
X124460000Y-103150000D03*
D12*
X137160000Y-78740000D03*
X132160000Y-78740000D03*
D13*
X190000000Y-146930000D03*
D14*
X185620000Y-146930000D03*
X194380000Y-146930000D03*
D15*
X146900000Y-55000000D03*
D16*
X151700000Y-55000000D03*
X156500000Y-55000000D03*
X161300000Y-55000000D03*
X166100000Y-55000000D03*
D17*
X141000000Y-55500000D03*
D18*
X139500000Y-55500000D03*
X138000000Y-55500000D03*
X136500000Y-55500000D03*
X135000000Y-55500000D03*
X133500000Y-55500000D03*
X132000000Y-55500000D03*
X130500000Y-55500000D03*
X129000000Y-55500000D03*
X127500000Y-55500000D03*
D12*
X154940000Y-71120000D03*
D19*
X154940000Y-81280000D03*
D20*
X157480000Y-123340000D03*
D21*
X154940000Y-106680000D03*
D22*
X157480000Y-106680000D03*
X160020000Y-106680000D03*
D23*
X150000000Y-100000000D03*
D24*
X148297500Y-68580000D03*
X151422500Y-68580000D03*
D23*
X190000000Y-135000000D03*
D20*
X172720000Y-123340000D03*
D25*
X170180000Y-106680000D03*
D26*
X175260000Y-106680000D03*
D23*
X110000000Y-65000000D03*
D13*
X142000000Y-146930000D03*
D14*
X137620000Y-146930000D03*
X146380000Y-146930000D03*
D23*
X165000000Y-95000000D03*
X190000000Y-65000000D03*
D12*
X154940000Y-83820000D03*
D19*
X154940000Y-93980000D03*
D23*
X110000000Y-135000000D03*
D20*
X127000000Y-123340000D03*
D21*
X124460000Y-106680000D03*
D22*
X127000000Y-106680000D03*
X129540000Y-106680000D03*
D12*
X129620000Y-83820000D03*
X134620000Y-83820000D03*
D27*
X172600000Y-137720000D03*
X165100000Y-134620000D03*
D28*
X182880000Y-106680000D03*
D29*
X182880000Y-137160000D03*
D13*
X126000000Y-146930000D03*
D14*
X121620000Y-146930000D03*
X130380000Y-146930000D03*
D30*
X129540000Y-103162500D03*
X129540000Y-100037500D03*
D12*
X127000000Y-73660000D03*
D19*
X127000000Y-83820000D03*
D12*
X139700000Y-83820000D03*
D19*
X139700000Y-93980000D03*
D20*
X142240000Y-123340000D03*
D21*
X139700000Y-106680000D03*
D22*
X142240000Y-106680000D03*
X144780000Y-106680000D03*
D17*
X121000000Y-55500000D03*
D18*
X119500000Y-55500000D03*
X118000000Y-55500000D03*
X116500000Y-55500000D03*
X115000000Y-55500000D03*
X113500000Y-55500000D03*
X112000000Y-55500000D03*
X110500000Y-55500000D03*
X109000000Y-55500000D03*
X107500000Y-55500000D03*
D31*
X139765000Y-68580000D03*
X139765000Y-69850000D03*
X139765000Y-71120000D03*
X139765000Y-72390000D03*
X144715000Y-72390000D03*
X144715000Y-71120000D03*
X144715000Y-69850000D03*
X144715000Y-68580000D03*
D13*
X158000000Y-146930000D03*
D14*
X153620000Y-146930000D03*
X162380000Y-146930000D03*
D12*
X119380000Y-81280000D03*
D19*
X119380000Y-71120000D03*
D12*
X175260000Y-93980000D03*
D19*
X175260000Y-83820000D03*
D13*
X174000000Y-146930000D03*
D14*
X169620000Y-146930000D03*
X178380000Y-146930000D03*
D32*
X129540000Y-63500000D03*
D19*
X119380000Y-63500000D03*
D33*
X136182500Y-73660000D03*
X133057500Y-73660000D03*
D34*
X172800000Y-58420000D03*
D35*
X177800000Y-58420000D03*
D13*
X110000000Y-146930000D03*
D14*
X105620000Y-146930000D03*
X114380000Y-146930000D03*
D12*
X147400000Y-63500000D03*
X152400000Y-63500000D03*
D32*
X129540000Y-66040000D03*
D19*
X119380000Y-66040000D03*
D23*
X110000000Y-95000000D03*
M02*
