G04 #@! TF.GenerationSoftware,KiCad,Pcbnew,9.0.0*
G04 #@! TF.CreationDate,2025-07-09T11:38:48-07:00*
G04 #@! TF.ProjectId,bipolar_current_driver_ADA4700-1,6269706f-6c61-4725-9f63-757272656e74,rev?*
G04 #@! TF.SameCoordinates,Original*
G04 #@! TF.FileFunction,Legend,Bot*
G04 #@! TF.FilePolarity,Positive*
%FSLAX46Y46*%
G04 Gerber Fmt 4.6, Leading zero omitted, Abs format (unit mm)*
G04 Created by KiCad (PCBNEW 9.0.0) date 2025-07-09 11:38:48*
%MOMM*%
%LPD*%
G01*
G04 APERTURE LIST*
G04 Aperture macros list*
%AMRoundRect*
0 Rectangle with rounded corners*
0 $1 Rounding radius*
0 $2 $3 $4 $5 $6 $7 $8 $9 X,Y pos of 4 corners*
0 Add a 4 corners polygon primitive as box body*
4,1,4,$2,$3,$4,$5,$6,$7,$8,$9,$2,$3,0*
0 Add four circle primitives for the rounded corners*
1,1,$1+$1,$2,$3*
1,1,$1+$1,$4,$5*
1,1,$1+$1,$6,$7*
1,1,$1+$1,$8,$9*
0 Add four rect primitives between the rounded corners*
20,1,$1+$1,$2,$3,$4,$5,0*
20,1,$1+$1,$4,$5,$6,$7,0*
20,1,$1+$1,$6,$7,$8,$9,0*
20,1,$1+$1,$8,$9,$2,$3,0*%
G04 Aperture macros list end*
%ADD10C,0.150000*%
%ADD11C,1.600000*%
%ADD12R,2.420000X5.080000*%
%ADD13RoundRect,0.249999X-1.025001X-1.025001X1.025001X-1.025001X1.025001X1.025001X-1.025001X1.025001X0*%
%ADD14C,2.550000*%
%ADD15RoundRect,0.250000X0.265000X0.615000X-0.265000X0.615000X-0.265000X-0.615000X0.265000X-0.615000X0*%
%ADD16O,1.030000X1.730000*%
%ADD17O,1.600000X1.600000*%
%ADD18C,3.500000*%
%ADD19R,1.905000X2.000000*%
%ADD20O,1.905000X2.000000*%
%ADD21C,3.200000*%
%ADD22R,2.000000X2.000000*%
%ADD23C,2.000000*%
%ADD24C,1.800000*%
%ADD25C,2.400000*%
%ADD26O,2.400000X2.400000*%
%ADD27R,1.600000X1.600000*%
%ADD28R,1.980000X3.960000*%
%ADD29O,1.980000X3.960000*%
G04 APERTURE END LIST*
D10*
X190000000Y-70000000D02*
X190000000Y-130000000D01*
X114860000Y-66040000D02*
X184860000Y-66040000D01*
X114300000Y-95000000D02*
X160020000Y-95000000D01*
X110000000Y-99540000D02*
X110000000Y-129540000D01*
X389048571Y-112482200D02*
X389143809Y-112529819D01*
X389143809Y-112529819D02*
X389334285Y-112529819D01*
X389334285Y-112529819D02*
X389429523Y-112482200D01*
X389429523Y-112482200D02*
X389477142Y-112386961D01*
X389477142Y-112386961D02*
X389477142Y-112006009D01*
X389477142Y-112006009D02*
X389429523Y-111910771D01*
X389429523Y-111910771D02*
X389334285Y-111863152D01*
X389334285Y-111863152D02*
X389143809Y-111863152D01*
X389143809Y-111863152D02*
X389048571Y-111910771D01*
X389048571Y-111910771D02*
X389000952Y-112006009D01*
X389000952Y-112006009D02*
X389000952Y-112101247D01*
X389000952Y-112101247D02*
X389477142Y-112196485D01*
X388572380Y-112529819D02*
X388572380Y-111863152D01*
X388572380Y-112053628D02*
X388524761Y-111958390D01*
X388524761Y-111958390D02*
X388477142Y-111910771D01*
X388477142Y-111910771D02*
X388381904Y-111863152D01*
X388381904Y-111863152D02*
X388286666Y-111863152D01*
X387953332Y-112529819D02*
X387953332Y-111863152D01*
X387953332Y-112053628D02*
X387905713Y-111958390D01*
X387905713Y-111958390D02*
X387858094Y-111910771D01*
X387858094Y-111910771D02*
X387762856Y-111863152D01*
X387762856Y-111863152D02*
X387667618Y-111863152D01*
X138731428Y-95389819D02*
X139207618Y-95389819D01*
X139207618Y-95389819D02*
X139255237Y-95866009D01*
X139255237Y-95866009D02*
X139207618Y-95818390D01*
X139207618Y-95818390D02*
X139112380Y-95770771D01*
X139112380Y-95770771D02*
X138874285Y-95770771D01*
X138874285Y-95770771D02*
X138779047Y-95818390D01*
X138779047Y-95818390D02*
X138731428Y-95866009D01*
X138731428Y-95866009D02*
X138683809Y-95961247D01*
X138683809Y-95961247D02*
X138683809Y-96199342D01*
X138683809Y-96199342D02*
X138731428Y-96294580D01*
X138731428Y-96294580D02*
X138779047Y-96342200D01*
X138779047Y-96342200D02*
X138874285Y-96389819D01*
X138874285Y-96389819D02*
X139112380Y-96389819D01*
X139112380Y-96389819D02*
X139207618Y-96342200D01*
X139207618Y-96342200D02*
X139255237Y-96294580D01*
X137779047Y-95389819D02*
X138255237Y-95389819D01*
X138255237Y-95389819D02*
X138302856Y-95866009D01*
X138302856Y-95866009D02*
X138255237Y-95818390D01*
X138255237Y-95818390D02*
X138159999Y-95770771D01*
X138159999Y-95770771D02*
X137921904Y-95770771D01*
X137921904Y-95770771D02*
X137826666Y-95818390D01*
X137826666Y-95818390D02*
X137779047Y-95866009D01*
X137779047Y-95866009D02*
X137731428Y-95961247D01*
X137731428Y-95961247D02*
X137731428Y-96199342D01*
X137731428Y-96199342D02*
X137779047Y-96294580D01*
X137779047Y-96294580D02*
X137826666Y-96342200D01*
X137826666Y-96342200D02*
X137921904Y-96389819D01*
X137921904Y-96389819D02*
X138159999Y-96389819D01*
X138159999Y-96389819D02*
X138255237Y-96342200D01*
X138255237Y-96342200D02*
X138302856Y-96294580D01*
X137302856Y-96389819D02*
X137302856Y-95723152D01*
X137302856Y-95818390D02*
X137255237Y-95770771D01*
X137255237Y-95770771D02*
X137159999Y-95723152D01*
X137159999Y-95723152D02*
X137017142Y-95723152D01*
X137017142Y-95723152D02*
X136921904Y-95770771D01*
X136921904Y-95770771D02*
X136874285Y-95866009D01*
X136874285Y-95866009D02*
X136874285Y-96389819D01*
X136874285Y-95866009D02*
X136826666Y-95770771D01*
X136826666Y-95770771D02*
X136731428Y-95723152D01*
X136731428Y-95723152D02*
X136588571Y-95723152D01*
X136588571Y-95723152D02*
X136493332Y-95770771D01*
X136493332Y-95770771D02*
X136445713Y-95866009D01*
X136445713Y-95866009D02*
X136445713Y-96389819D01*
X135969523Y-96389819D02*
X135969523Y-95723152D01*
X135969523Y-95818390D02*
X135921904Y-95770771D01*
X135921904Y-95770771D02*
X135826666Y-95723152D01*
X135826666Y-95723152D02*
X135683809Y-95723152D01*
X135683809Y-95723152D02*
X135588571Y-95770771D01*
X135588571Y-95770771D02*
X135540952Y-95866009D01*
X135540952Y-95866009D02*
X135540952Y-96389819D01*
X135540952Y-95866009D02*
X135493333Y-95770771D01*
X135493333Y-95770771D02*
X135398095Y-95723152D01*
X135398095Y-95723152D02*
X135255238Y-95723152D01*
X135255238Y-95723152D02*
X135159999Y-95770771D01*
X135159999Y-95770771D02*
X135112380Y-95866009D01*
X135112380Y-95866009D02*
X135112380Y-96389819D01*
X101869819Y-106873922D02*
X102869819Y-107207255D01*
X102869819Y-107207255D02*
X101869819Y-107540588D01*
X102869819Y-108397731D02*
X102869819Y-107826303D01*
X102869819Y-108112017D02*
X101869819Y-108112017D01*
X101869819Y-108112017D02*
X102012676Y-108016779D01*
X102012676Y-108016779D02*
X102107914Y-107921541D01*
X102107914Y-107921541D02*
X102155533Y-107826303D01*
X102869819Y-109254874D02*
X102346009Y-109254874D01*
X102346009Y-109254874D02*
X102250771Y-109207255D01*
X102250771Y-109207255D02*
X102203152Y-109112017D01*
X102203152Y-109112017D02*
X102203152Y-108921541D01*
X102203152Y-108921541D02*
X102250771Y-108826303D01*
X102822200Y-109254874D02*
X102869819Y-109159636D01*
X102869819Y-109159636D02*
X102869819Y-108921541D01*
X102869819Y-108921541D02*
X102822200Y-108826303D01*
X102822200Y-108826303D02*
X102726961Y-108778684D01*
X102726961Y-108778684D02*
X102631723Y-108778684D01*
X102631723Y-108778684D02*
X102536485Y-108826303D01*
X102536485Y-108826303D02*
X102488866Y-108921541D01*
X102488866Y-108921541D02*
X102488866Y-109159636D01*
X102488866Y-109159636D02*
X102441247Y-109254874D01*
X102488866Y-110492970D02*
X102488866Y-111254875D01*
X102584104Y-112445351D02*
X102584104Y-112921541D01*
X102869819Y-112350113D02*
X101869819Y-112683446D01*
X101869819Y-112683446D02*
X102869819Y-113016779D01*
X102869819Y-113350113D02*
X101869819Y-113350113D01*
X101869819Y-113350113D02*
X101869819Y-113588208D01*
X101869819Y-113588208D02*
X101917438Y-113731065D01*
X101917438Y-113731065D02*
X102012676Y-113826303D01*
X102012676Y-113826303D02*
X102107914Y-113873922D01*
X102107914Y-113873922D02*
X102298390Y-113921541D01*
X102298390Y-113921541D02*
X102441247Y-113921541D01*
X102441247Y-113921541D02*
X102631723Y-113873922D01*
X102631723Y-113873922D02*
X102726961Y-113826303D01*
X102726961Y-113826303D02*
X102822200Y-113731065D01*
X102822200Y-113731065D02*
X102869819Y-113588208D01*
X102869819Y-113588208D02*
X102869819Y-113350113D01*
X102203152Y-114778684D02*
X102869819Y-114778684D01*
X101822200Y-114540589D02*
X102536485Y-114302494D01*
X102536485Y-114302494D02*
X102536485Y-114921541D01*
X101869819Y-115207256D02*
X101869819Y-115873922D01*
X101869819Y-115873922D02*
X102869819Y-115445351D01*
X101869819Y-116445351D02*
X101869819Y-116540589D01*
X101869819Y-116540589D02*
X101917438Y-116635827D01*
X101917438Y-116635827D02*
X101965057Y-116683446D01*
X101965057Y-116683446D02*
X102060295Y-116731065D01*
X102060295Y-116731065D02*
X102250771Y-116778684D01*
X102250771Y-116778684D02*
X102488866Y-116778684D01*
X102488866Y-116778684D02*
X102679342Y-116731065D01*
X102679342Y-116731065D02*
X102774580Y-116683446D01*
X102774580Y-116683446D02*
X102822200Y-116635827D01*
X102822200Y-116635827D02*
X102869819Y-116540589D01*
X102869819Y-116540589D02*
X102869819Y-116445351D01*
X102869819Y-116445351D02*
X102822200Y-116350113D01*
X102822200Y-116350113D02*
X102774580Y-116302494D01*
X102774580Y-116302494D02*
X102679342Y-116254875D01*
X102679342Y-116254875D02*
X102488866Y-116207256D01*
X102488866Y-116207256D02*
X102250771Y-116207256D01*
X102250771Y-116207256D02*
X102060295Y-116254875D01*
X102060295Y-116254875D02*
X101965057Y-116302494D01*
X101965057Y-116302494D02*
X101917438Y-116350113D01*
X101917438Y-116350113D02*
X101869819Y-116445351D01*
X101869819Y-117397732D02*
X101869819Y-117492970D01*
X101869819Y-117492970D02*
X101917438Y-117588208D01*
X101917438Y-117588208D02*
X101965057Y-117635827D01*
X101965057Y-117635827D02*
X102060295Y-117683446D01*
X102060295Y-117683446D02*
X102250771Y-117731065D01*
X102250771Y-117731065D02*
X102488866Y-117731065D01*
X102488866Y-117731065D02*
X102679342Y-117683446D01*
X102679342Y-117683446D02*
X102774580Y-117635827D01*
X102774580Y-117635827D02*
X102822200Y-117588208D01*
X102822200Y-117588208D02*
X102869819Y-117492970D01*
X102869819Y-117492970D02*
X102869819Y-117397732D01*
X102869819Y-117397732D02*
X102822200Y-117302494D01*
X102822200Y-117302494D02*
X102774580Y-117254875D01*
X102774580Y-117254875D02*
X102679342Y-117207256D01*
X102679342Y-117207256D02*
X102488866Y-117159637D01*
X102488866Y-117159637D02*
X102250771Y-117159637D01*
X102250771Y-117159637D02*
X102060295Y-117207256D01*
X102060295Y-117207256D02*
X101965057Y-117254875D01*
X101965057Y-117254875D02*
X101917438Y-117302494D01*
X101917438Y-117302494D02*
X101869819Y-117397732D01*
X102488866Y-118159637D02*
X102488866Y-118921542D01*
X102869819Y-119921541D02*
X102869819Y-119350113D01*
X102869819Y-119635827D02*
X101869819Y-119635827D01*
X101869819Y-119635827D02*
X102012676Y-119540589D01*
X102012676Y-119540589D02*
X102107914Y-119445351D01*
X102107914Y-119445351D02*
X102155533Y-119350113D01*
X101699819Y-71241541D02*
X101795057Y-71527255D01*
X101795057Y-71527255D02*
X101890295Y-71622493D01*
X101890295Y-71622493D02*
X102080771Y-71717731D01*
X102080771Y-71717731D02*
X102366485Y-71717731D01*
X102366485Y-71717731D02*
X102556961Y-71622493D01*
X102556961Y-71622493D02*
X102652200Y-71527255D01*
X102652200Y-71527255D02*
X102747438Y-71336779D01*
X102747438Y-71336779D02*
X102747438Y-70574874D01*
X102747438Y-70574874D02*
X100747438Y-70574874D01*
X100747438Y-70574874D02*
X100747438Y-71241541D01*
X100747438Y-71241541D02*
X100842676Y-71432017D01*
X100842676Y-71432017D02*
X100937914Y-71527255D01*
X100937914Y-71527255D02*
X101128390Y-71622493D01*
X101128390Y-71622493D02*
X101318866Y-71622493D01*
X101318866Y-71622493D02*
X101509342Y-71527255D01*
X101509342Y-71527255D02*
X101604580Y-71432017D01*
X101604580Y-71432017D02*
X101699819Y-71241541D01*
X101699819Y-71241541D02*
X101699819Y-70574874D01*
X102747438Y-72574874D02*
X101414104Y-72574874D01*
X100747438Y-72574874D02*
X100842676Y-72479636D01*
X100842676Y-72479636D02*
X100937914Y-72574874D01*
X100937914Y-72574874D02*
X100842676Y-72670112D01*
X100842676Y-72670112D02*
X100747438Y-72574874D01*
X100747438Y-72574874D02*
X100937914Y-72574874D01*
X101414104Y-73527255D02*
X103414104Y-73527255D01*
X101509342Y-73527255D02*
X101414104Y-73717731D01*
X101414104Y-73717731D02*
X101414104Y-74098684D01*
X101414104Y-74098684D02*
X101509342Y-74289160D01*
X101509342Y-74289160D02*
X101604580Y-74384398D01*
X101604580Y-74384398D02*
X101795057Y-74479636D01*
X101795057Y-74479636D02*
X102366485Y-74479636D01*
X102366485Y-74479636D02*
X102556961Y-74384398D01*
X102556961Y-74384398D02*
X102652200Y-74289160D01*
X102652200Y-74289160D02*
X102747438Y-74098684D01*
X102747438Y-74098684D02*
X102747438Y-73717731D01*
X102747438Y-73717731D02*
X102652200Y-73527255D01*
X102747438Y-75622493D02*
X102652200Y-75432017D01*
X102652200Y-75432017D02*
X102556961Y-75336779D01*
X102556961Y-75336779D02*
X102366485Y-75241541D01*
X102366485Y-75241541D02*
X101795057Y-75241541D01*
X101795057Y-75241541D02*
X101604580Y-75336779D01*
X101604580Y-75336779D02*
X101509342Y-75432017D01*
X101509342Y-75432017D02*
X101414104Y-75622493D01*
X101414104Y-75622493D02*
X101414104Y-75908208D01*
X101414104Y-75908208D02*
X101509342Y-76098684D01*
X101509342Y-76098684D02*
X101604580Y-76193922D01*
X101604580Y-76193922D02*
X101795057Y-76289160D01*
X101795057Y-76289160D02*
X102366485Y-76289160D01*
X102366485Y-76289160D02*
X102556961Y-76193922D01*
X102556961Y-76193922D02*
X102652200Y-76098684D01*
X102652200Y-76098684D02*
X102747438Y-75908208D01*
X102747438Y-75908208D02*
X102747438Y-75622493D01*
X102747438Y-77432017D02*
X102652200Y-77241541D01*
X102652200Y-77241541D02*
X102461723Y-77146303D01*
X102461723Y-77146303D02*
X100747438Y-77146303D01*
X102747438Y-79051065D02*
X101699819Y-79051065D01*
X101699819Y-79051065D02*
X101509342Y-78955827D01*
X101509342Y-78955827D02*
X101414104Y-78765351D01*
X101414104Y-78765351D02*
X101414104Y-78384398D01*
X101414104Y-78384398D02*
X101509342Y-78193922D01*
X102652200Y-79051065D02*
X102747438Y-78860589D01*
X102747438Y-78860589D02*
X102747438Y-78384398D01*
X102747438Y-78384398D02*
X102652200Y-78193922D01*
X102652200Y-78193922D02*
X102461723Y-78098684D01*
X102461723Y-78098684D02*
X102271247Y-78098684D01*
X102271247Y-78098684D02*
X102080771Y-78193922D01*
X102080771Y-78193922D02*
X101985533Y-78384398D01*
X101985533Y-78384398D02*
X101985533Y-78860589D01*
X101985533Y-78860589D02*
X101890295Y-79051065D01*
X102747438Y-80003446D02*
X101414104Y-80003446D01*
X101795057Y-80003446D02*
X101604580Y-80098684D01*
X101604580Y-80098684D02*
X101509342Y-80193922D01*
X101509342Y-80193922D02*
X101414104Y-80384398D01*
X101414104Y-80384398D02*
X101414104Y-80574875D01*
X102556961Y-83908208D02*
X102652200Y-83812970D01*
X102652200Y-83812970D02*
X102747438Y-83527256D01*
X102747438Y-83527256D02*
X102747438Y-83336780D01*
X102747438Y-83336780D02*
X102652200Y-83051065D01*
X102652200Y-83051065D02*
X102461723Y-82860589D01*
X102461723Y-82860589D02*
X102271247Y-82765351D01*
X102271247Y-82765351D02*
X101890295Y-82670113D01*
X101890295Y-82670113D02*
X101604580Y-82670113D01*
X101604580Y-82670113D02*
X101223628Y-82765351D01*
X101223628Y-82765351D02*
X101033152Y-82860589D01*
X101033152Y-82860589D02*
X100842676Y-83051065D01*
X100842676Y-83051065D02*
X100747438Y-83336780D01*
X100747438Y-83336780D02*
X100747438Y-83527256D01*
X100747438Y-83527256D02*
X100842676Y-83812970D01*
X100842676Y-83812970D02*
X100937914Y-83908208D01*
X101414104Y-85622494D02*
X102747438Y-85622494D01*
X101414104Y-84765351D02*
X102461723Y-84765351D01*
X102461723Y-84765351D02*
X102652200Y-84860589D01*
X102652200Y-84860589D02*
X102747438Y-85051065D01*
X102747438Y-85051065D02*
X102747438Y-85336780D01*
X102747438Y-85336780D02*
X102652200Y-85527256D01*
X102652200Y-85527256D02*
X102556961Y-85622494D01*
X102747438Y-86574875D02*
X101414104Y-86574875D01*
X101795057Y-86574875D02*
X101604580Y-86670113D01*
X101604580Y-86670113D02*
X101509342Y-86765351D01*
X101509342Y-86765351D02*
X101414104Y-86955827D01*
X101414104Y-86955827D02*
X101414104Y-87146304D01*
X102747438Y-87812970D02*
X101414104Y-87812970D01*
X101795057Y-87812970D02*
X101604580Y-87908208D01*
X101604580Y-87908208D02*
X101509342Y-88003446D01*
X101509342Y-88003446D02*
X101414104Y-88193922D01*
X101414104Y-88193922D02*
X101414104Y-88384399D01*
X102652200Y-89812970D02*
X102747438Y-89622494D01*
X102747438Y-89622494D02*
X102747438Y-89241541D01*
X102747438Y-89241541D02*
X102652200Y-89051065D01*
X102652200Y-89051065D02*
X102461723Y-88955827D01*
X102461723Y-88955827D02*
X101699819Y-88955827D01*
X101699819Y-88955827D02*
X101509342Y-89051065D01*
X101509342Y-89051065D02*
X101414104Y-89241541D01*
X101414104Y-89241541D02*
X101414104Y-89622494D01*
X101414104Y-89622494D02*
X101509342Y-89812970D01*
X101509342Y-89812970D02*
X101699819Y-89908208D01*
X101699819Y-89908208D02*
X101890295Y-89908208D01*
X101890295Y-89908208D02*
X102080771Y-88955827D01*
X101414104Y-90765351D02*
X102747438Y-90765351D01*
X101604580Y-90765351D02*
X101509342Y-90860589D01*
X101509342Y-90860589D02*
X101414104Y-91051065D01*
X101414104Y-91051065D02*
X101414104Y-91336780D01*
X101414104Y-91336780D02*
X101509342Y-91527256D01*
X101509342Y-91527256D02*
X101699819Y-91622494D01*
X101699819Y-91622494D02*
X102747438Y-91622494D01*
X101414104Y-92289161D02*
X101414104Y-93051065D01*
X100747438Y-92574875D02*
X102461723Y-92574875D01*
X102461723Y-92574875D02*
X102652200Y-92670113D01*
X102652200Y-92670113D02*
X102747438Y-92860589D01*
X102747438Y-92860589D02*
X102747438Y-93051065D01*
X102652200Y-95146304D02*
X102747438Y-95432018D01*
X102747438Y-95432018D02*
X102747438Y-95908209D01*
X102747438Y-95908209D02*
X102652200Y-96098685D01*
X102652200Y-96098685D02*
X102556961Y-96193923D01*
X102556961Y-96193923D02*
X102366485Y-96289161D01*
X102366485Y-96289161D02*
X102176009Y-96289161D01*
X102176009Y-96289161D02*
X101985533Y-96193923D01*
X101985533Y-96193923D02*
X101890295Y-96098685D01*
X101890295Y-96098685D02*
X101795057Y-95908209D01*
X101795057Y-95908209D02*
X101699819Y-95527256D01*
X101699819Y-95527256D02*
X101604580Y-95336780D01*
X101604580Y-95336780D02*
X101509342Y-95241542D01*
X101509342Y-95241542D02*
X101318866Y-95146304D01*
X101318866Y-95146304D02*
X101128390Y-95146304D01*
X101128390Y-95146304D02*
X100937914Y-95241542D01*
X100937914Y-95241542D02*
X100842676Y-95336780D01*
X100842676Y-95336780D02*
X100747438Y-95527256D01*
X100747438Y-95527256D02*
X100747438Y-96003447D01*
X100747438Y-96003447D02*
X100842676Y-96289161D01*
X102747438Y-97432018D02*
X102652200Y-97241542D01*
X102652200Y-97241542D02*
X102556961Y-97146304D01*
X102556961Y-97146304D02*
X102366485Y-97051066D01*
X102366485Y-97051066D02*
X101795057Y-97051066D01*
X101795057Y-97051066D02*
X101604580Y-97146304D01*
X101604580Y-97146304D02*
X101509342Y-97241542D01*
X101509342Y-97241542D02*
X101414104Y-97432018D01*
X101414104Y-97432018D02*
X101414104Y-97717733D01*
X101414104Y-97717733D02*
X101509342Y-97908209D01*
X101509342Y-97908209D02*
X101604580Y-98003447D01*
X101604580Y-98003447D02*
X101795057Y-98098685D01*
X101795057Y-98098685D02*
X102366485Y-98098685D01*
X102366485Y-98098685D02*
X102556961Y-98003447D01*
X102556961Y-98003447D02*
X102652200Y-97908209D01*
X102652200Y-97908209D02*
X102747438Y-97717733D01*
X102747438Y-97717733D02*
X102747438Y-97432018D01*
X101414104Y-99812971D02*
X102747438Y-99812971D01*
X101414104Y-98955828D02*
X102461723Y-98955828D01*
X102461723Y-98955828D02*
X102652200Y-99051066D01*
X102652200Y-99051066D02*
X102747438Y-99241542D01*
X102747438Y-99241542D02*
X102747438Y-99527257D01*
X102747438Y-99527257D02*
X102652200Y-99717733D01*
X102652200Y-99717733D02*
X102556961Y-99812971D01*
X102747438Y-100765352D02*
X101414104Y-100765352D01*
X101795057Y-100765352D02*
X101604580Y-100860590D01*
X101604580Y-100860590D02*
X101509342Y-100955828D01*
X101509342Y-100955828D02*
X101414104Y-101146304D01*
X101414104Y-101146304D02*
X101414104Y-101336781D01*
X102652200Y-102860590D02*
X102747438Y-102670114D01*
X102747438Y-102670114D02*
X102747438Y-102289161D01*
X102747438Y-102289161D02*
X102652200Y-102098685D01*
X102652200Y-102098685D02*
X102556961Y-102003447D01*
X102556961Y-102003447D02*
X102366485Y-101908209D01*
X102366485Y-101908209D02*
X101795057Y-101908209D01*
X101795057Y-101908209D02*
X101604580Y-102003447D01*
X101604580Y-102003447D02*
X101509342Y-102098685D01*
X101509342Y-102098685D02*
X101414104Y-102289161D01*
X101414104Y-102289161D02*
X101414104Y-102670114D01*
X101414104Y-102670114D02*
X101509342Y-102860590D01*
X102652200Y-104479638D02*
X102747438Y-104289162D01*
X102747438Y-104289162D02*
X102747438Y-103908209D01*
X102747438Y-103908209D02*
X102652200Y-103717733D01*
X102652200Y-103717733D02*
X102461723Y-103622495D01*
X102461723Y-103622495D02*
X101699819Y-103622495D01*
X101699819Y-103622495D02*
X101509342Y-103717733D01*
X101509342Y-103717733D02*
X101414104Y-103908209D01*
X101414104Y-103908209D02*
X101414104Y-104289162D01*
X101414104Y-104289162D02*
X101509342Y-104479638D01*
X101509342Y-104479638D02*
X101699819Y-104574876D01*
X101699819Y-104574876D02*
X101890295Y-104574876D01*
X101890295Y-104574876D02*
X102080771Y-103622495D01*
X110796847Y-116159047D02*
X110130180Y-116159047D01*
X111177800Y-116397142D02*
X110463514Y-116635237D01*
X110463514Y-116635237D02*
X110463514Y-116016190D01*
X111130180Y-115444761D02*
X111130180Y-115349523D01*
X111130180Y-115349523D02*
X111082561Y-115254285D01*
X111082561Y-115254285D02*
X111034942Y-115206666D01*
X111034942Y-115206666D02*
X110939704Y-115159047D01*
X110939704Y-115159047D02*
X110749228Y-115111428D01*
X110749228Y-115111428D02*
X110511133Y-115111428D01*
X110511133Y-115111428D02*
X110320657Y-115159047D01*
X110320657Y-115159047D02*
X110225419Y-115206666D01*
X110225419Y-115206666D02*
X110177800Y-115254285D01*
X110177800Y-115254285D02*
X110130180Y-115349523D01*
X110130180Y-115349523D02*
X110130180Y-115444761D01*
X110130180Y-115444761D02*
X110177800Y-115539999D01*
X110177800Y-115539999D02*
X110225419Y-115587618D01*
X110225419Y-115587618D02*
X110320657Y-115635237D01*
X110320657Y-115635237D02*
X110511133Y-115682856D01*
X110511133Y-115682856D02*
X110749228Y-115682856D01*
X110749228Y-115682856D02*
X110939704Y-115635237D01*
X110939704Y-115635237D02*
X111034942Y-115587618D01*
X111034942Y-115587618D02*
X111082561Y-115539999D01*
X111082561Y-115539999D02*
X111130180Y-115444761D01*
X110130180Y-114682856D02*
X110796847Y-114682856D01*
X110701609Y-114682856D02*
X110749228Y-114635237D01*
X110749228Y-114635237D02*
X110796847Y-114539999D01*
X110796847Y-114539999D02*
X110796847Y-114397142D01*
X110796847Y-114397142D02*
X110749228Y-114301904D01*
X110749228Y-114301904D02*
X110653990Y-114254285D01*
X110653990Y-114254285D02*
X110130180Y-114254285D01*
X110653990Y-114254285D02*
X110749228Y-114206666D01*
X110749228Y-114206666D02*
X110796847Y-114111428D01*
X110796847Y-114111428D02*
X110796847Y-113968571D01*
X110796847Y-113968571D02*
X110749228Y-113873332D01*
X110749228Y-113873332D02*
X110653990Y-113825713D01*
X110653990Y-113825713D02*
X110130180Y-113825713D01*
X110130180Y-113349523D02*
X110796847Y-113349523D01*
X110701609Y-113349523D02*
X110749228Y-113301904D01*
X110749228Y-113301904D02*
X110796847Y-113206666D01*
X110796847Y-113206666D02*
X110796847Y-113063809D01*
X110796847Y-113063809D02*
X110749228Y-112968571D01*
X110749228Y-112968571D02*
X110653990Y-112920952D01*
X110653990Y-112920952D02*
X110130180Y-112920952D01*
X110653990Y-112920952D02*
X110749228Y-112873333D01*
X110749228Y-112873333D02*
X110796847Y-112778095D01*
X110796847Y-112778095D02*
X110796847Y-112635238D01*
X110796847Y-112635238D02*
X110749228Y-112539999D01*
X110749228Y-112539999D02*
X110653990Y-112492380D01*
X110653990Y-112492380D02*
X110130180Y-112492380D01*
X104393628Y-70527255D02*
X104869819Y-70527255D01*
X103869819Y-70193922D02*
X104393628Y-70527255D01*
X104393628Y-70527255D02*
X103869819Y-70860588D01*
X104774580Y-71193922D02*
X104822200Y-71241541D01*
X104822200Y-71241541D02*
X104869819Y-71193922D01*
X104869819Y-71193922D02*
X104822200Y-71146303D01*
X104822200Y-71146303D02*
X104774580Y-71193922D01*
X104774580Y-71193922D02*
X104869819Y-71193922D01*
X104393628Y-71860588D02*
X104869819Y-71860588D01*
X103869819Y-71527255D02*
X104393628Y-71860588D01*
X104393628Y-71860588D02*
X103869819Y-72193921D01*
X104869819Y-72955826D02*
X104346009Y-72955826D01*
X104346009Y-72955826D02*
X104250771Y-72908207D01*
X104250771Y-72908207D02*
X104203152Y-72812969D01*
X104203152Y-72812969D02*
X104203152Y-72622493D01*
X104203152Y-72622493D02*
X104250771Y-72527255D01*
X104822200Y-72955826D02*
X104869819Y-72860588D01*
X104869819Y-72860588D02*
X104869819Y-72622493D01*
X104869819Y-72622493D02*
X104822200Y-72527255D01*
X104822200Y-72527255D02*
X104726961Y-72479636D01*
X104726961Y-72479636D02*
X104631723Y-72479636D01*
X104631723Y-72479636D02*
X104536485Y-72527255D01*
X104536485Y-72527255D02*
X104488866Y-72622493D01*
X104488866Y-72622493D02*
X104488866Y-72860588D01*
X104488866Y-72860588D02*
X104441247Y-72955826D01*
X104203152Y-73432017D02*
X104869819Y-73432017D01*
X104298390Y-73432017D02*
X104250771Y-73479636D01*
X104250771Y-73479636D02*
X104203152Y-73574874D01*
X104203152Y-73574874D02*
X104203152Y-73717731D01*
X104203152Y-73717731D02*
X104250771Y-73812969D01*
X104250771Y-73812969D02*
X104346009Y-73860588D01*
X104346009Y-73860588D02*
X104869819Y-73860588D01*
X104203152Y-74765350D02*
X105012676Y-74765350D01*
X105012676Y-74765350D02*
X105107914Y-74717731D01*
X105107914Y-74717731D02*
X105155533Y-74670112D01*
X105155533Y-74670112D02*
X105203152Y-74574874D01*
X105203152Y-74574874D02*
X105203152Y-74432017D01*
X105203152Y-74432017D02*
X105155533Y-74336779D01*
X104822200Y-74765350D02*
X104869819Y-74670112D01*
X104869819Y-74670112D02*
X104869819Y-74479636D01*
X104869819Y-74479636D02*
X104822200Y-74384398D01*
X104822200Y-74384398D02*
X104774580Y-74336779D01*
X104774580Y-74336779D02*
X104679342Y-74289160D01*
X104679342Y-74289160D02*
X104393628Y-74289160D01*
X104393628Y-74289160D02*
X104298390Y-74336779D01*
X104298390Y-74336779D02*
X104250771Y-74384398D01*
X104250771Y-74384398D02*
X104203152Y-74479636D01*
X104203152Y-74479636D02*
X104203152Y-74670112D01*
X104203152Y-74670112D02*
X104250771Y-74765350D01*
X104822200Y-75289160D02*
X104869819Y-75289160D01*
X104869819Y-75289160D02*
X104965057Y-75241541D01*
X104965057Y-75241541D02*
X105012676Y-75193922D01*
X104869819Y-76479636D02*
X103869819Y-76479636D01*
X103869819Y-76479636D02*
X104584104Y-76812969D01*
X104584104Y-76812969D02*
X103869819Y-77146302D01*
X103869819Y-77146302D02*
X104869819Y-77146302D01*
X104203152Y-78051064D02*
X104869819Y-78051064D01*
X104203152Y-77622493D02*
X104726961Y-77622493D01*
X104726961Y-77622493D02*
X104822200Y-77670112D01*
X104822200Y-77670112D02*
X104869819Y-77765350D01*
X104869819Y-77765350D02*
X104869819Y-77908207D01*
X104869819Y-77908207D02*
X104822200Y-78003445D01*
X104822200Y-78003445D02*
X104774580Y-78051064D01*
X104822200Y-78908207D02*
X104869819Y-78812969D01*
X104869819Y-78812969D02*
X104869819Y-78622493D01*
X104869819Y-78622493D02*
X104822200Y-78527255D01*
X104822200Y-78527255D02*
X104726961Y-78479636D01*
X104726961Y-78479636D02*
X104346009Y-78479636D01*
X104346009Y-78479636D02*
X104250771Y-78527255D01*
X104250771Y-78527255D02*
X104203152Y-78622493D01*
X104203152Y-78622493D02*
X104203152Y-78812969D01*
X104203152Y-78812969D02*
X104250771Y-78908207D01*
X104250771Y-78908207D02*
X104346009Y-78955826D01*
X104346009Y-78955826D02*
X104441247Y-78955826D01*
X104441247Y-78955826D02*
X104536485Y-78479636D01*
X104869819Y-79527255D02*
X104822200Y-79432017D01*
X104822200Y-79432017D02*
X104726961Y-79384398D01*
X104726961Y-79384398D02*
X103869819Y-79384398D01*
X104869819Y-80051065D02*
X104822200Y-79955827D01*
X104822200Y-79955827D02*
X104726961Y-79908208D01*
X104726961Y-79908208D02*
X103869819Y-79908208D01*
X104822200Y-80812970D02*
X104869819Y-80717732D01*
X104869819Y-80717732D02*
X104869819Y-80527256D01*
X104869819Y-80527256D02*
X104822200Y-80432018D01*
X104822200Y-80432018D02*
X104726961Y-80384399D01*
X104726961Y-80384399D02*
X104346009Y-80384399D01*
X104346009Y-80384399D02*
X104250771Y-80432018D01*
X104250771Y-80432018D02*
X104203152Y-80527256D01*
X104203152Y-80527256D02*
X104203152Y-80717732D01*
X104203152Y-80717732D02*
X104250771Y-80812970D01*
X104250771Y-80812970D02*
X104346009Y-80860589D01*
X104346009Y-80860589D02*
X104441247Y-80860589D01*
X104441247Y-80860589D02*
X104536485Y-80384399D01*
X104869819Y-81289161D02*
X104203152Y-81289161D01*
X104393628Y-81289161D02*
X104298390Y-81336780D01*
X104298390Y-81336780D02*
X104250771Y-81384399D01*
X104250771Y-81384399D02*
X104203152Y-81479637D01*
X104203152Y-81479637D02*
X104203152Y-81574875D01*
X103917438Y-83193923D02*
X103869819Y-83098685D01*
X103869819Y-83098685D02*
X103869819Y-82955828D01*
X103869819Y-82955828D02*
X103917438Y-82812971D01*
X103917438Y-82812971D02*
X104012676Y-82717733D01*
X104012676Y-82717733D02*
X104107914Y-82670114D01*
X104107914Y-82670114D02*
X104298390Y-82622495D01*
X104298390Y-82622495D02*
X104441247Y-82622495D01*
X104441247Y-82622495D02*
X104631723Y-82670114D01*
X104631723Y-82670114D02*
X104726961Y-82717733D01*
X104726961Y-82717733D02*
X104822200Y-82812971D01*
X104822200Y-82812971D02*
X104869819Y-82955828D01*
X104869819Y-82955828D02*
X104869819Y-83051066D01*
X104869819Y-83051066D02*
X104822200Y-83193923D01*
X104822200Y-83193923D02*
X104774580Y-83241542D01*
X104774580Y-83241542D02*
X104441247Y-83241542D01*
X104441247Y-83241542D02*
X104441247Y-83051066D01*
X104869819Y-83670114D02*
X104203152Y-83670114D01*
X104393628Y-83670114D02*
X104298390Y-83717733D01*
X104298390Y-83717733D02*
X104250771Y-83765352D01*
X104250771Y-83765352D02*
X104203152Y-83860590D01*
X104203152Y-83860590D02*
X104203152Y-83955828D01*
X104869819Y-84432019D02*
X104822200Y-84336781D01*
X104822200Y-84336781D02*
X104774580Y-84289162D01*
X104774580Y-84289162D02*
X104679342Y-84241543D01*
X104679342Y-84241543D02*
X104393628Y-84241543D01*
X104393628Y-84241543D02*
X104298390Y-84289162D01*
X104298390Y-84289162D02*
X104250771Y-84336781D01*
X104250771Y-84336781D02*
X104203152Y-84432019D01*
X104203152Y-84432019D02*
X104203152Y-84574876D01*
X104203152Y-84574876D02*
X104250771Y-84670114D01*
X104250771Y-84670114D02*
X104298390Y-84717733D01*
X104298390Y-84717733D02*
X104393628Y-84765352D01*
X104393628Y-84765352D02*
X104679342Y-84765352D01*
X104679342Y-84765352D02*
X104774580Y-84717733D01*
X104774580Y-84717733D02*
X104822200Y-84670114D01*
X104822200Y-84670114D02*
X104869819Y-84574876D01*
X104869819Y-84574876D02*
X104869819Y-84432019D01*
X104203152Y-85622495D02*
X104869819Y-85622495D01*
X104203152Y-85193924D02*
X104726961Y-85193924D01*
X104726961Y-85193924D02*
X104822200Y-85241543D01*
X104822200Y-85241543D02*
X104869819Y-85336781D01*
X104869819Y-85336781D02*
X104869819Y-85479638D01*
X104869819Y-85479638D02*
X104822200Y-85574876D01*
X104822200Y-85574876D02*
X104774580Y-85622495D01*
X104203152Y-86098686D02*
X105203152Y-86098686D01*
X104250771Y-86098686D02*
X104203152Y-86193924D01*
X104203152Y-86193924D02*
X104203152Y-86384400D01*
X104203152Y-86384400D02*
X104250771Y-86479638D01*
X104250771Y-86479638D02*
X104298390Y-86527257D01*
X104298390Y-86527257D02*
X104393628Y-86574876D01*
X104393628Y-86574876D02*
X104679342Y-86574876D01*
X104679342Y-86574876D02*
X104774580Y-86527257D01*
X104774580Y-86527257D02*
X104822200Y-86479638D01*
X104822200Y-86479638D02*
X104869819Y-86384400D01*
X104869819Y-86384400D02*
X104869819Y-86193924D01*
X104869819Y-86193924D02*
X104822200Y-86098686D01*
X104822200Y-87051067D02*
X104869819Y-87051067D01*
X104869819Y-87051067D02*
X104965057Y-87003448D01*
X104965057Y-87003448D02*
X105012676Y-86955829D01*
X103869819Y-88241543D02*
X104679342Y-88241543D01*
X104679342Y-88241543D02*
X104774580Y-88289162D01*
X104774580Y-88289162D02*
X104822200Y-88336781D01*
X104822200Y-88336781D02*
X104869819Y-88432019D01*
X104869819Y-88432019D02*
X104869819Y-88622495D01*
X104869819Y-88622495D02*
X104822200Y-88717733D01*
X104822200Y-88717733D02*
X104774580Y-88765352D01*
X104774580Y-88765352D02*
X104679342Y-88812971D01*
X104679342Y-88812971D02*
X103869819Y-88812971D01*
X104774580Y-89860590D02*
X104822200Y-89812971D01*
X104822200Y-89812971D02*
X104869819Y-89670114D01*
X104869819Y-89670114D02*
X104869819Y-89574876D01*
X104869819Y-89574876D02*
X104822200Y-89432019D01*
X104822200Y-89432019D02*
X104726961Y-89336781D01*
X104726961Y-89336781D02*
X104631723Y-89289162D01*
X104631723Y-89289162D02*
X104441247Y-89241543D01*
X104441247Y-89241543D02*
X104298390Y-89241543D01*
X104298390Y-89241543D02*
X104107914Y-89289162D01*
X104107914Y-89289162D02*
X104012676Y-89336781D01*
X104012676Y-89336781D02*
X103917438Y-89432019D01*
X103917438Y-89432019D02*
X103869819Y-89574876D01*
X103869819Y-89574876D02*
X103869819Y-89670114D01*
X103869819Y-89670114D02*
X103917438Y-89812971D01*
X103917438Y-89812971D02*
X103965057Y-89860590D01*
X104346009Y-91384400D02*
X104393628Y-91527257D01*
X104393628Y-91527257D02*
X104441247Y-91574876D01*
X104441247Y-91574876D02*
X104536485Y-91622495D01*
X104536485Y-91622495D02*
X104679342Y-91622495D01*
X104679342Y-91622495D02*
X104774580Y-91574876D01*
X104774580Y-91574876D02*
X104822200Y-91527257D01*
X104822200Y-91527257D02*
X104869819Y-91432019D01*
X104869819Y-91432019D02*
X104869819Y-91051067D01*
X104869819Y-91051067D02*
X103869819Y-91051067D01*
X103869819Y-91051067D02*
X103869819Y-91384400D01*
X103869819Y-91384400D02*
X103917438Y-91479638D01*
X103917438Y-91479638D02*
X103965057Y-91527257D01*
X103965057Y-91527257D02*
X104060295Y-91574876D01*
X104060295Y-91574876D02*
X104155533Y-91574876D01*
X104155533Y-91574876D02*
X104250771Y-91527257D01*
X104250771Y-91527257D02*
X104298390Y-91479638D01*
X104298390Y-91479638D02*
X104346009Y-91384400D01*
X104346009Y-91384400D02*
X104346009Y-91051067D01*
X104822200Y-92432019D02*
X104869819Y-92336781D01*
X104869819Y-92336781D02*
X104869819Y-92146305D01*
X104869819Y-92146305D02*
X104822200Y-92051067D01*
X104822200Y-92051067D02*
X104726961Y-92003448D01*
X104726961Y-92003448D02*
X104346009Y-92003448D01*
X104346009Y-92003448D02*
X104250771Y-92051067D01*
X104250771Y-92051067D02*
X104203152Y-92146305D01*
X104203152Y-92146305D02*
X104203152Y-92336781D01*
X104203152Y-92336781D02*
X104250771Y-92432019D01*
X104250771Y-92432019D02*
X104346009Y-92479638D01*
X104346009Y-92479638D02*
X104441247Y-92479638D01*
X104441247Y-92479638D02*
X104536485Y-92003448D01*
X104869819Y-92908210D02*
X104203152Y-92908210D01*
X104393628Y-92908210D02*
X104298390Y-92955829D01*
X104298390Y-92955829D02*
X104250771Y-93003448D01*
X104250771Y-93003448D02*
X104203152Y-93098686D01*
X104203152Y-93098686D02*
X104203152Y-93193924D01*
X104869819Y-93527258D02*
X103869819Y-93527258D01*
X104488866Y-93622496D02*
X104869819Y-93908210D01*
X104203152Y-93908210D02*
X104584104Y-93527258D01*
X104822200Y-94717734D02*
X104869819Y-94622496D01*
X104869819Y-94622496D02*
X104869819Y-94432020D01*
X104869819Y-94432020D02*
X104822200Y-94336782D01*
X104822200Y-94336782D02*
X104726961Y-94289163D01*
X104726961Y-94289163D02*
X104346009Y-94289163D01*
X104346009Y-94289163D02*
X104250771Y-94336782D01*
X104250771Y-94336782D02*
X104203152Y-94432020D01*
X104203152Y-94432020D02*
X104203152Y-94622496D01*
X104203152Y-94622496D02*
X104250771Y-94717734D01*
X104250771Y-94717734D02*
X104346009Y-94765353D01*
X104346009Y-94765353D02*
X104441247Y-94765353D01*
X104441247Y-94765353D02*
X104536485Y-94289163D01*
X104869819Y-95336782D02*
X104822200Y-95241544D01*
X104822200Y-95241544D02*
X104726961Y-95193925D01*
X104726961Y-95193925D02*
X103869819Y-95193925D01*
X104822200Y-96098687D02*
X104869819Y-96003449D01*
X104869819Y-96003449D02*
X104869819Y-95812973D01*
X104869819Y-95812973D02*
X104822200Y-95717735D01*
X104822200Y-95717735D02*
X104726961Y-95670116D01*
X104726961Y-95670116D02*
X104346009Y-95670116D01*
X104346009Y-95670116D02*
X104250771Y-95717735D01*
X104250771Y-95717735D02*
X104203152Y-95812973D01*
X104203152Y-95812973D02*
X104203152Y-96003449D01*
X104203152Y-96003449D02*
X104250771Y-96098687D01*
X104250771Y-96098687D02*
X104346009Y-96146306D01*
X104346009Y-96146306D02*
X104441247Y-96146306D01*
X104441247Y-96146306D02*
X104536485Y-95670116D01*
X104203152Y-96479640D02*
X104869819Y-96717735D01*
X104203152Y-96955830D02*
X104869819Y-96717735D01*
X104869819Y-96717735D02*
X105107914Y-96622497D01*
X105107914Y-96622497D02*
X105155533Y-96574878D01*
X105155533Y-96574878D02*
X105203152Y-96479640D01*
X193380951Y-60869819D02*
X193380951Y-59869819D01*
X193380951Y-59869819D02*
X193047618Y-60584104D01*
X193047618Y-60584104D02*
X192714285Y-59869819D01*
X192714285Y-59869819D02*
X192714285Y-60869819D01*
X192333332Y-59869819D02*
X191714285Y-59869819D01*
X191714285Y-59869819D02*
X192047618Y-60250771D01*
X192047618Y-60250771D02*
X191904761Y-60250771D01*
X191904761Y-60250771D02*
X191809523Y-60298390D01*
X191809523Y-60298390D02*
X191761904Y-60346009D01*
X191761904Y-60346009D02*
X191714285Y-60441247D01*
X191714285Y-60441247D02*
X191714285Y-60679342D01*
X191714285Y-60679342D02*
X191761904Y-60774580D01*
X191761904Y-60774580D02*
X191809523Y-60822200D01*
X191809523Y-60822200D02*
X191904761Y-60869819D01*
X191904761Y-60869819D02*
X192190475Y-60869819D01*
X192190475Y-60869819D02*
X192285713Y-60822200D01*
X192285713Y-60822200D02*
X192333332Y-60774580D01*
X190571428Y-59822200D02*
X191428570Y-61107914D01*
X189809523Y-60203152D02*
X189809523Y-60869819D01*
X190047618Y-59822200D02*
X190285713Y-60536485D01*
X190285713Y-60536485D02*
X189666666Y-60536485D01*
X189285713Y-60488866D02*
X188523809Y-60488866D01*
X187619047Y-60203152D02*
X187619047Y-60869819D01*
X187857142Y-59822200D02*
X188095237Y-60536485D01*
X188095237Y-60536485D02*
X187476190Y-60536485D01*
X186904761Y-59869819D02*
X186809523Y-59869819D01*
X186809523Y-59869819D02*
X186714285Y-59917438D01*
X186714285Y-59917438D02*
X186666666Y-59965057D01*
X186666666Y-59965057D02*
X186619047Y-60060295D01*
X186619047Y-60060295D02*
X186571428Y-60250771D01*
X186571428Y-60250771D02*
X186571428Y-60488866D01*
X186571428Y-60488866D02*
X186619047Y-60679342D01*
X186619047Y-60679342D02*
X186666666Y-60774580D01*
X186666666Y-60774580D02*
X186714285Y-60822200D01*
X186714285Y-60822200D02*
X186809523Y-60869819D01*
X186809523Y-60869819D02*
X186904761Y-60869819D01*
X186904761Y-60869819D02*
X186999999Y-60822200D01*
X186999999Y-60822200D02*
X187047618Y-60774580D01*
X187047618Y-60774580D02*
X187095237Y-60679342D01*
X187095237Y-60679342D02*
X187142856Y-60488866D01*
X187142856Y-60488866D02*
X187142856Y-60250771D01*
X187142856Y-60250771D02*
X187095237Y-60060295D01*
X187095237Y-60060295D02*
X187047618Y-59965057D01*
X187047618Y-59965057D02*
X186999999Y-59917438D01*
X186999999Y-59917438D02*
X186904761Y-59869819D01*
X191380180Y-102142856D02*
X191380180Y-101476190D01*
X191380180Y-101476190D02*
X190380180Y-101904761D01*
X191380180Y-100904761D02*
X191380180Y-100809523D01*
X191380180Y-100809523D02*
X191332561Y-100714285D01*
X191332561Y-100714285D02*
X191284942Y-100666666D01*
X191284942Y-100666666D02*
X191189704Y-100619047D01*
X191189704Y-100619047D02*
X190999228Y-100571428D01*
X190999228Y-100571428D02*
X190761133Y-100571428D01*
X190761133Y-100571428D02*
X190570657Y-100619047D01*
X190570657Y-100619047D02*
X190475419Y-100666666D01*
X190475419Y-100666666D02*
X190427800Y-100714285D01*
X190427800Y-100714285D02*
X190380180Y-100809523D01*
X190380180Y-100809523D02*
X190380180Y-100904761D01*
X190380180Y-100904761D02*
X190427800Y-100999999D01*
X190427800Y-100999999D02*
X190475419Y-101047618D01*
X190475419Y-101047618D02*
X190570657Y-101095237D01*
X190570657Y-101095237D02*
X190761133Y-101142856D01*
X190761133Y-101142856D02*
X190999228Y-101142856D01*
X190999228Y-101142856D02*
X191189704Y-101095237D01*
X191189704Y-101095237D02*
X191284942Y-101047618D01*
X191284942Y-101047618D02*
X191332561Y-100999999D01*
X191332561Y-100999999D02*
X191380180Y-100904761D01*
X190380180Y-100142856D02*
X191046847Y-100142856D01*
X190951609Y-100142856D02*
X190999228Y-100095237D01*
X190999228Y-100095237D02*
X191046847Y-99999999D01*
X191046847Y-99999999D02*
X191046847Y-99857142D01*
X191046847Y-99857142D02*
X190999228Y-99761904D01*
X190999228Y-99761904D02*
X190903990Y-99714285D01*
X190903990Y-99714285D02*
X190380180Y-99714285D01*
X190903990Y-99714285D02*
X190999228Y-99666666D01*
X190999228Y-99666666D02*
X191046847Y-99571428D01*
X191046847Y-99571428D02*
X191046847Y-99428571D01*
X191046847Y-99428571D02*
X190999228Y-99333332D01*
X190999228Y-99333332D02*
X190903990Y-99285713D01*
X190903990Y-99285713D02*
X190380180Y-99285713D01*
X190380180Y-98809523D02*
X191046847Y-98809523D01*
X190951609Y-98809523D02*
X190999228Y-98761904D01*
X190999228Y-98761904D02*
X191046847Y-98666666D01*
X191046847Y-98666666D02*
X191046847Y-98523809D01*
X191046847Y-98523809D02*
X190999228Y-98428571D01*
X190999228Y-98428571D02*
X190903990Y-98380952D01*
X190903990Y-98380952D02*
X190380180Y-98380952D01*
X190903990Y-98380952D02*
X190999228Y-98333333D01*
X190999228Y-98333333D02*
X191046847Y-98238095D01*
X191046847Y-98238095D02*
X191046847Y-98095238D01*
X191046847Y-98095238D02*
X190999228Y-97999999D01*
X190999228Y-97999999D02*
X190903990Y-97952380D01*
X190903990Y-97952380D02*
X190380180Y-97952380D01*
X151904761Y-64048390D02*
X151999999Y-64000771D01*
X151999999Y-64000771D02*
X152047618Y-63953152D01*
X152047618Y-63953152D02*
X152095237Y-63857914D01*
X152095237Y-63857914D02*
X152095237Y-63810295D01*
X152095237Y-63810295D02*
X152047618Y-63715057D01*
X152047618Y-63715057D02*
X151999999Y-63667438D01*
X151999999Y-63667438D02*
X151904761Y-63619819D01*
X151904761Y-63619819D02*
X151714285Y-63619819D01*
X151714285Y-63619819D02*
X151619047Y-63667438D01*
X151619047Y-63667438D02*
X151571428Y-63715057D01*
X151571428Y-63715057D02*
X151523809Y-63810295D01*
X151523809Y-63810295D02*
X151523809Y-63857914D01*
X151523809Y-63857914D02*
X151571428Y-63953152D01*
X151571428Y-63953152D02*
X151619047Y-64000771D01*
X151619047Y-64000771D02*
X151714285Y-64048390D01*
X151714285Y-64048390D02*
X151904761Y-64048390D01*
X151904761Y-64048390D02*
X151999999Y-64096009D01*
X151999999Y-64096009D02*
X152047618Y-64143628D01*
X152047618Y-64143628D02*
X152095237Y-64238866D01*
X152095237Y-64238866D02*
X152095237Y-64429342D01*
X152095237Y-64429342D02*
X152047618Y-64524580D01*
X152047618Y-64524580D02*
X151999999Y-64572200D01*
X151999999Y-64572200D02*
X151904761Y-64619819D01*
X151904761Y-64619819D02*
X151714285Y-64619819D01*
X151714285Y-64619819D02*
X151619047Y-64572200D01*
X151619047Y-64572200D02*
X151571428Y-64524580D01*
X151571428Y-64524580D02*
X151523809Y-64429342D01*
X151523809Y-64429342D02*
X151523809Y-64238866D01*
X151523809Y-64238866D02*
X151571428Y-64143628D01*
X151571428Y-64143628D02*
X151619047Y-64096009D01*
X151619047Y-64096009D02*
X151714285Y-64048390D01*
X150904761Y-63619819D02*
X150809523Y-63619819D01*
X150809523Y-63619819D02*
X150714285Y-63667438D01*
X150714285Y-63667438D02*
X150666666Y-63715057D01*
X150666666Y-63715057D02*
X150619047Y-63810295D01*
X150619047Y-63810295D02*
X150571428Y-64000771D01*
X150571428Y-64000771D02*
X150571428Y-64238866D01*
X150571428Y-64238866D02*
X150619047Y-64429342D01*
X150619047Y-64429342D02*
X150666666Y-64524580D01*
X150666666Y-64524580D02*
X150714285Y-64572200D01*
X150714285Y-64572200D02*
X150809523Y-64619819D01*
X150809523Y-64619819D02*
X150904761Y-64619819D01*
X150904761Y-64619819D02*
X150999999Y-64572200D01*
X150999999Y-64572200D02*
X151047618Y-64524580D01*
X151047618Y-64524580D02*
X151095237Y-64429342D01*
X151095237Y-64429342D02*
X151142856Y-64238866D01*
X151142856Y-64238866D02*
X151142856Y-64000771D01*
X151142856Y-64000771D02*
X151095237Y-63810295D01*
X151095237Y-63810295D02*
X151047618Y-63715057D01*
X151047618Y-63715057D02*
X150999999Y-63667438D01*
X150999999Y-63667438D02*
X150904761Y-63619819D01*
X150142856Y-64619819D02*
X150142856Y-63953152D01*
X150142856Y-64048390D02*
X150095237Y-64000771D01*
X150095237Y-64000771D02*
X149999999Y-63953152D01*
X149999999Y-63953152D02*
X149857142Y-63953152D01*
X149857142Y-63953152D02*
X149761904Y-64000771D01*
X149761904Y-64000771D02*
X149714285Y-64096009D01*
X149714285Y-64096009D02*
X149714285Y-64619819D01*
X149714285Y-64096009D02*
X149666666Y-64000771D01*
X149666666Y-64000771D02*
X149571428Y-63953152D01*
X149571428Y-63953152D02*
X149428571Y-63953152D01*
X149428571Y-63953152D02*
X149333332Y-64000771D01*
X149333332Y-64000771D02*
X149285713Y-64096009D01*
X149285713Y-64096009D02*
X149285713Y-64619819D01*
X148809523Y-64619819D02*
X148809523Y-63953152D01*
X148809523Y-64048390D02*
X148761904Y-64000771D01*
X148761904Y-64000771D02*
X148666666Y-63953152D01*
X148666666Y-63953152D02*
X148523809Y-63953152D01*
X148523809Y-63953152D02*
X148428571Y-64000771D01*
X148428571Y-64000771D02*
X148380952Y-64096009D01*
X148380952Y-64096009D02*
X148380952Y-64619819D01*
X148380952Y-64096009D02*
X148333333Y-64000771D01*
X148333333Y-64000771D02*
X148238095Y-63953152D01*
X148238095Y-63953152D02*
X148095238Y-63953152D01*
X148095238Y-63953152D02*
X147999999Y-64000771D01*
X147999999Y-64000771D02*
X147952380Y-64096009D01*
X147952380Y-64096009D02*
X147952380Y-64619819D01*
%LPC*%
D11*
X137160000Y-78740000D03*
X132160000Y-78740000D03*
D12*
X185620000Y-146930000D03*
X194380000Y-146930000D03*
D13*
X146900000Y-55000000D03*
D14*
X151700000Y-55000000D03*
X156500000Y-55000000D03*
X161300000Y-55000000D03*
X166100000Y-55000000D03*
D15*
X141000000Y-55500000D03*
D16*
X139500000Y-55500000D03*
X138000000Y-55500000D03*
X136500000Y-55500000D03*
X135000000Y-55500000D03*
X133500000Y-55500000D03*
X132000000Y-55500000D03*
X130500000Y-55500000D03*
X129000000Y-55500000D03*
X127500000Y-55500000D03*
D11*
X154940000Y-71120000D03*
D17*
X154940000Y-81280000D03*
D18*
X157480000Y-123340000D03*
D19*
X154940000Y-106680000D03*
D20*
X157480000Y-106680000D03*
X160020000Y-106680000D03*
D21*
X150000000Y-100000000D03*
X190000000Y-135000000D03*
D18*
X172720000Y-123340000D03*
D22*
X170180000Y-106680000D03*
D23*
X175260000Y-106680000D03*
D21*
X110000000Y-65000000D03*
D12*
X137620000Y-146930000D03*
X146380000Y-146930000D03*
D21*
X165000000Y-95000000D03*
X190000000Y-65000000D03*
D11*
X154940000Y-83820000D03*
D17*
X154940000Y-93980000D03*
D21*
X110000000Y-135000000D03*
D18*
X127000000Y-123340000D03*
D19*
X124460000Y-106680000D03*
D20*
X127000000Y-106680000D03*
X129540000Y-106680000D03*
D11*
X129620000Y-83820000D03*
X134620000Y-83820000D03*
D24*
X172600000Y-137720000D03*
X165100000Y-134620000D03*
D25*
X182880000Y-106680000D03*
D26*
X182880000Y-137160000D03*
D12*
X121620000Y-146930000D03*
X130380000Y-146930000D03*
D11*
X127000000Y-73660000D03*
D17*
X127000000Y-83820000D03*
D11*
X139700000Y-83820000D03*
D17*
X139700000Y-93980000D03*
D18*
X142240000Y-123340000D03*
D19*
X139700000Y-106680000D03*
D20*
X142240000Y-106680000D03*
X144780000Y-106680000D03*
D15*
X121000000Y-55500000D03*
D16*
X119500000Y-55500000D03*
X118000000Y-55500000D03*
X116500000Y-55500000D03*
X115000000Y-55500000D03*
X113500000Y-55500000D03*
X112000000Y-55500000D03*
X110500000Y-55500000D03*
X109000000Y-55500000D03*
X107500000Y-55500000D03*
D12*
X153620000Y-146930000D03*
X162380000Y-146930000D03*
D11*
X119380000Y-81280000D03*
D17*
X119380000Y-71120000D03*
D11*
X175260000Y-93980000D03*
D17*
X175260000Y-83820000D03*
D12*
X169620000Y-146930000D03*
X178380000Y-146930000D03*
D27*
X129540000Y-63500000D03*
D17*
X119380000Y-63500000D03*
D28*
X172800000Y-58420000D03*
D29*
X177800000Y-58420000D03*
D12*
X105620000Y-146930000D03*
X114380000Y-146930000D03*
D11*
X147400000Y-63500000D03*
X152400000Y-63500000D03*
D27*
X129540000Y-66040000D03*
D17*
X119380000Y-66040000D03*
D21*
X110000000Y-95000000D03*
%LPD*%
M02*
