G04 #@! TF.GenerationSoftware,KiCad,Pcbnew,9.0.0*
G04 #@! TF.CreationDate,2025-07-09T11:38:48-07:00*
G04 #@! TF.ProjectId,bipolar_current_driver_ADA4700-1,6269706f-6c61-4725-9f63-757272656e74,rev?*
G04 #@! TF.SameCoordinates,Original*
G04 #@! TF.FileFunction,Copper,L3,Inr*
G04 #@! TF.FilePolarity,Positive*
%FSLAX46Y46*%
G04 Gerber Fmt 4.6, Leading zero omitted, Abs format (unit mm)*
G04 Created by KiCad (PCBNEW 9.0.0) date 2025-07-09 11:38:48*
%MOMM*%
%LPD*%
G01*
G04 APERTURE LIST*
G04 Aperture macros list*
%AMRoundRect*
0 Rectangle with rounded corners*
0 $1 Rounding radius*
0 $2 $3 $4 $5 $6 $7 $8 $9 X,Y pos of 4 corners*
0 Add a 4 corners polygon primitive as box body*
4,1,4,$2,$3,$4,$5,$6,$7,$8,$9,$2,$3,0*
0 Add four circle primitives for the rounded corners*
1,1,$1+$1,$2,$3*
1,1,$1+$1,$4,$5*
1,1,$1+$1,$6,$7*
1,1,$1+$1,$8,$9*
0 Add four rect primitives between the rounded corners*
20,1,$1+$1,$2,$3,$4,$5,0*
20,1,$1+$1,$4,$5,$6,$7,0*
20,1,$1+$1,$6,$7,$8,$9,0*
20,1,$1+$1,$8,$9,$2,$3,0*%
G04 Aperture macros list end*
G04 #@! TA.AperFunction,ComponentPad*
%ADD10C,1.600000*%
G04 #@! TD*
G04 #@! TA.AperFunction,ComponentPad*
%ADD11C,0.970000*%
G04 #@! TD*
G04 #@! TA.AperFunction,ComponentPad*
%ADD12RoundRect,0.249999X-1.025001X-1.025001X1.025001X-1.025001X1.025001X1.025001X-1.025001X1.025001X0*%
G04 #@! TD*
G04 #@! TA.AperFunction,ComponentPad*
%ADD13C,2.550000*%
G04 #@! TD*
G04 #@! TA.AperFunction,ComponentPad*
%ADD14RoundRect,0.250000X0.265000X0.615000X-0.265000X0.615000X-0.265000X-0.615000X0.265000X-0.615000X0*%
G04 #@! TD*
G04 #@! TA.AperFunction,ComponentPad*
%ADD15O,1.030000X1.730000*%
G04 #@! TD*
G04 #@! TA.AperFunction,ComponentPad*
%ADD16O,1.600000X1.600000*%
G04 #@! TD*
G04 #@! TA.AperFunction,ComponentPad*
%ADD17R,1.905000X2.000000*%
G04 #@! TD*
G04 #@! TA.AperFunction,ComponentPad*
%ADD18O,1.905000X2.000000*%
G04 #@! TD*
G04 #@! TA.AperFunction,ComponentPad*
%ADD19R,2.000000X2.000000*%
G04 #@! TD*
G04 #@! TA.AperFunction,ComponentPad*
%ADD20C,2.000000*%
G04 #@! TD*
G04 #@! TA.AperFunction,ComponentPad*
%ADD21C,1.800000*%
G04 #@! TD*
G04 #@! TA.AperFunction,ComponentPad*
%ADD22C,2.400000*%
G04 #@! TD*
G04 #@! TA.AperFunction,ComponentPad*
%ADD23O,2.400000X2.400000*%
G04 #@! TD*
G04 #@! TA.AperFunction,ComponentPad*
%ADD24R,1.600000X1.600000*%
G04 #@! TD*
G04 #@! TA.AperFunction,ComponentPad*
%ADD25R,1.980000X3.960000*%
G04 #@! TD*
G04 #@! TA.AperFunction,ComponentPad*
%ADD26O,1.980000X3.960000*%
G04 #@! TD*
G04 #@! TA.AperFunction,ViaPad*
%ADD27C,0.800000*%
G04 #@! TD*
G04 APERTURE END LIST*
D10*
X137160000Y-78740000D03*
X132160000Y-78740000D03*
D11*
X185620000Y-143490000D03*
X194380000Y-143490000D03*
D12*
X146900000Y-55000000D03*
D13*
X151700000Y-55000000D03*
X156500000Y-55000000D03*
X161300000Y-55000000D03*
X166100000Y-55000000D03*
D14*
X141000000Y-55500000D03*
D15*
X139500000Y-55500000D03*
X138000000Y-55500000D03*
X136500000Y-55500000D03*
X135000000Y-55500000D03*
X133500000Y-55500000D03*
X132000000Y-55500000D03*
X130500000Y-55500000D03*
X129000000Y-55500000D03*
X127500000Y-55500000D03*
D10*
X154940000Y-71120000D03*
D16*
X154940000Y-81280000D03*
D17*
X154940000Y-106680000D03*
D18*
X157480000Y-106680000D03*
X160020000Y-106680000D03*
D19*
X170180000Y-106680000D03*
D20*
X175260000Y-106680000D03*
D11*
X137620000Y-143490000D03*
X146380000Y-143490000D03*
D10*
X154940000Y-83820000D03*
D16*
X154940000Y-93980000D03*
D17*
X124460000Y-106680000D03*
D18*
X127000000Y-106680000D03*
X129540000Y-106680000D03*
D10*
X129620000Y-83820000D03*
X134620000Y-83820000D03*
D21*
X172600000Y-137720000D03*
X165100000Y-134620000D03*
D22*
X182880000Y-106680000D03*
D23*
X182880000Y-137160000D03*
D11*
X121620000Y-143490000D03*
X130380000Y-143490000D03*
D10*
X127000000Y-73660000D03*
D16*
X127000000Y-83820000D03*
D10*
X139700000Y-83820000D03*
D16*
X139700000Y-93980000D03*
D17*
X139700000Y-106680000D03*
D18*
X142240000Y-106680000D03*
X144780000Y-106680000D03*
D14*
X121000000Y-55500000D03*
D15*
X119500000Y-55500000D03*
X118000000Y-55500000D03*
X116500000Y-55500000D03*
X115000000Y-55500000D03*
X113500000Y-55500000D03*
X112000000Y-55500000D03*
X110500000Y-55500000D03*
X109000000Y-55500000D03*
X107500000Y-55500000D03*
D11*
X153620000Y-143490000D03*
X162380000Y-143490000D03*
D10*
X119380000Y-81280000D03*
D16*
X119380000Y-71120000D03*
D10*
X175260000Y-93980000D03*
D16*
X175260000Y-83820000D03*
D11*
X169620000Y-143490000D03*
X178380000Y-143490000D03*
D24*
X129540000Y-63500000D03*
D16*
X119380000Y-63500000D03*
D25*
X172800000Y-58420000D03*
D26*
X177800000Y-58420000D03*
D11*
X105620000Y-143490000D03*
X114380000Y-143490000D03*
D10*
X147400000Y-63500000D03*
X152400000Y-63500000D03*
D24*
X129540000Y-66040000D03*
D16*
X119380000Y-66040000D03*
D27*
X136500000Y-51000000D03*
X112000000Y-51000000D03*
X116500000Y-51000000D03*
X132000000Y-51000000D03*
X129000000Y-52500000D03*
X109000000Y-52500000D03*
X119500000Y-52500000D03*
X139500000Y-52500000D03*
G04 #@! TA.AperFunction,Conductor*
G36*
X111533265Y-50020185D02*
G01*
X111579020Y-50072989D01*
X111588964Y-50142147D01*
X111559939Y-50205703D01*
X111535117Y-50227602D01*
X111425965Y-50300535D01*
X111425961Y-50300538D01*
X111300538Y-50425961D01*
X111300535Y-50425965D01*
X111201990Y-50573446D01*
X111201983Y-50573459D01*
X111134106Y-50737332D01*
X111134103Y-50737341D01*
X111099500Y-50911304D01*
X111099500Y-51088695D01*
X111134103Y-51262658D01*
X111134106Y-51262667D01*
X111201983Y-51426540D01*
X111201990Y-51426553D01*
X111300535Y-51574034D01*
X111300538Y-51574038D01*
X111425961Y-51699461D01*
X111425965Y-51699464D01*
X111573446Y-51798009D01*
X111573459Y-51798016D01*
X111696363Y-51848923D01*
X111737334Y-51865894D01*
X111737336Y-51865894D01*
X111737341Y-51865896D01*
X111911304Y-51900499D01*
X111911307Y-51900500D01*
X111911309Y-51900500D01*
X112088693Y-51900500D01*
X112088694Y-51900499D01*
X112146682Y-51888964D01*
X112262658Y-51865896D01*
X112262661Y-51865894D01*
X112262666Y-51865894D01*
X112426547Y-51798013D01*
X112574035Y-51699464D01*
X112699464Y-51574035D01*
X112798013Y-51426547D01*
X112865894Y-51262666D01*
X112900500Y-51088691D01*
X112900500Y-50911309D01*
X112900500Y-50911306D01*
X112900499Y-50911304D01*
X112865896Y-50737341D01*
X112865893Y-50737332D01*
X112798016Y-50573459D01*
X112798009Y-50573446D01*
X112699464Y-50425965D01*
X112699461Y-50425961D01*
X112574038Y-50300538D01*
X112574034Y-50300535D01*
X112464883Y-50227602D01*
X112420078Y-50173990D01*
X112411371Y-50104665D01*
X112441526Y-50041637D01*
X112500969Y-50004918D01*
X112533774Y-50000500D01*
X115966226Y-50000500D01*
X116033265Y-50020185D01*
X116079020Y-50072989D01*
X116088964Y-50142147D01*
X116059939Y-50205703D01*
X116035117Y-50227602D01*
X115925965Y-50300535D01*
X115925961Y-50300538D01*
X115800538Y-50425961D01*
X115800535Y-50425965D01*
X115701990Y-50573446D01*
X115701983Y-50573459D01*
X115634106Y-50737332D01*
X115634103Y-50737341D01*
X115599500Y-50911304D01*
X115599500Y-51088695D01*
X115634103Y-51262658D01*
X115634106Y-51262667D01*
X115701983Y-51426540D01*
X115701990Y-51426553D01*
X115800535Y-51574034D01*
X115800538Y-51574038D01*
X115925961Y-51699461D01*
X115925965Y-51699464D01*
X116073446Y-51798009D01*
X116073459Y-51798016D01*
X116196363Y-51848923D01*
X116237334Y-51865894D01*
X116237336Y-51865894D01*
X116237341Y-51865896D01*
X116411304Y-51900499D01*
X116411307Y-51900500D01*
X116411309Y-51900500D01*
X116588693Y-51900500D01*
X116588694Y-51900499D01*
X116646682Y-51888964D01*
X116762658Y-51865896D01*
X116762661Y-51865894D01*
X116762666Y-51865894D01*
X116926547Y-51798013D01*
X117074035Y-51699464D01*
X117199464Y-51574035D01*
X117298013Y-51426547D01*
X117365894Y-51262666D01*
X117400500Y-51088691D01*
X117400500Y-50911309D01*
X117400500Y-50911306D01*
X117400499Y-50911304D01*
X117365896Y-50737341D01*
X117365893Y-50737332D01*
X117298016Y-50573459D01*
X117298009Y-50573446D01*
X117199464Y-50425965D01*
X117199461Y-50425961D01*
X117074038Y-50300538D01*
X117074034Y-50300535D01*
X116964883Y-50227602D01*
X116920078Y-50173990D01*
X116911371Y-50104665D01*
X116941526Y-50041637D01*
X117000969Y-50004918D01*
X117033774Y-50000500D01*
X131466226Y-50000500D01*
X131533265Y-50020185D01*
X131579020Y-50072989D01*
X131588964Y-50142147D01*
X131559939Y-50205703D01*
X131535117Y-50227602D01*
X131425965Y-50300535D01*
X131425961Y-50300538D01*
X131300538Y-50425961D01*
X131300535Y-50425965D01*
X131201990Y-50573446D01*
X131201983Y-50573459D01*
X131134106Y-50737332D01*
X131134103Y-50737341D01*
X131099500Y-50911304D01*
X131099500Y-51088695D01*
X131134103Y-51262658D01*
X131134106Y-51262667D01*
X131201983Y-51426540D01*
X131201990Y-51426553D01*
X131300535Y-51574034D01*
X131300538Y-51574038D01*
X131425961Y-51699461D01*
X131425965Y-51699464D01*
X131573446Y-51798009D01*
X131573459Y-51798016D01*
X131696363Y-51848923D01*
X131737334Y-51865894D01*
X131737336Y-51865894D01*
X131737341Y-51865896D01*
X131911304Y-51900499D01*
X131911307Y-51900500D01*
X131911309Y-51900500D01*
X132088693Y-51900500D01*
X132088694Y-51900499D01*
X132146682Y-51888964D01*
X132262658Y-51865896D01*
X132262661Y-51865894D01*
X132262666Y-51865894D01*
X132426547Y-51798013D01*
X132574035Y-51699464D01*
X132699464Y-51574035D01*
X132798013Y-51426547D01*
X132865894Y-51262666D01*
X132900500Y-51088691D01*
X132900500Y-50911309D01*
X132900500Y-50911306D01*
X132900499Y-50911304D01*
X132865896Y-50737341D01*
X132865893Y-50737332D01*
X132798016Y-50573459D01*
X132798009Y-50573446D01*
X132699464Y-50425965D01*
X132699461Y-50425961D01*
X132574038Y-50300538D01*
X132574034Y-50300535D01*
X132464883Y-50227602D01*
X132420078Y-50173990D01*
X132411371Y-50104665D01*
X132441526Y-50041637D01*
X132500969Y-50004918D01*
X132533774Y-50000500D01*
X135966226Y-50000500D01*
X136033265Y-50020185D01*
X136079020Y-50072989D01*
X136088964Y-50142147D01*
X136059939Y-50205703D01*
X136035117Y-50227602D01*
X135925965Y-50300535D01*
X135925961Y-50300538D01*
X135800538Y-50425961D01*
X135800535Y-50425965D01*
X135701990Y-50573446D01*
X135701983Y-50573459D01*
X135634106Y-50737332D01*
X135634103Y-50737341D01*
X135599500Y-50911304D01*
X135599500Y-51088695D01*
X135634103Y-51262658D01*
X135634106Y-51262667D01*
X135701983Y-51426540D01*
X135701990Y-51426553D01*
X135800535Y-51574034D01*
X135800538Y-51574038D01*
X135925961Y-51699461D01*
X135925965Y-51699464D01*
X136073446Y-51798009D01*
X136073459Y-51798016D01*
X136196363Y-51848923D01*
X136237334Y-51865894D01*
X136237336Y-51865894D01*
X136237341Y-51865896D01*
X136411304Y-51900499D01*
X136411307Y-51900500D01*
X136411309Y-51900500D01*
X136588693Y-51900500D01*
X136588694Y-51900499D01*
X136646682Y-51888964D01*
X136762658Y-51865896D01*
X136762661Y-51865894D01*
X136762666Y-51865894D01*
X136926547Y-51798013D01*
X137074035Y-51699464D01*
X137199464Y-51574035D01*
X137298013Y-51426547D01*
X137365894Y-51262666D01*
X137400500Y-51088691D01*
X137400500Y-50911309D01*
X137400500Y-50911306D01*
X137400499Y-50911304D01*
X137365896Y-50737341D01*
X137365893Y-50737332D01*
X137298016Y-50573459D01*
X137298009Y-50573446D01*
X137199464Y-50425965D01*
X137199461Y-50425961D01*
X137074038Y-50300538D01*
X137074034Y-50300535D01*
X136964883Y-50227602D01*
X136920078Y-50173990D01*
X136911371Y-50104665D01*
X136941526Y-50041637D01*
X137000969Y-50004918D01*
X137033774Y-50000500D01*
X197496250Y-50000500D01*
X197503736Y-50000726D01*
X197767901Y-50016704D01*
X197776547Y-50017534D01*
X197838283Y-50025662D01*
X197844348Y-50026616D01*
X198072866Y-50068494D01*
X198082569Y-50070679D01*
X198135375Y-50084828D01*
X198140127Y-50086205D01*
X198319650Y-50142147D01*
X198370039Y-50157849D01*
X198380596Y-50161671D01*
X198415944Y-50176312D01*
X198419265Y-50177747D01*
X198654497Y-50283617D01*
X198654517Y-50283626D01*
X198665603Y-50289301D01*
X198666842Y-50290016D01*
X198668983Y-50291280D01*
X198913465Y-50439075D01*
X198925776Y-50447573D01*
X199028498Y-50528050D01*
X199151573Y-50624473D01*
X199162781Y-50634403D01*
X199365596Y-50837218D01*
X199375526Y-50848426D01*
X199552422Y-51074217D01*
X199560926Y-51086537D01*
X199562231Y-51088695D01*
X199708699Y-51330984D01*
X199709982Y-51333156D01*
X199710697Y-51334395D01*
X199716372Y-51345481D01*
X199822221Y-51580665D01*
X199823708Y-51584107D01*
X199838326Y-51619400D01*
X199842149Y-51629959D01*
X199913788Y-51859855D01*
X199915178Y-51864652D01*
X199929314Y-51917407D01*
X199931508Y-51927149D01*
X199973373Y-52155595D01*
X199974343Y-52161762D01*
X199982461Y-52223427D01*
X199983296Y-52232125D01*
X199999274Y-52496263D01*
X199999500Y-52503750D01*
X199999500Y-147496249D01*
X199999274Y-147503736D01*
X199983296Y-147767873D01*
X199982461Y-147776569D01*
X199982461Y-147776571D01*
X199974343Y-147838236D01*
X199973373Y-147844403D01*
X199931508Y-148072849D01*
X199929314Y-148082591D01*
X199915178Y-148135346D01*
X199913788Y-148140143D01*
X199842149Y-148370039D01*
X199838326Y-148380598D01*
X199823708Y-148415891D01*
X199822221Y-148419333D01*
X199716372Y-148654517D01*
X199710697Y-148665603D01*
X199709982Y-148666842D01*
X199708699Y-148669014D01*
X199560928Y-148913459D01*
X199552422Y-148925782D01*
X199375526Y-149151573D01*
X199365596Y-149162781D01*
X199162781Y-149365596D01*
X199151573Y-149375526D01*
X198925782Y-149552422D01*
X198913459Y-149560928D01*
X198669014Y-149708699D01*
X198666882Y-149709959D01*
X198665651Y-149710670D01*
X198654524Y-149716369D01*
X198419310Y-149822230D01*
X198415875Y-149823714D01*
X198380599Y-149838327D01*
X198370035Y-149842152D01*
X198351596Y-149847897D01*
X198330777Y-149854385D01*
X198293888Y-149860000D01*
X101706111Y-149860000D01*
X101704754Y-149859793D01*
X101704068Y-149859983D01*
X101669221Y-149854385D01*
X101629967Y-149842153D01*
X101619400Y-149838327D01*
X101584122Y-149823713D01*
X101580688Y-149822230D01*
X101345474Y-149716369D01*
X101334347Y-149710670D01*
X101333116Y-149709959D01*
X101330984Y-149708699D01*
X101086540Y-149560928D01*
X101074217Y-149552422D01*
X100848426Y-149375526D01*
X100837218Y-149365596D01*
X100634403Y-149162781D01*
X100624473Y-149151573D01*
X100447577Y-148925782D01*
X100439075Y-148913465D01*
X100291280Y-148668983D01*
X100290016Y-148666842D01*
X100289301Y-148665603D01*
X100283626Y-148654517D01*
X100283617Y-148654497D01*
X100177747Y-148419265D01*
X100176312Y-148415944D01*
X100161671Y-148380596D01*
X100157849Y-148370039D01*
X100086210Y-148140143D01*
X100084828Y-148135375D01*
X100070679Y-148082569D01*
X100068494Y-148072866D01*
X100026616Y-147844348D01*
X100025662Y-147838283D01*
X100017534Y-147776547D01*
X100016704Y-147767901D01*
X100000726Y-147503736D01*
X100000500Y-147496250D01*
X100000500Y-144341758D01*
X105121794Y-144341758D01*
X105121794Y-144341759D01*
X105153431Y-144362898D01*
X105332681Y-144437145D01*
X105332693Y-144437148D01*
X105522981Y-144474999D01*
X105522984Y-144475000D01*
X105717016Y-144475000D01*
X105717018Y-144474999D01*
X105907306Y-144437148D01*
X105907318Y-144437145D01*
X106086565Y-144362899D01*
X106118204Y-144341758D01*
X113881794Y-144341758D01*
X113881794Y-144341759D01*
X113913431Y-144362898D01*
X114092681Y-144437145D01*
X114092693Y-144437148D01*
X114282981Y-144474999D01*
X114282984Y-144475000D01*
X114477016Y-144475000D01*
X114477018Y-144474999D01*
X114667306Y-144437148D01*
X114667318Y-144437145D01*
X114846565Y-144362899D01*
X114878204Y-144341758D01*
X114380001Y-143843554D01*
X114380000Y-143843554D01*
X113881794Y-144341758D01*
X106118204Y-144341758D01*
X105620001Y-143843554D01*
X105620000Y-143843554D01*
X105121794Y-144341758D01*
X100000500Y-144341758D01*
X100000500Y-143392981D01*
X104635000Y-143392981D01*
X104635000Y-143587018D01*
X104672851Y-143777306D01*
X104672853Y-143777314D01*
X104747102Y-143956568D01*
X104747106Y-143956575D01*
X104768240Y-143988204D01*
X104768241Y-143988205D01*
X105266446Y-143490000D01*
X105220696Y-143444250D01*
X105390000Y-143444250D01*
X105390000Y-143535750D01*
X105425015Y-143620285D01*
X105489715Y-143684985D01*
X105574250Y-143720000D01*
X105665750Y-143720000D01*
X105750285Y-143684985D01*
X105814985Y-143620285D01*
X105850000Y-143535750D01*
X105850000Y-143489999D01*
X105973554Y-143489999D01*
X105973554Y-143490000D01*
X106471758Y-143988204D01*
X106492899Y-143956565D01*
X106567145Y-143777318D01*
X106567148Y-143777306D01*
X106604999Y-143587018D01*
X106605000Y-143587016D01*
X106605000Y-143392983D01*
X106604999Y-143392981D01*
X113395000Y-143392981D01*
X113395000Y-143587018D01*
X113432851Y-143777306D01*
X113432853Y-143777314D01*
X113507102Y-143956568D01*
X113507106Y-143956575D01*
X113528240Y-143988204D01*
X113528241Y-143988205D01*
X114026446Y-143490000D01*
X113980696Y-143444250D01*
X114150000Y-143444250D01*
X114150000Y-143535750D01*
X114185015Y-143620285D01*
X114249715Y-143684985D01*
X114334250Y-143720000D01*
X114425750Y-143720000D01*
X114510285Y-143684985D01*
X114574985Y-143620285D01*
X114610000Y-143535750D01*
X114610000Y-143489999D01*
X114733554Y-143489999D01*
X114733554Y-143490000D01*
X115231758Y-143988204D01*
X115252899Y-143956565D01*
X115327145Y-143777318D01*
X115327148Y-143777306D01*
X115364990Y-143587065D01*
X120634499Y-143587065D01*
X120672371Y-143777454D01*
X120672373Y-143777460D01*
X120746662Y-143956809D01*
X120767640Y-143988205D01*
X120854513Y-144118221D01*
X120991778Y-144255486D01*
X120991781Y-144255488D01*
X121153191Y-144363338D01*
X121332540Y-144437627D01*
X121332544Y-144437627D01*
X121332545Y-144437628D01*
X121522934Y-144475500D01*
X121522937Y-144475500D01*
X121717065Y-144475500D01*
X121845154Y-144450020D01*
X121907460Y-144437627D01*
X122086809Y-144363338D01*
X122248219Y-144255488D01*
X122385488Y-144118219D01*
X122493338Y-143956809D01*
X122567627Y-143777460D01*
X122605500Y-143587065D01*
X129394499Y-143587065D01*
X129432371Y-143777454D01*
X129432373Y-143777460D01*
X129506662Y-143956809D01*
X129527640Y-143988205D01*
X129614513Y-144118221D01*
X129751778Y-144255486D01*
X129751781Y-144255488D01*
X129913191Y-144363338D01*
X130092540Y-144437627D01*
X130092544Y-144437627D01*
X130092545Y-144437628D01*
X130282934Y-144475500D01*
X130282937Y-144475500D01*
X130477065Y-144475500D01*
X130605154Y-144450020D01*
X130667460Y-144437627D01*
X130846809Y-144363338D01*
X130879106Y-144341758D01*
X137121794Y-144341758D01*
X137121794Y-144341759D01*
X137153431Y-144362898D01*
X137332681Y-144437145D01*
X137332693Y-144437148D01*
X137522981Y-144474999D01*
X137522984Y-144475000D01*
X137717016Y-144475000D01*
X137717018Y-144474999D01*
X137907306Y-144437148D01*
X137907318Y-144437145D01*
X138086565Y-144362899D01*
X138118204Y-144341758D01*
X145881794Y-144341758D01*
X145881794Y-144341759D01*
X145913431Y-144362898D01*
X146092681Y-144437145D01*
X146092693Y-144437148D01*
X146282981Y-144474999D01*
X146282984Y-144475000D01*
X146477016Y-144475000D01*
X146477018Y-144474999D01*
X146667306Y-144437148D01*
X146667318Y-144437145D01*
X146846565Y-144362899D01*
X146878204Y-144341758D01*
X153121794Y-144341758D01*
X153121794Y-144341759D01*
X153153431Y-144362898D01*
X153332681Y-144437145D01*
X153332693Y-144437148D01*
X153522981Y-144474999D01*
X153522984Y-144475000D01*
X153717016Y-144475000D01*
X153717018Y-144474999D01*
X153907306Y-144437148D01*
X153907318Y-144437145D01*
X154086565Y-144362899D01*
X154118204Y-144341758D01*
X161881794Y-144341758D01*
X161881794Y-144341759D01*
X161913431Y-144362898D01*
X162092681Y-144437145D01*
X162092693Y-144437148D01*
X162282981Y-144474999D01*
X162282984Y-144475000D01*
X162477016Y-144475000D01*
X162477018Y-144474999D01*
X162667306Y-144437148D01*
X162667318Y-144437145D01*
X162846565Y-144362899D01*
X162878204Y-144341758D01*
X162380001Y-143843554D01*
X162380000Y-143843554D01*
X161881794Y-144341758D01*
X154118204Y-144341758D01*
X153620001Y-143843554D01*
X153620000Y-143843554D01*
X153121794Y-144341758D01*
X146878204Y-144341758D01*
X146380001Y-143843554D01*
X146380000Y-143843554D01*
X145881794Y-144341758D01*
X138118204Y-144341758D01*
X137620001Y-143843554D01*
X137620000Y-143843554D01*
X137121794Y-144341758D01*
X130879106Y-144341758D01*
X131008219Y-144255488D01*
X131008222Y-144255485D01*
X131055841Y-144207867D01*
X131145485Y-144118222D01*
X131145486Y-144118221D01*
X131145488Y-144118219D01*
X131253338Y-143956809D01*
X131327627Y-143777460D01*
X131365500Y-143587063D01*
X131365500Y-143392981D01*
X136635000Y-143392981D01*
X136635000Y-143587018D01*
X136672851Y-143777306D01*
X136672853Y-143777314D01*
X136747102Y-143956568D01*
X136747106Y-143956575D01*
X136768240Y-143988204D01*
X136768241Y-143988205D01*
X137266446Y-143490000D01*
X137220696Y-143444250D01*
X137390000Y-143444250D01*
X137390000Y-143535750D01*
X137425015Y-143620285D01*
X137489715Y-143684985D01*
X137574250Y-143720000D01*
X137665750Y-143720000D01*
X137750285Y-143684985D01*
X137814985Y-143620285D01*
X137850000Y-143535750D01*
X137850000Y-143489999D01*
X137973554Y-143489999D01*
X137973554Y-143490000D01*
X138471758Y-143988204D01*
X138492899Y-143956565D01*
X138567145Y-143777318D01*
X138567148Y-143777306D01*
X138604999Y-143587018D01*
X138605000Y-143587016D01*
X138605000Y-143392983D01*
X138604999Y-143392981D01*
X145395000Y-143392981D01*
X145395000Y-143587018D01*
X145432851Y-143777306D01*
X145432853Y-143777314D01*
X145507102Y-143956568D01*
X145507106Y-143956575D01*
X145528240Y-143988204D01*
X145528241Y-143988205D01*
X146026446Y-143490000D01*
X145980696Y-143444250D01*
X146150000Y-143444250D01*
X146150000Y-143535750D01*
X146185015Y-143620285D01*
X146249715Y-143684985D01*
X146334250Y-143720000D01*
X146425750Y-143720000D01*
X146510285Y-143684985D01*
X146574985Y-143620285D01*
X146610000Y-143535750D01*
X146610000Y-143489999D01*
X146733554Y-143489999D01*
X146733554Y-143490000D01*
X147231758Y-143988204D01*
X147252899Y-143956565D01*
X147327145Y-143777318D01*
X147327148Y-143777306D01*
X147364999Y-143587018D01*
X147365000Y-143587016D01*
X147365000Y-143392983D01*
X147364999Y-143392981D01*
X152635000Y-143392981D01*
X152635000Y-143587018D01*
X152672851Y-143777306D01*
X152672853Y-143777314D01*
X152747102Y-143956568D01*
X152747106Y-143956575D01*
X152768240Y-143988204D01*
X152768241Y-143988205D01*
X153266446Y-143490000D01*
X153220696Y-143444250D01*
X153390000Y-143444250D01*
X153390000Y-143535750D01*
X153425015Y-143620285D01*
X153489715Y-143684985D01*
X153574250Y-143720000D01*
X153665750Y-143720000D01*
X153750285Y-143684985D01*
X153814985Y-143620285D01*
X153850000Y-143535750D01*
X153850000Y-143489999D01*
X153973554Y-143489999D01*
X153973554Y-143490000D01*
X154471758Y-143988204D01*
X154492899Y-143956565D01*
X154567145Y-143777318D01*
X154567148Y-143777306D01*
X154604999Y-143587018D01*
X154605000Y-143587016D01*
X154605000Y-143392983D01*
X154604999Y-143392981D01*
X161395000Y-143392981D01*
X161395000Y-143587018D01*
X161432851Y-143777306D01*
X161432853Y-143777314D01*
X161507102Y-143956568D01*
X161507106Y-143956575D01*
X161528240Y-143988204D01*
X161528241Y-143988205D01*
X162026446Y-143490000D01*
X161980696Y-143444250D01*
X162150000Y-143444250D01*
X162150000Y-143535750D01*
X162185015Y-143620285D01*
X162249715Y-143684985D01*
X162334250Y-143720000D01*
X162425750Y-143720000D01*
X162510285Y-143684985D01*
X162574985Y-143620285D01*
X162610000Y-143535750D01*
X162610000Y-143489999D01*
X162733554Y-143489999D01*
X162733554Y-143490000D01*
X163231758Y-143988204D01*
X163252899Y-143956565D01*
X163327145Y-143777318D01*
X163327148Y-143777306D01*
X163364990Y-143587065D01*
X168634499Y-143587065D01*
X168672371Y-143777454D01*
X168672373Y-143777460D01*
X168746662Y-143956809D01*
X168767640Y-143988205D01*
X168854513Y-144118221D01*
X168991778Y-144255486D01*
X168991781Y-144255488D01*
X169153191Y-144363338D01*
X169332540Y-144437627D01*
X169332544Y-144437627D01*
X169332545Y-144437628D01*
X169522934Y-144475500D01*
X169522937Y-144475500D01*
X169717065Y-144475500D01*
X169845154Y-144450020D01*
X169907460Y-144437627D01*
X170086809Y-144363338D01*
X170248219Y-144255488D01*
X170385488Y-144118219D01*
X170493338Y-143956809D01*
X170567627Y-143777460D01*
X170605500Y-143587065D01*
X177394499Y-143587065D01*
X177432371Y-143777454D01*
X177432373Y-143777460D01*
X177506662Y-143956809D01*
X177527640Y-143988205D01*
X177614513Y-144118221D01*
X177751778Y-144255486D01*
X177751781Y-144255488D01*
X177913191Y-144363338D01*
X178092540Y-144437627D01*
X178092544Y-144437627D01*
X178092545Y-144437628D01*
X178282934Y-144475500D01*
X178282937Y-144475500D01*
X178477065Y-144475500D01*
X178605154Y-144450020D01*
X178667460Y-144437627D01*
X178846809Y-144363338D01*
X179008219Y-144255488D01*
X179145488Y-144118219D01*
X179253338Y-143956809D01*
X179327627Y-143777460D01*
X179365500Y-143587065D01*
X184634499Y-143587065D01*
X184672371Y-143777454D01*
X184672373Y-143777460D01*
X184746662Y-143956809D01*
X184767640Y-143988205D01*
X184854513Y-144118221D01*
X184991778Y-144255486D01*
X184991781Y-144255488D01*
X185153191Y-144363338D01*
X185332540Y-144437627D01*
X185332544Y-144437627D01*
X185332545Y-144437628D01*
X185522934Y-144475500D01*
X185522937Y-144475500D01*
X185717065Y-144475500D01*
X185845154Y-144450020D01*
X185907460Y-144437627D01*
X186086809Y-144363338D01*
X186248219Y-144255488D01*
X186385488Y-144118219D01*
X186493338Y-143956809D01*
X186567627Y-143777460D01*
X186605500Y-143587065D01*
X193394499Y-143587065D01*
X193432371Y-143777454D01*
X193432373Y-143777460D01*
X193506662Y-143956809D01*
X193527640Y-143988205D01*
X193614513Y-144118221D01*
X193751778Y-144255486D01*
X193751781Y-144255488D01*
X193913191Y-144363338D01*
X194092540Y-144437627D01*
X194092544Y-144437627D01*
X194092545Y-144437628D01*
X194282934Y-144475500D01*
X194282937Y-144475500D01*
X194477065Y-144475500D01*
X194605154Y-144450020D01*
X194667460Y-144437627D01*
X194846809Y-144363338D01*
X195008219Y-144255488D01*
X195145488Y-144118219D01*
X195253338Y-143956809D01*
X195327627Y-143777460D01*
X195365500Y-143587063D01*
X195365500Y-143392937D01*
X195365500Y-143392934D01*
X195327628Y-143202545D01*
X195327627Y-143202544D01*
X195327627Y-143202540D01*
X195253338Y-143023191D01*
X195145488Y-142861781D01*
X195145486Y-142861778D01*
X195008221Y-142724513D01*
X194847473Y-142617106D01*
X194846809Y-142616662D01*
X194667460Y-142542373D01*
X194667454Y-142542371D01*
X194477065Y-142504500D01*
X194477063Y-142504500D01*
X194282937Y-142504500D01*
X194282935Y-142504500D01*
X194092545Y-142542371D01*
X194092539Y-142542373D01*
X193913192Y-142616661D01*
X193751778Y-142724513D01*
X193614513Y-142861778D01*
X193506661Y-143023192D01*
X193432373Y-143202539D01*
X193432371Y-143202545D01*
X193394500Y-143392934D01*
X193394500Y-143392937D01*
X193394500Y-143587063D01*
X193394500Y-143587065D01*
X193394499Y-143587065D01*
X186605500Y-143587065D01*
X186605500Y-143587063D01*
X186605500Y-143392937D01*
X186605500Y-143392934D01*
X186567628Y-143202545D01*
X186567627Y-143202544D01*
X186567627Y-143202540D01*
X186493338Y-143023191D01*
X186385488Y-142861781D01*
X186385486Y-142861778D01*
X186248221Y-142724513D01*
X186087473Y-142617106D01*
X186086809Y-142616662D01*
X185907460Y-142542373D01*
X185907454Y-142542371D01*
X185717065Y-142504500D01*
X185717063Y-142504500D01*
X185522937Y-142504500D01*
X185522935Y-142504500D01*
X185332545Y-142542371D01*
X185332539Y-142542373D01*
X185153192Y-142616661D01*
X184991778Y-142724513D01*
X184854513Y-142861778D01*
X184746661Y-143023192D01*
X184672373Y-143202539D01*
X184672371Y-143202545D01*
X184634500Y-143392934D01*
X184634500Y-143392937D01*
X184634500Y-143587063D01*
X184634500Y-143587065D01*
X184634499Y-143587065D01*
X179365500Y-143587065D01*
X179365500Y-143587063D01*
X179365500Y-143392937D01*
X179365500Y-143392934D01*
X179327628Y-143202545D01*
X179327627Y-143202544D01*
X179327627Y-143202540D01*
X179253338Y-143023191D01*
X179145488Y-142861781D01*
X179145486Y-142861778D01*
X179008221Y-142724513D01*
X178847473Y-142617106D01*
X178846809Y-142616662D01*
X178667460Y-142542373D01*
X178667454Y-142542371D01*
X178477065Y-142504500D01*
X178477063Y-142504500D01*
X178282937Y-142504500D01*
X178282935Y-142504500D01*
X178092545Y-142542371D01*
X178092539Y-142542373D01*
X177913192Y-142616661D01*
X177751778Y-142724513D01*
X177614513Y-142861778D01*
X177506661Y-143023192D01*
X177432373Y-143202539D01*
X177432371Y-143202545D01*
X177394500Y-143392934D01*
X177394500Y-143392937D01*
X177394500Y-143587063D01*
X177394500Y-143587065D01*
X177394499Y-143587065D01*
X170605500Y-143587065D01*
X170605500Y-143587063D01*
X170605500Y-143392937D01*
X170605500Y-143392934D01*
X170567628Y-143202545D01*
X170567627Y-143202544D01*
X170567627Y-143202540D01*
X170493338Y-143023191D01*
X170385488Y-142861781D01*
X170385486Y-142861778D01*
X170248221Y-142724513D01*
X170087473Y-142617106D01*
X170086809Y-142616662D01*
X169907460Y-142542373D01*
X169907454Y-142542371D01*
X169717065Y-142504500D01*
X169717063Y-142504500D01*
X169522937Y-142504500D01*
X169522935Y-142504500D01*
X169332545Y-142542371D01*
X169332539Y-142542373D01*
X169153192Y-142616661D01*
X168991778Y-142724513D01*
X168854513Y-142861778D01*
X168746661Y-143023192D01*
X168672373Y-143202539D01*
X168672371Y-143202545D01*
X168634500Y-143392934D01*
X168634500Y-143392937D01*
X168634500Y-143587063D01*
X168634500Y-143587065D01*
X168634499Y-143587065D01*
X163364990Y-143587065D01*
X163364999Y-143587018D01*
X163365000Y-143587016D01*
X163365000Y-143392982D01*
X163327148Y-143202693D01*
X163327145Y-143202681D01*
X163252898Y-143023431D01*
X163231758Y-142991794D01*
X162733554Y-143489999D01*
X162610000Y-143489999D01*
X162610000Y-143444250D01*
X162574985Y-143359715D01*
X162510285Y-143295015D01*
X162425750Y-143260000D01*
X162334250Y-143260000D01*
X162249715Y-143295015D01*
X162185015Y-143359715D01*
X162150000Y-143444250D01*
X161980696Y-143444250D01*
X161528240Y-142991794D01*
X161507104Y-143023426D01*
X161507103Y-143023428D01*
X161432853Y-143202685D01*
X161432851Y-143202693D01*
X161395000Y-143392981D01*
X154604999Y-143392981D01*
X154567148Y-143202693D01*
X154567145Y-143202681D01*
X154492898Y-143023431D01*
X154471758Y-142991794D01*
X153973554Y-143489999D01*
X153850000Y-143489999D01*
X153850000Y-143444250D01*
X153814985Y-143359715D01*
X153750285Y-143295015D01*
X153665750Y-143260000D01*
X153574250Y-143260000D01*
X153489715Y-143295015D01*
X153425015Y-143359715D01*
X153390000Y-143444250D01*
X153220696Y-143444250D01*
X152768240Y-142991794D01*
X152747104Y-143023426D01*
X152747103Y-143023428D01*
X152672853Y-143202685D01*
X152672851Y-143202693D01*
X152635000Y-143392981D01*
X147364999Y-143392981D01*
X147327148Y-143202693D01*
X147327145Y-143202681D01*
X147252898Y-143023431D01*
X147231758Y-142991794D01*
X146733554Y-143489999D01*
X146610000Y-143489999D01*
X146610000Y-143444250D01*
X146574985Y-143359715D01*
X146510285Y-143295015D01*
X146425750Y-143260000D01*
X146334250Y-143260000D01*
X146249715Y-143295015D01*
X146185015Y-143359715D01*
X146150000Y-143444250D01*
X145980696Y-143444250D01*
X145528240Y-142991794D01*
X145507104Y-143023426D01*
X145507103Y-143023428D01*
X145432853Y-143202685D01*
X145432851Y-143202693D01*
X145395000Y-143392981D01*
X138604999Y-143392981D01*
X138567148Y-143202693D01*
X138567145Y-143202681D01*
X138492898Y-143023431D01*
X138471758Y-142991794D01*
X137973554Y-143489999D01*
X137850000Y-143489999D01*
X137850000Y-143444250D01*
X137814985Y-143359715D01*
X137750285Y-143295015D01*
X137665750Y-143260000D01*
X137574250Y-143260000D01*
X137489715Y-143295015D01*
X137425015Y-143359715D01*
X137390000Y-143444250D01*
X137220696Y-143444250D01*
X136768240Y-142991794D01*
X136747104Y-143023426D01*
X136747103Y-143023428D01*
X136672853Y-143202685D01*
X136672851Y-143202693D01*
X136635000Y-143392981D01*
X131365500Y-143392981D01*
X131365500Y-143392937D01*
X131365500Y-143392934D01*
X131327628Y-143202545D01*
X131327627Y-143202544D01*
X131327627Y-143202540D01*
X131253338Y-143023191D01*
X131145488Y-142861781D01*
X131145486Y-142861778D01*
X131008221Y-142724513D01*
X130879103Y-142638240D01*
X137121794Y-142638240D01*
X137620000Y-143136446D01*
X137620001Y-143136446D01*
X138118205Y-142638240D01*
X145881794Y-142638240D01*
X146380000Y-143136446D01*
X146380001Y-143136446D01*
X146878205Y-142638240D01*
X153121794Y-142638240D01*
X153620000Y-143136446D01*
X153620001Y-143136446D01*
X154118205Y-142638240D01*
X161881794Y-142638240D01*
X162380000Y-143136446D01*
X162380001Y-143136446D01*
X162878205Y-142638241D01*
X162878204Y-142638240D01*
X162846575Y-142617106D01*
X162846568Y-142617102D01*
X162667314Y-142542853D01*
X162667306Y-142542851D01*
X162477017Y-142505000D01*
X162282983Y-142505000D01*
X162092693Y-142542851D01*
X162092685Y-142542853D01*
X161913428Y-142617103D01*
X161913426Y-142617104D01*
X161881794Y-142638240D01*
X154118205Y-142638240D01*
X154086575Y-142617106D01*
X154086568Y-142617102D01*
X153907314Y-142542853D01*
X153907306Y-142542851D01*
X153717017Y-142505000D01*
X153522983Y-142505000D01*
X153332693Y-142542851D01*
X153332685Y-142542853D01*
X153153428Y-142617103D01*
X153153426Y-142617104D01*
X153121794Y-142638240D01*
X146878205Y-142638240D01*
X146846575Y-142617106D01*
X146846568Y-142617102D01*
X146667314Y-142542853D01*
X146667306Y-142542851D01*
X146477017Y-142505000D01*
X146282983Y-142505000D01*
X146092693Y-142542851D01*
X146092685Y-142542853D01*
X145913428Y-142617103D01*
X145913426Y-142617104D01*
X145881794Y-142638240D01*
X138118205Y-142638240D01*
X138086575Y-142617106D01*
X138086568Y-142617102D01*
X137907314Y-142542853D01*
X137907306Y-142542851D01*
X137717017Y-142505000D01*
X137522983Y-142505000D01*
X137332693Y-142542851D01*
X137332685Y-142542853D01*
X137153428Y-142617103D01*
X137153426Y-142617104D01*
X137121794Y-142638240D01*
X130879103Y-142638240D01*
X130847473Y-142617106D01*
X130846809Y-142616662D01*
X130667460Y-142542373D01*
X130667454Y-142542371D01*
X130477065Y-142504500D01*
X130477063Y-142504500D01*
X130282937Y-142504500D01*
X130282935Y-142504500D01*
X130092545Y-142542371D01*
X130092539Y-142542373D01*
X129913192Y-142616661D01*
X129751778Y-142724513D01*
X129614513Y-142861778D01*
X129506661Y-143023192D01*
X129432373Y-143202539D01*
X129432371Y-143202545D01*
X129394500Y-143392934D01*
X129394500Y-143392937D01*
X129394500Y-143587063D01*
X129394500Y-143587065D01*
X129394499Y-143587065D01*
X122605500Y-143587065D01*
X122605500Y-143587063D01*
X122605500Y-143392937D01*
X122605500Y-143392934D01*
X122567628Y-143202545D01*
X122567627Y-143202544D01*
X122567627Y-143202540D01*
X122493338Y-143023191D01*
X122385488Y-142861781D01*
X122385486Y-142861778D01*
X122248221Y-142724513D01*
X122087473Y-142617106D01*
X122086809Y-142616662D01*
X121907460Y-142542373D01*
X121907454Y-142542371D01*
X121717065Y-142504500D01*
X121717063Y-142504500D01*
X121522937Y-142504500D01*
X121522935Y-142504500D01*
X121332545Y-142542371D01*
X121332539Y-142542373D01*
X121153192Y-142616661D01*
X120991778Y-142724513D01*
X120854513Y-142861778D01*
X120746661Y-143023192D01*
X120672373Y-143202539D01*
X120672371Y-143202545D01*
X120634500Y-143392934D01*
X120634500Y-143392937D01*
X120634500Y-143587063D01*
X120634500Y-143587065D01*
X120634499Y-143587065D01*
X115364990Y-143587065D01*
X115364999Y-143587018D01*
X115365000Y-143587016D01*
X115365000Y-143392982D01*
X115327148Y-143202693D01*
X115327145Y-143202681D01*
X115252898Y-143023431D01*
X115231758Y-142991794D01*
X114733554Y-143489999D01*
X114610000Y-143489999D01*
X114610000Y-143444250D01*
X114574985Y-143359715D01*
X114510285Y-143295015D01*
X114425750Y-143260000D01*
X114334250Y-143260000D01*
X114249715Y-143295015D01*
X114185015Y-143359715D01*
X114150000Y-143444250D01*
X113980696Y-143444250D01*
X113528240Y-142991794D01*
X113507104Y-143023426D01*
X113507103Y-143023428D01*
X113432853Y-143202685D01*
X113432851Y-143202693D01*
X113395000Y-143392981D01*
X106604999Y-143392981D01*
X106567148Y-143202693D01*
X106567145Y-143202681D01*
X106492898Y-143023431D01*
X106471758Y-142991794D01*
X105973554Y-143489999D01*
X105850000Y-143489999D01*
X105850000Y-143444250D01*
X105814985Y-143359715D01*
X105750285Y-143295015D01*
X105665750Y-143260000D01*
X105574250Y-143260000D01*
X105489715Y-143295015D01*
X105425015Y-143359715D01*
X105390000Y-143444250D01*
X105220696Y-143444250D01*
X104768240Y-142991794D01*
X104747104Y-143023426D01*
X104747103Y-143023428D01*
X104672853Y-143202685D01*
X104672851Y-143202693D01*
X104635000Y-143392981D01*
X100000500Y-143392981D01*
X100000500Y-142638240D01*
X105121794Y-142638240D01*
X105620000Y-143136446D01*
X105620001Y-143136446D01*
X106118205Y-142638240D01*
X113881794Y-142638240D01*
X114380000Y-143136446D01*
X114380001Y-143136446D01*
X114878205Y-142638241D01*
X114878204Y-142638240D01*
X114846575Y-142617106D01*
X114846568Y-142617102D01*
X114667314Y-142542853D01*
X114667306Y-142542851D01*
X114477017Y-142505000D01*
X114282983Y-142505000D01*
X114092693Y-142542851D01*
X114092685Y-142542853D01*
X113913428Y-142617103D01*
X113913426Y-142617104D01*
X113881794Y-142638240D01*
X106118205Y-142638240D01*
X106086575Y-142617106D01*
X106086568Y-142617102D01*
X105907314Y-142542853D01*
X105907306Y-142542851D01*
X105717017Y-142505000D01*
X105522983Y-142505000D01*
X105332693Y-142542851D01*
X105332685Y-142542853D01*
X105153428Y-142617103D01*
X105153426Y-142617104D01*
X105121794Y-142638240D01*
X100000500Y-142638240D01*
X100000500Y-137609778D01*
X171199500Y-137609778D01*
X171199500Y-137830221D01*
X171233985Y-138047952D01*
X171302103Y-138257603D01*
X171302104Y-138257606D01*
X171370122Y-138391096D01*
X171395483Y-138440869D01*
X171402187Y-138454025D01*
X171531752Y-138632358D01*
X171531756Y-138632363D01*
X171687636Y-138788243D01*
X171687641Y-138788247D01*
X171843192Y-138901260D01*
X171865978Y-138917815D01*
X171994375Y-138983237D01*
X172062393Y-139017895D01*
X172062396Y-139017896D01*
X172167221Y-139051955D01*
X172272049Y-139086015D01*
X172489778Y-139120500D01*
X172489779Y-139120500D01*
X172710221Y-139120500D01*
X172710222Y-139120500D01*
X172927951Y-139086015D01*
X173137606Y-139017895D01*
X173334022Y-138917815D01*
X173512365Y-138788242D01*
X173668242Y-138632365D01*
X173797815Y-138454022D01*
X173897895Y-138257606D01*
X173966015Y-138047951D01*
X174000500Y-137830222D01*
X174000500Y-137609778D01*
X173966015Y-137392049D01*
X173897895Y-137182394D01*
X173897893Y-137182388D01*
X173807922Y-137005814D01*
X173807921Y-137005812D01*
X173797814Y-136985976D01*
X173742614Y-136909999D01*
X181198244Y-136909999D01*
X181198245Y-136910000D01*
X182331518Y-136910000D01*
X182320889Y-136928409D01*
X182280000Y-137081009D01*
X182280000Y-137238991D01*
X182320889Y-137391591D01*
X182331518Y-137410000D01*
X181198244Y-137410000D01*
X181209087Y-137492367D01*
X181266764Y-137707620D01*
X181352045Y-137913502D01*
X181352054Y-137913520D01*
X181463464Y-138106491D01*
X181463466Y-138106495D01*
X181599130Y-138283293D01*
X181599138Y-138283302D01*
X181756698Y-138440862D01*
X181756706Y-138440869D01*
X181933504Y-138576533D01*
X181933508Y-138576535D01*
X182126479Y-138687945D01*
X182126497Y-138687954D01*
X182332379Y-138773235D01*
X182547632Y-138830912D01*
X182629999Y-138841755D01*
X182630000Y-138841755D01*
X182630000Y-137708482D01*
X182648409Y-137719111D01*
X182801009Y-137760000D01*
X182958991Y-137760000D01*
X183111591Y-137719111D01*
X183130000Y-137708482D01*
X183130000Y-138841755D01*
X183212367Y-138830912D01*
X183427620Y-138773235D01*
X183633502Y-138687954D01*
X183633520Y-138687945D01*
X183826491Y-138576535D01*
X183826495Y-138576533D01*
X184003293Y-138440869D01*
X184003302Y-138440862D01*
X184160862Y-138283302D01*
X184160869Y-138283293D01*
X184296533Y-138106495D01*
X184296535Y-138106491D01*
X184407945Y-137913520D01*
X184407954Y-137913502D01*
X184493235Y-137707620D01*
X184550912Y-137492367D01*
X184561756Y-137410000D01*
X183428482Y-137410000D01*
X183439111Y-137391591D01*
X183480000Y-137238991D01*
X183480000Y-137081009D01*
X183439111Y-136928409D01*
X183428482Y-136910000D01*
X184561755Y-136910000D01*
X184561755Y-136909999D01*
X184550912Y-136827632D01*
X184493235Y-136612379D01*
X184407954Y-136406497D01*
X184407945Y-136406479D01*
X184296535Y-136213508D01*
X184296533Y-136213504D01*
X184160869Y-136036706D01*
X184160862Y-136036698D01*
X184003302Y-135879138D01*
X184003293Y-135879130D01*
X183826495Y-135743466D01*
X183826491Y-135743464D01*
X183633520Y-135632054D01*
X183633502Y-135632045D01*
X183427618Y-135546763D01*
X183212363Y-135489087D01*
X183130000Y-135478242D01*
X183130000Y-136611517D01*
X183111591Y-136600889D01*
X182958991Y-136560000D01*
X182801009Y-136560000D01*
X182648409Y-136600889D01*
X182630000Y-136611517D01*
X182630000Y-135478242D01*
X182629999Y-135478242D01*
X182547636Y-135489087D01*
X182332381Y-135546763D01*
X182126497Y-135632045D01*
X182126479Y-135632054D01*
X181933508Y-135743464D01*
X181933504Y-135743466D01*
X181756706Y-135879130D01*
X181599130Y-136036706D01*
X181463466Y-136213504D01*
X181463464Y-136213508D01*
X181352054Y-136406479D01*
X181352045Y-136406497D01*
X181266764Y-136612379D01*
X181209087Y-136827632D01*
X181198244Y-136909999D01*
X173742614Y-136909999D01*
X173668247Y-136807641D01*
X173668243Y-136807636D01*
X173512363Y-136651756D01*
X173512358Y-136651752D01*
X173334025Y-136522187D01*
X173334024Y-136522186D01*
X173334022Y-136522185D01*
X173271096Y-136490122D01*
X173137606Y-136422104D01*
X173137603Y-136422103D01*
X172927952Y-136353985D01*
X172819086Y-136336742D01*
X172710222Y-136319500D01*
X172489778Y-136319500D01*
X172417201Y-136330995D01*
X172272047Y-136353985D01*
X172062396Y-136422103D01*
X172062393Y-136422104D01*
X171865974Y-136522187D01*
X171687641Y-136651752D01*
X171687636Y-136651756D01*
X171531756Y-136807636D01*
X171531752Y-136807641D01*
X171402187Y-136985974D01*
X171302104Y-137182393D01*
X171302103Y-137182396D01*
X171233985Y-137392047D01*
X171199500Y-137609778D01*
X100000500Y-137609778D01*
X100000500Y-134878711D01*
X108149500Y-134878711D01*
X108149500Y-135121288D01*
X108181161Y-135361785D01*
X108243947Y-135596104D01*
X108316419Y-135771066D01*
X108336776Y-135820212D01*
X108458064Y-136030289D01*
X108458066Y-136030292D01*
X108458067Y-136030293D01*
X108605733Y-136222736D01*
X108605739Y-136222743D01*
X108777256Y-136394260D01*
X108777263Y-136394266D01*
X108813544Y-136422105D01*
X108969711Y-136541936D01*
X109179788Y-136663224D01*
X109403900Y-136756054D01*
X109638211Y-136818838D01*
X109818586Y-136842584D01*
X109878711Y-136850500D01*
X109878712Y-136850500D01*
X110121289Y-136850500D01*
X110169388Y-136844167D01*
X110361789Y-136818838D01*
X110596100Y-136756054D01*
X110820212Y-136663224D01*
X111030289Y-136541936D01*
X111222738Y-136394265D01*
X111394265Y-136222738D01*
X111541936Y-136030289D01*
X111663224Y-135820212D01*
X111756054Y-135596100D01*
X111818838Y-135361789D01*
X111850500Y-135121288D01*
X111850500Y-134878712D01*
X111818838Y-134638211D01*
X111784435Y-134509818D01*
X163700000Y-134509818D01*
X163700000Y-134730181D01*
X163734473Y-134947835D01*
X163802567Y-135157410D01*
X163902611Y-135353756D01*
X163948932Y-135417513D01*
X164700000Y-134666445D01*
X164700000Y-134672661D01*
X164727259Y-134774394D01*
X164779920Y-134865606D01*
X164854394Y-134940080D01*
X164945606Y-134992741D01*
X165047339Y-135020000D01*
X165053553Y-135020000D01*
X164302485Y-135771065D01*
X164302485Y-135771066D01*
X164366243Y-135817388D01*
X164562589Y-135917432D01*
X164772164Y-135985526D01*
X164989819Y-136020000D01*
X165210181Y-136020000D01*
X165427835Y-135985526D01*
X165637410Y-135917432D01*
X165833760Y-135817386D01*
X165897513Y-135771066D01*
X165897514Y-135771066D01*
X165146447Y-135020000D01*
X165152661Y-135020000D01*
X165254394Y-134992741D01*
X165345606Y-134940080D01*
X165420080Y-134865606D01*
X165472741Y-134774394D01*
X165500000Y-134672661D01*
X165500000Y-134666448D01*
X166251066Y-135417514D01*
X166251066Y-135417513D01*
X166297386Y-135353760D01*
X166397432Y-135157410D01*
X166465526Y-134947835D01*
X166476475Y-134878711D01*
X188149500Y-134878711D01*
X188149500Y-135121288D01*
X188181161Y-135361785D01*
X188243947Y-135596104D01*
X188316419Y-135771066D01*
X188336776Y-135820212D01*
X188458064Y-136030289D01*
X188458066Y-136030292D01*
X188458067Y-136030293D01*
X188605733Y-136222736D01*
X188605739Y-136222743D01*
X188777256Y-136394260D01*
X188777263Y-136394266D01*
X188813544Y-136422105D01*
X188969711Y-136541936D01*
X189179788Y-136663224D01*
X189403900Y-136756054D01*
X189638211Y-136818838D01*
X189818586Y-136842584D01*
X189878711Y-136850500D01*
X189878712Y-136850500D01*
X190121289Y-136850500D01*
X190169388Y-136844167D01*
X190361789Y-136818838D01*
X190596100Y-136756054D01*
X190820212Y-136663224D01*
X191030289Y-136541936D01*
X191222738Y-136394265D01*
X191394265Y-136222738D01*
X191541936Y-136030289D01*
X191663224Y-135820212D01*
X191756054Y-135596100D01*
X191818838Y-135361789D01*
X191850500Y-135121288D01*
X191850500Y-134878712D01*
X191818838Y-134638211D01*
X191756054Y-134403900D01*
X191663224Y-134179788D01*
X191541936Y-133969711D01*
X191394265Y-133777262D01*
X191394260Y-133777256D01*
X191222743Y-133605739D01*
X191222736Y-133605733D01*
X191030293Y-133458067D01*
X191030292Y-133458066D01*
X191030289Y-133458064D01*
X190820212Y-133336776D01*
X190820205Y-133336773D01*
X190596104Y-133243947D01*
X190361785Y-133181161D01*
X190121289Y-133149500D01*
X190121288Y-133149500D01*
X189878712Y-133149500D01*
X189878711Y-133149500D01*
X189638214Y-133181161D01*
X189403895Y-133243947D01*
X189179794Y-133336773D01*
X189179785Y-133336777D01*
X188969706Y-133458067D01*
X188777263Y-133605733D01*
X188777256Y-133605739D01*
X188605739Y-133777256D01*
X188605733Y-133777263D01*
X188458067Y-133969706D01*
X188336777Y-134179785D01*
X188336773Y-134179794D01*
X188243947Y-134403895D01*
X188181161Y-134638214D01*
X188149500Y-134878711D01*
X166476475Y-134878711D01*
X166480190Y-134855255D01*
X166500000Y-134730181D01*
X166500000Y-134509818D01*
X166465526Y-134292164D01*
X166397432Y-134082589D01*
X166297388Y-133886243D01*
X166251066Y-133822485D01*
X166251065Y-133822485D01*
X165500000Y-134573551D01*
X165500000Y-134567339D01*
X165472741Y-134465606D01*
X165420080Y-134374394D01*
X165345606Y-134299920D01*
X165254394Y-134247259D01*
X165152661Y-134220000D01*
X165146445Y-134220000D01*
X165897513Y-133468932D01*
X165833756Y-133422611D01*
X165637410Y-133322567D01*
X165427835Y-133254473D01*
X165210181Y-133220000D01*
X164989819Y-133220000D01*
X164772164Y-133254473D01*
X164562589Y-133322567D01*
X164366233Y-133422616D01*
X164302485Y-133468931D01*
X164302485Y-133468932D01*
X165053553Y-134220000D01*
X165047339Y-134220000D01*
X164945606Y-134247259D01*
X164854394Y-134299920D01*
X164779920Y-134374394D01*
X164727259Y-134465606D01*
X164700000Y-134567339D01*
X164700000Y-134573553D01*
X163948932Y-133822485D01*
X163948931Y-133822485D01*
X163902616Y-133886233D01*
X163802567Y-134082589D01*
X163734473Y-134292164D01*
X163700000Y-134509818D01*
X111784435Y-134509818D01*
X111756054Y-134403900D01*
X111663224Y-134179788D01*
X111541936Y-133969711D01*
X111394265Y-133777262D01*
X111394260Y-133777256D01*
X111222743Y-133605739D01*
X111222736Y-133605733D01*
X111030293Y-133458067D01*
X111030292Y-133458066D01*
X111030289Y-133458064D01*
X110820212Y-133336776D01*
X110820205Y-133336773D01*
X110596104Y-133243947D01*
X110361785Y-133181161D01*
X110121289Y-133149500D01*
X110121288Y-133149500D01*
X109878712Y-133149500D01*
X109878711Y-133149500D01*
X109638214Y-133181161D01*
X109403895Y-133243947D01*
X109179794Y-133336773D01*
X109179785Y-133336777D01*
X108969706Y-133458067D01*
X108777263Y-133605733D01*
X108777256Y-133605739D01*
X108605739Y-133777256D01*
X108605733Y-133777263D01*
X108458067Y-133969706D01*
X108336777Y-134179785D01*
X108336773Y-134179794D01*
X108243947Y-134403895D01*
X108181161Y-134638214D01*
X108149500Y-134878711D01*
X100000500Y-134878711D01*
X100000500Y-123208872D01*
X124999500Y-123208872D01*
X124999500Y-123471127D01*
X125026123Y-123673339D01*
X125033730Y-123731116D01*
X125101602Y-123984418D01*
X125101605Y-123984428D01*
X125201953Y-124226690D01*
X125201958Y-124226700D01*
X125333075Y-124453803D01*
X125492718Y-124661851D01*
X125492726Y-124661860D01*
X125678140Y-124847274D01*
X125678148Y-124847281D01*
X125886196Y-125006924D01*
X126113299Y-125138041D01*
X126113309Y-125138046D01*
X126355571Y-125238394D01*
X126355581Y-125238398D01*
X126608884Y-125306270D01*
X126868880Y-125340500D01*
X126868887Y-125340500D01*
X127131113Y-125340500D01*
X127131120Y-125340500D01*
X127391116Y-125306270D01*
X127644419Y-125238398D01*
X127886697Y-125138043D01*
X128113803Y-125006924D01*
X128321851Y-124847282D01*
X128321855Y-124847277D01*
X128321860Y-124847274D01*
X128507274Y-124661860D01*
X128507277Y-124661855D01*
X128507282Y-124661851D01*
X128666924Y-124453803D01*
X128798043Y-124226697D01*
X128898398Y-123984419D01*
X128966270Y-123731116D01*
X129000500Y-123471120D01*
X129000500Y-123208880D01*
X129000499Y-123208872D01*
X140239500Y-123208872D01*
X140239500Y-123471127D01*
X140266123Y-123673339D01*
X140273730Y-123731116D01*
X140341602Y-123984418D01*
X140341605Y-123984428D01*
X140441953Y-124226690D01*
X140441958Y-124226700D01*
X140573075Y-124453803D01*
X140732718Y-124661851D01*
X140732726Y-124661860D01*
X140918140Y-124847274D01*
X140918148Y-124847281D01*
X141126196Y-125006924D01*
X141353299Y-125138041D01*
X141353309Y-125138046D01*
X141595571Y-125238394D01*
X141595581Y-125238398D01*
X141848884Y-125306270D01*
X142108880Y-125340500D01*
X142108887Y-125340500D01*
X142371113Y-125340500D01*
X142371120Y-125340500D01*
X142631116Y-125306270D01*
X142884419Y-125238398D01*
X143126697Y-125138043D01*
X143353803Y-125006924D01*
X143561851Y-124847282D01*
X143561855Y-124847277D01*
X143561860Y-124847274D01*
X143747274Y-124661860D01*
X143747277Y-124661855D01*
X143747282Y-124661851D01*
X143906924Y-124453803D01*
X144038043Y-124226697D01*
X144138398Y-123984419D01*
X144206270Y-123731116D01*
X144240500Y-123471120D01*
X144240500Y-123208880D01*
X144240499Y-123208872D01*
X155479500Y-123208872D01*
X155479500Y-123471127D01*
X155506123Y-123673339D01*
X155513730Y-123731116D01*
X155581602Y-123984418D01*
X155581605Y-123984428D01*
X155681953Y-124226690D01*
X155681958Y-124226700D01*
X155813075Y-124453803D01*
X155972718Y-124661851D01*
X155972726Y-124661860D01*
X156158140Y-124847274D01*
X156158148Y-124847281D01*
X156366196Y-125006924D01*
X156593299Y-125138041D01*
X156593309Y-125138046D01*
X156835571Y-125238394D01*
X156835581Y-125238398D01*
X157088884Y-125306270D01*
X157348880Y-125340500D01*
X157348887Y-125340500D01*
X157611113Y-125340500D01*
X157611120Y-125340500D01*
X157871116Y-125306270D01*
X158124419Y-125238398D01*
X158366697Y-125138043D01*
X158593803Y-125006924D01*
X158801851Y-124847282D01*
X158801855Y-124847277D01*
X158801860Y-124847274D01*
X158987274Y-124661860D01*
X158987277Y-124661855D01*
X158987282Y-124661851D01*
X159146924Y-124453803D01*
X159278043Y-124226697D01*
X159378398Y-123984419D01*
X159446270Y-123731116D01*
X159480500Y-123471120D01*
X159480500Y-123208880D01*
X159480499Y-123208872D01*
X170719500Y-123208872D01*
X170719500Y-123471127D01*
X170746123Y-123673339D01*
X170753730Y-123731116D01*
X170821602Y-123984418D01*
X170821605Y-123984428D01*
X170921953Y-124226690D01*
X170921958Y-124226700D01*
X171053075Y-124453803D01*
X171212718Y-124661851D01*
X171212726Y-124661860D01*
X171398140Y-124847274D01*
X171398148Y-124847281D01*
X171606196Y-125006924D01*
X171833299Y-125138041D01*
X171833309Y-125138046D01*
X172075571Y-125238394D01*
X172075581Y-125238398D01*
X172328884Y-125306270D01*
X172588880Y-125340500D01*
X172588887Y-125340500D01*
X172851113Y-125340500D01*
X172851120Y-125340500D01*
X173111116Y-125306270D01*
X173364419Y-125238398D01*
X173606697Y-125138043D01*
X173833803Y-125006924D01*
X174041851Y-124847282D01*
X174041855Y-124847277D01*
X174041860Y-124847274D01*
X174227274Y-124661860D01*
X174227277Y-124661855D01*
X174227282Y-124661851D01*
X174386924Y-124453803D01*
X174518043Y-124226697D01*
X174618398Y-123984419D01*
X174686270Y-123731116D01*
X174720500Y-123471120D01*
X174720500Y-123208880D01*
X174686270Y-122948884D01*
X174618398Y-122695581D01*
X174618394Y-122695571D01*
X174518046Y-122453309D01*
X174518041Y-122453299D01*
X174386924Y-122226196D01*
X174227281Y-122018148D01*
X174227274Y-122018140D01*
X174041860Y-121832726D01*
X174041851Y-121832718D01*
X173833803Y-121673075D01*
X173606700Y-121541958D01*
X173606690Y-121541953D01*
X173364428Y-121441605D01*
X173364421Y-121441603D01*
X173364419Y-121441602D01*
X173111116Y-121373730D01*
X173053339Y-121366123D01*
X172851127Y-121339500D01*
X172851120Y-121339500D01*
X172588880Y-121339500D01*
X172588872Y-121339500D01*
X172357772Y-121369926D01*
X172328884Y-121373730D01*
X172075581Y-121441602D01*
X172075571Y-121441605D01*
X171833309Y-121541953D01*
X171833299Y-121541958D01*
X171606196Y-121673075D01*
X171398148Y-121832718D01*
X171212718Y-122018148D01*
X171053075Y-122226196D01*
X170921958Y-122453299D01*
X170921953Y-122453309D01*
X170821605Y-122695571D01*
X170821602Y-122695581D01*
X170753730Y-122948885D01*
X170719500Y-123208872D01*
X159480499Y-123208872D01*
X159446270Y-122948884D01*
X159378398Y-122695581D01*
X159378394Y-122695571D01*
X159278046Y-122453309D01*
X159278041Y-122453299D01*
X159146924Y-122226196D01*
X158987281Y-122018148D01*
X158987274Y-122018140D01*
X158801860Y-121832726D01*
X158801851Y-121832718D01*
X158593803Y-121673075D01*
X158366700Y-121541958D01*
X158366690Y-121541953D01*
X158124428Y-121441605D01*
X158124421Y-121441603D01*
X158124419Y-121441602D01*
X157871116Y-121373730D01*
X157813339Y-121366123D01*
X157611127Y-121339500D01*
X157611120Y-121339500D01*
X157348880Y-121339500D01*
X157348872Y-121339500D01*
X157117772Y-121369926D01*
X157088884Y-121373730D01*
X156835581Y-121441602D01*
X156835571Y-121441605D01*
X156593309Y-121541953D01*
X156593299Y-121541958D01*
X156366196Y-121673075D01*
X156158148Y-121832718D01*
X155972718Y-122018148D01*
X155813075Y-122226196D01*
X155681958Y-122453299D01*
X155681953Y-122453309D01*
X155581605Y-122695571D01*
X155581602Y-122695581D01*
X155513730Y-122948885D01*
X155479500Y-123208872D01*
X144240499Y-123208872D01*
X144206270Y-122948884D01*
X144138398Y-122695581D01*
X144138394Y-122695571D01*
X144038046Y-122453309D01*
X144038041Y-122453299D01*
X143906924Y-122226196D01*
X143747281Y-122018148D01*
X143747274Y-122018140D01*
X143561860Y-121832726D01*
X143561851Y-121832718D01*
X143353803Y-121673075D01*
X143126700Y-121541958D01*
X143126690Y-121541953D01*
X142884428Y-121441605D01*
X142884421Y-121441603D01*
X142884419Y-121441602D01*
X142631116Y-121373730D01*
X142573339Y-121366123D01*
X142371127Y-121339500D01*
X142371120Y-121339500D01*
X142108880Y-121339500D01*
X142108872Y-121339500D01*
X141877772Y-121369926D01*
X141848884Y-121373730D01*
X141595581Y-121441602D01*
X141595571Y-121441605D01*
X141353309Y-121541953D01*
X141353299Y-121541958D01*
X141126196Y-121673075D01*
X140918148Y-121832718D01*
X140732718Y-122018148D01*
X140573075Y-122226196D01*
X140441958Y-122453299D01*
X140441953Y-122453309D01*
X140341605Y-122695571D01*
X140341602Y-122695581D01*
X140273730Y-122948885D01*
X140239500Y-123208872D01*
X129000499Y-123208872D01*
X128966270Y-122948884D01*
X128898398Y-122695581D01*
X128898394Y-122695571D01*
X128798046Y-122453309D01*
X128798041Y-122453299D01*
X128666924Y-122226196D01*
X128507281Y-122018148D01*
X128507274Y-122018140D01*
X128321860Y-121832726D01*
X128321851Y-121832718D01*
X128113803Y-121673075D01*
X127886700Y-121541958D01*
X127886690Y-121541953D01*
X127644428Y-121441605D01*
X127644421Y-121441603D01*
X127644419Y-121441602D01*
X127391116Y-121373730D01*
X127333339Y-121366123D01*
X127131127Y-121339500D01*
X127131120Y-121339500D01*
X126868880Y-121339500D01*
X126868872Y-121339500D01*
X126637772Y-121369926D01*
X126608884Y-121373730D01*
X126355581Y-121441602D01*
X126355571Y-121441605D01*
X126113309Y-121541953D01*
X126113299Y-121541958D01*
X125886196Y-121673075D01*
X125678148Y-121832718D01*
X125492718Y-122018148D01*
X125333075Y-122226196D01*
X125201958Y-122453299D01*
X125201953Y-122453309D01*
X125101605Y-122695571D01*
X125101602Y-122695581D01*
X125033730Y-122948885D01*
X124999500Y-123208872D01*
X100000500Y-123208872D01*
X100000500Y-105632135D01*
X123007000Y-105632135D01*
X123007000Y-107727870D01*
X123007001Y-107727876D01*
X123013408Y-107787483D01*
X123063702Y-107922328D01*
X123063706Y-107922335D01*
X123149952Y-108037544D01*
X123149955Y-108037547D01*
X123265164Y-108123793D01*
X123265171Y-108123797D01*
X123400017Y-108174091D01*
X123400016Y-108174091D01*
X123406944Y-108174835D01*
X123459627Y-108180500D01*
X125460372Y-108180499D01*
X125519983Y-108174091D01*
X125654831Y-108123796D01*
X125770046Y-108037546D01*
X125856296Y-107922331D01*
X125866690Y-107894460D01*
X125908560Y-107838527D01*
X125974023Y-107814108D01*
X126042297Y-107828958D01*
X126055746Y-107837465D01*
X126238462Y-107970217D01*
X126369904Y-108037190D01*
X126442244Y-108074049D01*
X126659751Y-108144721D01*
X126659752Y-108144721D01*
X126659755Y-108144722D01*
X126885646Y-108180500D01*
X126885647Y-108180500D01*
X127114353Y-108180500D01*
X127114354Y-108180500D01*
X127340245Y-108144722D01*
X127340248Y-108144721D01*
X127340249Y-108144721D01*
X127557755Y-108074049D01*
X127557755Y-108074048D01*
X127557758Y-108074048D01*
X127761538Y-107970217D01*
X127946566Y-107835786D01*
X128108286Y-107674066D01*
X128169683Y-107589559D01*
X128225012Y-107546896D01*
X128294625Y-107540917D01*
X128356420Y-107573523D01*
X128370314Y-107589556D01*
X128431714Y-107674066D01*
X128593434Y-107835786D01*
X128778462Y-107970217D01*
X128909904Y-108037190D01*
X128982244Y-108074049D01*
X129199751Y-108144721D01*
X129199752Y-108144721D01*
X129199755Y-108144722D01*
X129425646Y-108180500D01*
X129425647Y-108180500D01*
X129654353Y-108180500D01*
X129654354Y-108180500D01*
X129880245Y-108144722D01*
X129880248Y-108144721D01*
X129880249Y-108144721D01*
X130097755Y-108074049D01*
X130097755Y-108074048D01*
X130097758Y-108074048D01*
X130301538Y-107970217D01*
X130486566Y-107835786D01*
X130648286Y-107674066D01*
X130782717Y-107489038D01*
X130886548Y-107285258D01*
X130904502Y-107230000D01*
X130957221Y-107067749D01*
X130957221Y-107067748D01*
X130957222Y-107067745D01*
X130993000Y-106841854D01*
X130993000Y-106518146D01*
X130957222Y-106292255D01*
X130957221Y-106292251D01*
X130957221Y-106292250D01*
X130886549Y-106074744D01*
X130810901Y-105926277D01*
X130782717Y-105870962D01*
X130648286Y-105685934D01*
X130594487Y-105632135D01*
X138247000Y-105632135D01*
X138247000Y-107727870D01*
X138247001Y-107727876D01*
X138253408Y-107787483D01*
X138303702Y-107922328D01*
X138303706Y-107922335D01*
X138389952Y-108037544D01*
X138389955Y-108037547D01*
X138505164Y-108123793D01*
X138505171Y-108123797D01*
X138640017Y-108174091D01*
X138640016Y-108174091D01*
X138646944Y-108174835D01*
X138699627Y-108180500D01*
X140700372Y-108180499D01*
X140759983Y-108174091D01*
X140894831Y-108123796D01*
X141010046Y-108037546D01*
X141096296Y-107922331D01*
X141106690Y-107894460D01*
X141148560Y-107838527D01*
X141214023Y-107814108D01*
X141282297Y-107828958D01*
X141295746Y-107837465D01*
X141478462Y-107970217D01*
X141609904Y-108037190D01*
X141682244Y-108074049D01*
X141899751Y-108144721D01*
X141899752Y-108144721D01*
X141899755Y-108144722D01*
X142125646Y-108180500D01*
X142125647Y-108180500D01*
X142354353Y-108180500D01*
X142354354Y-108180500D01*
X142580245Y-108144722D01*
X142580248Y-108144721D01*
X142580249Y-108144721D01*
X142797755Y-108074049D01*
X142797755Y-108074048D01*
X142797758Y-108074048D01*
X143001538Y-107970217D01*
X143186566Y-107835786D01*
X143348286Y-107674066D01*
X143409683Y-107589559D01*
X143465012Y-107546896D01*
X143534625Y-107540917D01*
X143596420Y-107573523D01*
X143610314Y-107589556D01*
X143671714Y-107674066D01*
X143833434Y-107835786D01*
X144018462Y-107970217D01*
X144149904Y-108037190D01*
X144222244Y-108074049D01*
X144439751Y-108144721D01*
X144439752Y-108144721D01*
X144439755Y-108144722D01*
X144665646Y-108180500D01*
X144665647Y-108180500D01*
X144894353Y-108180500D01*
X144894354Y-108180500D01*
X145120245Y-108144722D01*
X145120248Y-108144721D01*
X145120249Y-108144721D01*
X145337755Y-108074049D01*
X145337755Y-108074048D01*
X145337758Y-108074048D01*
X145541538Y-107970217D01*
X145726566Y-107835786D01*
X145888286Y-107674066D01*
X146022717Y-107489038D01*
X146126548Y-107285258D01*
X146144502Y-107230000D01*
X146197221Y-107067749D01*
X146197221Y-107067748D01*
X146197222Y-107067745D01*
X146233000Y-106841854D01*
X146233000Y-106518146D01*
X146197222Y-106292255D01*
X146197221Y-106292251D01*
X146197221Y-106292250D01*
X146126549Y-106074744D01*
X146050901Y-105926277D01*
X146022717Y-105870962D01*
X145888286Y-105685934D01*
X145834487Y-105632135D01*
X153487000Y-105632135D01*
X153487000Y-107727870D01*
X153487001Y-107727876D01*
X153493408Y-107787483D01*
X153543702Y-107922328D01*
X153543706Y-107922335D01*
X153629952Y-108037544D01*
X153629955Y-108037547D01*
X153745164Y-108123793D01*
X153745171Y-108123797D01*
X153880017Y-108174091D01*
X153880016Y-108174091D01*
X153886944Y-108174835D01*
X153939627Y-108180500D01*
X155940372Y-108180499D01*
X155999983Y-108174091D01*
X156134831Y-108123796D01*
X156250046Y-108037546D01*
X156336296Y-107922331D01*
X156346690Y-107894460D01*
X156388560Y-107838527D01*
X156454023Y-107814108D01*
X156522297Y-107828958D01*
X156535746Y-107837465D01*
X156718462Y-107970217D01*
X156849904Y-108037190D01*
X156922244Y-108074049D01*
X157139751Y-108144721D01*
X157139752Y-108144721D01*
X157139755Y-108144722D01*
X157365646Y-108180500D01*
X157365647Y-108180500D01*
X157594353Y-108180500D01*
X157594354Y-108180500D01*
X157820245Y-108144722D01*
X157820248Y-108144721D01*
X157820249Y-108144721D01*
X158037755Y-108074049D01*
X158037755Y-108074048D01*
X158037758Y-108074048D01*
X158241538Y-107970217D01*
X158426566Y-107835786D01*
X158588286Y-107674066D01*
X158649683Y-107589559D01*
X158705012Y-107546896D01*
X158774625Y-107540917D01*
X158836420Y-107573523D01*
X158850314Y-107589556D01*
X158911714Y-107674066D01*
X159073434Y-107835786D01*
X159258462Y-107970217D01*
X159389904Y-108037190D01*
X159462244Y-108074049D01*
X159679751Y-108144721D01*
X159679752Y-108144721D01*
X159679755Y-108144722D01*
X159905646Y-108180500D01*
X159905647Y-108180500D01*
X160134353Y-108180500D01*
X160134354Y-108180500D01*
X160360245Y-108144722D01*
X160360248Y-108144721D01*
X160360249Y-108144721D01*
X160577755Y-108074049D01*
X160577755Y-108074048D01*
X160577758Y-108074048D01*
X160781538Y-107970217D01*
X160966566Y-107835786D01*
X161128286Y-107674066D01*
X161262717Y-107489038D01*
X161366548Y-107285258D01*
X161384502Y-107230000D01*
X161437221Y-107067749D01*
X161437221Y-107067748D01*
X161437222Y-107067745D01*
X161473000Y-106841854D01*
X161473000Y-106518146D01*
X161437222Y-106292255D01*
X161437221Y-106292251D01*
X161437221Y-106292250D01*
X161366549Y-106074744D01*
X161290901Y-105926277D01*
X161262717Y-105870962D01*
X161128286Y-105685934D01*
X161074507Y-105632155D01*
X168680000Y-105632155D01*
X168680000Y-106430000D01*
X169689252Y-106430000D01*
X169667482Y-106467708D01*
X169630000Y-106607591D01*
X169630000Y-106752409D01*
X169667482Y-106892292D01*
X169689252Y-106930000D01*
X168680000Y-106930000D01*
X168680000Y-107727844D01*
X168686401Y-107787372D01*
X168686403Y-107787379D01*
X168736645Y-107922086D01*
X168736649Y-107922093D01*
X168822809Y-108037187D01*
X168822812Y-108037190D01*
X168937906Y-108123350D01*
X168937913Y-108123354D01*
X169072620Y-108173596D01*
X169072627Y-108173598D01*
X169132155Y-108179999D01*
X169132172Y-108180000D01*
X169930000Y-108180000D01*
X169930000Y-107170747D01*
X169967708Y-107192518D01*
X170107591Y-107230000D01*
X170252409Y-107230000D01*
X170392292Y-107192518D01*
X170430000Y-107170747D01*
X170430000Y-108180000D01*
X171227828Y-108180000D01*
X171227844Y-108179999D01*
X171287372Y-108173598D01*
X171287379Y-108173596D01*
X171422086Y-108123354D01*
X171422093Y-108123350D01*
X171537187Y-108037190D01*
X171537190Y-108037187D01*
X171623350Y-107922093D01*
X171623354Y-107922086D01*
X171673596Y-107787379D01*
X171673598Y-107787372D01*
X171679999Y-107727844D01*
X171680000Y-107727827D01*
X171680000Y-106930000D01*
X170670748Y-106930000D01*
X170692518Y-106892292D01*
X170730000Y-106752409D01*
X170730000Y-106607591D01*
X170717758Y-106561902D01*
X173759500Y-106561902D01*
X173759500Y-106798097D01*
X173796446Y-107031368D01*
X173869433Y-107255996D01*
X173959990Y-107433722D01*
X173976657Y-107466433D01*
X174115483Y-107657510D01*
X174282490Y-107824517D01*
X174473567Y-107963343D01*
X174572991Y-108014002D01*
X174684003Y-108070566D01*
X174684005Y-108070566D01*
X174684008Y-108070568D01*
X174765194Y-108096947D01*
X174908631Y-108143553D01*
X175141903Y-108180500D01*
X175141908Y-108180500D01*
X175378097Y-108180500D01*
X175611368Y-108143553D01*
X175835992Y-108070568D01*
X176046433Y-107963343D01*
X176237510Y-107824517D01*
X176404517Y-107657510D01*
X176543343Y-107466433D01*
X176650568Y-107255992D01*
X176723553Y-107031368D01*
X176739608Y-106930000D01*
X176760500Y-106798097D01*
X176760500Y-106568549D01*
X181179500Y-106568549D01*
X181179500Y-106791450D01*
X181179501Y-106791466D01*
X181208594Y-107012452D01*
X181208595Y-107012457D01*
X181208596Y-107012463D01*
X181266290Y-107227780D01*
X181266293Y-107227790D01*
X181351593Y-107433722D01*
X181351595Y-107433726D01*
X181463052Y-107626774D01*
X181463057Y-107626780D01*
X181463058Y-107626782D01*
X181598751Y-107803622D01*
X181598757Y-107803629D01*
X181756370Y-107961242D01*
X181756377Y-107961248D01*
X181855347Y-108037190D01*
X181933226Y-108096948D01*
X182126274Y-108208405D01*
X182332219Y-108293710D01*
X182547537Y-108351404D01*
X182768543Y-108380500D01*
X182768550Y-108380500D01*
X182991450Y-108380500D01*
X182991457Y-108380500D01*
X183212463Y-108351404D01*
X183427781Y-108293710D01*
X183633726Y-108208405D01*
X183826774Y-108096948D01*
X184003624Y-107961247D01*
X184161247Y-107803624D01*
X184296948Y-107626774D01*
X184408405Y-107433726D01*
X184493710Y-107227781D01*
X184551404Y-107012463D01*
X184580500Y-106791457D01*
X184580500Y-106568543D01*
X184551404Y-106347537D01*
X184493710Y-106132219D01*
X184408405Y-105926274D01*
X184296948Y-105733226D01*
X184219373Y-105632128D01*
X184161248Y-105556377D01*
X184161242Y-105556370D01*
X184003629Y-105398757D01*
X184003622Y-105398751D01*
X183826782Y-105263058D01*
X183826780Y-105263057D01*
X183826774Y-105263052D01*
X183633726Y-105151595D01*
X183633722Y-105151593D01*
X183427790Y-105066293D01*
X183427783Y-105066291D01*
X183427781Y-105066290D01*
X183212463Y-105008596D01*
X183212457Y-105008595D01*
X183212452Y-105008594D01*
X182991466Y-104979501D01*
X182991463Y-104979500D01*
X182991457Y-104979500D01*
X182768543Y-104979500D01*
X182768537Y-104979500D01*
X182768533Y-104979501D01*
X182547547Y-105008594D01*
X182547540Y-105008595D01*
X182547537Y-105008596D01*
X182332219Y-105066290D01*
X182332209Y-105066293D01*
X182126277Y-105151593D01*
X182126273Y-105151595D01*
X181933226Y-105263052D01*
X181933217Y-105263058D01*
X181756377Y-105398751D01*
X181756370Y-105398757D01*
X181598757Y-105556370D01*
X181598751Y-105556377D01*
X181463058Y-105733217D01*
X181463052Y-105733226D01*
X181351595Y-105926273D01*
X181351593Y-105926277D01*
X181266293Y-106132209D01*
X181266290Y-106132219D01*
X181210002Y-106342292D01*
X181208597Y-106347534D01*
X181208594Y-106347547D01*
X181179501Y-106568533D01*
X181179500Y-106568549D01*
X176760500Y-106568549D01*
X176760500Y-106561902D01*
X176723553Y-106328631D01*
X176650566Y-106104003D01*
X176594002Y-105992991D01*
X176543343Y-105893567D01*
X176404517Y-105702490D01*
X176237510Y-105535483D01*
X176046433Y-105396657D01*
X176032942Y-105389783D01*
X175835996Y-105289433D01*
X175611368Y-105216446D01*
X175378097Y-105179500D01*
X175378092Y-105179500D01*
X175141908Y-105179500D01*
X175141903Y-105179500D01*
X174908631Y-105216446D01*
X174684003Y-105289433D01*
X174473566Y-105396657D01*
X174416783Y-105437913D01*
X174282490Y-105535483D01*
X174282488Y-105535485D01*
X174282487Y-105535485D01*
X174115485Y-105702487D01*
X174115485Y-105702488D01*
X174115483Y-105702490D01*
X174093152Y-105733226D01*
X173976657Y-105893566D01*
X173869433Y-106104003D01*
X173796446Y-106328631D01*
X173759500Y-106561902D01*
X170717758Y-106561902D01*
X170692518Y-106467708D01*
X170670748Y-106430000D01*
X171680000Y-106430000D01*
X171680000Y-105632172D01*
X171679999Y-105632155D01*
X171673598Y-105572627D01*
X171673596Y-105572620D01*
X171623354Y-105437913D01*
X171623350Y-105437906D01*
X171537190Y-105322812D01*
X171537187Y-105322809D01*
X171422093Y-105236649D01*
X171422086Y-105236645D01*
X171287379Y-105186403D01*
X171287372Y-105186401D01*
X171227844Y-105180000D01*
X170430000Y-105180000D01*
X170430000Y-106189252D01*
X170392292Y-106167482D01*
X170252409Y-106130000D01*
X170107591Y-106130000D01*
X169967708Y-106167482D01*
X169930000Y-106189252D01*
X169930000Y-105180000D01*
X169132155Y-105180000D01*
X169072627Y-105186401D01*
X169072620Y-105186403D01*
X168937913Y-105236645D01*
X168937906Y-105236649D01*
X168822812Y-105322809D01*
X168822809Y-105322812D01*
X168736649Y-105437906D01*
X168736645Y-105437913D01*
X168686403Y-105572620D01*
X168686401Y-105572627D01*
X168680000Y-105632155D01*
X161074507Y-105632155D01*
X160966566Y-105524214D01*
X160781538Y-105389783D01*
X160650100Y-105322812D01*
X160577755Y-105285950D01*
X160360248Y-105215278D01*
X160174812Y-105185908D01*
X160134354Y-105179500D01*
X159905646Y-105179500D01*
X159862063Y-105186403D01*
X159679753Y-105215278D01*
X159679750Y-105215278D01*
X159462244Y-105285950D01*
X159258461Y-105389783D01*
X159192217Y-105437913D01*
X159073434Y-105524214D01*
X159073432Y-105524216D01*
X159073431Y-105524216D01*
X158911715Y-105685932D01*
X158850318Y-105770438D01*
X158794987Y-105813103D01*
X158725374Y-105819082D01*
X158663579Y-105786476D01*
X158649682Y-105770438D01*
X158622639Y-105733217D01*
X158588286Y-105685934D01*
X158426566Y-105524214D01*
X158241538Y-105389783D01*
X158110100Y-105322812D01*
X158037755Y-105285950D01*
X157820248Y-105215278D01*
X157634812Y-105185908D01*
X157594354Y-105179500D01*
X157365646Y-105179500D01*
X157322063Y-105186403D01*
X157139753Y-105215278D01*
X157139750Y-105215278D01*
X156922244Y-105285950D01*
X156718461Y-105389783D01*
X156535759Y-105522525D01*
X156469952Y-105546005D01*
X156401898Y-105530180D01*
X156353203Y-105480074D01*
X156346690Y-105465538D01*
X156336296Y-105437669D01*
X156336293Y-105437664D01*
X156250047Y-105322455D01*
X156250044Y-105322452D01*
X156134835Y-105236206D01*
X156134828Y-105236202D01*
X155999982Y-105185908D01*
X155999983Y-105185908D01*
X155940383Y-105179501D01*
X155940381Y-105179500D01*
X155940373Y-105179500D01*
X155940364Y-105179500D01*
X153939629Y-105179500D01*
X153939623Y-105179501D01*
X153880016Y-105185908D01*
X153745171Y-105236202D01*
X153745164Y-105236206D01*
X153629955Y-105322452D01*
X153629952Y-105322455D01*
X153543706Y-105437664D01*
X153543702Y-105437671D01*
X153493408Y-105572517D01*
X153487001Y-105632116D01*
X153487000Y-105632135D01*
X145834487Y-105632135D01*
X145726566Y-105524214D01*
X145541538Y-105389783D01*
X145410100Y-105322812D01*
X145337755Y-105285950D01*
X145120248Y-105215278D01*
X144934812Y-105185908D01*
X144894354Y-105179500D01*
X144665646Y-105179500D01*
X144622063Y-105186403D01*
X144439753Y-105215278D01*
X144439750Y-105215278D01*
X144222244Y-105285950D01*
X144018461Y-105389783D01*
X143952217Y-105437913D01*
X143833434Y-105524214D01*
X143833432Y-105524216D01*
X143833431Y-105524216D01*
X143671715Y-105685932D01*
X143610318Y-105770438D01*
X143554987Y-105813103D01*
X143485374Y-105819082D01*
X143423579Y-105786476D01*
X143409682Y-105770438D01*
X143382639Y-105733217D01*
X143348286Y-105685934D01*
X143186566Y-105524214D01*
X143001538Y-105389783D01*
X142870100Y-105322812D01*
X142797755Y-105285950D01*
X142580248Y-105215278D01*
X142394812Y-105185908D01*
X142354354Y-105179500D01*
X142125646Y-105179500D01*
X142082063Y-105186403D01*
X141899753Y-105215278D01*
X141899750Y-105215278D01*
X141682244Y-105285950D01*
X141478461Y-105389783D01*
X141295759Y-105522525D01*
X141229952Y-105546005D01*
X141161898Y-105530180D01*
X141113203Y-105480074D01*
X141106690Y-105465538D01*
X141096296Y-105437669D01*
X141096293Y-105437664D01*
X141010047Y-105322455D01*
X141010044Y-105322452D01*
X140894835Y-105236206D01*
X140894828Y-105236202D01*
X140759982Y-105185908D01*
X140759983Y-105185908D01*
X140700383Y-105179501D01*
X140700381Y-105179500D01*
X140700373Y-105179500D01*
X140700364Y-105179500D01*
X138699629Y-105179500D01*
X138699623Y-105179501D01*
X138640016Y-105185908D01*
X138505171Y-105236202D01*
X138505164Y-105236206D01*
X138389955Y-105322452D01*
X138389952Y-105322455D01*
X138303706Y-105437664D01*
X138303702Y-105437671D01*
X138253408Y-105572517D01*
X138247001Y-105632116D01*
X138247000Y-105632135D01*
X130594487Y-105632135D01*
X130486566Y-105524214D01*
X130301538Y-105389783D01*
X130170100Y-105322812D01*
X130097755Y-105285950D01*
X129880248Y-105215278D01*
X129694812Y-105185908D01*
X129654354Y-105179500D01*
X129425646Y-105179500D01*
X129382063Y-105186403D01*
X129199753Y-105215278D01*
X129199750Y-105215278D01*
X128982244Y-105285950D01*
X128778461Y-105389783D01*
X128712217Y-105437913D01*
X128593434Y-105524214D01*
X128593432Y-105524216D01*
X128593431Y-105524216D01*
X128431715Y-105685932D01*
X128370318Y-105770438D01*
X128314987Y-105813103D01*
X128245374Y-105819082D01*
X128183579Y-105786476D01*
X128169682Y-105770438D01*
X128142639Y-105733217D01*
X128108286Y-105685934D01*
X127946566Y-105524214D01*
X127761538Y-105389783D01*
X127630100Y-105322812D01*
X127557755Y-105285950D01*
X127340248Y-105215278D01*
X127154812Y-105185908D01*
X127114354Y-105179500D01*
X126885646Y-105179500D01*
X126842063Y-105186403D01*
X126659753Y-105215278D01*
X126659750Y-105215278D01*
X126442244Y-105285950D01*
X126238461Y-105389783D01*
X126055759Y-105522525D01*
X125989952Y-105546005D01*
X125921898Y-105530180D01*
X125873203Y-105480074D01*
X125866690Y-105465538D01*
X125856296Y-105437669D01*
X125856293Y-105437664D01*
X125770047Y-105322455D01*
X125770044Y-105322452D01*
X125654835Y-105236206D01*
X125654828Y-105236202D01*
X125519982Y-105185908D01*
X125519983Y-105185908D01*
X125460383Y-105179501D01*
X125460381Y-105179500D01*
X125460373Y-105179500D01*
X125460364Y-105179500D01*
X123459629Y-105179500D01*
X123459623Y-105179501D01*
X123400016Y-105185908D01*
X123265171Y-105236202D01*
X123265164Y-105236206D01*
X123149955Y-105322452D01*
X123149952Y-105322455D01*
X123063706Y-105437664D01*
X123063702Y-105437671D01*
X123013408Y-105572517D01*
X123007001Y-105632116D01*
X123007000Y-105632135D01*
X100000500Y-105632135D01*
X100000500Y-99878711D01*
X148149500Y-99878711D01*
X148149500Y-100121288D01*
X148181161Y-100361785D01*
X148243947Y-100596104D01*
X148336773Y-100820205D01*
X148336776Y-100820212D01*
X148458064Y-101030289D01*
X148458066Y-101030292D01*
X148458067Y-101030293D01*
X148605733Y-101222736D01*
X148605739Y-101222743D01*
X148777256Y-101394260D01*
X148777262Y-101394265D01*
X148969711Y-101541936D01*
X149179788Y-101663224D01*
X149403900Y-101756054D01*
X149638211Y-101818838D01*
X149818586Y-101842584D01*
X149878711Y-101850500D01*
X149878712Y-101850500D01*
X150121289Y-101850500D01*
X150169388Y-101844167D01*
X150361789Y-101818838D01*
X150596100Y-101756054D01*
X150820212Y-101663224D01*
X151030289Y-101541936D01*
X151222738Y-101394265D01*
X151394265Y-101222738D01*
X151541936Y-101030289D01*
X151663224Y-100820212D01*
X151756054Y-100596100D01*
X151818838Y-100361789D01*
X151850500Y-100121288D01*
X151850500Y-99878712D01*
X151818838Y-99638211D01*
X151756054Y-99403900D01*
X151663224Y-99179788D01*
X151541936Y-98969711D01*
X151394265Y-98777262D01*
X151394260Y-98777256D01*
X151222743Y-98605739D01*
X151222736Y-98605733D01*
X151030293Y-98458067D01*
X151030292Y-98458066D01*
X151030289Y-98458064D01*
X150820212Y-98336776D01*
X150820205Y-98336773D01*
X150596104Y-98243947D01*
X150361785Y-98181161D01*
X150121289Y-98149500D01*
X150121288Y-98149500D01*
X149878712Y-98149500D01*
X149878711Y-98149500D01*
X149638214Y-98181161D01*
X149403895Y-98243947D01*
X149179794Y-98336773D01*
X149179785Y-98336777D01*
X148969706Y-98458067D01*
X148777263Y-98605733D01*
X148777256Y-98605739D01*
X148605739Y-98777256D01*
X148605733Y-98777263D01*
X148458067Y-98969706D01*
X148336777Y-99179785D01*
X148336773Y-99179794D01*
X148243947Y-99403895D01*
X148181161Y-99638214D01*
X148149500Y-99878711D01*
X100000500Y-99878711D01*
X100000500Y-94878711D01*
X108149500Y-94878711D01*
X108149500Y-95121288D01*
X108181161Y-95361785D01*
X108243947Y-95596104D01*
X108336773Y-95820205D01*
X108336776Y-95820212D01*
X108458064Y-96030289D01*
X108458066Y-96030292D01*
X108458067Y-96030293D01*
X108605733Y-96222736D01*
X108605739Y-96222743D01*
X108777256Y-96394260D01*
X108777262Y-96394265D01*
X108969711Y-96541936D01*
X109179788Y-96663224D01*
X109403900Y-96756054D01*
X109638211Y-96818838D01*
X109818586Y-96842584D01*
X109878711Y-96850500D01*
X109878712Y-96850500D01*
X110121289Y-96850500D01*
X110169388Y-96844167D01*
X110361789Y-96818838D01*
X110596100Y-96756054D01*
X110820212Y-96663224D01*
X111030289Y-96541936D01*
X111222738Y-96394265D01*
X111394265Y-96222738D01*
X111541936Y-96030289D01*
X111663224Y-95820212D01*
X111756054Y-95596100D01*
X111818838Y-95361789D01*
X111850500Y-95121288D01*
X111850500Y-94878712D01*
X111818838Y-94638211D01*
X111756054Y-94403900D01*
X111663224Y-94179788D01*
X111541936Y-93969711D01*
X111471294Y-93877648D01*
X138399500Y-93877648D01*
X138399500Y-94082351D01*
X138431522Y-94284534D01*
X138494781Y-94479223D01*
X138587715Y-94661613D01*
X138708028Y-94827213D01*
X138852786Y-94971971D01*
X139007749Y-95084556D01*
X139018390Y-95092287D01*
X139134607Y-95151503D01*
X139200776Y-95185218D01*
X139200778Y-95185218D01*
X139200781Y-95185220D01*
X139305137Y-95219127D01*
X139395465Y-95248477D01*
X139496557Y-95264488D01*
X139597648Y-95280500D01*
X139597649Y-95280500D01*
X139802351Y-95280500D01*
X139802352Y-95280500D01*
X140004534Y-95248477D01*
X140199219Y-95185220D01*
X140381610Y-95092287D01*
X140474590Y-95024732D01*
X140547213Y-94971971D01*
X140547215Y-94971968D01*
X140547219Y-94971966D01*
X140691966Y-94827219D01*
X140691968Y-94827215D01*
X140691971Y-94827213D01*
X140744732Y-94754590D01*
X140812287Y-94661610D01*
X140905220Y-94479219D01*
X140968477Y-94284534D01*
X141000500Y-94082352D01*
X141000500Y-93877648D01*
X153639500Y-93877648D01*
X153639500Y-94082351D01*
X153671522Y-94284534D01*
X153734781Y-94479223D01*
X153827715Y-94661613D01*
X153948028Y-94827213D01*
X154092786Y-94971971D01*
X154247749Y-95084556D01*
X154258390Y-95092287D01*
X154374607Y-95151503D01*
X154440776Y-95185218D01*
X154440778Y-95185218D01*
X154440781Y-95185220D01*
X154545137Y-95219127D01*
X154635465Y-95248477D01*
X154736557Y-95264488D01*
X154837648Y-95280500D01*
X154837649Y-95280500D01*
X155042351Y-95280500D01*
X155042352Y-95280500D01*
X155244534Y-95248477D01*
X155439219Y-95185220D01*
X155621610Y-95092287D01*
X155714590Y-95024732D01*
X155787213Y-94971971D01*
X155787215Y-94971968D01*
X155787219Y-94971966D01*
X155880474Y-94878711D01*
X163149500Y-94878711D01*
X163149500Y-95121288D01*
X163181161Y-95361785D01*
X163243947Y-95596104D01*
X163336773Y-95820205D01*
X163336776Y-95820212D01*
X163458064Y-96030289D01*
X163458066Y-96030292D01*
X163458067Y-96030293D01*
X163605733Y-96222736D01*
X163605739Y-96222743D01*
X163777256Y-96394260D01*
X163777262Y-96394265D01*
X163969711Y-96541936D01*
X164179788Y-96663224D01*
X164403900Y-96756054D01*
X164638211Y-96818838D01*
X164818586Y-96842584D01*
X164878711Y-96850500D01*
X164878712Y-96850500D01*
X165121289Y-96850500D01*
X165169388Y-96844167D01*
X165361789Y-96818838D01*
X165596100Y-96756054D01*
X165820212Y-96663224D01*
X166030289Y-96541936D01*
X166222738Y-96394265D01*
X166394265Y-96222738D01*
X166541936Y-96030289D01*
X166663224Y-95820212D01*
X166756054Y-95596100D01*
X166818838Y-95361789D01*
X166850500Y-95121288D01*
X166850500Y-94878712D01*
X166818838Y-94638211D01*
X166756054Y-94403900D01*
X166663224Y-94179788D01*
X166541936Y-93969711D01*
X166471294Y-93877648D01*
X173959500Y-93877648D01*
X173959500Y-94082351D01*
X173991522Y-94284534D01*
X174054781Y-94479223D01*
X174147715Y-94661613D01*
X174268028Y-94827213D01*
X174412786Y-94971971D01*
X174567749Y-95084556D01*
X174578390Y-95092287D01*
X174694607Y-95151503D01*
X174760776Y-95185218D01*
X174760778Y-95185218D01*
X174760781Y-95185220D01*
X174865137Y-95219127D01*
X174955465Y-95248477D01*
X175056557Y-95264488D01*
X175157648Y-95280500D01*
X175157649Y-95280500D01*
X175362351Y-95280500D01*
X175362352Y-95280500D01*
X175564534Y-95248477D01*
X175759219Y-95185220D01*
X175941610Y-95092287D01*
X176034590Y-95024732D01*
X176107213Y-94971971D01*
X176107215Y-94971968D01*
X176107219Y-94971966D01*
X176251966Y-94827219D01*
X176251968Y-94827215D01*
X176251971Y-94827213D01*
X176304732Y-94754590D01*
X176372287Y-94661610D01*
X176465220Y-94479219D01*
X176528477Y-94284534D01*
X176560500Y-94082352D01*
X176560500Y-93877648D01*
X176528477Y-93675466D01*
X176465220Y-93480781D01*
X176465218Y-93480778D01*
X176465218Y-93480776D01*
X176391846Y-93336777D01*
X176372287Y-93298390D01*
X176364556Y-93287749D01*
X176251971Y-93132786D01*
X176107213Y-92988028D01*
X175941613Y-92867715D01*
X175941612Y-92867714D01*
X175941610Y-92867713D01*
X175884653Y-92838691D01*
X175759223Y-92774781D01*
X175564534Y-92711522D01*
X175389995Y-92683878D01*
X175362352Y-92679500D01*
X175157648Y-92679500D01*
X175133329Y-92683351D01*
X174955465Y-92711522D01*
X174760776Y-92774781D01*
X174578386Y-92867715D01*
X174412786Y-92988028D01*
X174268028Y-93132786D01*
X174147715Y-93298386D01*
X174054781Y-93480776D01*
X173991522Y-93675465D01*
X173959500Y-93877648D01*
X166471294Y-93877648D01*
X166394265Y-93777262D01*
X166394260Y-93777256D01*
X166222743Y-93605739D01*
X166222736Y-93605733D01*
X166030293Y-93458067D01*
X166030292Y-93458066D01*
X166030289Y-93458064D01*
X165820212Y-93336776D01*
X165820205Y-93336773D01*
X165596104Y-93243947D01*
X165361785Y-93181161D01*
X165121289Y-93149500D01*
X165121288Y-93149500D01*
X164878712Y-93149500D01*
X164878711Y-93149500D01*
X164638214Y-93181161D01*
X164403895Y-93243947D01*
X164179794Y-93336773D01*
X164179785Y-93336777D01*
X163969706Y-93458067D01*
X163777263Y-93605733D01*
X163777256Y-93605739D01*
X163605739Y-93777256D01*
X163605733Y-93777263D01*
X163458067Y-93969706D01*
X163336777Y-94179785D01*
X163336773Y-94179794D01*
X163243947Y-94403895D01*
X163181161Y-94638214D01*
X163149500Y-94878711D01*
X155880474Y-94878711D01*
X155931966Y-94827219D01*
X156052287Y-94661610D01*
X156145220Y-94479219D01*
X156208477Y-94284534D01*
X156240500Y-94082352D01*
X156240500Y-93877648D01*
X156208477Y-93675466D01*
X156145220Y-93480781D01*
X156145218Y-93480778D01*
X156145218Y-93480776D01*
X156071846Y-93336777D01*
X156052287Y-93298390D01*
X156044556Y-93287749D01*
X155931971Y-93132786D01*
X155787213Y-92988028D01*
X155621613Y-92867715D01*
X155621612Y-92867714D01*
X155621610Y-92867713D01*
X155564653Y-92838691D01*
X155439223Y-92774781D01*
X155244534Y-92711522D01*
X155069995Y-92683878D01*
X155042352Y-92679500D01*
X154837648Y-92679500D01*
X154813329Y-92683351D01*
X154635465Y-92711522D01*
X154440776Y-92774781D01*
X154258386Y-92867715D01*
X154092786Y-92988028D01*
X153948028Y-93132786D01*
X153827715Y-93298386D01*
X153734781Y-93480776D01*
X153671522Y-93675465D01*
X153639500Y-93877648D01*
X141000500Y-93877648D01*
X140968477Y-93675466D01*
X140905220Y-93480781D01*
X140905218Y-93480778D01*
X140905218Y-93480776D01*
X140831846Y-93336777D01*
X140812287Y-93298390D01*
X140804556Y-93287749D01*
X140691971Y-93132786D01*
X140547213Y-92988028D01*
X140381613Y-92867715D01*
X140381612Y-92867714D01*
X140381610Y-92867713D01*
X140324653Y-92838691D01*
X140199223Y-92774781D01*
X140004534Y-92711522D01*
X139829995Y-92683878D01*
X139802352Y-92679500D01*
X139597648Y-92679500D01*
X139573329Y-92683351D01*
X139395465Y-92711522D01*
X139200776Y-92774781D01*
X139018386Y-92867715D01*
X138852786Y-92988028D01*
X138708028Y-93132786D01*
X138587715Y-93298386D01*
X138494781Y-93480776D01*
X138431522Y-93675465D01*
X138399500Y-93877648D01*
X111471294Y-93877648D01*
X111394265Y-93777262D01*
X111394260Y-93777256D01*
X111222743Y-93605739D01*
X111222736Y-93605733D01*
X111030293Y-93458067D01*
X111030292Y-93458066D01*
X111030289Y-93458064D01*
X110820212Y-93336776D01*
X110820205Y-93336773D01*
X110596104Y-93243947D01*
X110361785Y-93181161D01*
X110121289Y-93149500D01*
X110121288Y-93149500D01*
X109878712Y-93149500D01*
X109878711Y-93149500D01*
X109638214Y-93181161D01*
X109403895Y-93243947D01*
X109179794Y-93336773D01*
X109179785Y-93336777D01*
X108969706Y-93458067D01*
X108777263Y-93605733D01*
X108777256Y-93605739D01*
X108605739Y-93777256D01*
X108605733Y-93777263D01*
X108458067Y-93969706D01*
X108336777Y-94179785D01*
X108336773Y-94179794D01*
X108243947Y-94403895D01*
X108181161Y-94638214D01*
X108149500Y-94878711D01*
X100000500Y-94878711D01*
X100000500Y-83717648D01*
X125699500Y-83717648D01*
X125699500Y-83922351D01*
X125731522Y-84124534D01*
X125794781Y-84319223D01*
X125887715Y-84501613D01*
X126008028Y-84667213D01*
X126152786Y-84811971D01*
X126307749Y-84924556D01*
X126318390Y-84932287D01*
X126434607Y-84991503D01*
X126500776Y-85025218D01*
X126500778Y-85025218D01*
X126500781Y-85025220D01*
X126605137Y-85059127D01*
X126695465Y-85088477D01*
X126796557Y-85104488D01*
X126897648Y-85120500D01*
X126897649Y-85120500D01*
X127102351Y-85120500D01*
X127102352Y-85120500D01*
X127304534Y-85088477D01*
X127499219Y-85025220D01*
X127681610Y-84932287D01*
X127774590Y-84864732D01*
X127847213Y-84811971D01*
X127847215Y-84811968D01*
X127847219Y-84811966D01*
X127991966Y-84667219D01*
X127991968Y-84667215D01*
X127991971Y-84667213D01*
X128112284Y-84501614D01*
X128112285Y-84501613D01*
X128112287Y-84501610D01*
X128199515Y-84330414D01*
X128247490Y-84279619D01*
X128315310Y-84262824D01*
X128381445Y-84285361D01*
X128420485Y-84330415D01*
X128507715Y-84501614D01*
X128628028Y-84667213D01*
X128772786Y-84811971D01*
X128927749Y-84924556D01*
X128938390Y-84932287D01*
X129054607Y-84991503D01*
X129120776Y-85025218D01*
X129120778Y-85025218D01*
X129120781Y-85025220D01*
X129225137Y-85059127D01*
X129315465Y-85088477D01*
X129416557Y-85104488D01*
X129517648Y-85120500D01*
X129517649Y-85120500D01*
X129722351Y-85120500D01*
X129722352Y-85120500D01*
X129924534Y-85088477D01*
X130119219Y-85025220D01*
X130301610Y-84932287D01*
X130394590Y-84864732D01*
X130467213Y-84811971D01*
X130467215Y-84811968D01*
X130467219Y-84811966D01*
X130611966Y-84667219D01*
X130611968Y-84667215D01*
X130611971Y-84667213D01*
X130664732Y-84594590D01*
X130732287Y-84501610D01*
X130825220Y-84319219D01*
X130888477Y-84124534D01*
X130920500Y-83922352D01*
X130920500Y-83717648D01*
X133319500Y-83717648D01*
X133319500Y-83922351D01*
X133351522Y-84124534D01*
X133414781Y-84319223D01*
X133507715Y-84501613D01*
X133628028Y-84667213D01*
X133772786Y-84811971D01*
X133927749Y-84924556D01*
X133938390Y-84932287D01*
X134054607Y-84991503D01*
X134120776Y-85025218D01*
X134120778Y-85025218D01*
X134120781Y-85025220D01*
X134225137Y-85059127D01*
X134315465Y-85088477D01*
X134416557Y-85104488D01*
X134517648Y-85120500D01*
X134517649Y-85120500D01*
X134722351Y-85120500D01*
X134722352Y-85120500D01*
X134924534Y-85088477D01*
X135119219Y-85025220D01*
X135301610Y-84932287D01*
X135394590Y-84864732D01*
X135467213Y-84811971D01*
X135467215Y-84811968D01*
X135467219Y-84811966D01*
X135611966Y-84667219D01*
X135611968Y-84667215D01*
X135611971Y-84667213D01*
X135664732Y-84594590D01*
X135732287Y-84501610D01*
X135825220Y-84319219D01*
X135888477Y-84124534D01*
X135920500Y-83922352D01*
X135920500Y-83717648D01*
X138399500Y-83717648D01*
X138399500Y-83922351D01*
X138431522Y-84124534D01*
X138494781Y-84319223D01*
X138587715Y-84501613D01*
X138708028Y-84667213D01*
X138852786Y-84811971D01*
X139007749Y-84924556D01*
X139018390Y-84932287D01*
X139134607Y-84991503D01*
X139200776Y-85025218D01*
X139200778Y-85025218D01*
X139200781Y-85025220D01*
X139305137Y-85059127D01*
X139395465Y-85088477D01*
X139496557Y-85104488D01*
X139597648Y-85120500D01*
X139597649Y-85120500D01*
X139802351Y-85120500D01*
X139802352Y-85120500D01*
X140004534Y-85088477D01*
X140199219Y-85025220D01*
X140381610Y-84932287D01*
X140474590Y-84864732D01*
X140547213Y-84811971D01*
X140547215Y-84811968D01*
X140547219Y-84811966D01*
X140691966Y-84667219D01*
X140691968Y-84667215D01*
X140691971Y-84667213D01*
X140744732Y-84594590D01*
X140812287Y-84501610D01*
X140905220Y-84319219D01*
X140968477Y-84124534D01*
X141000500Y-83922352D01*
X141000500Y-83717648D01*
X140968477Y-83515466D01*
X140905220Y-83320781D01*
X140905218Y-83320778D01*
X140905218Y-83320776D01*
X140871503Y-83254607D01*
X140812287Y-83138390D01*
X140804556Y-83127749D01*
X140691971Y-82972786D01*
X140547213Y-82828028D01*
X140381613Y-82707715D01*
X140381612Y-82707714D01*
X140381610Y-82707713D01*
X140324653Y-82678691D01*
X140199223Y-82614781D01*
X140004534Y-82551522D01*
X139829995Y-82523878D01*
X139802352Y-82519500D01*
X139597648Y-82519500D01*
X139573329Y-82523351D01*
X139395465Y-82551522D01*
X139200776Y-82614781D01*
X139018386Y-82707715D01*
X138852786Y-82828028D01*
X138708028Y-82972786D01*
X138587715Y-83138386D01*
X138494781Y-83320776D01*
X138431522Y-83515465D01*
X138399500Y-83717648D01*
X135920500Y-83717648D01*
X135888477Y-83515466D01*
X135825220Y-83320781D01*
X135825218Y-83320778D01*
X135825218Y-83320776D01*
X135791503Y-83254607D01*
X135732287Y-83138390D01*
X135724556Y-83127749D01*
X135611971Y-82972786D01*
X135467213Y-82828028D01*
X135301613Y-82707715D01*
X135301612Y-82707714D01*
X135301610Y-82707713D01*
X135244653Y-82678691D01*
X135119223Y-82614781D01*
X134924534Y-82551522D01*
X134749995Y-82523878D01*
X134722352Y-82519500D01*
X134517648Y-82519500D01*
X134493329Y-82523351D01*
X134315465Y-82551522D01*
X134120776Y-82614781D01*
X133938386Y-82707715D01*
X133772786Y-82828028D01*
X133628028Y-82972786D01*
X133507715Y-83138386D01*
X133414781Y-83320776D01*
X133351522Y-83515465D01*
X133319500Y-83717648D01*
X130920500Y-83717648D01*
X130888477Y-83515466D01*
X130825220Y-83320781D01*
X130825218Y-83320778D01*
X130825218Y-83320776D01*
X130791503Y-83254607D01*
X130732287Y-83138390D01*
X130724556Y-83127749D01*
X130611971Y-82972786D01*
X130467213Y-82828028D01*
X130301613Y-82707715D01*
X130301612Y-82707714D01*
X130301610Y-82707713D01*
X130244653Y-82678691D01*
X130119223Y-82614781D01*
X129924534Y-82551522D01*
X129749995Y-82523878D01*
X129722352Y-82519500D01*
X129517648Y-82519500D01*
X129493329Y-82523351D01*
X129315465Y-82551522D01*
X129120776Y-82614781D01*
X128938386Y-82707715D01*
X128772786Y-82828028D01*
X128628028Y-82972786D01*
X128507715Y-83138386D01*
X128420485Y-83309584D01*
X128372510Y-83360380D01*
X128304689Y-83377175D01*
X128238554Y-83354637D01*
X128199515Y-83309584D01*
X128186723Y-83284480D01*
X128112287Y-83138390D01*
X128104556Y-83127749D01*
X127991971Y-82972786D01*
X127847213Y-82828028D01*
X127681613Y-82707715D01*
X127681612Y-82707714D01*
X127681610Y-82707713D01*
X127624653Y-82678691D01*
X127499223Y-82614781D01*
X127304534Y-82551522D01*
X127129995Y-82523878D01*
X127102352Y-82519500D01*
X126897648Y-82519500D01*
X126873329Y-82523351D01*
X126695465Y-82551522D01*
X126500776Y-82614781D01*
X126318386Y-82707715D01*
X126152786Y-82828028D01*
X126008028Y-82972786D01*
X125887715Y-83138386D01*
X125794781Y-83320776D01*
X125731522Y-83515465D01*
X125699500Y-83717648D01*
X100000500Y-83717648D01*
X100000500Y-81177648D01*
X118079500Y-81177648D01*
X118079500Y-81382351D01*
X118111522Y-81584534D01*
X118174781Y-81779223D01*
X118267715Y-81961613D01*
X118388028Y-82127213D01*
X118532786Y-82271971D01*
X118687749Y-82384556D01*
X118698390Y-82392287D01*
X118791080Y-82439515D01*
X118880776Y-82485218D01*
X118880778Y-82485218D01*
X118880781Y-82485220D01*
X118985137Y-82519127D01*
X119075465Y-82548477D01*
X119094697Y-82551523D01*
X119277648Y-82580500D01*
X119277649Y-82580500D01*
X119482351Y-82580500D01*
X119482352Y-82580500D01*
X119684534Y-82548477D01*
X119879219Y-82485220D01*
X120061610Y-82392287D01*
X120154590Y-82324732D01*
X120227213Y-82271971D01*
X120227215Y-82271968D01*
X120227219Y-82271966D01*
X120371966Y-82127219D01*
X120371968Y-82127215D01*
X120371971Y-82127213D01*
X120424732Y-82054590D01*
X120492287Y-81961610D01*
X120585220Y-81779219D01*
X120648477Y-81584534D01*
X120680500Y-81382352D01*
X120680500Y-81177648D01*
X153639500Y-81177648D01*
X153639500Y-81382351D01*
X153671522Y-81584534D01*
X153734781Y-81779223D01*
X153827715Y-81961613D01*
X153948028Y-82127213D01*
X154092786Y-82271971D01*
X154247749Y-82384556D01*
X154258390Y-82392287D01*
X154349840Y-82438883D01*
X154351080Y-82439515D01*
X154401876Y-82487490D01*
X154418671Y-82555311D01*
X154396134Y-82621446D01*
X154351080Y-82660485D01*
X154258386Y-82707715D01*
X154092786Y-82828028D01*
X153948028Y-82972786D01*
X153827715Y-83138386D01*
X153734781Y-83320776D01*
X153671522Y-83515465D01*
X153639500Y-83717648D01*
X153639500Y-83922351D01*
X153671522Y-84124534D01*
X153734781Y-84319223D01*
X153827715Y-84501613D01*
X153948028Y-84667213D01*
X154092786Y-84811971D01*
X154247749Y-84924556D01*
X154258390Y-84932287D01*
X154374607Y-84991503D01*
X154440776Y-85025218D01*
X154440778Y-85025218D01*
X154440781Y-85025220D01*
X154545137Y-85059127D01*
X154635465Y-85088477D01*
X154736557Y-85104488D01*
X154837648Y-85120500D01*
X154837649Y-85120500D01*
X155042351Y-85120500D01*
X155042352Y-85120500D01*
X155244534Y-85088477D01*
X155439219Y-85025220D01*
X155621610Y-84932287D01*
X155714590Y-84864732D01*
X155787213Y-84811971D01*
X155787215Y-84811968D01*
X155787219Y-84811966D01*
X155931966Y-84667219D01*
X155931968Y-84667215D01*
X155931971Y-84667213D01*
X155984732Y-84594590D01*
X156052287Y-84501610D01*
X156145220Y-84319219D01*
X156208477Y-84124534D01*
X156240500Y-83922352D01*
X156240500Y-83717648D01*
X173959500Y-83717648D01*
X173959500Y-83922351D01*
X173991522Y-84124534D01*
X174054781Y-84319223D01*
X174147715Y-84501613D01*
X174268028Y-84667213D01*
X174412786Y-84811971D01*
X174567749Y-84924556D01*
X174578390Y-84932287D01*
X174694607Y-84991503D01*
X174760776Y-85025218D01*
X174760778Y-85025218D01*
X174760781Y-85025220D01*
X174865137Y-85059127D01*
X174955465Y-85088477D01*
X175056557Y-85104488D01*
X175157648Y-85120500D01*
X175157649Y-85120500D01*
X175362351Y-85120500D01*
X175362352Y-85120500D01*
X175564534Y-85088477D01*
X175759219Y-85025220D01*
X175941610Y-84932287D01*
X176034590Y-84864732D01*
X176107213Y-84811971D01*
X176107215Y-84811968D01*
X176107219Y-84811966D01*
X176251966Y-84667219D01*
X176251968Y-84667215D01*
X176251971Y-84667213D01*
X176304732Y-84594590D01*
X176372287Y-84501610D01*
X176465220Y-84319219D01*
X176528477Y-84124534D01*
X176560500Y-83922352D01*
X176560500Y-83717648D01*
X176528477Y-83515466D01*
X176465220Y-83320781D01*
X176465218Y-83320778D01*
X176465218Y-83320776D01*
X176431503Y-83254607D01*
X176372287Y-83138390D01*
X176364556Y-83127749D01*
X176251971Y-82972786D01*
X176107213Y-82828028D01*
X175941613Y-82707715D01*
X175941612Y-82707714D01*
X175941610Y-82707713D01*
X175884653Y-82678691D01*
X175759223Y-82614781D01*
X175564534Y-82551522D01*
X175389995Y-82523878D01*
X175362352Y-82519500D01*
X175157648Y-82519500D01*
X175133329Y-82523351D01*
X174955465Y-82551522D01*
X174760776Y-82614781D01*
X174578386Y-82707715D01*
X174412786Y-82828028D01*
X174268028Y-82972786D01*
X174147715Y-83138386D01*
X174054781Y-83320776D01*
X173991522Y-83515465D01*
X173959500Y-83717648D01*
X156240500Y-83717648D01*
X156208477Y-83515466D01*
X156145220Y-83320781D01*
X156145218Y-83320778D01*
X156145218Y-83320776D01*
X156111503Y-83254607D01*
X156052287Y-83138390D01*
X156044556Y-83127749D01*
X155931971Y-82972786D01*
X155787213Y-82828028D01*
X155621614Y-82707715D01*
X155615006Y-82704348D01*
X155528917Y-82660483D01*
X155478123Y-82612511D01*
X155461328Y-82544690D01*
X155483865Y-82478555D01*
X155528917Y-82439516D01*
X155621610Y-82392287D01*
X155642770Y-82376913D01*
X155787213Y-82271971D01*
X155787215Y-82271968D01*
X155787219Y-82271966D01*
X155931966Y-82127219D01*
X155931968Y-82127215D01*
X155931971Y-82127213D01*
X155984732Y-82054590D01*
X156052287Y-81961610D01*
X156145220Y-81779219D01*
X156208477Y-81584534D01*
X156240500Y-81382352D01*
X156240500Y-81177648D01*
X156208477Y-80975466D01*
X156145220Y-80780781D01*
X156145218Y-80780778D01*
X156145218Y-80780776D01*
X156111503Y-80714607D01*
X156052287Y-80598390D01*
X156044556Y-80587749D01*
X155931971Y-80432786D01*
X155787213Y-80288028D01*
X155621613Y-80167715D01*
X155621612Y-80167714D01*
X155621610Y-80167713D01*
X155564653Y-80138691D01*
X155439223Y-80074781D01*
X155244534Y-80011522D01*
X155069995Y-79983878D01*
X155042352Y-79979500D01*
X154837648Y-79979500D01*
X154813329Y-79983351D01*
X154635465Y-80011522D01*
X154440776Y-80074781D01*
X154258386Y-80167715D01*
X154092786Y-80288028D01*
X153948028Y-80432786D01*
X153827715Y-80598386D01*
X153734781Y-80780776D01*
X153671522Y-80975465D01*
X153639500Y-81177648D01*
X120680500Y-81177648D01*
X120648477Y-80975466D01*
X120585220Y-80780781D01*
X120585218Y-80780778D01*
X120585218Y-80780776D01*
X120551503Y-80714607D01*
X120492287Y-80598390D01*
X120484556Y-80587749D01*
X120371971Y-80432786D01*
X120227213Y-80288028D01*
X120061613Y-80167715D01*
X120061612Y-80167714D01*
X120061610Y-80167713D01*
X120004653Y-80138691D01*
X119879223Y-80074781D01*
X119684534Y-80011522D01*
X119509995Y-79983878D01*
X119482352Y-79979500D01*
X119277648Y-79979500D01*
X119253329Y-79983351D01*
X119075465Y-80011522D01*
X118880776Y-80074781D01*
X118698386Y-80167715D01*
X118532786Y-80288028D01*
X118388028Y-80432786D01*
X118267715Y-80598386D01*
X118174781Y-80780776D01*
X118111522Y-80975465D01*
X118079500Y-81177648D01*
X100000500Y-81177648D01*
X100000500Y-78637682D01*
X130860000Y-78637682D01*
X130860000Y-78842317D01*
X130892009Y-79044417D01*
X130955244Y-79239031D01*
X131048141Y-79421350D01*
X131048147Y-79421359D01*
X131080523Y-79465921D01*
X131080524Y-79465922D01*
X131760000Y-78786446D01*
X131760000Y-78792661D01*
X131787259Y-78894394D01*
X131839920Y-78985606D01*
X131914394Y-79060080D01*
X132005606Y-79112741D01*
X132107339Y-79140000D01*
X132113553Y-79140000D01*
X131434076Y-79819474D01*
X131478650Y-79851859D01*
X131660968Y-79944755D01*
X131855582Y-80007990D01*
X132057683Y-80040000D01*
X132262317Y-80040000D01*
X132464417Y-80007990D01*
X132659031Y-79944755D01*
X132841349Y-79851859D01*
X132885921Y-79819474D01*
X132206447Y-79140000D01*
X132212661Y-79140000D01*
X132314394Y-79112741D01*
X132405606Y-79060080D01*
X132480080Y-78985606D01*
X132532741Y-78894394D01*
X132560000Y-78792661D01*
X132560000Y-78786448D01*
X133239474Y-79465922D01*
X133239474Y-79465921D01*
X133271859Y-79421349D01*
X133364755Y-79239031D01*
X133427990Y-79044417D01*
X133460000Y-78842317D01*
X133460000Y-78637682D01*
X133459995Y-78637648D01*
X135859500Y-78637648D01*
X135859500Y-78842351D01*
X135891522Y-79044534D01*
X135954781Y-79239223D01*
X136018691Y-79364653D01*
X136047585Y-79421359D01*
X136047715Y-79421613D01*
X136168028Y-79587213D01*
X136312786Y-79731971D01*
X136433226Y-79819474D01*
X136478390Y-79852287D01*
X136594607Y-79911503D01*
X136660776Y-79945218D01*
X136660778Y-79945218D01*
X136660781Y-79945220D01*
X136765137Y-79979127D01*
X136855465Y-80008477D01*
X136874697Y-80011523D01*
X137057648Y-80040500D01*
X137057649Y-80040500D01*
X137262351Y-80040500D01*
X137262352Y-80040500D01*
X137464534Y-80008477D01*
X137659219Y-79945220D01*
X137841610Y-79852287D01*
X137934590Y-79784732D01*
X138007213Y-79731971D01*
X138007215Y-79731968D01*
X138007219Y-79731966D01*
X138151966Y-79587219D01*
X138151968Y-79587215D01*
X138151971Y-79587213D01*
X138204732Y-79514590D01*
X138272287Y-79421610D01*
X138365220Y-79239219D01*
X138428477Y-79044534D01*
X138460500Y-78842352D01*
X138460500Y-78637648D01*
X138452257Y-78585606D01*
X138428477Y-78435465D01*
X138397458Y-78340000D01*
X138365220Y-78240781D01*
X138365218Y-78240778D01*
X138365218Y-78240776D01*
X138272419Y-78058650D01*
X138272287Y-78058390D01*
X138240092Y-78014077D01*
X138151971Y-77892786D01*
X138007213Y-77748028D01*
X137841613Y-77627715D01*
X137841612Y-77627714D01*
X137841610Y-77627713D01*
X137784653Y-77598691D01*
X137659223Y-77534781D01*
X137464534Y-77471522D01*
X137289995Y-77443878D01*
X137262352Y-77439500D01*
X137057648Y-77439500D01*
X137033329Y-77443351D01*
X136855465Y-77471522D01*
X136660776Y-77534781D01*
X136478386Y-77627715D01*
X136312786Y-77748028D01*
X136168028Y-77892786D01*
X136047715Y-78058386D01*
X135954781Y-78240776D01*
X135891522Y-78435465D01*
X135859500Y-78637648D01*
X133459995Y-78637648D01*
X133427990Y-78435582D01*
X133364755Y-78240968D01*
X133271859Y-78058650D01*
X133239474Y-78014077D01*
X133239474Y-78014076D01*
X132560000Y-78693551D01*
X132560000Y-78687339D01*
X132532741Y-78585606D01*
X132480080Y-78494394D01*
X132405606Y-78419920D01*
X132314394Y-78367259D01*
X132212661Y-78340000D01*
X132206446Y-78340000D01*
X132885922Y-77660524D01*
X132885921Y-77660523D01*
X132841359Y-77628147D01*
X132841350Y-77628141D01*
X132659031Y-77535244D01*
X132464417Y-77472009D01*
X132262317Y-77440000D01*
X132057683Y-77440000D01*
X131855582Y-77472009D01*
X131660968Y-77535244D01*
X131478644Y-77628143D01*
X131434077Y-77660523D01*
X131434077Y-77660524D01*
X132113554Y-78340000D01*
X132107339Y-78340000D01*
X132005606Y-78367259D01*
X131914394Y-78419920D01*
X131839920Y-78494394D01*
X131787259Y-78585606D01*
X131760000Y-78687339D01*
X131760000Y-78693553D01*
X131080524Y-78014077D01*
X131080523Y-78014077D01*
X131048143Y-78058644D01*
X130955244Y-78240968D01*
X130892009Y-78435582D01*
X130860000Y-78637682D01*
X100000500Y-78637682D01*
X100000500Y-73557648D01*
X125699500Y-73557648D01*
X125699500Y-73762351D01*
X125731522Y-73964534D01*
X125794781Y-74159223D01*
X125887715Y-74341613D01*
X126008028Y-74507213D01*
X126152786Y-74651971D01*
X126307749Y-74764556D01*
X126318390Y-74772287D01*
X126434607Y-74831503D01*
X126500776Y-74865218D01*
X126500778Y-74865218D01*
X126500781Y-74865220D01*
X126605137Y-74899127D01*
X126695465Y-74928477D01*
X126796557Y-74944488D01*
X126897648Y-74960500D01*
X126897649Y-74960500D01*
X127102351Y-74960500D01*
X127102352Y-74960500D01*
X127304534Y-74928477D01*
X127499219Y-74865220D01*
X127681610Y-74772287D01*
X127774590Y-74704732D01*
X127847213Y-74651971D01*
X127847215Y-74651968D01*
X127847219Y-74651966D01*
X127991966Y-74507219D01*
X127991968Y-74507215D01*
X127991971Y-74507213D01*
X128044732Y-74434590D01*
X128112287Y-74341610D01*
X128205220Y-74159219D01*
X128268477Y-73964534D01*
X128300500Y-73762352D01*
X128300500Y-73557648D01*
X128268477Y-73355466D01*
X128205220Y-73160781D01*
X128205218Y-73160778D01*
X128205218Y-73160776D01*
X128171503Y-73094607D01*
X128112287Y-72978390D01*
X128104556Y-72967749D01*
X127991971Y-72812786D01*
X127847213Y-72668028D01*
X127681613Y-72547715D01*
X127681612Y-72547714D01*
X127681610Y-72547713D01*
X127624653Y-72518691D01*
X127499223Y-72454781D01*
X127304534Y-72391522D01*
X127129995Y-72363878D01*
X127102352Y-72359500D01*
X126897648Y-72359500D01*
X126873329Y-72363351D01*
X126695465Y-72391522D01*
X126500776Y-72454781D01*
X126318386Y-72547715D01*
X126152786Y-72668028D01*
X126008028Y-72812786D01*
X125887715Y-72978386D01*
X125794781Y-73160776D01*
X125731522Y-73355465D01*
X125699500Y-73557648D01*
X100000500Y-73557648D01*
X100000500Y-71017648D01*
X118079500Y-71017648D01*
X118079500Y-71222351D01*
X118111522Y-71424534D01*
X118174781Y-71619223D01*
X118267715Y-71801613D01*
X118388028Y-71967213D01*
X118532786Y-72111971D01*
X118687749Y-72224556D01*
X118698390Y-72232287D01*
X118814607Y-72291503D01*
X118880776Y-72325218D01*
X118880778Y-72325218D01*
X118880781Y-72325220D01*
X118985137Y-72359127D01*
X119075465Y-72388477D01*
X119094697Y-72391523D01*
X119277648Y-72420500D01*
X119277649Y-72420500D01*
X119482351Y-72420500D01*
X119482352Y-72420500D01*
X119684534Y-72388477D01*
X119879219Y-72325220D01*
X120061610Y-72232287D01*
X120154590Y-72164732D01*
X120227213Y-72111971D01*
X120227215Y-72111968D01*
X120227219Y-72111966D01*
X120371966Y-71967219D01*
X120371968Y-71967215D01*
X120371971Y-71967213D01*
X120424732Y-71894590D01*
X120492287Y-71801610D01*
X120585220Y-71619219D01*
X120648477Y-71424534D01*
X120680500Y-71222352D01*
X120680500Y-71017648D01*
X153639500Y-71017648D01*
X153639500Y-71222351D01*
X153671522Y-71424534D01*
X153734781Y-71619223D01*
X153827715Y-71801613D01*
X153948028Y-71967213D01*
X154092786Y-72111971D01*
X154247749Y-72224556D01*
X154258390Y-72232287D01*
X154374607Y-72291503D01*
X154440776Y-72325218D01*
X154440778Y-72325218D01*
X154440781Y-72325220D01*
X154545137Y-72359127D01*
X154635465Y-72388477D01*
X154654697Y-72391523D01*
X154837648Y-72420500D01*
X154837649Y-72420500D01*
X155042351Y-72420500D01*
X155042352Y-72420500D01*
X155244534Y-72388477D01*
X155439219Y-72325220D01*
X155621610Y-72232287D01*
X155714590Y-72164732D01*
X155787213Y-72111971D01*
X155787215Y-72111968D01*
X155787219Y-72111966D01*
X155931966Y-71967219D01*
X155931968Y-71967215D01*
X155931971Y-71967213D01*
X155984732Y-71894590D01*
X156052287Y-71801610D01*
X156145220Y-71619219D01*
X156208477Y-71424534D01*
X156240500Y-71222352D01*
X156240500Y-71017648D01*
X156208477Y-70815466D01*
X156145220Y-70620781D01*
X156145218Y-70620778D01*
X156145218Y-70620776D01*
X156111503Y-70554607D01*
X156052287Y-70438390D01*
X156044556Y-70427749D01*
X155931971Y-70272786D01*
X155787213Y-70128028D01*
X155621613Y-70007715D01*
X155621612Y-70007714D01*
X155621610Y-70007713D01*
X155564653Y-69978691D01*
X155439223Y-69914781D01*
X155244534Y-69851522D01*
X155069995Y-69823878D01*
X155042352Y-69819500D01*
X154837648Y-69819500D01*
X154813329Y-69823351D01*
X154635465Y-69851522D01*
X154440776Y-69914781D01*
X154258386Y-70007715D01*
X154092786Y-70128028D01*
X153948028Y-70272786D01*
X153827715Y-70438386D01*
X153734781Y-70620776D01*
X153671522Y-70815465D01*
X153639500Y-71017648D01*
X120680500Y-71017648D01*
X120648477Y-70815466D01*
X120585220Y-70620781D01*
X120585218Y-70620778D01*
X120585218Y-70620776D01*
X120551503Y-70554607D01*
X120492287Y-70438390D01*
X120484556Y-70427749D01*
X120371971Y-70272786D01*
X120227213Y-70128028D01*
X120061613Y-70007715D01*
X120061612Y-70007714D01*
X120061610Y-70007713D01*
X120004653Y-69978691D01*
X119879223Y-69914781D01*
X119684534Y-69851522D01*
X119509995Y-69823878D01*
X119482352Y-69819500D01*
X119277648Y-69819500D01*
X119253329Y-69823351D01*
X119075465Y-69851522D01*
X118880776Y-69914781D01*
X118698386Y-70007715D01*
X118532786Y-70128028D01*
X118388028Y-70272786D01*
X118267715Y-70438386D01*
X118174781Y-70620776D01*
X118111522Y-70815465D01*
X118079500Y-71017648D01*
X100000500Y-71017648D01*
X100000500Y-64878711D01*
X108149500Y-64878711D01*
X108149500Y-65121288D01*
X108181161Y-65361785D01*
X108243947Y-65596104D01*
X108301673Y-65735466D01*
X108336776Y-65820212D01*
X108458064Y-66030289D01*
X108458066Y-66030292D01*
X108458067Y-66030293D01*
X108605733Y-66222736D01*
X108605739Y-66222743D01*
X108777256Y-66394260D01*
X108777262Y-66394265D01*
X108969711Y-66541936D01*
X109179788Y-66663224D01*
X109403900Y-66756054D01*
X109638211Y-66818838D01*
X109818586Y-66842584D01*
X109878711Y-66850500D01*
X109878712Y-66850500D01*
X110121289Y-66850500D01*
X110169388Y-66844167D01*
X110361789Y-66818838D01*
X110596100Y-66756054D01*
X110820212Y-66663224D01*
X111030289Y-66541936D01*
X111222738Y-66394265D01*
X111394265Y-66222738D01*
X111541936Y-66030289D01*
X111595422Y-65937648D01*
X118079500Y-65937648D01*
X118079500Y-66142351D01*
X118111522Y-66344534D01*
X118174781Y-66539223D01*
X118267715Y-66721613D01*
X118388028Y-66887213D01*
X118532786Y-67031971D01*
X118687749Y-67144556D01*
X118698390Y-67152287D01*
X118787212Y-67197544D01*
X118880776Y-67245218D01*
X118880778Y-67245218D01*
X118880781Y-67245220D01*
X118985137Y-67279127D01*
X119075465Y-67308477D01*
X119176557Y-67324488D01*
X119277648Y-67340500D01*
X119277649Y-67340500D01*
X119482351Y-67340500D01*
X119482352Y-67340500D01*
X119684534Y-67308477D01*
X119879219Y-67245220D01*
X120061610Y-67152287D01*
X120157901Y-67082328D01*
X120227213Y-67031971D01*
X120227215Y-67031968D01*
X120227219Y-67031966D01*
X120371966Y-66887219D01*
X120371968Y-66887215D01*
X120371971Y-66887213D01*
X120467262Y-66756054D01*
X120492287Y-66721610D01*
X120585220Y-66539219D01*
X120648477Y-66344534D01*
X120680500Y-66142352D01*
X120680500Y-65937648D01*
X120648477Y-65735466D01*
X120585220Y-65540781D01*
X120585218Y-65540778D01*
X120585218Y-65540776D01*
X120551503Y-65474607D01*
X120492287Y-65358390D01*
X120484556Y-65347749D01*
X120371971Y-65192786D01*
X120227213Y-65048028D01*
X120061611Y-64927713D01*
X119968369Y-64880203D01*
X119917574Y-64832229D01*
X119900779Y-64764407D01*
X119923317Y-64698273D01*
X119968371Y-64659234D01*
X120061347Y-64611861D01*
X120226894Y-64491582D01*
X120226895Y-64491582D01*
X120371582Y-64346895D01*
X120371582Y-64346894D01*
X120491859Y-64181349D01*
X120584755Y-63999029D01*
X120647990Y-63804413D01*
X120656609Y-63750000D01*
X119695686Y-63750000D01*
X119700080Y-63745606D01*
X119752741Y-63654394D01*
X119780000Y-63552661D01*
X119780000Y-63447339D01*
X119752741Y-63345606D01*
X119700080Y-63254394D01*
X119695686Y-63250000D01*
X120656609Y-63250000D01*
X120647990Y-63195586D01*
X120584755Y-63000970D01*
X120491857Y-62818647D01*
X120421417Y-62721694D01*
X120421415Y-62721692D01*
X120371583Y-62653105D01*
X120370613Y-62652135D01*
X128239500Y-62652135D01*
X128239500Y-64347870D01*
X128239501Y-64347876D01*
X128245908Y-64407483D01*
X128296202Y-64542328D01*
X128296206Y-64542335D01*
X128382452Y-64657544D01*
X128382453Y-64657544D01*
X128382454Y-64657546D01*
X128384709Y-64659234D01*
X128400071Y-64670734D01*
X128441941Y-64726668D01*
X128446925Y-64796360D01*
X128413439Y-64857683D01*
X128400071Y-64869266D01*
X128382452Y-64882455D01*
X128296206Y-64997664D01*
X128296202Y-64997671D01*
X128245908Y-65132517D01*
X128239501Y-65192116D01*
X128239501Y-65192123D01*
X128239500Y-65192135D01*
X128239500Y-66887870D01*
X128239501Y-66887876D01*
X128245908Y-66947483D01*
X128296202Y-67082328D01*
X128296206Y-67082335D01*
X128382452Y-67197544D01*
X128382455Y-67197547D01*
X128497664Y-67283793D01*
X128497671Y-67283797D01*
X128632517Y-67334091D01*
X128632516Y-67334091D01*
X128639444Y-67334835D01*
X128692127Y-67340500D01*
X130387872Y-67340499D01*
X130447483Y-67334091D01*
X130582331Y-67283796D01*
X130697546Y-67197546D01*
X130783796Y-67082331D01*
X130834091Y-66947483D01*
X130840500Y-66887873D01*
X130840499Y-65192128D01*
X130834091Y-65132517D01*
X130783796Y-64997669D01*
X130783795Y-64997668D01*
X130783793Y-64997664D01*
X130697547Y-64882455D01*
X130697546Y-64882454D01*
X130692546Y-64878711D01*
X188149500Y-64878711D01*
X188149500Y-65121288D01*
X188181161Y-65361785D01*
X188243947Y-65596104D01*
X188301673Y-65735466D01*
X188336776Y-65820212D01*
X188458064Y-66030289D01*
X188458066Y-66030292D01*
X188458067Y-66030293D01*
X188605733Y-66222736D01*
X188605739Y-66222743D01*
X188777256Y-66394260D01*
X188777262Y-66394265D01*
X188969711Y-66541936D01*
X189179788Y-66663224D01*
X189403900Y-66756054D01*
X189638211Y-66818838D01*
X189818586Y-66842584D01*
X189878711Y-66850500D01*
X189878712Y-66850500D01*
X190121289Y-66850500D01*
X190169388Y-66844167D01*
X190361789Y-66818838D01*
X190596100Y-66756054D01*
X190820212Y-66663224D01*
X191030289Y-66541936D01*
X191222738Y-66394265D01*
X191394265Y-66222738D01*
X191541936Y-66030289D01*
X191663224Y-65820212D01*
X191756054Y-65596100D01*
X191818838Y-65361789D01*
X191850500Y-65121288D01*
X191850500Y-64878712D01*
X191849256Y-64869266D01*
X191836850Y-64775029D01*
X191818838Y-64638211D01*
X191756054Y-64403900D01*
X191663224Y-64179788D01*
X191541936Y-63969711D01*
X191427120Y-63820080D01*
X191394266Y-63777263D01*
X191394260Y-63777256D01*
X191222743Y-63605739D01*
X191222736Y-63605733D01*
X191030293Y-63458067D01*
X191030292Y-63458066D01*
X191030289Y-63458064D01*
X190820212Y-63336776D01*
X190820205Y-63336773D01*
X190596104Y-63243947D01*
X190478944Y-63212554D01*
X190361789Y-63181162D01*
X190361788Y-63181161D01*
X190361785Y-63181161D01*
X190121289Y-63149500D01*
X190121288Y-63149500D01*
X189878712Y-63149500D01*
X189878711Y-63149500D01*
X189638214Y-63181161D01*
X189403895Y-63243947D01*
X189179794Y-63336773D01*
X189179785Y-63336777D01*
X188969706Y-63458067D01*
X188777263Y-63605733D01*
X188777256Y-63605739D01*
X188605739Y-63777256D01*
X188605733Y-63777263D01*
X188458067Y-63969706D01*
X188336777Y-64179785D01*
X188336773Y-64179794D01*
X188243947Y-64403895D01*
X188181161Y-64638214D01*
X188149500Y-64878711D01*
X130692546Y-64878711D01*
X130679930Y-64869267D01*
X130638058Y-64813334D01*
X130633074Y-64743642D01*
X130666558Y-64682319D01*
X130679930Y-64670733D01*
X130697546Y-64657546D01*
X130783796Y-64542331D01*
X130834091Y-64407483D01*
X130840500Y-64347873D01*
X130840499Y-63397648D01*
X146099500Y-63397648D01*
X146099500Y-63602352D01*
X146103878Y-63629995D01*
X146131522Y-63804534D01*
X146194781Y-63999223D01*
X146258691Y-64124653D01*
X146287585Y-64181359D01*
X146287715Y-64181613D01*
X146408028Y-64347213D01*
X146552786Y-64491971D01*
X146673226Y-64579474D01*
X146718390Y-64612287D01*
X146807212Y-64657544D01*
X146900776Y-64705218D01*
X146900778Y-64705218D01*
X146900781Y-64705220D01*
X147005137Y-64739127D01*
X147095465Y-64768477D01*
X147196557Y-64784488D01*
X147297648Y-64800500D01*
X147297649Y-64800500D01*
X147502351Y-64800500D01*
X147502352Y-64800500D01*
X147704534Y-64768477D01*
X147899219Y-64705220D01*
X148081610Y-64612287D01*
X148177901Y-64542328D01*
X148247213Y-64491971D01*
X148247215Y-64491968D01*
X148247219Y-64491966D01*
X148391966Y-64347219D01*
X148391968Y-64347215D01*
X148391971Y-64347213D01*
X148444732Y-64274590D01*
X148512287Y-64181610D01*
X148605220Y-63999219D01*
X148668477Y-63804534D01*
X148700500Y-63602352D01*
X148700500Y-63397682D01*
X151100000Y-63397682D01*
X151100000Y-63602317D01*
X151132009Y-63804417D01*
X151195244Y-63999031D01*
X151288141Y-64181350D01*
X151288147Y-64181359D01*
X151320523Y-64225921D01*
X151320524Y-64225922D01*
X152000000Y-63546446D01*
X152000000Y-63552661D01*
X152027259Y-63654394D01*
X152079920Y-63745606D01*
X152154394Y-63820080D01*
X152245606Y-63872741D01*
X152347339Y-63900000D01*
X152353553Y-63900000D01*
X151674076Y-64579474D01*
X151718650Y-64611859D01*
X151900968Y-64704755D01*
X152095582Y-64767990D01*
X152297683Y-64800000D01*
X152502317Y-64800000D01*
X152704418Y-64767989D01*
X152704421Y-64767989D01*
X152739096Y-64756722D01*
X152739097Y-64756722D01*
X152899031Y-64704755D01*
X153081349Y-64611859D01*
X153125921Y-64579474D01*
X152446447Y-63900000D01*
X152452661Y-63900000D01*
X152554394Y-63872741D01*
X152645606Y-63820080D01*
X152720080Y-63745606D01*
X152772741Y-63654394D01*
X152800000Y-63552661D01*
X152800000Y-63546448D01*
X153479474Y-64225922D01*
X153479474Y-64225921D01*
X153511859Y-64181349D01*
X153604755Y-63999031D01*
X153667990Y-63804417D01*
X153700000Y-63602317D01*
X153700000Y-63397682D01*
X153667990Y-63195582D01*
X153604755Y-63000968D01*
X153511859Y-62818650D01*
X153479474Y-62774077D01*
X153479474Y-62774076D01*
X152800000Y-63453551D01*
X152800000Y-63447339D01*
X152772741Y-63345606D01*
X152720080Y-63254394D01*
X152645606Y-63179920D01*
X152554394Y-63127259D01*
X152452661Y-63100000D01*
X152446446Y-63100000D01*
X153125922Y-62420524D01*
X153125921Y-62420523D01*
X153081359Y-62388147D01*
X153081350Y-62388141D01*
X152899031Y-62295244D01*
X152704417Y-62232009D01*
X152502317Y-62200000D01*
X152297683Y-62200000D01*
X152095582Y-62232009D01*
X151900968Y-62295244D01*
X151718644Y-62388143D01*
X151674077Y-62420523D01*
X151674077Y-62420524D01*
X152353554Y-63100000D01*
X152347339Y-63100000D01*
X152245606Y-63127259D01*
X152154394Y-63179920D01*
X152079920Y-63254394D01*
X152027259Y-63345606D01*
X152000000Y-63447339D01*
X152000000Y-63453553D01*
X151320524Y-62774077D01*
X151320523Y-62774077D01*
X151288143Y-62818644D01*
X151195244Y-63000968D01*
X151132009Y-63195582D01*
X151100000Y-63397682D01*
X148700500Y-63397682D01*
X148700500Y-63397648D01*
X148690858Y-63336773D01*
X148668477Y-63195465D01*
X148605281Y-63000970D01*
X148605220Y-63000781D01*
X148605218Y-63000778D01*
X148605218Y-63000776D01*
X148512419Y-62818650D01*
X148512287Y-62818390D01*
X148480092Y-62774077D01*
X148391971Y-62652786D01*
X148247213Y-62508028D01*
X148081613Y-62387715D01*
X148081612Y-62387714D01*
X148081610Y-62387713D01*
X148024653Y-62358691D01*
X147899223Y-62294781D01*
X147704534Y-62231522D01*
X147529995Y-62203878D01*
X147502352Y-62199500D01*
X147297648Y-62199500D01*
X147273329Y-62203351D01*
X147095465Y-62231522D01*
X146900776Y-62294781D01*
X146718386Y-62387715D01*
X146552786Y-62508028D01*
X146408028Y-62652786D01*
X146287715Y-62818386D01*
X146194781Y-63000776D01*
X146131522Y-63195465D01*
X146100007Y-63394450D01*
X146099500Y-63397648D01*
X130840499Y-63397648D01*
X130840499Y-62652128D01*
X130834091Y-62592517D01*
X130783796Y-62457669D01*
X130783795Y-62457668D01*
X130783793Y-62457664D01*
X130697547Y-62342455D01*
X130697544Y-62342452D01*
X130582335Y-62256206D01*
X130582328Y-62256202D01*
X130447482Y-62205908D01*
X130447483Y-62205908D01*
X130387883Y-62199501D01*
X130387881Y-62199500D01*
X130387873Y-62199500D01*
X130387864Y-62199500D01*
X128692129Y-62199500D01*
X128692123Y-62199501D01*
X128632516Y-62205908D01*
X128497671Y-62256202D01*
X128497664Y-62256206D01*
X128382455Y-62342452D01*
X128382452Y-62342455D01*
X128296206Y-62457664D01*
X128296202Y-62457671D01*
X128245908Y-62592517D01*
X128239501Y-62652116D01*
X128239501Y-62652123D01*
X128239500Y-62652135D01*
X120370613Y-62652135D01*
X120226895Y-62508417D01*
X120061349Y-62388140D01*
X119879029Y-62295244D01*
X119684413Y-62232009D01*
X119630000Y-62223390D01*
X119630000Y-63184314D01*
X119625606Y-63179920D01*
X119534394Y-63127259D01*
X119432661Y-63100000D01*
X119327339Y-63100000D01*
X119225606Y-63127259D01*
X119134394Y-63179920D01*
X119130000Y-63184314D01*
X119130000Y-62223390D01*
X119075586Y-62232009D01*
X118880970Y-62295244D01*
X118698650Y-62388140D01*
X118533105Y-62508417D01*
X118533104Y-62508417D01*
X118388417Y-62653104D01*
X118388417Y-62653105D01*
X118268140Y-62818650D01*
X118175244Y-63000970D01*
X118112009Y-63195586D01*
X118103391Y-63250000D01*
X119064314Y-63250000D01*
X119059920Y-63254394D01*
X119007259Y-63345606D01*
X118980000Y-63447339D01*
X118980000Y-63552661D01*
X119007259Y-63654394D01*
X119059920Y-63745606D01*
X119064314Y-63750000D01*
X118103391Y-63750000D01*
X118112009Y-63804413D01*
X118175244Y-63999029D01*
X118268140Y-64181349D01*
X118388417Y-64346894D01*
X118388417Y-64346895D01*
X118533104Y-64491582D01*
X118698652Y-64611861D01*
X118791628Y-64659234D01*
X118842425Y-64707208D01*
X118859220Y-64775029D01*
X118836683Y-64841164D01*
X118791630Y-64880203D01*
X118698388Y-64927713D01*
X118532786Y-65048028D01*
X118388028Y-65192786D01*
X118267715Y-65358386D01*
X118174781Y-65540776D01*
X118111522Y-65735465D01*
X118079500Y-65937648D01*
X111595422Y-65937648D01*
X111663224Y-65820212D01*
X111756054Y-65596100D01*
X111818838Y-65361789D01*
X111850500Y-65121288D01*
X111850500Y-64878712D01*
X111849256Y-64869266D01*
X111836850Y-64775029D01*
X111818838Y-64638211D01*
X111756054Y-64403900D01*
X111663224Y-64179788D01*
X111541936Y-63969711D01*
X111427120Y-63820080D01*
X111394266Y-63777263D01*
X111394260Y-63777256D01*
X111222743Y-63605739D01*
X111222736Y-63605733D01*
X111030293Y-63458067D01*
X111030292Y-63458066D01*
X111030289Y-63458064D01*
X110820212Y-63336776D01*
X110820205Y-63336773D01*
X110596104Y-63243947D01*
X110478944Y-63212554D01*
X110361789Y-63181162D01*
X110361788Y-63181161D01*
X110361785Y-63181161D01*
X110121289Y-63149500D01*
X110121288Y-63149500D01*
X109878712Y-63149500D01*
X109878711Y-63149500D01*
X109638214Y-63181161D01*
X109403895Y-63243947D01*
X109179794Y-63336773D01*
X109179785Y-63336777D01*
X108969706Y-63458067D01*
X108777263Y-63605733D01*
X108777256Y-63605739D01*
X108605739Y-63777256D01*
X108605733Y-63777263D01*
X108458067Y-63969706D01*
X108336777Y-64179785D01*
X108336773Y-64179794D01*
X108243947Y-64403895D01*
X108181161Y-64638214D01*
X108149500Y-64878711D01*
X100000500Y-64878711D01*
X100000500Y-55049977D01*
X106484500Y-55049977D01*
X106484500Y-55950022D01*
X106523523Y-56146203D01*
X106523526Y-56146215D01*
X106600071Y-56331013D01*
X106600078Y-56331026D01*
X106711208Y-56497343D01*
X106711211Y-56497347D01*
X106852652Y-56638788D01*
X106852656Y-56638791D01*
X107018973Y-56749921D01*
X107018986Y-56749928D01*
X107202625Y-56825993D01*
X107203789Y-56826475D01*
X107347185Y-56854998D01*
X107399977Y-56865499D01*
X107399981Y-56865500D01*
X107399982Y-56865500D01*
X107600019Y-56865500D01*
X107600020Y-56865499D01*
X107796211Y-56826475D01*
X107981020Y-56749925D01*
X108147344Y-56638791D01*
X108162318Y-56623816D01*
X108223639Y-56590331D01*
X108293331Y-56595314D01*
X108337681Y-56623816D01*
X108352264Y-56638399D01*
X108352657Y-56638792D01*
X108518973Y-56749921D01*
X108518986Y-56749928D01*
X108702625Y-56825993D01*
X108703789Y-56826475D01*
X108847185Y-56854998D01*
X108899977Y-56865499D01*
X108899981Y-56865500D01*
X108899982Y-56865500D01*
X109100019Y-56865500D01*
X109100020Y-56865499D01*
X109296211Y-56826475D01*
X109481020Y-56749925D01*
X109647344Y-56638791D01*
X109662671Y-56623463D01*
X109723989Y-56589978D01*
X109793681Y-56594959D01*
X109838034Y-56623462D01*
X109852971Y-56638399D01*
X109852975Y-56638402D01*
X110019210Y-56749477D01*
X110019223Y-56749484D01*
X110203929Y-56825991D01*
X110203936Y-56825993D01*
X110250000Y-56835155D01*
X110250000Y-55766189D01*
X110275884Y-55792073D01*
X110359115Y-55840126D01*
X110451947Y-55865000D01*
X110548053Y-55865000D01*
X110640885Y-55840126D01*
X110724116Y-55792073D01*
X110750000Y-55766189D01*
X110750000Y-56835154D01*
X110796063Y-56825993D01*
X110796070Y-56825991D01*
X110980776Y-56749484D01*
X110980789Y-56749477D01*
X111147023Y-56638403D01*
X111161962Y-56623464D01*
X111223285Y-56589977D01*
X111292977Y-56594960D01*
X111337329Y-56623464D01*
X111352653Y-56638789D01*
X111352656Y-56638791D01*
X111518973Y-56749921D01*
X111518986Y-56749928D01*
X111702625Y-56825993D01*
X111703789Y-56826475D01*
X111847185Y-56854998D01*
X111899977Y-56865499D01*
X111899981Y-56865500D01*
X111899982Y-56865500D01*
X112100019Y-56865500D01*
X112100020Y-56865499D01*
X112296211Y-56826475D01*
X112481020Y-56749925D01*
X112647344Y-56638791D01*
X112662318Y-56623816D01*
X112723639Y-56590331D01*
X112793331Y-56595314D01*
X112837681Y-56623816D01*
X112852264Y-56638399D01*
X112852657Y-56638792D01*
X113018973Y-56749921D01*
X113018986Y-56749928D01*
X113202625Y-56825993D01*
X113203789Y-56826475D01*
X113347185Y-56854998D01*
X113399977Y-56865499D01*
X113399981Y-56865500D01*
X113399982Y-56865500D01*
X113600019Y-56865500D01*
X113600020Y-56865499D01*
X113796211Y-56826475D01*
X113981020Y-56749925D01*
X114147344Y-56638791D01*
X114162318Y-56623816D01*
X114223639Y-56590331D01*
X114293331Y-56595314D01*
X114337681Y-56623816D01*
X114352264Y-56638399D01*
X114352657Y-56638792D01*
X114518973Y-56749921D01*
X114518986Y-56749928D01*
X114702625Y-56825993D01*
X114703789Y-56826475D01*
X114847185Y-56854998D01*
X114899977Y-56865499D01*
X114899981Y-56865500D01*
X114899982Y-56865500D01*
X115100019Y-56865500D01*
X115100020Y-56865499D01*
X115296211Y-56826475D01*
X115481020Y-56749925D01*
X115647344Y-56638791D01*
X115662318Y-56623816D01*
X115723639Y-56590331D01*
X115793331Y-56595314D01*
X115837681Y-56623816D01*
X115852264Y-56638399D01*
X115852657Y-56638792D01*
X116018973Y-56749921D01*
X116018986Y-56749928D01*
X116202625Y-56825993D01*
X116203789Y-56826475D01*
X116347185Y-56854998D01*
X116399977Y-56865499D01*
X116399981Y-56865500D01*
X116399982Y-56865500D01*
X116600019Y-56865500D01*
X116600020Y-56865499D01*
X116796211Y-56826475D01*
X116981020Y-56749925D01*
X117147344Y-56638791D01*
X117162671Y-56623463D01*
X117223989Y-56589978D01*
X117293681Y-56594959D01*
X117338034Y-56623462D01*
X117352971Y-56638399D01*
X117352975Y-56638402D01*
X117519210Y-56749477D01*
X117519223Y-56749484D01*
X117703929Y-56825991D01*
X117703936Y-56825993D01*
X117750000Y-56835155D01*
X117750000Y-55766189D01*
X117775884Y-55792073D01*
X117859115Y-55840126D01*
X117951947Y-55865000D01*
X118048053Y-55865000D01*
X118140885Y-55840126D01*
X118224116Y-55792073D01*
X118250000Y-55766189D01*
X118250000Y-56835155D01*
X118296063Y-56825993D01*
X118296070Y-56825991D01*
X118480776Y-56749484D01*
X118480789Y-56749477D01*
X118647023Y-56638403D01*
X118661962Y-56623464D01*
X118723285Y-56589977D01*
X118792977Y-56594960D01*
X118837329Y-56623464D01*
X118852653Y-56638789D01*
X118852656Y-56638791D01*
X119018973Y-56749921D01*
X119018986Y-56749928D01*
X119202625Y-56825993D01*
X119203789Y-56826475D01*
X119347185Y-56854998D01*
X119399977Y-56865499D01*
X119399981Y-56865500D01*
X119399982Y-56865500D01*
X119600019Y-56865500D01*
X119600020Y-56865499D01*
X119796211Y-56826475D01*
X119981020Y-56749925D01*
X120092751Y-56675268D01*
X120159427Y-56654391D01*
X120226807Y-56672875D01*
X120249322Y-56690690D01*
X120266344Y-56707712D01*
X120415666Y-56799814D01*
X120582203Y-56854999D01*
X120684991Y-56865500D01*
X121315008Y-56865499D01*
X121315016Y-56865498D01*
X121315019Y-56865498D01*
X121388086Y-56858034D01*
X121417797Y-56854999D01*
X121584334Y-56799814D01*
X121733656Y-56707712D01*
X121857712Y-56583656D01*
X121949814Y-56434334D01*
X122004999Y-56267797D01*
X122015500Y-56165009D01*
X122015499Y-55049977D01*
X126484500Y-55049977D01*
X126484500Y-55950022D01*
X126523523Y-56146203D01*
X126523526Y-56146215D01*
X126600071Y-56331013D01*
X126600078Y-56331026D01*
X126711208Y-56497343D01*
X126711211Y-56497347D01*
X126852652Y-56638788D01*
X126852656Y-56638791D01*
X127018973Y-56749921D01*
X127018986Y-56749928D01*
X127202625Y-56825993D01*
X127203789Y-56826475D01*
X127347185Y-56854998D01*
X127399977Y-56865499D01*
X127399981Y-56865500D01*
X127399982Y-56865500D01*
X127600019Y-56865500D01*
X127600020Y-56865499D01*
X127796211Y-56826475D01*
X127981020Y-56749925D01*
X128147344Y-56638791D01*
X128162318Y-56623816D01*
X128223639Y-56590331D01*
X128293331Y-56595314D01*
X128337681Y-56623816D01*
X128352264Y-56638399D01*
X128352657Y-56638792D01*
X128518973Y-56749921D01*
X128518986Y-56749928D01*
X128702625Y-56825993D01*
X128703789Y-56826475D01*
X128847185Y-56854998D01*
X128899977Y-56865499D01*
X128899981Y-56865500D01*
X128899982Y-56865500D01*
X129100019Y-56865500D01*
X129100020Y-56865499D01*
X129296211Y-56826475D01*
X129481020Y-56749925D01*
X129647344Y-56638791D01*
X129662671Y-56623463D01*
X129723989Y-56589978D01*
X129793681Y-56594959D01*
X129838034Y-56623462D01*
X129852971Y-56638399D01*
X129852975Y-56638402D01*
X130019210Y-56749477D01*
X130019223Y-56749484D01*
X130203929Y-56825991D01*
X130203936Y-56825993D01*
X130250000Y-56835155D01*
X130250000Y-55766189D01*
X130275884Y-55792073D01*
X130359115Y-55840126D01*
X130451947Y-55865000D01*
X130548053Y-55865000D01*
X130640885Y-55840126D01*
X130724116Y-55792073D01*
X130750000Y-55766189D01*
X130750000Y-56835155D01*
X130796063Y-56825993D01*
X130796070Y-56825991D01*
X130980776Y-56749484D01*
X130980789Y-56749477D01*
X131147023Y-56638403D01*
X131161962Y-56623464D01*
X131223285Y-56589977D01*
X131292977Y-56594960D01*
X131337329Y-56623464D01*
X131352653Y-56638789D01*
X131352656Y-56638791D01*
X131518973Y-56749921D01*
X131518986Y-56749928D01*
X131702625Y-56825993D01*
X131703789Y-56826475D01*
X131847185Y-56854998D01*
X131899977Y-56865499D01*
X131899981Y-56865500D01*
X131899982Y-56865500D01*
X132100019Y-56865500D01*
X132100020Y-56865499D01*
X132296211Y-56826475D01*
X132481020Y-56749925D01*
X132647344Y-56638791D01*
X132662318Y-56623816D01*
X132723639Y-56590331D01*
X132793331Y-56595314D01*
X132837681Y-56623816D01*
X132852264Y-56638399D01*
X132852657Y-56638792D01*
X133018973Y-56749921D01*
X133018986Y-56749928D01*
X133202625Y-56825993D01*
X133203789Y-56826475D01*
X133347185Y-56854998D01*
X133399977Y-56865499D01*
X133399981Y-56865500D01*
X133399982Y-56865500D01*
X133600019Y-56865500D01*
X133600020Y-56865499D01*
X133796211Y-56826475D01*
X133981020Y-56749925D01*
X134147344Y-56638791D01*
X134162318Y-56623816D01*
X134223639Y-56590331D01*
X134293331Y-56595314D01*
X134337681Y-56623816D01*
X134352264Y-56638399D01*
X134352657Y-56638792D01*
X134518973Y-56749921D01*
X134518986Y-56749928D01*
X134702625Y-56825993D01*
X134703789Y-56826475D01*
X134847185Y-56854998D01*
X134899977Y-56865499D01*
X134899981Y-56865500D01*
X134899982Y-56865500D01*
X135100019Y-56865500D01*
X135100020Y-56865499D01*
X135296211Y-56826475D01*
X135481020Y-56749925D01*
X135647344Y-56638791D01*
X135662318Y-56623816D01*
X135723639Y-56590331D01*
X135793331Y-56595314D01*
X135837681Y-56623816D01*
X135852264Y-56638399D01*
X135852657Y-56638792D01*
X136018973Y-56749921D01*
X136018986Y-56749928D01*
X136202625Y-56825993D01*
X136203789Y-56826475D01*
X136347185Y-56854998D01*
X136399977Y-56865499D01*
X136399981Y-56865500D01*
X136399982Y-56865500D01*
X136600019Y-56865500D01*
X136600020Y-56865499D01*
X136796211Y-56826475D01*
X136981020Y-56749925D01*
X137147344Y-56638791D01*
X137162671Y-56623463D01*
X137223989Y-56589978D01*
X137293681Y-56594959D01*
X137338034Y-56623462D01*
X137352971Y-56638399D01*
X137352975Y-56638402D01*
X137519210Y-56749477D01*
X137519223Y-56749484D01*
X137703929Y-56825991D01*
X137703936Y-56825993D01*
X137750000Y-56835155D01*
X137750000Y-55766189D01*
X137775884Y-55792073D01*
X137859115Y-55840126D01*
X137951947Y-55865000D01*
X138048053Y-55865000D01*
X138140885Y-55840126D01*
X138224116Y-55792073D01*
X138250000Y-55766189D01*
X138250000Y-56835155D01*
X138296063Y-56825993D01*
X138296070Y-56825991D01*
X138480776Y-56749484D01*
X138480789Y-56749477D01*
X138647023Y-56638403D01*
X138661962Y-56623464D01*
X138723285Y-56589977D01*
X138792977Y-56594960D01*
X138837329Y-56623464D01*
X138852653Y-56638789D01*
X138852656Y-56638791D01*
X139018973Y-56749921D01*
X139018986Y-56749928D01*
X139202625Y-56825993D01*
X139203789Y-56826475D01*
X139347185Y-56854998D01*
X139399977Y-56865499D01*
X139399981Y-56865500D01*
X139399982Y-56865500D01*
X139600019Y-56865500D01*
X139600020Y-56865499D01*
X139796211Y-56826475D01*
X139981020Y-56749925D01*
X140092751Y-56675268D01*
X140159427Y-56654391D01*
X140226807Y-56672875D01*
X140249322Y-56690690D01*
X140266344Y-56707712D01*
X140415666Y-56799814D01*
X140582203Y-56854999D01*
X140684991Y-56865500D01*
X141315008Y-56865499D01*
X141315016Y-56865498D01*
X141315019Y-56865498D01*
X141388086Y-56858034D01*
X141417797Y-56854999D01*
X141584334Y-56799814D01*
X141733656Y-56707712D01*
X141857712Y-56583656D01*
X141949814Y-56434334D01*
X142004999Y-56267797D01*
X142015500Y-56165009D01*
X142015499Y-54834992D01*
X142004999Y-54732203D01*
X141949814Y-54565666D01*
X141857712Y-54416344D01*
X141733656Y-54292288D01*
X141584334Y-54200186D01*
X141417797Y-54145001D01*
X141417795Y-54145000D01*
X141315010Y-54134500D01*
X140684998Y-54134500D01*
X140684980Y-54134501D01*
X140582203Y-54145000D01*
X140582200Y-54145001D01*
X140415668Y-54200185D01*
X140415663Y-54200187D01*
X140334789Y-54250071D01*
X140266344Y-54292288D01*
X140266342Y-54292289D01*
X140266337Y-54292293D01*
X140249317Y-54309312D01*
X140187993Y-54342794D01*
X140118301Y-54337807D01*
X140092749Y-54324729D01*
X139981026Y-54250078D01*
X139981013Y-54250071D01*
X139796215Y-54173526D01*
X139796203Y-54173523D01*
X139600022Y-54134500D01*
X139600018Y-54134500D01*
X139399982Y-54134500D01*
X139399977Y-54134500D01*
X139203796Y-54173523D01*
X139203784Y-54173526D01*
X139018986Y-54250071D01*
X139018973Y-54250078D01*
X138852656Y-54361208D01*
X138852652Y-54361211D01*
X138837327Y-54376537D01*
X138776004Y-54410022D01*
X138706312Y-54405038D01*
X138661965Y-54376537D01*
X138647028Y-54361600D01*
X138647024Y-54361597D01*
X138480789Y-54250522D01*
X138480780Y-54250517D01*
X138296065Y-54174006D01*
X138296057Y-54174004D01*
X138250000Y-54164842D01*
X138250000Y-55233811D01*
X138224116Y-55207927D01*
X138140885Y-55159874D01*
X138048053Y-55135000D01*
X137951947Y-55135000D01*
X137859115Y-55159874D01*
X137775884Y-55207927D01*
X137750000Y-55233811D01*
X137750000Y-54164843D01*
X137749999Y-54164842D01*
X137703942Y-54174004D01*
X137703934Y-54174006D01*
X137519219Y-54250517D01*
X137519210Y-54250522D01*
X137352975Y-54361597D01*
X137338032Y-54376540D01*
X137276708Y-54410023D01*
X137207016Y-54405037D01*
X137162670Y-54376535D01*
X137147346Y-54361210D01*
X137147343Y-54361208D01*
X136981026Y-54250078D01*
X136981013Y-54250071D01*
X136796215Y-54173526D01*
X136796203Y-54173523D01*
X136600022Y-54134500D01*
X136600018Y-54134500D01*
X136399982Y-54134500D01*
X136399977Y-54134500D01*
X136203796Y-54173523D01*
X136203784Y-54173526D01*
X136018986Y-54250071D01*
X136018973Y-54250078D01*
X135852656Y-54361208D01*
X135852652Y-54361211D01*
X135837681Y-54376183D01*
X135776358Y-54409668D01*
X135706666Y-54404684D01*
X135662319Y-54376183D01*
X135647347Y-54361211D01*
X135647343Y-54361208D01*
X135481026Y-54250078D01*
X135481013Y-54250071D01*
X135296215Y-54173526D01*
X135296203Y-54173523D01*
X135100022Y-54134500D01*
X135100018Y-54134500D01*
X134899982Y-54134500D01*
X134899977Y-54134500D01*
X134703796Y-54173523D01*
X134703784Y-54173526D01*
X134518986Y-54250071D01*
X134518973Y-54250078D01*
X134352656Y-54361208D01*
X134352652Y-54361211D01*
X134337681Y-54376183D01*
X134276358Y-54409668D01*
X134206666Y-54404684D01*
X134162319Y-54376183D01*
X134147347Y-54361211D01*
X134147343Y-54361208D01*
X133981026Y-54250078D01*
X133981013Y-54250071D01*
X133796215Y-54173526D01*
X133796203Y-54173523D01*
X133600022Y-54134500D01*
X133600018Y-54134500D01*
X133399982Y-54134500D01*
X133399977Y-54134500D01*
X133203796Y-54173523D01*
X133203784Y-54173526D01*
X133018986Y-54250071D01*
X133018973Y-54250078D01*
X132852656Y-54361208D01*
X132852652Y-54361211D01*
X132837681Y-54376183D01*
X132776358Y-54409668D01*
X132706666Y-54404684D01*
X132662319Y-54376183D01*
X132647347Y-54361211D01*
X132647343Y-54361208D01*
X132481026Y-54250078D01*
X132481013Y-54250071D01*
X132296215Y-54173526D01*
X132296203Y-54173523D01*
X132100022Y-54134500D01*
X132100018Y-54134500D01*
X131899982Y-54134500D01*
X131899977Y-54134500D01*
X131703796Y-54173523D01*
X131703784Y-54173526D01*
X131518986Y-54250071D01*
X131518973Y-54250078D01*
X131352656Y-54361208D01*
X131352652Y-54361211D01*
X131337327Y-54376537D01*
X131276004Y-54410022D01*
X131206312Y-54405038D01*
X131161965Y-54376537D01*
X131147028Y-54361600D01*
X131147024Y-54361597D01*
X130980789Y-54250522D01*
X130980780Y-54250517D01*
X130796065Y-54174006D01*
X130796057Y-54174004D01*
X130750000Y-54164842D01*
X130750000Y-55233811D01*
X130724116Y-55207927D01*
X130640885Y-55159874D01*
X130548053Y-55135000D01*
X130451947Y-55135000D01*
X130359115Y-55159874D01*
X130275884Y-55207927D01*
X130250000Y-55233811D01*
X130250000Y-54164843D01*
X130249999Y-54164842D01*
X130203942Y-54174004D01*
X130203934Y-54174006D01*
X130019219Y-54250517D01*
X130019210Y-54250522D01*
X129852975Y-54361597D01*
X129838032Y-54376540D01*
X129776708Y-54410023D01*
X129707016Y-54405037D01*
X129662670Y-54376535D01*
X129647346Y-54361210D01*
X129647343Y-54361208D01*
X129481026Y-54250078D01*
X129481013Y-54250071D01*
X129296215Y-54173526D01*
X129296203Y-54173523D01*
X129100022Y-54134500D01*
X129100018Y-54134500D01*
X128899982Y-54134500D01*
X128899977Y-54134500D01*
X128703796Y-54173523D01*
X128703784Y-54173526D01*
X128518986Y-54250071D01*
X128518973Y-54250078D01*
X128352656Y-54361208D01*
X128352652Y-54361211D01*
X128337681Y-54376183D01*
X128276358Y-54409668D01*
X128206666Y-54404684D01*
X128162319Y-54376183D01*
X128147347Y-54361211D01*
X128147343Y-54361208D01*
X127981026Y-54250078D01*
X127981013Y-54250071D01*
X127796215Y-54173526D01*
X127796203Y-54173523D01*
X127600022Y-54134500D01*
X127600018Y-54134500D01*
X127399982Y-54134500D01*
X127399977Y-54134500D01*
X127203796Y-54173523D01*
X127203784Y-54173526D01*
X127018986Y-54250071D01*
X127018973Y-54250078D01*
X126852656Y-54361208D01*
X126852652Y-54361211D01*
X126711211Y-54502652D01*
X126711208Y-54502656D01*
X126600078Y-54668973D01*
X126600071Y-54668986D01*
X126523526Y-54853784D01*
X126523523Y-54853796D01*
X126484500Y-55049977D01*
X122015499Y-55049977D01*
X122015499Y-54834992D01*
X122004999Y-54732203D01*
X121949814Y-54565666D01*
X121857712Y-54416344D01*
X121733656Y-54292288D01*
X121584334Y-54200186D01*
X121417797Y-54145001D01*
X121417795Y-54145000D01*
X121315010Y-54134500D01*
X120684998Y-54134500D01*
X120684980Y-54134501D01*
X120582203Y-54145000D01*
X120582200Y-54145001D01*
X120415668Y-54200185D01*
X120415663Y-54200187D01*
X120334789Y-54250071D01*
X120266344Y-54292288D01*
X120266342Y-54292289D01*
X120266337Y-54292293D01*
X120249317Y-54309312D01*
X120187993Y-54342794D01*
X120118301Y-54337807D01*
X120092749Y-54324729D01*
X119981026Y-54250078D01*
X119981013Y-54250071D01*
X119796215Y-54173526D01*
X119796203Y-54173523D01*
X119600022Y-54134500D01*
X119600018Y-54134500D01*
X119399982Y-54134500D01*
X119399977Y-54134500D01*
X119203796Y-54173523D01*
X119203784Y-54173526D01*
X119018986Y-54250071D01*
X119018973Y-54250078D01*
X118852656Y-54361208D01*
X118852652Y-54361211D01*
X118837327Y-54376537D01*
X118776004Y-54410022D01*
X118706312Y-54405038D01*
X118661965Y-54376537D01*
X118647028Y-54361600D01*
X118647024Y-54361597D01*
X118480789Y-54250522D01*
X118480780Y-54250517D01*
X118296065Y-54174006D01*
X118296057Y-54174004D01*
X118250000Y-54164842D01*
X118250000Y-55233811D01*
X118224116Y-55207927D01*
X118140885Y-55159874D01*
X118048053Y-55135000D01*
X117951947Y-55135000D01*
X117859115Y-55159874D01*
X117775884Y-55207927D01*
X117750000Y-55233811D01*
X117750000Y-54164843D01*
X117749999Y-54164842D01*
X117703942Y-54174004D01*
X117703934Y-54174006D01*
X117519219Y-54250517D01*
X117519210Y-54250522D01*
X117352975Y-54361597D01*
X117338032Y-54376540D01*
X117276708Y-54410023D01*
X117207016Y-54405037D01*
X117162670Y-54376535D01*
X117147346Y-54361210D01*
X117147343Y-54361208D01*
X116981026Y-54250078D01*
X116981013Y-54250071D01*
X116796215Y-54173526D01*
X116796203Y-54173523D01*
X116600022Y-54134500D01*
X116600018Y-54134500D01*
X116399982Y-54134500D01*
X116399977Y-54134500D01*
X116203796Y-54173523D01*
X116203784Y-54173526D01*
X116018986Y-54250071D01*
X116018973Y-54250078D01*
X115852656Y-54361208D01*
X115852652Y-54361211D01*
X115837681Y-54376183D01*
X115776358Y-54409668D01*
X115706666Y-54404684D01*
X115662319Y-54376183D01*
X115647347Y-54361211D01*
X115647343Y-54361208D01*
X115481026Y-54250078D01*
X115481013Y-54250071D01*
X115296215Y-54173526D01*
X115296203Y-54173523D01*
X115100022Y-54134500D01*
X115100018Y-54134500D01*
X114899982Y-54134500D01*
X114899977Y-54134500D01*
X114703796Y-54173523D01*
X114703784Y-54173526D01*
X114518986Y-54250071D01*
X114518973Y-54250078D01*
X114352656Y-54361208D01*
X114352652Y-54361211D01*
X114337681Y-54376183D01*
X114276358Y-54409668D01*
X114206666Y-54404684D01*
X114162319Y-54376183D01*
X114147347Y-54361211D01*
X114147343Y-54361208D01*
X113981026Y-54250078D01*
X113981013Y-54250071D01*
X113796215Y-54173526D01*
X113796203Y-54173523D01*
X113600022Y-54134500D01*
X113600018Y-54134500D01*
X113399982Y-54134500D01*
X113399977Y-54134500D01*
X113203796Y-54173523D01*
X113203784Y-54173526D01*
X113018986Y-54250071D01*
X113018973Y-54250078D01*
X112852656Y-54361208D01*
X112852652Y-54361211D01*
X112837681Y-54376183D01*
X112776358Y-54409668D01*
X112706666Y-54404684D01*
X112662319Y-54376183D01*
X112647347Y-54361211D01*
X112647343Y-54361208D01*
X112481026Y-54250078D01*
X112481013Y-54250071D01*
X112296215Y-54173526D01*
X112296203Y-54173523D01*
X112100022Y-54134500D01*
X112100018Y-54134500D01*
X111899982Y-54134500D01*
X111899977Y-54134500D01*
X111703796Y-54173523D01*
X111703784Y-54173526D01*
X111518986Y-54250071D01*
X111518973Y-54250078D01*
X111352656Y-54361208D01*
X111352652Y-54361211D01*
X111337327Y-54376537D01*
X111276004Y-54410022D01*
X111206312Y-54405038D01*
X111161965Y-54376537D01*
X111147028Y-54361600D01*
X111147024Y-54361597D01*
X110980789Y-54250522D01*
X110980780Y-54250517D01*
X110796065Y-54174006D01*
X110796057Y-54174004D01*
X110750000Y-54164842D01*
X110750000Y-55233811D01*
X110724116Y-55207927D01*
X110640885Y-55159874D01*
X110548053Y-55135000D01*
X110451947Y-55135000D01*
X110359115Y-55159874D01*
X110275884Y-55207927D01*
X110250000Y-55233811D01*
X110250000Y-54164843D01*
X110249999Y-54164842D01*
X110203942Y-54174004D01*
X110203934Y-54174006D01*
X110019219Y-54250517D01*
X110019210Y-54250522D01*
X109852975Y-54361597D01*
X109838032Y-54376540D01*
X109776708Y-54410023D01*
X109707016Y-54405037D01*
X109662670Y-54376535D01*
X109647346Y-54361210D01*
X109647343Y-54361208D01*
X109481026Y-54250078D01*
X109481013Y-54250071D01*
X109296215Y-54173526D01*
X109296203Y-54173523D01*
X109100022Y-54134500D01*
X109100018Y-54134500D01*
X108899982Y-54134500D01*
X108899977Y-54134500D01*
X108703796Y-54173523D01*
X108703784Y-54173526D01*
X108518986Y-54250071D01*
X108518973Y-54250078D01*
X108352656Y-54361208D01*
X108352652Y-54361211D01*
X108337681Y-54376183D01*
X108276358Y-54409668D01*
X108206666Y-54404684D01*
X108162319Y-54376183D01*
X108147347Y-54361211D01*
X108147343Y-54361208D01*
X107981026Y-54250078D01*
X107981013Y-54250071D01*
X107796215Y-54173526D01*
X107796203Y-54173523D01*
X107600022Y-54134500D01*
X107600018Y-54134500D01*
X107399982Y-54134500D01*
X107399977Y-54134500D01*
X107203796Y-54173523D01*
X107203784Y-54173526D01*
X107018986Y-54250071D01*
X107018973Y-54250078D01*
X106852656Y-54361208D01*
X106852652Y-54361211D01*
X106711211Y-54502652D01*
X106711208Y-54502656D01*
X106600078Y-54668973D01*
X106600071Y-54668986D01*
X106523526Y-54853784D01*
X106523523Y-54853796D01*
X106484500Y-55049977D01*
X100000500Y-55049977D01*
X100000500Y-53924982D01*
X145124500Y-53924982D01*
X145124500Y-56075017D01*
X145135000Y-56177796D01*
X145185774Y-56331020D01*
X145190186Y-56344335D01*
X145282288Y-56493656D01*
X145406344Y-56617712D01*
X145555665Y-56709814D01*
X145722202Y-56764999D01*
X145824990Y-56775500D01*
X145824995Y-56775500D01*
X147975005Y-56775500D01*
X147975010Y-56775500D01*
X148077798Y-56764999D01*
X148244335Y-56709814D01*
X148393656Y-56617712D01*
X148517712Y-56493656D01*
X148609814Y-56344335D01*
X148664999Y-56177798D01*
X148675500Y-56075010D01*
X148675500Y-54883634D01*
X149924500Y-54883634D01*
X149924500Y-55116365D01*
X149924501Y-55116382D01*
X149954865Y-55347024D01*
X149954879Y-55347126D01*
X150008717Y-55548053D01*
X150015120Y-55571947D01*
X150104180Y-55786960D01*
X150104188Y-55786976D01*
X150220553Y-55988524D01*
X150220564Y-55988540D01*
X150362242Y-56173179D01*
X150362248Y-56173186D01*
X150526813Y-56337751D01*
X150526820Y-56337757D01*
X150597677Y-56392127D01*
X150711468Y-56479442D01*
X150711475Y-56479446D01*
X150913023Y-56595811D01*
X150913039Y-56595819D01*
X151128052Y-56684879D01*
X151128054Y-56684879D01*
X151128060Y-56684882D01*
X151352874Y-56745121D01*
X151583628Y-56775500D01*
X151583635Y-56775500D01*
X151816365Y-56775500D01*
X151816372Y-56775500D01*
X152047126Y-56745121D01*
X152271940Y-56684882D01*
X152383222Y-56638788D01*
X152486960Y-56595819D01*
X152486963Y-56595817D01*
X152486969Y-56595815D01*
X152688532Y-56479442D01*
X152873181Y-56337756D01*
X153037756Y-56173181D01*
X153179442Y-55988532D01*
X153295815Y-55786969D01*
X153384882Y-55571940D01*
X153445121Y-55347126D01*
X153475500Y-55116372D01*
X153475500Y-54883634D01*
X154724500Y-54883634D01*
X154724500Y-55116365D01*
X154724501Y-55116382D01*
X154754865Y-55347024D01*
X154754879Y-55347126D01*
X154808717Y-55548053D01*
X154815120Y-55571947D01*
X154904180Y-55786960D01*
X154904188Y-55786976D01*
X155020553Y-55988524D01*
X155020564Y-55988540D01*
X155162242Y-56173179D01*
X155162248Y-56173186D01*
X155326813Y-56337751D01*
X155326820Y-56337757D01*
X155397677Y-56392127D01*
X155511468Y-56479442D01*
X155511475Y-56479446D01*
X155713023Y-56595811D01*
X155713039Y-56595819D01*
X155928052Y-56684879D01*
X155928054Y-56684879D01*
X155928060Y-56684882D01*
X156152874Y-56745121D01*
X156383628Y-56775500D01*
X156383635Y-56775500D01*
X156616365Y-56775500D01*
X156616372Y-56775500D01*
X156847126Y-56745121D01*
X157071940Y-56684882D01*
X157183222Y-56638788D01*
X157286960Y-56595819D01*
X157286963Y-56595817D01*
X157286969Y-56595815D01*
X157488532Y-56479442D01*
X157673181Y-56337756D01*
X157837756Y-56173181D01*
X157979442Y-55988532D01*
X158095815Y-55786969D01*
X158184882Y-55571940D01*
X158245121Y-55347126D01*
X158275500Y-55116372D01*
X158275500Y-54883634D01*
X159524500Y-54883634D01*
X159524500Y-55116365D01*
X159524501Y-55116382D01*
X159554865Y-55347024D01*
X159554879Y-55347126D01*
X159608717Y-55548053D01*
X159615120Y-55571947D01*
X159704180Y-55786960D01*
X159704188Y-55786976D01*
X159820553Y-55988524D01*
X159820564Y-55988540D01*
X159962242Y-56173179D01*
X159962248Y-56173186D01*
X160126813Y-56337751D01*
X160126820Y-56337757D01*
X160197677Y-56392127D01*
X160311468Y-56479442D01*
X160311475Y-56479446D01*
X160513023Y-56595811D01*
X160513039Y-56595819D01*
X160728052Y-56684879D01*
X160728054Y-56684879D01*
X160728060Y-56684882D01*
X160952874Y-56745121D01*
X161183628Y-56775500D01*
X161183635Y-56775500D01*
X161416365Y-56775500D01*
X161416372Y-56775500D01*
X161647126Y-56745121D01*
X161871940Y-56684882D01*
X161983222Y-56638788D01*
X162086960Y-56595819D01*
X162086963Y-56595817D01*
X162086969Y-56595815D01*
X162288532Y-56479442D01*
X162473181Y-56337756D01*
X162479924Y-56331013D01*
X162527125Y-56283813D01*
X162637751Y-56173186D01*
X162637756Y-56173181D01*
X162779442Y-55988532D01*
X162895815Y-55786969D01*
X162984882Y-55571940D01*
X163045121Y-55347126D01*
X163075500Y-55116372D01*
X163075500Y-54883659D01*
X164325000Y-54883659D01*
X164325000Y-55116340D01*
X164355369Y-55347024D01*
X164415592Y-55571779D01*
X164504632Y-55786740D01*
X164504636Y-55786750D01*
X164620970Y-55988248D01*
X164680551Y-56065894D01*
X165403287Y-55343158D01*
X165413204Y-55367100D01*
X165498018Y-55494034D01*
X165605966Y-55601982D01*
X165732900Y-55686796D01*
X165756839Y-55696712D01*
X165034104Y-56419446D01*
X165034104Y-56419447D01*
X165111752Y-56479029D01*
X165313249Y-56595363D01*
X165313259Y-56595367D01*
X165528220Y-56684407D01*
X165752975Y-56744630D01*
X165983659Y-56775000D01*
X166216341Y-56775000D01*
X166447024Y-56744630D01*
X166671779Y-56684407D01*
X166886740Y-56595367D01*
X166886750Y-56595363D01*
X167088255Y-56479024D01*
X167165894Y-56419448D01*
X167165894Y-56419446D01*
X167138583Y-56392135D01*
X171309500Y-56392135D01*
X171309500Y-60447870D01*
X171309501Y-60447876D01*
X171315908Y-60507483D01*
X171366202Y-60642328D01*
X171366206Y-60642335D01*
X171452452Y-60757544D01*
X171452455Y-60757547D01*
X171567664Y-60843793D01*
X171567671Y-60843797D01*
X171702517Y-60894091D01*
X171702516Y-60894091D01*
X171709444Y-60894835D01*
X171762127Y-60900500D01*
X173837872Y-60900499D01*
X173897483Y-60894091D01*
X174032331Y-60843796D01*
X174147546Y-60757546D01*
X174233796Y-60642331D01*
X174284091Y-60507483D01*
X174290500Y-60447873D01*
X174290499Y-57312734D01*
X176310000Y-57312734D01*
X176310000Y-58170000D01*
X177189175Y-58170000D01*
X177165364Y-58227485D01*
X177140000Y-58354996D01*
X177140000Y-58485004D01*
X177165364Y-58612515D01*
X177189175Y-58670000D01*
X176310000Y-58670000D01*
X176310000Y-59527265D01*
X176346689Y-59758909D01*
X176419164Y-59981965D01*
X176525638Y-60190930D01*
X176663494Y-60380672D01*
X176829327Y-60546505D01*
X177019069Y-60684361D01*
X177228036Y-60790835D01*
X177451089Y-60863310D01*
X177550000Y-60878976D01*
X177550000Y-59030824D01*
X177607485Y-59054636D01*
X177734996Y-59080000D01*
X177865004Y-59080000D01*
X177992515Y-59054636D01*
X178050000Y-59030824D01*
X178050000Y-60878975D01*
X178148909Y-60863310D01*
X178148912Y-60863310D01*
X178371963Y-60790835D01*
X178580930Y-60684361D01*
X178770672Y-60546505D01*
X178936505Y-60380672D01*
X179074361Y-60190930D01*
X179180835Y-59981965D01*
X179253310Y-59758909D01*
X179290000Y-59527265D01*
X179290000Y-58670000D01*
X178410825Y-58670000D01*
X178434636Y-58612515D01*
X178460000Y-58485004D01*
X178460000Y-58354996D01*
X178434636Y-58227485D01*
X178410825Y-58170000D01*
X179290000Y-58170000D01*
X179290000Y-57312734D01*
X179253310Y-57081090D01*
X179180835Y-56858034D01*
X179074361Y-56649069D01*
X178936505Y-56459327D01*
X178770672Y-56293494D01*
X178580930Y-56155638D01*
X178371963Y-56049164D01*
X178148905Y-55976688D01*
X178050000Y-55961022D01*
X178050000Y-57809175D01*
X177992515Y-57785364D01*
X177865004Y-57760000D01*
X177734996Y-57760000D01*
X177607485Y-57785364D01*
X177550000Y-57809175D01*
X177550000Y-55961022D01*
X177451094Y-55976688D01*
X177451093Y-55976688D01*
X177228036Y-56049164D01*
X177019069Y-56155638D01*
X176829327Y-56293494D01*
X176663494Y-56459327D01*
X176525638Y-56649069D01*
X176419164Y-56858034D01*
X176346689Y-57081090D01*
X176310000Y-57312734D01*
X174290499Y-57312734D01*
X174290499Y-56392128D01*
X174284091Y-56332517D01*
X174269536Y-56293494D01*
X174233797Y-56197671D01*
X174233793Y-56197664D01*
X174147547Y-56082455D01*
X174147544Y-56082452D01*
X174032335Y-55996206D01*
X174032328Y-55996202D01*
X173897482Y-55945908D01*
X173897483Y-55945908D01*
X173837883Y-55939501D01*
X173837881Y-55939500D01*
X173837873Y-55939500D01*
X173837864Y-55939500D01*
X171762129Y-55939500D01*
X171762123Y-55939501D01*
X171702516Y-55945908D01*
X171567671Y-55996202D01*
X171567664Y-55996206D01*
X171452455Y-56082452D01*
X171452452Y-56082455D01*
X171366206Y-56197664D01*
X171366202Y-56197671D01*
X171315908Y-56332517D01*
X171309501Y-56392116D01*
X171309501Y-56392123D01*
X171309500Y-56392135D01*
X167138583Y-56392135D01*
X166443159Y-55696712D01*
X166467100Y-55686796D01*
X166594034Y-55601982D01*
X166701982Y-55494034D01*
X166786796Y-55367100D01*
X166796712Y-55343159D01*
X167519446Y-56065894D01*
X167519447Y-56065894D01*
X167579024Y-55988255D01*
X167695363Y-55786750D01*
X167695367Y-55786740D01*
X167784407Y-55571779D01*
X167844630Y-55347024D01*
X167875000Y-55116340D01*
X167875000Y-54883659D01*
X167844630Y-54652975D01*
X167784407Y-54428220D01*
X167695367Y-54213259D01*
X167695363Y-54213249D01*
X167579029Y-54011752D01*
X167519447Y-53934104D01*
X167519446Y-53934104D01*
X166796711Y-54656839D01*
X166786796Y-54632900D01*
X166701982Y-54505966D01*
X166594034Y-54398018D01*
X166467100Y-54313204D01*
X166443158Y-54303286D01*
X167165894Y-53580551D01*
X167088248Y-53520970D01*
X166886750Y-53404636D01*
X166886740Y-53404632D01*
X166671779Y-53315592D01*
X166447024Y-53255369D01*
X166216341Y-53225000D01*
X165983659Y-53225000D01*
X165752975Y-53255369D01*
X165528220Y-53315592D01*
X165313259Y-53404632D01*
X165313249Y-53404636D01*
X165111747Y-53520973D01*
X165034104Y-53580550D01*
X165034104Y-53580551D01*
X165756840Y-54303287D01*
X165732900Y-54313204D01*
X165605966Y-54398018D01*
X165498018Y-54505966D01*
X165413204Y-54632900D01*
X165403287Y-54656840D01*
X164680551Y-53934104D01*
X164680550Y-53934104D01*
X164620973Y-54011747D01*
X164504636Y-54213249D01*
X164504632Y-54213259D01*
X164415592Y-54428220D01*
X164355369Y-54652975D01*
X164325000Y-54883659D01*
X163075500Y-54883659D01*
X163075500Y-54883628D01*
X163045121Y-54652874D01*
X162984882Y-54428060D01*
X162980029Y-54416344D01*
X162895819Y-54213039D01*
X162895811Y-54213023D01*
X162779446Y-54011475D01*
X162779442Y-54011468D01*
X162637756Y-53826819D01*
X162637751Y-53826813D01*
X162473186Y-53662248D01*
X162473179Y-53662242D01*
X162288540Y-53520564D01*
X162288538Y-53520562D01*
X162288532Y-53520558D01*
X162288527Y-53520555D01*
X162288524Y-53520553D01*
X162086976Y-53404188D01*
X162086960Y-53404180D01*
X161871947Y-53315120D01*
X161808114Y-53298016D01*
X161647126Y-53254879D01*
X161647125Y-53254878D01*
X161647122Y-53254878D01*
X161416382Y-53224501D01*
X161416377Y-53224500D01*
X161416372Y-53224500D01*
X161183628Y-53224500D01*
X161183622Y-53224500D01*
X161183617Y-53224501D01*
X160952877Y-53254878D01*
X160728052Y-53315120D01*
X160513039Y-53404180D01*
X160513023Y-53404188D01*
X160311475Y-53520553D01*
X160311459Y-53520564D01*
X160126820Y-53662242D01*
X160126813Y-53662248D01*
X159962248Y-53826813D01*
X159962242Y-53826820D01*
X159820564Y-54011459D01*
X159820553Y-54011475D01*
X159704188Y-54213023D01*
X159704180Y-54213039D01*
X159615120Y-54428052D01*
X159554878Y-54652877D01*
X159524501Y-54883617D01*
X159524500Y-54883634D01*
X158275500Y-54883634D01*
X158275500Y-54883628D01*
X158245121Y-54652874D01*
X158184882Y-54428060D01*
X158180029Y-54416344D01*
X158095819Y-54213039D01*
X158095811Y-54213023D01*
X157979446Y-54011475D01*
X157979442Y-54011468D01*
X157837756Y-53826819D01*
X157837751Y-53826813D01*
X157673186Y-53662248D01*
X157673179Y-53662242D01*
X157488540Y-53520564D01*
X157488538Y-53520562D01*
X157488532Y-53520558D01*
X157488527Y-53520555D01*
X157488524Y-53520553D01*
X157286976Y-53404188D01*
X157286960Y-53404180D01*
X157071947Y-53315120D01*
X157008114Y-53298016D01*
X156847126Y-53254879D01*
X156847125Y-53254878D01*
X156847122Y-53254878D01*
X156616382Y-53224501D01*
X156616377Y-53224500D01*
X156616372Y-53224500D01*
X156383628Y-53224500D01*
X156383622Y-53224500D01*
X156383617Y-53224501D01*
X156152877Y-53254878D01*
X155928052Y-53315120D01*
X155713039Y-53404180D01*
X155713023Y-53404188D01*
X155511475Y-53520553D01*
X155511459Y-53520564D01*
X155326820Y-53662242D01*
X155326813Y-53662248D01*
X155162248Y-53826813D01*
X155162242Y-53826820D01*
X155020564Y-54011459D01*
X155020553Y-54011475D01*
X154904188Y-54213023D01*
X154904180Y-54213039D01*
X154815120Y-54428052D01*
X154754878Y-54652877D01*
X154724501Y-54883617D01*
X154724500Y-54883634D01*
X153475500Y-54883634D01*
X153475500Y-54883628D01*
X153445121Y-54652874D01*
X153384882Y-54428060D01*
X153380029Y-54416344D01*
X153295819Y-54213039D01*
X153295811Y-54213023D01*
X153179446Y-54011475D01*
X153179442Y-54011468D01*
X153037756Y-53826819D01*
X153037751Y-53826813D01*
X152873186Y-53662248D01*
X152873179Y-53662242D01*
X152688540Y-53520564D01*
X152688538Y-53520562D01*
X152688532Y-53520558D01*
X152688527Y-53520555D01*
X152688524Y-53520553D01*
X152486976Y-53404188D01*
X152486960Y-53404180D01*
X152271947Y-53315120D01*
X152208114Y-53298016D01*
X152047126Y-53254879D01*
X152047125Y-53254878D01*
X152047122Y-53254878D01*
X151816382Y-53224501D01*
X151816377Y-53224500D01*
X151816372Y-53224500D01*
X151583628Y-53224500D01*
X151583622Y-53224500D01*
X151583617Y-53224501D01*
X151352877Y-53254878D01*
X151128052Y-53315120D01*
X150913039Y-53404180D01*
X150913023Y-53404188D01*
X150711475Y-53520553D01*
X150711459Y-53520564D01*
X150526820Y-53662242D01*
X150526813Y-53662248D01*
X150362248Y-53826813D01*
X150362242Y-53826820D01*
X150220564Y-54011459D01*
X150220553Y-54011475D01*
X150104188Y-54213023D01*
X150104180Y-54213039D01*
X150015120Y-54428052D01*
X149954878Y-54652877D01*
X149924501Y-54883617D01*
X149924500Y-54883634D01*
X148675500Y-54883634D01*
X148675500Y-53924990D01*
X148664999Y-53822202D01*
X148609814Y-53655665D01*
X148517712Y-53506344D01*
X148393656Y-53382288D01*
X148285525Y-53315592D01*
X148244337Y-53290187D01*
X148244332Y-53290185D01*
X148242863Y-53289698D01*
X148077798Y-53235001D01*
X148077796Y-53235000D01*
X147975017Y-53224500D01*
X147975010Y-53224500D01*
X145824990Y-53224500D01*
X145824982Y-53224500D01*
X145722203Y-53235000D01*
X145722202Y-53235001D01*
X145660736Y-53255369D01*
X145555667Y-53290185D01*
X145555662Y-53290187D01*
X145406342Y-53382289D01*
X145282289Y-53506342D01*
X145190187Y-53655662D01*
X145190185Y-53655667D01*
X145162349Y-53739669D01*
X145135001Y-53822202D01*
X145135001Y-53822203D01*
X145135000Y-53822203D01*
X145124500Y-53924982D01*
X100000500Y-53924982D01*
X100000500Y-52503749D01*
X100000726Y-52496262D01*
X100005865Y-52411304D01*
X108099500Y-52411304D01*
X108099500Y-52588695D01*
X108134103Y-52762658D01*
X108134106Y-52762667D01*
X108201983Y-52926540D01*
X108201990Y-52926553D01*
X108300535Y-53074034D01*
X108300538Y-53074038D01*
X108425961Y-53199461D01*
X108425965Y-53199464D01*
X108573446Y-53298009D01*
X108573459Y-53298016D01*
X108696363Y-53348923D01*
X108737334Y-53365894D01*
X108737336Y-53365894D01*
X108737341Y-53365896D01*
X108911304Y-53400499D01*
X108911307Y-53400500D01*
X108911309Y-53400500D01*
X109088693Y-53400500D01*
X109088694Y-53400499D01*
X109146682Y-53388964D01*
X109262658Y-53365896D01*
X109262661Y-53365894D01*
X109262666Y-53365894D01*
X109426547Y-53298013D01*
X109574035Y-53199464D01*
X109699464Y-53074035D01*
X109798013Y-52926547D01*
X109865894Y-52762666D01*
X109900500Y-52588691D01*
X109900500Y-52411309D01*
X109900500Y-52411306D01*
X109900499Y-52411304D01*
X118599500Y-52411304D01*
X118599500Y-52588695D01*
X118634103Y-52762658D01*
X118634106Y-52762667D01*
X118701983Y-52926540D01*
X118701990Y-52926553D01*
X118800535Y-53074034D01*
X118800538Y-53074038D01*
X118925961Y-53199461D01*
X118925965Y-53199464D01*
X119073446Y-53298009D01*
X119073459Y-53298016D01*
X119196363Y-53348923D01*
X119237334Y-53365894D01*
X119237336Y-53365894D01*
X119237341Y-53365896D01*
X119411304Y-53400499D01*
X119411307Y-53400500D01*
X119411309Y-53400500D01*
X119588693Y-53400500D01*
X119588694Y-53400499D01*
X119646682Y-53388964D01*
X119762658Y-53365896D01*
X119762661Y-53365894D01*
X119762666Y-53365894D01*
X119926547Y-53298013D01*
X120074035Y-53199464D01*
X120199464Y-53074035D01*
X120298013Y-52926547D01*
X120365894Y-52762666D01*
X120400500Y-52588691D01*
X120400500Y-52411309D01*
X120400500Y-52411306D01*
X120400499Y-52411304D01*
X128099500Y-52411304D01*
X128099500Y-52588695D01*
X128134103Y-52762658D01*
X128134106Y-52762667D01*
X128201983Y-52926540D01*
X128201990Y-52926553D01*
X128300535Y-53074034D01*
X128300538Y-53074038D01*
X128425961Y-53199461D01*
X128425965Y-53199464D01*
X128573446Y-53298009D01*
X128573459Y-53298016D01*
X128696363Y-53348923D01*
X128737334Y-53365894D01*
X128737336Y-53365894D01*
X128737341Y-53365896D01*
X128911304Y-53400499D01*
X128911307Y-53400500D01*
X128911309Y-53400500D01*
X129088693Y-53400500D01*
X129088694Y-53400499D01*
X129146682Y-53388964D01*
X129262658Y-53365896D01*
X129262661Y-53365894D01*
X129262666Y-53365894D01*
X129426547Y-53298013D01*
X129574035Y-53199464D01*
X129699464Y-53074035D01*
X129798013Y-52926547D01*
X129865894Y-52762666D01*
X129900500Y-52588691D01*
X129900500Y-52411309D01*
X129900500Y-52411306D01*
X129900499Y-52411304D01*
X138599500Y-52411304D01*
X138599500Y-52588695D01*
X138634103Y-52762658D01*
X138634106Y-52762667D01*
X138701983Y-52926540D01*
X138701990Y-52926553D01*
X138800535Y-53074034D01*
X138800538Y-53074038D01*
X138925961Y-53199461D01*
X138925965Y-53199464D01*
X139073446Y-53298009D01*
X139073459Y-53298016D01*
X139196363Y-53348923D01*
X139237334Y-53365894D01*
X139237336Y-53365894D01*
X139237341Y-53365896D01*
X139411304Y-53400499D01*
X139411307Y-53400500D01*
X139411309Y-53400500D01*
X139588693Y-53400500D01*
X139588694Y-53400499D01*
X139646682Y-53388964D01*
X139762658Y-53365896D01*
X139762661Y-53365894D01*
X139762666Y-53365894D01*
X139926547Y-53298013D01*
X140074035Y-53199464D01*
X140199464Y-53074035D01*
X140298013Y-52926547D01*
X140365894Y-52762666D01*
X140400500Y-52588691D01*
X140400500Y-52411309D01*
X140400500Y-52411306D01*
X140400499Y-52411304D01*
X140365896Y-52237341D01*
X140365893Y-52237332D01*
X140360133Y-52223427D01*
X140348923Y-52196363D01*
X140298016Y-52073459D01*
X140298009Y-52073446D01*
X140199464Y-51925965D01*
X140199461Y-51925961D01*
X140074038Y-51800538D01*
X140074034Y-51800535D01*
X139926553Y-51701990D01*
X139926540Y-51701983D01*
X139762667Y-51634106D01*
X139762658Y-51634103D01*
X139588694Y-51599500D01*
X139588691Y-51599500D01*
X139411309Y-51599500D01*
X139411306Y-51599500D01*
X139237341Y-51634103D01*
X139237332Y-51634106D01*
X139073459Y-51701983D01*
X139073446Y-51701990D01*
X138925965Y-51800535D01*
X138925961Y-51800538D01*
X138800538Y-51925961D01*
X138800535Y-51925965D01*
X138701990Y-52073446D01*
X138701983Y-52073459D01*
X138634106Y-52237332D01*
X138634103Y-52237341D01*
X138599500Y-52411304D01*
X129900499Y-52411304D01*
X129865896Y-52237341D01*
X129865893Y-52237332D01*
X129860133Y-52223427D01*
X129848923Y-52196363D01*
X129798016Y-52073459D01*
X129798009Y-52073446D01*
X129699464Y-51925965D01*
X129699461Y-51925961D01*
X129574038Y-51800538D01*
X129574034Y-51800535D01*
X129426553Y-51701990D01*
X129426540Y-51701983D01*
X129262667Y-51634106D01*
X129262658Y-51634103D01*
X129088694Y-51599500D01*
X129088691Y-51599500D01*
X128911309Y-51599500D01*
X128911306Y-51599500D01*
X128737341Y-51634103D01*
X128737332Y-51634106D01*
X128573459Y-51701983D01*
X128573446Y-51701990D01*
X128425965Y-51800535D01*
X128425961Y-51800538D01*
X128300538Y-51925961D01*
X128300535Y-51925965D01*
X128201990Y-52073446D01*
X128201983Y-52073459D01*
X128134106Y-52237332D01*
X128134103Y-52237341D01*
X128099500Y-52411304D01*
X120400499Y-52411304D01*
X120365896Y-52237341D01*
X120365893Y-52237332D01*
X120360133Y-52223427D01*
X120348923Y-52196363D01*
X120298016Y-52073459D01*
X120298009Y-52073446D01*
X120199464Y-51925965D01*
X120199461Y-51925961D01*
X120074038Y-51800538D01*
X120074034Y-51800535D01*
X119926553Y-51701990D01*
X119926540Y-51701983D01*
X119762667Y-51634106D01*
X119762658Y-51634103D01*
X119588694Y-51599500D01*
X119588691Y-51599500D01*
X119411309Y-51599500D01*
X119411306Y-51599500D01*
X119237341Y-51634103D01*
X119237332Y-51634106D01*
X119073459Y-51701983D01*
X119073446Y-51701990D01*
X118925965Y-51800535D01*
X118925961Y-51800538D01*
X118800538Y-51925961D01*
X118800535Y-51925965D01*
X118701990Y-52073446D01*
X118701983Y-52073459D01*
X118634106Y-52237332D01*
X118634103Y-52237341D01*
X118599500Y-52411304D01*
X109900499Y-52411304D01*
X109865896Y-52237341D01*
X109865893Y-52237332D01*
X109860133Y-52223427D01*
X109848923Y-52196363D01*
X109798016Y-52073459D01*
X109798009Y-52073446D01*
X109699464Y-51925965D01*
X109699461Y-51925961D01*
X109574038Y-51800538D01*
X109574034Y-51800535D01*
X109426553Y-51701990D01*
X109426540Y-51701983D01*
X109262667Y-51634106D01*
X109262658Y-51634103D01*
X109088694Y-51599500D01*
X109088691Y-51599500D01*
X108911309Y-51599500D01*
X108911306Y-51599500D01*
X108737341Y-51634103D01*
X108737332Y-51634106D01*
X108573459Y-51701983D01*
X108573446Y-51701990D01*
X108425965Y-51800535D01*
X108425961Y-51800538D01*
X108300538Y-51925961D01*
X108300535Y-51925965D01*
X108201990Y-52073446D01*
X108201983Y-52073459D01*
X108134106Y-52237332D01*
X108134103Y-52237341D01*
X108099500Y-52411304D01*
X100005865Y-52411304D01*
X100006686Y-52397730D01*
X100006686Y-52397729D01*
X100016705Y-52232093D01*
X100017534Y-52223457D01*
X100025664Y-52161704D01*
X100026614Y-52155663D01*
X100068495Y-51927122D01*
X100070676Y-51917441D01*
X100084835Y-51864598D01*
X100086197Y-51859899D01*
X100157853Y-51629947D01*
X100161665Y-51619417D01*
X100176333Y-51584007D01*
X100177726Y-51580781D01*
X100283633Y-51345466D01*
X100289295Y-51334404D01*
X100290059Y-51333082D01*
X100291227Y-51331105D01*
X100439080Y-51086526D01*
X100447567Y-51074230D01*
X100624480Y-50848417D01*
X100634395Y-50837226D01*
X100837226Y-50634395D01*
X100848417Y-50624480D01*
X101074230Y-50447567D01*
X101086526Y-50439080D01*
X101331105Y-50291227D01*
X101333082Y-50290059D01*
X101334404Y-50289295D01*
X101345466Y-50283633D01*
X101580781Y-50177726D01*
X101584007Y-50176333D01*
X101619417Y-50161665D01*
X101629947Y-50157853D01*
X101859899Y-50086197D01*
X101864598Y-50084835D01*
X101917441Y-50070676D01*
X101927122Y-50068495D01*
X102155663Y-50026614D01*
X102161704Y-50025664D01*
X102223457Y-50017534D01*
X102232093Y-50016705D01*
X102496264Y-50000726D01*
X102503750Y-50000500D01*
X111466226Y-50000500D01*
X111533265Y-50020185D01*
G37*
G04 #@! TD.AperFunction*
M02*
