G04 #@! TF.GenerationSoftware,KiCad,Pcbnew,9.0.0*
G04 #@! TF.CreationDate,2025-07-04T16:46:46-07:00*
G04 #@! TF.ProjectId,bipolar_current_control,6269706f-6c61-4725-9f63-757272656e74,rev?*
G04 #@! TF.SameCoordinates,Original*
G04 #@! TF.FileFunction,Copper,L1,Top*
G04 #@! TF.FilePolarity,Positive*
%FSLAX46Y46*%
G04 Gerber Fmt 4.6, Leading zero omitted, Abs format (unit mm)*
G04 Created by KiCad (PCBNEW 9.0.0) date 2025-07-04 16:46:46*
%MOMM*%
%LPD*%
G01*
G04 APERTURE LIST*
G04 Aperture macros list*
%AMRoundRect*
0 Rectangle with rounded corners*
0 $1 Rounding radius*
0 $2 $3 $4 $5 $6 $7 $8 $9 X,Y pos of 4 corners*
0 Add a 4 corners polygon primitive as box body*
4,1,4,$2,$3,$4,$5,$6,$7,$8,$9,$2,$3,0*
0 Add four circle primitives for the rounded corners*
1,1,$1+$1,$2,$3*
1,1,$1+$1,$4,$5*
1,1,$1+$1,$6,$7*
1,1,$1+$1,$8,$9*
0 Add four rect primitives between the rounded corners*
20,1,$1+$1,$2,$3,$4,$5,0*
20,1,$1+$1,$4,$5,$6,$7,0*
20,1,$1+$1,$6,$7,$8,$9,0*
20,1,$1+$1,$8,$9,$2,$3,0*%
G04 Aperture macros list end*
G04 #@! TA.AperFunction,ComponentPad*
%ADD10C,1.600000*%
G04 #@! TD*
G04 #@! TA.AperFunction,ComponentPad*
%ADD11R,2.000000X2.000000*%
G04 #@! TD*
G04 #@! TA.AperFunction,ComponentPad*
%ADD12C,2.000000*%
G04 #@! TD*
G04 #@! TA.AperFunction,ComponentPad*
%ADD13R,1.700000X1.700000*%
G04 #@! TD*
G04 #@! TA.AperFunction,ComponentPad*
%ADD14O,1.700000X1.700000*%
G04 #@! TD*
G04 #@! TA.AperFunction,ComponentPad*
%ADD15R,1.600000X1.600000*%
G04 #@! TD*
G04 #@! TA.AperFunction,ComponentPad*
%ADD16O,1.600000X1.600000*%
G04 #@! TD*
G04 #@! TA.AperFunction,SMDPad,CuDef*
%ADD17R,2.290000X5.080000*%
G04 #@! TD*
G04 #@! TA.AperFunction,SMDPad,CuDef*
%ADD18R,2.420000X5.080000*%
G04 #@! TD*
G04 #@! TA.AperFunction,SMDPad,CuDef*
%ADD19R,0.460000X0.950000*%
G04 #@! TD*
G04 #@! TA.AperFunction,ComponentPad*
%ADD20C,0.970000*%
G04 #@! TD*
G04 #@! TA.AperFunction,ComponentPad*
%ADD21C,2.400000*%
G04 #@! TD*
G04 #@! TA.AperFunction,ComponentPad*
%ADD22O,2.400000X2.400000*%
G04 #@! TD*
G04 #@! TA.AperFunction,ComponentPad*
%ADD23RoundRect,0.249999X-1.025001X-1.025001X1.025001X-1.025001X1.025001X1.025001X-1.025001X1.025001X0*%
G04 #@! TD*
G04 #@! TA.AperFunction,ComponentPad*
%ADD24C,2.550000*%
G04 #@! TD*
G04 #@! TA.AperFunction,ComponentPad*
%ADD25RoundRect,0.250000X0.265000X0.615000X-0.265000X0.615000X-0.265000X-0.615000X0.265000X-0.615000X0*%
G04 #@! TD*
G04 #@! TA.AperFunction,ComponentPad*
%ADD26O,1.030000X1.730000*%
G04 #@! TD*
G04 #@! TA.AperFunction,ComponentPad*
%ADD27R,1.905000X2.000000*%
G04 #@! TD*
G04 #@! TA.AperFunction,ComponentPad*
%ADD28O,1.905000X2.000000*%
G04 #@! TD*
G04 #@! TA.AperFunction,ComponentPad*
%ADD29RoundRect,0.250000X-0.950000X-0.550000X0.950000X-0.550000X0.950000X0.550000X-0.950000X0.550000X0*%
G04 #@! TD*
G04 #@! TA.AperFunction,ComponentPad*
%ADD30O,2.400000X1.600000*%
G04 #@! TD*
G04 #@! TA.AperFunction,ViaPad*
%ADD31C,0.800000*%
G04 #@! TD*
G04 #@! TA.AperFunction,Conductor*
%ADD32C,0.500000*%
G04 #@! TD*
G04 #@! TA.AperFunction,Conductor*
%ADD33C,0.350000*%
G04 #@! TD*
G04 #@! TA.AperFunction,Conductor*
%ADD34C,0.200000*%
G04 #@! TD*
G04 #@! TA.AperFunction,Conductor*
%ADD35C,0.250000*%
G04 #@! TD*
G04 #@! TA.AperFunction,Conductor*
%ADD36C,0.750000*%
G04 #@! TD*
G04 APERTURE END LIST*
D10*
X159245000Y-83820000D03*
X164245000Y-83820000D03*
D11*
X163120000Y-127000000D03*
D12*
X163120000Y-132080000D03*
D13*
X161745000Y-76200000D03*
D14*
X159205000Y-76200000D03*
X156665000Y-76200000D03*
D15*
X106680000Y-114300000D03*
D16*
X116840000Y-114300000D03*
D17*
X190000000Y-146930000D03*
D18*
X185620000Y-146930000D03*
X194380000Y-146930000D03*
D19*
X185620000Y-143940000D03*
X194380000Y-143940000D03*
D20*
X185620000Y-143490000D03*
X194380000Y-143490000D03*
D21*
X169620000Y-129540000D03*
D22*
X139140000Y-129540000D03*
D23*
X146900000Y-55000000D03*
D24*
X151700000Y-55000000D03*
X156500000Y-55000000D03*
X161300000Y-55000000D03*
X166100000Y-55000000D03*
D25*
X141000000Y-55500000D03*
D26*
X139500000Y-55500000D03*
X138000000Y-55500000D03*
X136500000Y-55500000D03*
X135000000Y-55500000D03*
X133500000Y-55500000D03*
X132000000Y-55500000D03*
X130500000Y-55500000D03*
X129000000Y-55500000D03*
X127500000Y-55500000D03*
D10*
X137160000Y-106680000D03*
D16*
X147320000Y-106680000D03*
D17*
X142000000Y-146930000D03*
D18*
X137620000Y-146930000D03*
X146380000Y-146930000D03*
D19*
X137620000Y-143940000D03*
X146380000Y-143940000D03*
D20*
X137620000Y-143490000D03*
X146380000Y-143490000D03*
D10*
X124460000Y-96600000D03*
X124460000Y-91600000D03*
X116840000Y-134620000D03*
D16*
X116840000Y-124460000D03*
D10*
X129540000Y-86360000D03*
D16*
X129540000Y-96520000D03*
D10*
X144700000Y-93980000D03*
X139700000Y-93980000D03*
D15*
X106680000Y-119380000D03*
D16*
X116840000Y-119380000D03*
D10*
X137160000Y-101600000D03*
D16*
X147320000Y-101600000D03*
D10*
X144700000Y-91440000D03*
X139700000Y-91440000D03*
D13*
X161745000Y-71120000D03*
D14*
X159205000Y-71120000D03*
X156665000Y-71120000D03*
D10*
X126000000Y-124460000D03*
D16*
X126000000Y-134620000D03*
D17*
X126000000Y-146930000D03*
D18*
X121620000Y-146930000D03*
X130380000Y-146930000D03*
D19*
X121620000Y-143940000D03*
X130380000Y-143940000D03*
D20*
X121620000Y-143490000D03*
X130380000Y-143490000D03*
D27*
X139460000Y-114300000D03*
D28*
X142000000Y-114300000D03*
X144540000Y-114300000D03*
D10*
X159245000Y-81280000D03*
X164245000Y-81280000D03*
D27*
X155460000Y-114300000D03*
D28*
X158000000Y-114300000D03*
X160540000Y-114300000D03*
D25*
X121000000Y-55500000D03*
D26*
X119500000Y-55500000D03*
X118000000Y-55500000D03*
X116500000Y-55500000D03*
X115000000Y-55500000D03*
X113500000Y-55500000D03*
X112000000Y-55500000D03*
X110500000Y-55500000D03*
X109000000Y-55500000D03*
X107500000Y-55500000D03*
D17*
X158000000Y-146930000D03*
D18*
X153620000Y-146930000D03*
X162380000Y-146930000D03*
D19*
X153620000Y-143940000D03*
X162380000Y-143940000D03*
D20*
X153620000Y-143490000D03*
X162380000Y-143490000D03*
D10*
X134620000Y-83820000D03*
D16*
X134620000Y-93980000D03*
D17*
X174000000Y-146930000D03*
D18*
X169620000Y-146930000D03*
X178380000Y-146930000D03*
D19*
X169620000Y-143940000D03*
X178380000Y-143940000D03*
D20*
X169620000Y-143490000D03*
X178380000Y-143490000D03*
D10*
X165100000Y-96520000D03*
D16*
X165100000Y-86360000D03*
D17*
X110000000Y-146930000D03*
D18*
X105620000Y-146930000D03*
X114380000Y-146930000D03*
D19*
X105620000Y-143940000D03*
X114380000Y-143940000D03*
D20*
X105620000Y-143490000D03*
X114380000Y-143490000D03*
D29*
X147800000Y-83820000D03*
D30*
X147800000Y-86360000D03*
X147800000Y-88900000D03*
X147800000Y-91440000D03*
X155420000Y-91440000D03*
X155420000Y-88900000D03*
X155420000Y-86360000D03*
X155420000Y-83820000D03*
D31*
X136500000Y-51000000D03*
X112000000Y-51000000D03*
X116500000Y-51000000D03*
X132000000Y-51000000D03*
X129000000Y-52500000D03*
X109000000Y-52500000D03*
X119500000Y-52500000D03*
X139500000Y-52500000D03*
D32*
X156500000Y-55000000D02*
X156500000Y-52000000D01*
X131500000Y-50500000D02*
X131000000Y-50500000D01*
X117000000Y-50500000D02*
X116500000Y-51000000D01*
X132500000Y-50500000D02*
X132000000Y-51000000D01*
X156500000Y-52000000D02*
X155500000Y-51000000D01*
X155500000Y-51000000D02*
X136500000Y-51000000D01*
X136500000Y-51000000D02*
X136000000Y-50500000D01*
X131000000Y-50500000D02*
X117000000Y-50500000D01*
X112500000Y-50500000D02*
X112000000Y-51000000D01*
X116000000Y-50500000D02*
X112500000Y-50500000D01*
X116500000Y-51000000D02*
X116000000Y-50500000D01*
X132000000Y-51000000D02*
X131500000Y-50500000D01*
X136000000Y-50500000D02*
X132500000Y-50500000D01*
X151000000Y-52000000D02*
X140000000Y-52000000D01*
X120000000Y-52000000D02*
X119500000Y-52500000D01*
X151700000Y-52700000D02*
X151700000Y-55000000D01*
X128500000Y-52000000D02*
X120000000Y-52000000D01*
X140000000Y-52000000D02*
X139500000Y-52500000D01*
X119500000Y-52500000D02*
X119000000Y-52000000D01*
X129000000Y-52500000D02*
X128500000Y-52000000D01*
X109500000Y-52000000D02*
X109000000Y-52500000D01*
X151700000Y-52700000D02*
X151000000Y-52000000D01*
X119000000Y-52000000D02*
X109500000Y-52000000D01*
X129500000Y-52000000D02*
X129000000Y-52500000D01*
X139500000Y-52500000D02*
X139000000Y-52000000D01*
X139000000Y-52000000D02*
X129500000Y-52000000D01*
X114250000Y-55500000D02*
X115000000Y-55500000D01*
D33*
X161745000Y-76200000D02*
X162921000Y-75024000D01*
D32*
X114250000Y-55500000D02*
X114250000Y-59000000D01*
D33*
X162921000Y-75024000D02*
X162921000Y-60321000D01*
D32*
X114750000Y-59500000D02*
X133750000Y-59500000D01*
X133750000Y-59500000D02*
X134250000Y-59000000D01*
X113500000Y-55500000D02*
X114250000Y-55500000D01*
X161300000Y-58700000D02*
X161300000Y-55000000D01*
D33*
X162921000Y-60321000D02*
X161300000Y-58700000D01*
D32*
X134250000Y-55500000D02*
X134250000Y-59000000D01*
X160500000Y-59500000D02*
X161300000Y-58700000D01*
X134750000Y-59500000D02*
X160500000Y-59500000D01*
X114250000Y-59000000D02*
X114750000Y-59500000D01*
X134250000Y-59000000D02*
X134750000Y-59500000D01*
X133500000Y-55500000D02*
X134250000Y-55500000D01*
X134250000Y-55500000D02*
X135000000Y-55500000D01*
X127500000Y-54000000D02*
X127500000Y-55500000D01*
X140500000Y-53500000D02*
X141000000Y-54000000D01*
X141000000Y-54000000D02*
X141000000Y-55500000D01*
X121000000Y-54000000D02*
X121000000Y-55500000D01*
X107500000Y-54000000D02*
X107500000Y-55500000D01*
X127000000Y-53500000D02*
X127500000Y-54000000D01*
X120500000Y-53500000D02*
X121000000Y-54000000D01*
X108000000Y-53500000D02*
X120500000Y-53500000D01*
X128000000Y-53500000D02*
X140500000Y-53500000D01*
X121500000Y-53500000D02*
X127000000Y-53500000D01*
X121000000Y-54000000D02*
X121500000Y-53500000D01*
X141000000Y-54000000D02*
X141500000Y-53500000D01*
X107500000Y-54000000D02*
X108000000Y-53500000D01*
X145400000Y-53500000D02*
X146900000Y-55000000D01*
X141500000Y-53500000D02*
X145400000Y-53500000D01*
X127500000Y-54000000D02*
X128000000Y-53500000D01*
D33*
X129540000Y-96520000D02*
X124540000Y-96520000D01*
X124540000Y-96520000D02*
X124460000Y-96600000D01*
X147800000Y-83820000D02*
X134620000Y-83820000D01*
X106680000Y-119380000D02*
X106680000Y-114300000D01*
X146224000Y-90476000D02*
X147800000Y-88900000D01*
X121920000Y-119380000D02*
X146224000Y-95076000D01*
X116840000Y-119380000D02*
X121920000Y-119380000D01*
X146224000Y-95076000D02*
X146224000Y-90476000D01*
X116840000Y-124460000D02*
X116840000Y-119380000D01*
X110000000Y-141460000D02*
X110000000Y-146930000D01*
X116840000Y-134620000D02*
X110000000Y-141460000D01*
D32*
X126000000Y-134620000D02*
X126000000Y-146930000D01*
D34*
X159205000Y-81240000D02*
X159245000Y-81280000D01*
D33*
X159205000Y-76200000D02*
X159205000Y-81240000D01*
X159245000Y-83820000D02*
X155420000Y-83820000D01*
X159245000Y-83820000D02*
X159245000Y-81280000D01*
D35*
X169620000Y-133500000D02*
X169315000Y-133195000D01*
D33*
X165100000Y-96520000D02*
X160500000Y-96520000D01*
D36*
X169620000Y-133500000D02*
X169620000Y-129540000D01*
X169620000Y-133500000D02*
X163120000Y-127000000D01*
D33*
X160500000Y-96520000D02*
X155420000Y-91440000D01*
D36*
X169620000Y-143490000D02*
X169620000Y-133500000D01*
X174000000Y-127760000D02*
X174000000Y-146930000D01*
X145991000Y-112849000D02*
X159089000Y-112849000D01*
X159089000Y-112849000D02*
X160540000Y-114300000D01*
X160540000Y-114300000D02*
X174000000Y-127760000D01*
X144540000Y-114300000D02*
X145991000Y-112849000D01*
D33*
X147320000Y-101600000D02*
X139460000Y-109460000D01*
X139460000Y-109460000D02*
X139460000Y-114300000D01*
X165100000Y-86360000D02*
X163736000Y-84996000D01*
X149164000Y-84996000D02*
X147800000Y-86360000D01*
X163736000Y-84996000D02*
X149164000Y-84996000D01*
X147800000Y-86360000D02*
X129540000Y-86360000D01*
X155420000Y-86360000D02*
X155420000Y-88900000D01*
X138336000Y-105984000D02*
X138336000Y-112124000D01*
X155420000Y-88900000D02*
X138336000Y-105984000D01*
X138336000Y-112124000D02*
X126000000Y-124460000D01*
X134620000Y-99060000D02*
X137160000Y-101600000D01*
X124460000Y-91600000D02*
X132240000Y-91600000D01*
X134620000Y-93980000D02*
X134620000Y-99060000D01*
X132240000Y-91600000D02*
X134620000Y-93980000D01*
D36*
X142000000Y-146930000D02*
X142000000Y-114300000D01*
X158000000Y-114300000D02*
X158000000Y-146930000D01*
G04 #@! TA.AperFunction,Conductor*
G36*
X111533265Y-50020185D02*
G01*
X111579020Y-50072989D01*
X111588964Y-50142147D01*
X111559939Y-50205703D01*
X111535117Y-50227602D01*
X111425965Y-50300535D01*
X111425961Y-50300538D01*
X111300538Y-50425961D01*
X111300535Y-50425965D01*
X111201990Y-50573446D01*
X111201983Y-50573459D01*
X111134106Y-50737332D01*
X111134103Y-50737341D01*
X111099500Y-50911304D01*
X111099500Y-51088690D01*
X111102010Y-51101310D01*
X111095781Y-51170901D01*
X111052918Y-51226078D01*
X110987028Y-51249322D01*
X110980392Y-51249500D01*
X109426080Y-51249500D01*
X109281092Y-51278340D01*
X109281086Y-51278342D01*
X109144508Y-51334914D01*
X109144496Y-51334921D01*
X109095270Y-51367811D01*
X109095271Y-51367812D01*
X109021585Y-51417047D01*
X108847807Y-51590824D01*
X108786483Y-51624308D01*
X108784319Y-51624759D01*
X108737337Y-51634104D01*
X108737331Y-51634106D01*
X108573459Y-51701983D01*
X108573446Y-51701990D01*
X108425965Y-51800535D01*
X108425961Y-51800538D01*
X108300538Y-51925961D01*
X108300535Y-51925965D01*
X108201990Y-52073446D01*
X108201983Y-52073459D01*
X108134106Y-52237332D01*
X108134103Y-52237341D01*
X108099500Y-52411304D01*
X108099500Y-52588690D01*
X108102010Y-52601310D01*
X108095781Y-52670901D01*
X108052918Y-52726078D01*
X107987028Y-52749322D01*
X107980392Y-52749500D01*
X107926080Y-52749500D01*
X107781092Y-52778340D01*
X107781086Y-52778342D01*
X107644508Y-52834914D01*
X107644496Y-52834921D01*
X107595269Y-52867813D01*
X107521588Y-52917044D01*
X107521580Y-52917050D01*
X106917050Y-53521580D01*
X106917044Y-53521588D01*
X106867812Y-53595268D01*
X106867813Y-53595269D01*
X106834921Y-53644496D01*
X106834914Y-53644508D01*
X106778342Y-53781086D01*
X106778340Y-53781092D01*
X106749500Y-53926079D01*
X106749500Y-54413002D01*
X106729815Y-54480041D01*
X106713181Y-54500683D01*
X106711211Y-54502652D01*
X106711208Y-54502656D01*
X106600078Y-54668973D01*
X106600071Y-54668986D01*
X106523526Y-54853784D01*
X106523523Y-54853796D01*
X106484500Y-55049977D01*
X106484500Y-55950022D01*
X106523523Y-56146203D01*
X106523526Y-56146215D01*
X106600071Y-56331013D01*
X106600078Y-56331026D01*
X106711208Y-56497343D01*
X106711211Y-56497347D01*
X106852652Y-56638788D01*
X106852656Y-56638791D01*
X107018973Y-56749921D01*
X107018986Y-56749928D01*
X107202625Y-56825993D01*
X107203789Y-56826475D01*
X107347185Y-56854998D01*
X107399977Y-56865499D01*
X107399981Y-56865500D01*
X107399982Y-56865500D01*
X107600019Y-56865500D01*
X107600020Y-56865499D01*
X107796211Y-56826475D01*
X107981020Y-56749925D01*
X108147344Y-56638791D01*
X108162318Y-56623816D01*
X108223639Y-56590331D01*
X108293331Y-56595314D01*
X108337681Y-56623816D01*
X108345506Y-56631641D01*
X108352657Y-56638792D01*
X108518973Y-56749921D01*
X108518986Y-56749928D01*
X108702625Y-56825993D01*
X108703789Y-56826475D01*
X108847185Y-56854998D01*
X108899977Y-56865499D01*
X108899981Y-56865500D01*
X108899982Y-56865500D01*
X109100019Y-56865500D01*
X109100020Y-56865499D01*
X109296211Y-56826475D01*
X109481020Y-56749925D01*
X109647344Y-56638791D01*
X109662671Y-56623463D01*
X109723989Y-56589978D01*
X109793681Y-56594959D01*
X109838034Y-56623462D01*
X109852971Y-56638399D01*
X109852975Y-56638402D01*
X110019210Y-56749477D01*
X110019223Y-56749484D01*
X110203929Y-56825991D01*
X110203936Y-56825993D01*
X110250000Y-56835155D01*
X110250000Y-55766189D01*
X110275884Y-55792073D01*
X110359115Y-55840126D01*
X110451947Y-55865000D01*
X110548053Y-55865000D01*
X110640885Y-55840126D01*
X110724116Y-55792073D01*
X110750000Y-55766189D01*
X110750000Y-56835154D01*
X110796063Y-56825993D01*
X110796070Y-56825991D01*
X110980776Y-56749484D01*
X110980789Y-56749477D01*
X111147023Y-56638403D01*
X111161962Y-56623464D01*
X111223285Y-56589977D01*
X111292977Y-56594960D01*
X111337329Y-56623464D01*
X111352653Y-56638789D01*
X111352656Y-56638791D01*
X111518973Y-56749921D01*
X111518986Y-56749928D01*
X111702625Y-56825993D01*
X111703789Y-56826475D01*
X111847185Y-56854998D01*
X111899977Y-56865499D01*
X111899981Y-56865500D01*
X111899982Y-56865500D01*
X112100019Y-56865500D01*
X112100020Y-56865499D01*
X112296211Y-56826475D01*
X112481020Y-56749925D01*
X112647344Y-56638791D01*
X112662318Y-56623816D01*
X112723639Y-56590331D01*
X112793331Y-56595314D01*
X112837681Y-56623816D01*
X112845506Y-56631641D01*
X112852657Y-56638792D01*
X113018973Y-56749921D01*
X113018986Y-56749928D01*
X113202625Y-56825993D01*
X113203789Y-56826475D01*
X113399691Y-56865442D01*
X113461602Y-56897826D01*
X113496176Y-56958542D01*
X113499500Y-56987059D01*
X113499500Y-59073918D01*
X113499500Y-59073920D01*
X113499499Y-59073920D01*
X113528340Y-59218907D01*
X113528343Y-59218917D01*
X113584914Y-59355492D01*
X113617812Y-59404727D01*
X113617813Y-59404730D01*
X113667046Y-59478414D01*
X113667052Y-59478421D01*
X114271581Y-60082950D01*
X114271584Y-60082952D01*
X114332964Y-60123964D01*
X114394505Y-60165084D01*
X114531087Y-60221658D01*
X114531091Y-60221658D01*
X114531092Y-60221659D01*
X114676079Y-60250500D01*
X114676082Y-60250500D01*
X133823920Y-60250500D01*
X133921462Y-60231096D01*
X133968913Y-60221658D01*
X134105495Y-60165084D01*
X134167036Y-60123964D01*
X134181109Y-60114561D01*
X134247786Y-60093683D01*
X134315167Y-60112167D01*
X134318891Y-60114561D01*
X134332964Y-60123964D01*
X134394505Y-60165084D01*
X134531087Y-60221658D01*
X134531091Y-60221658D01*
X134531092Y-60221659D01*
X134676079Y-60250500D01*
X134676082Y-60250500D01*
X160573920Y-60250500D01*
X160671462Y-60231096D01*
X160718913Y-60221658D01*
X160855495Y-60165084D01*
X160917036Y-60123964D01*
X160978416Y-60082952D01*
X161265353Y-59796013D01*
X161326674Y-59762530D01*
X161396366Y-59767514D01*
X161440714Y-59796015D01*
X162209181Y-60564482D01*
X162242666Y-60625805D01*
X162245500Y-60652163D01*
X162245500Y-69645500D01*
X162225815Y-69712539D01*
X162173011Y-69758294D01*
X162121500Y-69769500D01*
X160847129Y-69769500D01*
X160847123Y-69769501D01*
X160787516Y-69775908D01*
X160652671Y-69826202D01*
X160652664Y-69826206D01*
X160537455Y-69912452D01*
X160537452Y-69912455D01*
X160451206Y-70027664D01*
X160451203Y-70027669D01*
X160402189Y-70159083D01*
X160360317Y-70215016D01*
X160294853Y-70239433D01*
X160226580Y-70224581D01*
X160198326Y-70203430D01*
X160084786Y-70089890D01*
X159912820Y-69964951D01*
X159723414Y-69868444D01*
X159723413Y-69868443D01*
X159723412Y-69868443D01*
X159521243Y-69802754D01*
X159521241Y-69802753D01*
X159521240Y-69802753D01*
X159359957Y-69777208D01*
X159311287Y-69769500D01*
X159098713Y-69769500D01*
X159050042Y-69777208D01*
X158888760Y-69802753D01*
X158686585Y-69868444D01*
X158497179Y-69964951D01*
X158325213Y-70089890D01*
X158174890Y-70240213D01*
X158049949Y-70412182D01*
X158045484Y-70420946D01*
X157997509Y-70471742D01*
X157929688Y-70488536D01*
X157863553Y-70465998D01*
X157824516Y-70420946D01*
X157820050Y-70412182D01*
X157695109Y-70240213D01*
X157544786Y-70089890D01*
X157372820Y-69964951D01*
X157183414Y-69868444D01*
X157183413Y-69868443D01*
X157183412Y-69868443D01*
X156981243Y-69802754D01*
X156981241Y-69802753D01*
X156981240Y-69802753D01*
X156819957Y-69777208D01*
X156771287Y-69769500D01*
X156558713Y-69769500D01*
X156510042Y-69777208D01*
X156348760Y-69802753D01*
X156146585Y-69868444D01*
X155957179Y-69964951D01*
X155785213Y-70089890D01*
X155634890Y-70240213D01*
X155509951Y-70412179D01*
X155413444Y-70601585D01*
X155347753Y-70803760D01*
X155314500Y-71013713D01*
X155314500Y-71226286D01*
X155347753Y-71436239D01*
X155413444Y-71638414D01*
X155509951Y-71827820D01*
X155634890Y-71999786D01*
X155785213Y-72150109D01*
X155957179Y-72275048D01*
X155957181Y-72275049D01*
X155957184Y-72275051D01*
X156146588Y-72371557D01*
X156348757Y-72437246D01*
X156558713Y-72470500D01*
X156558714Y-72470500D01*
X156771286Y-72470500D01*
X156771287Y-72470500D01*
X156981243Y-72437246D01*
X157183412Y-72371557D01*
X157372816Y-72275051D01*
X157459138Y-72212335D01*
X157544786Y-72150109D01*
X157544788Y-72150106D01*
X157544792Y-72150104D01*
X157695104Y-71999792D01*
X157695106Y-71999788D01*
X157695109Y-71999786D01*
X157820048Y-71827820D01*
X157820047Y-71827820D01*
X157820051Y-71827816D01*
X157824514Y-71819054D01*
X157872488Y-71768259D01*
X157940308Y-71751463D01*
X158006444Y-71773999D01*
X158045486Y-71819056D01*
X158049951Y-71827820D01*
X158174890Y-71999786D01*
X158325213Y-72150109D01*
X158497179Y-72275048D01*
X158497181Y-72275049D01*
X158497184Y-72275051D01*
X158686588Y-72371557D01*
X158888757Y-72437246D01*
X159098713Y-72470500D01*
X159098714Y-72470500D01*
X159311286Y-72470500D01*
X159311287Y-72470500D01*
X159521243Y-72437246D01*
X159723412Y-72371557D01*
X159912816Y-72275051D01*
X160084792Y-72150104D01*
X160198329Y-72036566D01*
X160259648Y-72003084D01*
X160329340Y-72008068D01*
X160385274Y-72049939D01*
X160402189Y-72080917D01*
X160451202Y-72212328D01*
X160451206Y-72212335D01*
X160537452Y-72327544D01*
X160537455Y-72327547D01*
X160652664Y-72413793D01*
X160652671Y-72413797D01*
X160787517Y-72464091D01*
X160787516Y-72464091D01*
X160794444Y-72464835D01*
X160847127Y-72470500D01*
X162121500Y-72470499D01*
X162188539Y-72490184D01*
X162234294Y-72542987D01*
X162245500Y-72594499D01*
X162245500Y-74692835D01*
X162236855Y-74722275D01*
X162230332Y-74752262D01*
X162226577Y-74757277D01*
X162225815Y-74759874D01*
X162209181Y-74780516D01*
X162176516Y-74813181D01*
X162115193Y-74846666D01*
X162088835Y-74849500D01*
X160847129Y-74849500D01*
X160847123Y-74849501D01*
X160787516Y-74855908D01*
X160652671Y-74906202D01*
X160652664Y-74906206D01*
X160537455Y-74992452D01*
X160537452Y-74992455D01*
X160451206Y-75107664D01*
X160451203Y-75107669D01*
X160402189Y-75239083D01*
X160360317Y-75295016D01*
X160294853Y-75319433D01*
X160226580Y-75304581D01*
X160198326Y-75283430D01*
X160084786Y-75169890D01*
X159912820Y-75044951D01*
X159723414Y-74948444D01*
X159723413Y-74948443D01*
X159723412Y-74948443D01*
X159521243Y-74882754D01*
X159521241Y-74882753D01*
X159521240Y-74882753D01*
X159359957Y-74857208D01*
X159311287Y-74849500D01*
X159098713Y-74849500D01*
X159050042Y-74857208D01*
X158888760Y-74882753D01*
X158686585Y-74948444D01*
X158497179Y-75044951D01*
X158325213Y-75169890D01*
X158174890Y-75320213D01*
X158049949Y-75492182D01*
X158045484Y-75500946D01*
X157997509Y-75551742D01*
X157929688Y-75568536D01*
X157863553Y-75545998D01*
X157824516Y-75500946D01*
X157820050Y-75492182D01*
X157695109Y-75320213D01*
X157544786Y-75169890D01*
X157372820Y-75044951D01*
X157183414Y-74948444D01*
X157183413Y-74948443D01*
X157183412Y-74948443D01*
X156981243Y-74882754D01*
X156981241Y-74882753D01*
X156981240Y-74882753D01*
X156819957Y-74857208D01*
X156771287Y-74849500D01*
X156558713Y-74849500D01*
X156510042Y-74857208D01*
X156348760Y-74882753D01*
X156146585Y-74948444D01*
X155957179Y-75044951D01*
X155785213Y-75169890D01*
X155634890Y-75320213D01*
X155509951Y-75492179D01*
X155413444Y-75681585D01*
X155347753Y-75883760D01*
X155314500Y-76093713D01*
X155314500Y-76306286D01*
X155347753Y-76516239D01*
X155413444Y-76718414D01*
X155509951Y-76907820D01*
X155634890Y-77079786D01*
X155785213Y-77230109D01*
X155957179Y-77355048D01*
X155957181Y-77355049D01*
X155957184Y-77355051D01*
X156146588Y-77451557D01*
X156348757Y-77517246D01*
X156558713Y-77550500D01*
X156558714Y-77550500D01*
X156771286Y-77550500D01*
X156771287Y-77550500D01*
X156981243Y-77517246D01*
X157183412Y-77451557D01*
X157372816Y-77355051D01*
X157459138Y-77292335D01*
X157544786Y-77230109D01*
X157544788Y-77230106D01*
X157544792Y-77230104D01*
X157695104Y-77079792D01*
X157695106Y-77079788D01*
X157695109Y-77079786D01*
X157820048Y-76907820D01*
X157820047Y-76907820D01*
X157820051Y-76907816D01*
X157824514Y-76899054D01*
X157872488Y-76848259D01*
X157940308Y-76831463D01*
X158006444Y-76853999D01*
X158045486Y-76899056D01*
X158049951Y-76907820D01*
X158174890Y-77079786D01*
X158325211Y-77230107D01*
X158390768Y-77277735D01*
X158478385Y-77341393D01*
X158521051Y-77396721D01*
X158529500Y-77441710D01*
X158529500Y-80129153D01*
X158509815Y-80196192D01*
X158478385Y-80229471D01*
X158397787Y-80288028D01*
X158397782Y-80288032D01*
X158253028Y-80432786D01*
X158132715Y-80598386D01*
X158039781Y-80780776D01*
X157976522Y-80975465D01*
X157944500Y-81177648D01*
X157944500Y-81382351D01*
X157976522Y-81584534D01*
X158039781Y-81779223D01*
X158103691Y-81904653D01*
X158132585Y-81961359D01*
X158132715Y-81961613D01*
X158253028Y-82127213D01*
X158397784Y-82271969D01*
X158473073Y-82326668D01*
X158518384Y-82359589D01*
X158521725Y-82363920D01*
X158526703Y-82366194D01*
X158542833Y-82391293D01*
X158561051Y-82414918D01*
X158562304Y-82421591D01*
X158564477Y-82424972D01*
X158569500Y-82459907D01*
X158569500Y-82640092D01*
X158549815Y-82707131D01*
X158518385Y-82740410D01*
X158397786Y-82828028D01*
X158253030Y-82972784D01*
X158165412Y-83093384D01*
X158110082Y-83136051D01*
X158065093Y-83144500D01*
X156999907Y-83144500D01*
X156932868Y-83124815D01*
X156899588Y-83093384D01*
X156811969Y-82972784D01*
X156667213Y-82828028D01*
X156501613Y-82707715D01*
X156501612Y-82707714D01*
X156501610Y-82707713D01*
X156437460Y-82675027D01*
X156319223Y-82614781D01*
X156124534Y-82551522D01*
X155949995Y-82523878D01*
X155922352Y-82519500D01*
X154917648Y-82519500D01*
X154893329Y-82523351D01*
X154715465Y-82551522D01*
X154520776Y-82614781D01*
X154338386Y-82707715D01*
X154172786Y-82828028D01*
X154028028Y-82972786D01*
X153907715Y-83138386D01*
X153814781Y-83320776D01*
X153751522Y-83515465D01*
X153719500Y-83717648D01*
X153719500Y-83922351D01*
X153751523Y-84124535D01*
X153751524Y-84124542D01*
X153762455Y-84158183D01*
X153764450Y-84228024D01*
X153728369Y-84287856D01*
X153665668Y-84318684D01*
X153644524Y-84320500D01*
X149624500Y-84320500D01*
X149557461Y-84300815D01*
X149511706Y-84248011D01*
X149500500Y-84196500D01*
X149500499Y-83219998D01*
X149500498Y-83219980D01*
X149489999Y-83117203D01*
X149489998Y-83117200D01*
X149470879Y-83059504D01*
X149434814Y-82950666D01*
X149342712Y-82801344D01*
X149218656Y-82677288D01*
X149069334Y-82585186D01*
X148902797Y-82530001D01*
X148902795Y-82530000D01*
X148800010Y-82519500D01*
X146799998Y-82519500D01*
X146799981Y-82519501D01*
X146697203Y-82530000D01*
X146697200Y-82530001D01*
X146530668Y-82585185D01*
X146530663Y-82585187D01*
X146381342Y-82677289D01*
X146257289Y-82801342D01*
X146165187Y-82950663D01*
X146165185Y-82950668D01*
X146129121Y-83059504D01*
X146089348Y-83116949D01*
X146024833Y-83143772D01*
X146011415Y-83144500D01*
X135799907Y-83144500D01*
X135732868Y-83124815D01*
X135699588Y-83093384D01*
X135611969Y-82972784D01*
X135467213Y-82828028D01*
X135301613Y-82707715D01*
X135301612Y-82707714D01*
X135301610Y-82707713D01*
X135237460Y-82675027D01*
X135119223Y-82614781D01*
X134924534Y-82551522D01*
X134749995Y-82523878D01*
X134722352Y-82519500D01*
X134517648Y-82519500D01*
X134493329Y-82523351D01*
X134315465Y-82551522D01*
X134120776Y-82614781D01*
X133938386Y-82707715D01*
X133772786Y-82828028D01*
X133628028Y-82972786D01*
X133507715Y-83138386D01*
X133414781Y-83320776D01*
X133351522Y-83515465D01*
X133319500Y-83717648D01*
X133319500Y-83922351D01*
X133351522Y-84124534D01*
X133414781Y-84319223D01*
X133507715Y-84501613D01*
X133628028Y-84667213D01*
X133772786Y-84811971D01*
X133893225Y-84899473D01*
X133938390Y-84932287D01*
X134045792Y-84987011D01*
X134120776Y-85025218D01*
X134120778Y-85025218D01*
X134120781Y-85025220D01*
X134165700Y-85039815D01*
X134315465Y-85088477D01*
X134416557Y-85104488D01*
X134517648Y-85120500D01*
X134517649Y-85120500D01*
X134722351Y-85120500D01*
X134722352Y-85120500D01*
X134924534Y-85088477D01*
X135119219Y-85025220D01*
X135301610Y-84932287D01*
X135430482Y-84838657D01*
X135467213Y-84811971D01*
X135467215Y-84811968D01*
X135467219Y-84811966D01*
X135611966Y-84667219D01*
X135699589Y-84546615D01*
X135754918Y-84503949D01*
X135799907Y-84495500D01*
X146011415Y-84495500D01*
X146078454Y-84515185D01*
X146124209Y-84567989D01*
X146129118Y-84580489D01*
X146165186Y-84689334D01*
X146257288Y-84838656D01*
X146381344Y-84962712D01*
X146530666Y-85054814D01*
X146612570Y-85081954D01*
X146670015Y-85121727D01*
X146696838Y-85186243D01*
X146684523Y-85255018D01*
X146646451Y-85299978D01*
X146552787Y-85368028D01*
X146552782Y-85368032D01*
X146408030Y-85512784D01*
X146320412Y-85633384D01*
X146265082Y-85676051D01*
X146220093Y-85684500D01*
X130719907Y-85684500D01*
X130652868Y-85664815D01*
X130619588Y-85633384D01*
X130531969Y-85512784D01*
X130387213Y-85368028D01*
X130221613Y-85247715D01*
X130221612Y-85247714D01*
X130221610Y-85247713D01*
X130164653Y-85218691D01*
X130039223Y-85154781D01*
X129844534Y-85091522D01*
X129669995Y-85063878D01*
X129642352Y-85059500D01*
X129437648Y-85059500D01*
X129413329Y-85063351D01*
X129235465Y-85091522D01*
X129040776Y-85154781D01*
X128858386Y-85247715D01*
X128692786Y-85368028D01*
X128548028Y-85512786D01*
X128427715Y-85678386D01*
X128334781Y-85860776D01*
X128271522Y-86055465D01*
X128239500Y-86257648D01*
X128239500Y-86462351D01*
X128271522Y-86664534D01*
X128334781Y-86859223D01*
X128427715Y-87041613D01*
X128548028Y-87207213D01*
X128692786Y-87351971D01*
X128847749Y-87464556D01*
X128858390Y-87472287D01*
X128951080Y-87519515D01*
X129040776Y-87565218D01*
X129040778Y-87565218D01*
X129040781Y-87565220D01*
X129145137Y-87599127D01*
X129235465Y-87628477D01*
X129254697Y-87631523D01*
X129437648Y-87660500D01*
X129437649Y-87660500D01*
X129642351Y-87660500D01*
X129642352Y-87660500D01*
X129844534Y-87628477D01*
X130039219Y-87565220D01*
X130221610Y-87472287D01*
X130314590Y-87404732D01*
X130387213Y-87351971D01*
X130387215Y-87351968D01*
X130387219Y-87351966D01*
X130531966Y-87207219D01*
X130619589Y-87086615D01*
X130674918Y-87043949D01*
X130719907Y-87035500D01*
X146220093Y-87035500D01*
X146287132Y-87055185D01*
X146320412Y-87086616D01*
X146408030Y-87207215D01*
X146552786Y-87351971D01*
X146707749Y-87464556D01*
X146718390Y-87472287D01*
X146809840Y-87518883D01*
X146811080Y-87519515D01*
X146861876Y-87567490D01*
X146878671Y-87635311D01*
X146856134Y-87701446D01*
X146811080Y-87740485D01*
X146718386Y-87787715D01*
X146552786Y-87908028D01*
X146408028Y-88052786D01*
X146287715Y-88218386D01*
X146194781Y-88400776D01*
X146131522Y-88595465D01*
X146099500Y-88797648D01*
X146099500Y-89002351D01*
X146131522Y-89204534D01*
X146194782Y-89399226D01*
X146204746Y-89418780D01*
X146217642Y-89487449D01*
X146191365Y-89552189D01*
X146181942Y-89562755D01*
X145699307Y-90045390D01*
X145699304Y-90045394D01*
X145625383Y-90156024D01*
X145625378Y-90156034D01*
X145574520Y-90278817D01*
X145530679Y-90333220D01*
X145464385Y-90355285D01*
X145396685Y-90338006D01*
X145387075Y-90331683D01*
X145381612Y-90327714D01*
X145199223Y-90234781D01*
X145004534Y-90171522D01*
X144829995Y-90143878D01*
X144802352Y-90139500D01*
X144597648Y-90139500D01*
X144573329Y-90143351D01*
X144395465Y-90171522D01*
X144200776Y-90234781D01*
X144018386Y-90327715D01*
X143852786Y-90448028D01*
X143708028Y-90592786D01*
X143587715Y-90758386D01*
X143494781Y-90940776D01*
X143431522Y-91135465D01*
X143399500Y-91337648D01*
X143399500Y-91542351D01*
X143431522Y-91744534D01*
X143494781Y-91939223D01*
X143511350Y-91971740D01*
X143587585Y-92121359D01*
X143587715Y-92121613D01*
X143708028Y-92287213D01*
X143852786Y-92431971D01*
X143973226Y-92519474D01*
X144018390Y-92552287D01*
X144096274Y-92591971D01*
X144111080Y-92599515D01*
X144161876Y-92647490D01*
X144178671Y-92715311D01*
X144156134Y-92781446D01*
X144111080Y-92820485D01*
X144018386Y-92867715D01*
X143852786Y-92988028D01*
X143708028Y-93132786D01*
X143587715Y-93298386D01*
X143494781Y-93480776D01*
X143431522Y-93675465D01*
X143399500Y-93877648D01*
X143399500Y-94082351D01*
X143431522Y-94284534D01*
X143494781Y-94479223D01*
X143558691Y-94604653D01*
X143587585Y-94661359D01*
X143587715Y-94661613D01*
X143708028Y-94827213D01*
X143852786Y-94971971D01*
X144000279Y-95079129D01*
X144018390Y-95092287D01*
X144117003Y-95142533D01*
X144200776Y-95185218D01*
X144200778Y-95185218D01*
X144200781Y-95185220D01*
X144259648Y-95204347D01*
X144395465Y-95248477D01*
X144414697Y-95251523D01*
X144597648Y-95280500D01*
X144597649Y-95280500D01*
X144764836Y-95280500D01*
X144831875Y-95300185D01*
X144877630Y-95352989D01*
X144887574Y-95422147D01*
X144858549Y-95485703D01*
X144852517Y-95492181D01*
X138672181Y-101672517D01*
X138610858Y-101706002D01*
X138541166Y-101701018D01*
X138485233Y-101659146D01*
X138460816Y-101593682D01*
X138460500Y-101584836D01*
X138460500Y-101497648D01*
X138428477Y-101295465D01*
X138365218Y-101100776D01*
X138331503Y-101034607D01*
X138272287Y-100918390D01*
X138264556Y-100907749D01*
X138151971Y-100752786D01*
X138007213Y-100608028D01*
X137841613Y-100487715D01*
X137841612Y-100487714D01*
X137841610Y-100487713D01*
X137784653Y-100458691D01*
X137659223Y-100394781D01*
X137464534Y-100331522D01*
X137289995Y-100303878D01*
X137262352Y-100299500D01*
X137057648Y-100299500D01*
X136910407Y-100322820D01*
X136841114Y-100313865D01*
X136803329Y-100288028D01*
X135331819Y-98816518D01*
X135298334Y-98755195D01*
X135295500Y-98728837D01*
X135295500Y-95159907D01*
X135296125Y-95157777D01*
X135295574Y-95155628D01*
X135305924Y-95124406D01*
X135315185Y-95092868D01*
X135317079Y-95090756D01*
X135317560Y-95089307D01*
X135327510Y-95079129D01*
X135341580Y-95063447D01*
X135344036Y-95061462D01*
X135467219Y-94971966D01*
X135611966Y-94827219D01*
X135611968Y-94827215D01*
X135611971Y-94827213D01*
X135664732Y-94754590D01*
X135732287Y-94661610D01*
X135825220Y-94479219D01*
X135888477Y-94284534D01*
X135920500Y-94082352D01*
X135920500Y-93877648D01*
X135912257Y-93825606D01*
X135888477Y-93675465D01*
X135857458Y-93580000D01*
X135825220Y-93480781D01*
X135825218Y-93480778D01*
X135825218Y-93480776D01*
X135732419Y-93298650D01*
X135732287Y-93298390D01*
X135700092Y-93254077D01*
X135611971Y-93132786D01*
X135467213Y-92988028D01*
X135301613Y-92867715D01*
X135301612Y-92867714D01*
X135301610Y-92867713D01*
X135244653Y-92838691D01*
X135119223Y-92774781D01*
X134924534Y-92711522D01*
X134749995Y-92683878D01*
X134722352Y-92679500D01*
X134517648Y-92679500D01*
X134370407Y-92702820D01*
X134364982Y-92702118D01*
X134359856Y-92704031D01*
X134330700Y-92697688D01*
X134301114Y-92693865D01*
X134295510Y-92690033D01*
X134291583Y-92689179D01*
X134263329Y-92668028D01*
X134155197Y-92559896D01*
X133015799Y-91420497D01*
X132932984Y-91337682D01*
X138400000Y-91337682D01*
X138400000Y-91542317D01*
X138432009Y-91744417D01*
X138495244Y-91939031D01*
X138588141Y-92121350D01*
X138588147Y-92121359D01*
X138620523Y-92165921D01*
X138620524Y-92165922D01*
X139300000Y-91486446D01*
X139300000Y-91492661D01*
X139327259Y-91594394D01*
X139379920Y-91685606D01*
X139454394Y-91760080D01*
X139545606Y-91812741D01*
X139647339Y-91840000D01*
X139653553Y-91840000D01*
X138974076Y-92519474D01*
X139018650Y-92551859D01*
X139112180Y-92599515D01*
X139162976Y-92647489D01*
X139179771Y-92715310D01*
X139157234Y-92781445D01*
X139112180Y-92820485D01*
X139018644Y-92868143D01*
X138974077Y-92900523D01*
X138974077Y-92900524D01*
X139653554Y-93580000D01*
X139647339Y-93580000D01*
X139545606Y-93607259D01*
X139454394Y-93659920D01*
X139379920Y-93734394D01*
X139327259Y-93825606D01*
X139300000Y-93927339D01*
X139300000Y-93933553D01*
X138620524Y-93254077D01*
X138620523Y-93254077D01*
X138588143Y-93298644D01*
X138495244Y-93480968D01*
X138432009Y-93675582D01*
X138400000Y-93877682D01*
X138400000Y-94082317D01*
X138432009Y-94284417D01*
X138495244Y-94479031D01*
X138588141Y-94661350D01*
X138588147Y-94661359D01*
X138620523Y-94705921D01*
X138620524Y-94705922D01*
X139300000Y-94026446D01*
X139300000Y-94032661D01*
X139327259Y-94134394D01*
X139379920Y-94225606D01*
X139454394Y-94300080D01*
X139545606Y-94352741D01*
X139647339Y-94380000D01*
X139653553Y-94380000D01*
X138974076Y-95059474D01*
X139018650Y-95091859D01*
X139200968Y-95184755D01*
X139395582Y-95247990D01*
X139597683Y-95280000D01*
X139802317Y-95280000D01*
X140004417Y-95247990D01*
X140199031Y-95184755D01*
X140381349Y-95091859D01*
X140425921Y-95059474D01*
X139746447Y-94380000D01*
X139752661Y-94380000D01*
X139854394Y-94352741D01*
X139945606Y-94300080D01*
X140020080Y-94225606D01*
X140072741Y-94134394D01*
X140100000Y-94032661D01*
X140100000Y-94026448D01*
X140779474Y-94705922D01*
X140779474Y-94705921D01*
X140811859Y-94661349D01*
X140904755Y-94479031D01*
X140967990Y-94284417D01*
X141000000Y-94082317D01*
X141000000Y-93877682D01*
X140967990Y-93675582D01*
X140904755Y-93480968D01*
X140811859Y-93298650D01*
X140779474Y-93254077D01*
X140779474Y-93254076D01*
X140100000Y-93933551D01*
X140100000Y-93927339D01*
X140072741Y-93825606D01*
X140020080Y-93734394D01*
X139945606Y-93659920D01*
X139854394Y-93607259D01*
X139752661Y-93580000D01*
X139746446Y-93580000D01*
X140425922Y-92900524D01*
X140425921Y-92900523D01*
X140381359Y-92868147D01*
X140381350Y-92868141D01*
X140287819Y-92820485D01*
X140237023Y-92772511D01*
X140220228Y-92704690D01*
X140242765Y-92638555D01*
X140287820Y-92599515D01*
X140381346Y-92551861D01*
X140381347Y-92551861D01*
X140425921Y-92519474D01*
X139746447Y-91840000D01*
X139752661Y-91840000D01*
X139854394Y-91812741D01*
X139945606Y-91760080D01*
X140020080Y-91685606D01*
X140072741Y-91594394D01*
X140100000Y-91492661D01*
X140100000Y-91486448D01*
X140779474Y-92165922D01*
X140779474Y-92165921D01*
X140811859Y-92121349D01*
X140904755Y-91939031D01*
X140967990Y-91744417D01*
X141000000Y-91542317D01*
X141000000Y-91337682D01*
X140967990Y-91135582D01*
X140904755Y-90940968D01*
X140811859Y-90758650D01*
X140779474Y-90714077D01*
X140779474Y-90714076D01*
X140100000Y-91393551D01*
X140100000Y-91387339D01*
X140072741Y-91285606D01*
X140020080Y-91194394D01*
X139945606Y-91119920D01*
X139854394Y-91067259D01*
X139752661Y-91040000D01*
X139746446Y-91040000D01*
X140425922Y-90360524D01*
X140425921Y-90360523D01*
X140381359Y-90328147D01*
X140381350Y-90328141D01*
X140199031Y-90235244D01*
X140004417Y-90172009D01*
X139802317Y-90140000D01*
X139597683Y-90140000D01*
X139395582Y-90172009D01*
X139200968Y-90235244D01*
X139018644Y-90328143D01*
X138974077Y-90360523D01*
X138974077Y-90360524D01*
X139653554Y-91040000D01*
X139647339Y-91040000D01*
X139545606Y-91067259D01*
X139454394Y-91119920D01*
X139379920Y-91194394D01*
X139327259Y-91285606D01*
X139300000Y-91387339D01*
X139300000Y-91393553D01*
X138620524Y-90714077D01*
X138620523Y-90714077D01*
X138588143Y-90758644D01*
X138495244Y-90940968D01*
X138432009Y-91135582D01*
X138400000Y-91337682D01*
X132932984Y-91337682D01*
X132670609Y-91075307D01*
X132670605Y-91075304D01*
X132559975Y-91001383D01*
X132559965Y-91001378D01*
X132437036Y-90950459D01*
X132437028Y-90950457D01*
X132306535Y-90924500D01*
X132306531Y-90924500D01*
X125639907Y-90924500D01*
X125572868Y-90904815D01*
X125539588Y-90873384D01*
X125451969Y-90752784D01*
X125307213Y-90608028D01*
X125169696Y-90508117D01*
X125169673Y-90508102D01*
X125141609Y-90487712D01*
X124959223Y-90394781D01*
X124764534Y-90331522D01*
X124589995Y-90303878D01*
X124562352Y-90299500D01*
X124357648Y-90299500D01*
X124333329Y-90303351D01*
X124155465Y-90331522D01*
X123960776Y-90394781D01*
X123778386Y-90487715D01*
X123612786Y-90608028D01*
X123468028Y-90752786D01*
X123347715Y-90918386D01*
X123254781Y-91100776D01*
X123191522Y-91295465D01*
X123159500Y-91497648D01*
X123159500Y-91702351D01*
X123191522Y-91904534D01*
X123254781Y-92099223D01*
X123347715Y-92281613D01*
X123468028Y-92447213D01*
X123612786Y-92591971D01*
X123753034Y-92693865D01*
X123778390Y-92712287D01*
X123872395Y-92760185D01*
X123960776Y-92805218D01*
X123960778Y-92805218D01*
X123960781Y-92805220D01*
X123992343Y-92815475D01*
X124155465Y-92868477D01*
X124256557Y-92884488D01*
X124357648Y-92900500D01*
X124357649Y-92900500D01*
X124562351Y-92900500D01*
X124562352Y-92900500D01*
X124764534Y-92868477D01*
X124959219Y-92805220D01*
X125141610Y-92712287D01*
X125296829Y-92599515D01*
X125307213Y-92591971D01*
X125307215Y-92591968D01*
X125307219Y-92591966D01*
X125451966Y-92447219D01*
X125539589Y-92326615D01*
X125594918Y-92283949D01*
X125639907Y-92275500D01*
X131908837Y-92275500D01*
X131975876Y-92295185D01*
X131996518Y-92311819D01*
X133308028Y-93623329D01*
X133341513Y-93684652D01*
X133342820Y-93730407D01*
X133319500Y-93877647D01*
X133319500Y-94082351D01*
X133351522Y-94284534D01*
X133414781Y-94479223D01*
X133478691Y-94604653D01*
X133507585Y-94661359D01*
X133507715Y-94661613D01*
X133628028Y-94827213D01*
X133772784Y-94971969D01*
X133848073Y-95026668D01*
X133893384Y-95059589D01*
X133936051Y-95114918D01*
X133944500Y-95159907D01*
X133944500Y-99126535D01*
X133970457Y-99257028D01*
X133970459Y-99257036D01*
X134021378Y-99379965D01*
X134021383Y-99379975D01*
X134095304Y-99490605D01*
X134095307Y-99490609D01*
X135848028Y-101243329D01*
X135881513Y-101304652D01*
X135882820Y-101350407D01*
X135859500Y-101497647D01*
X135859500Y-101702351D01*
X135891522Y-101904534D01*
X135954781Y-102099223D01*
X136047715Y-102281613D01*
X136168028Y-102447213D01*
X136312786Y-102591971D01*
X136467749Y-102704556D01*
X136478390Y-102712287D01*
X136594607Y-102771503D01*
X136660776Y-102805218D01*
X136660778Y-102805218D01*
X136660781Y-102805220D01*
X136765137Y-102839127D01*
X136855465Y-102868477D01*
X136910407Y-102877179D01*
X137057648Y-102900500D01*
X137057649Y-102900500D01*
X137144836Y-102900500D01*
X137211875Y-102920185D01*
X137257630Y-102972989D01*
X137267574Y-103042147D01*
X137238549Y-103105703D01*
X137232517Y-103112181D01*
X121676518Y-118668181D01*
X121615195Y-118701666D01*
X121588837Y-118704500D01*
X118019907Y-118704500D01*
X117952868Y-118684815D01*
X117919588Y-118653384D01*
X117831969Y-118532784D01*
X117687213Y-118388028D01*
X117521613Y-118267715D01*
X117521612Y-118267714D01*
X117521610Y-118267713D01*
X117464653Y-118238691D01*
X117339223Y-118174781D01*
X117144534Y-118111522D01*
X116969995Y-118083878D01*
X116942352Y-118079500D01*
X116737648Y-118079500D01*
X116713329Y-118083351D01*
X116535465Y-118111522D01*
X116340776Y-118174781D01*
X116158386Y-118267715D01*
X115992786Y-118388028D01*
X115848028Y-118532786D01*
X115727715Y-118698386D01*
X115634781Y-118880776D01*
X115571522Y-119075465D01*
X115539500Y-119277648D01*
X115539500Y-119482351D01*
X115571522Y-119684534D01*
X115634781Y-119879223D01*
X115685425Y-119978616D01*
X115724599Y-120055499D01*
X115727715Y-120061613D01*
X115848028Y-120227213D01*
X115992784Y-120371969D01*
X116068073Y-120426668D01*
X116113384Y-120459589D01*
X116156051Y-120514918D01*
X116164500Y-120559907D01*
X116164500Y-123280092D01*
X116144815Y-123347131D01*
X116113385Y-123380410D01*
X115992786Y-123468028D01*
X115848028Y-123612786D01*
X115727715Y-123778386D01*
X115634781Y-123960776D01*
X115571522Y-124155465D01*
X115539500Y-124357648D01*
X115539500Y-124562351D01*
X115571522Y-124764534D01*
X115634781Y-124959223D01*
X115727715Y-125141613D01*
X115848028Y-125307213D01*
X115992786Y-125451971D01*
X116136251Y-125556202D01*
X116158390Y-125572287D01*
X116274607Y-125631503D01*
X116340776Y-125665218D01*
X116340778Y-125665218D01*
X116340781Y-125665220D01*
X116445137Y-125699127D01*
X116535465Y-125728477D01*
X116636557Y-125744488D01*
X116737648Y-125760500D01*
X116737649Y-125760500D01*
X116942351Y-125760500D01*
X116942352Y-125760500D01*
X117144534Y-125728477D01*
X117339219Y-125665220D01*
X117521610Y-125572287D01*
X117621794Y-125499500D01*
X117687213Y-125451971D01*
X117687215Y-125451968D01*
X117687219Y-125451966D01*
X117831966Y-125307219D01*
X117831968Y-125307215D01*
X117831971Y-125307213D01*
X117884732Y-125234590D01*
X117952287Y-125141610D01*
X118045220Y-124959219D01*
X118108477Y-124764534D01*
X118140500Y-124562352D01*
X118140500Y-124357648D01*
X118108477Y-124155466D01*
X118045220Y-123960781D01*
X118045218Y-123960778D01*
X118045218Y-123960776D01*
X118011503Y-123894607D01*
X117952287Y-123778390D01*
X117944556Y-123767749D01*
X117831971Y-123612786D01*
X117687213Y-123468028D01*
X117566615Y-123380410D01*
X117523949Y-123325081D01*
X117515500Y-123280092D01*
X117515500Y-120559907D01*
X117535185Y-120492868D01*
X117566614Y-120459589D01*
X117687219Y-120371966D01*
X117831966Y-120227219D01*
X117919589Y-120106615D01*
X117974918Y-120063949D01*
X118019907Y-120055500D01*
X121986532Y-120055500D01*
X121986533Y-120055499D01*
X122117036Y-120029541D01*
X122239969Y-119978620D01*
X122350606Y-119904695D01*
X135647819Y-106607480D01*
X135709142Y-106573996D01*
X135778834Y-106578980D01*
X135834767Y-106620852D01*
X135859184Y-106686316D01*
X135859500Y-106695162D01*
X135859500Y-106782351D01*
X135891522Y-106984534D01*
X135954781Y-107179223D01*
X136047715Y-107361613D01*
X136168028Y-107527213D01*
X136312786Y-107671971D01*
X136467749Y-107784556D01*
X136478390Y-107792287D01*
X136594607Y-107851503D01*
X136660776Y-107885218D01*
X136660778Y-107885218D01*
X136660781Y-107885220D01*
X136765137Y-107919127D01*
X136855465Y-107948477D01*
X136956557Y-107964488D01*
X137057648Y-107980500D01*
X137057649Y-107980500D01*
X137262351Y-107980500D01*
X137262352Y-107980500D01*
X137464534Y-107948477D01*
X137464539Y-107948475D01*
X137464541Y-107948475D01*
X137498180Y-107937545D01*
X137568021Y-107935548D01*
X137627854Y-107971628D01*
X137658684Y-108034328D01*
X137660500Y-108055475D01*
X137660500Y-111792836D01*
X137640815Y-111859875D01*
X137624181Y-111880517D01*
X126356669Y-123148028D01*
X126295346Y-123181513D01*
X126249590Y-123182820D01*
X126133730Y-123164469D01*
X126102352Y-123159500D01*
X125897648Y-123159500D01*
X125873329Y-123163351D01*
X125695465Y-123191522D01*
X125500776Y-123254781D01*
X125318386Y-123347715D01*
X125152786Y-123468028D01*
X125008028Y-123612786D01*
X124887715Y-123778386D01*
X124794781Y-123960776D01*
X124731522Y-124155465D01*
X124699500Y-124357648D01*
X124699500Y-124562351D01*
X124731522Y-124764534D01*
X124794781Y-124959223D01*
X124887715Y-125141613D01*
X125008028Y-125307213D01*
X125152786Y-125451971D01*
X125296251Y-125556202D01*
X125318390Y-125572287D01*
X125434607Y-125631503D01*
X125500776Y-125665218D01*
X125500778Y-125665218D01*
X125500781Y-125665220D01*
X125605137Y-125699127D01*
X125695465Y-125728477D01*
X125796557Y-125744488D01*
X125897648Y-125760500D01*
X125897649Y-125760500D01*
X126102351Y-125760500D01*
X126102352Y-125760500D01*
X126304534Y-125728477D01*
X126499219Y-125665220D01*
X126681610Y-125572287D01*
X126781794Y-125499500D01*
X126847213Y-125451971D01*
X126847215Y-125451968D01*
X126847219Y-125451966D01*
X126991966Y-125307219D01*
X126991968Y-125307215D01*
X126991971Y-125307213D01*
X127044732Y-125234590D01*
X127112287Y-125141610D01*
X127205220Y-124959219D01*
X127268477Y-124764534D01*
X127300500Y-124562352D01*
X127300500Y-124357648D01*
X127277179Y-124210407D01*
X127286134Y-124141114D01*
X127311968Y-124103331D01*
X137795321Y-113619979D01*
X137856642Y-113586496D01*
X137926334Y-113591480D01*
X137982267Y-113633352D01*
X138006684Y-113698816D01*
X138007000Y-113707662D01*
X138007000Y-115347870D01*
X138007001Y-115347876D01*
X138013408Y-115407483D01*
X138063702Y-115542328D01*
X138063706Y-115542335D01*
X138149952Y-115657544D01*
X138149955Y-115657547D01*
X138265164Y-115743793D01*
X138265171Y-115743797D01*
X138400017Y-115794091D01*
X138400016Y-115794091D01*
X138406944Y-115794835D01*
X138459627Y-115800500D01*
X140460372Y-115800499D01*
X140519983Y-115794091D01*
X140654831Y-115743796D01*
X140770046Y-115657546D01*
X140856296Y-115542331D01*
X140866690Y-115514460D01*
X140882013Y-115493992D01*
X140893946Y-115471375D01*
X140902603Y-115466485D01*
X140908561Y-115458527D01*
X140932518Y-115449590D01*
X140954784Y-115437016D01*
X140964709Y-115437583D01*
X140974024Y-115434109D01*
X140999008Y-115439543D01*
X141024540Y-115441003D01*
X141037743Y-115447969D01*
X141042298Y-115448960D01*
X141055755Y-115457472D01*
X141073384Y-115470280D01*
X141116050Y-115525608D01*
X141124500Y-115570599D01*
X141124500Y-143765500D01*
X141104815Y-143832539D01*
X141052011Y-143878294D01*
X141000501Y-143889500D01*
X140807130Y-143889500D01*
X140807123Y-143889501D01*
X140747516Y-143895908D01*
X140612671Y-143946202D01*
X140612664Y-143946206D01*
X140497455Y-144032452D01*
X140497452Y-144032455D01*
X140411206Y-144147664D01*
X140411202Y-144147671D01*
X140360908Y-144282517D01*
X140354501Y-144342116D01*
X140354501Y-144342123D01*
X140354500Y-144342135D01*
X140354500Y-149517870D01*
X140354501Y-149517876D01*
X140360908Y-149577483D01*
X140403869Y-149692667D01*
X140408853Y-149762359D01*
X140375367Y-149823682D01*
X140314044Y-149857166D01*
X140287687Y-149860000D01*
X139396779Y-149860000D01*
X139329740Y-149840315D01*
X139283985Y-149787511D01*
X139274041Y-149718353D01*
X139280597Y-149692667D01*
X139323596Y-149577379D01*
X139323598Y-149577372D01*
X139329999Y-149517844D01*
X139330000Y-149517827D01*
X139330000Y-147180000D01*
X135910000Y-147180000D01*
X135910000Y-149517844D01*
X135916401Y-149577372D01*
X135916403Y-149577379D01*
X135959403Y-149692667D01*
X135964387Y-149762358D01*
X135930902Y-149823681D01*
X135869579Y-149857166D01*
X135843221Y-149860000D01*
X132156779Y-149860000D01*
X132089740Y-149840315D01*
X132043985Y-149787511D01*
X132034041Y-149718353D01*
X132040597Y-149692667D01*
X132083596Y-149577379D01*
X132083598Y-149577372D01*
X132089999Y-149517844D01*
X132090000Y-149517827D01*
X132090000Y-147180000D01*
X128670000Y-147180000D01*
X128670000Y-149517844D01*
X128676401Y-149577372D01*
X128676403Y-149577379D01*
X128719403Y-149692667D01*
X128724387Y-149762358D01*
X128690902Y-149823681D01*
X128629579Y-149857166D01*
X128603221Y-149860000D01*
X127712313Y-149860000D01*
X127645274Y-149840315D01*
X127599519Y-149787511D01*
X127589575Y-149718353D01*
X127596131Y-149692667D01*
X127639091Y-149577483D01*
X127641785Y-149552422D01*
X127645500Y-149517873D01*
X127645499Y-144342155D01*
X128670000Y-144342155D01*
X128670000Y-146680000D01*
X132090000Y-146680000D01*
X132090000Y-144342172D01*
X132089999Y-144342155D01*
X135910000Y-144342155D01*
X135910000Y-146680000D01*
X139330000Y-146680000D01*
X139330000Y-144342172D01*
X139329999Y-144342155D01*
X139323598Y-144282627D01*
X139323596Y-144282620D01*
X139273354Y-144147913D01*
X139273350Y-144147906D01*
X139187190Y-144032812D01*
X139187187Y-144032809D01*
X139072093Y-143946649D01*
X139072086Y-143946645D01*
X138937379Y-143896403D01*
X138937372Y-143896401D01*
X138877844Y-143890000D01*
X138695827Y-143890000D01*
X138628788Y-143870315D01*
X138583033Y-143817511D01*
X138573089Y-143748353D01*
X138574210Y-143741809D01*
X138604999Y-143587018D01*
X138605000Y-143587016D01*
X138605000Y-143392983D01*
X138604999Y-143392981D01*
X138567148Y-143202693D01*
X138567145Y-143202681D01*
X138492898Y-143023431D01*
X138471758Y-142991794D01*
X137884457Y-143579095D01*
X137823134Y-143612580D01*
X137818319Y-143612235D01*
X137850000Y-143535750D01*
X137850000Y-143444250D01*
X137814985Y-143359715D01*
X137750285Y-143295015D01*
X137665750Y-143260000D01*
X137574250Y-143260000D01*
X137489715Y-143295015D01*
X137425015Y-143359715D01*
X137390000Y-143444250D01*
X137390000Y-143535750D01*
X137420366Y-143609061D01*
X137399889Y-143607597D01*
X137355542Y-143579096D01*
X136768240Y-142991794D01*
X136747104Y-143023426D01*
X136747103Y-143023428D01*
X136672853Y-143202685D01*
X136672851Y-143202693D01*
X136635000Y-143392981D01*
X136635000Y-143587018D01*
X136665790Y-143741809D01*
X136659563Y-143811400D01*
X136616700Y-143866578D01*
X136550810Y-143889822D01*
X136544173Y-143890000D01*
X136362155Y-143890000D01*
X136302627Y-143896401D01*
X136302620Y-143896403D01*
X136167913Y-143946645D01*
X136167906Y-143946649D01*
X136052812Y-144032809D01*
X136052809Y-144032812D01*
X135966649Y-144147906D01*
X135966645Y-144147913D01*
X135916403Y-144282620D01*
X135916401Y-144282627D01*
X135910000Y-144342155D01*
X132089999Y-144342155D01*
X132083598Y-144282627D01*
X132083596Y-144282620D01*
X132033354Y-144147913D01*
X132033350Y-144147906D01*
X131947190Y-144032812D01*
X131947187Y-144032809D01*
X131832093Y-143946649D01*
X131832086Y-143946645D01*
X131697379Y-143896403D01*
X131697372Y-143896401D01*
X131637844Y-143890000D01*
X131455827Y-143890000D01*
X131388788Y-143870315D01*
X131343033Y-143817511D01*
X131333089Y-143748353D01*
X131334210Y-143741809D01*
X131364999Y-143587018D01*
X131365000Y-143587016D01*
X131365000Y-143392983D01*
X131364999Y-143392981D01*
X131327148Y-143202693D01*
X131327145Y-143202681D01*
X131252898Y-143023431D01*
X131231758Y-142991794D01*
X130644457Y-143579095D01*
X130583134Y-143612580D01*
X130578319Y-143612235D01*
X130610000Y-143535750D01*
X130610000Y-143444250D01*
X130574985Y-143359715D01*
X130510285Y-143295015D01*
X130425750Y-143260000D01*
X130334250Y-143260000D01*
X130249715Y-143295015D01*
X130185015Y-143359715D01*
X130150000Y-143444250D01*
X130150000Y-143535750D01*
X130180366Y-143609061D01*
X130159889Y-143607597D01*
X130115542Y-143579096D01*
X129528240Y-142991794D01*
X129507104Y-143023426D01*
X129507103Y-143023428D01*
X129432853Y-143202685D01*
X129432851Y-143202693D01*
X129395000Y-143392981D01*
X129395000Y-143587018D01*
X129425790Y-143741809D01*
X129419563Y-143811400D01*
X129376700Y-143866578D01*
X129310810Y-143889822D01*
X129304173Y-143890000D01*
X129122155Y-143890000D01*
X129062627Y-143896401D01*
X129062620Y-143896403D01*
X128927913Y-143946645D01*
X128927906Y-143946649D01*
X128812812Y-144032809D01*
X128812809Y-144032812D01*
X128726649Y-144147906D01*
X128726645Y-144147913D01*
X128676403Y-144282620D01*
X128676401Y-144282627D01*
X128670000Y-144342155D01*
X127645499Y-144342155D01*
X127645499Y-144342128D01*
X127639091Y-144282517D01*
X127588884Y-144147906D01*
X127588797Y-144147671D01*
X127588793Y-144147664D01*
X127502547Y-144032455D01*
X127502544Y-144032452D01*
X127387335Y-143946206D01*
X127387328Y-143946202D01*
X127252482Y-143895908D01*
X127252483Y-143895908D01*
X127192883Y-143889501D01*
X127192881Y-143889500D01*
X127192873Y-143889500D01*
X127192865Y-143889500D01*
X126874500Y-143889500D01*
X126807461Y-143869815D01*
X126761706Y-143817011D01*
X126750500Y-143765500D01*
X126750500Y-142638240D01*
X129881794Y-142638240D01*
X130380000Y-143136446D01*
X130380001Y-143136446D01*
X130878205Y-142638240D01*
X137121794Y-142638240D01*
X137620000Y-143136446D01*
X137620001Y-143136446D01*
X138118205Y-142638241D01*
X138118204Y-142638240D01*
X138086575Y-142617106D01*
X138086568Y-142617102D01*
X137907314Y-142542853D01*
X137907306Y-142542851D01*
X137717017Y-142505000D01*
X137522983Y-142505000D01*
X137332693Y-142542851D01*
X137332685Y-142542853D01*
X137153428Y-142617103D01*
X137153426Y-142617104D01*
X137121794Y-142638240D01*
X130878205Y-142638240D01*
X130846575Y-142617106D01*
X130846568Y-142617102D01*
X130667314Y-142542853D01*
X130667306Y-142542851D01*
X130477017Y-142505000D01*
X130282983Y-142505000D01*
X130092693Y-142542851D01*
X130092685Y-142542853D01*
X129913428Y-142617103D01*
X129913426Y-142617104D01*
X129881794Y-142638240D01*
X126750500Y-142638240D01*
X126750500Y-135745416D01*
X126770185Y-135678377D01*
X126801613Y-135645099D01*
X126847219Y-135611966D01*
X126991966Y-135467219D01*
X126991968Y-135467215D01*
X126991971Y-135467213D01*
X127044732Y-135394590D01*
X127112287Y-135301610D01*
X127205220Y-135119219D01*
X127268477Y-134924534D01*
X127300500Y-134722352D01*
X127300500Y-134517648D01*
X127268477Y-134315466D01*
X127205220Y-134120781D01*
X127205218Y-134120778D01*
X127205218Y-134120776D01*
X127171503Y-134054607D01*
X127112287Y-133938390D01*
X127057255Y-133862644D01*
X126991971Y-133772786D01*
X126847213Y-133628028D01*
X126681613Y-133507715D01*
X126681612Y-133507714D01*
X126681610Y-133507713D01*
X126624653Y-133478691D01*
X126499223Y-133414781D01*
X126304534Y-133351522D01*
X126129995Y-133323878D01*
X126102352Y-133319500D01*
X125897648Y-133319500D01*
X125873329Y-133323351D01*
X125695465Y-133351522D01*
X125500776Y-133414781D01*
X125318386Y-133507715D01*
X125152786Y-133628028D01*
X125008028Y-133772786D01*
X124887715Y-133938386D01*
X124794781Y-134120776D01*
X124731522Y-134315465D01*
X124699500Y-134517648D01*
X124699500Y-134722351D01*
X124731522Y-134924534D01*
X124794781Y-135119223D01*
X124887715Y-135301613D01*
X125008028Y-135467213D01*
X125008034Y-135467219D01*
X125152781Y-135611966D01*
X125198384Y-135645098D01*
X125241050Y-135700425D01*
X125249500Y-135745416D01*
X125249500Y-143765500D01*
X125229815Y-143832539D01*
X125177011Y-143878294D01*
X125125500Y-143889500D01*
X124807130Y-143889500D01*
X124807123Y-143889501D01*
X124747516Y-143895908D01*
X124612671Y-143946202D01*
X124612664Y-143946206D01*
X124497455Y-144032452D01*
X124497452Y-144032455D01*
X124411206Y-144147664D01*
X124411202Y-144147671D01*
X124360908Y-144282517D01*
X124354501Y-144342116D01*
X124354501Y-144342123D01*
X124354500Y-144342135D01*
X124354500Y-149517870D01*
X124354501Y-149517876D01*
X124360908Y-149577483D01*
X124403869Y-149692667D01*
X124408853Y-149762359D01*
X124375367Y-149823682D01*
X124314044Y-149857166D01*
X124287687Y-149860000D01*
X123396779Y-149860000D01*
X123329740Y-149840315D01*
X123283985Y-149787511D01*
X123274041Y-149718353D01*
X123280597Y-149692667D01*
X123323596Y-149577379D01*
X123323598Y-149577372D01*
X123329999Y-149517844D01*
X123330000Y-149517827D01*
X123330000Y-147180000D01*
X119910000Y-147180000D01*
X119910000Y-149517844D01*
X119916401Y-149577372D01*
X119916403Y-149577379D01*
X119959403Y-149692667D01*
X119964387Y-149762358D01*
X119930902Y-149823681D01*
X119869579Y-149857166D01*
X119843221Y-149860000D01*
X116156779Y-149860000D01*
X116089740Y-149840315D01*
X116043985Y-149787511D01*
X116034041Y-149718353D01*
X116040597Y-149692667D01*
X116083596Y-149577379D01*
X116083598Y-149577372D01*
X116089999Y-149517844D01*
X116090000Y-149517827D01*
X116090000Y-147180000D01*
X112670000Y-147180000D01*
X112670000Y-149517844D01*
X112676401Y-149577372D01*
X112676403Y-149577379D01*
X112719403Y-149692667D01*
X112724387Y-149762358D01*
X112690902Y-149823681D01*
X112629579Y-149857166D01*
X112603221Y-149860000D01*
X111712313Y-149860000D01*
X111645274Y-149840315D01*
X111599519Y-149787511D01*
X111589575Y-149718353D01*
X111596131Y-149692667D01*
X111639091Y-149577483D01*
X111641785Y-149552422D01*
X111645500Y-149517873D01*
X111645499Y-144342155D01*
X112670000Y-144342155D01*
X112670000Y-146680000D01*
X116090000Y-146680000D01*
X116090000Y-144342172D01*
X116089999Y-144342155D01*
X119910000Y-144342155D01*
X119910000Y-146680000D01*
X123330000Y-146680000D01*
X123330000Y-144342172D01*
X123329999Y-144342155D01*
X123323598Y-144282627D01*
X123323596Y-144282620D01*
X123273354Y-144147913D01*
X123273350Y-144147906D01*
X123187190Y-144032812D01*
X123187187Y-144032809D01*
X123072093Y-143946649D01*
X123072086Y-143946645D01*
X122937379Y-143896403D01*
X122937372Y-143896401D01*
X122877844Y-143890000D01*
X122695827Y-143890000D01*
X122628788Y-143870315D01*
X122583033Y-143817511D01*
X122573089Y-143748353D01*
X122574210Y-143741809D01*
X122604999Y-143587018D01*
X122605000Y-143587016D01*
X122605000Y-143392983D01*
X122604999Y-143392981D01*
X122567148Y-143202693D01*
X122567145Y-143202681D01*
X122492898Y-143023431D01*
X122471758Y-142991794D01*
X121884457Y-143579095D01*
X121823134Y-143612580D01*
X121818319Y-143612235D01*
X121850000Y-143535750D01*
X121850000Y-143444250D01*
X121814985Y-143359715D01*
X121750285Y-143295015D01*
X121665750Y-143260000D01*
X121574250Y-143260000D01*
X121489715Y-143295015D01*
X121425015Y-143359715D01*
X121390000Y-143444250D01*
X121390000Y-143535750D01*
X121420366Y-143609061D01*
X121399889Y-143607597D01*
X121355542Y-143579096D01*
X120768240Y-142991794D01*
X120747104Y-143023426D01*
X120747103Y-143023428D01*
X120672853Y-143202685D01*
X120672851Y-143202693D01*
X120635000Y-143392981D01*
X120635000Y-143587018D01*
X120665790Y-143741809D01*
X120659563Y-143811400D01*
X120616700Y-143866578D01*
X120550810Y-143889822D01*
X120544173Y-143890000D01*
X120362155Y-143890000D01*
X120302627Y-143896401D01*
X120302620Y-143896403D01*
X120167913Y-143946645D01*
X120167906Y-143946649D01*
X120052812Y-144032809D01*
X120052809Y-144032812D01*
X119966649Y-144147906D01*
X119966645Y-144147913D01*
X119916403Y-144282620D01*
X119916401Y-144282627D01*
X119910000Y-144342155D01*
X116089999Y-144342155D01*
X116083598Y-144282627D01*
X116083596Y-144282620D01*
X116033354Y-144147913D01*
X116033350Y-144147906D01*
X115947190Y-144032812D01*
X115947187Y-144032809D01*
X115832093Y-143946649D01*
X115832086Y-143946645D01*
X115697379Y-143896403D01*
X115697372Y-143896401D01*
X115637844Y-143890000D01*
X115455827Y-143890000D01*
X115388788Y-143870315D01*
X115343033Y-143817511D01*
X115333089Y-143748353D01*
X115334210Y-143741809D01*
X115364999Y-143587018D01*
X115365000Y-143587016D01*
X115365000Y-143392983D01*
X115364999Y-143392981D01*
X115327148Y-143202693D01*
X115327145Y-143202681D01*
X115252898Y-143023431D01*
X115231758Y-142991794D01*
X114644457Y-143579095D01*
X114583134Y-143612580D01*
X114578319Y-143612235D01*
X114610000Y-143535750D01*
X114610000Y-143444250D01*
X114574985Y-143359715D01*
X114510285Y-143295015D01*
X114425750Y-143260000D01*
X114334250Y-143260000D01*
X114249715Y-143295015D01*
X114185015Y-143359715D01*
X114150000Y-143444250D01*
X114150000Y-143535750D01*
X114180366Y-143609061D01*
X114159889Y-143607597D01*
X114115542Y-143579096D01*
X113528240Y-142991794D01*
X113507104Y-143023426D01*
X113507103Y-143023428D01*
X113432853Y-143202685D01*
X113432851Y-143202693D01*
X113395000Y-143392981D01*
X113395000Y-143587018D01*
X113425790Y-143741809D01*
X113419563Y-143811400D01*
X113376700Y-143866578D01*
X113310810Y-143889822D01*
X113304173Y-143890000D01*
X113122155Y-143890000D01*
X113062627Y-143896401D01*
X113062620Y-143896403D01*
X112927913Y-143946645D01*
X112927906Y-143946649D01*
X112812812Y-144032809D01*
X112812809Y-144032812D01*
X112726649Y-144147906D01*
X112726645Y-144147913D01*
X112676403Y-144282620D01*
X112676401Y-144282627D01*
X112670000Y-144342155D01*
X111645499Y-144342155D01*
X111645499Y-144342128D01*
X111639091Y-144282517D01*
X111588884Y-144147906D01*
X111588797Y-144147671D01*
X111588793Y-144147664D01*
X111502547Y-144032455D01*
X111502544Y-144032452D01*
X111387335Y-143946206D01*
X111387328Y-143946202D01*
X111252482Y-143895908D01*
X111252483Y-143895908D01*
X111192883Y-143889501D01*
X111192881Y-143889500D01*
X111192873Y-143889500D01*
X111192865Y-143889500D01*
X110799500Y-143889500D01*
X110732461Y-143869815D01*
X110686706Y-143817011D01*
X110675500Y-143765500D01*
X110675500Y-142638240D01*
X113881794Y-142638240D01*
X114380000Y-143136446D01*
X114380001Y-143136446D01*
X114878205Y-142638240D01*
X121121794Y-142638240D01*
X121620000Y-143136446D01*
X121620001Y-143136446D01*
X122118205Y-142638241D01*
X122118204Y-142638240D01*
X122086575Y-142617106D01*
X122086568Y-142617102D01*
X121907314Y-142542853D01*
X121907306Y-142542851D01*
X121717017Y-142505000D01*
X121522983Y-142505000D01*
X121332693Y-142542851D01*
X121332685Y-142542853D01*
X121153428Y-142617103D01*
X121153426Y-142617104D01*
X121121794Y-142638240D01*
X114878205Y-142638240D01*
X114846575Y-142617106D01*
X114846568Y-142617102D01*
X114667314Y-142542853D01*
X114667306Y-142542851D01*
X114477017Y-142505000D01*
X114282983Y-142505000D01*
X114092693Y-142542851D01*
X114092685Y-142542853D01*
X113913428Y-142617103D01*
X113913426Y-142617104D01*
X113881794Y-142638240D01*
X110675500Y-142638240D01*
X110675500Y-141791162D01*
X110695185Y-141724123D01*
X110711814Y-141703486D01*
X116483330Y-135931969D01*
X116544651Y-135898486D01*
X116590407Y-135897179D01*
X116737648Y-135920500D01*
X116737649Y-135920500D01*
X116942351Y-135920500D01*
X116942352Y-135920500D01*
X117144534Y-135888477D01*
X117339219Y-135825220D01*
X117521610Y-135732287D01*
X117641619Y-135645096D01*
X117687213Y-135611971D01*
X117687215Y-135611968D01*
X117687219Y-135611966D01*
X117831966Y-135467219D01*
X117831968Y-135467215D01*
X117831971Y-135467213D01*
X117884732Y-135394590D01*
X117952287Y-135301610D01*
X118045220Y-135119219D01*
X118108477Y-134924534D01*
X118140500Y-134722352D01*
X118140500Y-134517648D01*
X118108477Y-134315466D01*
X118045220Y-134120781D01*
X118045218Y-134120778D01*
X118045218Y-134120776D01*
X118011503Y-134054607D01*
X117952287Y-133938390D01*
X117897255Y-133862644D01*
X117831971Y-133772786D01*
X117687213Y-133628028D01*
X117521613Y-133507715D01*
X117521612Y-133507714D01*
X117521610Y-133507713D01*
X117464653Y-133478691D01*
X117339223Y-133414781D01*
X117144534Y-133351522D01*
X116969995Y-133323878D01*
X116942352Y-133319500D01*
X116737648Y-133319500D01*
X116713329Y-133323351D01*
X116535465Y-133351522D01*
X116340776Y-133414781D01*
X116158386Y-133507715D01*
X115992786Y-133628028D01*
X115848028Y-133772786D01*
X115727715Y-133938386D01*
X115634781Y-134120776D01*
X115571522Y-134315465D01*
X115539500Y-134517648D01*
X115539500Y-134722351D01*
X115562820Y-134869590D01*
X115553865Y-134938884D01*
X115528028Y-134976669D01*
X109475307Y-141029390D01*
X109475304Y-141029394D01*
X109401383Y-141140024D01*
X109401378Y-141140034D01*
X109350459Y-141262963D01*
X109350457Y-141262971D01*
X109324500Y-141393464D01*
X109324500Y-143765500D01*
X109304815Y-143832539D01*
X109252011Y-143878294D01*
X109200500Y-143889500D01*
X108807129Y-143889500D01*
X108807123Y-143889501D01*
X108747516Y-143895908D01*
X108612671Y-143946202D01*
X108612664Y-143946206D01*
X108497455Y-144032452D01*
X108497452Y-144032455D01*
X108411206Y-144147664D01*
X108411202Y-144147671D01*
X108360908Y-144282517D01*
X108354501Y-144342116D01*
X108354501Y-144342123D01*
X108354500Y-144342135D01*
X108354500Y-149517870D01*
X108354501Y-149517876D01*
X108360908Y-149577483D01*
X108403869Y-149692667D01*
X108408853Y-149762359D01*
X108375367Y-149823682D01*
X108314044Y-149857166D01*
X108287687Y-149860000D01*
X107396779Y-149860000D01*
X107329740Y-149840315D01*
X107283985Y-149787511D01*
X107274041Y-149718353D01*
X107280597Y-149692667D01*
X107323596Y-149577379D01*
X107323598Y-149577372D01*
X107329999Y-149517844D01*
X107330000Y-149517827D01*
X107330000Y-147180000D01*
X103910000Y-147180000D01*
X103910000Y-149517844D01*
X103916401Y-149577372D01*
X103916403Y-149577379D01*
X103959403Y-149692667D01*
X103964387Y-149762358D01*
X103930902Y-149823681D01*
X103869579Y-149857166D01*
X103843221Y-149860000D01*
X101706111Y-149860000D01*
X101704754Y-149859793D01*
X101704068Y-149859983D01*
X101669221Y-149854385D01*
X101629967Y-149842153D01*
X101619400Y-149838327D01*
X101584122Y-149823713D01*
X101580688Y-149822230D01*
X101345474Y-149716369D01*
X101334347Y-149710670D01*
X101333116Y-149709959D01*
X101330984Y-149708699D01*
X101168667Y-149610575D01*
X101086537Y-149560926D01*
X101074217Y-149552422D01*
X101030122Y-149517876D01*
X100848426Y-149375526D01*
X100837218Y-149365596D01*
X100634403Y-149162781D01*
X100624473Y-149151573D01*
X100447577Y-148925782D01*
X100439075Y-148913465D01*
X100291280Y-148668983D01*
X100290016Y-148666842D01*
X100289301Y-148665603D01*
X100283626Y-148654517D01*
X100283617Y-148654497D01*
X100177747Y-148419265D01*
X100176312Y-148415944D01*
X100161671Y-148380596D01*
X100157849Y-148370039D01*
X100086210Y-148140143D01*
X100084828Y-148135375D01*
X100070679Y-148082569D01*
X100068494Y-148072866D01*
X100026616Y-147844348D01*
X100025662Y-147838283D01*
X100017534Y-147776547D01*
X100016704Y-147767901D01*
X100000726Y-147503736D01*
X100000500Y-147496250D01*
X100000500Y-144342155D01*
X103910000Y-144342155D01*
X103910000Y-146680000D01*
X107330000Y-146680000D01*
X107330000Y-144342172D01*
X107329999Y-144342155D01*
X107323598Y-144282627D01*
X107323596Y-144282620D01*
X107273354Y-144147913D01*
X107273350Y-144147906D01*
X107187190Y-144032812D01*
X107187187Y-144032809D01*
X107072093Y-143946649D01*
X107072086Y-143946645D01*
X106937379Y-143896403D01*
X106937372Y-143896401D01*
X106877844Y-143890000D01*
X106695827Y-143890000D01*
X106628788Y-143870315D01*
X106583033Y-143817511D01*
X106573089Y-143748353D01*
X106574210Y-143741809D01*
X106604999Y-143587018D01*
X106605000Y-143587016D01*
X106605000Y-143392983D01*
X106604999Y-143392981D01*
X106567148Y-143202693D01*
X106567145Y-143202681D01*
X106492898Y-143023431D01*
X106471758Y-142991794D01*
X105884457Y-143579095D01*
X105823134Y-143612580D01*
X105818319Y-143612235D01*
X105850000Y-143535750D01*
X105850000Y-143444250D01*
X105814985Y-143359715D01*
X105750285Y-143295015D01*
X105665750Y-143260000D01*
X105574250Y-143260000D01*
X105489715Y-143295015D01*
X105425015Y-143359715D01*
X105390000Y-143444250D01*
X105390000Y-143535750D01*
X105420366Y-143609061D01*
X105399889Y-143607597D01*
X105355542Y-143579096D01*
X104768240Y-142991794D01*
X104747104Y-143023426D01*
X104747103Y-143023428D01*
X104672853Y-143202685D01*
X104672851Y-143202693D01*
X104635000Y-143392981D01*
X104635000Y-143587018D01*
X104665790Y-143741809D01*
X104659563Y-143811400D01*
X104616700Y-143866578D01*
X104550810Y-143889822D01*
X104544173Y-143890000D01*
X104362155Y-143890000D01*
X104302627Y-143896401D01*
X104302620Y-143896403D01*
X104167913Y-143946645D01*
X104167906Y-143946649D01*
X104052812Y-144032809D01*
X104052809Y-144032812D01*
X103966649Y-144147906D01*
X103966645Y-144147913D01*
X103916403Y-144282620D01*
X103916401Y-144282627D01*
X103910000Y-144342155D01*
X100000500Y-144342155D01*
X100000500Y-142638240D01*
X105121794Y-142638240D01*
X105620000Y-143136446D01*
X105620001Y-143136446D01*
X106118205Y-142638241D01*
X106118204Y-142638240D01*
X106086575Y-142617106D01*
X106086568Y-142617102D01*
X105907314Y-142542853D01*
X105907306Y-142542851D01*
X105717017Y-142505000D01*
X105522983Y-142505000D01*
X105332693Y-142542851D01*
X105332685Y-142542853D01*
X105153428Y-142617103D01*
X105153426Y-142617104D01*
X105121794Y-142638240D01*
X100000500Y-142638240D01*
X100000500Y-134878711D01*
X108149500Y-134878711D01*
X108149500Y-135121288D01*
X108181161Y-135361785D01*
X108243947Y-135596104D01*
X108336773Y-135820205D01*
X108336776Y-135820212D01*
X108458064Y-136030289D01*
X108458066Y-136030292D01*
X108458067Y-136030293D01*
X108605733Y-136222736D01*
X108605739Y-136222743D01*
X108777256Y-136394260D01*
X108777262Y-136394265D01*
X108969711Y-136541936D01*
X109179788Y-136663224D01*
X109403900Y-136756054D01*
X109638211Y-136818838D01*
X109818586Y-136842584D01*
X109878711Y-136850500D01*
X109878712Y-136850500D01*
X110121289Y-136850500D01*
X110169388Y-136844167D01*
X110361789Y-136818838D01*
X110596100Y-136756054D01*
X110820212Y-136663224D01*
X111030289Y-136541936D01*
X111222738Y-136394265D01*
X111394265Y-136222738D01*
X111541936Y-136030289D01*
X111663224Y-135820212D01*
X111756054Y-135596100D01*
X111818838Y-135361789D01*
X111850500Y-135121288D01*
X111850500Y-134878712D01*
X111818838Y-134638211D01*
X111756054Y-134403900D01*
X111663224Y-134179788D01*
X111541936Y-133969711D01*
X111394265Y-133777262D01*
X111394260Y-133777256D01*
X111222743Y-133605739D01*
X111222736Y-133605733D01*
X111030293Y-133458067D01*
X111030292Y-133458066D01*
X111030289Y-133458064D01*
X110820212Y-133336776D01*
X110737844Y-133302658D01*
X110596104Y-133243947D01*
X110361785Y-133181161D01*
X110121289Y-133149500D01*
X110121288Y-133149500D01*
X109878712Y-133149500D01*
X109878711Y-133149500D01*
X109638214Y-133181161D01*
X109403895Y-133243947D01*
X109179794Y-133336773D01*
X109179785Y-133336777D01*
X108969706Y-133458067D01*
X108777263Y-133605733D01*
X108777256Y-133605739D01*
X108605739Y-133777256D01*
X108605733Y-133777263D01*
X108458067Y-133969706D01*
X108336777Y-134179785D01*
X108336773Y-134179794D01*
X108243947Y-134403895D01*
X108181161Y-134638214D01*
X108149500Y-134878711D01*
X100000500Y-134878711D01*
X100000500Y-129289999D01*
X137458244Y-129289999D01*
X137458245Y-129290000D01*
X138591518Y-129290000D01*
X138580889Y-129308409D01*
X138540000Y-129461009D01*
X138540000Y-129618991D01*
X138580889Y-129771591D01*
X138591518Y-129790000D01*
X137458244Y-129790000D01*
X137469087Y-129872367D01*
X137526764Y-130087620D01*
X137612045Y-130293502D01*
X137612054Y-130293520D01*
X137723464Y-130486491D01*
X137723466Y-130486495D01*
X137859130Y-130663293D01*
X137859138Y-130663302D01*
X138016698Y-130820862D01*
X138016706Y-130820869D01*
X138193504Y-130956533D01*
X138193508Y-130956535D01*
X138386479Y-131067945D01*
X138386497Y-131067954D01*
X138592379Y-131153235D01*
X138807632Y-131210912D01*
X138889999Y-131221755D01*
X138890000Y-131221755D01*
X138890000Y-130088482D01*
X138908409Y-130099111D01*
X139061009Y-130140000D01*
X139218991Y-130140000D01*
X139371591Y-130099111D01*
X139390000Y-130088482D01*
X139390000Y-131221755D01*
X139472367Y-131210912D01*
X139687620Y-131153235D01*
X139893502Y-131067954D01*
X139893520Y-131067945D01*
X140086491Y-130956535D01*
X140086495Y-130956533D01*
X140263293Y-130820869D01*
X140263302Y-130820862D01*
X140420862Y-130663302D01*
X140420869Y-130663293D01*
X140556533Y-130486495D01*
X140556535Y-130486491D01*
X140667945Y-130293520D01*
X140667954Y-130293502D01*
X140753235Y-130087620D01*
X140810912Y-129872367D01*
X140821756Y-129790000D01*
X139688482Y-129790000D01*
X139699111Y-129771591D01*
X139740000Y-129618991D01*
X139740000Y-129461009D01*
X139699111Y-129308409D01*
X139688482Y-129290000D01*
X140821755Y-129290000D01*
X140821755Y-129289999D01*
X140810912Y-129207632D01*
X140753235Y-128992379D01*
X140667954Y-128786497D01*
X140667945Y-128786479D01*
X140556535Y-128593508D01*
X140556533Y-128593504D01*
X140420869Y-128416706D01*
X140420862Y-128416698D01*
X140263302Y-128259138D01*
X140263293Y-128259130D01*
X140086495Y-128123466D01*
X140086491Y-128123464D01*
X139893520Y-128012054D01*
X139893502Y-128012045D01*
X139687618Y-127926763D01*
X139472363Y-127869087D01*
X139390000Y-127858242D01*
X139390000Y-128991517D01*
X139371591Y-128980889D01*
X139218991Y-128940000D01*
X139061009Y-128940000D01*
X138908409Y-128980889D01*
X138890000Y-128991517D01*
X138890000Y-127858242D01*
X138889999Y-127858242D01*
X138807636Y-127869087D01*
X138592381Y-127926763D01*
X138386497Y-128012045D01*
X138386479Y-128012054D01*
X138193508Y-128123464D01*
X138193504Y-128123466D01*
X138016706Y-128259130D01*
X137859130Y-128416706D01*
X137723466Y-128593504D01*
X137723464Y-128593508D01*
X137612054Y-128786479D01*
X137612045Y-128786497D01*
X137526764Y-128992379D01*
X137469087Y-129207632D01*
X137458244Y-129289999D01*
X100000500Y-129289999D01*
X100000500Y-113452135D01*
X105379500Y-113452135D01*
X105379500Y-115147870D01*
X105379501Y-115147876D01*
X105385908Y-115207483D01*
X105436202Y-115342328D01*
X105436206Y-115342335D01*
X105522452Y-115457544D01*
X105522455Y-115457547D01*
X105637664Y-115543793D01*
X105637671Y-115543797D01*
X105682618Y-115560561D01*
X105772517Y-115594091D01*
X105832127Y-115600500D01*
X105880500Y-115600499D01*
X105947537Y-115620182D01*
X105993293Y-115672985D01*
X106004500Y-115724499D01*
X106004500Y-117955500D01*
X105984815Y-118022539D01*
X105932011Y-118068294D01*
X105880502Y-118079500D01*
X105832131Y-118079500D01*
X105832123Y-118079501D01*
X105772516Y-118085908D01*
X105637671Y-118136202D01*
X105637664Y-118136206D01*
X105522455Y-118222452D01*
X105522452Y-118222455D01*
X105436206Y-118337664D01*
X105436202Y-118337671D01*
X105385908Y-118472517D01*
X105379501Y-118532116D01*
X105379501Y-118532123D01*
X105379500Y-118532135D01*
X105379500Y-120227870D01*
X105379501Y-120227876D01*
X105385908Y-120287483D01*
X105436202Y-120422328D01*
X105436206Y-120422335D01*
X105522452Y-120537544D01*
X105522455Y-120537547D01*
X105637664Y-120623793D01*
X105637671Y-120623797D01*
X105772517Y-120674091D01*
X105772516Y-120674091D01*
X105779444Y-120674835D01*
X105832127Y-120680500D01*
X107527872Y-120680499D01*
X107587483Y-120674091D01*
X107722331Y-120623796D01*
X107837546Y-120537546D01*
X107923796Y-120422331D01*
X107974091Y-120287483D01*
X107980500Y-120227873D01*
X107980499Y-118532128D01*
X107974091Y-118472517D01*
X107923796Y-118337669D01*
X107923795Y-118337668D01*
X107923793Y-118337664D01*
X107837547Y-118222455D01*
X107837544Y-118222452D01*
X107722335Y-118136206D01*
X107722328Y-118136202D01*
X107587482Y-118085908D01*
X107587483Y-118085908D01*
X107527883Y-118079501D01*
X107527881Y-118079500D01*
X107527873Y-118079500D01*
X107527865Y-118079500D01*
X107479500Y-118079500D01*
X107412461Y-118059815D01*
X107366706Y-118007011D01*
X107355500Y-117955500D01*
X107355500Y-115724499D01*
X107375185Y-115657460D01*
X107427989Y-115611705D01*
X107479500Y-115600499D01*
X107527871Y-115600499D01*
X107527872Y-115600499D01*
X107587483Y-115594091D01*
X107722331Y-115543796D01*
X107837546Y-115457546D01*
X107923796Y-115342331D01*
X107974091Y-115207483D01*
X107980500Y-115147873D01*
X107980499Y-114050000D01*
X115563391Y-114050000D01*
X116524314Y-114050000D01*
X116519920Y-114054394D01*
X116467259Y-114145606D01*
X116440000Y-114247339D01*
X116440000Y-114352661D01*
X116467259Y-114454394D01*
X116519920Y-114545606D01*
X116524314Y-114550000D01*
X115563391Y-114550000D01*
X115572009Y-114604413D01*
X115635244Y-114799029D01*
X115728140Y-114981349D01*
X115848417Y-115146894D01*
X115848417Y-115146895D01*
X115993104Y-115291582D01*
X116158650Y-115411859D01*
X116340968Y-115504754D01*
X116535578Y-115567988D01*
X116590000Y-115576607D01*
X116590000Y-114615686D01*
X116594394Y-114620080D01*
X116685606Y-114672741D01*
X116787339Y-114700000D01*
X116892661Y-114700000D01*
X116994394Y-114672741D01*
X117085606Y-114620080D01*
X117090000Y-114615686D01*
X117090000Y-115576606D01*
X117144421Y-115567988D01*
X117339031Y-115504754D01*
X117521349Y-115411859D01*
X117686894Y-115291582D01*
X117686895Y-115291582D01*
X117831582Y-115146895D01*
X117831582Y-115146894D01*
X117951859Y-114981349D01*
X118044755Y-114799029D01*
X118107990Y-114604413D01*
X118116609Y-114550000D01*
X117155686Y-114550000D01*
X117160080Y-114545606D01*
X117212741Y-114454394D01*
X117240000Y-114352661D01*
X117240000Y-114247339D01*
X117212741Y-114145606D01*
X117160080Y-114054394D01*
X117155686Y-114050000D01*
X118116609Y-114050000D01*
X118107990Y-113995586D01*
X118044755Y-113800970D01*
X117951859Y-113618650D01*
X117831582Y-113453105D01*
X117831582Y-113453104D01*
X117686895Y-113308417D01*
X117521349Y-113188140D01*
X117339029Y-113095244D01*
X117144413Y-113032009D01*
X117090000Y-113023390D01*
X117090000Y-113984314D01*
X117085606Y-113979920D01*
X116994394Y-113927259D01*
X116892661Y-113900000D01*
X116787339Y-113900000D01*
X116685606Y-113927259D01*
X116594394Y-113979920D01*
X116590000Y-113984314D01*
X116590000Y-113023390D01*
X116535586Y-113032009D01*
X116340970Y-113095244D01*
X116158650Y-113188140D01*
X115993105Y-113308417D01*
X115993104Y-113308417D01*
X115848417Y-113453104D01*
X115848417Y-113453105D01*
X115728140Y-113618650D01*
X115635244Y-113800970D01*
X115572009Y-113995586D01*
X115563391Y-114050000D01*
X107980499Y-114050000D01*
X107980499Y-113452128D01*
X107974091Y-113392517D01*
X107923796Y-113257669D01*
X107923795Y-113257668D01*
X107923793Y-113257664D01*
X107837547Y-113142455D01*
X107837544Y-113142452D01*
X107722335Y-113056206D01*
X107722328Y-113056202D01*
X107587482Y-113005908D01*
X107587483Y-113005908D01*
X107527883Y-112999501D01*
X107527881Y-112999500D01*
X107527873Y-112999500D01*
X107527864Y-112999500D01*
X105832129Y-112999500D01*
X105832123Y-112999501D01*
X105772516Y-113005908D01*
X105637671Y-113056202D01*
X105637664Y-113056206D01*
X105522455Y-113142452D01*
X105522452Y-113142455D01*
X105436206Y-113257664D01*
X105436202Y-113257671D01*
X105385908Y-113392517D01*
X105379501Y-113452116D01*
X105379501Y-113452123D01*
X105379500Y-113452135D01*
X100000500Y-113452135D01*
X100000500Y-96497648D01*
X123159500Y-96497648D01*
X123159500Y-96702351D01*
X123191522Y-96904534D01*
X123254781Y-97099223D01*
X123347715Y-97281613D01*
X123468028Y-97447213D01*
X123612786Y-97591971D01*
X123767749Y-97704556D01*
X123778390Y-97712287D01*
X123894607Y-97771503D01*
X123960776Y-97805218D01*
X123960778Y-97805218D01*
X123960781Y-97805220D01*
X124065137Y-97839127D01*
X124155465Y-97868477D01*
X124256557Y-97884488D01*
X124357648Y-97900500D01*
X124357649Y-97900500D01*
X124562351Y-97900500D01*
X124562352Y-97900500D01*
X124764534Y-97868477D01*
X124959219Y-97805220D01*
X125141610Y-97712287D01*
X125234590Y-97644732D01*
X125307213Y-97591971D01*
X125307215Y-97591968D01*
X125307219Y-97591966D01*
X125451966Y-97447219D01*
X125451968Y-97447215D01*
X125451971Y-97447213D01*
X125510093Y-97367213D01*
X125572287Y-97281610D01*
X125581664Y-97263205D01*
X125629638Y-97212410D01*
X125692149Y-97195500D01*
X128360093Y-97195500D01*
X128427132Y-97215185D01*
X128460412Y-97246616D01*
X128548030Y-97367215D01*
X128692786Y-97511971D01*
X128802892Y-97591966D01*
X128858390Y-97632287D01*
X128974607Y-97691503D01*
X129040776Y-97725218D01*
X129040778Y-97725218D01*
X129040781Y-97725220D01*
X129145137Y-97759127D01*
X129235465Y-97788477D01*
X129336557Y-97804488D01*
X129437648Y-97820500D01*
X129437649Y-97820500D01*
X129642351Y-97820500D01*
X129642352Y-97820500D01*
X129844534Y-97788477D01*
X130039219Y-97725220D01*
X130221610Y-97632287D01*
X130314590Y-97564732D01*
X130387213Y-97511971D01*
X130387215Y-97511968D01*
X130387219Y-97511966D01*
X130531966Y-97367219D01*
X130531968Y-97367215D01*
X130531971Y-97367213D01*
X130644440Y-97212410D01*
X130652287Y-97201610D01*
X130745220Y-97019219D01*
X130808477Y-96824534D01*
X130840500Y-96622352D01*
X130840500Y-96417648D01*
X130808477Y-96215466D01*
X130745220Y-96020781D01*
X130745218Y-96020778D01*
X130745218Y-96020776D01*
X130693047Y-95918386D01*
X130652287Y-95838390D01*
X130630339Y-95808181D01*
X130531971Y-95672786D01*
X130387213Y-95528028D01*
X130221613Y-95407715D01*
X130221612Y-95407714D01*
X130221610Y-95407713D01*
X130164653Y-95378691D01*
X130039223Y-95314781D01*
X129844534Y-95251522D01*
X129669995Y-95223878D01*
X129642352Y-95219500D01*
X129437648Y-95219500D01*
X129413329Y-95223351D01*
X129235465Y-95251522D01*
X129040776Y-95314781D01*
X128858386Y-95407715D01*
X128692786Y-95528028D01*
X128548030Y-95672784D01*
X128460412Y-95793384D01*
X128405082Y-95836051D01*
X128360093Y-95844500D01*
X125581784Y-95844500D01*
X125514745Y-95824815D01*
X125481465Y-95793384D01*
X125451966Y-95752781D01*
X125307219Y-95608034D01*
X125307213Y-95608028D01*
X125141612Y-95487714D01*
X124959223Y-95394781D01*
X124764534Y-95331522D01*
X124589995Y-95303878D01*
X124562352Y-95299500D01*
X124357648Y-95299500D01*
X124333329Y-95303351D01*
X124155465Y-95331522D01*
X123960776Y-95394781D01*
X123778388Y-95487714D01*
X123612786Y-95608028D01*
X123468028Y-95752786D01*
X123347715Y-95918386D01*
X123254781Y-96100776D01*
X123191522Y-96295465D01*
X123159500Y-96497648D01*
X100000500Y-96497648D01*
X100000500Y-64878711D01*
X108149500Y-64878711D01*
X108149500Y-65121288D01*
X108181161Y-65361785D01*
X108243947Y-65596104D01*
X108336773Y-65820205D01*
X108336776Y-65820212D01*
X108458064Y-66030289D01*
X108458066Y-66030292D01*
X108458067Y-66030293D01*
X108605733Y-66222736D01*
X108605739Y-66222743D01*
X108777256Y-66394260D01*
X108777262Y-66394265D01*
X108969711Y-66541936D01*
X109179788Y-66663224D01*
X109403900Y-66756054D01*
X109638211Y-66818838D01*
X109818586Y-66842584D01*
X109878711Y-66850500D01*
X109878712Y-66850500D01*
X110121289Y-66850500D01*
X110169388Y-66844167D01*
X110361789Y-66818838D01*
X110596100Y-66756054D01*
X110820212Y-66663224D01*
X111030289Y-66541936D01*
X111222738Y-66394265D01*
X111394265Y-66222738D01*
X111541936Y-66030289D01*
X111663224Y-65820212D01*
X111756054Y-65596100D01*
X111818838Y-65361789D01*
X111850500Y-65121288D01*
X111850500Y-64878712D01*
X111818838Y-64638211D01*
X111756054Y-64403900D01*
X111663224Y-64179788D01*
X111541936Y-63969711D01*
X111394265Y-63777262D01*
X111394260Y-63777256D01*
X111222743Y-63605739D01*
X111222736Y-63605733D01*
X111030293Y-63458067D01*
X111030292Y-63458066D01*
X111030289Y-63458064D01*
X110820212Y-63336776D01*
X110820205Y-63336773D01*
X110596104Y-63243947D01*
X110361785Y-63181161D01*
X110121289Y-63149500D01*
X110121288Y-63149500D01*
X109878712Y-63149500D01*
X109878711Y-63149500D01*
X109638214Y-63181161D01*
X109403895Y-63243947D01*
X109179794Y-63336773D01*
X109179785Y-63336777D01*
X108969706Y-63458067D01*
X108777263Y-63605733D01*
X108777256Y-63605739D01*
X108605739Y-63777256D01*
X108605733Y-63777263D01*
X108458067Y-63969706D01*
X108336777Y-64179785D01*
X108336773Y-64179794D01*
X108243947Y-64403895D01*
X108181161Y-64638214D01*
X108149500Y-64878711D01*
X100000500Y-64878711D01*
X100000500Y-52503749D01*
X100000726Y-52496263D01*
X100001644Y-52481082D01*
X100016705Y-52232093D01*
X100017534Y-52223457D01*
X100025665Y-52161697D01*
X100026614Y-52155663D01*
X100068495Y-51927122D01*
X100070676Y-51917441D01*
X100084835Y-51864598D01*
X100086197Y-51859899D01*
X100157853Y-51629947D01*
X100161665Y-51619417D01*
X100176333Y-51584007D01*
X100177726Y-51580781D01*
X100283633Y-51345466D01*
X100289295Y-51334404D01*
X100290059Y-51333082D01*
X100291227Y-51331105D01*
X100439080Y-51086526D01*
X100447567Y-51074230D01*
X100624480Y-50848417D01*
X100634395Y-50837226D01*
X100837226Y-50634395D01*
X100848417Y-50624480D01*
X101074230Y-50447567D01*
X101086526Y-50439080D01*
X101331105Y-50291227D01*
X101333082Y-50290059D01*
X101334404Y-50289295D01*
X101345466Y-50283633D01*
X101580781Y-50177726D01*
X101584007Y-50176333D01*
X101619417Y-50161665D01*
X101629947Y-50157853D01*
X101859899Y-50086197D01*
X101864598Y-50084835D01*
X101917441Y-50070676D01*
X101927122Y-50068495D01*
X102155663Y-50026614D01*
X102161704Y-50025664D01*
X102223457Y-50017534D01*
X102232093Y-50016705D01*
X102496264Y-50000726D01*
X102503750Y-50000500D01*
X111466226Y-50000500D01*
X111533265Y-50020185D01*
G37*
G04 #@! TD.AperFunction*
G04 #@! TA.AperFunction,Conductor*
G36*
X153950039Y-113744185D02*
G01*
X153995794Y-113796989D01*
X154007000Y-113848500D01*
X154007000Y-115347870D01*
X154007001Y-115347876D01*
X154013408Y-115407483D01*
X154063702Y-115542328D01*
X154063706Y-115542335D01*
X154149952Y-115657544D01*
X154149955Y-115657547D01*
X154265164Y-115743793D01*
X154265171Y-115743797D01*
X154400017Y-115794091D01*
X154400016Y-115794091D01*
X154406944Y-115794835D01*
X154459627Y-115800500D01*
X156460372Y-115800499D01*
X156519983Y-115794091D01*
X156654831Y-115743796D01*
X156770046Y-115657546D01*
X156856296Y-115542331D01*
X156866690Y-115514460D01*
X156882013Y-115493992D01*
X156893946Y-115471375D01*
X156902603Y-115466485D01*
X156908561Y-115458527D01*
X156932518Y-115449590D01*
X156954784Y-115437016D01*
X156964709Y-115437583D01*
X156974024Y-115434109D01*
X156999008Y-115439543D01*
X157024540Y-115441003D01*
X157037743Y-115447969D01*
X157042298Y-115448960D01*
X157055755Y-115457472D01*
X157073384Y-115470280D01*
X157116050Y-115525608D01*
X157124500Y-115570599D01*
X157124500Y-143765500D01*
X157104815Y-143832539D01*
X157052011Y-143878294D01*
X157000501Y-143889500D01*
X156807130Y-143889500D01*
X156807123Y-143889501D01*
X156747516Y-143895908D01*
X156612671Y-143946202D01*
X156612664Y-143946206D01*
X156497455Y-144032452D01*
X156497452Y-144032455D01*
X156411206Y-144147664D01*
X156411202Y-144147671D01*
X156360908Y-144282517D01*
X156354501Y-144342116D01*
X156354501Y-144342123D01*
X156354500Y-144342135D01*
X156354500Y-149517870D01*
X156354501Y-149517876D01*
X156360908Y-149577483D01*
X156403869Y-149692667D01*
X156408853Y-149762359D01*
X156375367Y-149823682D01*
X156314044Y-149857166D01*
X156287687Y-149860000D01*
X155396779Y-149860000D01*
X155329740Y-149840315D01*
X155283985Y-149787511D01*
X155274041Y-149718353D01*
X155280597Y-149692667D01*
X155323596Y-149577379D01*
X155323598Y-149577372D01*
X155329999Y-149517844D01*
X155330000Y-149517827D01*
X155330000Y-147180000D01*
X151910000Y-147180000D01*
X151910000Y-149517844D01*
X151916401Y-149577372D01*
X151916403Y-149577379D01*
X151959403Y-149692667D01*
X151964387Y-149762358D01*
X151930902Y-149823681D01*
X151869579Y-149857166D01*
X151843221Y-149860000D01*
X148156779Y-149860000D01*
X148089740Y-149840315D01*
X148043985Y-149787511D01*
X148034041Y-149718353D01*
X148040597Y-149692667D01*
X148083596Y-149577379D01*
X148083598Y-149577372D01*
X148089999Y-149517844D01*
X148090000Y-149517827D01*
X148090000Y-147180000D01*
X144670000Y-147180000D01*
X144670000Y-149517844D01*
X144676401Y-149577372D01*
X144676403Y-149577379D01*
X144719403Y-149692667D01*
X144724387Y-149762358D01*
X144690902Y-149823681D01*
X144629579Y-149857166D01*
X144603221Y-149860000D01*
X143712313Y-149860000D01*
X143645274Y-149840315D01*
X143599519Y-149787511D01*
X143589575Y-149718353D01*
X143596131Y-149692667D01*
X143639091Y-149577483D01*
X143641785Y-149552422D01*
X143645500Y-149517873D01*
X143645499Y-144342155D01*
X144670000Y-144342155D01*
X144670000Y-146680000D01*
X148090000Y-146680000D01*
X148090000Y-144342172D01*
X148089999Y-144342155D01*
X151910000Y-144342155D01*
X151910000Y-146680000D01*
X155330000Y-146680000D01*
X155330000Y-144342172D01*
X155329999Y-144342155D01*
X155323598Y-144282627D01*
X155323596Y-144282620D01*
X155273354Y-144147913D01*
X155273350Y-144147906D01*
X155187190Y-144032812D01*
X155187187Y-144032809D01*
X155072093Y-143946649D01*
X155072086Y-143946645D01*
X154937379Y-143896403D01*
X154937372Y-143896401D01*
X154877844Y-143890000D01*
X154695827Y-143890000D01*
X154628788Y-143870315D01*
X154583033Y-143817511D01*
X154573089Y-143748353D01*
X154574210Y-143741809D01*
X154604999Y-143587018D01*
X154605000Y-143587016D01*
X154605000Y-143392983D01*
X154604999Y-143392981D01*
X154567148Y-143202693D01*
X154567145Y-143202681D01*
X154492898Y-143023431D01*
X154471758Y-142991794D01*
X153884457Y-143579095D01*
X153823134Y-143612580D01*
X153818319Y-143612235D01*
X153850000Y-143535750D01*
X153850000Y-143444250D01*
X153814985Y-143359715D01*
X153750285Y-143295015D01*
X153665750Y-143260000D01*
X153574250Y-143260000D01*
X153489715Y-143295015D01*
X153425015Y-143359715D01*
X153390000Y-143444250D01*
X153390000Y-143535750D01*
X153420366Y-143609061D01*
X153399889Y-143607597D01*
X153355542Y-143579096D01*
X152768240Y-142991794D01*
X152747104Y-143023426D01*
X152747103Y-143023428D01*
X152672853Y-143202685D01*
X152672851Y-143202693D01*
X152635000Y-143392981D01*
X152635000Y-143587018D01*
X152665790Y-143741809D01*
X152659563Y-143811400D01*
X152616700Y-143866578D01*
X152550810Y-143889822D01*
X152544173Y-143890000D01*
X152362155Y-143890000D01*
X152302627Y-143896401D01*
X152302620Y-143896403D01*
X152167913Y-143946645D01*
X152167906Y-143946649D01*
X152052812Y-144032809D01*
X152052809Y-144032812D01*
X151966649Y-144147906D01*
X151966645Y-144147913D01*
X151916403Y-144282620D01*
X151916401Y-144282627D01*
X151910000Y-144342155D01*
X148089999Y-144342155D01*
X148083598Y-144282627D01*
X148083596Y-144282620D01*
X148033354Y-144147913D01*
X148033350Y-144147906D01*
X147947190Y-144032812D01*
X147947187Y-144032809D01*
X147832093Y-143946649D01*
X147832086Y-143946645D01*
X147697379Y-143896403D01*
X147697372Y-143896401D01*
X147637844Y-143890000D01*
X147455827Y-143890000D01*
X147388788Y-143870315D01*
X147343033Y-143817511D01*
X147333089Y-143748353D01*
X147334210Y-143741809D01*
X147364999Y-143587018D01*
X147365000Y-143587016D01*
X147365000Y-143392983D01*
X147364999Y-143392981D01*
X147327148Y-143202693D01*
X147327145Y-143202681D01*
X147252898Y-143023431D01*
X147231758Y-142991794D01*
X146644457Y-143579095D01*
X146583134Y-143612580D01*
X146578319Y-143612235D01*
X146610000Y-143535750D01*
X146610000Y-143444250D01*
X146574985Y-143359715D01*
X146510285Y-143295015D01*
X146425750Y-143260000D01*
X146334250Y-143260000D01*
X146249715Y-143295015D01*
X146185015Y-143359715D01*
X146150000Y-143444250D01*
X146150000Y-143535750D01*
X146180366Y-143609061D01*
X146159889Y-143607597D01*
X146115542Y-143579096D01*
X145528240Y-142991794D01*
X145507104Y-143023426D01*
X145507103Y-143023428D01*
X145432853Y-143202685D01*
X145432851Y-143202693D01*
X145395000Y-143392981D01*
X145395000Y-143587018D01*
X145425790Y-143741809D01*
X145419563Y-143811400D01*
X145376700Y-143866578D01*
X145310810Y-143889822D01*
X145304173Y-143890000D01*
X145122155Y-143890000D01*
X145062627Y-143896401D01*
X145062620Y-143896403D01*
X144927913Y-143946645D01*
X144927906Y-143946649D01*
X144812812Y-144032809D01*
X144812809Y-144032812D01*
X144726649Y-144147906D01*
X144726645Y-144147913D01*
X144676403Y-144282620D01*
X144676401Y-144282627D01*
X144670000Y-144342155D01*
X143645499Y-144342155D01*
X143645499Y-144342128D01*
X143639091Y-144282517D01*
X143588884Y-144147906D01*
X143588797Y-144147671D01*
X143588793Y-144147664D01*
X143502547Y-144032455D01*
X143502544Y-144032452D01*
X143387335Y-143946206D01*
X143387328Y-143946202D01*
X143252482Y-143895908D01*
X143252483Y-143895908D01*
X143192883Y-143889501D01*
X143192881Y-143889500D01*
X143192873Y-143889500D01*
X143192865Y-143889500D01*
X142999500Y-143889500D01*
X142932461Y-143869815D01*
X142886706Y-143817011D01*
X142875500Y-143765500D01*
X142875500Y-142638240D01*
X145881794Y-142638240D01*
X146380000Y-143136446D01*
X146380001Y-143136446D01*
X146878205Y-142638240D01*
X153121794Y-142638240D01*
X153620000Y-143136446D01*
X153620001Y-143136446D01*
X154118205Y-142638241D01*
X154118204Y-142638240D01*
X154086575Y-142617106D01*
X154086568Y-142617102D01*
X153907314Y-142542853D01*
X153907306Y-142542851D01*
X153717017Y-142505000D01*
X153522983Y-142505000D01*
X153332693Y-142542851D01*
X153332685Y-142542853D01*
X153153428Y-142617103D01*
X153153426Y-142617104D01*
X153121794Y-142638240D01*
X146878205Y-142638240D01*
X146846575Y-142617106D01*
X146846568Y-142617102D01*
X146667314Y-142542853D01*
X146667306Y-142542851D01*
X146477017Y-142505000D01*
X146282983Y-142505000D01*
X146092693Y-142542851D01*
X146092685Y-142542853D01*
X145913428Y-142617103D01*
X145913426Y-142617104D01*
X145881794Y-142638240D01*
X142875500Y-142638240D01*
X142875500Y-129408872D01*
X145319500Y-129408872D01*
X145319500Y-129671127D01*
X145335151Y-129790000D01*
X145353730Y-129931116D01*
X145398744Y-130099111D01*
X145421602Y-130184418D01*
X145421605Y-130184428D01*
X145521953Y-130426690D01*
X145521958Y-130426700D01*
X145653075Y-130653803D01*
X145812718Y-130861851D01*
X145812726Y-130861860D01*
X145998140Y-131047274D01*
X145998148Y-131047281D01*
X146206196Y-131206924D01*
X146433299Y-131338041D01*
X146433309Y-131338046D01*
X146675571Y-131438394D01*
X146675581Y-131438398D01*
X146928884Y-131506270D01*
X147188880Y-131540500D01*
X147188887Y-131540500D01*
X147451113Y-131540500D01*
X147451120Y-131540500D01*
X147711116Y-131506270D01*
X147964419Y-131438398D01*
X148206697Y-131338043D01*
X148433803Y-131206924D01*
X148641851Y-131047282D01*
X148641855Y-131047277D01*
X148641860Y-131047274D01*
X148827274Y-130861860D01*
X148827277Y-130861855D01*
X148827282Y-130861851D01*
X148986924Y-130653803D01*
X149118043Y-130426697D01*
X149218398Y-130184419D01*
X149286270Y-129931116D01*
X149320500Y-129671120D01*
X149320500Y-129408880D01*
X149286270Y-129148884D01*
X149218398Y-128895581D01*
X149173214Y-128786497D01*
X149118046Y-128653309D01*
X149118041Y-128653299D01*
X148986924Y-128426196D01*
X148827281Y-128218148D01*
X148827274Y-128218140D01*
X148641860Y-128032726D01*
X148641851Y-128032718D01*
X148433803Y-127873075D01*
X148206700Y-127741958D01*
X148206690Y-127741953D01*
X147964428Y-127641605D01*
X147964421Y-127641603D01*
X147964419Y-127641602D01*
X147711116Y-127573730D01*
X147653339Y-127566123D01*
X147451127Y-127539500D01*
X147451120Y-127539500D01*
X147188880Y-127539500D01*
X147188872Y-127539500D01*
X146957772Y-127569926D01*
X146928884Y-127573730D01*
X146675581Y-127641602D01*
X146675571Y-127641605D01*
X146433309Y-127741953D01*
X146433299Y-127741958D01*
X146206196Y-127873075D01*
X145998148Y-128032718D01*
X145812718Y-128218148D01*
X145653075Y-128426196D01*
X145521958Y-128653299D01*
X145521953Y-128653309D01*
X145421605Y-128895571D01*
X145421602Y-128895581D01*
X145353730Y-129148885D01*
X145319500Y-129408872D01*
X142875500Y-129408872D01*
X142875500Y-115570599D01*
X142895185Y-115503560D01*
X142926615Y-115470280D01*
X142946566Y-115455786D01*
X143108286Y-115294066D01*
X143169683Y-115209559D01*
X143225012Y-115166896D01*
X143294625Y-115160917D01*
X143356420Y-115193523D01*
X143370314Y-115209556D01*
X143431714Y-115294066D01*
X143593434Y-115455786D01*
X143778462Y-115590217D01*
X143982242Y-115694048D01*
X143982244Y-115694049D01*
X144199751Y-115764721D01*
X144199752Y-115764721D01*
X144199755Y-115764722D01*
X144425646Y-115800500D01*
X144425647Y-115800500D01*
X144654353Y-115800500D01*
X144654354Y-115800500D01*
X144880245Y-115764722D01*
X144880248Y-115764721D01*
X144880249Y-115764721D01*
X145097755Y-115694049D01*
X145097755Y-115694048D01*
X145097758Y-115694048D01*
X145301538Y-115590217D01*
X145486566Y-115455786D01*
X145648286Y-115294066D01*
X145782717Y-115109038D01*
X145886548Y-114905258D01*
X145957222Y-114687745D01*
X145993000Y-114461854D01*
X145993000Y-114138146D01*
X145993000Y-114136505D01*
X146012685Y-114069466D01*
X146029319Y-114048824D01*
X146317325Y-113760819D01*
X146378648Y-113727334D01*
X146405006Y-113724500D01*
X153883000Y-113724500D01*
X153950039Y-113744185D01*
G37*
G04 #@! TD.AperFunction*
G04 #@! TA.AperFunction,Conductor*
G36*
X159287383Y-115161538D02*
G01*
X159294625Y-115160917D01*
X159319503Y-115174044D01*
X159345720Y-115184251D01*
X159352953Y-115191693D01*
X159356420Y-115193523D01*
X159370314Y-115209556D01*
X159431714Y-115294066D01*
X159593434Y-115455786D01*
X159778462Y-115590217D01*
X159982242Y-115694048D01*
X159982244Y-115694049D01*
X160199751Y-115764721D01*
X160199752Y-115764721D01*
X160199755Y-115764722D01*
X160425646Y-115800500D01*
X160425647Y-115800500D01*
X160654353Y-115800500D01*
X160654354Y-115800500D01*
X160719716Y-115790147D01*
X160789008Y-115799101D01*
X160826795Y-115824939D01*
X173088181Y-128086325D01*
X173121666Y-128147648D01*
X173124500Y-128174006D01*
X173124500Y-143765500D01*
X173104815Y-143832539D01*
X173052011Y-143878294D01*
X173000501Y-143889500D01*
X172807130Y-143889500D01*
X172807123Y-143889501D01*
X172747516Y-143895908D01*
X172612671Y-143946202D01*
X172612664Y-143946206D01*
X172497455Y-144032452D01*
X172497452Y-144032455D01*
X172411206Y-144147664D01*
X172411202Y-144147671D01*
X172360908Y-144282517D01*
X172354501Y-144342116D01*
X172354501Y-144342123D01*
X172354500Y-144342135D01*
X172354500Y-149517870D01*
X172354501Y-149517876D01*
X172360908Y-149577483D01*
X172403869Y-149692667D01*
X172408853Y-149762359D01*
X172375367Y-149823682D01*
X172314044Y-149857166D01*
X172287687Y-149860000D01*
X171397313Y-149860000D01*
X171330274Y-149840315D01*
X171284519Y-149787511D01*
X171274575Y-149718353D01*
X171281131Y-149692667D01*
X171324091Y-149577483D01*
X171326785Y-149552422D01*
X171330500Y-149517873D01*
X171330499Y-144342128D01*
X171324091Y-144282517D01*
X171273884Y-144147906D01*
X171273797Y-144147671D01*
X171273793Y-144147664D01*
X171187547Y-144032455D01*
X171187544Y-144032452D01*
X171072335Y-143946206D01*
X171072328Y-143946202D01*
X170937482Y-143895908D01*
X170937483Y-143895908D01*
X170877883Y-143889501D01*
X170877881Y-143889500D01*
X170877873Y-143889500D01*
X170877865Y-143889500D01*
X170696436Y-143889500D01*
X170629397Y-143869815D01*
X170583642Y-143817011D01*
X170573698Y-143747853D01*
X170574819Y-143741309D01*
X170605499Y-143587067D01*
X170605500Y-143587065D01*
X170605500Y-143392934D01*
X170567628Y-143202545D01*
X170567627Y-143202544D01*
X170567627Y-143202540D01*
X170540250Y-143136446D01*
X170504939Y-143051196D01*
X170495500Y-143003744D01*
X170495500Y-131069689D01*
X170515185Y-131002650D01*
X170557503Y-130962300D01*
X170566774Y-130956948D01*
X170743624Y-130821247D01*
X170901247Y-130663624D01*
X171036948Y-130486774D01*
X171148405Y-130293726D01*
X171233710Y-130087781D01*
X171291404Y-129872463D01*
X171320500Y-129651457D01*
X171320500Y-129428543D01*
X171291404Y-129207537D01*
X171233710Y-128992219D01*
X171148405Y-128786274D01*
X171036948Y-128593226D01*
X170965797Y-128500500D01*
X170901248Y-128416377D01*
X170901242Y-128416370D01*
X170743629Y-128258757D01*
X170743622Y-128258751D01*
X170566782Y-128123058D01*
X170566780Y-128123057D01*
X170566774Y-128123052D01*
X170373726Y-128011595D01*
X170373722Y-128011593D01*
X170167790Y-127926293D01*
X170167783Y-127926291D01*
X170167781Y-127926290D01*
X169952463Y-127868596D01*
X169952457Y-127868595D01*
X169952452Y-127868594D01*
X169731466Y-127839501D01*
X169731463Y-127839500D01*
X169731457Y-127839500D01*
X169508543Y-127839500D01*
X169508537Y-127839500D01*
X169508533Y-127839501D01*
X169287547Y-127868594D01*
X169287540Y-127868595D01*
X169287537Y-127868596D01*
X169072219Y-127926290D01*
X169072209Y-127926293D01*
X168866277Y-128011593D01*
X168866273Y-128011595D01*
X168673226Y-128123052D01*
X168673217Y-128123058D01*
X168496377Y-128258751D01*
X168496370Y-128258757D01*
X168338757Y-128416370D01*
X168338751Y-128416377D01*
X168203058Y-128593217D01*
X168203052Y-128593226D01*
X168091595Y-128786273D01*
X168091593Y-128786277D01*
X168006293Y-128992209D01*
X168006290Y-128992219D01*
X167958228Y-129171592D01*
X167948597Y-129207534D01*
X167948594Y-129207547D01*
X167919501Y-129428533D01*
X167919500Y-129428549D01*
X167919500Y-129651450D01*
X167919501Y-129651466D01*
X167948594Y-129872452D01*
X167948595Y-129872457D01*
X167948596Y-129872463D01*
X167964312Y-129931116D01*
X168006290Y-130087780D01*
X168006293Y-130087790D01*
X168091593Y-130293722D01*
X168091595Y-130293726D01*
X168203052Y-130486774D01*
X168203057Y-130486780D01*
X168203058Y-130486782D01*
X168232434Y-130525066D01*
X168257628Y-130590235D01*
X168243589Y-130658680D01*
X168194775Y-130708670D01*
X168126684Y-130724333D01*
X168060934Y-130700696D01*
X168046377Y-130688233D01*
X164656818Y-127298674D01*
X164623333Y-127237351D01*
X164620499Y-127210993D01*
X164620499Y-125952129D01*
X164620498Y-125952123D01*
X164620497Y-125952116D01*
X164614091Y-125892517D01*
X164563796Y-125757669D01*
X164563795Y-125757668D01*
X164563793Y-125757664D01*
X164477547Y-125642455D01*
X164477544Y-125642452D01*
X164362335Y-125556206D01*
X164362328Y-125556202D01*
X164227482Y-125505908D01*
X164227483Y-125505908D01*
X164167883Y-125499501D01*
X164167881Y-125499500D01*
X164167873Y-125499500D01*
X164167864Y-125499500D01*
X162072129Y-125499500D01*
X162072123Y-125499501D01*
X162012516Y-125505908D01*
X161877671Y-125556202D01*
X161877664Y-125556206D01*
X161762455Y-125642452D01*
X161762452Y-125642455D01*
X161676206Y-125757664D01*
X161676202Y-125757671D01*
X161625908Y-125892517D01*
X161619501Y-125952116D01*
X161619501Y-125952123D01*
X161619500Y-125952135D01*
X161619500Y-128047870D01*
X161619501Y-128047876D01*
X161625908Y-128107483D01*
X161676202Y-128242328D01*
X161676206Y-128242335D01*
X161762452Y-128357544D01*
X161762455Y-128357547D01*
X161877664Y-128443793D01*
X161877671Y-128443797D01*
X162012517Y-128494091D01*
X162012516Y-128494091D01*
X162019444Y-128494835D01*
X162072127Y-128500500D01*
X163330993Y-128500499D01*
X163398032Y-128520184D01*
X163418674Y-128536818D01*
X168708181Y-133826325D01*
X168741666Y-133887648D01*
X168744500Y-133914006D01*
X168744500Y-143003744D01*
X168735061Y-143051196D01*
X168672374Y-143202535D01*
X168672371Y-143202545D01*
X168634500Y-143392934D01*
X168634500Y-143587067D01*
X168665181Y-143741309D01*
X168658954Y-143810900D01*
X168616091Y-143866078D01*
X168550201Y-143889322D01*
X168543565Y-143889500D01*
X168362130Y-143889500D01*
X168362123Y-143889501D01*
X168302516Y-143895908D01*
X168167671Y-143946202D01*
X168167664Y-143946206D01*
X168052455Y-144032452D01*
X168052452Y-144032455D01*
X167966206Y-144147664D01*
X167966202Y-144147671D01*
X167915908Y-144282517D01*
X167909501Y-144342116D01*
X167909501Y-144342123D01*
X167909500Y-144342135D01*
X167909500Y-149517870D01*
X167909501Y-149517876D01*
X167915908Y-149577483D01*
X167958869Y-149692667D01*
X167963853Y-149762359D01*
X167930367Y-149823682D01*
X167869044Y-149857166D01*
X167842687Y-149860000D01*
X164156779Y-149860000D01*
X164089740Y-149840315D01*
X164043985Y-149787511D01*
X164034041Y-149718353D01*
X164040597Y-149692667D01*
X164083596Y-149577379D01*
X164083598Y-149577372D01*
X164089999Y-149517844D01*
X164090000Y-149517827D01*
X164090000Y-147180000D01*
X160670000Y-147180000D01*
X160670000Y-149517844D01*
X160676401Y-149577372D01*
X160676403Y-149577379D01*
X160719403Y-149692667D01*
X160724387Y-149762358D01*
X160690902Y-149823681D01*
X160629579Y-149857166D01*
X160603221Y-149860000D01*
X159712313Y-149860000D01*
X159645274Y-149840315D01*
X159599519Y-149787511D01*
X159589575Y-149718353D01*
X159596131Y-149692667D01*
X159639091Y-149577483D01*
X159641785Y-149552422D01*
X159645500Y-149517873D01*
X159645499Y-144342155D01*
X160670000Y-144342155D01*
X160670000Y-146680000D01*
X164090000Y-146680000D01*
X164090000Y-144342172D01*
X164089999Y-144342155D01*
X164083598Y-144282627D01*
X164083596Y-144282620D01*
X164033354Y-144147913D01*
X164033350Y-144147906D01*
X163947190Y-144032812D01*
X163947187Y-144032809D01*
X163832093Y-143946649D01*
X163832086Y-143946645D01*
X163697379Y-143896403D01*
X163697372Y-143896401D01*
X163637844Y-143890000D01*
X163455827Y-143890000D01*
X163388788Y-143870315D01*
X163343033Y-143817511D01*
X163333089Y-143748353D01*
X163334210Y-143741809D01*
X163364999Y-143587018D01*
X163365000Y-143587016D01*
X163365000Y-143392983D01*
X163364999Y-143392981D01*
X163327148Y-143202693D01*
X163327145Y-143202681D01*
X163252898Y-143023431D01*
X163231758Y-142991794D01*
X162644457Y-143579095D01*
X162583134Y-143612580D01*
X162578319Y-143612235D01*
X162610000Y-143535750D01*
X162610000Y-143444250D01*
X162574985Y-143359715D01*
X162510285Y-143295015D01*
X162425750Y-143260000D01*
X162334250Y-143260000D01*
X162249715Y-143295015D01*
X162185015Y-143359715D01*
X162150000Y-143444250D01*
X162150000Y-143535750D01*
X162180366Y-143609061D01*
X162159889Y-143607597D01*
X162115542Y-143579096D01*
X161528240Y-142991794D01*
X161507104Y-143023426D01*
X161507103Y-143023428D01*
X161432853Y-143202685D01*
X161432851Y-143202693D01*
X161395000Y-143392981D01*
X161395000Y-143587018D01*
X161425790Y-143741809D01*
X161419563Y-143811400D01*
X161376700Y-143866578D01*
X161310810Y-143889822D01*
X161304173Y-143890000D01*
X161122155Y-143890000D01*
X161062627Y-143896401D01*
X161062620Y-143896403D01*
X160927913Y-143946645D01*
X160927906Y-143946649D01*
X160812812Y-144032809D01*
X160812809Y-144032812D01*
X160726649Y-144147906D01*
X160726645Y-144147913D01*
X160676403Y-144282620D01*
X160676401Y-144282627D01*
X160670000Y-144342155D01*
X159645499Y-144342155D01*
X159645499Y-144342128D01*
X159639091Y-144282517D01*
X159588884Y-144147906D01*
X159588797Y-144147671D01*
X159588793Y-144147664D01*
X159502547Y-144032455D01*
X159502544Y-144032452D01*
X159387335Y-143946206D01*
X159387328Y-143946202D01*
X159252482Y-143895908D01*
X159252483Y-143895908D01*
X159192883Y-143889501D01*
X159192881Y-143889500D01*
X159192873Y-143889500D01*
X159192865Y-143889500D01*
X158999500Y-143889500D01*
X158932461Y-143869815D01*
X158886706Y-143817011D01*
X158875500Y-143765500D01*
X158875500Y-142638240D01*
X161881794Y-142638240D01*
X162380000Y-143136446D01*
X162380001Y-143136446D01*
X162878205Y-142638241D01*
X162878204Y-142638240D01*
X162846575Y-142617106D01*
X162846568Y-142617102D01*
X162667314Y-142542853D01*
X162667306Y-142542851D01*
X162477017Y-142505000D01*
X162282983Y-142505000D01*
X162092693Y-142542851D01*
X162092685Y-142542853D01*
X161913428Y-142617103D01*
X161913426Y-142617104D01*
X161881794Y-142638240D01*
X158875500Y-142638240D01*
X158875500Y-131961947D01*
X161620000Y-131961947D01*
X161620000Y-132198052D01*
X161656934Y-132431247D01*
X161729897Y-132655802D01*
X161837087Y-132866174D01*
X161897338Y-132949104D01*
X161897340Y-132949105D01*
X162555387Y-132291058D01*
X162560889Y-132311591D01*
X162639881Y-132448408D01*
X162751592Y-132560119D01*
X162888409Y-132639111D01*
X162908940Y-132644612D01*
X162250893Y-133302658D01*
X162333828Y-133362914D01*
X162544197Y-133470102D01*
X162768752Y-133543065D01*
X162768751Y-133543065D01*
X163001948Y-133580000D01*
X163238052Y-133580000D01*
X163471247Y-133543065D01*
X163695802Y-133470102D01*
X163906163Y-133362918D01*
X163906169Y-133362914D01*
X163989104Y-133302658D01*
X163989105Y-133302658D01*
X163331058Y-132644612D01*
X163351591Y-132639111D01*
X163488408Y-132560119D01*
X163600119Y-132448408D01*
X163679111Y-132311591D01*
X163684612Y-132291058D01*
X164342658Y-132949105D01*
X164342658Y-132949104D01*
X164402914Y-132866169D01*
X164402918Y-132866163D01*
X164510102Y-132655802D01*
X164583065Y-132431247D01*
X164620000Y-132198052D01*
X164620000Y-131961947D01*
X164583065Y-131728752D01*
X164510102Y-131504197D01*
X164402914Y-131293828D01*
X164342658Y-131210894D01*
X164342658Y-131210893D01*
X163684612Y-131868940D01*
X163679111Y-131848409D01*
X163600119Y-131711592D01*
X163488408Y-131599881D01*
X163351591Y-131520889D01*
X163331059Y-131515387D01*
X163989105Y-130857340D01*
X163989104Y-130857338D01*
X163906174Y-130797087D01*
X163695802Y-130689897D01*
X163471247Y-130616934D01*
X163471248Y-130616934D01*
X163238052Y-130580000D01*
X163001948Y-130580000D01*
X162768752Y-130616934D01*
X162544197Y-130689897D01*
X162333830Y-130797084D01*
X162250894Y-130857340D01*
X162908941Y-131515387D01*
X162888409Y-131520889D01*
X162751592Y-131599881D01*
X162639881Y-131711592D01*
X162560889Y-131848409D01*
X162555387Y-131868941D01*
X161897340Y-131210894D01*
X161837084Y-131293830D01*
X161729897Y-131504197D01*
X161656934Y-131728752D01*
X161620000Y-131961947D01*
X158875500Y-131961947D01*
X158875500Y-115570599D01*
X158895185Y-115503560D01*
X158926615Y-115470280D01*
X158946566Y-115455786D01*
X159108286Y-115294066D01*
X159169683Y-115209559D01*
X159191957Y-115192384D01*
X159212133Y-115172777D01*
X159219257Y-115171333D01*
X159225012Y-115166896D01*
X159253037Y-115164488D01*
X159280611Y-115158902D01*
X159287383Y-115161538D01*
G37*
G04 #@! TD.AperFunction*
G04 #@! TA.AperFunction,Conductor*
G36*
X197503736Y-50000726D02*
G01*
X197767901Y-50016704D01*
X197776547Y-50017534D01*
X197838283Y-50025662D01*
X197844348Y-50026616D01*
X198072866Y-50068494D01*
X198082569Y-50070679D01*
X198135375Y-50084828D01*
X198140127Y-50086205D01*
X198319650Y-50142147D01*
X198370039Y-50157849D01*
X198380596Y-50161671D01*
X198415944Y-50176312D01*
X198419265Y-50177747D01*
X198642779Y-50278343D01*
X198654517Y-50283626D01*
X198665603Y-50289301D01*
X198666842Y-50290016D01*
X198668983Y-50291280D01*
X198913465Y-50439075D01*
X198925776Y-50447573D01*
X199028498Y-50528050D01*
X199151573Y-50624473D01*
X199162781Y-50634403D01*
X199365596Y-50837218D01*
X199375526Y-50848426D01*
X199552422Y-51074217D01*
X199560928Y-51086540D01*
X199708699Y-51330984D01*
X199709982Y-51333156D01*
X199710697Y-51334395D01*
X199716372Y-51345481D01*
X199822221Y-51580665D01*
X199823708Y-51584107D01*
X199838326Y-51619400D01*
X199842149Y-51629959D01*
X199913788Y-51859855D01*
X199915178Y-51864652D01*
X199929314Y-51917407D01*
X199931508Y-51927149D01*
X199973373Y-52155595D01*
X199974343Y-52161762D01*
X199982461Y-52223427D01*
X199983296Y-52232125D01*
X199999274Y-52496263D01*
X199999500Y-52503750D01*
X199999500Y-147496249D01*
X199999274Y-147503736D01*
X199983296Y-147767873D01*
X199982461Y-147776569D01*
X199982461Y-147776571D01*
X199974343Y-147838236D01*
X199973373Y-147844403D01*
X199931508Y-148072849D01*
X199929314Y-148082591D01*
X199915178Y-148135346D01*
X199913788Y-148140143D01*
X199842149Y-148370039D01*
X199838326Y-148380598D01*
X199823708Y-148415891D01*
X199822221Y-148419333D01*
X199716372Y-148654517D01*
X199710697Y-148665603D01*
X199709982Y-148666842D01*
X199708699Y-148669014D01*
X199560928Y-148913459D01*
X199552422Y-148925782D01*
X199375526Y-149151573D01*
X199365596Y-149162781D01*
X199162781Y-149365596D01*
X199151573Y-149375526D01*
X198925782Y-149552422D01*
X198913459Y-149560928D01*
X198669014Y-149708699D01*
X198666882Y-149709959D01*
X198665651Y-149710670D01*
X198654524Y-149716369D01*
X198419310Y-149822230D01*
X198415875Y-149823714D01*
X198380599Y-149838327D01*
X198370035Y-149842152D01*
X198351596Y-149847897D01*
X198330777Y-149854385D01*
X198293888Y-149860000D01*
X196157313Y-149860000D01*
X196090274Y-149840315D01*
X196044519Y-149787511D01*
X196034575Y-149718353D01*
X196041131Y-149692667D01*
X196084091Y-149577483D01*
X196086785Y-149552422D01*
X196090500Y-149517873D01*
X196090499Y-144342128D01*
X196084091Y-144282517D01*
X196033884Y-144147906D01*
X196033797Y-144147671D01*
X196033793Y-144147664D01*
X195947547Y-144032455D01*
X195947544Y-144032452D01*
X195832335Y-143946206D01*
X195832328Y-143946202D01*
X195697482Y-143895908D01*
X195697483Y-143895908D01*
X195637883Y-143889501D01*
X195637881Y-143889500D01*
X195637873Y-143889500D01*
X195637865Y-143889500D01*
X195456436Y-143889500D01*
X195389397Y-143869815D01*
X195343642Y-143817011D01*
X195333698Y-143747853D01*
X195334819Y-143741309D01*
X195365499Y-143587067D01*
X195365500Y-143587065D01*
X195365500Y-143392934D01*
X195327628Y-143202545D01*
X195327627Y-143202544D01*
X195327627Y-143202540D01*
X195253338Y-143023191D01*
X195145488Y-142861781D01*
X195145486Y-142861778D01*
X195008221Y-142724513D01*
X194847473Y-142617106D01*
X194846809Y-142616662D01*
X194667460Y-142542373D01*
X194667454Y-142542371D01*
X194477065Y-142504500D01*
X194477063Y-142504500D01*
X194282937Y-142504500D01*
X194282935Y-142504500D01*
X194092545Y-142542371D01*
X194092539Y-142542373D01*
X193913192Y-142616661D01*
X193751778Y-142724513D01*
X193614513Y-142861778D01*
X193506661Y-143023192D01*
X193432373Y-143202539D01*
X193432371Y-143202545D01*
X193394500Y-143392934D01*
X193394500Y-143587067D01*
X193425181Y-143741309D01*
X193418954Y-143810900D01*
X193376091Y-143866078D01*
X193310201Y-143889322D01*
X193303565Y-143889500D01*
X193122130Y-143889500D01*
X193122123Y-143889501D01*
X193062516Y-143895908D01*
X192927671Y-143946202D01*
X192927664Y-143946206D01*
X192812455Y-144032452D01*
X192812452Y-144032455D01*
X192726206Y-144147664D01*
X192726202Y-144147671D01*
X192675908Y-144282517D01*
X192669501Y-144342116D01*
X192669501Y-144342123D01*
X192669500Y-144342135D01*
X192669500Y-149517870D01*
X192669501Y-149517876D01*
X192675908Y-149577483D01*
X192718869Y-149692667D01*
X192723853Y-149762359D01*
X192690367Y-149823682D01*
X192629044Y-149857166D01*
X192602687Y-149860000D01*
X191712313Y-149860000D01*
X191645274Y-149840315D01*
X191599519Y-149787511D01*
X191589575Y-149718353D01*
X191596131Y-149692667D01*
X191639091Y-149577483D01*
X191641785Y-149552422D01*
X191645500Y-149517873D01*
X191645499Y-144342128D01*
X191639091Y-144282517D01*
X191588884Y-144147906D01*
X191588797Y-144147671D01*
X191588793Y-144147664D01*
X191502547Y-144032455D01*
X191502544Y-144032452D01*
X191387335Y-143946206D01*
X191387328Y-143946202D01*
X191252482Y-143895908D01*
X191252483Y-143895908D01*
X191192883Y-143889501D01*
X191192881Y-143889500D01*
X191192873Y-143889500D01*
X191192864Y-143889500D01*
X188807129Y-143889500D01*
X188807123Y-143889501D01*
X188747516Y-143895908D01*
X188612671Y-143946202D01*
X188612664Y-143946206D01*
X188497455Y-144032452D01*
X188497452Y-144032455D01*
X188411206Y-144147664D01*
X188411202Y-144147671D01*
X188360908Y-144282517D01*
X188354501Y-144342116D01*
X188354501Y-144342123D01*
X188354500Y-144342135D01*
X188354500Y-149517870D01*
X188354501Y-149517876D01*
X188360908Y-149577483D01*
X188403869Y-149692667D01*
X188408853Y-149762359D01*
X188375367Y-149823682D01*
X188314044Y-149857166D01*
X188287687Y-149860000D01*
X187397313Y-149860000D01*
X187330274Y-149840315D01*
X187284519Y-149787511D01*
X187274575Y-149718353D01*
X187281131Y-149692667D01*
X187324091Y-149577483D01*
X187326785Y-149552422D01*
X187330500Y-149517873D01*
X187330499Y-144342128D01*
X187324091Y-144282517D01*
X187273884Y-144147906D01*
X187273797Y-144147671D01*
X187273793Y-144147664D01*
X187187547Y-144032455D01*
X187187544Y-144032452D01*
X187072335Y-143946206D01*
X187072328Y-143946202D01*
X186937482Y-143895908D01*
X186937483Y-143895908D01*
X186877883Y-143889501D01*
X186877881Y-143889500D01*
X186877873Y-143889500D01*
X186877865Y-143889500D01*
X186696436Y-143889500D01*
X186629397Y-143869815D01*
X186583642Y-143817011D01*
X186573698Y-143747853D01*
X186574819Y-143741309D01*
X186605499Y-143587067D01*
X186605500Y-143587065D01*
X186605500Y-143392934D01*
X186567628Y-143202545D01*
X186567627Y-143202544D01*
X186567627Y-143202540D01*
X186493338Y-143023191D01*
X186385488Y-142861781D01*
X186385486Y-142861778D01*
X186248221Y-142724513D01*
X186087473Y-142617106D01*
X186086809Y-142616662D01*
X185907460Y-142542373D01*
X185907454Y-142542371D01*
X185717065Y-142504500D01*
X185717063Y-142504500D01*
X185522937Y-142504500D01*
X185522935Y-142504500D01*
X185332545Y-142542371D01*
X185332539Y-142542373D01*
X185153192Y-142616661D01*
X184991778Y-142724513D01*
X184854513Y-142861778D01*
X184746661Y-143023192D01*
X184672373Y-143202539D01*
X184672371Y-143202545D01*
X184634500Y-143392934D01*
X184634500Y-143587067D01*
X184665181Y-143741309D01*
X184658954Y-143810900D01*
X184616091Y-143866078D01*
X184550201Y-143889322D01*
X184543565Y-143889500D01*
X184362130Y-143889500D01*
X184362123Y-143889501D01*
X184302516Y-143895908D01*
X184167671Y-143946202D01*
X184167664Y-143946206D01*
X184052455Y-144032452D01*
X184052452Y-144032455D01*
X183966206Y-144147664D01*
X183966202Y-144147671D01*
X183915908Y-144282517D01*
X183909501Y-144342116D01*
X183909501Y-144342123D01*
X183909500Y-144342135D01*
X183909500Y-149517870D01*
X183909501Y-149517876D01*
X183915908Y-149577483D01*
X183958869Y-149692667D01*
X183963853Y-149762359D01*
X183930367Y-149823682D01*
X183869044Y-149857166D01*
X183842687Y-149860000D01*
X180157313Y-149860000D01*
X180090274Y-149840315D01*
X180044519Y-149787511D01*
X180034575Y-149718353D01*
X180041131Y-149692667D01*
X180084091Y-149577483D01*
X180086785Y-149552422D01*
X180090500Y-149517873D01*
X180090499Y-144342128D01*
X180084091Y-144282517D01*
X180033884Y-144147906D01*
X180033797Y-144147671D01*
X180033793Y-144147664D01*
X179947547Y-144032455D01*
X179947544Y-144032452D01*
X179832335Y-143946206D01*
X179832328Y-143946202D01*
X179697482Y-143895908D01*
X179697483Y-143895908D01*
X179637883Y-143889501D01*
X179637881Y-143889500D01*
X179637873Y-143889500D01*
X179637865Y-143889500D01*
X179456436Y-143889500D01*
X179389397Y-143869815D01*
X179343642Y-143817011D01*
X179333698Y-143747853D01*
X179334819Y-143741309D01*
X179365499Y-143587067D01*
X179365500Y-143587065D01*
X179365500Y-143392934D01*
X179327628Y-143202545D01*
X179327627Y-143202544D01*
X179327627Y-143202540D01*
X179253338Y-143023191D01*
X179145488Y-142861781D01*
X179145486Y-142861778D01*
X179008221Y-142724513D01*
X178847473Y-142617106D01*
X178846809Y-142616662D01*
X178667460Y-142542373D01*
X178667454Y-142542371D01*
X178477065Y-142504500D01*
X178477063Y-142504500D01*
X178282937Y-142504500D01*
X178282935Y-142504500D01*
X178092545Y-142542371D01*
X178092539Y-142542373D01*
X177913192Y-142616661D01*
X177751778Y-142724513D01*
X177614513Y-142861778D01*
X177506661Y-143023192D01*
X177432373Y-143202539D01*
X177432371Y-143202545D01*
X177394500Y-143392934D01*
X177394500Y-143587067D01*
X177425181Y-143741309D01*
X177418954Y-143810900D01*
X177376091Y-143866078D01*
X177310201Y-143889322D01*
X177303565Y-143889500D01*
X177122130Y-143889500D01*
X177122123Y-143889501D01*
X177062516Y-143895908D01*
X176927671Y-143946202D01*
X176927664Y-143946206D01*
X176812455Y-144032452D01*
X176812452Y-144032455D01*
X176726206Y-144147664D01*
X176726202Y-144147671D01*
X176675908Y-144282517D01*
X176669501Y-144342116D01*
X176669501Y-144342123D01*
X176669500Y-144342135D01*
X176669500Y-149517870D01*
X176669501Y-149517876D01*
X176675908Y-149577483D01*
X176718869Y-149692667D01*
X176723853Y-149762359D01*
X176690367Y-149823682D01*
X176629044Y-149857166D01*
X176602687Y-149860000D01*
X175712313Y-149860000D01*
X175645274Y-149840315D01*
X175599519Y-149787511D01*
X175589575Y-149718353D01*
X175596131Y-149692667D01*
X175639091Y-149577483D01*
X175641785Y-149552422D01*
X175645500Y-149517873D01*
X175645499Y-144342128D01*
X175639091Y-144282517D01*
X175588884Y-144147906D01*
X175588797Y-144147671D01*
X175588793Y-144147664D01*
X175502547Y-144032455D01*
X175502544Y-144032452D01*
X175387335Y-143946206D01*
X175387328Y-143946202D01*
X175252482Y-143895908D01*
X175252483Y-143895908D01*
X175192883Y-143889501D01*
X175192881Y-143889500D01*
X175192873Y-143889500D01*
X175192865Y-143889500D01*
X174999500Y-143889500D01*
X174932461Y-143869815D01*
X174886706Y-143817011D01*
X174875500Y-143765500D01*
X174875500Y-134878711D01*
X188149500Y-134878711D01*
X188149500Y-135121288D01*
X188181161Y-135361785D01*
X188243947Y-135596104D01*
X188336773Y-135820205D01*
X188336776Y-135820212D01*
X188458064Y-136030289D01*
X188458066Y-136030292D01*
X188458067Y-136030293D01*
X188605733Y-136222736D01*
X188605739Y-136222743D01*
X188777256Y-136394260D01*
X188777262Y-136394265D01*
X188969711Y-136541936D01*
X189179788Y-136663224D01*
X189403900Y-136756054D01*
X189638211Y-136818838D01*
X189818586Y-136842584D01*
X189878711Y-136850500D01*
X189878712Y-136850500D01*
X190121289Y-136850500D01*
X190169388Y-136844167D01*
X190361789Y-136818838D01*
X190596100Y-136756054D01*
X190820212Y-136663224D01*
X191030289Y-136541936D01*
X191222738Y-136394265D01*
X191394265Y-136222738D01*
X191541936Y-136030289D01*
X191663224Y-135820212D01*
X191756054Y-135596100D01*
X191818838Y-135361789D01*
X191850500Y-135121288D01*
X191850500Y-134878712D01*
X191818838Y-134638211D01*
X191756054Y-134403900D01*
X191663224Y-134179788D01*
X191541936Y-133969711D01*
X191394265Y-133777262D01*
X191394260Y-133777256D01*
X191222743Y-133605739D01*
X191222736Y-133605733D01*
X191030293Y-133458067D01*
X191030292Y-133458066D01*
X191030289Y-133458064D01*
X190820212Y-133336776D01*
X190737844Y-133302658D01*
X190596104Y-133243947D01*
X190361785Y-133181161D01*
X190121289Y-133149500D01*
X190121288Y-133149500D01*
X189878712Y-133149500D01*
X189878711Y-133149500D01*
X189638214Y-133181161D01*
X189403895Y-133243947D01*
X189179794Y-133336773D01*
X189179785Y-133336777D01*
X188969706Y-133458067D01*
X188777263Y-133605733D01*
X188777256Y-133605739D01*
X188605739Y-133777256D01*
X188605733Y-133777263D01*
X188458067Y-133969706D01*
X188336777Y-134179785D01*
X188336773Y-134179794D01*
X188243947Y-134403895D01*
X188181161Y-134638214D01*
X188149500Y-134878711D01*
X174875500Y-134878711D01*
X174875500Y-127673768D01*
X174875499Y-127673766D01*
X174869101Y-127641602D01*
X174841855Y-127504626D01*
X174841853Y-127504621D01*
X174775861Y-127345301D01*
X174775854Y-127345288D01*
X174680046Y-127201902D01*
X174680045Y-127201901D01*
X174558099Y-127079955D01*
X162029319Y-114551175D01*
X161995834Y-114489852D01*
X161993000Y-114463494D01*
X161993000Y-114138146D01*
X161979039Y-114050000D01*
X161957222Y-113912255D01*
X161957221Y-113912251D01*
X161957221Y-113912250D01*
X161886549Y-113694744D01*
X161831394Y-113586496D01*
X161782717Y-113490962D01*
X161648286Y-113305934D01*
X161486566Y-113144214D01*
X161301538Y-113009783D01*
X161293933Y-113005908D01*
X161097755Y-112905950D01*
X160880248Y-112835278D01*
X160694812Y-112805908D01*
X160654354Y-112799500D01*
X160425646Y-112799500D01*
X160360282Y-112809852D01*
X160290988Y-112800896D01*
X160253204Y-112775059D01*
X159647102Y-112168957D01*
X159647098Y-112168954D01*
X159503711Y-112073145D01*
X159503698Y-112073138D01*
X159344378Y-112007146D01*
X159344366Y-112007143D01*
X159175232Y-111973500D01*
X159175229Y-111973500D01*
X146077229Y-111973500D01*
X145904771Y-111973500D01*
X145904768Y-111973500D01*
X145735633Y-112007143D01*
X145735621Y-112007146D01*
X145576301Y-112073138D01*
X145576288Y-112073145D01*
X145432901Y-112168954D01*
X145432897Y-112168957D01*
X144826794Y-112775060D01*
X144765471Y-112808545D01*
X144719716Y-112809852D01*
X144654354Y-112799500D01*
X144425646Y-112799500D01*
X144385188Y-112805908D01*
X144199753Y-112835278D01*
X144199750Y-112835278D01*
X143982244Y-112905950D01*
X143778461Y-113009783D01*
X143674194Y-113085538D01*
X143593434Y-113144214D01*
X143593432Y-113144216D01*
X143593431Y-113144216D01*
X143431715Y-113305932D01*
X143370318Y-113390438D01*
X143314987Y-113433103D01*
X143245374Y-113439082D01*
X143183579Y-113406476D01*
X143169682Y-113390438D01*
X143158773Y-113375423D01*
X143108286Y-113305934D01*
X142946566Y-113144214D01*
X142761538Y-113009783D01*
X142753933Y-113005908D01*
X142557755Y-112905950D01*
X142340248Y-112835278D01*
X142154812Y-112805908D01*
X142114354Y-112799500D01*
X141885646Y-112799500D01*
X141845188Y-112805908D01*
X141659753Y-112835278D01*
X141659750Y-112835278D01*
X141442244Y-112905950D01*
X141238461Y-113009783D01*
X141134194Y-113085538D01*
X141055857Y-113142454D01*
X141055759Y-113142525D01*
X140989952Y-113166005D01*
X140921898Y-113150180D01*
X140873203Y-113100074D01*
X140866690Y-113085538D01*
X140856296Y-113057669D01*
X140856293Y-113057664D01*
X140770047Y-112942455D01*
X140770044Y-112942452D01*
X140654835Y-112856206D01*
X140654828Y-112856202D01*
X140519982Y-112805908D01*
X140519983Y-112805908D01*
X140460383Y-112799501D01*
X140460381Y-112799500D01*
X140460373Y-112799500D01*
X140460365Y-112799500D01*
X140259500Y-112799500D01*
X140192461Y-112779815D01*
X140146706Y-112727011D01*
X140135500Y-112675500D01*
X140135500Y-109791162D01*
X140155185Y-109724123D01*
X140171814Y-109703486D01*
X143297652Y-106577648D01*
X146019500Y-106577648D01*
X146019500Y-106782351D01*
X146051522Y-106984534D01*
X146114781Y-107179223D01*
X146207715Y-107361613D01*
X146328028Y-107527213D01*
X146472786Y-107671971D01*
X146627749Y-107784556D01*
X146638390Y-107792287D01*
X146754607Y-107851503D01*
X146820776Y-107885218D01*
X146820778Y-107885218D01*
X146820781Y-107885220D01*
X146925137Y-107919127D01*
X147015465Y-107948477D01*
X147116557Y-107964488D01*
X147217648Y-107980500D01*
X147217649Y-107980500D01*
X147422351Y-107980500D01*
X147422352Y-107980500D01*
X147624534Y-107948477D01*
X147819219Y-107885220D01*
X148001610Y-107792287D01*
X148094590Y-107724732D01*
X148167213Y-107671971D01*
X148167215Y-107671968D01*
X148167219Y-107671966D01*
X148311966Y-107527219D01*
X148311968Y-107527215D01*
X148311971Y-107527213D01*
X148364732Y-107454590D01*
X148432287Y-107361610D01*
X148525220Y-107179219D01*
X148588477Y-106984534D01*
X148620500Y-106782352D01*
X148620500Y-106577648D01*
X148588477Y-106375466D01*
X148582851Y-106358152D01*
X148525218Y-106180776D01*
X148491503Y-106114607D01*
X148432287Y-105998390D01*
X148424556Y-105987749D01*
X148311971Y-105832786D01*
X148167213Y-105688028D01*
X148001613Y-105567715D01*
X148001612Y-105567714D01*
X148001610Y-105567713D01*
X147944653Y-105538691D01*
X147819223Y-105474781D01*
X147624534Y-105411522D01*
X147449995Y-105383878D01*
X147422352Y-105379500D01*
X147217648Y-105379500D01*
X147193329Y-105383351D01*
X147015465Y-105411522D01*
X146820776Y-105474781D01*
X146638386Y-105567715D01*
X146472786Y-105688028D01*
X146328028Y-105832786D01*
X146207715Y-105998386D01*
X146114781Y-106180776D01*
X146051522Y-106375465D01*
X146019500Y-106577648D01*
X143297652Y-106577648D01*
X146963330Y-102911969D01*
X147024651Y-102878486D01*
X147070407Y-102877179D01*
X147217648Y-102900500D01*
X147217649Y-102900500D01*
X147422351Y-102900500D01*
X147422352Y-102900500D01*
X147624534Y-102868477D01*
X147819219Y-102805220D01*
X148001610Y-102712287D01*
X148094590Y-102644732D01*
X148167213Y-102591971D01*
X148167215Y-102591968D01*
X148167219Y-102591966D01*
X148311966Y-102447219D01*
X148311968Y-102447215D01*
X148311971Y-102447213D01*
X148364732Y-102374590D01*
X148432287Y-102281610D01*
X148525220Y-102099219D01*
X148588477Y-101904534D01*
X148620500Y-101702352D01*
X148620500Y-101497648D01*
X148588477Y-101295466D01*
X148525220Y-101100781D01*
X148525218Y-101100778D01*
X148525218Y-101100776D01*
X148491503Y-101034607D01*
X148432287Y-100918390D01*
X148424556Y-100907749D01*
X148311971Y-100752786D01*
X148167213Y-100608028D01*
X148001613Y-100487715D01*
X148001612Y-100487714D01*
X148001610Y-100487713D01*
X147944653Y-100458691D01*
X147819223Y-100394781D01*
X147624534Y-100331522D01*
X147449995Y-100303878D01*
X147422352Y-100299500D01*
X147217648Y-100299500D01*
X147193329Y-100303351D01*
X147015465Y-100331522D01*
X146820776Y-100394781D01*
X146638386Y-100487715D01*
X146472786Y-100608028D01*
X146328028Y-100752786D01*
X146207715Y-100918386D01*
X146114781Y-101100776D01*
X146051522Y-101295465D01*
X146019500Y-101497648D01*
X146019500Y-101702351D01*
X146042820Y-101849590D01*
X146033865Y-101918884D01*
X146008028Y-101956669D01*
X139223181Y-108741517D01*
X139161858Y-108775002D01*
X139092166Y-108770018D01*
X139036233Y-108728146D01*
X139011816Y-108662682D01*
X139011500Y-108653836D01*
X139011500Y-106315162D01*
X139031185Y-106248123D01*
X139047814Y-106227486D01*
X153554304Y-91720995D01*
X153615625Y-91687512D01*
X153685317Y-91692496D01*
X153741250Y-91734368D01*
X153759914Y-91770359D01*
X153814781Y-91939223D01*
X153831350Y-91971740D01*
X153907585Y-92121359D01*
X153907715Y-92121613D01*
X154028028Y-92287213D01*
X154172786Y-92431971D01*
X154293226Y-92519474D01*
X154338390Y-92552287D01*
X154431080Y-92599515D01*
X154520776Y-92645218D01*
X154520778Y-92645218D01*
X154520781Y-92645220D01*
X154590977Y-92668028D01*
X154715465Y-92708477D01*
X154758607Y-92715310D01*
X154917648Y-92740500D01*
X155713837Y-92740500D01*
X155780876Y-92760185D01*
X155801518Y-92776819D01*
X160069390Y-97044692D01*
X160069394Y-97044695D01*
X160180024Y-97118616D01*
X160180028Y-97118618D01*
X160180031Y-97118620D01*
X160302964Y-97169541D01*
X160433464Y-97195499D01*
X160433468Y-97195500D01*
X160433469Y-97195500D01*
X160566531Y-97195500D01*
X163920093Y-97195500D01*
X163987132Y-97215185D01*
X164020412Y-97246616D01*
X164108030Y-97367215D01*
X164252786Y-97511971D01*
X164362892Y-97591966D01*
X164418390Y-97632287D01*
X164534607Y-97691503D01*
X164600776Y-97725218D01*
X164600778Y-97725218D01*
X164600781Y-97725220D01*
X164705137Y-97759127D01*
X164795465Y-97788477D01*
X164896557Y-97804488D01*
X164997648Y-97820500D01*
X164997649Y-97820500D01*
X165202351Y-97820500D01*
X165202352Y-97820500D01*
X165404534Y-97788477D01*
X165599219Y-97725220D01*
X165781610Y-97632287D01*
X165874590Y-97564732D01*
X165947213Y-97511971D01*
X165947215Y-97511968D01*
X165947219Y-97511966D01*
X166091966Y-97367219D01*
X166091968Y-97367215D01*
X166091971Y-97367213D01*
X166204440Y-97212410D01*
X166212287Y-97201610D01*
X166305220Y-97019219D01*
X166368477Y-96824534D01*
X166400500Y-96622352D01*
X166400500Y-96417648D01*
X166368477Y-96215466D01*
X166305220Y-96020781D01*
X166305218Y-96020778D01*
X166305218Y-96020776D01*
X166253047Y-95918386D01*
X166212287Y-95838390D01*
X166190339Y-95808181D01*
X166091971Y-95672786D01*
X165947213Y-95528028D01*
X165781613Y-95407715D01*
X165781612Y-95407714D01*
X165781610Y-95407713D01*
X165724653Y-95378691D01*
X165599223Y-95314781D01*
X165404534Y-95251522D01*
X165229995Y-95223878D01*
X165202352Y-95219500D01*
X164997648Y-95219500D01*
X164973329Y-95223351D01*
X164795465Y-95251522D01*
X164600776Y-95314781D01*
X164418386Y-95407715D01*
X164252786Y-95528028D01*
X164108030Y-95672784D01*
X164020412Y-95793384D01*
X163965082Y-95836051D01*
X163920093Y-95844500D01*
X160831163Y-95844500D01*
X160764124Y-95824815D01*
X160743482Y-95808181D01*
X157038056Y-92102755D01*
X157004571Y-92041432D01*
X157009555Y-91971740D01*
X157015248Y-91958788D01*
X157025220Y-91939219D01*
X157088477Y-91744534D01*
X157120500Y-91542352D01*
X157120500Y-91337648D01*
X157112257Y-91285606D01*
X157088477Y-91135465D01*
X157044909Y-91001378D01*
X157025220Y-90940781D01*
X157025218Y-90940778D01*
X157025218Y-90940776D01*
X156932419Y-90758650D01*
X156932287Y-90758390D01*
X156900092Y-90714077D01*
X156811971Y-90592786D01*
X156667213Y-90448028D01*
X156501614Y-90327715D01*
X156495006Y-90324348D01*
X156408917Y-90280483D01*
X156358123Y-90232511D01*
X156341328Y-90164690D01*
X156363865Y-90098555D01*
X156408917Y-90059516D01*
X156501610Y-90012287D01*
X156522770Y-89996913D01*
X156667213Y-89891971D01*
X156667215Y-89891968D01*
X156667219Y-89891966D01*
X156811966Y-89747219D01*
X156811968Y-89747215D01*
X156811971Y-89747213D01*
X156864732Y-89674590D01*
X156932287Y-89581610D01*
X157025220Y-89399219D01*
X157088477Y-89204534D01*
X157120500Y-89002352D01*
X157120500Y-88797648D01*
X157088477Y-88595466D01*
X157025220Y-88400781D01*
X157025218Y-88400778D01*
X157025218Y-88400776D01*
X156991503Y-88334607D01*
X156932287Y-88218390D01*
X156924556Y-88207749D01*
X156811971Y-88052786D01*
X156667213Y-87908028D01*
X156501614Y-87787715D01*
X156495006Y-87784348D01*
X156408917Y-87740483D01*
X156358123Y-87692511D01*
X156341328Y-87624690D01*
X156363865Y-87558555D01*
X156408917Y-87519516D01*
X156501610Y-87472287D01*
X156522770Y-87456913D01*
X156667213Y-87351971D01*
X156667215Y-87351968D01*
X156667219Y-87351966D01*
X156811966Y-87207219D01*
X156811968Y-87207215D01*
X156811971Y-87207213D01*
X156922424Y-87055185D01*
X156932287Y-87041610D01*
X157025220Y-86859219D01*
X157088477Y-86664534D01*
X157120500Y-86462352D01*
X157120500Y-86257648D01*
X157088477Y-86055466D01*
X157025220Y-85860781D01*
X157025216Y-85860773D01*
X157020641Y-85851792D01*
X157007746Y-85783122D01*
X157034024Y-85718383D01*
X157091132Y-85678127D01*
X157131127Y-85671500D01*
X163404837Y-85671500D01*
X163471876Y-85691185D01*
X163492518Y-85707819D01*
X163788028Y-86003329D01*
X163821513Y-86064652D01*
X163822820Y-86110407D01*
X163799500Y-86257647D01*
X163799500Y-86462351D01*
X163831522Y-86664534D01*
X163894781Y-86859223D01*
X163987715Y-87041613D01*
X164108028Y-87207213D01*
X164252786Y-87351971D01*
X164407749Y-87464556D01*
X164418390Y-87472287D01*
X164511080Y-87519515D01*
X164600776Y-87565218D01*
X164600778Y-87565218D01*
X164600781Y-87565220D01*
X164705137Y-87599127D01*
X164795465Y-87628477D01*
X164814697Y-87631523D01*
X164997648Y-87660500D01*
X164997649Y-87660500D01*
X165202351Y-87660500D01*
X165202352Y-87660500D01*
X165404534Y-87628477D01*
X165599219Y-87565220D01*
X165781610Y-87472287D01*
X165874590Y-87404732D01*
X165947213Y-87351971D01*
X165947215Y-87351968D01*
X165947219Y-87351966D01*
X166091966Y-87207219D01*
X166091968Y-87207215D01*
X166091971Y-87207213D01*
X166202424Y-87055185D01*
X166212287Y-87041610D01*
X166305220Y-86859219D01*
X166368477Y-86664534D01*
X166400500Y-86462352D01*
X166400500Y-86257648D01*
X166368477Y-86055466D01*
X166305220Y-85860781D01*
X166305218Y-85860778D01*
X166305218Y-85860776D01*
X166232664Y-85718383D01*
X166212287Y-85678390D01*
X166202424Y-85664815D01*
X166091971Y-85512786D01*
X165947213Y-85368028D01*
X165781613Y-85247715D01*
X165781612Y-85247714D01*
X165781610Y-85247713D01*
X165724653Y-85218691D01*
X165599223Y-85154781D01*
X165404534Y-85091522D01*
X165229995Y-85063878D01*
X165202352Y-85059500D01*
X165092470Y-85059500D01*
X165025431Y-85039815D01*
X164979676Y-84987011D01*
X164968852Y-84925771D01*
X164970921Y-84899473D01*
X164291446Y-84220000D01*
X164297661Y-84220000D01*
X164399394Y-84192741D01*
X164490606Y-84140080D01*
X164565080Y-84065606D01*
X164617741Y-83974394D01*
X164645000Y-83872661D01*
X164645000Y-83866448D01*
X165324474Y-84545922D01*
X165324474Y-84545921D01*
X165356859Y-84501349D01*
X165449755Y-84319031D01*
X165512990Y-84124417D01*
X165545000Y-83922317D01*
X165545000Y-83717682D01*
X165512990Y-83515582D01*
X165449755Y-83320968D01*
X165356859Y-83138650D01*
X165324474Y-83094077D01*
X165324474Y-83094076D01*
X164645000Y-83773551D01*
X164645000Y-83767339D01*
X164617741Y-83665606D01*
X164565080Y-83574394D01*
X164490606Y-83499920D01*
X164399394Y-83447259D01*
X164297661Y-83420000D01*
X164291446Y-83420000D01*
X164970922Y-82740524D01*
X164970921Y-82740523D01*
X164926359Y-82708147D01*
X164926350Y-82708141D01*
X164832819Y-82660485D01*
X164782023Y-82612511D01*
X164765228Y-82544690D01*
X164787765Y-82478555D01*
X164832820Y-82439515D01*
X164926346Y-82391861D01*
X164926347Y-82391861D01*
X164970921Y-82359474D01*
X164291447Y-81680000D01*
X164297661Y-81680000D01*
X164399394Y-81652741D01*
X164490606Y-81600080D01*
X164565080Y-81525606D01*
X164617741Y-81434394D01*
X164645000Y-81332661D01*
X164645000Y-81326448D01*
X165324474Y-82005922D01*
X165324474Y-82005921D01*
X165356859Y-81961349D01*
X165449755Y-81779031D01*
X165512990Y-81584417D01*
X165545000Y-81382317D01*
X165545000Y-81177682D01*
X165512990Y-80975582D01*
X165449755Y-80780968D01*
X165356859Y-80598650D01*
X165324474Y-80554077D01*
X165324474Y-80554076D01*
X164645000Y-81233551D01*
X164645000Y-81227339D01*
X164617741Y-81125606D01*
X164565080Y-81034394D01*
X164490606Y-80959920D01*
X164399394Y-80907259D01*
X164297661Y-80880000D01*
X164291446Y-80880000D01*
X164970922Y-80200524D01*
X164970921Y-80200523D01*
X164926359Y-80168147D01*
X164926350Y-80168141D01*
X164744031Y-80075244D01*
X164549417Y-80012009D01*
X164347317Y-79980000D01*
X164142683Y-79980000D01*
X163940582Y-80012009D01*
X163745968Y-80075244D01*
X163563644Y-80168143D01*
X163519077Y-80200523D01*
X163519077Y-80200524D01*
X164198554Y-80880000D01*
X164192339Y-80880000D01*
X164090606Y-80907259D01*
X163999394Y-80959920D01*
X163924920Y-81034394D01*
X163872259Y-81125606D01*
X163845000Y-81227339D01*
X163845000Y-81233553D01*
X163165524Y-80554077D01*
X163165523Y-80554077D01*
X163133143Y-80598644D01*
X163040244Y-80780968D01*
X162977009Y-80975582D01*
X162945000Y-81177682D01*
X162945000Y-81382317D01*
X162977009Y-81584417D01*
X163040244Y-81779031D01*
X163133141Y-81961350D01*
X163133147Y-81961359D01*
X163165523Y-82005921D01*
X163165524Y-82005922D01*
X163845000Y-81326446D01*
X163845000Y-81332661D01*
X163872259Y-81434394D01*
X163924920Y-81525606D01*
X163999394Y-81600080D01*
X164090606Y-81652741D01*
X164192339Y-81680000D01*
X164198553Y-81680000D01*
X163519076Y-82359474D01*
X163563650Y-82391859D01*
X163657180Y-82439515D01*
X163707976Y-82487489D01*
X163724771Y-82555310D01*
X163702234Y-82621445D01*
X163657180Y-82660485D01*
X163563644Y-82708143D01*
X163519077Y-82740523D01*
X163519077Y-82740524D01*
X164198554Y-83420000D01*
X164192339Y-83420000D01*
X164090606Y-83447259D01*
X163999394Y-83499920D01*
X163924920Y-83574394D01*
X163872259Y-83665606D01*
X163845000Y-83767339D01*
X163845000Y-83773553D01*
X163165524Y-83094077D01*
X163165523Y-83094077D01*
X163133143Y-83138644D01*
X163040244Y-83320968D01*
X162977009Y-83515582D01*
X162945000Y-83717682D01*
X162945000Y-83922317D01*
X162977010Y-84124418D01*
X162977011Y-84124425D01*
X162987980Y-84158183D01*
X162989975Y-84228024D01*
X162953894Y-84287856D01*
X162891193Y-84318684D01*
X162870049Y-84320500D01*
X160620476Y-84320500D01*
X160553437Y-84300815D01*
X160507682Y-84248011D01*
X160497738Y-84178853D01*
X160502545Y-84158183D01*
X160513475Y-84124542D01*
X160513475Y-84124538D01*
X160513477Y-84124534D01*
X160545500Y-83922352D01*
X160545500Y-83717648D01*
X160537257Y-83665606D01*
X160513477Y-83515465D01*
X160482458Y-83420000D01*
X160450220Y-83320781D01*
X160450218Y-83320778D01*
X160450218Y-83320776D01*
X160398859Y-83219980D01*
X160357287Y-83138390D01*
X160325092Y-83094077D01*
X160236971Y-82972786D01*
X160092213Y-82828028D01*
X159971615Y-82740410D01*
X159968274Y-82736078D01*
X159963297Y-82733805D01*
X159947166Y-82708705D01*
X159928949Y-82685081D01*
X159927695Y-82678407D01*
X159925523Y-82675027D01*
X159920500Y-82640092D01*
X159920500Y-82459907D01*
X159940185Y-82392868D01*
X159971614Y-82359589D01*
X160092219Y-82271966D01*
X160236966Y-82127219D01*
X160236968Y-82127215D01*
X160236971Y-82127213D01*
X160289732Y-82054590D01*
X160357287Y-81961610D01*
X160450220Y-81779219D01*
X160513477Y-81584534D01*
X160545500Y-81382352D01*
X160545500Y-81177648D01*
X160537257Y-81125606D01*
X160513477Y-80975465D01*
X160482458Y-80880000D01*
X160450220Y-80780781D01*
X160450218Y-80780778D01*
X160450218Y-80780776D01*
X160357419Y-80598650D01*
X160357287Y-80598390D01*
X160325092Y-80554077D01*
X160236971Y-80432786D01*
X160092217Y-80288032D01*
X160092212Y-80288028D01*
X159931615Y-80171348D01*
X159888949Y-80116018D01*
X159880500Y-80071030D01*
X159880500Y-77441710D01*
X159900185Y-77374671D01*
X159931612Y-77341394D01*
X160084792Y-77230104D01*
X160198329Y-77116566D01*
X160259648Y-77083084D01*
X160329340Y-77088068D01*
X160385274Y-77129939D01*
X160402189Y-77160917D01*
X160451202Y-77292328D01*
X160451206Y-77292335D01*
X160537452Y-77407544D01*
X160537455Y-77407547D01*
X160652664Y-77493793D01*
X160652671Y-77493797D01*
X160787517Y-77544091D01*
X160787516Y-77544091D01*
X160794444Y-77544835D01*
X160847127Y-77550500D01*
X162642872Y-77550499D01*
X162702483Y-77544091D01*
X162837331Y-77493796D01*
X162952546Y-77407546D01*
X163038796Y-77292331D01*
X163089091Y-77157483D01*
X163095500Y-77097873D01*
X163095499Y-75856162D01*
X163115184Y-75789124D01*
X163131813Y-75768486D01*
X163445695Y-75454606D01*
X163519620Y-75343969D01*
X163570540Y-75221036D01*
X163596500Y-75090531D01*
X163596500Y-74957469D01*
X163596500Y-64878711D01*
X188149500Y-64878711D01*
X188149500Y-65121288D01*
X188181161Y-65361785D01*
X188243947Y-65596104D01*
X188336773Y-65820205D01*
X188336776Y-65820212D01*
X188458064Y-66030289D01*
X188458066Y-66030292D01*
X188458067Y-66030293D01*
X188605733Y-66222736D01*
X188605739Y-66222743D01*
X188777256Y-66394260D01*
X188777262Y-66394265D01*
X188969711Y-66541936D01*
X189179788Y-66663224D01*
X189403900Y-66756054D01*
X189638211Y-66818838D01*
X189818586Y-66842584D01*
X189878711Y-66850500D01*
X189878712Y-66850500D01*
X190121289Y-66850500D01*
X190169388Y-66844167D01*
X190361789Y-66818838D01*
X190596100Y-66756054D01*
X190820212Y-66663224D01*
X191030289Y-66541936D01*
X191222738Y-66394265D01*
X191394265Y-66222738D01*
X191541936Y-66030289D01*
X191663224Y-65820212D01*
X191756054Y-65596100D01*
X191818838Y-65361789D01*
X191850500Y-65121288D01*
X191850500Y-64878712D01*
X191818838Y-64638211D01*
X191756054Y-64403900D01*
X191663224Y-64179788D01*
X191541936Y-63969711D01*
X191394265Y-63777262D01*
X191394260Y-63777256D01*
X191222743Y-63605739D01*
X191222736Y-63605733D01*
X191030293Y-63458067D01*
X191030292Y-63458066D01*
X191030289Y-63458064D01*
X190820212Y-63336776D01*
X190820205Y-63336773D01*
X190596104Y-63243947D01*
X190361785Y-63181161D01*
X190121289Y-63149500D01*
X190121288Y-63149500D01*
X189878712Y-63149500D01*
X189878711Y-63149500D01*
X189638214Y-63181161D01*
X189403895Y-63243947D01*
X189179794Y-63336773D01*
X189179785Y-63336777D01*
X188969706Y-63458067D01*
X188777263Y-63605733D01*
X188777256Y-63605739D01*
X188605739Y-63777256D01*
X188605733Y-63777263D01*
X188458067Y-63969706D01*
X188336777Y-64179785D01*
X188336773Y-64179794D01*
X188243947Y-64403895D01*
X188181161Y-64638214D01*
X188149500Y-64878711D01*
X163596500Y-64878711D01*
X163596500Y-60254469D01*
X163596500Y-60254466D01*
X163570541Y-60123969D01*
X163570540Y-60123968D01*
X163570540Y-60123964D01*
X163557997Y-60093683D01*
X163519623Y-60001038D01*
X163519622Y-60001037D01*
X163519620Y-60001031D01*
X163445695Y-59890394D01*
X163351606Y-59796305D01*
X162086819Y-58531518D01*
X162053334Y-58470195D01*
X162050500Y-58443837D01*
X162050500Y-56688461D01*
X162070185Y-56621422D01*
X162112498Y-56581075D01*
X162288532Y-56479442D01*
X162473181Y-56337756D01*
X162479924Y-56331013D01*
X162527125Y-56283813D01*
X162637751Y-56173186D01*
X162637756Y-56173181D01*
X162779442Y-55988532D01*
X162895815Y-55786969D01*
X162984882Y-55571940D01*
X163045121Y-55347126D01*
X163075500Y-55116372D01*
X163075500Y-54883659D01*
X164325000Y-54883659D01*
X164325000Y-55116340D01*
X164355369Y-55347024D01*
X164415592Y-55571779D01*
X164504632Y-55786740D01*
X164504636Y-55786750D01*
X164620970Y-55988248D01*
X164680551Y-56065894D01*
X165403287Y-55343158D01*
X165413204Y-55367100D01*
X165498018Y-55494034D01*
X165605966Y-55601982D01*
X165732900Y-55686796D01*
X165756839Y-55696712D01*
X165034104Y-56419446D01*
X165034104Y-56419447D01*
X165111752Y-56479029D01*
X165313249Y-56595363D01*
X165313259Y-56595367D01*
X165528220Y-56684407D01*
X165752975Y-56744630D01*
X165983659Y-56775000D01*
X166216341Y-56775000D01*
X166447024Y-56744630D01*
X166671779Y-56684407D01*
X166886740Y-56595367D01*
X166886750Y-56595363D01*
X167088255Y-56479024D01*
X167165894Y-56419447D01*
X167165894Y-56419446D01*
X166443159Y-55696712D01*
X166467100Y-55686796D01*
X166594034Y-55601982D01*
X166701982Y-55494034D01*
X166786796Y-55367100D01*
X166796712Y-55343159D01*
X167519446Y-56065894D01*
X167519447Y-56065894D01*
X167579024Y-55988255D01*
X167695363Y-55786750D01*
X167695367Y-55786740D01*
X167784407Y-55571779D01*
X167844630Y-55347024D01*
X167875000Y-55116340D01*
X167875000Y-54883659D01*
X167844630Y-54652975D01*
X167784407Y-54428220D01*
X167695367Y-54213259D01*
X167695363Y-54213249D01*
X167579029Y-54011752D01*
X167519447Y-53934104D01*
X167519446Y-53934104D01*
X166796711Y-54656839D01*
X166786796Y-54632900D01*
X166701982Y-54505966D01*
X166594034Y-54398018D01*
X166467100Y-54313204D01*
X166443158Y-54303286D01*
X167165894Y-53580551D01*
X167088248Y-53520970D01*
X166886750Y-53404636D01*
X166886740Y-53404632D01*
X166671779Y-53315592D01*
X166447024Y-53255369D01*
X166216341Y-53225000D01*
X165983659Y-53225000D01*
X165752975Y-53255369D01*
X165528220Y-53315592D01*
X165313259Y-53404632D01*
X165313249Y-53404636D01*
X165111747Y-53520973D01*
X165034104Y-53580550D01*
X165034104Y-53580551D01*
X165756840Y-54303287D01*
X165732900Y-54313204D01*
X165605966Y-54398018D01*
X165498018Y-54505966D01*
X165413204Y-54632900D01*
X165403287Y-54656840D01*
X164680551Y-53934104D01*
X164680550Y-53934104D01*
X164620973Y-54011747D01*
X164504636Y-54213249D01*
X164504632Y-54213259D01*
X164415592Y-54428220D01*
X164355369Y-54652975D01*
X164325000Y-54883659D01*
X163075500Y-54883659D01*
X163075500Y-54883628D01*
X163045121Y-54652874D01*
X162984882Y-54428060D01*
X162978645Y-54413002D01*
X162895819Y-54213039D01*
X162895811Y-54213023D01*
X162779446Y-54011475D01*
X162779442Y-54011468D01*
X162637756Y-53826819D01*
X162637751Y-53826813D01*
X162473186Y-53662248D01*
X162473179Y-53662242D01*
X162288540Y-53520564D01*
X162288538Y-53520562D01*
X162288532Y-53520558D01*
X162288527Y-53520555D01*
X162288524Y-53520553D01*
X162086976Y-53404188D01*
X162086960Y-53404180D01*
X161871947Y-53315120D01*
X161858575Y-53311537D01*
X161647126Y-53254879D01*
X161647125Y-53254878D01*
X161647122Y-53254878D01*
X161416382Y-53224501D01*
X161416377Y-53224500D01*
X161416372Y-53224500D01*
X161183628Y-53224500D01*
X161183622Y-53224500D01*
X161183617Y-53224501D01*
X160952877Y-53254878D01*
X160728052Y-53315120D01*
X160513039Y-53404180D01*
X160513023Y-53404188D01*
X160311475Y-53520553D01*
X160311459Y-53520564D01*
X160126820Y-53662242D01*
X160126813Y-53662248D01*
X159962248Y-53826813D01*
X159962242Y-53826820D01*
X159820564Y-54011459D01*
X159820553Y-54011475D01*
X159704188Y-54213023D01*
X159704180Y-54213039D01*
X159615120Y-54428052D01*
X159554878Y-54652877D01*
X159524501Y-54883617D01*
X159524500Y-54883634D01*
X159524500Y-55116365D01*
X159524501Y-55116382D01*
X159554865Y-55347024D01*
X159554879Y-55347126D01*
X159608717Y-55548053D01*
X159615120Y-55571947D01*
X159704180Y-55786960D01*
X159704188Y-55786976D01*
X159820553Y-55988524D01*
X159820564Y-55988540D01*
X159962242Y-56173179D01*
X159962248Y-56173186D01*
X160126813Y-56337751D01*
X160126820Y-56337757D01*
X160233280Y-56419446D01*
X160311468Y-56479442D01*
X160487501Y-56581075D01*
X160535716Y-56631641D01*
X160549500Y-56688461D01*
X160549500Y-58337770D01*
X160529815Y-58404809D01*
X160513181Y-58425451D01*
X160225451Y-58713181D01*
X160164128Y-58746666D01*
X160137770Y-58749500D01*
X135124500Y-58749500D01*
X135057461Y-58729815D01*
X135011706Y-58677011D01*
X135000500Y-58625500D01*
X135000500Y-56987059D01*
X135020185Y-56920020D01*
X135072989Y-56874265D01*
X135100308Y-56865442D01*
X135296211Y-56826475D01*
X135481020Y-56749925D01*
X135647344Y-56638791D01*
X135662318Y-56623816D01*
X135723639Y-56590331D01*
X135793331Y-56595314D01*
X135837681Y-56623816D01*
X135845506Y-56631641D01*
X135852657Y-56638792D01*
X136018973Y-56749921D01*
X136018986Y-56749928D01*
X136202625Y-56825993D01*
X136203789Y-56826475D01*
X136347185Y-56854998D01*
X136399977Y-56865499D01*
X136399981Y-56865500D01*
X136399982Y-56865500D01*
X136600019Y-56865500D01*
X136600020Y-56865499D01*
X136796211Y-56826475D01*
X136981020Y-56749925D01*
X137147344Y-56638791D01*
X137162671Y-56623463D01*
X137223989Y-56589978D01*
X137293681Y-56594959D01*
X137338034Y-56623462D01*
X137352971Y-56638399D01*
X137352975Y-56638402D01*
X137519210Y-56749477D01*
X137519223Y-56749484D01*
X137703929Y-56825991D01*
X137703936Y-56825993D01*
X137750000Y-56835155D01*
X137750000Y-55766189D01*
X137775884Y-55792073D01*
X137859115Y-55840126D01*
X137951947Y-55865000D01*
X138048053Y-55865000D01*
X138140885Y-55840126D01*
X138224116Y-55792073D01*
X138250000Y-55766189D01*
X138250000Y-56835154D01*
X138296063Y-56825993D01*
X138296070Y-56825991D01*
X138480776Y-56749484D01*
X138480789Y-56749477D01*
X138647023Y-56638403D01*
X138661962Y-56623464D01*
X138723285Y-56589977D01*
X138792977Y-56594960D01*
X138837329Y-56623464D01*
X138852653Y-56638789D01*
X138852656Y-56638791D01*
X139018973Y-56749921D01*
X139018986Y-56749928D01*
X139202625Y-56825993D01*
X139203789Y-56826475D01*
X139347185Y-56854998D01*
X139399977Y-56865499D01*
X139399981Y-56865500D01*
X139399982Y-56865500D01*
X139600019Y-56865500D01*
X139600020Y-56865499D01*
X139796211Y-56826475D01*
X139981020Y-56749925D01*
X140092751Y-56675268D01*
X140159427Y-56654391D01*
X140226807Y-56672875D01*
X140249322Y-56690690D01*
X140266344Y-56707712D01*
X140415666Y-56799814D01*
X140582203Y-56854999D01*
X140684991Y-56865500D01*
X141315008Y-56865499D01*
X141315016Y-56865498D01*
X141315019Y-56865498D01*
X141371302Y-56859748D01*
X141417797Y-56854999D01*
X141584334Y-56799814D01*
X141733656Y-56707712D01*
X141857712Y-56583656D01*
X141949814Y-56434334D01*
X142004999Y-56267797D01*
X142015500Y-56165009D01*
X142015499Y-54834992D01*
X142004999Y-54732203D01*
X141949814Y-54565666D01*
X141910949Y-54502656D01*
X141872054Y-54439596D01*
X141853614Y-54372204D01*
X141874537Y-54305541D01*
X141928179Y-54260771D01*
X141977593Y-54250500D01*
X145000500Y-54250500D01*
X145067539Y-54270185D01*
X145113294Y-54322989D01*
X145124500Y-54374500D01*
X145124500Y-56075017D01*
X145135000Y-56177796D01*
X145185774Y-56331020D01*
X145190186Y-56344335D01*
X145282288Y-56493656D01*
X145406344Y-56617712D01*
X145555665Y-56709814D01*
X145722202Y-56764999D01*
X145824990Y-56775500D01*
X145824995Y-56775500D01*
X147975005Y-56775500D01*
X147975010Y-56775500D01*
X148077798Y-56764999D01*
X148244335Y-56709814D01*
X148393656Y-56617712D01*
X148517712Y-56493656D01*
X148609814Y-56344335D01*
X148664999Y-56177798D01*
X148675500Y-56075010D01*
X148675500Y-53924990D01*
X148664999Y-53822202D01*
X148609814Y-53655665D01*
X148517712Y-53506344D01*
X148393656Y-53382288D01*
X148285525Y-53315592D01*
X148244337Y-53290187D01*
X148244332Y-53290185D01*
X148242863Y-53289698D01*
X148077798Y-53235001D01*
X148077796Y-53235000D01*
X147975017Y-53224500D01*
X147975010Y-53224500D01*
X146237230Y-53224500D01*
X146170191Y-53204815D01*
X146149549Y-53188181D01*
X145923550Y-52962181D01*
X145890065Y-52900858D01*
X145895049Y-52831166D01*
X145936921Y-52775233D01*
X146002385Y-52750816D01*
X146011231Y-52750500D01*
X150637770Y-52750500D01*
X150704809Y-52770185D01*
X150725451Y-52786819D01*
X150913181Y-52974548D01*
X150927884Y-53001475D01*
X150944477Y-53027294D01*
X150945368Y-53033494D01*
X150946666Y-53035871D01*
X150949500Y-53062229D01*
X150949500Y-53311537D01*
X150929815Y-53378576D01*
X150887501Y-53418924D01*
X150711468Y-53520558D01*
X150711459Y-53520564D01*
X150526820Y-53662242D01*
X150526813Y-53662248D01*
X150362248Y-53826813D01*
X150362242Y-53826820D01*
X150220564Y-54011459D01*
X150220553Y-54011475D01*
X150104188Y-54213023D01*
X150104180Y-54213039D01*
X150015120Y-54428052D01*
X149954878Y-54652877D01*
X149924501Y-54883617D01*
X149924500Y-54883634D01*
X149924500Y-55116365D01*
X149924501Y-55116382D01*
X149954865Y-55347024D01*
X149954879Y-55347126D01*
X150008717Y-55548053D01*
X150015120Y-55571947D01*
X150104180Y-55786960D01*
X150104188Y-55786976D01*
X150220553Y-55988524D01*
X150220564Y-55988540D01*
X150362242Y-56173179D01*
X150362248Y-56173186D01*
X150526813Y-56337751D01*
X150526820Y-56337757D01*
X150633280Y-56419446D01*
X150711468Y-56479442D01*
X150711475Y-56479446D01*
X150913023Y-56595811D01*
X150913039Y-56595819D01*
X151128052Y-56684879D01*
X151128054Y-56684879D01*
X151128060Y-56684882D01*
X151352874Y-56745121D01*
X151583628Y-56775500D01*
X151583635Y-56775500D01*
X151816365Y-56775500D01*
X151816372Y-56775500D01*
X152047126Y-56745121D01*
X152271940Y-56684882D01*
X152383222Y-56638788D01*
X152486960Y-56595819D01*
X152486963Y-56595817D01*
X152486969Y-56595815D01*
X152688532Y-56479442D01*
X152873181Y-56337756D01*
X153037756Y-56173181D01*
X153179442Y-55988532D01*
X153295815Y-55786969D01*
X153384882Y-55571940D01*
X153445121Y-55347126D01*
X153475500Y-55116372D01*
X153475500Y-54883628D01*
X153445121Y-54652874D01*
X153384882Y-54428060D01*
X153378645Y-54413002D01*
X153295819Y-54213039D01*
X153295811Y-54213023D01*
X153179446Y-54011475D01*
X153179442Y-54011468D01*
X153037756Y-53826819D01*
X153037751Y-53826813D01*
X152873186Y-53662248D01*
X152873179Y-53662242D01*
X152688540Y-53520564D01*
X152688538Y-53520563D01*
X152688532Y-53520558D01*
X152615889Y-53478617D01*
X152512499Y-53418924D01*
X152464284Y-53368356D01*
X152450500Y-53311537D01*
X152450500Y-52626079D01*
X152421659Y-52481092D01*
X152421658Y-52481091D01*
X152421658Y-52481087D01*
X152366842Y-52348748D01*
X152365087Y-52344511D01*
X152365080Y-52344498D01*
X152282952Y-52221585D01*
X152260086Y-52198719D01*
X152178416Y-52117049D01*
X152023547Y-51962180D01*
X151990063Y-51900858D01*
X151995047Y-51831166D01*
X152036919Y-51775233D01*
X152102383Y-51750816D01*
X152111229Y-51750500D01*
X155137770Y-51750500D01*
X155204809Y-51770185D01*
X155225451Y-51786819D01*
X155713181Y-52274548D01*
X155746666Y-52335871D01*
X155749500Y-52362229D01*
X155749500Y-53311537D01*
X155729815Y-53378576D01*
X155687501Y-53418924D01*
X155511468Y-53520558D01*
X155511459Y-53520564D01*
X155326820Y-53662242D01*
X155326813Y-53662248D01*
X155162248Y-53826813D01*
X155162242Y-53826820D01*
X155020564Y-54011459D01*
X155020553Y-54011475D01*
X154904188Y-54213023D01*
X154904180Y-54213039D01*
X154815120Y-54428052D01*
X154754878Y-54652877D01*
X154724501Y-54883617D01*
X154724500Y-54883634D01*
X154724500Y-55116365D01*
X154724501Y-55116382D01*
X154754865Y-55347024D01*
X154754879Y-55347126D01*
X154808717Y-55548053D01*
X154815120Y-55571947D01*
X154904180Y-55786960D01*
X154904188Y-55786976D01*
X155020553Y-55988524D01*
X155020564Y-55988540D01*
X155162242Y-56173179D01*
X155162248Y-56173186D01*
X155326813Y-56337751D01*
X155326820Y-56337757D01*
X155433280Y-56419446D01*
X155511468Y-56479442D01*
X155511475Y-56479446D01*
X155713023Y-56595811D01*
X155713039Y-56595819D01*
X155928052Y-56684879D01*
X155928054Y-56684879D01*
X155928060Y-56684882D01*
X156152874Y-56745121D01*
X156383628Y-56775500D01*
X156383635Y-56775500D01*
X156616365Y-56775500D01*
X156616372Y-56775500D01*
X156847126Y-56745121D01*
X157071940Y-56684882D01*
X157183222Y-56638788D01*
X157286960Y-56595819D01*
X157286963Y-56595817D01*
X157286969Y-56595815D01*
X157488532Y-56479442D01*
X157673181Y-56337756D01*
X157837756Y-56173181D01*
X157979442Y-55988532D01*
X158095815Y-55786969D01*
X158184882Y-55571940D01*
X158245121Y-55347126D01*
X158275500Y-55116372D01*
X158275500Y-54883628D01*
X158245121Y-54652874D01*
X158184882Y-54428060D01*
X158178645Y-54413002D01*
X158095819Y-54213039D01*
X158095811Y-54213023D01*
X157979446Y-54011475D01*
X157979442Y-54011468D01*
X157837756Y-53826819D01*
X157837751Y-53826813D01*
X157673186Y-53662248D01*
X157673179Y-53662242D01*
X157488540Y-53520564D01*
X157488538Y-53520563D01*
X157488532Y-53520558D01*
X157415889Y-53478617D01*
X157312499Y-53418924D01*
X157264284Y-53368356D01*
X157250500Y-53311537D01*
X157250500Y-51926079D01*
X157241685Y-51881768D01*
X157225321Y-51799500D01*
X157221659Y-51781088D01*
X157166626Y-51648230D01*
X157165921Y-51646355D01*
X157165883Y-51645855D01*
X157165764Y-51645522D01*
X157082954Y-51521588D01*
X157082953Y-51521587D01*
X157082951Y-51521584D01*
X156978416Y-51417049D01*
X156978415Y-51417048D01*
X156732268Y-51170901D01*
X155978421Y-50417052D01*
X155978414Y-50417046D01*
X155904729Y-50367812D01*
X155904729Y-50367813D01*
X155855491Y-50334913D01*
X155718917Y-50278343D01*
X155718907Y-50278340D01*
X155573920Y-50249500D01*
X155573918Y-50249500D01*
X137035270Y-50249500D01*
X137017115Y-50244169D01*
X136998195Y-50243828D01*
X136970016Y-50230339D01*
X136968231Y-50229815D01*
X136966360Y-50228589D01*
X136964864Y-50227589D01*
X136920069Y-50173969D01*
X136911374Y-50104642D01*
X136941541Y-50041620D01*
X137000991Y-50004912D01*
X137033774Y-50000500D01*
X197496250Y-50000500D01*
X197503736Y-50000726D01*
G37*
G04 #@! TD.AperFunction*
G04 #@! TA.AperFunction,Conductor*
G36*
X126692539Y-54270185D02*
G01*
X126738294Y-54322989D01*
X126749500Y-54374500D01*
X126749500Y-54413002D01*
X126729815Y-54480041D01*
X126713181Y-54500683D01*
X126711211Y-54502652D01*
X126711208Y-54502656D01*
X126600078Y-54668973D01*
X126600071Y-54668986D01*
X126523526Y-54853784D01*
X126523523Y-54853796D01*
X126484500Y-55049977D01*
X126484500Y-55950022D01*
X126523523Y-56146203D01*
X126523526Y-56146215D01*
X126600071Y-56331013D01*
X126600078Y-56331026D01*
X126711208Y-56497343D01*
X126711211Y-56497347D01*
X126852652Y-56638788D01*
X126852656Y-56638791D01*
X127018973Y-56749921D01*
X127018986Y-56749928D01*
X127202625Y-56825993D01*
X127203789Y-56826475D01*
X127347185Y-56854998D01*
X127399977Y-56865499D01*
X127399981Y-56865500D01*
X127399982Y-56865500D01*
X127600019Y-56865500D01*
X127600020Y-56865499D01*
X127796211Y-56826475D01*
X127981020Y-56749925D01*
X128147344Y-56638791D01*
X128162318Y-56623816D01*
X128223639Y-56590331D01*
X128293331Y-56595314D01*
X128337681Y-56623816D01*
X128345506Y-56631641D01*
X128352657Y-56638792D01*
X128518973Y-56749921D01*
X128518986Y-56749928D01*
X128702625Y-56825993D01*
X128703789Y-56826475D01*
X128847185Y-56854998D01*
X128899977Y-56865499D01*
X128899981Y-56865500D01*
X128899982Y-56865500D01*
X129100019Y-56865500D01*
X129100020Y-56865499D01*
X129296211Y-56826475D01*
X129481020Y-56749925D01*
X129647344Y-56638791D01*
X129662671Y-56623463D01*
X129723989Y-56589978D01*
X129793681Y-56594959D01*
X129838034Y-56623462D01*
X129852971Y-56638399D01*
X129852975Y-56638402D01*
X130019210Y-56749477D01*
X130019223Y-56749484D01*
X130203929Y-56825991D01*
X130203936Y-56825993D01*
X130250000Y-56835155D01*
X130250000Y-55766189D01*
X130275884Y-55792073D01*
X130359115Y-55840126D01*
X130451947Y-55865000D01*
X130548053Y-55865000D01*
X130640885Y-55840126D01*
X130724116Y-55792073D01*
X130750000Y-55766189D01*
X130750000Y-56835154D01*
X130796063Y-56825993D01*
X130796070Y-56825991D01*
X130980776Y-56749484D01*
X130980789Y-56749477D01*
X131147023Y-56638403D01*
X131161962Y-56623464D01*
X131223285Y-56589977D01*
X131292977Y-56594960D01*
X131337329Y-56623464D01*
X131352653Y-56638789D01*
X131352656Y-56638791D01*
X131518973Y-56749921D01*
X131518986Y-56749928D01*
X131702625Y-56825993D01*
X131703789Y-56826475D01*
X131847185Y-56854998D01*
X131899977Y-56865499D01*
X131899981Y-56865500D01*
X131899982Y-56865500D01*
X132100019Y-56865500D01*
X132100020Y-56865499D01*
X132296211Y-56826475D01*
X132481020Y-56749925D01*
X132647344Y-56638791D01*
X132662318Y-56623816D01*
X132723639Y-56590331D01*
X132793331Y-56595314D01*
X132837681Y-56623816D01*
X132845506Y-56631641D01*
X132852657Y-56638792D01*
X133018973Y-56749921D01*
X133018986Y-56749928D01*
X133202625Y-56825993D01*
X133203789Y-56826475D01*
X133399691Y-56865442D01*
X133461602Y-56897826D01*
X133496176Y-56958542D01*
X133499500Y-56987059D01*
X133499500Y-58625500D01*
X133479815Y-58692539D01*
X133427011Y-58738294D01*
X133375500Y-58749500D01*
X115124500Y-58749500D01*
X115057461Y-58729815D01*
X115011706Y-58677011D01*
X115000500Y-58625500D01*
X115000500Y-56987059D01*
X115020185Y-56920020D01*
X115072989Y-56874265D01*
X115100308Y-56865442D01*
X115296211Y-56826475D01*
X115481020Y-56749925D01*
X115647344Y-56638791D01*
X115662318Y-56623816D01*
X115723639Y-56590331D01*
X115793331Y-56595314D01*
X115837681Y-56623816D01*
X115845506Y-56631641D01*
X115852657Y-56638792D01*
X116018973Y-56749921D01*
X116018986Y-56749928D01*
X116202625Y-56825993D01*
X116203789Y-56826475D01*
X116347185Y-56854998D01*
X116399977Y-56865499D01*
X116399981Y-56865500D01*
X116399982Y-56865500D01*
X116600019Y-56865500D01*
X116600020Y-56865499D01*
X116796211Y-56826475D01*
X116981020Y-56749925D01*
X117147344Y-56638791D01*
X117162671Y-56623463D01*
X117223989Y-56589978D01*
X117293681Y-56594959D01*
X117338034Y-56623462D01*
X117352971Y-56638399D01*
X117352975Y-56638402D01*
X117519210Y-56749477D01*
X117519223Y-56749484D01*
X117703929Y-56825991D01*
X117703936Y-56825993D01*
X117750000Y-56835155D01*
X117750000Y-55766189D01*
X117775884Y-55792073D01*
X117859115Y-55840126D01*
X117951947Y-55865000D01*
X118048053Y-55865000D01*
X118140885Y-55840126D01*
X118224116Y-55792073D01*
X118250000Y-55766189D01*
X118250000Y-56835154D01*
X118296063Y-56825993D01*
X118296070Y-56825991D01*
X118480776Y-56749484D01*
X118480789Y-56749477D01*
X118647023Y-56638403D01*
X118661962Y-56623464D01*
X118723285Y-56589977D01*
X118792977Y-56594960D01*
X118837329Y-56623464D01*
X118852653Y-56638789D01*
X118852656Y-56638791D01*
X119018973Y-56749921D01*
X119018986Y-56749928D01*
X119202625Y-56825993D01*
X119203789Y-56826475D01*
X119347185Y-56854998D01*
X119399977Y-56865499D01*
X119399981Y-56865500D01*
X119399982Y-56865500D01*
X119600019Y-56865500D01*
X119600020Y-56865499D01*
X119796211Y-56826475D01*
X119981020Y-56749925D01*
X120092751Y-56675268D01*
X120159427Y-56654391D01*
X120226807Y-56672875D01*
X120249322Y-56690690D01*
X120266344Y-56707712D01*
X120415666Y-56799814D01*
X120582203Y-56854999D01*
X120684991Y-56865500D01*
X121315008Y-56865499D01*
X121315016Y-56865498D01*
X121315019Y-56865498D01*
X121371302Y-56859748D01*
X121417797Y-56854999D01*
X121584334Y-56799814D01*
X121733656Y-56707712D01*
X121857712Y-56583656D01*
X121949814Y-56434334D01*
X122004999Y-56267797D01*
X122015500Y-56165009D01*
X122015499Y-54834992D01*
X122004999Y-54732203D01*
X121949814Y-54565666D01*
X121910949Y-54502656D01*
X121872054Y-54439596D01*
X121853614Y-54372204D01*
X121874537Y-54305541D01*
X121928179Y-54260771D01*
X121977593Y-54250500D01*
X126625500Y-54250500D01*
X126692539Y-54270185D01*
G37*
G04 #@! TD.AperFunction*
M02*
