G04 #@! TF.GenerationSoftware,KiCad,Pcbnew,9.0.0*
G04 #@! TF.CreationDate,2025-07-04T16:46:46-07:00*
G04 #@! TF.ProjectId,bipolar_current_control,6269706f-6c61-4725-9f63-757272656e74,rev?*
G04 #@! TF.SameCoordinates,Original*
G04 #@! TF.FileFunction,Legend,Bot*
G04 #@! TF.FilePolarity,Positive*
%FSLAX46Y46*%
G04 Gerber Fmt 4.6, Leading zero omitted, Abs format (unit mm)*
G04 Created by KiCad (PCBNEW 9.0.0) date 2025-07-04 16:46:46*
%MOMM*%
%LPD*%
G01*
G04 APERTURE LIST*
G04 Aperture macros list*
%AMRoundRect*
0 Rectangle with rounded corners*
0 $1 Rounding radius*
0 $2 $3 $4 $5 $6 $7 $8 $9 X,Y pos of 4 corners*
0 Add a 4 corners polygon primitive as box body*
4,1,4,$2,$3,$4,$5,$6,$7,$8,$9,$2,$3,0*
0 Add four circle primitives for the rounded corners*
1,1,$1+$1,$2,$3*
1,1,$1+$1,$4,$5*
1,1,$1+$1,$6,$7*
1,1,$1+$1,$8,$9*
0 Add four rect primitives between the rounded corners*
20,1,$1+$1,$2,$3,$4,$5,0*
20,1,$1+$1,$4,$5,$6,$7,0*
20,1,$1+$1,$6,$7,$8,$9,0*
20,1,$1+$1,$8,$9,$2,$3,0*%
G04 Aperture macros list end*
%ADD10C,0.150000*%
%ADD11C,1.600000*%
%ADD12C,3.500000*%
%ADD13R,2.000000X2.000000*%
%ADD14C,2.000000*%
%ADD15R,1.700000X1.700000*%
%ADD16O,1.700000X1.700000*%
%ADD17R,1.600000X1.600000*%
%ADD18O,1.600000X1.600000*%
%ADD19R,2.420000X5.080000*%
%ADD20C,2.400000*%
%ADD21O,2.400000X2.400000*%
%ADD22RoundRect,0.249999X-1.025001X-1.025001X1.025001X-1.025001X1.025001X1.025001X-1.025001X1.025001X0*%
%ADD23C,2.550000*%
%ADD24RoundRect,0.250000X0.265000X0.615000X-0.265000X0.615000X-0.265000X-0.615000X0.265000X-0.615000X0*%
%ADD25O,1.030000X1.730000*%
%ADD26C,3.200000*%
%ADD27R,1.905000X2.000000*%
%ADD28O,1.905000X2.000000*%
%ADD29RoundRect,0.250000X-0.950000X-0.550000X0.950000X-0.550000X0.950000X0.550000X-0.950000X0.550000X0*%
%ADD30O,2.400000X1.600000*%
G04 APERTURE END LIST*
D10*
X190000000Y-70000000D02*
X190000000Y-130000000D01*
X115000000Y-65000000D02*
X185000000Y-65000000D01*
X389048571Y-112482200D02*
X389143809Y-112529819D01*
X389143809Y-112529819D02*
X389334285Y-112529819D01*
X389334285Y-112529819D02*
X389429523Y-112482200D01*
X389429523Y-112482200D02*
X389477142Y-112386961D01*
X389477142Y-112386961D02*
X389477142Y-112006009D01*
X389477142Y-112006009D02*
X389429523Y-111910771D01*
X389429523Y-111910771D02*
X389334285Y-111863152D01*
X389334285Y-111863152D02*
X389143809Y-111863152D01*
X389143809Y-111863152D02*
X389048571Y-111910771D01*
X389048571Y-111910771D02*
X389000952Y-112006009D01*
X389000952Y-112006009D02*
X389000952Y-112101247D01*
X389000952Y-112101247D02*
X389477142Y-112196485D01*
X388572380Y-112529819D02*
X388572380Y-111863152D01*
X388572380Y-112053628D02*
X388524761Y-111958390D01*
X388524761Y-111958390D02*
X388477142Y-111910771D01*
X388477142Y-111910771D02*
X388381904Y-111863152D01*
X388381904Y-111863152D02*
X388286666Y-111863152D01*
X387953332Y-112529819D02*
X387953332Y-111863152D01*
X387953332Y-112053628D02*
X387905713Y-111958390D01*
X387905713Y-111958390D02*
X387858094Y-111910771D01*
X387858094Y-111910771D02*
X387762856Y-111863152D01*
X387762856Y-111863152D02*
X387667618Y-111863152D01*
X102203152Y-106921541D02*
X102869819Y-107159636D01*
X102869819Y-107159636D02*
X102203152Y-107397731D01*
X102869819Y-108302493D02*
X102869819Y-107731065D01*
X102869819Y-108016779D02*
X101869819Y-108016779D01*
X101869819Y-108016779D02*
X102012676Y-107921541D01*
X102012676Y-107921541D02*
X102107914Y-107826303D01*
X102107914Y-107826303D02*
X102155533Y-107731065D01*
X101699819Y-71241541D02*
X101795057Y-71527255D01*
X101795057Y-71527255D02*
X101890295Y-71622493D01*
X101890295Y-71622493D02*
X102080771Y-71717731D01*
X102080771Y-71717731D02*
X102366485Y-71717731D01*
X102366485Y-71717731D02*
X102556961Y-71622493D01*
X102556961Y-71622493D02*
X102652200Y-71527255D01*
X102652200Y-71527255D02*
X102747438Y-71336779D01*
X102747438Y-71336779D02*
X102747438Y-70574874D01*
X102747438Y-70574874D02*
X100747438Y-70574874D01*
X100747438Y-70574874D02*
X100747438Y-71241541D01*
X100747438Y-71241541D02*
X100842676Y-71432017D01*
X100842676Y-71432017D02*
X100937914Y-71527255D01*
X100937914Y-71527255D02*
X101128390Y-71622493D01*
X101128390Y-71622493D02*
X101318866Y-71622493D01*
X101318866Y-71622493D02*
X101509342Y-71527255D01*
X101509342Y-71527255D02*
X101604580Y-71432017D01*
X101604580Y-71432017D02*
X101699819Y-71241541D01*
X101699819Y-71241541D02*
X101699819Y-70574874D01*
X102747438Y-72574874D02*
X101414104Y-72574874D01*
X100747438Y-72574874D02*
X100842676Y-72479636D01*
X100842676Y-72479636D02*
X100937914Y-72574874D01*
X100937914Y-72574874D02*
X100842676Y-72670112D01*
X100842676Y-72670112D02*
X100747438Y-72574874D01*
X100747438Y-72574874D02*
X100937914Y-72574874D01*
X101414104Y-73527255D02*
X103414104Y-73527255D01*
X101509342Y-73527255D02*
X101414104Y-73717731D01*
X101414104Y-73717731D02*
X101414104Y-74098684D01*
X101414104Y-74098684D02*
X101509342Y-74289160D01*
X101509342Y-74289160D02*
X101604580Y-74384398D01*
X101604580Y-74384398D02*
X101795057Y-74479636D01*
X101795057Y-74479636D02*
X102366485Y-74479636D01*
X102366485Y-74479636D02*
X102556961Y-74384398D01*
X102556961Y-74384398D02*
X102652200Y-74289160D01*
X102652200Y-74289160D02*
X102747438Y-74098684D01*
X102747438Y-74098684D02*
X102747438Y-73717731D01*
X102747438Y-73717731D02*
X102652200Y-73527255D01*
X102747438Y-75622493D02*
X102652200Y-75432017D01*
X102652200Y-75432017D02*
X102556961Y-75336779D01*
X102556961Y-75336779D02*
X102366485Y-75241541D01*
X102366485Y-75241541D02*
X101795057Y-75241541D01*
X101795057Y-75241541D02*
X101604580Y-75336779D01*
X101604580Y-75336779D02*
X101509342Y-75432017D01*
X101509342Y-75432017D02*
X101414104Y-75622493D01*
X101414104Y-75622493D02*
X101414104Y-75908208D01*
X101414104Y-75908208D02*
X101509342Y-76098684D01*
X101509342Y-76098684D02*
X101604580Y-76193922D01*
X101604580Y-76193922D02*
X101795057Y-76289160D01*
X101795057Y-76289160D02*
X102366485Y-76289160D01*
X102366485Y-76289160D02*
X102556961Y-76193922D01*
X102556961Y-76193922D02*
X102652200Y-76098684D01*
X102652200Y-76098684D02*
X102747438Y-75908208D01*
X102747438Y-75908208D02*
X102747438Y-75622493D01*
X102747438Y-77432017D02*
X102652200Y-77241541D01*
X102652200Y-77241541D02*
X102461723Y-77146303D01*
X102461723Y-77146303D02*
X100747438Y-77146303D01*
X102747438Y-79051065D02*
X101699819Y-79051065D01*
X101699819Y-79051065D02*
X101509342Y-78955827D01*
X101509342Y-78955827D02*
X101414104Y-78765351D01*
X101414104Y-78765351D02*
X101414104Y-78384398D01*
X101414104Y-78384398D02*
X101509342Y-78193922D01*
X102652200Y-79051065D02*
X102747438Y-78860589D01*
X102747438Y-78860589D02*
X102747438Y-78384398D01*
X102747438Y-78384398D02*
X102652200Y-78193922D01*
X102652200Y-78193922D02*
X102461723Y-78098684D01*
X102461723Y-78098684D02*
X102271247Y-78098684D01*
X102271247Y-78098684D02*
X102080771Y-78193922D01*
X102080771Y-78193922D02*
X101985533Y-78384398D01*
X101985533Y-78384398D02*
X101985533Y-78860589D01*
X101985533Y-78860589D02*
X101890295Y-79051065D01*
X102747438Y-80003446D02*
X101414104Y-80003446D01*
X101795057Y-80003446D02*
X101604580Y-80098684D01*
X101604580Y-80098684D02*
X101509342Y-80193922D01*
X101509342Y-80193922D02*
X101414104Y-80384398D01*
X101414104Y-80384398D02*
X101414104Y-80574875D01*
X102556961Y-83908208D02*
X102652200Y-83812970D01*
X102652200Y-83812970D02*
X102747438Y-83527256D01*
X102747438Y-83527256D02*
X102747438Y-83336780D01*
X102747438Y-83336780D02*
X102652200Y-83051065D01*
X102652200Y-83051065D02*
X102461723Y-82860589D01*
X102461723Y-82860589D02*
X102271247Y-82765351D01*
X102271247Y-82765351D02*
X101890295Y-82670113D01*
X101890295Y-82670113D02*
X101604580Y-82670113D01*
X101604580Y-82670113D02*
X101223628Y-82765351D01*
X101223628Y-82765351D02*
X101033152Y-82860589D01*
X101033152Y-82860589D02*
X100842676Y-83051065D01*
X100842676Y-83051065D02*
X100747438Y-83336780D01*
X100747438Y-83336780D02*
X100747438Y-83527256D01*
X100747438Y-83527256D02*
X100842676Y-83812970D01*
X100842676Y-83812970D02*
X100937914Y-83908208D01*
X101414104Y-85622494D02*
X102747438Y-85622494D01*
X101414104Y-84765351D02*
X102461723Y-84765351D01*
X102461723Y-84765351D02*
X102652200Y-84860589D01*
X102652200Y-84860589D02*
X102747438Y-85051065D01*
X102747438Y-85051065D02*
X102747438Y-85336780D01*
X102747438Y-85336780D02*
X102652200Y-85527256D01*
X102652200Y-85527256D02*
X102556961Y-85622494D01*
X102747438Y-86574875D02*
X101414104Y-86574875D01*
X101795057Y-86574875D02*
X101604580Y-86670113D01*
X101604580Y-86670113D02*
X101509342Y-86765351D01*
X101509342Y-86765351D02*
X101414104Y-86955827D01*
X101414104Y-86955827D02*
X101414104Y-87146304D01*
X102747438Y-87812970D02*
X101414104Y-87812970D01*
X101795057Y-87812970D02*
X101604580Y-87908208D01*
X101604580Y-87908208D02*
X101509342Y-88003446D01*
X101509342Y-88003446D02*
X101414104Y-88193922D01*
X101414104Y-88193922D02*
X101414104Y-88384399D01*
X102652200Y-89812970D02*
X102747438Y-89622494D01*
X102747438Y-89622494D02*
X102747438Y-89241541D01*
X102747438Y-89241541D02*
X102652200Y-89051065D01*
X102652200Y-89051065D02*
X102461723Y-88955827D01*
X102461723Y-88955827D02*
X101699819Y-88955827D01*
X101699819Y-88955827D02*
X101509342Y-89051065D01*
X101509342Y-89051065D02*
X101414104Y-89241541D01*
X101414104Y-89241541D02*
X101414104Y-89622494D01*
X101414104Y-89622494D02*
X101509342Y-89812970D01*
X101509342Y-89812970D02*
X101699819Y-89908208D01*
X101699819Y-89908208D02*
X101890295Y-89908208D01*
X101890295Y-89908208D02*
X102080771Y-88955827D01*
X101414104Y-90765351D02*
X102747438Y-90765351D01*
X101604580Y-90765351D02*
X101509342Y-90860589D01*
X101509342Y-90860589D02*
X101414104Y-91051065D01*
X101414104Y-91051065D02*
X101414104Y-91336780D01*
X101414104Y-91336780D02*
X101509342Y-91527256D01*
X101509342Y-91527256D02*
X101699819Y-91622494D01*
X101699819Y-91622494D02*
X102747438Y-91622494D01*
X101414104Y-92289161D02*
X101414104Y-93051065D01*
X100747438Y-92574875D02*
X102461723Y-92574875D01*
X102461723Y-92574875D02*
X102652200Y-92670113D01*
X102652200Y-92670113D02*
X102747438Y-92860589D01*
X102747438Y-92860589D02*
X102747438Y-93051065D01*
X102556961Y-96384399D02*
X102652200Y-96289161D01*
X102652200Y-96289161D02*
X102747438Y-96003447D01*
X102747438Y-96003447D02*
X102747438Y-95812971D01*
X102747438Y-95812971D02*
X102652200Y-95527256D01*
X102652200Y-95527256D02*
X102461723Y-95336780D01*
X102461723Y-95336780D02*
X102271247Y-95241542D01*
X102271247Y-95241542D02*
X101890295Y-95146304D01*
X101890295Y-95146304D02*
X101604580Y-95146304D01*
X101604580Y-95146304D02*
X101223628Y-95241542D01*
X101223628Y-95241542D02*
X101033152Y-95336780D01*
X101033152Y-95336780D02*
X100842676Y-95527256D01*
X100842676Y-95527256D02*
X100747438Y-95812971D01*
X100747438Y-95812971D02*
X100747438Y-96003447D01*
X100747438Y-96003447D02*
X100842676Y-96289161D01*
X100842676Y-96289161D02*
X100937914Y-96384399D01*
X102747438Y-97527256D02*
X102652200Y-97336780D01*
X102652200Y-97336780D02*
X102556961Y-97241542D01*
X102556961Y-97241542D02*
X102366485Y-97146304D01*
X102366485Y-97146304D02*
X101795057Y-97146304D01*
X101795057Y-97146304D02*
X101604580Y-97241542D01*
X101604580Y-97241542D02*
X101509342Y-97336780D01*
X101509342Y-97336780D02*
X101414104Y-97527256D01*
X101414104Y-97527256D02*
X101414104Y-97812971D01*
X101414104Y-97812971D02*
X101509342Y-98003447D01*
X101509342Y-98003447D02*
X101604580Y-98098685D01*
X101604580Y-98098685D02*
X101795057Y-98193923D01*
X101795057Y-98193923D02*
X102366485Y-98193923D01*
X102366485Y-98193923D02*
X102556961Y-98098685D01*
X102556961Y-98098685D02*
X102652200Y-98003447D01*
X102652200Y-98003447D02*
X102747438Y-97812971D01*
X102747438Y-97812971D02*
X102747438Y-97527256D01*
X101414104Y-99051066D02*
X102747438Y-99051066D01*
X101604580Y-99051066D02*
X101509342Y-99146304D01*
X101509342Y-99146304D02*
X101414104Y-99336780D01*
X101414104Y-99336780D02*
X101414104Y-99622495D01*
X101414104Y-99622495D02*
X101509342Y-99812971D01*
X101509342Y-99812971D02*
X101699819Y-99908209D01*
X101699819Y-99908209D02*
X102747438Y-99908209D01*
X101414104Y-100574876D02*
X101414104Y-101336780D01*
X100747438Y-100860590D02*
X102461723Y-100860590D01*
X102461723Y-100860590D02*
X102652200Y-100955828D01*
X102652200Y-100955828D02*
X102747438Y-101146304D01*
X102747438Y-101146304D02*
X102747438Y-101336780D01*
X102747438Y-102003447D02*
X101414104Y-102003447D01*
X101795057Y-102003447D02*
X101604580Y-102098685D01*
X101604580Y-102098685D02*
X101509342Y-102193923D01*
X101509342Y-102193923D02*
X101414104Y-102384399D01*
X101414104Y-102384399D02*
X101414104Y-102574876D01*
X102747438Y-103527256D02*
X102652200Y-103336780D01*
X102652200Y-103336780D02*
X102556961Y-103241542D01*
X102556961Y-103241542D02*
X102366485Y-103146304D01*
X102366485Y-103146304D02*
X101795057Y-103146304D01*
X101795057Y-103146304D02*
X101604580Y-103241542D01*
X101604580Y-103241542D02*
X101509342Y-103336780D01*
X101509342Y-103336780D02*
X101414104Y-103527256D01*
X101414104Y-103527256D02*
X101414104Y-103812971D01*
X101414104Y-103812971D02*
X101509342Y-104003447D01*
X101509342Y-104003447D02*
X101604580Y-104098685D01*
X101604580Y-104098685D02*
X101795057Y-104193923D01*
X101795057Y-104193923D02*
X102366485Y-104193923D01*
X102366485Y-104193923D02*
X102556961Y-104098685D01*
X102556961Y-104098685D02*
X102652200Y-104003447D01*
X102652200Y-104003447D02*
X102747438Y-103812971D01*
X102747438Y-103812971D02*
X102747438Y-103527256D01*
X102747438Y-105336780D02*
X102652200Y-105146304D01*
X102652200Y-105146304D02*
X102461723Y-105051066D01*
X102461723Y-105051066D02*
X100747438Y-105051066D01*
X104774580Y-70908207D02*
X104822200Y-70860588D01*
X104822200Y-70860588D02*
X104869819Y-70717731D01*
X104869819Y-70717731D02*
X104869819Y-70622493D01*
X104869819Y-70622493D02*
X104822200Y-70479636D01*
X104822200Y-70479636D02*
X104726961Y-70384398D01*
X104726961Y-70384398D02*
X104631723Y-70336779D01*
X104631723Y-70336779D02*
X104441247Y-70289160D01*
X104441247Y-70289160D02*
X104298390Y-70289160D01*
X104298390Y-70289160D02*
X104107914Y-70336779D01*
X104107914Y-70336779D02*
X104012676Y-70384398D01*
X104012676Y-70384398D02*
X103917438Y-70479636D01*
X103917438Y-70479636D02*
X103869819Y-70622493D01*
X103869819Y-70622493D02*
X103869819Y-70717731D01*
X103869819Y-70717731D02*
X103917438Y-70860588D01*
X103917438Y-70860588D02*
X103965057Y-70908207D01*
X104869819Y-71765350D02*
X104346009Y-71765350D01*
X104346009Y-71765350D02*
X104250771Y-71717731D01*
X104250771Y-71717731D02*
X104203152Y-71622493D01*
X104203152Y-71622493D02*
X104203152Y-71432017D01*
X104203152Y-71432017D02*
X104250771Y-71336779D01*
X104822200Y-71765350D02*
X104869819Y-71670112D01*
X104869819Y-71670112D02*
X104869819Y-71432017D01*
X104869819Y-71432017D02*
X104822200Y-71336779D01*
X104822200Y-71336779D02*
X104726961Y-71289160D01*
X104726961Y-71289160D02*
X104631723Y-71289160D01*
X104631723Y-71289160D02*
X104536485Y-71336779D01*
X104536485Y-71336779D02*
X104488866Y-71432017D01*
X104488866Y-71432017D02*
X104488866Y-71670112D01*
X104488866Y-71670112D02*
X104441247Y-71765350D01*
X104203152Y-72146303D02*
X104869819Y-72384398D01*
X104869819Y-72384398D02*
X104203152Y-72622493D01*
X104869819Y-73003446D02*
X104203152Y-73003446D01*
X103869819Y-73003446D02*
X103917438Y-72955827D01*
X103917438Y-72955827D02*
X103965057Y-73003446D01*
X103965057Y-73003446D02*
X103917438Y-73051065D01*
X103917438Y-73051065D02*
X103869819Y-73003446D01*
X103869819Y-73003446D02*
X103965057Y-73003446D01*
X104203152Y-73336779D02*
X104203152Y-73717731D01*
X103869819Y-73479636D02*
X104726961Y-73479636D01*
X104726961Y-73479636D02*
X104822200Y-73527255D01*
X104822200Y-73527255D02*
X104869819Y-73622493D01*
X104869819Y-73622493D02*
X104869819Y-73717731D01*
X104203152Y-73955827D02*
X104869819Y-74193922D01*
X104203152Y-74432017D02*
X104869819Y-74193922D01*
X104869819Y-74193922D02*
X105107914Y-74098684D01*
X105107914Y-74098684D02*
X105155533Y-74051065D01*
X105155533Y-74051065D02*
X105203152Y-73955827D01*
X104584104Y-75527256D02*
X104584104Y-76003446D01*
X104869819Y-75432018D02*
X103869819Y-75765351D01*
X103869819Y-75765351D02*
X104869819Y-76098684D01*
X104869819Y-76432018D02*
X103869819Y-76432018D01*
X104822200Y-76955827D02*
X104869819Y-76955827D01*
X104869819Y-76955827D02*
X104965057Y-76908208D01*
X104965057Y-76908208D02*
X105012676Y-76860589D01*
X104869819Y-78146303D02*
X103869819Y-78146303D01*
X103869819Y-78146303D02*
X104584104Y-78479636D01*
X104584104Y-78479636D02*
X103869819Y-78812969D01*
X103869819Y-78812969D02*
X104869819Y-78812969D01*
X104203152Y-79717731D02*
X104869819Y-79717731D01*
X104203152Y-79289160D02*
X104726961Y-79289160D01*
X104726961Y-79289160D02*
X104822200Y-79336779D01*
X104822200Y-79336779D02*
X104869819Y-79432017D01*
X104869819Y-79432017D02*
X104869819Y-79574874D01*
X104869819Y-79574874D02*
X104822200Y-79670112D01*
X104822200Y-79670112D02*
X104774580Y-79717731D01*
X104822200Y-80574874D02*
X104869819Y-80479636D01*
X104869819Y-80479636D02*
X104869819Y-80289160D01*
X104869819Y-80289160D02*
X104822200Y-80193922D01*
X104822200Y-80193922D02*
X104726961Y-80146303D01*
X104726961Y-80146303D02*
X104346009Y-80146303D01*
X104346009Y-80146303D02*
X104250771Y-80193922D01*
X104250771Y-80193922D02*
X104203152Y-80289160D01*
X104203152Y-80289160D02*
X104203152Y-80479636D01*
X104203152Y-80479636D02*
X104250771Y-80574874D01*
X104250771Y-80574874D02*
X104346009Y-80622493D01*
X104346009Y-80622493D02*
X104441247Y-80622493D01*
X104441247Y-80622493D02*
X104536485Y-80146303D01*
X104869819Y-81193922D02*
X104822200Y-81098684D01*
X104822200Y-81098684D02*
X104726961Y-81051065D01*
X104726961Y-81051065D02*
X103869819Y-81051065D01*
X104869819Y-81717732D02*
X104822200Y-81622494D01*
X104822200Y-81622494D02*
X104726961Y-81574875D01*
X104726961Y-81574875D02*
X103869819Y-81574875D01*
X104822200Y-82479637D02*
X104869819Y-82384399D01*
X104869819Y-82384399D02*
X104869819Y-82193923D01*
X104869819Y-82193923D02*
X104822200Y-82098685D01*
X104822200Y-82098685D02*
X104726961Y-82051066D01*
X104726961Y-82051066D02*
X104346009Y-82051066D01*
X104346009Y-82051066D02*
X104250771Y-82098685D01*
X104250771Y-82098685D02*
X104203152Y-82193923D01*
X104203152Y-82193923D02*
X104203152Y-82384399D01*
X104203152Y-82384399D02*
X104250771Y-82479637D01*
X104250771Y-82479637D02*
X104346009Y-82527256D01*
X104346009Y-82527256D02*
X104441247Y-82527256D01*
X104441247Y-82527256D02*
X104536485Y-82051066D01*
X104869819Y-82955828D02*
X104203152Y-82955828D01*
X104393628Y-82955828D02*
X104298390Y-83003447D01*
X104298390Y-83003447D02*
X104250771Y-83051066D01*
X104250771Y-83051066D02*
X104203152Y-83146304D01*
X104203152Y-83146304D02*
X104203152Y-83241542D01*
X103917438Y-84860590D02*
X103869819Y-84765352D01*
X103869819Y-84765352D02*
X103869819Y-84622495D01*
X103869819Y-84622495D02*
X103917438Y-84479638D01*
X103917438Y-84479638D02*
X104012676Y-84384400D01*
X104012676Y-84384400D02*
X104107914Y-84336781D01*
X104107914Y-84336781D02*
X104298390Y-84289162D01*
X104298390Y-84289162D02*
X104441247Y-84289162D01*
X104441247Y-84289162D02*
X104631723Y-84336781D01*
X104631723Y-84336781D02*
X104726961Y-84384400D01*
X104726961Y-84384400D02*
X104822200Y-84479638D01*
X104822200Y-84479638D02*
X104869819Y-84622495D01*
X104869819Y-84622495D02*
X104869819Y-84717733D01*
X104869819Y-84717733D02*
X104822200Y-84860590D01*
X104822200Y-84860590D02*
X104774580Y-84908209D01*
X104774580Y-84908209D02*
X104441247Y-84908209D01*
X104441247Y-84908209D02*
X104441247Y-84717733D01*
X104869819Y-85336781D02*
X104203152Y-85336781D01*
X104393628Y-85336781D02*
X104298390Y-85384400D01*
X104298390Y-85384400D02*
X104250771Y-85432019D01*
X104250771Y-85432019D02*
X104203152Y-85527257D01*
X104203152Y-85527257D02*
X104203152Y-85622495D01*
X104869819Y-86098686D02*
X104822200Y-86003448D01*
X104822200Y-86003448D02*
X104774580Y-85955829D01*
X104774580Y-85955829D02*
X104679342Y-85908210D01*
X104679342Y-85908210D02*
X104393628Y-85908210D01*
X104393628Y-85908210D02*
X104298390Y-85955829D01*
X104298390Y-85955829D02*
X104250771Y-86003448D01*
X104250771Y-86003448D02*
X104203152Y-86098686D01*
X104203152Y-86098686D02*
X104203152Y-86241543D01*
X104203152Y-86241543D02*
X104250771Y-86336781D01*
X104250771Y-86336781D02*
X104298390Y-86384400D01*
X104298390Y-86384400D02*
X104393628Y-86432019D01*
X104393628Y-86432019D02*
X104679342Y-86432019D01*
X104679342Y-86432019D02*
X104774580Y-86384400D01*
X104774580Y-86384400D02*
X104822200Y-86336781D01*
X104822200Y-86336781D02*
X104869819Y-86241543D01*
X104869819Y-86241543D02*
X104869819Y-86098686D01*
X104203152Y-87289162D02*
X104869819Y-87289162D01*
X104203152Y-86860591D02*
X104726961Y-86860591D01*
X104726961Y-86860591D02*
X104822200Y-86908210D01*
X104822200Y-86908210D02*
X104869819Y-87003448D01*
X104869819Y-87003448D02*
X104869819Y-87146305D01*
X104869819Y-87146305D02*
X104822200Y-87241543D01*
X104822200Y-87241543D02*
X104774580Y-87289162D01*
X104203152Y-87765353D02*
X105203152Y-87765353D01*
X104250771Y-87765353D02*
X104203152Y-87860591D01*
X104203152Y-87860591D02*
X104203152Y-88051067D01*
X104203152Y-88051067D02*
X104250771Y-88146305D01*
X104250771Y-88146305D02*
X104298390Y-88193924D01*
X104298390Y-88193924D02*
X104393628Y-88241543D01*
X104393628Y-88241543D02*
X104679342Y-88241543D01*
X104679342Y-88241543D02*
X104774580Y-88193924D01*
X104774580Y-88193924D02*
X104822200Y-88146305D01*
X104822200Y-88146305D02*
X104869819Y-88051067D01*
X104869819Y-88051067D02*
X104869819Y-87860591D01*
X104869819Y-87860591D02*
X104822200Y-87765353D01*
X104822200Y-88717734D02*
X104869819Y-88717734D01*
X104869819Y-88717734D02*
X104965057Y-88670115D01*
X104965057Y-88670115D02*
X105012676Y-88622496D01*
X103869819Y-89908210D02*
X104679342Y-89908210D01*
X104679342Y-89908210D02*
X104774580Y-89955829D01*
X104774580Y-89955829D02*
X104822200Y-90003448D01*
X104822200Y-90003448D02*
X104869819Y-90098686D01*
X104869819Y-90098686D02*
X104869819Y-90289162D01*
X104869819Y-90289162D02*
X104822200Y-90384400D01*
X104822200Y-90384400D02*
X104774580Y-90432019D01*
X104774580Y-90432019D02*
X104679342Y-90479638D01*
X104679342Y-90479638D02*
X103869819Y-90479638D01*
X104774580Y-91527257D02*
X104822200Y-91479638D01*
X104822200Y-91479638D02*
X104869819Y-91336781D01*
X104869819Y-91336781D02*
X104869819Y-91241543D01*
X104869819Y-91241543D02*
X104822200Y-91098686D01*
X104822200Y-91098686D02*
X104726961Y-91003448D01*
X104726961Y-91003448D02*
X104631723Y-90955829D01*
X104631723Y-90955829D02*
X104441247Y-90908210D01*
X104441247Y-90908210D02*
X104298390Y-90908210D01*
X104298390Y-90908210D02*
X104107914Y-90955829D01*
X104107914Y-90955829D02*
X104012676Y-91003448D01*
X104012676Y-91003448D02*
X103917438Y-91098686D01*
X103917438Y-91098686D02*
X103869819Y-91241543D01*
X103869819Y-91241543D02*
X103869819Y-91336781D01*
X103869819Y-91336781D02*
X103917438Y-91479638D01*
X103917438Y-91479638D02*
X103965057Y-91527257D01*
X104346009Y-93051067D02*
X104393628Y-93193924D01*
X104393628Y-93193924D02*
X104441247Y-93241543D01*
X104441247Y-93241543D02*
X104536485Y-93289162D01*
X104536485Y-93289162D02*
X104679342Y-93289162D01*
X104679342Y-93289162D02*
X104774580Y-93241543D01*
X104774580Y-93241543D02*
X104822200Y-93193924D01*
X104822200Y-93193924D02*
X104869819Y-93098686D01*
X104869819Y-93098686D02*
X104869819Y-92717734D01*
X104869819Y-92717734D02*
X103869819Y-92717734D01*
X103869819Y-92717734D02*
X103869819Y-93051067D01*
X103869819Y-93051067D02*
X103917438Y-93146305D01*
X103917438Y-93146305D02*
X103965057Y-93193924D01*
X103965057Y-93193924D02*
X104060295Y-93241543D01*
X104060295Y-93241543D02*
X104155533Y-93241543D01*
X104155533Y-93241543D02*
X104250771Y-93193924D01*
X104250771Y-93193924D02*
X104298390Y-93146305D01*
X104298390Y-93146305D02*
X104346009Y-93051067D01*
X104346009Y-93051067D02*
X104346009Y-92717734D01*
X104822200Y-94098686D02*
X104869819Y-94003448D01*
X104869819Y-94003448D02*
X104869819Y-93812972D01*
X104869819Y-93812972D02*
X104822200Y-93717734D01*
X104822200Y-93717734D02*
X104726961Y-93670115D01*
X104726961Y-93670115D02*
X104346009Y-93670115D01*
X104346009Y-93670115D02*
X104250771Y-93717734D01*
X104250771Y-93717734D02*
X104203152Y-93812972D01*
X104203152Y-93812972D02*
X104203152Y-94003448D01*
X104203152Y-94003448D02*
X104250771Y-94098686D01*
X104250771Y-94098686D02*
X104346009Y-94146305D01*
X104346009Y-94146305D02*
X104441247Y-94146305D01*
X104441247Y-94146305D02*
X104536485Y-93670115D01*
X104869819Y-94574877D02*
X104203152Y-94574877D01*
X104393628Y-94574877D02*
X104298390Y-94622496D01*
X104298390Y-94622496D02*
X104250771Y-94670115D01*
X104250771Y-94670115D02*
X104203152Y-94765353D01*
X104203152Y-94765353D02*
X104203152Y-94860591D01*
X104869819Y-95193925D02*
X103869819Y-95193925D01*
X104488866Y-95289163D02*
X104869819Y-95574877D01*
X104203152Y-95574877D02*
X104584104Y-95193925D01*
X104822200Y-96384401D02*
X104869819Y-96289163D01*
X104869819Y-96289163D02*
X104869819Y-96098687D01*
X104869819Y-96098687D02*
X104822200Y-96003449D01*
X104822200Y-96003449D02*
X104726961Y-95955830D01*
X104726961Y-95955830D02*
X104346009Y-95955830D01*
X104346009Y-95955830D02*
X104250771Y-96003449D01*
X104250771Y-96003449D02*
X104203152Y-96098687D01*
X104203152Y-96098687D02*
X104203152Y-96289163D01*
X104203152Y-96289163D02*
X104250771Y-96384401D01*
X104250771Y-96384401D02*
X104346009Y-96432020D01*
X104346009Y-96432020D02*
X104441247Y-96432020D01*
X104441247Y-96432020D02*
X104536485Y-95955830D01*
X104869819Y-97003449D02*
X104822200Y-96908211D01*
X104822200Y-96908211D02*
X104726961Y-96860592D01*
X104726961Y-96860592D02*
X103869819Y-96860592D01*
X104822200Y-97765354D02*
X104869819Y-97670116D01*
X104869819Y-97670116D02*
X104869819Y-97479640D01*
X104869819Y-97479640D02*
X104822200Y-97384402D01*
X104822200Y-97384402D02*
X104726961Y-97336783D01*
X104726961Y-97336783D02*
X104346009Y-97336783D01*
X104346009Y-97336783D02*
X104250771Y-97384402D01*
X104250771Y-97384402D02*
X104203152Y-97479640D01*
X104203152Y-97479640D02*
X104203152Y-97670116D01*
X104203152Y-97670116D02*
X104250771Y-97765354D01*
X104250771Y-97765354D02*
X104346009Y-97812973D01*
X104346009Y-97812973D02*
X104441247Y-97812973D01*
X104441247Y-97812973D02*
X104536485Y-97336783D01*
X104203152Y-98146307D02*
X104869819Y-98384402D01*
X104203152Y-98622497D02*
X104869819Y-98384402D01*
X104869819Y-98384402D02*
X105107914Y-98289164D01*
X105107914Y-98289164D02*
X105155533Y-98241545D01*
X105155533Y-98241545D02*
X105203152Y-98146307D01*
X193380951Y-60869819D02*
X193380951Y-59869819D01*
X193380951Y-59869819D02*
X193047618Y-60584104D01*
X193047618Y-60584104D02*
X192714285Y-59869819D01*
X192714285Y-59869819D02*
X192714285Y-60869819D01*
X192333332Y-59869819D02*
X191714285Y-59869819D01*
X191714285Y-59869819D02*
X192047618Y-60250771D01*
X192047618Y-60250771D02*
X191904761Y-60250771D01*
X191904761Y-60250771D02*
X191809523Y-60298390D01*
X191809523Y-60298390D02*
X191761904Y-60346009D01*
X191761904Y-60346009D02*
X191714285Y-60441247D01*
X191714285Y-60441247D02*
X191714285Y-60679342D01*
X191714285Y-60679342D02*
X191761904Y-60774580D01*
X191761904Y-60774580D02*
X191809523Y-60822200D01*
X191809523Y-60822200D02*
X191904761Y-60869819D01*
X191904761Y-60869819D02*
X192190475Y-60869819D01*
X192190475Y-60869819D02*
X192285713Y-60822200D01*
X192285713Y-60822200D02*
X192333332Y-60774580D01*
X190571428Y-59822200D02*
X191428570Y-61107914D01*
X189809523Y-60203152D02*
X189809523Y-60869819D01*
X190047618Y-59822200D02*
X190285713Y-60536485D01*
X190285713Y-60536485D02*
X189666666Y-60536485D01*
X189285713Y-60488866D02*
X188523809Y-60488866D01*
X187619047Y-60203152D02*
X187619047Y-60869819D01*
X187857142Y-59822200D02*
X188095237Y-60536485D01*
X188095237Y-60536485D02*
X187476190Y-60536485D01*
X186904761Y-59869819D02*
X186809523Y-59869819D01*
X186809523Y-59869819D02*
X186714285Y-59917438D01*
X186714285Y-59917438D02*
X186666666Y-59965057D01*
X186666666Y-59965057D02*
X186619047Y-60060295D01*
X186619047Y-60060295D02*
X186571428Y-60250771D01*
X186571428Y-60250771D02*
X186571428Y-60488866D01*
X186571428Y-60488866D02*
X186619047Y-60679342D01*
X186619047Y-60679342D02*
X186666666Y-60774580D01*
X186666666Y-60774580D02*
X186714285Y-60822200D01*
X186714285Y-60822200D02*
X186809523Y-60869819D01*
X186809523Y-60869819D02*
X186904761Y-60869819D01*
X186904761Y-60869819D02*
X186999999Y-60822200D01*
X186999999Y-60822200D02*
X187047618Y-60774580D01*
X187047618Y-60774580D02*
X187095237Y-60679342D01*
X187095237Y-60679342D02*
X187142856Y-60488866D01*
X187142856Y-60488866D02*
X187142856Y-60250771D01*
X187142856Y-60250771D02*
X187095237Y-60060295D01*
X187095237Y-60060295D02*
X187047618Y-59965057D01*
X187047618Y-59965057D02*
X186999999Y-59917438D01*
X186999999Y-59917438D02*
X186904761Y-59869819D01*
X191380180Y-102142856D02*
X191380180Y-101476190D01*
X191380180Y-101476190D02*
X190380180Y-101904761D01*
X191380180Y-100904761D02*
X191380180Y-100809523D01*
X191380180Y-100809523D02*
X191332561Y-100714285D01*
X191332561Y-100714285D02*
X191284942Y-100666666D01*
X191284942Y-100666666D02*
X191189704Y-100619047D01*
X191189704Y-100619047D02*
X190999228Y-100571428D01*
X190999228Y-100571428D02*
X190761133Y-100571428D01*
X190761133Y-100571428D02*
X190570657Y-100619047D01*
X190570657Y-100619047D02*
X190475419Y-100666666D01*
X190475419Y-100666666D02*
X190427800Y-100714285D01*
X190427800Y-100714285D02*
X190380180Y-100809523D01*
X190380180Y-100809523D02*
X190380180Y-100904761D01*
X190380180Y-100904761D02*
X190427800Y-100999999D01*
X190427800Y-100999999D02*
X190475419Y-101047618D01*
X190475419Y-101047618D02*
X190570657Y-101095237D01*
X190570657Y-101095237D02*
X190761133Y-101142856D01*
X190761133Y-101142856D02*
X190999228Y-101142856D01*
X190999228Y-101142856D02*
X191189704Y-101095237D01*
X191189704Y-101095237D02*
X191284942Y-101047618D01*
X191284942Y-101047618D02*
X191332561Y-100999999D01*
X191332561Y-100999999D02*
X191380180Y-100904761D01*
X190380180Y-100142856D02*
X191046847Y-100142856D01*
X190951609Y-100142856D02*
X190999228Y-100095237D01*
X190999228Y-100095237D02*
X191046847Y-99999999D01*
X191046847Y-99999999D02*
X191046847Y-99857142D01*
X191046847Y-99857142D02*
X190999228Y-99761904D01*
X190999228Y-99761904D02*
X190903990Y-99714285D01*
X190903990Y-99714285D02*
X190380180Y-99714285D01*
X190903990Y-99714285D02*
X190999228Y-99666666D01*
X190999228Y-99666666D02*
X191046847Y-99571428D01*
X191046847Y-99571428D02*
X191046847Y-99428571D01*
X191046847Y-99428571D02*
X190999228Y-99333332D01*
X190999228Y-99333332D02*
X190903990Y-99285713D01*
X190903990Y-99285713D02*
X190380180Y-99285713D01*
X190380180Y-98809523D02*
X191046847Y-98809523D01*
X190951609Y-98809523D02*
X190999228Y-98761904D01*
X190999228Y-98761904D02*
X191046847Y-98666666D01*
X191046847Y-98666666D02*
X191046847Y-98523809D01*
X191046847Y-98523809D02*
X190999228Y-98428571D01*
X190999228Y-98428571D02*
X190903990Y-98380952D01*
X190903990Y-98380952D02*
X190380180Y-98380952D01*
X190903990Y-98380952D02*
X190999228Y-98333333D01*
X190999228Y-98333333D02*
X191046847Y-98238095D01*
X191046847Y-98238095D02*
X191046847Y-98095238D01*
X191046847Y-98095238D02*
X190999228Y-97999999D01*
X190999228Y-97999999D02*
X190903990Y-97952380D01*
X190903990Y-97952380D02*
X190380180Y-97952380D01*
X151904761Y-64048390D02*
X151999999Y-64000771D01*
X151999999Y-64000771D02*
X152047618Y-63953152D01*
X152047618Y-63953152D02*
X152095237Y-63857914D01*
X152095237Y-63857914D02*
X152095237Y-63810295D01*
X152095237Y-63810295D02*
X152047618Y-63715057D01*
X152047618Y-63715057D02*
X151999999Y-63667438D01*
X151999999Y-63667438D02*
X151904761Y-63619819D01*
X151904761Y-63619819D02*
X151714285Y-63619819D01*
X151714285Y-63619819D02*
X151619047Y-63667438D01*
X151619047Y-63667438D02*
X151571428Y-63715057D01*
X151571428Y-63715057D02*
X151523809Y-63810295D01*
X151523809Y-63810295D02*
X151523809Y-63857914D01*
X151523809Y-63857914D02*
X151571428Y-63953152D01*
X151571428Y-63953152D02*
X151619047Y-64000771D01*
X151619047Y-64000771D02*
X151714285Y-64048390D01*
X151714285Y-64048390D02*
X151904761Y-64048390D01*
X151904761Y-64048390D02*
X151999999Y-64096009D01*
X151999999Y-64096009D02*
X152047618Y-64143628D01*
X152047618Y-64143628D02*
X152095237Y-64238866D01*
X152095237Y-64238866D02*
X152095237Y-64429342D01*
X152095237Y-64429342D02*
X152047618Y-64524580D01*
X152047618Y-64524580D02*
X151999999Y-64572200D01*
X151999999Y-64572200D02*
X151904761Y-64619819D01*
X151904761Y-64619819D02*
X151714285Y-64619819D01*
X151714285Y-64619819D02*
X151619047Y-64572200D01*
X151619047Y-64572200D02*
X151571428Y-64524580D01*
X151571428Y-64524580D02*
X151523809Y-64429342D01*
X151523809Y-64429342D02*
X151523809Y-64238866D01*
X151523809Y-64238866D02*
X151571428Y-64143628D01*
X151571428Y-64143628D02*
X151619047Y-64096009D01*
X151619047Y-64096009D02*
X151714285Y-64048390D01*
X150904761Y-63619819D02*
X150809523Y-63619819D01*
X150809523Y-63619819D02*
X150714285Y-63667438D01*
X150714285Y-63667438D02*
X150666666Y-63715057D01*
X150666666Y-63715057D02*
X150619047Y-63810295D01*
X150619047Y-63810295D02*
X150571428Y-64000771D01*
X150571428Y-64000771D02*
X150571428Y-64238866D01*
X150571428Y-64238866D02*
X150619047Y-64429342D01*
X150619047Y-64429342D02*
X150666666Y-64524580D01*
X150666666Y-64524580D02*
X150714285Y-64572200D01*
X150714285Y-64572200D02*
X150809523Y-64619819D01*
X150809523Y-64619819D02*
X150904761Y-64619819D01*
X150904761Y-64619819D02*
X150999999Y-64572200D01*
X150999999Y-64572200D02*
X151047618Y-64524580D01*
X151047618Y-64524580D02*
X151095237Y-64429342D01*
X151095237Y-64429342D02*
X151142856Y-64238866D01*
X151142856Y-64238866D02*
X151142856Y-64000771D01*
X151142856Y-64000771D02*
X151095237Y-63810295D01*
X151095237Y-63810295D02*
X151047618Y-63715057D01*
X151047618Y-63715057D02*
X150999999Y-63667438D01*
X150999999Y-63667438D02*
X150904761Y-63619819D01*
X150142856Y-64619819D02*
X150142856Y-63953152D01*
X150142856Y-64048390D02*
X150095237Y-64000771D01*
X150095237Y-64000771D02*
X149999999Y-63953152D01*
X149999999Y-63953152D02*
X149857142Y-63953152D01*
X149857142Y-63953152D02*
X149761904Y-64000771D01*
X149761904Y-64000771D02*
X149714285Y-64096009D01*
X149714285Y-64096009D02*
X149714285Y-64619819D01*
X149714285Y-64096009D02*
X149666666Y-64000771D01*
X149666666Y-64000771D02*
X149571428Y-63953152D01*
X149571428Y-63953152D02*
X149428571Y-63953152D01*
X149428571Y-63953152D02*
X149333332Y-64000771D01*
X149333332Y-64000771D02*
X149285713Y-64096009D01*
X149285713Y-64096009D02*
X149285713Y-64619819D01*
X148809523Y-64619819D02*
X148809523Y-63953152D01*
X148809523Y-64048390D02*
X148761904Y-64000771D01*
X148761904Y-64000771D02*
X148666666Y-63953152D01*
X148666666Y-63953152D02*
X148523809Y-63953152D01*
X148523809Y-63953152D02*
X148428571Y-64000771D01*
X148428571Y-64000771D02*
X148380952Y-64096009D01*
X148380952Y-64096009D02*
X148380952Y-64619819D01*
X148380952Y-64096009D02*
X148333333Y-64000771D01*
X148333333Y-64000771D02*
X148238095Y-63953152D01*
X148238095Y-63953152D02*
X148095238Y-63953152D01*
X148095238Y-63953152D02*
X147999999Y-64000771D01*
X147999999Y-64000771D02*
X147952380Y-64096009D01*
X147952380Y-64096009D02*
X147952380Y-64619819D01*
%LPC*%
D11*
X159245000Y-83820000D03*
X164245000Y-83820000D03*
D12*
X147320000Y-129540000D03*
D13*
X163120000Y-127000000D03*
D14*
X163120000Y-132080000D03*
D15*
X161745000Y-76200000D03*
D16*
X159205000Y-76200000D03*
X156665000Y-76200000D03*
D17*
X106680000Y-114300000D03*
D18*
X116840000Y-114300000D03*
D19*
X185620000Y-146930000D03*
X194380000Y-146930000D03*
D20*
X169620000Y-129540000D03*
D21*
X139140000Y-129540000D03*
D22*
X146900000Y-55000000D03*
D23*
X151700000Y-55000000D03*
X156500000Y-55000000D03*
X161300000Y-55000000D03*
X166100000Y-55000000D03*
D24*
X141000000Y-55500000D03*
D25*
X139500000Y-55500000D03*
X138000000Y-55500000D03*
X136500000Y-55500000D03*
X135000000Y-55500000D03*
X133500000Y-55500000D03*
X132000000Y-55500000D03*
X130500000Y-55500000D03*
X129000000Y-55500000D03*
X127500000Y-55500000D03*
D11*
X137160000Y-106680000D03*
D18*
X147320000Y-106680000D03*
D26*
X190000000Y-135000000D03*
X110000000Y-65000000D03*
D19*
X137620000Y-146930000D03*
X146380000Y-146930000D03*
D26*
X190000000Y-65000000D03*
D11*
X124460000Y-96600000D03*
X124460000Y-91600000D03*
X116840000Y-134620000D03*
D18*
X116840000Y-124460000D03*
D26*
X110000000Y-135000000D03*
D11*
X129540000Y-86360000D03*
D18*
X129540000Y-96520000D03*
D11*
X144700000Y-93980000D03*
X139700000Y-93980000D03*
D17*
X106680000Y-119380000D03*
D18*
X116840000Y-119380000D03*
D11*
X137160000Y-101600000D03*
D18*
X147320000Y-101600000D03*
D11*
X144700000Y-91440000D03*
X139700000Y-91440000D03*
D15*
X161745000Y-71120000D03*
D16*
X159205000Y-71120000D03*
X156665000Y-71120000D03*
D11*
X126000000Y-124460000D03*
D18*
X126000000Y-134620000D03*
D19*
X121620000Y-146930000D03*
X130380000Y-146930000D03*
D27*
X139460000Y-114300000D03*
D28*
X142000000Y-114300000D03*
X144540000Y-114300000D03*
D11*
X159245000Y-81280000D03*
X164245000Y-81280000D03*
D27*
X155460000Y-114300000D03*
D28*
X158000000Y-114300000D03*
X160540000Y-114300000D03*
D24*
X121000000Y-55500000D03*
D25*
X119500000Y-55500000D03*
X118000000Y-55500000D03*
X116500000Y-55500000D03*
X115000000Y-55500000D03*
X113500000Y-55500000D03*
X112000000Y-55500000D03*
X110500000Y-55500000D03*
X109000000Y-55500000D03*
X107500000Y-55500000D03*
D19*
X153620000Y-146930000D03*
X162380000Y-146930000D03*
D11*
X134620000Y-83820000D03*
D18*
X134620000Y-93980000D03*
D19*
X169620000Y-146930000D03*
X178380000Y-146930000D03*
D11*
X165100000Y-96520000D03*
D18*
X165100000Y-86360000D03*
D19*
X105620000Y-146930000D03*
X114380000Y-146930000D03*
D29*
X147800000Y-83820000D03*
D30*
X147800000Y-86360000D03*
X147800000Y-88900000D03*
X147800000Y-91440000D03*
X155420000Y-91440000D03*
X155420000Y-88900000D03*
X155420000Y-86360000D03*
X155420000Y-83820000D03*
%LPD*%
M02*
