G04 #@! TF.GenerationSoftware,KiCad,Pcbnew,9.0.0*
G04 #@! TF.CreationDate,2025-07-04T16:46:46-07:00*
G04 #@! TF.ProjectId,bipolar_current_control,6269706f-6c61-4725-9f63-757272656e74,rev?*
G04 #@! TF.SameCoordinates,Original*
G04 #@! TF.FileFunction,Copper,L2,Inr*
G04 #@! TF.FilePolarity,Positive*
%FSLAX46Y46*%
G04 Gerber Fmt 4.6, Leading zero omitted, Abs format (unit mm)*
G04 Created by KiCad (PCBNEW 9.0.0) date 2025-07-04 16:46:46*
%MOMM*%
%LPD*%
G01*
G04 APERTURE LIST*
G04 Aperture macros list*
%AMRoundRect*
0 Rectangle with rounded corners*
0 $1 Rounding radius*
0 $2 $3 $4 $5 $6 $7 $8 $9 X,Y pos of 4 corners*
0 Add a 4 corners polygon primitive as box body*
4,1,4,$2,$3,$4,$5,$6,$7,$8,$9,$2,$3,0*
0 Add four circle primitives for the rounded corners*
1,1,$1+$1,$2,$3*
1,1,$1+$1,$4,$5*
1,1,$1+$1,$6,$7*
1,1,$1+$1,$8,$9*
0 Add four rect primitives between the rounded corners*
20,1,$1+$1,$2,$3,$4,$5,0*
20,1,$1+$1,$4,$5,$6,$7,0*
20,1,$1+$1,$6,$7,$8,$9,0*
20,1,$1+$1,$8,$9,$2,$3,0*%
G04 Aperture macros list end*
G04 #@! TA.AperFunction,ComponentPad*
%ADD10C,1.600000*%
G04 #@! TD*
G04 #@! TA.AperFunction,ComponentPad*
%ADD11R,2.000000X2.000000*%
G04 #@! TD*
G04 #@! TA.AperFunction,ComponentPad*
%ADD12C,2.000000*%
G04 #@! TD*
G04 #@! TA.AperFunction,ComponentPad*
%ADD13R,1.700000X1.700000*%
G04 #@! TD*
G04 #@! TA.AperFunction,ComponentPad*
%ADD14O,1.700000X1.700000*%
G04 #@! TD*
G04 #@! TA.AperFunction,ComponentPad*
%ADD15R,1.600000X1.600000*%
G04 #@! TD*
G04 #@! TA.AperFunction,ComponentPad*
%ADD16O,1.600000X1.600000*%
G04 #@! TD*
G04 #@! TA.AperFunction,ComponentPad*
%ADD17C,0.970000*%
G04 #@! TD*
G04 #@! TA.AperFunction,ComponentPad*
%ADD18C,2.400000*%
G04 #@! TD*
G04 #@! TA.AperFunction,ComponentPad*
%ADD19O,2.400000X2.400000*%
G04 #@! TD*
G04 #@! TA.AperFunction,ComponentPad*
%ADD20RoundRect,0.249999X-1.025001X-1.025001X1.025001X-1.025001X1.025001X1.025001X-1.025001X1.025001X0*%
G04 #@! TD*
G04 #@! TA.AperFunction,ComponentPad*
%ADD21C,2.550000*%
G04 #@! TD*
G04 #@! TA.AperFunction,ComponentPad*
%ADD22RoundRect,0.250000X0.265000X0.615000X-0.265000X0.615000X-0.265000X-0.615000X0.265000X-0.615000X0*%
G04 #@! TD*
G04 #@! TA.AperFunction,ComponentPad*
%ADD23O,1.030000X1.730000*%
G04 #@! TD*
G04 #@! TA.AperFunction,ComponentPad*
%ADD24R,1.905000X2.000000*%
G04 #@! TD*
G04 #@! TA.AperFunction,ComponentPad*
%ADD25O,1.905000X2.000000*%
G04 #@! TD*
G04 #@! TA.AperFunction,ComponentPad*
%ADD26RoundRect,0.250000X-0.950000X-0.550000X0.950000X-0.550000X0.950000X0.550000X-0.950000X0.550000X0*%
G04 #@! TD*
G04 #@! TA.AperFunction,ComponentPad*
%ADD27O,2.400000X1.600000*%
G04 #@! TD*
G04 #@! TA.AperFunction,ViaPad*
%ADD28C,0.800000*%
G04 #@! TD*
G04 APERTURE END LIST*
D10*
X159245000Y-83820000D03*
X164245000Y-83820000D03*
D11*
X163120000Y-127000000D03*
D12*
X163120000Y-132080000D03*
D13*
X161745000Y-76200000D03*
D14*
X159205000Y-76200000D03*
X156665000Y-76200000D03*
D15*
X106680000Y-114300000D03*
D16*
X116840000Y-114300000D03*
D17*
X185620000Y-143490000D03*
X194380000Y-143490000D03*
D18*
X169620000Y-129540000D03*
D19*
X139140000Y-129540000D03*
D20*
X146900000Y-55000000D03*
D21*
X151700000Y-55000000D03*
X156500000Y-55000000D03*
X161300000Y-55000000D03*
X166100000Y-55000000D03*
D22*
X141000000Y-55500000D03*
D23*
X139500000Y-55500000D03*
X138000000Y-55500000D03*
X136500000Y-55500000D03*
X135000000Y-55500000D03*
X133500000Y-55500000D03*
X132000000Y-55500000D03*
X130500000Y-55500000D03*
X129000000Y-55500000D03*
X127500000Y-55500000D03*
D10*
X137160000Y-106680000D03*
D16*
X147320000Y-106680000D03*
D17*
X137620000Y-143490000D03*
X146380000Y-143490000D03*
D10*
X124460000Y-96600000D03*
X124460000Y-91600000D03*
X116840000Y-134620000D03*
D16*
X116840000Y-124460000D03*
D10*
X129540000Y-86360000D03*
D16*
X129540000Y-96520000D03*
D10*
X144700000Y-93980000D03*
X139700000Y-93980000D03*
D15*
X106680000Y-119380000D03*
D16*
X116840000Y-119380000D03*
D10*
X137160000Y-101600000D03*
D16*
X147320000Y-101600000D03*
D10*
X144700000Y-91440000D03*
X139700000Y-91440000D03*
D13*
X161745000Y-71120000D03*
D14*
X159205000Y-71120000D03*
X156665000Y-71120000D03*
D10*
X126000000Y-124460000D03*
D16*
X126000000Y-134620000D03*
D17*
X121620000Y-143490000D03*
X130380000Y-143490000D03*
D24*
X139460000Y-114300000D03*
D25*
X142000000Y-114300000D03*
X144540000Y-114300000D03*
D10*
X159245000Y-81280000D03*
X164245000Y-81280000D03*
D24*
X155460000Y-114300000D03*
D25*
X158000000Y-114300000D03*
X160540000Y-114300000D03*
D22*
X121000000Y-55500000D03*
D23*
X119500000Y-55500000D03*
X118000000Y-55500000D03*
X116500000Y-55500000D03*
X115000000Y-55500000D03*
X113500000Y-55500000D03*
X112000000Y-55500000D03*
X110500000Y-55500000D03*
X109000000Y-55500000D03*
X107500000Y-55500000D03*
D17*
X153620000Y-143490000D03*
X162380000Y-143490000D03*
D10*
X134620000Y-83820000D03*
D16*
X134620000Y-93980000D03*
D17*
X169620000Y-143490000D03*
X178380000Y-143490000D03*
D10*
X165100000Y-96520000D03*
D16*
X165100000Y-86360000D03*
D17*
X105620000Y-143490000D03*
X114380000Y-143490000D03*
D26*
X147800000Y-83820000D03*
D27*
X147800000Y-86360000D03*
X147800000Y-88900000D03*
X147800000Y-91440000D03*
X155420000Y-91440000D03*
X155420000Y-88900000D03*
X155420000Y-86360000D03*
X155420000Y-83820000D03*
D28*
X136500000Y-51000000D03*
X112000000Y-51000000D03*
X116500000Y-51000000D03*
X132000000Y-51000000D03*
X129000000Y-52500000D03*
X109000000Y-52500000D03*
X119500000Y-52500000D03*
X139500000Y-52500000D03*
G04 #@! TA.AperFunction,Conductor*
G36*
X111533265Y-50020185D02*
G01*
X111579020Y-50072989D01*
X111588964Y-50142147D01*
X111559939Y-50205703D01*
X111535117Y-50227602D01*
X111425965Y-50300535D01*
X111425961Y-50300538D01*
X111300538Y-50425961D01*
X111300535Y-50425965D01*
X111201990Y-50573446D01*
X111201983Y-50573459D01*
X111134106Y-50737332D01*
X111134103Y-50737341D01*
X111099500Y-50911304D01*
X111099500Y-51088695D01*
X111134103Y-51262658D01*
X111134106Y-51262667D01*
X111201983Y-51426540D01*
X111201990Y-51426553D01*
X111300535Y-51574034D01*
X111300538Y-51574038D01*
X111425961Y-51699461D01*
X111425965Y-51699464D01*
X111573446Y-51798009D01*
X111573459Y-51798016D01*
X111696363Y-51848923D01*
X111737334Y-51865894D01*
X111737336Y-51865894D01*
X111737341Y-51865896D01*
X111911304Y-51900499D01*
X111911307Y-51900500D01*
X111911309Y-51900500D01*
X112088693Y-51900500D01*
X112088694Y-51900499D01*
X112146682Y-51888964D01*
X112262658Y-51865896D01*
X112262661Y-51865894D01*
X112262666Y-51865894D01*
X112426547Y-51798013D01*
X112574035Y-51699464D01*
X112699464Y-51574035D01*
X112798013Y-51426547D01*
X112865894Y-51262666D01*
X112900500Y-51088691D01*
X112900500Y-50911309D01*
X112900500Y-50911306D01*
X112900499Y-50911304D01*
X112865896Y-50737341D01*
X112865893Y-50737332D01*
X112798016Y-50573459D01*
X112798009Y-50573446D01*
X112699464Y-50425965D01*
X112699461Y-50425961D01*
X112574038Y-50300538D01*
X112574034Y-50300535D01*
X112464883Y-50227602D01*
X112420078Y-50173990D01*
X112411371Y-50104665D01*
X112441526Y-50041637D01*
X112500969Y-50004918D01*
X112533774Y-50000500D01*
X115966226Y-50000500D01*
X116033265Y-50020185D01*
X116079020Y-50072989D01*
X116088964Y-50142147D01*
X116059939Y-50205703D01*
X116035117Y-50227602D01*
X115925965Y-50300535D01*
X115925961Y-50300538D01*
X115800538Y-50425961D01*
X115800535Y-50425965D01*
X115701990Y-50573446D01*
X115701983Y-50573459D01*
X115634106Y-50737332D01*
X115634103Y-50737341D01*
X115599500Y-50911304D01*
X115599500Y-51088695D01*
X115634103Y-51262658D01*
X115634106Y-51262667D01*
X115701983Y-51426540D01*
X115701990Y-51426553D01*
X115800535Y-51574034D01*
X115800538Y-51574038D01*
X115925961Y-51699461D01*
X115925965Y-51699464D01*
X116073446Y-51798009D01*
X116073459Y-51798016D01*
X116196363Y-51848923D01*
X116237334Y-51865894D01*
X116237336Y-51865894D01*
X116237341Y-51865896D01*
X116411304Y-51900499D01*
X116411307Y-51900500D01*
X116411309Y-51900500D01*
X116588693Y-51900500D01*
X116588694Y-51900499D01*
X116646682Y-51888964D01*
X116762658Y-51865896D01*
X116762661Y-51865894D01*
X116762666Y-51865894D01*
X116926547Y-51798013D01*
X117074035Y-51699464D01*
X117199464Y-51574035D01*
X117298013Y-51426547D01*
X117365894Y-51262666D01*
X117400500Y-51088691D01*
X117400500Y-50911309D01*
X117400500Y-50911306D01*
X117400499Y-50911304D01*
X117365896Y-50737341D01*
X117365893Y-50737332D01*
X117298016Y-50573459D01*
X117298009Y-50573446D01*
X117199464Y-50425965D01*
X117199461Y-50425961D01*
X117074038Y-50300538D01*
X117074034Y-50300535D01*
X116964883Y-50227602D01*
X116920078Y-50173990D01*
X116911371Y-50104665D01*
X116941526Y-50041637D01*
X117000969Y-50004918D01*
X117033774Y-50000500D01*
X131466226Y-50000500D01*
X131533265Y-50020185D01*
X131579020Y-50072989D01*
X131588964Y-50142147D01*
X131559939Y-50205703D01*
X131535117Y-50227602D01*
X131425965Y-50300535D01*
X131425961Y-50300538D01*
X131300538Y-50425961D01*
X131300535Y-50425965D01*
X131201990Y-50573446D01*
X131201983Y-50573459D01*
X131134106Y-50737332D01*
X131134103Y-50737341D01*
X131099500Y-50911304D01*
X131099500Y-51088695D01*
X131134103Y-51262658D01*
X131134106Y-51262667D01*
X131201983Y-51426540D01*
X131201990Y-51426553D01*
X131300535Y-51574034D01*
X131300538Y-51574038D01*
X131425961Y-51699461D01*
X131425965Y-51699464D01*
X131573446Y-51798009D01*
X131573459Y-51798016D01*
X131696363Y-51848923D01*
X131737334Y-51865894D01*
X131737336Y-51865894D01*
X131737341Y-51865896D01*
X131911304Y-51900499D01*
X131911307Y-51900500D01*
X131911309Y-51900500D01*
X132088693Y-51900500D01*
X132088694Y-51900499D01*
X132146682Y-51888964D01*
X132262658Y-51865896D01*
X132262661Y-51865894D01*
X132262666Y-51865894D01*
X132426547Y-51798013D01*
X132574035Y-51699464D01*
X132699464Y-51574035D01*
X132798013Y-51426547D01*
X132865894Y-51262666D01*
X132900500Y-51088691D01*
X132900500Y-50911309D01*
X132900500Y-50911306D01*
X132900499Y-50911304D01*
X132865896Y-50737341D01*
X132865893Y-50737332D01*
X132798016Y-50573459D01*
X132798009Y-50573446D01*
X132699464Y-50425965D01*
X132699461Y-50425961D01*
X132574038Y-50300538D01*
X132574034Y-50300535D01*
X132464883Y-50227602D01*
X132420078Y-50173990D01*
X132411371Y-50104665D01*
X132441526Y-50041637D01*
X132500969Y-50004918D01*
X132533774Y-50000500D01*
X135966226Y-50000500D01*
X136033265Y-50020185D01*
X136079020Y-50072989D01*
X136088964Y-50142147D01*
X136059939Y-50205703D01*
X136035117Y-50227602D01*
X135925965Y-50300535D01*
X135925961Y-50300538D01*
X135800538Y-50425961D01*
X135800535Y-50425965D01*
X135701990Y-50573446D01*
X135701983Y-50573459D01*
X135634106Y-50737332D01*
X135634103Y-50737341D01*
X135599500Y-50911304D01*
X135599500Y-51088695D01*
X135634103Y-51262658D01*
X135634106Y-51262667D01*
X135701983Y-51426540D01*
X135701990Y-51426553D01*
X135800535Y-51574034D01*
X135800538Y-51574038D01*
X135925961Y-51699461D01*
X135925965Y-51699464D01*
X136073446Y-51798009D01*
X136073459Y-51798016D01*
X136196363Y-51848923D01*
X136237334Y-51865894D01*
X136237336Y-51865894D01*
X136237341Y-51865896D01*
X136411304Y-51900499D01*
X136411307Y-51900500D01*
X136411309Y-51900500D01*
X136588693Y-51900500D01*
X136588694Y-51900499D01*
X136646682Y-51888964D01*
X136762658Y-51865896D01*
X136762661Y-51865894D01*
X136762666Y-51865894D01*
X136926547Y-51798013D01*
X137074035Y-51699464D01*
X137199464Y-51574035D01*
X137298013Y-51426547D01*
X137365894Y-51262666D01*
X137400500Y-51088691D01*
X137400500Y-50911309D01*
X137400500Y-50911306D01*
X137400499Y-50911304D01*
X137365896Y-50737341D01*
X137365893Y-50737332D01*
X137298016Y-50573459D01*
X137298009Y-50573446D01*
X137199464Y-50425965D01*
X137199461Y-50425961D01*
X137074038Y-50300538D01*
X137074034Y-50300535D01*
X136964883Y-50227602D01*
X136920078Y-50173990D01*
X136911371Y-50104665D01*
X136941526Y-50041637D01*
X137000969Y-50004918D01*
X137033774Y-50000500D01*
X197496250Y-50000500D01*
X197503736Y-50000726D01*
X197767901Y-50016704D01*
X197776547Y-50017534D01*
X197838283Y-50025662D01*
X197844348Y-50026616D01*
X198072866Y-50068494D01*
X198082569Y-50070679D01*
X198135375Y-50084828D01*
X198140127Y-50086205D01*
X198319650Y-50142147D01*
X198370039Y-50157849D01*
X198380596Y-50161671D01*
X198415944Y-50176312D01*
X198419265Y-50177747D01*
X198654497Y-50283617D01*
X198654517Y-50283626D01*
X198665603Y-50289301D01*
X198666842Y-50290016D01*
X198668983Y-50291280D01*
X198913465Y-50439075D01*
X198925776Y-50447573D01*
X199028498Y-50528050D01*
X199151573Y-50624473D01*
X199162781Y-50634403D01*
X199365596Y-50837218D01*
X199375526Y-50848426D01*
X199552422Y-51074217D01*
X199560926Y-51086537D01*
X199562231Y-51088695D01*
X199708699Y-51330984D01*
X199709982Y-51333156D01*
X199710697Y-51334395D01*
X199716372Y-51345481D01*
X199822221Y-51580665D01*
X199823708Y-51584107D01*
X199838326Y-51619400D01*
X199842149Y-51629959D01*
X199913788Y-51859855D01*
X199915178Y-51864652D01*
X199929314Y-51917407D01*
X199931508Y-51927149D01*
X199973373Y-52155595D01*
X199974343Y-52161762D01*
X199982461Y-52223427D01*
X199983296Y-52232125D01*
X199999274Y-52496263D01*
X199999500Y-52503750D01*
X199999500Y-147496249D01*
X199999274Y-147503736D01*
X199983296Y-147767873D01*
X199982461Y-147776569D01*
X199982461Y-147776571D01*
X199974343Y-147838236D01*
X199973373Y-147844403D01*
X199931508Y-148072849D01*
X199929314Y-148082591D01*
X199915178Y-148135346D01*
X199913788Y-148140143D01*
X199842149Y-148370039D01*
X199838326Y-148380598D01*
X199823708Y-148415891D01*
X199822221Y-148419333D01*
X199716372Y-148654517D01*
X199710697Y-148665603D01*
X199709982Y-148666842D01*
X199708699Y-148669014D01*
X199560928Y-148913459D01*
X199552422Y-148925782D01*
X199375526Y-149151573D01*
X199365596Y-149162781D01*
X199162781Y-149365596D01*
X199151573Y-149375526D01*
X198925782Y-149552422D01*
X198913459Y-149560928D01*
X198669014Y-149708699D01*
X198666882Y-149709959D01*
X198665651Y-149710670D01*
X198654524Y-149716369D01*
X198419310Y-149822230D01*
X198415875Y-149823714D01*
X198380599Y-149838327D01*
X198370035Y-149842152D01*
X198351596Y-149847897D01*
X198330777Y-149854385D01*
X198293888Y-149860000D01*
X101706111Y-149860000D01*
X101704754Y-149859793D01*
X101704068Y-149859983D01*
X101669221Y-149854385D01*
X101629967Y-149842153D01*
X101619400Y-149838327D01*
X101584122Y-149823713D01*
X101580688Y-149822230D01*
X101345474Y-149716369D01*
X101334347Y-149710670D01*
X101333116Y-149709959D01*
X101330984Y-149708699D01*
X101086540Y-149560928D01*
X101074217Y-149552422D01*
X100848426Y-149375526D01*
X100837218Y-149365596D01*
X100634403Y-149162781D01*
X100624473Y-149151573D01*
X100447577Y-148925782D01*
X100439075Y-148913465D01*
X100291280Y-148668983D01*
X100290016Y-148666842D01*
X100289301Y-148665603D01*
X100283626Y-148654517D01*
X100283617Y-148654497D01*
X100177747Y-148419265D01*
X100176312Y-148415944D01*
X100161671Y-148380596D01*
X100157849Y-148370039D01*
X100086210Y-148140143D01*
X100084828Y-148135375D01*
X100070679Y-148082569D01*
X100068494Y-148072866D01*
X100026616Y-147844348D01*
X100025662Y-147838283D01*
X100017534Y-147776547D01*
X100016704Y-147767901D01*
X100000726Y-147503736D01*
X100000500Y-147496250D01*
X100000500Y-144341758D01*
X105121794Y-144341758D01*
X105121794Y-144341759D01*
X105153431Y-144362898D01*
X105332681Y-144437145D01*
X105332693Y-144437148D01*
X105522981Y-144474999D01*
X105522984Y-144475000D01*
X105717016Y-144475000D01*
X105717018Y-144474999D01*
X105907306Y-144437148D01*
X105907318Y-144437145D01*
X106086565Y-144362899D01*
X106118204Y-144341758D01*
X113881794Y-144341758D01*
X113881794Y-144341759D01*
X113913431Y-144362898D01*
X114092681Y-144437145D01*
X114092693Y-144437148D01*
X114282981Y-144474999D01*
X114282984Y-144475000D01*
X114477016Y-144475000D01*
X114477018Y-144474999D01*
X114667306Y-144437148D01*
X114667318Y-144437145D01*
X114846565Y-144362899D01*
X114878204Y-144341758D01*
X121121794Y-144341758D01*
X121121794Y-144341759D01*
X121153431Y-144362898D01*
X121332681Y-144437145D01*
X121332693Y-144437148D01*
X121522981Y-144474999D01*
X121522984Y-144475000D01*
X121717016Y-144475000D01*
X121717018Y-144474999D01*
X121907306Y-144437148D01*
X121907318Y-144437145D01*
X122086565Y-144362899D01*
X122118204Y-144341758D01*
X129881794Y-144341758D01*
X129881794Y-144341759D01*
X129913431Y-144362898D01*
X130092681Y-144437145D01*
X130092693Y-144437148D01*
X130282981Y-144474999D01*
X130282984Y-144475000D01*
X130477016Y-144475000D01*
X130477018Y-144474999D01*
X130667306Y-144437148D01*
X130667318Y-144437145D01*
X130846565Y-144362899D01*
X130878204Y-144341758D01*
X137121794Y-144341758D01*
X137121794Y-144341759D01*
X137153431Y-144362898D01*
X137332681Y-144437145D01*
X137332693Y-144437148D01*
X137522981Y-144474999D01*
X137522984Y-144475000D01*
X137717016Y-144475000D01*
X137717018Y-144474999D01*
X137907306Y-144437148D01*
X137907318Y-144437145D01*
X138086565Y-144362899D01*
X138118204Y-144341758D01*
X145881794Y-144341758D01*
X145881794Y-144341759D01*
X145913431Y-144362898D01*
X146092681Y-144437145D01*
X146092693Y-144437148D01*
X146282981Y-144474999D01*
X146282984Y-144475000D01*
X146477016Y-144475000D01*
X146477018Y-144474999D01*
X146667306Y-144437148D01*
X146667318Y-144437145D01*
X146846565Y-144362899D01*
X146878204Y-144341758D01*
X153121794Y-144341758D01*
X153121794Y-144341759D01*
X153153431Y-144362898D01*
X153332681Y-144437145D01*
X153332693Y-144437148D01*
X153522981Y-144474999D01*
X153522984Y-144475000D01*
X153717016Y-144475000D01*
X153717018Y-144474999D01*
X153907306Y-144437148D01*
X153907318Y-144437145D01*
X154086565Y-144362899D01*
X154118204Y-144341758D01*
X161881794Y-144341758D01*
X161881794Y-144341759D01*
X161913431Y-144362898D01*
X162092681Y-144437145D01*
X162092693Y-144437148D01*
X162282981Y-144474999D01*
X162282984Y-144475000D01*
X162477016Y-144475000D01*
X162477018Y-144474999D01*
X162667306Y-144437148D01*
X162667318Y-144437145D01*
X162846565Y-144362899D01*
X162878204Y-144341758D01*
X162380001Y-143843554D01*
X162380000Y-143843554D01*
X161881794Y-144341758D01*
X154118204Y-144341758D01*
X153620001Y-143843554D01*
X153620000Y-143843554D01*
X153121794Y-144341758D01*
X146878204Y-144341758D01*
X146380001Y-143843554D01*
X146380000Y-143843554D01*
X145881794Y-144341758D01*
X138118204Y-144341758D01*
X137620001Y-143843554D01*
X137620000Y-143843554D01*
X137121794Y-144341758D01*
X130878204Y-144341758D01*
X130380001Y-143843554D01*
X130380000Y-143843554D01*
X129881794Y-144341758D01*
X122118204Y-144341758D01*
X121620001Y-143843554D01*
X121620000Y-143843554D01*
X121121794Y-144341758D01*
X114878204Y-144341758D01*
X114380001Y-143843554D01*
X114380000Y-143843554D01*
X113881794Y-144341758D01*
X106118204Y-144341758D01*
X105620001Y-143843554D01*
X105620000Y-143843554D01*
X105121794Y-144341758D01*
X100000500Y-144341758D01*
X100000500Y-143392981D01*
X104635000Y-143392981D01*
X104635000Y-143587018D01*
X104672851Y-143777306D01*
X104672853Y-143777314D01*
X104747102Y-143956568D01*
X104747106Y-143956575D01*
X104768240Y-143988204D01*
X104768241Y-143988205D01*
X105266446Y-143490000D01*
X105220696Y-143444250D01*
X105390000Y-143444250D01*
X105390000Y-143535750D01*
X105425015Y-143620285D01*
X105489715Y-143684985D01*
X105574250Y-143720000D01*
X105665750Y-143720000D01*
X105750285Y-143684985D01*
X105814985Y-143620285D01*
X105850000Y-143535750D01*
X105850000Y-143489999D01*
X105973554Y-143489999D01*
X105973554Y-143490000D01*
X106471758Y-143988204D01*
X106492899Y-143956565D01*
X106567145Y-143777318D01*
X106567148Y-143777306D01*
X106604999Y-143587018D01*
X106605000Y-143587016D01*
X106605000Y-143392983D01*
X106604999Y-143392981D01*
X113395000Y-143392981D01*
X113395000Y-143587018D01*
X113432851Y-143777306D01*
X113432853Y-143777314D01*
X113507102Y-143956568D01*
X113507106Y-143956575D01*
X113528240Y-143988204D01*
X113528241Y-143988205D01*
X114026446Y-143490000D01*
X113980696Y-143444250D01*
X114150000Y-143444250D01*
X114150000Y-143535750D01*
X114185015Y-143620285D01*
X114249715Y-143684985D01*
X114334250Y-143720000D01*
X114425750Y-143720000D01*
X114510285Y-143684985D01*
X114574985Y-143620285D01*
X114610000Y-143535750D01*
X114610000Y-143489999D01*
X114733554Y-143489999D01*
X114733554Y-143490000D01*
X115231758Y-143988204D01*
X115252899Y-143956565D01*
X115327145Y-143777318D01*
X115327148Y-143777306D01*
X115364999Y-143587018D01*
X115365000Y-143587016D01*
X115365000Y-143392983D01*
X115364999Y-143392981D01*
X120635000Y-143392981D01*
X120635000Y-143587018D01*
X120672851Y-143777306D01*
X120672853Y-143777314D01*
X120747102Y-143956568D01*
X120747106Y-143956575D01*
X120768240Y-143988204D01*
X120768241Y-143988205D01*
X121266446Y-143490000D01*
X121220696Y-143444250D01*
X121390000Y-143444250D01*
X121390000Y-143535750D01*
X121425015Y-143620285D01*
X121489715Y-143684985D01*
X121574250Y-143720000D01*
X121665750Y-143720000D01*
X121750285Y-143684985D01*
X121814985Y-143620285D01*
X121850000Y-143535750D01*
X121850000Y-143489999D01*
X121973554Y-143489999D01*
X121973554Y-143490000D01*
X122471758Y-143988204D01*
X122492899Y-143956565D01*
X122567145Y-143777318D01*
X122567148Y-143777306D01*
X122604999Y-143587018D01*
X122605000Y-143587016D01*
X122605000Y-143392983D01*
X122604999Y-143392981D01*
X129395000Y-143392981D01*
X129395000Y-143587018D01*
X129432851Y-143777306D01*
X129432853Y-143777314D01*
X129507102Y-143956568D01*
X129507106Y-143956575D01*
X129528240Y-143988204D01*
X129528241Y-143988205D01*
X130026446Y-143490000D01*
X129980696Y-143444250D01*
X130150000Y-143444250D01*
X130150000Y-143535750D01*
X130185015Y-143620285D01*
X130249715Y-143684985D01*
X130334250Y-143720000D01*
X130425750Y-143720000D01*
X130510285Y-143684985D01*
X130574985Y-143620285D01*
X130610000Y-143535750D01*
X130610000Y-143489999D01*
X130733554Y-143489999D01*
X130733554Y-143490000D01*
X131231758Y-143988204D01*
X131252899Y-143956565D01*
X131327145Y-143777318D01*
X131327148Y-143777306D01*
X131364999Y-143587018D01*
X131365000Y-143587016D01*
X131365000Y-143392983D01*
X131364999Y-143392981D01*
X136635000Y-143392981D01*
X136635000Y-143587018D01*
X136672851Y-143777306D01*
X136672853Y-143777314D01*
X136747102Y-143956568D01*
X136747106Y-143956575D01*
X136768240Y-143988204D01*
X136768241Y-143988205D01*
X137266446Y-143490000D01*
X137220696Y-143444250D01*
X137390000Y-143444250D01*
X137390000Y-143535750D01*
X137425015Y-143620285D01*
X137489715Y-143684985D01*
X137574250Y-143720000D01*
X137665750Y-143720000D01*
X137750285Y-143684985D01*
X137814985Y-143620285D01*
X137850000Y-143535750D01*
X137850000Y-143489999D01*
X137973554Y-143489999D01*
X137973554Y-143490000D01*
X138471758Y-143988204D01*
X138492899Y-143956565D01*
X138567145Y-143777318D01*
X138567148Y-143777306D01*
X138604999Y-143587018D01*
X138605000Y-143587016D01*
X138605000Y-143392983D01*
X138604999Y-143392981D01*
X145395000Y-143392981D01*
X145395000Y-143587018D01*
X145432851Y-143777306D01*
X145432853Y-143777314D01*
X145507102Y-143956568D01*
X145507106Y-143956575D01*
X145528240Y-143988204D01*
X145528241Y-143988205D01*
X146026446Y-143490000D01*
X145980696Y-143444250D01*
X146150000Y-143444250D01*
X146150000Y-143535750D01*
X146185015Y-143620285D01*
X146249715Y-143684985D01*
X146334250Y-143720000D01*
X146425750Y-143720000D01*
X146510285Y-143684985D01*
X146574985Y-143620285D01*
X146610000Y-143535750D01*
X146610000Y-143489999D01*
X146733554Y-143489999D01*
X146733554Y-143490000D01*
X147231758Y-143988204D01*
X147252899Y-143956565D01*
X147327145Y-143777318D01*
X147327148Y-143777306D01*
X147364999Y-143587018D01*
X147365000Y-143587016D01*
X147365000Y-143392983D01*
X147364999Y-143392981D01*
X152635000Y-143392981D01*
X152635000Y-143587018D01*
X152672851Y-143777306D01*
X152672853Y-143777314D01*
X152747102Y-143956568D01*
X152747106Y-143956575D01*
X152768240Y-143988204D01*
X152768241Y-143988205D01*
X153266446Y-143490000D01*
X153220696Y-143444250D01*
X153390000Y-143444250D01*
X153390000Y-143535750D01*
X153425015Y-143620285D01*
X153489715Y-143684985D01*
X153574250Y-143720000D01*
X153665750Y-143720000D01*
X153750285Y-143684985D01*
X153814985Y-143620285D01*
X153850000Y-143535750D01*
X153850000Y-143489999D01*
X153973554Y-143489999D01*
X153973554Y-143490000D01*
X154471758Y-143988204D01*
X154492899Y-143956565D01*
X154567145Y-143777318D01*
X154567148Y-143777306D01*
X154604999Y-143587018D01*
X154605000Y-143587016D01*
X154605000Y-143392983D01*
X154604999Y-143392981D01*
X161395000Y-143392981D01*
X161395000Y-143587018D01*
X161432851Y-143777306D01*
X161432853Y-143777314D01*
X161507102Y-143956568D01*
X161507106Y-143956575D01*
X161528240Y-143988204D01*
X161528241Y-143988205D01*
X162026446Y-143490000D01*
X161980696Y-143444250D01*
X162150000Y-143444250D01*
X162150000Y-143535750D01*
X162185015Y-143620285D01*
X162249715Y-143684985D01*
X162334250Y-143720000D01*
X162425750Y-143720000D01*
X162510285Y-143684985D01*
X162574985Y-143620285D01*
X162610000Y-143535750D01*
X162610000Y-143489999D01*
X162733554Y-143489999D01*
X162733554Y-143490000D01*
X163231758Y-143988204D01*
X163252899Y-143956565D01*
X163327145Y-143777318D01*
X163327148Y-143777306D01*
X163364990Y-143587065D01*
X168634499Y-143587065D01*
X168672371Y-143777454D01*
X168672373Y-143777460D01*
X168746662Y-143956809D01*
X168767640Y-143988205D01*
X168854513Y-144118221D01*
X168991778Y-144255486D01*
X168991781Y-144255488D01*
X169153191Y-144363338D01*
X169332540Y-144437627D01*
X169332544Y-144437627D01*
X169332545Y-144437628D01*
X169522934Y-144475500D01*
X169522937Y-144475500D01*
X169717065Y-144475500D01*
X169845154Y-144450020D01*
X169907460Y-144437627D01*
X170086809Y-144363338D01*
X170248219Y-144255488D01*
X170385488Y-144118219D01*
X170493338Y-143956809D01*
X170567627Y-143777460D01*
X170605500Y-143587065D01*
X177394499Y-143587065D01*
X177432371Y-143777454D01*
X177432373Y-143777460D01*
X177506662Y-143956809D01*
X177527640Y-143988205D01*
X177614513Y-144118221D01*
X177751778Y-144255486D01*
X177751781Y-144255488D01*
X177913191Y-144363338D01*
X178092540Y-144437627D01*
X178092544Y-144437627D01*
X178092545Y-144437628D01*
X178282934Y-144475500D01*
X178282937Y-144475500D01*
X178477065Y-144475500D01*
X178605154Y-144450020D01*
X178667460Y-144437627D01*
X178846809Y-144363338D01*
X179008219Y-144255488D01*
X179145488Y-144118219D01*
X179253338Y-143956809D01*
X179327627Y-143777460D01*
X179365500Y-143587065D01*
X184634499Y-143587065D01*
X184672371Y-143777454D01*
X184672373Y-143777460D01*
X184746662Y-143956809D01*
X184767640Y-143988205D01*
X184854513Y-144118221D01*
X184991778Y-144255486D01*
X184991781Y-144255488D01*
X185153191Y-144363338D01*
X185332540Y-144437627D01*
X185332544Y-144437627D01*
X185332545Y-144437628D01*
X185522934Y-144475500D01*
X185522937Y-144475500D01*
X185717065Y-144475500D01*
X185845154Y-144450020D01*
X185907460Y-144437627D01*
X186086809Y-144363338D01*
X186248219Y-144255488D01*
X186385488Y-144118219D01*
X186493338Y-143956809D01*
X186567627Y-143777460D01*
X186605500Y-143587065D01*
X193394499Y-143587065D01*
X193432371Y-143777454D01*
X193432373Y-143777460D01*
X193506662Y-143956809D01*
X193527640Y-143988205D01*
X193614513Y-144118221D01*
X193751778Y-144255486D01*
X193751781Y-144255488D01*
X193913191Y-144363338D01*
X194092540Y-144437627D01*
X194092544Y-144437627D01*
X194092545Y-144437628D01*
X194282934Y-144475500D01*
X194282937Y-144475500D01*
X194477065Y-144475500D01*
X194605154Y-144450020D01*
X194667460Y-144437627D01*
X194846809Y-144363338D01*
X195008219Y-144255488D01*
X195145488Y-144118219D01*
X195253338Y-143956809D01*
X195327627Y-143777460D01*
X195365500Y-143587063D01*
X195365500Y-143392937D01*
X195365500Y-143392934D01*
X195327628Y-143202545D01*
X195327627Y-143202544D01*
X195327627Y-143202540D01*
X195253338Y-143023191D01*
X195145488Y-142861781D01*
X195145486Y-142861778D01*
X195008221Y-142724513D01*
X194847473Y-142617106D01*
X194846809Y-142616662D01*
X194667460Y-142542373D01*
X194667454Y-142542371D01*
X194477065Y-142504500D01*
X194477063Y-142504500D01*
X194282937Y-142504500D01*
X194282935Y-142504500D01*
X194092545Y-142542371D01*
X194092539Y-142542373D01*
X193913192Y-142616661D01*
X193751778Y-142724513D01*
X193614513Y-142861778D01*
X193506661Y-143023192D01*
X193432373Y-143202539D01*
X193432371Y-143202545D01*
X193394500Y-143392934D01*
X193394500Y-143392937D01*
X193394500Y-143587063D01*
X193394500Y-143587065D01*
X193394499Y-143587065D01*
X186605500Y-143587065D01*
X186605500Y-143587063D01*
X186605500Y-143392937D01*
X186605500Y-143392934D01*
X186567628Y-143202545D01*
X186567627Y-143202544D01*
X186567627Y-143202540D01*
X186493338Y-143023191D01*
X186385488Y-142861781D01*
X186385486Y-142861778D01*
X186248221Y-142724513D01*
X186087473Y-142617106D01*
X186086809Y-142616662D01*
X185907460Y-142542373D01*
X185907454Y-142542371D01*
X185717065Y-142504500D01*
X185717063Y-142504500D01*
X185522937Y-142504500D01*
X185522935Y-142504500D01*
X185332545Y-142542371D01*
X185332539Y-142542373D01*
X185153192Y-142616661D01*
X184991778Y-142724513D01*
X184854513Y-142861778D01*
X184746661Y-143023192D01*
X184672373Y-143202539D01*
X184672371Y-143202545D01*
X184634500Y-143392934D01*
X184634500Y-143392937D01*
X184634500Y-143587063D01*
X184634500Y-143587065D01*
X184634499Y-143587065D01*
X179365500Y-143587065D01*
X179365500Y-143587063D01*
X179365500Y-143392937D01*
X179365500Y-143392934D01*
X179327628Y-143202545D01*
X179327627Y-143202544D01*
X179327627Y-143202540D01*
X179253338Y-143023191D01*
X179145488Y-142861781D01*
X179145486Y-142861778D01*
X179008221Y-142724513D01*
X178847473Y-142617106D01*
X178846809Y-142616662D01*
X178667460Y-142542373D01*
X178667454Y-142542371D01*
X178477065Y-142504500D01*
X178477063Y-142504500D01*
X178282937Y-142504500D01*
X178282935Y-142504500D01*
X178092545Y-142542371D01*
X178092539Y-142542373D01*
X177913192Y-142616661D01*
X177751778Y-142724513D01*
X177614513Y-142861778D01*
X177506661Y-143023192D01*
X177432373Y-143202539D01*
X177432371Y-143202545D01*
X177394500Y-143392934D01*
X177394500Y-143392937D01*
X177394500Y-143587063D01*
X177394500Y-143587065D01*
X177394499Y-143587065D01*
X170605500Y-143587065D01*
X170605500Y-143587063D01*
X170605500Y-143392937D01*
X170605500Y-143392934D01*
X170567628Y-143202545D01*
X170567627Y-143202544D01*
X170567627Y-143202540D01*
X170493338Y-143023191D01*
X170385488Y-142861781D01*
X170385486Y-142861778D01*
X170248221Y-142724513D01*
X170087473Y-142617106D01*
X170086809Y-142616662D01*
X169907460Y-142542373D01*
X169907454Y-142542371D01*
X169717065Y-142504500D01*
X169717063Y-142504500D01*
X169522937Y-142504500D01*
X169522935Y-142504500D01*
X169332545Y-142542371D01*
X169332539Y-142542373D01*
X169153192Y-142616661D01*
X168991778Y-142724513D01*
X168854513Y-142861778D01*
X168746661Y-143023192D01*
X168672373Y-143202539D01*
X168672371Y-143202545D01*
X168634500Y-143392934D01*
X168634500Y-143392937D01*
X168634500Y-143587063D01*
X168634500Y-143587065D01*
X168634499Y-143587065D01*
X163364990Y-143587065D01*
X163364999Y-143587018D01*
X163365000Y-143587016D01*
X163365000Y-143392982D01*
X163327148Y-143202693D01*
X163327145Y-143202681D01*
X163252898Y-143023431D01*
X163231758Y-142991794D01*
X162733554Y-143489999D01*
X162610000Y-143489999D01*
X162610000Y-143444250D01*
X162574985Y-143359715D01*
X162510285Y-143295015D01*
X162425750Y-143260000D01*
X162334250Y-143260000D01*
X162249715Y-143295015D01*
X162185015Y-143359715D01*
X162150000Y-143444250D01*
X161980696Y-143444250D01*
X161528240Y-142991794D01*
X161507104Y-143023426D01*
X161507103Y-143023428D01*
X161432853Y-143202685D01*
X161432851Y-143202693D01*
X161395000Y-143392981D01*
X154604999Y-143392981D01*
X154567148Y-143202693D01*
X154567145Y-143202681D01*
X154492898Y-143023431D01*
X154471758Y-142991794D01*
X153973554Y-143489999D01*
X153850000Y-143489999D01*
X153850000Y-143444250D01*
X153814985Y-143359715D01*
X153750285Y-143295015D01*
X153665750Y-143260000D01*
X153574250Y-143260000D01*
X153489715Y-143295015D01*
X153425015Y-143359715D01*
X153390000Y-143444250D01*
X153220696Y-143444250D01*
X152768240Y-142991794D01*
X152747104Y-143023426D01*
X152747103Y-143023428D01*
X152672853Y-143202685D01*
X152672851Y-143202693D01*
X152635000Y-143392981D01*
X147364999Y-143392981D01*
X147327148Y-143202693D01*
X147327145Y-143202681D01*
X147252898Y-143023431D01*
X147231758Y-142991794D01*
X146733554Y-143489999D01*
X146610000Y-143489999D01*
X146610000Y-143444250D01*
X146574985Y-143359715D01*
X146510285Y-143295015D01*
X146425750Y-143260000D01*
X146334250Y-143260000D01*
X146249715Y-143295015D01*
X146185015Y-143359715D01*
X146150000Y-143444250D01*
X145980696Y-143444250D01*
X145528240Y-142991794D01*
X145507104Y-143023426D01*
X145507103Y-143023428D01*
X145432853Y-143202685D01*
X145432851Y-143202693D01*
X145395000Y-143392981D01*
X138604999Y-143392981D01*
X138567148Y-143202693D01*
X138567145Y-143202681D01*
X138492898Y-143023431D01*
X138471758Y-142991794D01*
X137973554Y-143489999D01*
X137850000Y-143489999D01*
X137850000Y-143444250D01*
X137814985Y-143359715D01*
X137750285Y-143295015D01*
X137665750Y-143260000D01*
X137574250Y-143260000D01*
X137489715Y-143295015D01*
X137425015Y-143359715D01*
X137390000Y-143444250D01*
X137220696Y-143444250D01*
X136768240Y-142991794D01*
X136747104Y-143023426D01*
X136747103Y-143023428D01*
X136672853Y-143202685D01*
X136672851Y-143202693D01*
X136635000Y-143392981D01*
X131364999Y-143392981D01*
X131327148Y-143202693D01*
X131327145Y-143202681D01*
X131252898Y-143023431D01*
X131231758Y-142991794D01*
X130733554Y-143489999D01*
X130610000Y-143489999D01*
X130610000Y-143444250D01*
X130574985Y-143359715D01*
X130510285Y-143295015D01*
X130425750Y-143260000D01*
X130334250Y-143260000D01*
X130249715Y-143295015D01*
X130185015Y-143359715D01*
X130150000Y-143444250D01*
X129980696Y-143444250D01*
X129528240Y-142991794D01*
X129507104Y-143023426D01*
X129507103Y-143023428D01*
X129432853Y-143202685D01*
X129432851Y-143202693D01*
X129395000Y-143392981D01*
X122604999Y-143392981D01*
X122567148Y-143202693D01*
X122567145Y-143202681D01*
X122492898Y-143023431D01*
X122471758Y-142991794D01*
X121973554Y-143489999D01*
X121850000Y-143489999D01*
X121850000Y-143444250D01*
X121814985Y-143359715D01*
X121750285Y-143295015D01*
X121665750Y-143260000D01*
X121574250Y-143260000D01*
X121489715Y-143295015D01*
X121425015Y-143359715D01*
X121390000Y-143444250D01*
X121220696Y-143444250D01*
X120768240Y-142991794D01*
X120747104Y-143023426D01*
X120747103Y-143023428D01*
X120672853Y-143202685D01*
X120672851Y-143202693D01*
X120635000Y-143392981D01*
X115364999Y-143392981D01*
X115327148Y-143202693D01*
X115327145Y-143202681D01*
X115252898Y-143023431D01*
X115231758Y-142991794D01*
X114733554Y-143489999D01*
X114610000Y-143489999D01*
X114610000Y-143444250D01*
X114574985Y-143359715D01*
X114510285Y-143295015D01*
X114425750Y-143260000D01*
X114334250Y-143260000D01*
X114249715Y-143295015D01*
X114185015Y-143359715D01*
X114150000Y-143444250D01*
X113980696Y-143444250D01*
X113528240Y-142991794D01*
X113507104Y-143023426D01*
X113507103Y-143023428D01*
X113432853Y-143202685D01*
X113432851Y-143202693D01*
X113395000Y-143392981D01*
X106604999Y-143392981D01*
X106567148Y-143202693D01*
X106567145Y-143202681D01*
X106492898Y-143023431D01*
X106471758Y-142991794D01*
X105973554Y-143489999D01*
X105850000Y-143489999D01*
X105850000Y-143444250D01*
X105814985Y-143359715D01*
X105750285Y-143295015D01*
X105665750Y-143260000D01*
X105574250Y-143260000D01*
X105489715Y-143295015D01*
X105425015Y-143359715D01*
X105390000Y-143444250D01*
X105220696Y-143444250D01*
X104768240Y-142991794D01*
X104747104Y-143023426D01*
X104747103Y-143023428D01*
X104672853Y-143202685D01*
X104672851Y-143202693D01*
X104635000Y-143392981D01*
X100000500Y-143392981D01*
X100000500Y-142638240D01*
X105121794Y-142638240D01*
X105620000Y-143136446D01*
X105620001Y-143136446D01*
X106118205Y-142638240D01*
X113881794Y-142638240D01*
X114380000Y-143136446D01*
X114380001Y-143136446D01*
X114878205Y-142638240D01*
X121121794Y-142638240D01*
X121620000Y-143136446D01*
X121620001Y-143136446D01*
X122118205Y-142638240D01*
X129881794Y-142638240D01*
X130380000Y-143136446D01*
X130380001Y-143136446D01*
X130878205Y-142638240D01*
X137121794Y-142638240D01*
X137620000Y-143136446D01*
X137620001Y-143136446D01*
X138118205Y-142638240D01*
X145881794Y-142638240D01*
X146380000Y-143136446D01*
X146380001Y-143136446D01*
X146878205Y-142638240D01*
X153121794Y-142638240D01*
X153620000Y-143136446D01*
X153620001Y-143136446D01*
X154118205Y-142638240D01*
X161881794Y-142638240D01*
X162380000Y-143136446D01*
X162380001Y-143136446D01*
X162878205Y-142638241D01*
X162878204Y-142638240D01*
X162846575Y-142617106D01*
X162846568Y-142617102D01*
X162667314Y-142542853D01*
X162667306Y-142542851D01*
X162477017Y-142505000D01*
X162282983Y-142505000D01*
X162092693Y-142542851D01*
X162092685Y-142542853D01*
X161913428Y-142617103D01*
X161913426Y-142617104D01*
X161881794Y-142638240D01*
X154118205Y-142638240D01*
X154086575Y-142617106D01*
X154086568Y-142617102D01*
X153907314Y-142542853D01*
X153907306Y-142542851D01*
X153717017Y-142505000D01*
X153522983Y-142505000D01*
X153332693Y-142542851D01*
X153332685Y-142542853D01*
X153153428Y-142617103D01*
X153153426Y-142617104D01*
X153121794Y-142638240D01*
X146878205Y-142638240D01*
X146846575Y-142617106D01*
X146846568Y-142617102D01*
X146667314Y-142542853D01*
X146667306Y-142542851D01*
X146477017Y-142505000D01*
X146282983Y-142505000D01*
X146092693Y-142542851D01*
X146092685Y-142542853D01*
X145913428Y-142617103D01*
X145913426Y-142617104D01*
X145881794Y-142638240D01*
X138118205Y-142638240D01*
X138086575Y-142617106D01*
X138086568Y-142617102D01*
X137907314Y-142542853D01*
X137907306Y-142542851D01*
X137717017Y-142505000D01*
X137522983Y-142505000D01*
X137332693Y-142542851D01*
X137332685Y-142542853D01*
X137153428Y-142617103D01*
X137153426Y-142617104D01*
X137121794Y-142638240D01*
X130878205Y-142638240D01*
X130846575Y-142617106D01*
X130846568Y-142617102D01*
X130667314Y-142542853D01*
X130667306Y-142542851D01*
X130477017Y-142505000D01*
X130282983Y-142505000D01*
X130092693Y-142542851D01*
X130092685Y-142542853D01*
X129913428Y-142617103D01*
X129913426Y-142617104D01*
X129881794Y-142638240D01*
X122118205Y-142638240D01*
X122086575Y-142617106D01*
X122086568Y-142617102D01*
X121907314Y-142542853D01*
X121907306Y-142542851D01*
X121717017Y-142505000D01*
X121522983Y-142505000D01*
X121332693Y-142542851D01*
X121332685Y-142542853D01*
X121153428Y-142617103D01*
X121153426Y-142617104D01*
X121121794Y-142638240D01*
X114878205Y-142638240D01*
X114846575Y-142617106D01*
X114846568Y-142617102D01*
X114667314Y-142542853D01*
X114667306Y-142542851D01*
X114477017Y-142505000D01*
X114282983Y-142505000D01*
X114092693Y-142542851D01*
X114092685Y-142542853D01*
X113913428Y-142617103D01*
X113913426Y-142617104D01*
X113881794Y-142638240D01*
X106118205Y-142638240D01*
X106086575Y-142617106D01*
X106086568Y-142617102D01*
X105907314Y-142542853D01*
X105907306Y-142542851D01*
X105717017Y-142505000D01*
X105522983Y-142505000D01*
X105332693Y-142542851D01*
X105332685Y-142542853D01*
X105153428Y-142617103D01*
X105153426Y-142617104D01*
X105121794Y-142638240D01*
X100000500Y-142638240D01*
X100000500Y-134878711D01*
X108149500Y-134878711D01*
X108149500Y-135121288D01*
X108181161Y-135361785D01*
X108243947Y-135596104D01*
X108300355Y-135732284D01*
X108336776Y-135820212D01*
X108458064Y-136030289D01*
X108458066Y-136030292D01*
X108458067Y-136030293D01*
X108605733Y-136222736D01*
X108605739Y-136222743D01*
X108777256Y-136394260D01*
X108777262Y-136394265D01*
X108969711Y-136541936D01*
X109179788Y-136663224D01*
X109403900Y-136756054D01*
X109638211Y-136818838D01*
X109818586Y-136842584D01*
X109878711Y-136850500D01*
X109878712Y-136850500D01*
X110121289Y-136850500D01*
X110169388Y-136844167D01*
X110361789Y-136818838D01*
X110596100Y-136756054D01*
X110820212Y-136663224D01*
X111030289Y-136541936D01*
X111222738Y-136394265D01*
X111394265Y-136222738D01*
X111541936Y-136030289D01*
X111663224Y-135820212D01*
X111756054Y-135596100D01*
X111818838Y-135361789D01*
X111850500Y-135121288D01*
X111850500Y-134878712D01*
X111818838Y-134638211D01*
X111786533Y-134517648D01*
X115539500Y-134517648D01*
X115539500Y-134722351D01*
X115571522Y-134924534D01*
X115634781Y-135119223D01*
X115727715Y-135301613D01*
X115848028Y-135467213D01*
X115992786Y-135611971D01*
X116147749Y-135724556D01*
X116158390Y-135732287D01*
X116274607Y-135791503D01*
X116340776Y-135825218D01*
X116340778Y-135825218D01*
X116340781Y-135825220D01*
X116445137Y-135859127D01*
X116535465Y-135888477D01*
X116636557Y-135904488D01*
X116737648Y-135920500D01*
X116737649Y-135920500D01*
X116942351Y-135920500D01*
X116942352Y-135920500D01*
X117144534Y-135888477D01*
X117339219Y-135825220D01*
X117521610Y-135732287D01*
X117614590Y-135664732D01*
X117687213Y-135611971D01*
X117687215Y-135611968D01*
X117687219Y-135611966D01*
X117831966Y-135467219D01*
X117831968Y-135467215D01*
X117831971Y-135467213D01*
X117884732Y-135394590D01*
X117952287Y-135301610D01*
X118045220Y-135119219D01*
X118108477Y-134924534D01*
X118140500Y-134722352D01*
X118140500Y-134517648D01*
X124699500Y-134517648D01*
X124699500Y-134722351D01*
X124731522Y-134924534D01*
X124794781Y-135119223D01*
X124887715Y-135301613D01*
X125008028Y-135467213D01*
X125152786Y-135611971D01*
X125307749Y-135724556D01*
X125318390Y-135732287D01*
X125434607Y-135791503D01*
X125500776Y-135825218D01*
X125500778Y-135825218D01*
X125500781Y-135825220D01*
X125605137Y-135859127D01*
X125695465Y-135888477D01*
X125796557Y-135904488D01*
X125897648Y-135920500D01*
X125897649Y-135920500D01*
X126102351Y-135920500D01*
X126102352Y-135920500D01*
X126304534Y-135888477D01*
X126499219Y-135825220D01*
X126681610Y-135732287D01*
X126774590Y-135664732D01*
X126847213Y-135611971D01*
X126847215Y-135611968D01*
X126847219Y-135611966D01*
X126991966Y-135467219D01*
X126991968Y-135467215D01*
X126991971Y-135467213D01*
X127044732Y-135394590D01*
X127112287Y-135301610D01*
X127205220Y-135119219D01*
X127268477Y-134924534D01*
X127275735Y-134878711D01*
X188149500Y-134878711D01*
X188149500Y-135121288D01*
X188181161Y-135361785D01*
X188243947Y-135596104D01*
X188300355Y-135732284D01*
X188336776Y-135820212D01*
X188458064Y-136030289D01*
X188458066Y-136030292D01*
X188458067Y-136030293D01*
X188605733Y-136222736D01*
X188605739Y-136222743D01*
X188777256Y-136394260D01*
X188777262Y-136394265D01*
X188969711Y-136541936D01*
X189179788Y-136663224D01*
X189403900Y-136756054D01*
X189638211Y-136818838D01*
X189818586Y-136842584D01*
X189878711Y-136850500D01*
X189878712Y-136850500D01*
X190121289Y-136850500D01*
X190169388Y-136844167D01*
X190361789Y-136818838D01*
X190596100Y-136756054D01*
X190820212Y-136663224D01*
X191030289Y-136541936D01*
X191222738Y-136394265D01*
X191394265Y-136222738D01*
X191541936Y-136030289D01*
X191663224Y-135820212D01*
X191756054Y-135596100D01*
X191818838Y-135361789D01*
X191850500Y-135121288D01*
X191850500Y-134878712D01*
X191818838Y-134638211D01*
X191756054Y-134403900D01*
X191663224Y-134179788D01*
X191541936Y-133969711D01*
X191394265Y-133777262D01*
X191394260Y-133777256D01*
X191222743Y-133605739D01*
X191222736Y-133605733D01*
X191030293Y-133458067D01*
X191030292Y-133458066D01*
X191030289Y-133458064D01*
X190820212Y-133336776D01*
X190737844Y-133302658D01*
X190596104Y-133243947D01*
X190361785Y-133181161D01*
X190121289Y-133149500D01*
X190121288Y-133149500D01*
X189878712Y-133149500D01*
X189878711Y-133149500D01*
X189638214Y-133181161D01*
X189403895Y-133243947D01*
X189179794Y-133336773D01*
X189179785Y-133336777D01*
X188969706Y-133458067D01*
X188777263Y-133605733D01*
X188777256Y-133605739D01*
X188605739Y-133777256D01*
X188605733Y-133777263D01*
X188458067Y-133969706D01*
X188336777Y-134179785D01*
X188336773Y-134179794D01*
X188243947Y-134403895D01*
X188181161Y-134638214D01*
X188149500Y-134878711D01*
X127275735Y-134878711D01*
X127300500Y-134722352D01*
X127300500Y-134517648D01*
X127268477Y-134315466D01*
X127205220Y-134120781D01*
X127205218Y-134120778D01*
X127205218Y-134120776D01*
X127171503Y-134054607D01*
X127112287Y-133938390D01*
X127104556Y-133927749D01*
X126991971Y-133772786D01*
X126847213Y-133628028D01*
X126681613Y-133507715D01*
X126681612Y-133507714D01*
X126681610Y-133507713D01*
X126624653Y-133478691D01*
X126499223Y-133414781D01*
X126371649Y-133373330D01*
X126304534Y-133351522D01*
X126129995Y-133323878D01*
X126102352Y-133319500D01*
X125897648Y-133319500D01*
X125873329Y-133323351D01*
X125695465Y-133351522D01*
X125500776Y-133414781D01*
X125318386Y-133507715D01*
X125152786Y-133628028D01*
X125008028Y-133772786D01*
X124887715Y-133938386D01*
X124794781Y-134120776D01*
X124731522Y-134315465D01*
X124699500Y-134517648D01*
X118140500Y-134517648D01*
X118108477Y-134315466D01*
X118045220Y-134120781D01*
X118045218Y-134120778D01*
X118045218Y-134120776D01*
X118011503Y-134054607D01*
X117952287Y-133938390D01*
X117944556Y-133927749D01*
X117831971Y-133772786D01*
X117687213Y-133628028D01*
X117521613Y-133507715D01*
X117521612Y-133507714D01*
X117521610Y-133507713D01*
X117464653Y-133478691D01*
X117339223Y-133414781D01*
X117144534Y-133351522D01*
X116969995Y-133323878D01*
X116942352Y-133319500D01*
X116737648Y-133319500D01*
X116713329Y-133323351D01*
X116535465Y-133351522D01*
X116340776Y-133414781D01*
X116158386Y-133507715D01*
X115992786Y-133628028D01*
X115848028Y-133772786D01*
X115727715Y-133938386D01*
X115634781Y-134120776D01*
X115571522Y-134315465D01*
X115539500Y-134517648D01*
X111786533Y-134517648D01*
X111756054Y-134403900D01*
X111663224Y-134179788D01*
X111541936Y-133969711D01*
X111394265Y-133777262D01*
X111394260Y-133777256D01*
X111222743Y-133605739D01*
X111222736Y-133605733D01*
X111030293Y-133458067D01*
X111030292Y-133458066D01*
X111030289Y-133458064D01*
X110820212Y-133336776D01*
X110737844Y-133302658D01*
X110596104Y-133243947D01*
X110361785Y-133181161D01*
X110121289Y-133149500D01*
X110121288Y-133149500D01*
X109878712Y-133149500D01*
X109878711Y-133149500D01*
X109638214Y-133181161D01*
X109403895Y-133243947D01*
X109179794Y-133336773D01*
X109179785Y-133336777D01*
X108969706Y-133458067D01*
X108777263Y-133605733D01*
X108777256Y-133605739D01*
X108605739Y-133777256D01*
X108605733Y-133777263D01*
X108458067Y-133969706D01*
X108336777Y-134179785D01*
X108336773Y-134179794D01*
X108243947Y-134403895D01*
X108181161Y-134638214D01*
X108149500Y-134878711D01*
X100000500Y-134878711D01*
X100000500Y-131961947D01*
X161620000Y-131961947D01*
X161620000Y-132198052D01*
X161656934Y-132431247D01*
X161729897Y-132655802D01*
X161837087Y-132866174D01*
X161897338Y-132949104D01*
X161897340Y-132949105D01*
X162555387Y-132291058D01*
X162560889Y-132311591D01*
X162639881Y-132448408D01*
X162751592Y-132560119D01*
X162888409Y-132639111D01*
X162908940Y-132644612D01*
X162250893Y-133302658D01*
X162333828Y-133362914D01*
X162544197Y-133470102D01*
X162768752Y-133543065D01*
X162768751Y-133543065D01*
X163001948Y-133580000D01*
X163238052Y-133580000D01*
X163471247Y-133543065D01*
X163695802Y-133470102D01*
X163906163Y-133362918D01*
X163906169Y-133362914D01*
X163989104Y-133302658D01*
X163989105Y-133302658D01*
X163331058Y-132644612D01*
X163351591Y-132639111D01*
X163488408Y-132560119D01*
X163600119Y-132448408D01*
X163679111Y-132311591D01*
X163684612Y-132291058D01*
X164342658Y-132949105D01*
X164342658Y-132949104D01*
X164402914Y-132866169D01*
X164402918Y-132866163D01*
X164510102Y-132655802D01*
X164583065Y-132431247D01*
X164620000Y-132198052D01*
X164620000Y-131961947D01*
X164583065Y-131728752D01*
X164510102Y-131504197D01*
X164402914Y-131293828D01*
X164342658Y-131210894D01*
X164342658Y-131210893D01*
X163684612Y-131868940D01*
X163679111Y-131848409D01*
X163600119Y-131711592D01*
X163488408Y-131599881D01*
X163351591Y-131520889D01*
X163331059Y-131515387D01*
X163989105Y-130857340D01*
X163989104Y-130857338D01*
X163906174Y-130797087D01*
X163695802Y-130689897D01*
X163471247Y-130616934D01*
X163471248Y-130616934D01*
X163238052Y-130580000D01*
X163001948Y-130580000D01*
X162768752Y-130616934D01*
X162544197Y-130689897D01*
X162333830Y-130797084D01*
X162250894Y-130857340D01*
X162908941Y-131515387D01*
X162888409Y-131520889D01*
X162751592Y-131599881D01*
X162639881Y-131711592D01*
X162560889Y-131848409D01*
X162555387Y-131868941D01*
X161897340Y-131210894D01*
X161837084Y-131293830D01*
X161729897Y-131504197D01*
X161656934Y-131728752D01*
X161620000Y-131961947D01*
X100000500Y-131961947D01*
X100000500Y-129289999D01*
X137458244Y-129289999D01*
X137458245Y-129290000D01*
X138591518Y-129290000D01*
X138580889Y-129308409D01*
X138540000Y-129461009D01*
X138540000Y-129618991D01*
X138580889Y-129771591D01*
X138591518Y-129790000D01*
X137458244Y-129790000D01*
X137469087Y-129872367D01*
X137526764Y-130087620D01*
X137612045Y-130293502D01*
X137612054Y-130293520D01*
X137723464Y-130486491D01*
X137723466Y-130486495D01*
X137859130Y-130663293D01*
X137859138Y-130663302D01*
X138016698Y-130820862D01*
X138016706Y-130820869D01*
X138193504Y-130956533D01*
X138193508Y-130956535D01*
X138386479Y-131067945D01*
X138386497Y-131067954D01*
X138592379Y-131153235D01*
X138807632Y-131210912D01*
X138889999Y-131221755D01*
X138890000Y-131221755D01*
X138890000Y-130088482D01*
X138908409Y-130099111D01*
X139061009Y-130140000D01*
X139218991Y-130140000D01*
X139371591Y-130099111D01*
X139390000Y-130088482D01*
X139390000Y-131221755D01*
X139472367Y-131210912D01*
X139687620Y-131153235D01*
X139893502Y-131067954D01*
X139893520Y-131067945D01*
X140086491Y-130956535D01*
X140086495Y-130956533D01*
X140263293Y-130820869D01*
X140263302Y-130820862D01*
X140420862Y-130663302D01*
X140420869Y-130663293D01*
X140556533Y-130486495D01*
X140556535Y-130486491D01*
X140667945Y-130293520D01*
X140667954Y-130293502D01*
X140753235Y-130087620D01*
X140810912Y-129872367D01*
X140821756Y-129790000D01*
X139688482Y-129790000D01*
X139699111Y-129771591D01*
X139740000Y-129618991D01*
X139740000Y-129461009D01*
X139726030Y-129408872D01*
X145319500Y-129408872D01*
X145319500Y-129671127D01*
X145335151Y-129790000D01*
X145353730Y-129931116D01*
X145398744Y-130099111D01*
X145421602Y-130184418D01*
X145421605Y-130184428D01*
X145521953Y-130426690D01*
X145521958Y-130426700D01*
X145653075Y-130653803D01*
X145812718Y-130861851D01*
X145812726Y-130861860D01*
X145998140Y-131047274D01*
X145998148Y-131047281D01*
X146206196Y-131206924D01*
X146433299Y-131338041D01*
X146433309Y-131338046D01*
X146675571Y-131438394D01*
X146675581Y-131438398D01*
X146928884Y-131506270D01*
X147188880Y-131540500D01*
X147188887Y-131540500D01*
X147451113Y-131540500D01*
X147451120Y-131540500D01*
X147711116Y-131506270D01*
X147964419Y-131438398D01*
X148206697Y-131338043D01*
X148433803Y-131206924D01*
X148641851Y-131047282D01*
X148641855Y-131047277D01*
X148641860Y-131047274D01*
X148827274Y-130861860D01*
X148827275Y-130861858D01*
X148827282Y-130861851D01*
X148986924Y-130653803D01*
X149118043Y-130426697D01*
X149218398Y-130184419D01*
X149286270Y-129931116D01*
X149320500Y-129671120D01*
X149320500Y-129428549D01*
X167919500Y-129428549D01*
X167919500Y-129651450D01*
X167919501Y-129651466D01*
X167948594Y-129872452D01*
X167948595Y-129872457D01*
X167948596Y-129872463D01*
X167964312Y-129931116D01*
X168006290Y-130087780D01*
X168006293Y-130087790D01*
X168091593Y-130293722D01*
X168091595Y-130293726D01*
X168203052Y-130486774D01*
X168203057Y-130486780D01*
X168203058Y-130486782D01*
X168338751Y-130663622D01*
X168338757Y-130663629D01*
X168496370Y-130821242D01*
X168496377Y-130821248D01*
X168549304Y-130861860D01*
X168673226Y-130956948D01*
X168866274Y-131068405D01*
X169072219Y-131153710D01*
X169287537Y-131211404D01*
X169508543Y-131240500D01*
X169508550Y-131240500D01*
X169731450Y-131240500D01*
X169731457Y-131240500D01*
X169952463Y-131211404D01*
X170167781Y-131153710D01*
X170373726Y-131068405D01*
X170566774Y-130956948D01*
X170743624Y-130821247D01*
X170901247Y-130663624D01*
X171036948Y-130486774D01*
X171148405Y-130293726D01*
X171233710Y-130087781D01*
X171291404Y-129872463D01*
X171320500Y-129651457D01*
X171320500Y-129428543D01*
X171291404Y-129207537D01*
X171233710Y-128992219D01*
X171148405Y-128786274D01*
X171036948Y-128593226D01*
X170965797Y-128500500D01*
X170901248Y-128416377D01*
X170901242Y-128416370D01*
X170743629Y-128258757D01*
X170743622Y-128258751D01*
X170566782Y-128123058D01*
X170566780Y-128123057D01*
X170566774Y-128123052D01*
X170373726Y-128011595D01*
X170373722Y-128011593D01*
X170167790Y-127926293D01*
X170167783Y-127926291D01*
X170167781Y-127926290D01*
X169952463Y-127868596D01*
X169952457Y-127868595D01*
X169952452Y-127868594D01*
X169731466Y-127839501D01*
X169731463Y-127839500D01*
X169731457Y-127839500D01*
X169508543Y-127839500D01*
X169508537Y-127839500D01*
X169508533Y-127839501D01*
X169287547Y-127868594D01*
X169287540Y-127868595D01*
X169287537Y-127868596D01*
X169072219Y-127926290D01*
X169072209Y-127926293D01*
X168866277Y-128011593D01*
X168866273Y-128011595D01*
X168673226Y-128123052D01*
X168673217Y-128123058D01*
X168496377Y-128258751D01*
X168496370Y-128258757D01*
X168338757Y-128416370D01*
X168338751Y-128416377D01*
X168203058Y-128593217D01*
X168203052Y-128593226D01*
X168091595Y-128786273D01*
X168091593Y-128786277D01*
X168006293Y-128992209D01*
X168006290Y-128992219D01*
X167958228Y-129171592D01*
X167948597Y-129207534D01*
X167948594Y-129207547D01*
X167919501Y-129428533D01*
X167919500Y-129428549D01*
X149320500Y-129428549D01*
X149320500Y-129408880D01*
X149286270Y-129148884D01*
X149218398Y-128895581D01*
X149173214Y-128786497D01*
X149118046Y-128653309D01*
X149118041Y-128653299D01*
X148986924Y-128426196D01*
X148827281Y-128218148D01*
X148827274Y-128218140D01*
X148641860Y-128032726D01*
X148641851Y-128032718D01*
X148433803Y-127873075D01*
X148206700Y-127741958D01*
X148206690Y-127741953D01*
X147964428Y-127641605D01*
X147964421Y-127641603D01*
X147964419Y-127641602D01*
X147711116Y-127573730D01*
X147653339Y-127566123D01*
X147451127Y-127539500D01*
X147451120Y-127539500D01*
X147188880Y-127539500D01*
X147188872Y-127539500D01*
X146957772Y-127569926D01*
X146928884Y-127573730D01*
X146675581Y-127641602D01*
X146675571Y-127641605D01*
X146433309Y-127741953D01*
X146433299Y-127741958D01*
X146206196Y-127873075D01*
X145998148Y-128032718D01*
X145812718Y-128218148D01*
X145653075Y-128426196D01*
X145521958Y-128653299D01*
X145521953Y-128653309D01*
X145421605Y-128895571D01*
X145421602Y-128895581D01*
X145353730Y-129148885D01*
X145319500Y-129408872D01*
X139726030Y-129408872D01*
X139699111Y-129308409D01*
X139688482Y-129290000D01*
X140821756Y-129290000D01*
X140821755Y-129289999D01*
X140810912Y-129207632D01*
X140753235Y-128992379D01*
X140667954Y-128786497D01*
X140667945Y-128786479D01*
X140556535Y-128593508D01*
X140556533Y-128593504D01*
X140420869Y-128416706D01*
X140420862Y-128416698D01*
X140263302Y-128259138D01*
X140263293Y-128259130D01*
X140086495Y-128123466D01*
X140086491Y-128123464D01*
X139893520Y-128012054D01*
X139893502Y-128012045D01*
X139687618Y-127926763D01*
X139472363Y-127869087D01*
X139390000Y-127858242D01*
X139390000Y-128991517D01*
X139371591Y-128980889D01*
X139218991Y-128940000D01*
X139061009Y-128940000D01*
X138908409Y-128980889D01*
X138890000Y-128991517D01*
X138890000Y-127858242D01*
X138889999Y-127858242D01*
X138807636Y-127869087D01*
X138592381Y-127926763D01*
X138386497Y-128012045D01*
X138386479Y-128012054D01*
X138193508Y-128123464D01*
X138193504Y-128123466D01*
X138016706Y-128259130D01*
X137859130Y-128416706D01*
X137723466Y-128593504D01*
X137723464Y-128593508D01*
X137612054Y-128786479D01*
X137612045Y-128786497D01*
X137526764Y-128992379D01*
X137469087Y-129207632D01*
X137458244Y-129289999D01*
X100000500Y-129289999D01*
X100000500Y-125952135D01*
X161619500Y-125952135D01*
X161619500Y-128047870D01*
X161619501Y-128047876D01*
X161625908Y-128107483D01*
X161676202Y-128242328D01*
X161676206Y-128242335D01*
X161762452Y-128357544D01*
X161762455Y-128357547D01*
X161877664Y-128443793D01*
X161877671Y-128443797D01*
X162012517Y-128494091D01*
X162012516Y-128494091D01*
X162019444Y-128494835D01*
X162072127Y-128500500D01*
X164167872Y-128500499D01*
X164227483Y-128494091D01*
X164362331Y-128443796D01*
X164477546Y-128357546D01*
X164563796Y-128242331D01*
X164614091Y-128107483D01*
X164620500Y-128047873D01*
X164620499Y-125952128D01*
X164614091Y-125892517D01*
X164563796Y-125757669D01*
X164563795Y-125757668D01*
X164563793Y-125757664D01*
X164477547Y-125642455D01*
X164477544Y-125642452D01*
X164362335Y-125556206D01*
X164362328Y-125556202D01*
X164227482Y-125505908D01*
X164227483Y-125505908D01*
X164167883Y-125499501D01*
X164167881Y-125499500D01*
X164167873Y-125499500D01*
X164167864Y-125499500D01*
X162072129Y-125499500D01*
X162072123Y-125499501D01*
X162012516Y-125505908D01*
X161877671Y-125556202D01*
X161877664Y-125556206D01*
X161762455Y-125642452D01*
X161762452Y-125642455D01*
X161676206Y-125757664D01*
X161676202Y-125757671D01*
X161625908Y-125892517D01*
X161619501Y-125952116D01*
X161619501Y-125952123D01*
X161619500Y-125952135D01*
X100000500Y-125952135D01*
X100000500Y-124357648D01*
X115539500Y-124357648D01*
X115539500Y-124562351D01*
X115571522Y-124764534D01*
X115634781Y-124959223D01*
X115727715Y-125141613D01*
X115848028Y-125307213D01*
X115992786Y-125451971D01*
X116136251Y-125556202D01*
X116158390Y-125572287D01*
X116274607Y-125631503D01*
X116340776Y-125665218D01*
X116340778Y-125665218D01*
X116340781Y-125665220D01*
X116445137Y-125699127D01*
X116535465Y-125728477D01*
X116636557Y-125744488D01*
X116737648Y-125760500D01*
X116737649Y-125760500D01*
X116942351Y-125760500D01*
X116942352Y-125760500D01*
X117144534Y-125728477D01*
X117339219Y-125665220D01*
X117521610Y-125572287D01*
X117621794Y-125499500D01*
X117687213Y-125451971D01*
X117687215Y-125451968D01*
X117687219Y-125451966D01*
X117831966Y-125307219D01*
X117831968Y-125307215D01*
X117831971Y-125307213D01*
X117884732Y-125234590D01*
X117952287Y-125141610D01*
X118045220Y-124959219D01*
X118108477Y-124764534D01*
X118140500Y-124562352D01*
X118140500Y-124357648D01*
X124699500Y-124357648D01*
X124699500Y-124562351D01*
X124731522Y-124764534D01*
X124794781Y-124959223D01*
X124887715Y-125141613D01*
X125008028Y-125307213D01*
X125152786Y-125451971D01*
X125296251Y-125556202D01*
X125318390Y-125572287D01*
X125434607Y-125631503D01*
X125500776Y-125665218D01*
X125500778Y-125665218D01*
X125500781Y-125665220D01*
X125605137Y-125699127D01*
X125695465Y-125728477D01*
X125796557Y-125744488D01*
X125897648Y-125760500D01*
X125897649Y-125760500D01*
X126102351Y-125760500D01*
X126102352Y-125760500D01*
X126304534Y-125728477D01*
X126499219Y-125665220D01*
X126681610Y-125572287D01*
X126781794Y-125499500D01*
X126847213Y-125451971D01*
X126847215Y-125451968D01*
X126847219Y-125451966D01*
X126991966Y-125307219D01*
X126991968Y-125307215D01*
X126991971Y-125307213D01*
X127044732Y-125234590D01*
X127112287Y-125141610D01*
X127205220Y-124959219D01*
X127268477Y-124764534D01*
X127300500Y-124562352D01*
X127300500Y-124357648D01*
X127268477Y-124155466D01*
X127205220Y-123960781D01*
X127205218Y-123960778D01*
X127205218Y-123960776D01*
X127171503Y-123894607D01*
X127112287Y-123778390D01*
X127104556Y-123767749D01*
X126991971Y-123612786D01*
X126847213Y-123468028D01*
X126681613Y-123347715D01*
X126681612Y-123347714D01*
X126681610Y-123347713D01*
X126624653Y-123318691D01*
X126499223Y-123254781D01*
X126304534Y-123191522D01*
X126129995Y-123163878D01*
X126102352Y-123159500D01*
X125897648Y-123159500D01*
X125873329Y-123163351D01*
X125695465Y-123191522D01*
X125500776Y-123254781D01*
X125318386Y-123347715D01*
X125152786Y-123468028D01*
X125008028Y-123612786D01*
X124887715Y-123778386D01*
X124794781Y-123960776D01*
X124731522Y-124155465D01*
X124699500Y-124357648D01*
X118140500Y-124357648D01*
X118108477Y-124155466D01*
X118045220Y-123960781D01*
X118045218Y-123960778D01*
X118045218Y-123960776D01*
X118011503Y-123894607D01*
X117952287Y-123778390D01*
X117944556Y-123767749D01*
X117831971Y-123612786D01*
X117687213Y-123468028D01*
X117521613Y-123347715D01*
X117521612Y-123347714D01*
X117521610Y-123347713D01*
X117464653Y-123318691D01*
X117339223Y-123254781D01*
X117144534Y-123191522D01*
X116969995Y-123163878D01*
X116942352Y-123159500D01*
X116737648Y-123159500D01*
X116713329Y-123163351D01*
X116535465Y-123191522D01*
X116340776Y-123254781D01*
X116158386Y-123347715D01*
X115992786Y-123468028D01*
X115848028Y-123612786D01*
X115727715Y-123778386D01*
X115634781Y-123960776D01*
X115571522Y-124155465D01*
X115539500Y-124357648D01*
X100000500Y-124357648D01*
X100000500Y-118532135D01*
X105379500Y-118532135D01*
X105379500Y-120227870D01*
X105379501Y-120227876D01*
X105385908Y-120287483D01*
X105436202Y-120422328D01*
X105436206Y-120422335D01*
X105522452Y-120537544D01*
X105522455Y-120537547D01*
X105637664Y-120623793D01*
X105637671Y-120623797D01*
X105772517Y-120674091D01*
X105772516Y-120674091D01*
X105779444Y-120674835D01*
X105832127Y-120680500D01*
X107527872Y-120680499D01*
X107587483Y-120674091D01*
X107722331Y-120623796D01*
X107837546Y-120537546D01*
X107923796Y-120422331D01*
X107974091Y-120287483D01*
X107980500Y-120227873D01*
X107980499Y-119277648D01*
X115539500Y-119277648D01*
X115539500Y-119482351D01*
X115571522Y-119684534D01*
X115634781Y-119879223D01*
X115727715Y-120061613D01*
X115848028Y-120227213D01*
X115992786Y-120371971D01*
X116147749Y-120484556D01*
X116158390Y-120492287D01*
X116247212Y-120537544D01*
X116340776Y-120585218D01*
X116340778Y-120585218D01*
X116340781Y-120585220D01*
X116445137Y-120619127D01*
X116535465Y-120648477D01*
X116636557Y-120664488D01*
X116737648Y-120680500D01*
X116737649Y-120680500D01*
X116942351Y-120680500D01*
X116942352Y-120680500D01*
X117144534Y-120648477D01*
X117339219Y-120585220D01*
X117521610Y-120492287D01*
X117617901Y-120422328D01*
X117687213Y-120371971D01*
X117687215Y-120371968D01*
X117687219Y-120371966D01*
X117831966Y-120227219D01*
X117831968Y-120227215D01*
X117831971Y-120227213D01*
X117884732Y-120154590D01*
X117952287Y-120061610D01*
X118045220Y-119879219D01*
X118108477Y-119684534D01*
X118140500Y-119482352D01*
X118140500Y-119277648D01*
X118108477Y-119075466D01*
X118045220Y-118880781D01*
X118045218Y-118880778D01*
X118045218Y-118880776D01*
X118011503Y-118814607D01*
X117952287Y-118698390D01*
X117944556Y-118687749D01*
X117831971Y-118532786D01*
X117687213Y-118388028D01*
X117521613Y-118267715D01*
X117521612Y-118267714D01*
X117521610Y-118267713D01*
X117464653Y-118238691D01*
X117339223Y-118174781D01*
X117144534Y-118111522D01*
X116969995Y-118083878D01*
X116942352Y-118079500D01*
X116737648Y-118079500D01*
X116713329Y-118083351D01*
X116535465Y-118111522D01*
X116340776Y-118174781D01*
X116158386Y-118267715D01*
X115992786Y-118388028D01*
X115848028Y-118532786D01*
X115727715Y-118698386D01*
X115634781Y-118880776D01*
X115571522Y-119075465D01*
X115539500Y-119277648D01*
X107980499Y-119277648D01*
X107980499Y-118532128D01*
X107974091Y-118472517D01*
X107923796Y-118337669D01*
X107923795Y-118337668D01*
X107923793Y-118337664D01*
X107837547Y-118222455D01*
X107837544Y-118222452D01*
X107722335Y-118136206D01*
X107722328Y-118136202D01*
X107587482Y-118085908D01*
X107587483Y-118085908D01*
X107527883Y-118079501D01*
X107527881Y-118079500D01*
X107527873Y-118079500D01*
X107527864Y-118079500D01*
X105832129Y-118079500D01*
X105832123Y-118079501D01*
X105772516Y-118085908D01*
X105637671Y-118136202D01*
X105637664Y-118136206D01*
X105522455Y-118222452D01*
X105522452Y-118222455D01*
X105436206Y-118337664D01*
X105436202Y-118337671D01*
X105385908Y-118472517D01*
X105379501Y-118532116D01*
X105379501Y-118532123D01*
X105379500Y-118532135D01*
X100000500Y-118532135D01*
X100000500Y-113452135D01*
X105379500Y-113452135D01*
X105379500Y-115147870D01*
X105379501Y-115147876D01*
X105385908Y-115207483D01*
X105436202Y-115342328D01*
X105436206Y-115342335D01*
X105522452Y-115457544D01*
X105522455Y-115457547D01*
X105637664Y-115543793D01*
X105637671Y-115543797D01*
X105772517Y-115594091D01*
X105772516Y-115594091D01*
X105779444Y-115594835D01*
X105832127Y-115600500D01*
X107527872Y-115600499D01*
X107587483Y-115594091D01*
X107722331Y-115543796D01*
X107837546Y-115457546D01*
X107923796Y-115342331D01*
X107974091Y-115207483D01*
X107980500Y-115147873D01*
X107980499Y-114050000D01*
X115563391Y-114050000D01*
X116524314Y-114050000D01*
X116519920Y-114054394D01*
X116467259Y-114145606D01*
X116440000Y-114247339D01*
X116440000Y-114352661D01*
X116467259Y-114454394D01*
X116519920Y-114545606D01*
X116524314Y-114550000D01*
X115563391Y-114550000D01*
X115572009Y-114604413D01*
X115635244Y-114799029D01*
X115728140Y-114981349D01*
X115848417Y-115146894D01*
X115848417Y-115146895D01*
X115993104Y-115291582D01*
X116158650Y-115411859D01*
X116340968Y-115504754D01*
X116535578Y-115567988D01*
X116590000Y-115576607D01*
X116590000Y-114615686D01*
X116594394Y-114620080D01*
X116685606Y-114672741D01*
X116787339Y-114700000D01*
X116892661Y-114700000D01*
X116994394Y-114672741D01*
X117085606Y-114620080D01*
X117090000Y-114615686D01*
X117090000Y-115576606D01*
X117144421Y-115567988D01*
X117339031Y-115504754D01*
X117521349Y-115411859D01*
X117686894Y-115291582D01*
X117686895Y-115291582D01*
X117831582Y-115146895D01*
X117831582Y-115146894D01*
X117951859Y-114981349D01*
X118044755Y-114799029D01*
X118107990Y-114604413D01*
X118116609Y-114550000D01*
X117155686Y-114550000D01*
X117160080Y-114545606D01*
X117212741Y-114454394D01*
X117240000Y-114352661D01*
X117240000Y-114247339D01*
X117212741Y-114145606D01*
X117160080Y-114054394D01*
X117155686Y-114050000D01*
X118116609Y-114050000D01*
X118107990Y-113995586D01*
X118044755Y-113800970D01*
X117951859Y-113618650D01*
X117831582Y-113453105D01*
X117831582Y-113453104D01*
X117686895Y-113308417D01*
X117609430Y-113252135D01*
X138007000Y-113252135D01*
X138007000Y-115347870D01*
X138007001Y-115347876D01*
X138013408Y-115407483D01*
X138063702Y-115542328D01*
X138063706Y-115542335D01*
X138149952Y-115657544D01*
X138149955Y-115657547D01*
X138265164Y-115743793D01*
X138265171Y-115743797D01*
X138400017Y-115794091D01*
X138400016Y-115794091D01*
X138406944Y-115794835D01*
X138459627Y-115800500D01*
X140460372Y-115800499D01*
X140519983Y-115794091D01*
X140654831Y-115743796D01*
X140770046Y-115657546D01*
X140856296Y-115542331D01*
X140866690Y-115514460D01*
X140908560Y-115458527D01*
X140974023Y-115434108D01*
X141042297Y-115448958D01*
X141055746Y-115457465D01*
X141238462Y-115590217D01*
X141258640Y-115600498D01*
X141442244Y-115694049D01*
X141659751Y-115764721D01*
X141659752Y-115764721D01*
X141659755Y-115764722D01*
X141885646Y-115800500D01*
X141885647Y-115800500D01*
X142114353Y-115800500D01*
X142114354Y-115800500D01*
X142340245Y-115764722D01*
X142340248Y-115764721D01*
X142340249Y-115764721D01*
X142557755Y-115694049D01*
X142557755Y-115694048D01*
X142557758Y-115694048D01*
X142761538Y-115590217D01*
X142946566Y-115455786D01*
X143108286Y-115294066D01*
X143169683Y-115209559D01*
X143225012Y-115166896D01*
X143294625Y-115160917D01*
X143356420Y-115193523D01*
X143370314Y-115209556D01*
X143431714Y-115294066D01*
X143593434Y-115455786D01*
X143778462Y-115590217D01*
X143798640Y-115600498D01*
X143982244Y-115694049D01*
X144199751Y-115764721D01*
X144199752Y-115764721D01*
X144199755Y-115764722D01*
X144425646Y-115800500D01*
X144425647Y-115800500D01*
X144654353Y-115800500D01*
X144654354Y-115800500D01*
X144880245Y-115764722D01*
X144880248Y-115764721D01*
X144880249Y-115764721D01*
X145097755Y-115694049D01*
X145097755Y-115694048D01*
X145097758Y-115694048D01*
X145301538Y-115590217D01*
X145486566Y-115455786D01*
X145648286Y-115294066D01*
X145782717Y-115109038D01*
X145886548Y-114905258D01*
X145957222Y-114687745D01*
X145993000Y-114461854D01*
X145993000Y-114138146D01*
X145957222Y-113912255D01*
X145957221Y-113912251D01*
X145957221Y-113912250D01*
X145886549Y-113694744D01*
X145847777Y-113618650D01*
X145782717Y-113490962D01*
X145648286Y-113305934D01*
X145594487Y-113252135D01*
X154007000Y-113252135D01*
X154007000Y-115347870D01*
X154007001Y-115347876D01*
X154013408Y-115407483D01*
X154063702Y-115542328D01*
X154063706Y-115542335D01*
X154149952Y-115657544D01*
X154149955Y-115657547D01*
X154265164Y-115743793D01*
X154265171Y-115743797D01*
X154400017Y-115794091D01*
X154400016Y-115794091D01*
X154406944Y-115794835D01*
X154459627Y-115800500D01*
X156460372Y-115800499D01*
X156519983Y-115794091D01*
X156654831Y-115743796D01*
X156770046Y-115657546D01*
X156856296Y-115542331D01*
X156866690Y-115514460D01*
X156908560Y-115458527D01*
X156974023Y-115434108D01*
X157042297Y-115448958D01*
X157055746Y-115457465D01*
X157238462Y-115590217D01*
X157258640Y-115600498D01*
X157442244Y-115694049D01*
X157659751Y-115764721D01*
X157659752Y-115764721D01*
X157659755Y-115764722D01*
X157885646Y-115800500D01*
X157885647Y-115800500D01*
X158114353Y-115800500D01*
X158114354Y-115800500D01*
X158340245Y-115764722D01*
X158340248Y-115764721D01*
X158340249Y-115764721D01*
X158557755Y-115694049D01*
X158557755Y-115694048D01*
X158557758Y-115694048D01*
X158761538Y-115590217D01*
X158946566Y-115455786D01*
X159108286Y-115294066D01*
X159169683Y-115209559D01*
X159225012Y-115166896D01*
X159294625Y-115160917D01*
X159356420Y-115193523D01*
X159370314Y-115209556D01*
X159431714Y-115294066D01*
X159593434Y-115455786D01*
X159778462Y-115590217D01*
X159798640Y-115600498D01*
X159982244Y-115694049D01*
X160199751Y-115764721D01*
X160199752Y-115764721D01*
X160199755Y-115764722D01*
X160425646Y-115800500D01*
X160425647Y-115800500D01*
X160654353Y-115800500D01*
X160654354Y-115800500D01*
X160880245Y-115764722D01*
X160880248Y-115764721D01*
X160880249Y-115764721D01*
X161097755Y-115694049D01*
X161097755Y-115694048D01*
X161097758Y-115694048D01*
X161301538Y-115590217D01*
X161486566Y-115455786D01*
X161648286Y-115294066D01*
X161782717Y-115109038D01*
X161886548Y-114905258D01*
X161957222Y-114687745D01*
X161993000Y-114461854D01*
X161993000Y-114138146D01*
X161957222Y-113912255D01*
X161957221Y-113912251D01*
X161957221Y-113912250D01*
X161886549Y-113694744D01*
X161847777Y-113618650D01*
X161782717Y-113490962D01*
X161648286Y-113305934D01*
X161486566Y-113144214D01*
X161301538Y-113009783D01*
X161293933Y-113005908D01*
X161097755Y-112905950D01*
X160880248Y-112835278D01*
X160694812Y-112805908D01*
X160654354Y-112799500D01*
X160425646Y-112799500D01*
X160385188Y-112805908D01*
X160199753Y-112835278D01*
X160199750Y-112835278D01*
X159982244Y-112905950D01*
X159778461Y-113009783D01*
X159712550Y-113057671D01*
X159593434Y-113144214D01*
X159593432Y-113144216D01*
X159593431Y-113144216D01*
X159431715Y-113305932D01*
X159370318Y-113390438D01*
X159314987Y-113433103D01*
X159245374Y-113439082D01*
X159183579Y-113406476D01*
X159169682Y-113390438D01*
X159158773Y-113375423D01*
X159108286Y-113305934D01*
X158946566Y-113144214D01*
X158761538Y-113009783D01*
X158753933Y-113005908D01*
X158557755Y-112905950D01*
X158340248Y-112835278D01*
X158154812Y-112805908D01*
X158114354Y-112799500D01*
X157885646Y-112799500D01*
X157845188Y-112805908D01*
X157659753Y-112835278D01*
X157659750Y-112835278D01*
X157442244Y-112905950D01*
X157238461Y-113009783D01*
X157134194Y-113085538D01*
X157055857Y-113142454D01*
X157055759Y-113142525D01*
X156989952Y-113166005D01*
X156921898Y-113150180D01*
X156873203Y-113100074D01*
X156866690Y-113085538D01*
X156856296Y-113057669D01*
X156856293Y-113057664D01*
X156770047Y-112942455D01*
X156770044Y-112942452D01*
X156654835Y-112856206D01*
X156654828Y-112856202D01*
X156519982Y-112805908D01*
X156519983Y-112805908D01*
X156460383Y-112799501D01*
X156460381Y-112799500D01*
X156460373Y-112799500D01*
X156460364Y-112799500D01*
X154459629Y-112799500D01*
X154459623Y-112799501D01*
X154400016Y-112805908D01*
X154265171Y-112856202D01*
X154265164Y-112856206D01*
X154149955Y-112942452D01*
X154149952Y-112942455D01*
X154063706Y-113057664D01*
X154063702Y-113057671D01*
X154013408Y-113192517D01*
X154007001Y-113252116D01*
X154007000Y-113252135D01*
X145594487Y-113252135D01*
X145486566Y-113144214D01*
X145301538Y-113009783D01*
X145293933Y-113005908D01*
X145097755Y-112905950D01*
X144880248Y-112835278D01*
X144694812Y-112805908D01*
X144654354Y-112799500D01*
X144425646Y-112799500D01*
X144385188Y-112805908D01*
X144199753Y-112835278D01*
X144199750Y-112835278D01*
X143982244Y-112905950D01*
X143778461Y-113009783D01*
X143712550Y-113057671D01*
X143593434Y-113144214D01*
X143593432Y-113144216D01*
X143593431Y-113144216D01*
X143431715Y-113305932D01*
X143370318Y-113390438D01*
X143314987Y-113433103D01*
X143245374Y-113439082D01*
X143183579Y-113406476D01*
X143169682Y-113390438D01*
X143158773Y-113375423D01*
X143108286Y-113305934D01*
X142946566Y-113144214D01*
X142761538Y-113009783D01*
X142753933Y-113005908D01*
X142557755Y-112905950D01*
X142340248Y-112835278D01*
X142154812Y-112805908D01*
X142114354Y-112799500D01*
X141885646Y-112799500D01*
X141845188Y-112805908D01*
X141659753Y-112835278D01*
X141659750Y-112835278D01*
X141442244Y-112905950D01*
X141238461Y-113009783D01*
X141134194Y-113085538D01*
X141055857Y-113142454D01*
X141055759Y-113142525D01*
X140989952Y-113166005D01*
X140921898Y-113150180D01*
X140873203Y-113100074D01*
X140866690Y-113085538D01*
X140856296Y-113057669D01*
X140856293Y-113057664D01*
X140770047Y-112942455D01*
X140770044Y-112942452D01*
X140654835Y-112856206D01*
X140654828Y-112856202D01*
X140519982Y-112805908D01*
X140519983Y-112805908D01*
X140460383Y-112799501D01*
X140460381Y-112799500D01*
X140460373Y-112799500D01*
X140460364Y-112799500D01*
X138459629Y-112799500D01*
X138459623Y-112799501D01*
X138400016Y-112805908D01*
X138265171Y-112856202D01*
X138265164Y-112856206D01*
X138149955Y-112942452D01*
X138149952Y-112942455D01*
X138063706Y-113057664D01*
X138063702Y-113057671D01*
X138013408Y-113192517D01*
X138007001Y-113252116D01*
X138007000Y-113252135D01*
X117609430Y-113252135D01*
X117521349Y-113188140D01*
X117339029Y-113095244D01*
X117144413Y-113032009D01*
X117090000Y-113023390D01*
X117090000Y-113984314D01*
X117085606Y-113979920D01*
X116994394Y-113927259D01*
X116892661Y-113900000D01*
X116787339Y-113900000D01*
X116685606Y-113927259D01*
X116594394Y-113979920D01*
X116590000Y-113984314D01*
X116590000Y-113023390D01*
X116535586Y-113032009D01*
X116340970Y-113095244D01*
X116158650Y-113188140D01*
X115993105Y-113308417D01*
X115993104Y-113308417D01*
X115848417Y-113453104D01*
X115848417Y-113453105D01*
X115728140Y-113618650D01*
X115635244Y-113800970D01*
X115572009Y-113995586D01*
X115563391Y-114050000D01*
X107980499Y-114050000D01*
X107980499Y-113452128D01*
X107974091Y-113392517D01*
X107947674Y-113321690D01*
X107923797Y-113257671D01*
X107923793Y-113257664D01*
X107837547Y-113142455D01*
X107837544Y-113142452D01*
X107722335Y-113056206D01*
X107722328Y-113056202D01*
X107587482Y-113005908D01*
X107587483Y-113005908D01*
X107527883Y-112999501D01*
X107527881Y-112999500D01*
X107527873Y-112999500D01*
X107527864Y-112999500D01*
X105832129Y-112999500D01*
X105832123Y-112999501D01*
X105772516Y-113005908D01*
X105637671Y-113056202D01*
X105637664Y-113056206D01*
X105522455Y-113142452D01*
X105522452Y-113142455D01*
X105436206Y-113257664D01*
X105436202Y-113257671D01*
X105385908Y-113392517D01*
X105379501Y-113452116D01*
X105379501Y-113452123D01*
X105379500Y-113452135D01*
X100000500Y-113452135D01*
X100000500Y-106577648D01*
X135859500Y-106577648D01*
X135859500Y-106782351D01*
X135891522Y-106984534D01*
X135954781Y-107179223D01*
X136047715Y-107361613D01*
X136168028Y-107527213D01*
X136312786Y-107671971D01*
X136467749Y-107784556D01*
X136478390Y-107792287D01*
X136594607Y-107851503D01*
X136660776Y-107885218D01*
X136660778Y-107885218D01*
X136660781Y-107885220D01*
X136765137Y-107919127D01*
X136855465Y-107948477D01*
X136956557Y-107964488D01*
X137057648Y-107980500D01*
X137057649Y-107980500D01*
X137262351Y-107980500D01*
X137262352Y-107980500D01*
X137464534Y-107948477D01*
X137659219Y-107885220D01*
X137841610Y-107792287D01*
X137934590Y-107724732D01*
X138007213Y-107671971D01*
X138007215Y-107671968D01*
X138007219Y-107671966D01*
X138151966Y-107527219D01*
X138151968Y-107527215D01*
X138151971Y-107527213D01*
X138204732Y-107454590D01*
X138272287Y-107361610D01*
X138365220Y-107179219D01*
X138428477Y-106984534D01*
X138460500Y-106782352D01*
X138460500Y-106577648D01*
X146019500Y-106577648D01*
X146019500Y-106782351D01*
X146051522Y-106984534D01*
X146114781Y-107179223D01*
X146207715Y-107361613D01*
X146328028Y-107527213D01*
X146472786Y-107671971D01*
X146627749Y-107784556D01*
X146638390Y-107792287D01*
X146754607Y-107851503D01*
X146820776Y-107885218D01*
X146820778Y-107885218D01*
X146820781Y-107885220D01*
X146925137Y-107919127D01*
X147015465Y-107948477D01*
X147116557Y-107964488D01*
X147217648Y-107980500D01*
X147217649Y-107980500D01*
X147422351Y-107980500D01*
X147422352Y-107980500D01*
X147624534Y-107948477D01*
X147819219Y-107885220D01*
X148001610Y-107792287D01*
X148094590Y-107724732D01*
X148167213Y-107671971D01*
X148167215Y-107671968D01*
X148167219Y-107671966D01*
X148311966Y-107527219D01*
X148311968Y-107527215D01*
X148311971Y-107527213D01*
X148364732Y-107454590D01*
X148432287Y-107361610D01*
X148525220Y-107179219D01*
X148588477Y-106984534D01*
X148620500Y-106782352D01*
X148620500Y-106577648D01*
X148588477Y-106375466D01*
X148525220Y-106180781D01*
X148525218Y-106180778D01*
X148525218Y-106180776D01*
X148491503Y-106114607D01*
X148432287Y-105998390D01*
X148424556Y-105987749D01*
X148311971Y-105832786D01*
X148167213Y-105688028D01*
X148001613Y-105567715D01*
X148001612Y-105567714D01*
X148001610Y-105567713D01*
X147944653Y-105538691D01*
X147819223Y-105474781D01*
X147624534Y-105411522D01*
X147449995Y-105383878D01*
X147422352Y-105379500D01*
X147217648Y-105379500D01*
X147193329Y-105383351D01*
X147015465Y-105411522D01*
X146820776Y-105474781D01*
X146638386Y-105567715D01*
X146472786Y-105688028D01*
X146328028Y-105832786D01*
X146207715Y-105998386D01*
X146114781Y-106180776D01*
X146051522Y-106375465D01*
X146019500Y-106577648D01*
X138460500Y-106577648D01*
X138428477Y-106375466D01*
X138365220Y-106180781D01*
X138365218Y-106180778D01*
X138365218Y-106180776D01*
X138331503Y-106114607D01*
X138272287Y-105998390D01*
X138264556Y-105987749D01*
X138151971Y-105832786D01*
X138007213Y-105688028D01*
X137841613Y-105567715D01*
X137841612Y-105567714D01*
X137841610Y-105567713D01*
X137784653Y-105538691D01*
X137659223Y-105474781D01*
X137464534Y-105411522D01*
X137289995Y-105383878D01*
X137262352Y-105379500D01*
X137057648Y-105379500D01*
X137033329Y-105383351D01*
X136855465Y-105411522D01*
X136660776Y-105474781D01*
X136478386Y-105567715D01*
X136312786Y-105688028D01*
X136168028Y-105832786D01*
X136047715Y-105998386D01*
X135954781Y-106180776D01*
X135891522Y-106375465D01*
X135859500Y-106577648D01*
X100000500Y-106577648D01*
X100000500Y-101497648D01*
X135859500Y-101497648D01*
X135859500Y-101702351D01*
X135891522Y-101904534D01*
X135954781Y-102099223D01*
X136047715Y-102281613D01*
X136168028Y-102447213D01*
X136312786Y-102591971D01*
X136467749Y-102704556D01*
X136478390Y-102712287D01*
X136594607Y-102771503D01*
X136660776Y-102805218D01*
X136660778Y-102805218D01*
X136660781Y-102805220D01*
X136765137Y-102839127D01*
X136855465Y-102868477D01*
X136956557Y-102884488D01*
X137057648Y-102900500D01*
X137057649Y-102900500D01*
X137262351Y-102900500D01*
X137262352Y-102900500D01*
X137464534Y-102868477D01*
X137659219Y-102805220D01*
X137841610Y-102712287D01*
X137934590Y-102644732D01*
X138007213Y-102591971D01*
X138007215Y-102591968D01*
X138007219Y-102591966D01*
X138151966Y-102447219D01*
X138151968Y-102447215D01*
X138151971Y-102447213D01*
X138204732Y-102374590D01*
X138272287Y-102281610D01*
X138365220Y-102099219D01*
X138428477Y-101904534D01*
X138460500Y-101702352D01*
X138460500Y-101497648D01*
X146019500Y-101497648D01*
X146019500Y-101702351D01*
X146051522Y-101904534D01*
X146114781Y-102099223D01*
X146207715Y-102281613D01*
X146328028Y-102447213D01*
X146472786Y-102591971D01*
X146627749Y-102704556D01*
X146638390Y-102712287D01*
X146754607Y-102771503D01*
X146820776Y-102805218D01*
X146820778Y-102805218D01*
X146820781Y-102805220D01*
X146925137Y-102839127D01*
X147015465Y-102868477D01*
X147116557Y-102884488D01*
X147217648Y-102900500D01*
X147217649Y-102900500D01*
X147422351Y-102900500D01*
X147422352Y-102900500D01*
X147624534Y-102868477D01*
X147819219Y-102805220D01*
X148001610Y-102712287D01*
X148094590Y-102644732D01*
X148167213Y-102591971D01*
X148167215Y-102591968D01*
X148167219Y-102591966D01*
X148311966Y-102447219D01*
X148311968Y-102447215D01*
X148311971Y-102447213D01*
X148364732Y-102374590D01*
X148432287Y-102281610D01*
X148525220Y-102099219D01*
X148588477Y-101904534D01*
X148620500Y-101702352D01*
X148620500Y-101497648D01*
X148588477Y-101295466D01*
X148525220Y-101100781D01*
X148525218Y-101100778D01*
X148525218Y-101100776D01*
X148491503Y-101034607D01*
X148432287Y-100918390D01*
X148424556Y-100907749D01*
X148311971Y-100752786D01*
X148167213Y-100608028D01*
X148001613Y-100487715D01*
X148001612Y-100487714D01*
X148001610Y-100487713D01*
X147944653Y-100458691D01*
X147819223Y-100394781D01*
X147624534Y-100331522D01*
X147449995Y-100303878D01*
X147422352Y-100299500D01*
X147217648Y-100299500D01*
X147193329Y-100303351D01*
X147015465Y-100331522D01*
X146820776Y-100394781D01*
X146638386Y-100487715D01*
X146472786Y-100608028D01*
X146328028Y-100752786D01*
X146207715Y-100918386D01*
X146114781Y-101100776D01*
X146051522Y-101295465D01*
X146019500Y-101497648D01*
X138460500Y-101497648D01*
X138428477Y-101295466D01*
X138365220Y-101100781D01*
X138365218Y-101100778D01*
X138365218Y-101100776D01*
X138331503Y-101034607D01*
X138272287Y-100918390D01*
X138264556Y-100907749D01*
X138151971Y-100752786D01*
X138007213Y-100608028D01*
X137841613Y-100487715D01*
X137841612Y-100487714D01*
X137841610Y-100487713D01*
X137784653Y-100458691D01*
X137659223Y-100394781D01*
X137464534Y-100331522D01*
X137289995Y-100303878D01*
X137262352Y-100299500D01*
X137057648Y-100299500D01*
X137033329Y-100303351D01*
X136855465Y-100331522D01*
X136660776Y-100394781D01*
X136478386Y-100487715D01*
X136312786Y-100608028D01*
X136168028Y-100752786D01*
X136047715Y-100918386D01*
X135954781Y-101100776D01*
X135891522Y-101295465D01*
X135859500Y-101497648D01*
X100000500Y-101497648D01*
X100000500Y-96497648D01*
X123159500Y-96497648D01*
X123159500Y-96702351D01*
X123191522Y-96904534D01*
X123254781Y-97099223D01*
X123347715Y-97281613D01*
X123468028Y-97447213D01*
X123612786Y-97591971D01*
X123767749Y-97704556D01*
X123778390Y-97712287D01*
X123894607Y-97771503D01*
X123960776Y-97805218D01*
X123960778Y-97805218D01*
X123960781Y-97805220D01*
X124065137Y-97839127D01*
X124155465Y-97868477D01*
X124256557Y-97884488D01*
X124357648Y-97900500D01*
X124357649Y-97900500D01*
X124562351Y-97900500D01*
X124562352Y-97900500D01*
X124764534Y-97868477D01*
X124959219Y-97805220D01*
X125141610Y-97712287D01*
X125234590Y-97644732D01*
X125307213Y-97591971D01*
X125307215Y-97591968D01*
X125307219Y-97591966D01*
X125451966Y-97447219D01*
X125451968Y-97447215D01*
X125451971Y-97447213D01*
X125510093Y-97367213D01*
X125572287Y-97281610D01*
X125665220Y-97099219D01*
X125728477Y-96904534D01*
X125760500Y-96702352D01*
X125760500Y-96497648D01*
X125747829Y-96417648D01*
X128239500Y-96417648D01*
X128239500Y-96622351D01*
X128271522Y-96824534D01*
X128334781Y-97019223D01*
X128427715Y-97201613D01*
X128548028Y-97367213D01*
X128692786Y-97511971D01*
X128802892Y-97591966D01*
X128858390Y-97632287D01*
X128974607Y-97691503D01*
X129040776Y-97725218D01*
X129040778Y-97725218D01*
X129040781Y-97725220D01*
X129145137Y-97759127D01*
X129235465Y-97788477D01*
X129336557Y-97804488D01*
X129437648Y-97820500D01*
X129437649Y-97820500D01*
X129642351Y-97820500D01*
X129642352Y-97820500D01*
X129844534Y-97788477D01*
X130039219Y-97725220D01*
X130221610Y-97632287D01*
X130314590Y-97564732D01*
X130387213Y-97511971D01*
X130387215Y-97511968D01*
X130387219Y-97511966D01*
X130531966Y-97367219D01*
X130531968Y-97367215D01*
X130531971Y-97367213D01*
X130594164Y-97281610D01*
X130652287Y-97201610D01*
X130745220Y-97019219D01*
X130808477Y-96824534D01*
X130840500Y-96622352D01*
X130840500Y-96417648D01*
X163799500Y-96417648D01*
X163799500Y-96622351D01*
X163831522Y-96824534D01*
X163894781Y-97019223D01*
X163987715Y-97201613D01*
X164108028Y-97367213D01*
X164252786Y-97511971D01*
X164362892Y-97591966D01*
X164418390Y-97632287D01*
X164534607Y-97691503D01*
X164600776Y-97725218D01*
X164600778Y-97725218D01*
X164600781Y-97725220D01*
X164705137Y-97759127D01*
X164795465Y-97788477D01*
X164896557Y-97804488D01*
X164997648Y-97820500D01*
X164997649Y-97820500D01*
X165202351Y-97820500D01*
X165202352Y-97820500D01*
X165404534Y-97788477D01*
X165599219Y-97725220D01*
X165781610Y-97632287D01*
X165874590Y-97564732D01*
X165947213Y-97511971D01*
X165947215Y-97511968D01*
X165947219Y-97511966D01*
X166091966Y-97367219D01*
X166091968Y-97367215D01*
X166091971Y-97367213D01*
X166154164Y-97281610D01*
X166212287Y-97201610D01*
X166305220Y-97019219D01*
X166368477Y-96824534D01*
X166400500Y-96622352D01*
X166400500Y-96417648D01*
X166368477Y-96215466D01*
X166305220Y-96020781D01*
X166305218Y-96020778D01*
X166305218Y-96020776D01*
X166253047Y-95918386D01*
X166212287Y-95838390D01*
X166150093Y-95752786D01*
X166091971Y-95672786D01*
X165947213Y-95528028D01*
X165781613Y-95407715D01*
X165781612Y-95407714D01*
X165781610Y-95407713D01*
X165724653Y-95378691D01*
X165599223Y-95314781D01*
X165404534Y-95251522D01*
X165229995Y-95223878D01*
X165202352Y-95219500D01*
X164997648Y-95219500D01*
X164973329Y-95223351D01*
X164795465Y-95251522D01*
X164600776Y-95314781D01*
X164418386Y-95407715D01*
X164252786Y-95528028D01*
X164108028Y-95672786D01*
X163987715Y-95838386D01*
X163894781Y-96020776D01*
X163831522Y-96215465D01*
X163799500Y-96417648D01*
X130840500Y-96417648D01*
X130808477Y-96215466D01*
X130745220Y-96020781D01*
X130745218Y-96020778D01*
X130745218Y-96020776D01*
X130693047Y-95918386D01*
X130652287Y-95838390D01*
X130590093Y-95752786D01*
X130531971Y-95672786D01*
X130387213Y-95528028D01*
X130221613Y-95407715D01*
X130221612Y-95407714D01*
X130221610Y-95407713D01*
X130164653Y-95378691D01*
X130039223Y-95314781D01*
X129844534Y-95251522D01*
X129669995Y-95223878D01*
X129642352Y-95219500D01*
X129437648Y-95219500D01*
X129413329Y-95223351D01*
X129235465Y-95251522D01*
X129040776Y-95314781D01*
X128858386Y-95407715D01*
X128692786Y-95528028D01*
X128548028Y-95672786D01*
X128427715Y-95838386D01*
X128334781Y-96020776D01*
X128271522Y-96215465D01*
X128239500Y-96417648D01*
X125747829Y-96417648D01*
X125728477Y-96295466D01*
X125665220Y-96100781D01*
X125665218Y-96100778D01*
X125665218Y-96100776D01*
X125624455Y-96020776D01*
X125572287Y-95918390D01*
X125564556Y-95907749D01*
X125451971Y-95752786D01*
X125307213Y-95608028D01*
X125141613Y-95487715D01*
X125141612Y-95487714D01*
X125141610Y-95487713D01*
X125084653Y-95458691D01*
X124959223Y-95394781D01*
X124764534Y-95331522D01*
X124589995Y-95303878D01*
X124562352Y-95299500D01*
X124357648Y-95299500D01*
X124333329Y-95303351D01*
X124155465Y-95331522D01*
X123960776Y-95394781D01*
X123778386Y-95487715D01*
X123612786Y-95608028D01*
X123468028Y-95752786D01*
X123347715Y-95918386D01*
X123254781Y-96100776D01*
X123191522Y-96295465D01*
X123159500Y-96497648D01*
X100000500Y-96497648D01*
X100000500Y-93877648D01*
X133319500Y-93877648D01*
X133319500Y-94082351D01*
X133351522Y-94284534D01*
X133414781Y-94479223D01*
X133478691Y-94604653D01*
X133507585Y-94661359D01*
X133507715Y-94661613D01*
X133628028Y-94827213D01*
X133772786Y-94971971D01*
X133893226Y-95059474D01*
X133938390Y-95092287D01*
X134054607Y-95151503D01*
X134120776Y-95185218D01*
X134120778Y-95185218D01*
X134120781Y-95185220D01*
X134225137Y-95219127D01*
X134315465Y-95248477D01*
X134334697Y-95251523D01*
X134517648Y-95280500D01*
X134517649Y-95280500D01*
X134722351Y-95280500D01*
X134722352Y-95280500D01*
X134924534Y-95248477D01*
X135119219Y-95185220D01*
X135301610Y-95092287D01*
X135394590Y-95024732D01*
X135467213Y-94971971D01*
X135467215Y-94971968D01*
X135467219Y-94971966D01*
X135611966Y-94827219D01*
X135611968Y-94827215D01*
X135611971Y-94827213D01*
X135664732Y-94754590D01*
X135732287Y-94661610D01*
X135825220Y-94479219D01*
X135888477Y-94284534D01*
X135920500Y-94082352D01*
X135920500Y-93877648D01*
X135912257Y-93825606D01*
X135888477Y-93675465D01*
X135857458Y-93580000D01*
X135825220Y-93480781D01*
X135825218Y-93480778D01*
X135825218Y-93480776D01*
X135732419Y-93298650D01*
X135732287Y-93298390D01*
X135700092Y-93254077D01*
X135611971Y-93132786D01*
X135467213Y-92988028D01*
X135301613Y-92867715D01*
X135301612Y-92867714D01*
X135301610Y-92867713D01*
X135244653Y-92838691D01*
X135119223Y-92774781D01*
X134924534Y-92711522D01*
X134749995Y-92683878D01*
X134722352Y-92679500D01*
X134517648Y-92679500D01*
X134493329Y-92683351D01*
X134315465Y-92711522D01*
X134120776Y-92774781D01*
X133938386Y-92867715D01*
X133772786Y-92988028D01*
X133628028Y-93132786D01*
X133507715Y-93298386D01*
X133414781Y-93480776D01*
X133351522Y-93675465D01*
X133319500Y-93877648D01*
X100000500Y-93877648D01*
X100000500Y-91497648D01*
X123159500Y-91497648D01*
X123159500Y-91702351D01*
X123191522Y-91904534D01*
X123254781Y-92099223D01*
X123347715Y-92281613D01*
X123468028Y-92447213D01*
X123612786Y-92591971D01*
X123733262Y-92679500D01*
X123778390Y-92712287D01*
X123894607Y-92771503D01*
X123960776Y-92805218D01*
X123960778Y-92805218D01*
X123960781Y-92805220D01*
X124007762Y-92820485D01*
X124155465Y-92868477D01*
X124256557Y-92884488D01*
X124357648Y-92900500D01*
X124357649Y-92900500D01*
X124562351Y-92900500D01*
X124562352Y-92900500D01*
X124764534Y-92868477D01*
X124959219Y-92805220D01*
X125141610Y-92712287D01*
X125296829Y-92599515D01*
X125307213Y-92591971D01*
X125307215Y-92591968D01*
X125307219Y-92591966D01*
X125451966Y-92447219D01*
X125451968Y-92447215D01*
X125451971Y-92447213D01*
X125486760Y-92399330D01*
X125531231Y-92338118D01*
X125572287Y-92281610D01*
X125665220Y-92099219D01*
X125728477Y-91904534D01*
X125760500Y-91702352D01*
X125760500Y-91497648D01*
X125735163Y-91337682D01*
X138400000Y-91337682D01*
X138400000Y-91542317D01*
X138432009Y-91744417D01*
X138495244Y-91939031D01*
X138588141Y-92121350D01*
X138588147Y-92121359D01*
X138620523Y-92165921D01*
X138620524Y-92165922D01*
X139300000Y-91486446D01*
X139300000Y-91492661D01*
X139327259Y-91594394D01*
X139379920Y-91685606D01*
X139454394Y-91760080D01*
X139545606Y-91812741D01*
X139647339Y-91840000D01*
X139653553Y-91840000D01*
X138974076Y-92519474D01*
X139018650Y-92551859D01*
X139112180Y-92599515D01*
X139162976Y-92647489D01*
X139179771Y-92715310D01*
X139157234Y-92781445D01*
X139112180Y-92820485D01*
X139018644Y-92868143D01*
X138974077Y-92900523D01*
X138974077Y-92900524D01*
X139653554Y-93580000D01*
X139647339Y-93580000D01*
X139545606Y-93607259D01*
X139454394Y-93659920D01*
X139379920Y-93734394D01*
X139327259Y-93825606D01*
X139300000Y-93927339D01*
X139300000Y-93933553D01*
X138620524Y-93254077D01*
X138620523Y-93254077D01*
X138588143Y-93298644D01*
X138495244Y-93480968D01*
X138432009Y-93675582D01*
X138400000Y-93877682D01*
X138400000Y-94082317D01*
X138432009Y-94284417D01*
X138495244Y-94479031D01*
X138588141Y-94661350D01*
X138588147Y-94661359D01*
X138620523Y-94705921D01*
X138620524Y-94705922D01*
X139300000Y-94026446D01*
X139300000Y-94032661D01*
X139327259Y-94134394D01*
X139379920Y-94225606D01*
X139454394Y-94300080D01*
X139545606Y-94352741D01*
X139647339Y-94380000D01*
X139653553Y-94380000D01*
X138974076Y-95059474D01*
X139018650Y-95091859D01*
X139200968Y-95184755D01*
X139395582Y-95247990D01*
X139597683Y-95280000D01*
X139802317Y-95280000D01*
X140004417Y-95247990D01*
X140199031Y-95184755D01*
X140381349Y-95091859D01*
X140425921Y-95059474D01*
X139746447Y-94380000D01*
X139752661Y-94380000D01*
X139854394Y-94352741D01*
X139945606Y-94300080D01*
X140020080Y-94225606D01*
X140072741Y-94134394D01*
X140100000Y-94032661D01*
X140100000Y-94026448D01*
X140779474Y-94705922D01*
X140779474Y-94705921D01*
X140811859Y-94661349D01*
X140904755Y-94479031D01*
X140967990Y-94284417D01*
X141000000Y-94082317D01*
X141000000Y-93877682D01*
X140967990Y-93675582D01*
X140904755Y-93480968D01*
X140811859Y-93298650D01*
X140779474Y-93254077D01*
X140779474Y-93254076D01*
X140100000Y-93933551D01*
X140100000Y-93927339D01*
X140072741Y-93825606D01*
X140020080Y-93734394D01*
X139945606Y-93659920D01*
X139854394Y-93607259D01*
X139752661Y-93580000D01*
X139746446Y-93580000D01*
X140425922Y-92900524D01*
X140425921Y-92900523D01*
X140381359Y-92868147D01*
X140381350Y-92868141D01*
X140287819Y-92820485D01*
X140237023Y-92772511D01*
X140220228Y-92704690D01*
X140242765Y-92638555D01*
X140287820Y-92599515D01*
X140381346Y-92551861D01*
X140381347Y-92551861D01*
X140425921Y-92519474D01*
X139746447Y-91840000D01*
X139752661Y-91840000D01*
X139854394Y-91812741D01*
X139945606Y-91760080D01*
X140020080Y-91685606D01*
X140072741Y-91594394D01*
X140100000Y-91492661D01*
X140100000Y-91486448D01*
X140779474Y-92165922D01*
X140779474Y-92165921D01*
X140811859Y-92121349D01*
X140904755Y-91939031D01*
X140967990Y-91744417D01*
X141000000Y-91542317D01*
X141000000Y-91337682D01*
X140999995Y-91337648D01*
X143399500Y-91337648D01*
X143399500Y-91542351D01*
X143431522Y-91744534D01*
X143494781Y-91939223D01*
X143558691Y-92064653D01*
X143587585Y-92121359D01*
X143587715Y-92121613D01*
X143708028Y-92287213D01*
X143852786Y-92431971D01*
X143973226Y-92519474D01*
X144018390Y-92552287D01*
X144096274Y-92591971D01*
X144111080Y-92599515D01*
X144161876Y-92647490D01*
X144178671Y-92715311D01*
X144156134Y-92781446D01*
X144111080Y-92820485D01*
X144018386Y-92867715D01*
X143852786Y-92988028D01*
X143708028Y-93132786D01*
X143587715Y-93298386D01*
X143494781Y-93480776D01*
X143431522Y-93675465D01*
X143399500Y-93877648D01*
X143399500Y-94082351D01*
X143431522Y-94284534D01*
X143494781Y-94479223D01*
X143558691Y-94604653D01*
X143587585Y-94661359D01*
X143587715Y-94661613D01*
X143708028Y-94827213D01*
X143852786Y-94971971D01*
X143973226Y-95059474D01*
X144018390Y-95092287D01*
X144134607Y-95151503D01*
X144200776Y-95185218D01*
X144200778Y-95185218D01*
X144200781Y-95185220D01*
X144305137Y-95219127D01*
X144395465Y-95248477D01*
X144414697Y-95251523D01*
X144597648Y-95280500D01*
X144597649Y-95280500D01*
X144802351Y-95280500D01*
X144802352Y-95280500D01*
X145004534Y-95248477D01*
X145199219Y-95185220D01*
X145381610Y-95092287D01*
X145474590Y-95024732D01*
X145547213Y-94971971D01*
X145547215Y-94971968D01*
X145547219Y-94971966D01*
X145691966Y-94827219D01*
X145691968Y-94827215D01*
X145691971Y-94827213D01*
X145744732Y-94754590D01*
X145812287Y-94661610D01*
X145905220Y-94479219D01*
X145968477Y-94284534D01*
X146000500Y-94082352D01*
X146000500Y-93877648D01*
X145992257Y-93825606D01*
X145968477Y-93675465D01*
X145937458Y-93580000D01*
X145905220Y-93480781D01*
X145905218Y-93480778D01*
X145905218Y-93480776D01*
X145812419Y-93298650D01*
X145812287Y-93298390D01*
X145780092Y-93254077D01*
X145691971Y-93132786D01*
X145547213Y-92988028D01*
X145381614Y-92867715D01*
X145375006Y-92864348D01*
X145288917Y-92820483D01*
X145238123Y-92772511D01*
X145221328Y-92704690D01*
X145243865Y-92638555D01*
X145288917Y-92599516D01*
X145381610Y-92552287D01*
X145426774Y-92519474D01*
X145547213Y-92431971D01*
X145547215Y-92431968D01*
X145547219Y-92431966D01*
X145691966Y-92287219D01*
X145691968Y-92287215D01*
X145691971Y-92287213D01*
X145744732Y-92214590D01*
X145812287Y-92121610D01*
X145905220Y-91939219D01*
X145932069Y-91856585D01*
X145971507Y-91798910D01*
X146035865Y-91771712D01*
X146104712Y-91783627D01*
X146156187Y-91830871D01*
X146167930Y-91856585D01*
X146194780Y-91939219D01*
X146287585Y-92121359D01*
X146287715Y-92121613D01*
X146408028Y-92287213D01*
X146552786Y-92431971D01*
X146673226Y-92519474D01*
X146718390Y-92552287D01*
X146811080Y-92599515D01*
X146900776Y-92645218D01*
X146900778Y-92645218D01*
X146900781Y-92645220D01*
X147005137Y-92679127D01*
X147095465Y-92708477D01*
X147138607Y-92715310D01*
X147297648Y-92740500D01*
X147297649Y-92740500D01*
X148302351Y-92740500D01*
X148302352Y-92740500D01*
X148504534Y-92708477D01*
X148699219Y-92645220D01*
X148881610Y-92552287D01*
X148974590Y-92484732D01*
X149047213Y-92431971D01*
X149047215Y-92431968D01*
X149047219Y-92431966D01*
X149191966Y-92287219D01*
X149191968Y-92287215D01*
X149191971Y-92287213D01*
X149244732Y-92214590D01*
X149312287Y-92121610D01*
X149405220Y-91939219D01*
X149468477Y-91744534D01*
X149500500Y-91542352D01*
X149500500Y-91337648D01*
X149492257Y-91285606D01*
X149468477Y-91135465D01*
X149432069Y-91023414D01*
X149405220Y-90940781D01*
X149405218Y-90940778D01*
X149405218Y-90940776D01*
X149312419Y-90758650D01*
X149312287Y-90758390D01*
X149280092Y-90714077D01*
X149191971Y-90592786D01*
X149047213Y-90448028D01*
X148881614Y-90327715D01*
X148875006Y-90324348D01*
X148788917Y-90280483D01*
X148738123Y-90232511D01*
X148721328Y-90164690D01*
X148743865Y-90098555D01*
X148788917Y-90059516D01*
X148881610Y-90012287D01*
X148902770Y-89996913D01*
X149047213Y-89891971D01*
X149047215Y-89891968D01*
X149047219Y-89891966D01*
X149191966Y-89747219D01*
X149191968Y-89747215D01*
X149191971Y-89747213D01*
X149244732Y-89674590D01*
X149312287Y-89581610D01*
X149405220Y-89399219D01*
X149468477Y-89204534D01*
X149500500Y-89002352D01*
X149500500Y-88797648D01*
X149468477Y-88595466D01*
X149405220Y-88400781D01*
X149405218Y-88400778D01*
X149405218Y-88400776D01*
X149371503Y-88334607D01*
X149312287Y-88218390D01*
X149304556Y-88207749D01*
X149191971Y-88052786D01*
X149047213Y-87908028D01*
X148881614Y-87787715D01*
X148875006Y-87784348D01*
X148788917Y-87740483D01*
X148738123Y-87692511D01*
X148721328Y-87624690D01*
X148743865Y-87558555D01*
X148788917Y-87519516D01*
X148881610Y-87472287D01*
X148902770Y-87456913D01*
X149047213Y-87351971D01*
X149047215Y-87351968D01*
X149047219Y-87351966D01*
X149191966Y-87207219D01*
X149191968Y-87207215D01*
X149191971Y-87207213D01*
X149244732Y-87134590D01*
X149312287Y-87041610D01*
X149405220Y-86859219D01*
X149468477Y-86664534D01*
X149500500Y-86462352D01*
X149500500Y-86257648D01*
X149468477Y-86055466D01*
X149405220Y-85860781D01*
X149405218Y-85860778D01*
X149405218Y-85860776D01*
X149371503Y-85794607D01*
X149312287Y-85678390D01*
X149304556Y-85667749D01*
X149191971Y-85512786D01*
X149047219Y-85368034D01*
X149014576Y-85344318D01*
X148953547Y-85299978D01*
X148910882Y-85244649D01*
X148904903Y-85175036D01*
X148937508Y-85113240D01*
X148987426Y-85081955D01*
X149069334Y-85054814D01*
X149218656Y-84962712D01*
X149342712Y-84838656D01*
X149434814Y-84689334D01*
X149489999Y-84522797D01*
X149500500Y-84420009D01*
X149500499Y-83717648D01*
X153719500Y-83717648D01*
X153719500Y-83922351D01*
X153751522Y-84124534D01*
X153814781Y-84319223D01*
X153866135Y-84420009D01*
X153907585Y-84501359D01*
X153907715Y-84501613D01*
X154028028Y-84667213D01*
X154172786Y-84811971D01*
X154293225Y-84899473D01*
X154338390Y-84932287D01*
X154429840Y-84978883D01*
X154431080Y-84979515D01*
X154481876Y-85027490D01*
X154498671Y-85095311D01*
X154476134Y-85161446D01*
X154431080Y-85200485D01*
X154338386Y-85247715D01*
X154172786Y-85368028D01*
X154028028Y-85512786D01*
X153907715Y-85678386D01*
X153814781Y-85860776D01*
X153751522Y-86055465D01*
X153719500Y-86257648D01*
X153719500Y-86462351D01*
X153751522Y-86664534D01*
X153814781Y-86859223D01*
X153907715Y-87041613D01*
X154028028Y-87207213D01*
X154172786Y-87351971D01*
X154327749Y-87464556D01*
X154338390Y-87472287D01*
X154429840Y-87518883D01*
X154431080Y-87519515D01*
X154481876Y-87567490D01*
X154498671Y-87635311D01*
X154476134Y-87701446D01*
X154431080Y-87740485D01*
X154338386Y-87787715D01*
X154172786Y-87908028D01*
X154028028Y-88052786D01*
X153907715Y-88218386D01*
X153814781Y-88400776D01*
X153751522Y-88595465D01*
X153719500Y-88797648D01*
X153719500Y-89002351D01*
X153751522Y-89204534D01*
X153814781Y-89399223D01*
X153907715Y-89581613D01*
X154028028Y-89747213D01*
X154172786Y-89891971D01*
X154327749Y-90004556D01*
X154338390Y-90012287D01*
X154429840Y-90058883D01*
X154431080Y-90059515D01*
X154481876Y-90107490D01*
X154498671Y-90175311D01*
X154476134Y-90241446D01*
X154431080Y-90280485D01*
X154338386Y-90327715D01*
X154172786Y-90448028D01*
X154028028Y-90592786D01*
X153907715Y-90758386D01*
X153814781Y-90940776D01*
X153751522Y-91135465D01*
X153719500Y-91337648D01*
X153719500Y-91542351D01*
X153751522Y-91744534D01*
X153814781Y-91939223D01*
X153878691Y-92064653D01*
X153907585Y-92121359D01*
X153907715Y-92121613D01*
X154028028Y-92287213D01*
X154172786Y-92431971D01*
X154293226Y-92519474D01*
X154338390Y-92552287D01*
X154431080Y-92599515D01*
X154520776Y-92645218D01*
X154520778Y-92645218D01*
X154520781Y-92645220D01*
X154625137Y-92679127D01*
X154715465Y-92708477D01*
X154758607Y-92715310D01*
X154917648Y-92740500D01*
X154917649Y-92740500D01*
X155922351Y-92740500D01*
X155922352Y-92740500D01*
X156124534Y-92708477D01*
X156319219Y-92645220D01*
X156501610Y-92552287D01*
X156594590Y-92484732D01*
X156667213Y-92431971D01*
X156667215Y-92431968D01*
X156667219Y-92431966D01*
X156811966Y-92287219D01*
X156811968Y-92287215D01*
X156811971Y-92287213D01*
X156864732Y-92214590D01*
X156932287Y-92121610D01*
X157025220Y-91939219D01*
X157088477Y-91744534D01*
X157120500Y-91542352D01*
X157120500Y-91337648D01*
X157112257Y-91285606D01*
X157088477Y-91135465D01*
X157052069Y-91023414D01*
X157025220Y-90940781D01*
X157025218Y-90940778D01*
X157025218Y-90940776D01*
X156932419Y-90758650D01*
X156932287Y-90758390D01*
X156900092Y-90714077D01*
X156811971Y-90592786D01*
X156667213Y-90448028D01*
X156501614Y-90327715D01*
X156495006Y-90324348D01*
X156408917Y-90280483D01*
X156358123Y-90232511D01*
X156341328Y-90164690D01*
X156363865Y-90098555D01*
X156408917Y-90059516D01*
X156501610Y-90012287D01*
X156522770Y-89996913D01*
X156667213Y-89891971D01*
X156667215Y-89891968D01*
X156667219Y-89891966D01*
X156811966Y-89747219D01*
X156811968Y-89747215D01*
X156811971Y-89747213D01*
X156864732Y-89674590D01*
X156932287Y-89581610D01*
X157025220Y-89399219D01*
X157088477Y-89204534D01*
X157120500Y-89002352D01*
X157120500Y-88797648D01*
X157088477Y-88595466D01*
X157025220Y-88400781D01*
X157025218Y-88400778D01*
X157025218Y-88400776D01*
X156991503Y-88334607D01*
X156932287Y-88218390D01*
X156924556Y-88207749D01*
X156811971Y-88052786D01*
X156667213Y-87908028D01*
X156501614Y-87787715D01*
X156495006Y-87784348D01*
X156408917Y-87740483D01*
X156358123Y-87692511D01*
X156341328Y-87624690D01*
X156363865Y-87558555D01*
X156408917Y-87519516D01*
X156501610Y-87472287D01*
X156522770Y-87456913D01*
X156667213Y-87351971D01*
X156667215Y-87351968D01*
X156667219Y-87351966D01*
X156811966Y-87207219D01*
X156811968Y-87207215D01*
X156811971Y-87207213D01*
X156864732Y-87134590D01*
X156932287Y-87041610D01*
X157025220Y-86859219D01*
X157088477Y-86664534D01*
X157120500Y-86462352D01*
X157120500Y-86257648D01*
X157088477Y-86055466D01*
X157025220Y-85860781D01*
X157025218Y-85860778D01*
X157025218Y-85860776D01*
X156991503Y-85794607D01*
X156932287Y-85678390D01*
X156924556Y-85667749D01*
X156811971Y-85512786D01*
X156667213Y-85368028D01*
X156501614Y-85247715D01*
X156495006Y-85244348D01*
X156408917Y-85200483D01*
X156358123Y-85152511D01*
X156341328Y-85084690D01*
X156363865Y-85018555D01*
X156408917Y-84979516D01*
X156501610Y-84932287D01*
X156630482Y-84838657D01*
X156667213Y-84811971D01*
X156667215Y-84811968D01*
X156667219Y-84811966D01*
X156811966Y-84667219D01*
X156811968Y-84667215D01*
X156811971Y-84667213D01*
X156864732Y-84594590D01*
X156932287Y-84501610D01*
X157025220Y-84319219D01*
X157088477Y-84124534D01*
X157120500Y-83922352D01*
X157120500Y-83717648D01*
X157112257Y-83665606D01*
X157088477Y-83515465D01*
X157057458Y-83420000D01*
X157025220Y-83320781D01*
X157025218Y-83320778D01*
X157025218Y-83320776D01*
X156973865Y-83219991D01*
X156932287Y-83138390D01*
X156900092Y-83094077D01*
X156811971Y-82972786D01*
X156667213Y-82828028D01*
X156501613Y-82707715D01*
X156501612Y-82707714D01*
X156501610Y-82707713D01*
X156441898Y-82677288D01*
X156319223Y-82614781D01*
X156124534Y-82551522D01*
X155949995Y-82523878D01*
X155922352Y-82519500D01*
X154917648Y-82519500D01*
X154893329Y-82523351D01*
X154715465Y-82551522D01*
X154520776Y-82614781D01*
X154338386Y-82707715D01*
X154172786Y-82828028D01*
X154028028Y-82972786D01*
X153907715Y-83138386D01*
X153814781Y-83320776D01*
X153751522Y-83515465D01*
X153719500Y-83717648D01*
X149500499Y-83717648D01*
X149500499Y-83219992D01*
X149489999Y-83117203D01*
X149434814Y-82950666D01*
X149342712Y-82801344D01*
X149218656Y-82677288D01*
X149069334Y-82585186D01*
X148902797Y-82530001D01*
X148902795Y-82530000D01*
X148800010Y-82519500D01*
X146799998Y-82519500D01*
X146799981Y-82519501D01*
X146697203Y-82530000D01*
X146697200Y-82530001D01*
X146530668Y-82585185D01*
X146530663Y-82585187D01*
X146381342Y-82677289D01*
X146257289Y-82801342D01*
X146165187Y-82950663D01*
X146165186Y-82950666D01*
X146110001Y-83117203D01*
X146110001Y-83117204D01*
X146110000Y-83117204D01*
X146099500Y-83219983D01*
X146099500Y-84420001D01*
X146099501Y-84420018D01*
X146110000Y-84522796D01*
X146110001Y-84522799D01*
X146157856Y-84667213D01*
X146165186Y-84689334D01*
X146257288Y-84838656D01*
X146381344Y-84962712D01*
X146530666Y-85054814D01*
X146612570Y-85081954D01*
X146670015Y-85121727D01*
X146696838Y-85186243D01*
X146684523Y-85255018D01*
X146646451Y-85299978D01*
X146552787Y-85368028D01*
X146552782Y-85368032D01*
X146408028Y-85512786D01*
X146287715Y-85678386D01*
X146194781Y-85860776D01*
X146131522Y-86055465D01*
X146099500Y-86257648D01*
X146099500Y-86462351D01*
X146131522Y-86664534D01*
X146194781Y-86859223D01*
X146287715Y-87041613D01*
X146408028Y-87207213D01*
X146552786Y-87351971D01*
X146707749Y-87464556D01*
X146718390Y-87472287D01*
X146809840Y-87518883D01*
X146811080Y-87519515D01*
X146861876Y-87567490D01*
X146878671Y-87635311D01*
X146856134Y-87701446D01*
X146811080Y-87740485D01*
X146718386Y-87787715D01*
X146552786Y-87908028D01*
X146408028Y-88052786D01*
X146287715Y-88218386D01*
X146194781Y-88400776D01*
X146131522Y-88595465D01*
X146099500Y-88797648D01*
X146099500Y-89002351D01*
X146131522Y-89204534D01*
X146194781Y-89399223D01*
X146287715Y-89581613D01*
X146408028Y-89747213D01*
X146552786Y-89891971D01*
X146707749Y-90004556D01*
X146718390Y-90012287D01*
X146809840Y-90058883D01*
X146811080Y-90059515D01*
X146861876Y-90107490D01*
X146878671Y-90175311D01*
X146856134Y-90241446D01*
X146811080Y-90280485D01*
X146718386Y-90327715D01*
X146552786Y-90448028D01*
X146408028Y-90592786D01*
X146287715Y-90758386D01*
X146194781Y-90940776D01*
X146167931Y-91023414D01*
X146128493Y-91081089D01*
X146064134Y-91108287D01*
X145995288Y-91096372D01*
X145943812Y-91049128D01*
X145932069Y-91023414D01*
X145905220Y-90940781D01*
X145905218Y-90940778D01*
X145905218Y-90940776D01*
X145812419Y-90758650D01*
X145812287Y-90758390D01*
X145780092Y-90714077D01*
X145691971Y-90592786D01*
X145547213Y-90448028D01*
X145381613Y-90327715D01*
X145381612Y-90327714D01*
X145381610Y-90327713D01*
X145324653Y-90298691D01*
X145199223Y-90234781D01*
X145004534Y-90171522D01*
X144829995Y-90143878D01*
X144802352Y-90139500D01*
X144597648Y-90139500D01*
X144573329Y-90143351D01*
X144395465Y-90171522D01*
X144200776Y-90234781D01*
X144018386Y-90327715D01*
X143852786Y-90448028D01*
X143708028Y-90592786D01*
X143587715Y-90758386D01*
X143494781Y-90940776D01*
X143431522Y-91135465D01*
X143399500Y-91337648D01*
X140999995Y-91337648D01*
X140967990Y-91135582D01*
X140904755Y-90940968D01*
X140811859Y-90758650D01*
X140779474Y-90714077D01*
X140779474Y-90714076D01*
X140100000Y-91393551D01*
X140100000Y-91387339D01*
X140072741Y-91285606D01*
X140020080Y-91194394D01*
X139945606Y-91119920D01*
X139854394Y-91067259D01*
X139752661Y-91040000D01*
X139746446Y-91040000D01*
X140425922Y-90360524D01*
X140425921Y-90360523D01*
X140381359Y-90328147D01*
X140381350Y-90328141D01*
X140199031Y-90235244D01*
X140004417Y-90172009D01*
X139802317Y-90140000D01*
X139597683Y-90140000D01*
X139395582Y-90172009D01*
X139200968Y-90235244D01*
X139018644Y-90328143D01*
X138974077Y-90360523D01*
X138974077Y-90360524D01*
X139653554Y-91040000D01*
X139647339Y-91040000D01*
X139545606Y-91067259D01*
X139454394Y-91119920D01*
X139379920Y-91194394D01*
X139327259Y-91285606D01*
X139300000Y-91387339D01*
X139300000Y-91393553D01*
X138620524Y-90714077D01*
X138620523Y-90714077D01*
X138588143Y-90758644D01*
X138495244Y-90940968D01*
X138432009Y-91135582D01*
X138400000Y-91337682D01*
X125735163Y-91337682D01*
X125728477Y-91295466D01*
X125665220Y-91100781D01*
X125665218Y-91100778D01*
X125665218Y-91100776D01*
X125625799Y-91023414D01*
X125572287Y-90918390D01*
X125564556Y-90907749D01*
X125451971Y-90752786D01*
X125307213Y-90608028D01*
X125169696Y-90508117D01*
X125169673Y-90508102D01*
X125141609Y-90487712D01*
X124959223Y-90394781D01*
X124764534Y-90331522D01*
X124589995Y-90303878D01*
X124562352Y-90299500D01*
X124357648Y-90299500D01*
X124333329Y-90303351D01*
X124155465Y-90331522D01*
X123960776Y-90394781D01*
X123778386Y-90487715D01*
X123612786Y-90608028D01*
X123468028Y-90752786D01*
X123347715Y-90918386D01*
X123254781Y-91100776D01*
X123191522Y-91295465D01*
X123159500Y-91497648D01*
X100000500Y-91497648D01*
X100000500Y-86257648D01*
X128239500Y-86257648D01*
X128239500Y-86462351D01*
X128271522Y-86664534D01*
X128334781Y-86859223D01*
X128427715Y-87041613D01*
X128548028Y-87207213D01*
X128692786Y-87351971D01*
X128847749Y-87464556D01*
X128858390Y-87472287D01*
X128951080Y-87519515D01*
X129040776Y-87565218D01*
X129040778Y-87565218D01*
X129040781Y-87565220D01*
X129145137Y-87599127D01*
X129235465Y-87628477D01*
X129254697Y-87631523D01*
X129437648Y-87660500D01*
X129437649Y-87660500D01*
X129642351Y-87660500D01*
X129642352Y-87660500D01*
X129844534Y-87628477D01*
X130039219Y-87565220D01*
X130221610Y-87472287D01*
X130314590Y-87404732D01*
X130387213Y-87351971D01*
X130387215Y-87351968D01*
X130387219Y-87351966D01*
X130531966Y-87207219D01*
X130531968Y-87207215D01*
X130531971Y-87207213D01*
X130584732Y-87134590D01*
X130652287Y-87041610D01*
X130745220Y-86859219D01*
X130808477Y-86664534D01*
X130840500Y-86462352D01*
X130840500Y-86257648D01*
X130808477Y-86055466D01*
X130745220Y-85860781D01*
X130745218Y-85860778D01*
X130745218Y-85860776D01*
X130711503Y-85794607D01*
X130652287Y-85678390D01*
X130644556Y-85667749D01*
X130531971Y-85512786D01*
X130387213Y-85368028D01*
X130221613Y-85247715D01*
X130221612Y-85247714D01*
X130221610Y-85247713D01*
X130164653Y-85218691D01*
X130039223Y-85154781D01*
X129844534Y-85091522D01*
X129669995Y-85063878D01*
X129642352Y-85059500D01*
X129437648Y-85059500D01*
X129413329Y-85063351D01*
X129235465Y-85091522D01*
X129040776Y-85154781D01*
X128858386Y-85247715D01*
X128692786Y-85368028D01*
X128548028Y-85512786D01*
X128427715Y-85678386D01*
X128334781Y-85860776D01*
X128271522Y-86055465D01*
X128239500Y-86257648D01*
X100000500Y-86257648D01*
X100000500Y-83717648D01*
X133319500Y-83717648D01*
X133319500Y-83922351D01*
X133351522Y-84124534D01*
X133414781Y-84319223D01*
X133466135Y-84420009D01*
X133507585Y-84501359D01*
X133507715Y-84501613D01*
X133628028Y-84667213D01*
X133772786Y-84811971D01*
X133893225Y-84899473D01*
X133938390Y-84932287D01*
X134031080Y-84979515D01*
X134120776Y-85025218D01*
X134120778Y-85025218D01*
X134120781Y-85025220D01*
X134165700Y-85039815D01*
X134315465Y-85088477D01*
X134334697Y-85091523D01*
X134517648Y-85120500D01*
X134517649Y-85120500D01*
X134722351Y-85120500D01*
X134722352Y-85120500D01*
X134924534Y-85088477D01*
X135119219Y-85025220D01*
X135301610Y-84932287D01*
X135430482Y-84838657D01*
X135467213Y-84811971D01*
X135467215Y-84811968D01*
X135467219Y-84811966D01*
X135611966Y-84667219D01*
X135611968Y-84667215D01*
X135611971Y-84667213D01*
X135664732Y-84594590D01*
X135732287Y-84501610D01*
X135825220Y-84319219D01*
X135888477Y-84124534D01*
X135920500Y-83922352D01*
X135920500Y-83717648D01*
X135912257Y-83665606D01*
X135888477Y-83515465D01*
X135857458Y-83420000D01*
X135825220Y-83320781D01*
X135825218Y-83320778D01*
X135825218Y-83320776D01*
X135773865Y-83219991D01*
X135732287Y-83138390D01*
X135700092Y-83094077D01*
X135611971Y-82972786D01*
X135467213Y-82828028D01*
X135301613Y-82707715D01*
X135301612Y-82707714D01*
X135301610Y-82707713D01*
X135241898Y-82677288D01*
X135119223Y-82614781D01*
X134924534Y-82551522D01*
X134749995Y-82523878D01*
X134722352Y-82519500D01*
X134517648Y-82519500D01*
X134493329Y-82523351D01*
X134315465Y-82551522D01*
X134120776Y-82614781D01*
X133938386Y-82707715D01*
X133772786Y-82828028D01*
X133628028Y-82972786D01*
X133507715Y-83138386D01*
X133414781Y-83320776D01*
X133351522Y-83515465D01*
X133319500Y-83717648D01*
X100000500Y-83717648D01*
X100000500Y-81177648D01*
X157944500Y-81177648D01*
X157944500Y-81382351D01*
X157976522Y-81584534D01*
X158039781Y-81779223D01*
X158103691Y-81904653D01*
X158132585Y-81961359D01*
X158132715Y-81961613D01*
X158253028Y-82127213D01*
X158397786Y-82271971D01*
X158518226Y-82359474D01*
X158563390Y-82392287D01*
X158654840Y-82438883D01*
X158656080Y-82439515D01*
X158706876Y-82487490D01*
X158723671Y-82555311D01*
X158701134Y-82621446D01*
X158656080Y-82660485D01*
X158563386Y-82707715D01*
X158397786Y-82828028D01*
X158253028Y-82972786D01*
X158132715Y-83138386D01*
X158039781Y-83320776D01*
X157976522Y-83515465D01*
X157944500Y-83717648D01*
X157944500Y-83922351D01*
X157976522Y-84124534D01*
X158039781Y-84319223D01*
X158091135Y-84420009D01*
X158132585Y-84501359D01*
X158132715Y-84501613D01*
X158253028Y-84667213D01*
X158397786Y-84811971D01*
X158518225Y-84899473D01*
X158563390Y-84932287D01*
X158656080Y-84979515D01*
X158745776Y-85025218D01*
X158745778Y-85025218D01*
X158745781Y-85025220D01*
X158790700Y-85039815D01*
X158940465Y-85088477D01*
X158959697Y-85091523D01*
X159142648Y-85120500D01*
X159142649Y-85120500D01*
X159347351Y-85120500D01*
X159347352Y-85120500D01*
X159549534Y-85088477D01*
X159744219Y-85025220D01*
X159926610Y-84932287D01*
X160055482Y-84838657D01*
X160092213Y-84811971D01*
X160092215Y-84811968D01*
X160092219Y-84811966D01*
X160236966Y-84667219D01*
X160236968Y-84667215D01*
X160236971Y-84667213D01*
X160289732Y-84594590D01*
X160357287Y-84501610D01*
X160450220Y-84319219D01*
X160513477Y-84124534D01*
X160545500Y-83922352D01*
X160545500Y-83717648D01*
X160537257Y-83665606D01*
X160513477Y-83515465D01*
X160482458Y-83420000D01*
X160450220Y-83320781D01*
X160450218Y-83320778D01*
X160450218Y-83320776D01*
X160398865Y-83219991D01*
X160357287Y-83138390D01*
X160325092Y-83094077D01*
X160236971Y-82972786D01*
X160092213Y-82828028D01*
X159926614Y-82707715D01*
X159920006Y-82704348D01*
X159833917Y-82660483D01*
X159783123Y-82612511D01*
X159766328Y-82544690D01*
X159788865Y-82478555D01*
X159833917Y-82439516D01*
X159926610Y-82392287D01*
X159971774Y-82359474D01*
X160092213Y-82271971D01*
X160092215Y-82271968D01*
X160092219Y-82271966D01*
X160236966Y-82127219D01*
X160236968Y-82127215D01*
X160236971Y-82127213D01*
X160289732Y-82054590D01*
X160357287Y-81961610D01*
X160450220Y-81779219D01*
X160513477Y-81584534D01*
X160545500Y-81382352D01*
X160545500Y-81177682D01*
X162945000Y-81177682D01*
X162945000Y-81382317D01*
X162977009Y-81584417D01*
X163040244Y-81779031D01*
X163133141Y-81961350D01*
X163133147Y-81961359D01*
X163165523Y-82005921D01*
X163165524Y-82005922D01*
X163845000Y-81326446D01*
X163845000Y-81332661D01*
X163872259Y-81434394D01*
X163924920Y-81525606D01*
X163999394Y-81600080D01*
X164090606Y-81652741D01*
X164192339Y-81680000D01*
X164198553Y-81680000D01*
X163519076Y-82359474D01*
X163563650Y-82391859D01*
X163657180Y-82439515D01*
X163707976Y-82487489D01*
X163724771Y-82555310D01*
X163702234Y-82621445D01*
X163657180Y-82660485D01*
X163563644Y-82708143D01*
X163519077Y-82740523D01*
X163519077Y-82740524D01*
X164198554Y-83420000D01*
X164192339Y-83420000D01*
X164090606Y-83447259D01*
X163999394Y-83499920D01*
X163924920Y-83574394D01*
X163872259Y-83665606D01*
X163845000Y-83767339D01*
X163845000Y-83773553D01*
X163165524Y-83094077D01*
X163165523Y-83094077D01*
X163133143Y-83138644D01*
X163040244Y-83320968D01*
X162977009Y-83515582D01*
X162945000Y-83717682D01*
X162945000Y-83922317D01*
X162977009Y-84124417D01*
X163040244Y-84319031D01*
X163133141Y-84501350D01*
X163133147Y-84501359D01*
X163165523Y-84545921D01*
X163165524Y-84545922D01*
X163845000Y-83866446D01*
X163845000Y-83872661D01*
X163872259Y-83974394D01*
X163924920Y-84065606D01*
X163999394Y-84140080D01*
X164090606Y-84192741D01*
X164192339Y-84220000D01*
X164198553Y-84220000D01*
X163519076Y-84899474D01*
X163563650Y-84931859D01*
X163745968Y-85024755D01*
X163940582Y-85087990D01*
X164142683Y-85120000D01*
X164212537Y-85120000D01*
X164279576Y-85139685D01*
X164325331Y-85192489D01*
X164335275Y-85261647D01*
X164306250Y-85325203D01*
X164285422Y-85344318D01*
X164252787Y-85368028D01*
X164252782Y-85368032D01*
X164108028Y-85512786D01*
X163987715Y-85678386D01*
X163894781Y-85860776D01*
X163831522Y-86055465D01*
X163799500Y-86257648D01*
X163799500Y-86462351D01*
X163831522Y-86664534D01*
X163894781Y-86859223D01*
X163987715Y-87041613D01*
X164108028Y-87207213D01*
X164252786Y-87351971D01*
X164407749Y-87464556D01*
X164418390Y-87472287D01*
X164511080Y-87519515D01*
X164600776Y-87565218D01*
X164600778Y-87565218D01*
X164600781Y-87565220D01*
X164705137Y-87599127D01*
X164795465Y-87628477D01*
X164814697Y-87631523D01*
X164997648Y-87660500D01*
X164997649Y-87660500D01*
X165202351Y-87660500D01*
X165202352Y-87660500D01*
X165404534Y-87628477D01*
X165599219Y-87565220D01*
X165781610Y-87472287D01*
X165874590Y-87404732D01*
X165947213Y-87351971D01*
X165947215Y-87351968D01*
X165947219Y-87351966D01*
X166091966Y-87207219D01*
X166091968Y-87207215D01*
X166091971Y-87207213D01*
X166144732Y-87134590D01*
X166212287Y-87041610D01*
X166305220Y-86859219D01*
X166368477Y-86664534D01*
X166400500Y-86462352D01*
X166400500Y-86257648D01*
X166368477Y-86055466D01*
X166305220Y-85860781D01*
X166305218Y-85860778D01*
X166305218Y-85860776D01*
X166271503Y-85794607D01*
X166212287Y-85678390D01*
X166204556Y-85667749D01*
X166091971Y-85512786D01*
X165947213Y-85368028D01*
X165781613Y-85247715D01*
X165781612Y-85247714D01*
X165781610Y-85247713D01*
X165724653Y-85218691D01*
X165599223Y-85154781D01*
X165404534Y-85091522D01*
X165229995Y-85063878D01*
X165202352Y-85059500D01*
X165092470Y-85059500D01*
X165025431Y-85039815D01*
X164979676Y-84987011D01*
X164968852Y-84925771D01*
X164970921Y-84899473D01*
X164291447Y-84220000D01*
X164297661Y-84220000D01*
X164399394Y-84192741D01*
X164490606Y-84140080D01*
X164565080Y-84065606D01*
X164617741Y-83974394D01*
X164645000Y-83872661D01*
X164645000Y-83866448D01*
X165324474Y-84545922D01*
X165324474Y-84545921D01*
X165356859Y-84501349D01*
X165449755Y-84319031D01*
X165512990Y-84124417D01*
X165545000Y-83922317D01*
X165545000Y-83717682D01*
X165512990Y-83515582D01*
X165449755Y-83320968D01*
X165356859Y-83138650D01*
X165324474Y-83094077D01*
X165324474Y-83094076D01*
X164645000Y-83773551D01*
X164645000Y-83767339D01*
X164617741Y-83665606D01*
X164565080Y-83574394D01*
X164490606Y-83499920D01*
X164399394Y-83447259D01*
X164297661Y-83420000D01*
X164291446Y-83420000D01*
X164970922Y-82740524D01*
X164970921Y-82740523D01*
X164926359Y-82708147D01*
X164926350Y-82708141D01*
X164832819Y-82660485D01*
X164782023Y-82612511D01*
X164765228Y-82544690D01*
X164787765Y-82478555D01*
X164832820Y-82439515D01*
X164926346Y-82391861D01*
X164926347Y-82391861D01*
X164970921Y-82359474D01*
X164291447Y-81680000D01*
X164297661Y-81680000D01*
X164399394Y-81652741D01*
X164490606Y-81600080D01*
X164565080Y-81525606D01*
X164617741Y-81434394D01*
X164645000Y-81332661D01*
X164645000Y-81326448D01*
X165324474Y-82005922D01*
X165324474Y-82005921D01*
X165356859Y-81961349D01*
X165449755Y-81779031D01*
X165512990Y-81584417D01*
X165545000Y-81382317D01*
X165545000Y-81177682D01*
X165512990Y-80975582D01*
X165449755Y-80780968D01*
X165356859Y-80598650D01*
X165324474Y-80554077D01*
X165324474Y-80554076D01*
X164645000Y-81233551D01*
X164645000Y-81227339D01*
X164617741Y-81125606D01*
X164565080Y-81034394D01*
X164490606Y-80959920D01*
X164399394Y-80907259D01*
X164297661Y-80880000D01*
X164291446Y-80880000D01*
X164970922Y-80200524D01*
X164970921Y-80200523D01*
X164926359Y-80168147D01*
X164926350Y-80168141D01*
X164744031Y-80075244D01*
X164549417Y-80012009D01*
X164347317Y-79980000D01*
X164142683Y-79980000D01*
X163940582Y-80012009D01*
X163745968Y-80075244D01*
X163563644Y-80168143D01*
X163519077Y-80200523D01*
X163519077Y-80200524D01*
X164198554Y-80880000D01*
X164192339Y-80880000D01*
X164090606Y-80907259D01*
X163999394Y-80959920D01*
X163924920Y-81034394D01*
X163872259Y-81125606D01*
X163845000Y-81227339D01*
X163845000Y-81233553D01*
X163165524Y-80554077D01*
X163165523Y-80554077D01*
X163133143Y-80598644D01*
X163040244Y-80780968D01*
X162977009Y-80975582D01*
X162945000Y-81177682D01*
X160545500Y-81177682D01*
X160545500Y-81177648D01*
X160537257Y-81125606D01*
X160513477Y-80975465D01*
X160482458Y-80880000D01*
X160450220Y-80780781D01*
X160450218Y-80780778D01*
X160450218Y-80780776D01*
X160357419Y-80598650D01*
X160357287Y-80598390D01*
X160325092Y-80554077D01*
X160236971Y-80432786D01*
X160092213Y-80288028D01*
X159926613Y-80167715D01*
X159926612Y-80167714D01*
X159926610Y-80167713D01*
X159869653Y-80138691D01*
X159744223Y-80074781D01*
X159549534Y-80011522D01*
X159374995Y-79983878D01*
X159347352Y-79979500D01*
X159142648Y-79979500D01*
X159118329Y-79983351D01*
X158940465Y-80011522D01*
X158745776Y-80074781D01*
X158563386Y-80167715D01*
X158397786Y-80288028D01*
X158253028Y-80432786D01*
X158132715Y-80598386D01*
X158039781Y-80780776D01*
X157976522Y-80975465D01*
X157944500Y-81177648D01*
X100000500Y-81177648D01*
X100000500Y-76093713D01*
X155314500Y-76093713D01*
X155314500Y-76306286D01*
X155347753Y-76516239D01*
X155413444Y-76718414D01*
X155509951Y-76907820D01*
X155634890Y-77079786D01*
X155785213Y-77230109D01*
X155957179Y-77355048D01*
X155957181Y-77355049D01*
X155957184Y-77355051D01*
X156146588Y-77451557D01*
X156348757Y-77517246D01*
X156558713Y-77550500D01*
X156558714Y-77550500D01*
X156771286Y-77550500D01*
X156771287Y-77550500D01*
X156981243Y-77517246D01*
X157183412Y-77451557D01*
X157372816Y-77355051D01*
X157459138Y-77292335D01*
X157544786Y-77230109D01*
X157544788Y-77230106D01*
X157544792Y-77230104D01*
X157695104Y-77079792D01*
X157695106Y-77079788D01*
X157695109Y-77079786D01*
X157820048Y-76907820D01*
X157820047Y-76907820D01*
X157820051Y-76907816D01*
X157824514Y-76899054D01*
X157872488Y-76848259D01*
X157940308Y-76831463D01*
X158006444Y-76853999D01*
X158045486Y-76899056D01*
X158049951Y-76907820D01*
X158174890Y-77079786D01*
X158325213Y-77230109D01*
X158497179Y-77355048D01*
X158497181Y-77355049D01*
X158497184Y-77355051D01*
X158686588Y-77451557D01*
X158888757Y-77517246D01*
X159098713Y-77550500D01*
X159098714Y-77550500D01*
X159311286Y-77550500D01*
X159311287Y-77550500D01*
X159521243Y-77517246D01*
X159723412Y-77451557D01*
X159912816Y-77355051D01*
X160084792Y-77230104D01*
X160198329Y-77116566D01*
X160259648Y-77083084D01*
X160329340Y-77088068D01*
X160385274Y-77129939D01*
X160402189Y-77160917D01*
X160451202Y-77292328D01*
X160451206Y-77292335D01*
X160537452Y-77407544D01*
X160537455Y-77407547D01*
X160652664Y-77493793D01*
X160652671Y-77493797D01*
X160787517Y-77544091D01*
X160787516Y-77544091D01*
X160794444Y-77544835D01*
X160847127Y-77550500D01*
X162642872Y-77550499D01*
X162702483Y-77544091D01*
X162837331Y-77493796D01*
X162952546Y-77407546D01*
X163038796Y-77292331D01*
X163089091Y-77157483D01*
X163095500Y-77097873D01*
X163095499Y-75302128D01*
X163089091Y-75242517D01*
X163087810Y-75239083D01*
X163038797Y-75107671D01*
X163038793Y-75107664D01*
X162952547Y-74992455D01*
X162952544Y-74992452D01*
X162837335Y-74906206D01*
X162837328Y-74906202D01*
X162702482Y-74855908D01*
X162702483Y-74855908D01*
X162642883Y-74849501D01*
X162642881Y-74849500D01*
X162642873Y-74849500D01*
X162642864Y-74849500D01*
X160847129Y-74849500D01*
X160847123Y-74849501D01*
X160787516Y-74855908D01*
X160652671Y-74906202D01*
X160652664Y-74906206D01*
X160537455Y-74992452D01*
X160537452Y-74992455D01*
X160451206Y-75107664D01*
X160451203Y-75107669D01*
X160402189Y-75239083D01*
X160360317Y-75295016D01*
X160294853Y-75319433D01*
X160226580Y-75304581D01*
X160198326Y-75283430D01*
X160084786Y-75169890D01*
X159912820Y-75044951D01*
X159723414Y-74948444D01*
X159723413Y-74948443D01*
X159723412Y-74948443D01*
X159521243Y-74882754D01*
X159521241Y-74882753D01*
X159521240Y-74882753D01*
X159359957Y-74857208D01*
X159311287Y-74849500D01*
X159098713Y-74849500D01*
X159050042Y-74857208D01*
X158888760Y-74882753D01*
X158686585Y-74948444D01*
X158497179Y-75044951D01*
X158325213Y-75169890D01*
X158174890Y-75320213D01*
X158049949Y-75492182D01*
X158045484Y-75500946D01*
X157997509Y-75551742D01*
X157929688Y-75568536D01*
X157863553Y-75545998D01*
X157824516Y-75500946D01*
X157820050Y-75492182D01*
X157695109Y-75320213D01*
X157544786Y-75169890D01*
X157372820Y-75044951D01*
X157183414Y-74948444D01*
X157183413Y-74948443D01*
X157183412Y-74948443D01*
X156981243Y-74882754D01*
X156981241Y-74882753D01*
X156981240Y-74882753D01*
X156819957Y-74857208D01*
X156771287Y-74849500D01*
X156558713Y-74849500D01*
X156510042Y-74857208D01*
X156348760Y-74882753D01*
X156146585Y-74948444D01*
X155957179Y-75044951D01*
X155785213Y-75169890D01*
X155634890Y-75320213D01*
X155509951Y-75492179D01*
X155413444Y-75681585D01*
X155347753Y-75883760D01*
X155314500Y-76093713D01*
X100000500Y-76093713D01*
X100000500Y-71013713D01*
X155314500Y-71013713D01*
X155314500Y-71226286D01*
X155347753Y-71436239D01*
X155413444Y-71638414D01*
X155509951Y-71827820D01*
X155634890Y-71999786D01*
X155785213Y-72150109D01*
X155957179Y-72275048D01*
X155957181Y-72275049D01*
X155957184Y-72275051D01*
X156146588Y-72371557D01*
X156348757Y-72437246D01*
X156558713Y-72470500D01*
X156558714Y-72470500D01*
X156771286Y-72470500D01*
X156771287Y-72470500D01*
X156981243Y-72437246D01*
X157183412Y-72371557D01*
X157372816Y-72275051D01*
X157459138Y-72212335D01*
X157544786Y-72150109D01*
X157544788Y-72150106D01*
X157544792Y-72150104D01*
X157695104Y-71999792D01*
X157695106Y-71999788D01*
X157695109Y-71999786D01*
X157820048Y-71827820D01*
X157820047Y-71827820D01*
X157820051Y-71827816D01*
X157824514Y-71819054D01*
X157872488Y-71768259D01*
X157940308Y-71751463D01*
X158006444Y-71773999D01*
X158045486Y-71819056D01*
X158049951Y-71827820D01*
X158174890Y-71999786D01*
X158325213Y-72150109D01*
X158497179Y-72275048D01*
X158497181Y-72275049D01*
X158497184Y-72275051D01*
X158686588Y-72371557D01*
X158888757Y-72437246D01*
X159098713Y-72470500D01*
X159098714Y-72470500D01*
X159311286Y-72470500D01*
X159311287Y-72470500D01*
X159521243Y-72437246D01*
X159723412Y-72371557D01*
X159912816Y-72275051D01*
X160084792Y-72150104D01*
X160198329Y-72036566D01*
X160259648Y-72003084D01*
X160329340Y-72008068D01*
X160385274Y-72049939D01*
X160402189Y-72080917D01*
X160451202Y-72212328D01*
X160451206Y-72212335D01*
X160537452Y-72327544D01*
X160537455Y-72327547D01*
X160652664Y-72413793D01*
X160652671Y-72413797D01*
X160787517Y-72464091D01*
X160787516Y-72464091D01*
X160794444Y-72464835D01*
X160847127Y-72470500D01*
X162642872Y-72470499D01*
X162702483Y-72464091D01*
X162837331Y-72413796D01*
X162952546Y-72327546D01*
X163038796Y-72212331D01*
X163089091Y-72077483D01*
X163095500Y-72017873D01*
X163095499Y-70222128D01*
X163089091Y-70162517D01*
X163087810Y-70159083D01*
X163038797Y-70027671D01*
X163038793Y-70027664D01*
X162952547Y-69912455D01*
X162952544Y-69912452D01*
X162837335Y-69826206D01*
X162837328Y-69826202D01*
X162702482Y-69775908D01*
X162702483Y-69775908D01*
X162642883Y-69769501D01*
X162642881Y-69769500D01*
X162642873Y-69769500D01*
X162642864Y-69769500D01*
X160847129Y-69769500D01*
X160847123Y-69769501D01*
X160787516Y-69775908D01*
X160652671Y-69826202D01*
X160652664Y-69826206D01*
X160537455Y-69912452D01*
X160537452Y-69912455D01*
X160451206Y-70027664D01*
X160451203Y-70027669D01*
X160402189Y-70159083D01*
X160360317Y-70215016D01*
X160294853Y-70239433D01*
X160226580Y-70224581D01*
X160198326Y-70203430D01*
X160084786Y-70089890D01*
X159912820Y-69964951D01*
X159723414Y-69868444D01*
X159723413Y-69868443D01*
X159723412Y-69868443D01*
X159521243Y-69802754D01*
X159521241Y-69802753D01*
X159521240Y-69802753D01*
X159359957Y-69777208D01*
X159311287Y-69769500D01*
X159098713Y-69769500D01*
X159050042Y-69777208D01*
X158888760Y-69802753D01*
X158686585Y-69868444D01*
X158497179Y-69964951D01*
X158325213Y-70089890D01*
X158174890Y-70240213D01*
X158049949Y-70412182D01*
X158045484Y-70420946D01*
X157997509Y-70471742D01*
X157929688Y-70488536D01*
X157863553Y-70465998D01*
X157824516Y-70420946D01*
X157820050Y-70412182D01*
X157695109Y-70240213D01*
X157544786Y-70089890D01*
X157372820Y-69964951D01*
X157183414Y-69868444D01*
X157183413Y-69868443D01*
X157183412Y-69868443D01*
X156981243Y-69802754D01*
X156981241Y-69802753D01*
X156981240Y-69802753D01*
X156819957Y-69777208D01*
X156771287Y-69769500D01*
X156558713Y-69769500D01*
X156510042Y-69777208D01*
X156348760Y-69802753D01*
X156146585Y-69868444D01*
X155957179Y-69964951D01*
X155785213Y-70089890D01*
X155634890Y-70240213D01*
X155509951Y-70412179D01*
X155413444Y-70601585D01*
X155347753Y-70803760D01*
X155314500Y-71013713D01*
X100000500Y-71013713D01*
X100000500Y-64878711D01*
X108149500Y-64878711D01*
X108149500Y-65121288D01*
X108181161Y-65361785D01*
X108243947Y-65596104D01*
X108336773Y-65820205D01*
X108336776Y-65820212D01*
X108458064Y-66030289D01*
X108458066Y-66030292D01*
X108458067Y-66030293D01*
X108605733Y-66222736D01*
X108605739Y-66222743D01*
X108777256Y-66394260D01*
X108777262Y-66394265D01*
X108969711Y-66541936D01*
X109179788Y-66663224D01*
X109403900Y-66756054D01*
X109638211Y-66818838D01*
X109818586Y-66842584D01*
X109878711Y-66850500D01*
X109878712Y-66850500D01*
X110121289Y-66850500D01*
X110169388Y-66844167D01*
X110361789Y-66818838D01*
X110596100Y-66756054D01*
X110820212Y-66663224D01*
X111030289Y-66541936D01*
X111222738Y-66394265D01*
X111394265Y-66222738D01*
X111541936Y-66030289D01*
X111663224Y-65820212D01*
X111756054Y-65596100D01*
X111818838Y-65361789D01*
X111850500Y-65121288D01*
X111850500Y-64878712D01*
X111850500Y-64878711D01*
X188149500Y-64878711D01*
X188149500Y-65121288D01*
X188181161Y-65361785D01*
X188243947Y-65596104D01*
X188336773Y-65820205D01*
X188336776Y-65820212D01*
X188458064Y-66030289D01*
X188458066Y-66030292D01*
X188458067Y-66030293D01*
X188605733Y-66222736D01*
X188605739Y-66222743D01*
X188777256Y-66394260D01*
X188777262Y-66394265D01*
X188969711Y-66541936D01*
X189179788Y-66663224D01*
X189403900Y-66756054D01*
X189638211Y-66818838D01*
X189818586Y-66842584D01*
X189878711Y-66850500D01*
X189878712Y-66850500D01*
X190121289Y-66850500D01*
X190169388Y-66844167D01*
X190361789Y-66818838D01*
X190596100Y-66756054D01*
X190820212Y-66663224D01*
X191030289Y-66541936D01*
X191222738Y-66394265D01*
X191394265Y-66222738D01*
X191541936Y-66030289D01*
X191663224Y-65820212D01*
X191756054Y-65596100D01*
X191818838Y-65361789D01*
X191850500Y-65121288D01*
X191850500Y-64878712D01*
X191818838Y-64638211D01*
X191756054Y-64403900D01*
X191663224Y-64179788D01*
X191541936Y-63969711D01*
X191394265Y-63777262D01*
X191394260Y-63777256D01*
X191222743Y-63605739D01*
X191222736Y-63605733D01*
X191030293Y-63458067D01*
X191030292Y-63458066D01*
X191030289Y-63458064D01*
X190820212Y-63336776D01*
X190820205Y-63336773D01*
X190596104Y-63243947D01*
X190361785Y-63181161D01*
X190121289Y-63149500D01*
X190121288Y-63149500D01*
X189878712Y-63149500D01*
X189878711Y-63149500D01*
X189638214Y-63181161D01*
X189403895Y-63243947D01*
X189179794Y-63336773D01*
X189179785Y-63336777D01*
X188969706Y-63458067D01*
X188777263Y-63605733D01*
X188777256Y-63605739D01*
X188605739Y-63777256D01*
X188605733Y-63777263D01*
X188458067Y-63969706D01*
X188336777Y-64179785D01*
X188336773Y-64179794D01*
X188243947Y-64403895D01*
X188181161Y-64638214D01*
X188149500Y-64878711D01*
X111850500Y-64878711D01*
X111818838Y-64638211D01*
X111756054Y-64403900D01*
X111663224Y-64179788D01*
X111541936Y-63969711D01*
X111394265Y-63777262D01*
X111394260Y-63777256D01*
X111222743Y-63605739D01*
X111222736Y-63605733D01*
X111030293Y-63458067D01*
X111030292Y-63458066D01*
X111030289Y-63458064D01*
X110820212Y-63336776D01*
X110820205Y-63336773D01*
X110596104Y-63243947D01*
X110361785Y-63181161D01*
X110121289Y-63149500D01*
X110121288Y-63149500D01*
X109878712Y-63149500D01*
X109878711Y-63149500D01*
X109638214Y-63181161D01*
X109403895Y-63243947D01*
X109179794Y-63336773D01*
X109179785Y-63336777D01*
X108969706Y-63458067D01*
X108777263Y-63605733D01*
X108777256Y-63605739D01*
X108605739Y-63777256D01*
X108605733Y-63777263D01*
X108458067Y-63969706D01*
X108336777Y-64179785D01*
X108336773Y-64179794D01*
X108243947Y-64403895D01*
X108181161Y-64638214D01*
X108149500Y-64878711D01*
X100000500Y-64878711D01*
X100000500Y-55049977D01*
X106484500Y-55049977D01*
X106484500Y-55950022D01*
X106523523Y-56146203D01*
X106523526Y-56146215D01*
X106600071Y-56331013D01*
X106600078Y-56331026D01*
X106711208Y-56497343D01*
X106711211Y-56497347D01*
X106852652Y-56638788D01*
X106852656Y-56638791D01*
X107018973Y-56749921D01*
X107018986Y-56749928D01*
X107202625Y-56825993D01*
X107203789Y-56826475D01*
X107347185Y-56854998D01*
X107399977Y-56865499D01*
X107399981Y-56865500D01*
X107399982Y-56865500D01*
X107600019Y-56865500D01*
X107600020Y-56865499D01*
X107796211Y-56826475D01*
X107981020Y-56749925D01*
X108147344Y-56638791D01*
X108162318Y-56623816D01*
X108223639Y-56590331D01*
X108293331Y-56595314D01*
X108337681Y-56623816D01*
X108352264Y-56638399D01*
X108352657Y-56638792D01*
X108518973Y-56749921D01*
X108518986Y-56749928D01*
X108702625Y-56825993D01*
X108703789Y-56826475D01*
X108847185Y-56854998D01*
X108899977Y-56865499D01*
X108899981Y-56865500D01*
X108899982Y-56865500D01*
X109100019Y-56865500D01*
X109100020Y-56865499D01*
X109296211Y-56826475D01*
X109481020Y-56749925D01*
X109647344Y-56638791D01*
X109662671Y-56623463D01*
X109723989Y-56589978D01*
X109793681Y-56594959D01*
X109838034Y-56623462D01*
X109852971Y-56638399D01*
X109852975Y-56638402D01*
X110019210Y-56749477D01*
X110019223Y-56749484D01*
X110203929Y-56825991D01*
X110203936Y-56825993D01*
X110250000Y-56835155D01*
X110250000Y-55766189D01*
X110275884Y-55792073D01*
X110359115Y-55840126D01*
X110451947Y-55865000D01*
X110548053Y-55865000D01*
X110640885Y-55840126D01*
X110724116Y-55792073D01*
X110750000Y-55766189D01*
X110750000Y-56835154D01*
X110796063Y-56825993D01*
X110796070Y-56825991D01*
X110980776Y-56749484D01*
X110980789Y-56749477D01*
X111147023Y-56638403D01*
X111161962Y-56623464D01*
X111223285Y-56589977D01*
X111292977Y-56594960D01*
X111337329Y-56623464D01*
X111352653Y-56638789D01*
X111352656Y-56638791D01*
X111518973Y-56749921D01*
X111518986Y-56749928D01*
X111702625Y-56825993D01*
X111703789Y-56826475D01*
X111847185Y-56854998D01*
X111899977Y-56865499D01*
X111899981Y-56865500D01*
X111899982Y-56865500D01*
X112100019Y-56865500D01*
X112100020Y-56865499D01*
X112296211Y-56826475D01*
X112481020Y-56749925D01*
X112647344Y-56638791D01*
X112662318Y-56623816D01*
X112723639Y-56590331D01*
X112793331Y-56595314D01*
X112837681Y-56623816D01*
X112852264Y-56638399D01*
X112852657Y-56638792D01*
X113018973Y-56749921D01*
X113018986Y-56749928D01*
X113202625Y-56825993D01*
X113203789Y-56826475D01*
X113347185Y-56854998D01*
X113399977Y-56865499D01*
X113399981Y-56865500D01*
X113399982Y-56865500D01*
X113600019Y-56865500D01*
X113600020Y-56865499D01*
X113796211Y-56826475D01*
X113981020Y-56749925D01*
X114147344Y-56638791D01*
X114162318Y-56623816D01*
X114223639Y-56590331D01*
X114293331Y-56595314D01*
X114337681Y-56623816D01*
X114352264Y-56638399D01*
X114352657Y-56638792D01*
X114518973Y-56749921D01*
X114518986Y-56749928D01*
X114702625Y-56825993D01*
X114703789Y-56826475D01*
X114847185Y-56854998D01*
X114899977Y-56865499D01*
X114899981Y-56865500D01*
X114899982Y-56865500D01*
X115100019Y-56865500D01*
X115100020Y-56865499D01*
X115296211Y-56826475D01*
X115481020Y-56749925D01*
X115647344Y-56638791D01*
X115662318Y-56623816D01*
X115723639Y-56590331D01*
X115793331Y-56595314D01*
X115837681Y-56623816D01*
X115852264Y-56638399D01*
X115852657Y-56638792D01*
X116018973Y-56749921D01*
X116018986Y-56749928D01*
X116202625Y-56825993D01*
X116203789Y-56826475D01*
X116347185Y-56854998D01*
X116399977Y-56865499D01*
X116399981Y-56865500D01*
X116399982Y-56865500D01*
X116600019Y-56865500D01*
X116600020Y-56865499D01*
X116796211Y-56826475D01*
X116981020Y-56749925D01*
X117147344Y-56638791D01*
X117162671Y-56623463D01*
X117223989Y-56589978D01*
X117293681Y-56594959D01*
X117338034Y-56623462D01*
X117352971Y-56638399D01*
X117352975Y-56638402D01*
X117519210Y-56749477D01*
X117519223Y-56749484D01*
X117703929Y-56825991D01*
X117703936Y-56825993D01*
X117750000Y-56835155D01*
X117750000Y-55766189D01*
X117775884Y-55792073D01*
X117859115Y-55840126D01*
X117951947Y-55865000D01*
X118048053Y-55865000D01*
X118140885Y-55840126D01*
X118224116Y-55792073D01*
X118250000Y-55766189D01*
X118250000Y-56835154D01*
X118296063Y-56825993D01*
X118296070Y-56825991D01*
X118480776Y-56749484D01*
X118480789Y-56749477D01*
X118647023Y-56638403D01*
X118661962Y-56623464D01*
X118723285Y-56589977D01*
X118792977Y-56594960D01*
X118837329Y-56623464D01*
X118852653Y-56638789D01*
X118852656Y-56638791D01*
X119018973Y-56749921D01*
X119018986Y-56749928D01*
X119202625Y-56825993D01*
X119203789Y-56826475D01*
X119347185Y-56854998D01*
X119399977Y-56865499D01*
X119399981Y-56865500D01*
X119399982Y-56865500D01*
X119600019Y-56865500D01*
X119600020Y-56865499D01*
X119796211Y-56826475D01*
X119981020Y-56749925D01*
X120092751Y-56675268D01*
X120159427Y-56654391D01*
X120226807Y-56672875D01*
X120249322Y-56690690D01*
X120266344Y-56707712D01*
X120415666Y-56799814D01*
X120582203Y-56854999D01*
X120684991Y-56865500D01*
X121315008Y-56865499D01*
X121315016Y-56865498D01*
X121315019Y-56865498D01*
X121371302Y-56859748D01*
X121417797Y-56854999D01*
X121584334Y-56799814D01*
X121733656Y-56707712D01*
X121857712Y-56583656D01*
X121949814Y-56434334D01*
X122004999Y-56267797D01*
X122015500Y-56165009D01*
X122015499Y-55049977D01*
X126484500Y-55049977D01*
X126484500Y-55950022D01*
X126523523Y-56146203D01*
X126523526Y-56146215D01*
X126600071Y-56331013D01*
X126600078Y-56331026D01*
X126711208Y-56497343D01*
X126711211Y-56497347D01*
X126852652Y-56638788D01*
X126852656Y-56638791D01*
X127018973Y-56749921D01*
X127018986Y-56749928D01*
X127202625Y-56825993D01*
X127203789Y-56826475D01*
X127347185Y-56854998D01*
X127399977Y-56865499D01*
X127399981Y-56865500D01*
X127399982Y-56865500D01*
X127600019Y-56865500D01*
X127600020Y-56865499D01*
X127796211Y-56826475D01*
X127981020Y-56749925D01*
X128147344Y-56638791D01*
X128162318Y-56623816D01*
X128223639Y-56590331D01*
X128293331Y-56595314D01*
X128337681Y-56623816D01*
X128352264Y-56638399D01*
X128352657Y-56638792D01*
X128518973Y-56749921D01*
X128518986Y-56749928D01*
X128702625Y-56825993D01*
X128703789Y-56826475D01*
X128847185Y-56854998D01*
X128899977Y-56865499D01*
X128899981Y-56865500D01*
X128899982Y-56865500D01*
X129100019Y-56865500D01*
X129100020Y-56865499D01*
X129296211Y-56826475D01*
X129481020Y-56749925D01*
X129647344Y-56638791D01*
X129662671Y-56623463D01*
X129723989Y-56589978D01*
X129793681Y-56594959D01*
X129838034Y-56623462D01*
X129852971Y-56638399D01*
X129852975Y-56638402D01*
X130019210Y-56749477D01*
X130019223Y-56749484D01*
X130203929Y-56825991D01*
X130203936Y-56825993D01*
X130250000Y-56835155D01*
X130250000Y-55766189D01*
X130275884Y-55792073D01*
X130359115Y-55840126D01*
X130451947Y-55865000D01*
X130548053Y-55865000D01*
X130640885Y-55840126D01*
X130724116Y-55792073D01*
X130750000Y-55766189D01*
X130750000Y-56835154D01*
X130796063Y-56825993D01*
X130796070Y-56825991D01*
X130980776Y-56749484D01*
X130980789Y-56749477D01*
X131147023Y-56638403D01*
X131161962Y-56623464D01*
X131223285Y-56589977D01*
X131292977Y-56594960D01*
X131337329Y-56623464D01*
X131352653Y-56638789D01*
X131352656Y-56638791D01*
X131518973Y-56749921D01*
X131518986Y-56749928D01*
X131702625Y-56825993D01*
X131703789Y-56826475D01*
X131847185Y-56854998D01*
X131899977Y-56865499D01*
X131899981Y-56865500D01*
X131899982Y-56865500D01*
X132100019Y-56865500D01*
X132100020Y-56865499D01*
X132296211Y-56826475D01*
X132481020Y-56749925D01*
X132647344Y-56638791D01*
X132662318Y-56623816D01*
X132723639Y-56590331D01*
X132793331Y-56595314D01*
X132837681Y-56623816D01*
X132852264Y-56638399D01*
X132852657Y-56638792D01*
X133018973Y-56749921D01*
X133018986Y-56749928D01*
X133202625Y-56825993D01*
X133203789Y-56826475D01*
X133347185Y-56854998D01*
X133399977Y-56865499D01*
X133399981Y-56865500D01*
X133399982Y-56865500D01*
X133600019Y-56865500D01*
X133600020Y-56865499D01*
X133796211Y-56826475D01*
X133981020Y-56749925D01*
X134147344Y-56638791D01*
X134162318Y-56623816D01*
X134223639Y-56590331D01*
X134293331Y-56595314D01*
X134337681Y-56623816D01*
X134352264Y-56638399D01*
X134352657Y-56638792D01*
X134518973Y-56749921D01*
X134518986Y-56749928D01*
X134702625Y-56825993D01*
X134703789Y-56826475D01*
X134847185Y-56854998D01*
X134899977Y-56865499D01*
X134899981Y-56865500D01*
X134899982Y-56865500D01*
X135100019Y-56865500D01*
X135100020Y-56865499D01*
X135296211Y-56826475D01*
X135481020Y-56749925D01*
X135647344Y-56638791D01*
X135662318Y-56623816D01*
X135723639Y-56590331D01*
X135793331Y-56595314D01*
X135837681Y-56623816D01*
X135852264Y-56638399D01*
X135852657Y-56638792D01*
X136018973Y-56749921D01*
X136018986Y-56749928D01*
X136202625Y-56825993D01*
X136203789Y-56826475D01*
X136347185Y-56854998D01*
X136399977Y-56865499D01*
X136399981Y-56865500D01*
X136399982Y-56865500D01*
X136600019Y-56865500D01*
X136600020Y-56865499D01*
X136796211Y-56826475D01*
X136981020Y-56749925D01*
X137147344Y-56638791D01*
X137162671Y-56623463D01*
X137223989Y-56589978D01*
X137293681Y-56594959D01*
X137338034Y-56623462D01*
X137352971Y-56638399D01*
X137352975Y-56638402D01*
X137519210Y-56749477D01*
X137519223Y-56749484D01*
X137703929Y-56825991D01*
X137703936Y-56825993D01*
X137750000Y-56835155D01*
X137750000Y-55766189D01*
X137775884Y-55792073D01*
X137859115Y-55840126D01*
X137951947Y-55865000D01*
X138048053Y-55865000D01*
X138140885Y-55840126D01*
X138224116Y-55792073D01*
X138250000Y-55766189D01*
X138250000Y-56835154D01*
X138296063Y-56825993D01*
X138296070Y-56825991D01*
X138480776Y-56749484D01*
X138480789Y-56749477D01*
X138647023Y-56638403D01*
X138661962Y-56623464D01*
X138723285Y-56589977D01*
X138792977Y-56594960D01*
X138837329Y-56623464D01*
X138852653Y-56638789D01*
X138852656Y-56638791D01*
X139018973Y-56749921D01*
X139018986Y-56749928D01*
X139202625Y-56825993D01*
X139203789Y-56826475D01*
X139347185Y-56854998D01*
X139399977Y-56865499D01*
X139399981Y-56865500D01*
X139399982Y-56865500D01*
X139600019Y-56865500D01*
X139600020Y-56865499D01*
X139796211Y-56826475D01*
X139981020Y-56749925D01*
X140092751Y-56675268D01*
X140159427Y-56654391D01*
X140226807Y-56672875D01*
X140249322Y-56690690D01*
X140266344Y-56707712D01*
X140415666Y-56799814D01*
X140582203Y-56854999D01*
X140684991Y-56865500D01*
X141315008Y-56865499D01*
X141315016Y-56865498D01*
X141315019Y-56865498D01*
X141371302Y-56859748D01*
X141417797Y-56854999D01*
X141584334Y-56799814D01*
X141733656Y-56707712D01*
X141857712Y-56583656D01*
X141949814Y-56434334D01*
X142004999Y-56267797D01*
X142015500Y-56165009D01*
X142015499Y-54834992D01*
X142004999Y-54732203D01*
X141949814Y-54565666D01*
X141857712Y-54416344D01*
X141733656Y-54292288D01*
X141584334Y-54200186D01*
X141417797Y-54145001D01*
X141417795Y-54145000D01*
X141315010Y-54134500D01*
X140684998Y-54134500D01*
X140684980Y-54134501D01*
X140582203Y-54145000D01*
X140582200Y-54145001D01*
X140415668Y-54200185D01*
X140415663Y-54200187D01*
X140334789Y-54250071D01*
X140266344Y-54292288D01*
X140266342Y-54292289D01*
X140266337Y-54292293D01*
X140249317Y-54309312D01*
X140187993Y-54342794D01*
X140118301Y-54337807D01*
X140092749Y-54324729D01*
X139981026Y-54250078D01*
X139981013Y-54250071D01*
X139796215Y-54173526D01*
X139796203Y-54173523D01*
X139600022Y-54134500D01*
X139600018Y-54134500D01*
X139399982Y-54134500D01*
X139399977Y-54134500D01*
X139203796Y-54173523D01*
X139203784Y-54173526D01*
X139018986Y-54250071D01*
X139018973Y-54250078D01*
X138852656Y-54361208D01*
X138852652Y-54361211D01*
X138837327Y-54376537D01*
X138776004Y-54410022D01*
X138706312Y-54405038D01*
X138661965Y-54376537D01*
X138647028Y-54361600D01*
X138647024Y-54361597D01*
X138480789Y-54250522D01*
X138480780Y-54250517D01*
X138296065Y-54174006D01*
X138296057Y-54174004D01*
X138250000Y-54164842D01*
X138250000Y-55233811D01*
X138224116Y-55207927D01*
X138140885Y-55159874D01*
X138048053Y-55135000D01*
X137951947Y-55135000D01*
X137859115Y-55159874D01*
X137775884Y-55207927D01*
X137750000Y-55233811D01*
X137750000Y-54164843D01*
X137749999Y-54164842D01*
X137703942Y-54174004D01*
X137703934Y-54174006D01*
X137519219Y-54250517D01*
X137519210Y-54250522D01*
X137352975Y-54361597D01*
X137338032Y-54376540D01*
X137276708Y-54410023D01*
X137207016Y-54405037D01*
X137162670Y-54376535D01*
X137147346Y-54361210D01*
X137147343Y-54361208D01*
X136981026Y-54250078D01*
X136981013Y-54250071D01*
X136796215Y-54173526D01*
X136796203Y-54173523D01*
X136600022Y-54134500D01*
X136600018Y-54134500D01*
X136399982Y-54134500D01*
X136399977Y-54134500D01*
X136203796Y-54173523D01*
X136203784Y-54173526D01*
X136018986Y-54250071D01*
X136018973Y-54250078D01*
X135852656Y-54361208D01*
X135852652Y-54361211D01*
X135837681Y-54376183D01*
X135776358Y-54409668D01*
X135706666Y-54404684D01*
X135662319Y-54376183D01*
X135647347Y-54361211D01*
X135647343Y-54361208D01*
X135481026Y-54250078D01*
X135481013Y-54250071D01*
X135296215Y-54173526D01*
X135296203Y-54173523D01*
X135100022Y-54134500D01*
X135100018Y-54134500D01*
X134899982Y-54134500D01*
X134899977Y-54134500D01*
X134703796Y-54173523D01*
X134703784Y-54173526D01*
X134518986Y-54250071D01*
X134518973Y-54250078D01*
X134352656Y-54361208D01*
X134352652Y-54361211D01*
X134337681Y-54376183D01*
X134276358Y-54409668D01*
X134206666Y-54404684D01*
X134162319Y-54376183D01*
X134147347Y-54361211D01*
X134147343Y-54361208D01*
X133981026Y-54250078D01*
X133981013Y-54250071D01*
X133796215Y-54173526D01*
X133796203Y-54173523D01*
X133600022Y-54134500D01*
X133600018Y-54134500D01*
X133399982Y-54134500D01*
X133399977Y-54134500D01*
X133203796Y-54173523D01*
X133203784Y-54173526D01*
X133018986Y-54250071D01*
X133018973Y-54250078D01*
X132852656Y-54361208D01*
X132852652Y-54361211D01*
X132837681Y-54376183D01*
X132776358Y-54409668D01*
X132706666Y-54404684D01*
X132662319Y-54376183D01*
X132647347Y-54361211D01*
X132647343Y-54361208D01*
X132481026Y-54250078D01*
X132481013Y-54250071D01*
X132296215Y-54173526D01*
X132296203Y-54173523D01*
X132100022Y-54134500D01*
X132100018Y-54134500D01*
X131899982Y-54134500D01*
X131899977Y-54134500D01*
X131703796Y-54173523D01*
X131703784Y-54173526D01*
X131518986Y-54250071D01*
X131518973Y-54250078D01*
X131352656Y-54361208D01*
X131352652Y-54361211D01*
X131337327Y-54376537D01*
X131276004Y-54410022D01*
X131206312Y-54405038D01*
X131161965Y-54376537D01*
X131147028Y-54361600D01*
X131147024Y-54361597D01*
X130980789Y-54250522D01*
X130980780Y-54250517D01*
X130796065Y-54174006D01*
X130796057Y-54174004D01*
X130750000Y-54164842D01*
X130750000Y-55233811D01*
X130724116Y-55207927D01*
X130640885Y-55159874D01*
X130548053Y-55135000D01*
X130451947Y-55135000D01*
X130359115Y-55159874D01*
X130275884Y-55207927D01*
X130250000Y-55233811D01*
X130250000Y-54164843D01*
X130249999Y-54164842D01*
X130203942Y-54174004D01*
X130203934Y-54174006D01*
X130019219Y-54250517D01*
X130019210Y-54250522D01*
X129852975Y-54361597D01*
X129838032Y-54376540D01*
X129776708Y-54410023D01*
X129707016Y-54405037D01*
X129662670Y-54376535D01*
X129647346Y-54361210D01*
X129647343Y-54361208D01*
X129481026Y-54250078D01*
X129481013Y-54250071D01*
X129296215Y-54173526D01*
X129296203Y-54173523D01*
X129100022Y-54134500D01*
X129100018Y-54134500D01*
X128899982Y-54134500D01*
X128899977Y-54134500D01*
X128703796Y-54173523D01*
X128703784Y-54173526D01*
X128518986Y-54250071D01*
X128518973Y-54250078D01*
X128352656Y-54361208D01*
X128352652Y-54361211D01*
X128337681Y-54376183D01*
X128276358Y-54409668D01*
X128206666Y-54404684D01*
X128162319Y-54376183D01*
X128147347Y-54361211D01*
X128147343Y-54361208D01*
X127981026Y-54250078D01*
X127981013Y-54250071D01*
X127796215Y-54173526D01*
X127796203Y-54173523D01*
X127600022Y-54134500D01*
X127600018Y-54134500D01*
X127399982Y-54134500D01*
X127399977Y-54134500D01*
X127203796Y-54173523D01*
X127203784Y-54173526D01*
X127018986Y-54250071D01*
X127018973Y-54250078D01*
X126852656Y-54361208D01*
X126852652Y-54361211D01*
X126711211Y-54502652D01*
X126711208Y-54502656D01*
X126600078Y-54668973D01*
X126600071Y-54668986D01*
X126523526Y-54853784D01*
X126523523Y-54853796D01*
X126484500Y-55049977D01*
X122015499Y-55049977D01*
X122015499Y-54834992D01*
X122004999Y-54732203D01*
X121949814Y-54565666D01*
X121857712Y-54416344D01*
X121733656Y-54292288D01*
X121584334Y-54200186D01*
X121417797Y-54145001D01*
X121417795Y-54145000D01*
X121315010Y-54134500D01*
X120684998Y-54134500D01*
X120684980Y-54134501D01*
X120582203Y-54145000D01*
X120582200Y-54145001D01*
X120415668Y-54200185D01*
X120415663Y-54200187D01*
X120334789Y-54250071D01*
X120266344Y-54292288D01*
X120266342Y-54292289D01*
X120266337Y-54292293D01*
X120249317Y-54309312D01*
X120187993Y-54342794D01*
X120118301Y-54337807D01*
X120092749Y-54324729D01*
X119981026Y-54250078D01*
X119981013Y-54250071D01*
X119796215Y-54173526D01*
X119796203Y-54173523D01*
X119600022Y-54134500D01*
X119600018Y-54134500D01*
X119399982Y-54134500D01*
X119399977Y-54134500D01*
X119203796Y-54173523D01*
X119203784Y-54173526D01*
X119018986Y-54250071D01*
X119018973Y-54250078D01*
X118852656Y-54361208D01*
X118852652Y-54361211D01*
X118837327Y-54376537D01*
X118776004Y-54410022D01*
X118706312Y-54405038D01*
X118661965Y-54376537D01*
X118647028Y-54361600D01*
X118647024Y-54361597D01*
X118480789Y-54250522D01*
X118480780Y-54250517D01*
X118296065Y-54174006D01*
X118296057Y-54174004D01*
X118250000Y-54164842D01*
X118250000Y-55233811D01*
X118224116Y-55207927D01*
X118140885Y-55159874D01*
X118048053Y-55135000D01*
X117951947Y-55135000D01*
X117859115Y-55159874D01*
X117775884Y-55207927D01*
X117750000Y-55233811D01*
X117750000Y-54164843D01*
X117749999Y-54164842D01*
X117703942Y-54174004D01*
X117703934Y-54174006D01*
X117519219Y-54250517D01*
X117519210Y-54250522D01*
X117352975Y-54361597D01*
X117338032Y-54376540D01*
X117276708Y-54410023D01*
X117207016Y-54405037D01*
X117162670Y-54376535D01*
X117147346Y-54361210D01*
X117147343Y-54361208D01*
X116981026Y-54250078D01*
X116981013Y-54250071D01*
X116796215Y-54173526D01*
X116796203Y-54173523D01*
X116600022Y-54134500D01*
X116600018Y-54134500D01*
X116399982Y-54134500D01*
X116399977Y-54134500D01*
X116203796Y-54173523D01*
X116203784Y-54173526D01*
X116018986Y-54250071D01*
X116018973Y-54250078D01*
X115852656Y-54361208D01*
X115852652Y-54361211D01*
X115837681Y-54376183D01*
X115776358Y-54409668D01*
X115706666Y-54404684D01*
X115662319Y-54376183D01*
X115647347Y-54361211D01*
X115647343Y-54361208D01*
X115481026Y-54250078D01*
X115481013Y-54250071D01*
X115296215Y-54173526D01*
X115296203Y-54173523D01*
X115100022Y-54134500D01*
X115100018Y-54134500D01*
X114899982Y-54134500D01*
X114899977Y-54134500D01*
X114703796Y-54173523D01*
X114703784Y-54173526D01*
X114518986Y-54250071D01*
X114518973Y-54250078D01*
X114352656Y-54361208D01*
X114352652Y-54361211D01*
X114337681Y-54376183D01*
X114276358Y-54409668D01*
X114206666Y-54404684D01*
X114162319Y-54376183D01*
X114147347Y-54361211D01*
X114147343Y-54361208D01*
X113981026Y-54250078D01*
X113981013Y-54250071D01*
X113796215Y-54173526D01*
X113796203Y-54173523D01*
X113600022Y-54134500D01*
X113600018Y-54134500D01*
X113399982Y-54134500D01*
X113399977Y-54134500D01*
X113203796Y-54173523D01*
X113203784Y-54173526D01*
X113018986Y-54250071D01*
X113018973Y-54250078D01*
X112852656Y-54361208D01*
X112852652Y-54361211D01*
X112837681Y-54376183D01*
X112776358Y-54409668D01*
X112706666Y-54404684D01*
X112662319Y-54376183D01*
X112647347Y-54361211D01*
X112647343Y-54361208D01*
X112481026Y-54250078D01*
X112481013Y-54250071D01*
X112296215Y-54173526D01*
X112296203Y-54173523D01*
X112100022Y-54134500D01*
X112100018Y-54134500D01*
X111899982Y-54134500D01*
X111899977Y-54134500D01*
X111703796Y-54173523D01*
X111703784Y-54173526D01*
X111518986Y-54250071D01*
X111518973Y-54250078D01*
X111352656Y-54361208D01*
X111352652Y-54361211D01*
X111337327Y-54376537D01*
X111276004Y-54410022D01*
X111206312Y-54405038D01*
X111161965Y-54376537D01*
X111147028Y-54361600D01*
X111147024Y-54361597D01*
X110980789Y-54250522D01*
X110980780Y-54250517D01*
X110796065Y-54174006D01*
X110796057Y-54174004D01*
X110750000Y-54164842D01*
X110750000Y-55233811D01*
X110724116Y-55207927D01*
X110640885Y-55159874D01*
X110548053Y-55135000D01*
X110451947Y-55135000D01*
X110359115Y-55159874D01*
X110275884Y-55207927D01*
X110250000Y-55233811D01*
X110250000Y-54164843D01*
X110249999Y-54164842D01*
X110203942Y-54174004D01*
X110203934Y-54174006D01*
X110019219Y-54250517D01*
X110019210Y-54250522D01*
X109852975Y-54361597D01*
X109838032Y-54376540D01*
X109776708Y-54410023D01*
X109707016Y-54405037D01*
X109662670Y-54376535D01*
X109647346Y-54361210D01*
X109647343Y-54361208D01*
X109481026Y-54250078D01*
X109481013Y-54250071D01*
X109296215Y-54173526D01*
X109296203Y-54173523D01*
X109100022Y-54134500D01*
X109100018Y-54134500D01*
X108899982Y-54134500D01*
X108899977Y-54134500D01*
X108703796Y-54173523D01*
X108703784Y-54173526D01*
X108518986Y-54250071D01*
X108518973Y-54250078D01*
X108352656Y-54361208D01*
X108352652Y-54361211D01*
X108337681Y-54376183D01*
X108276358Y-54409668D01*
X108206666Y-54404684D01*
X108162319Y-54376183D01*
X108147347Y-54361211D01*
X108147343Y-54361208D01*
X107981026Y-54250078D01*
X107981013Y-54250071D01*
X107796215Y-54173526D01*
X107796203Y-54173523D01*
X107600022Y-54134500D01*
X107600018Y-54134500D01*
X107399982Y-54134500D01*
X107399977Y-54134500D01*
X107203796Y-54173523D01*
X107203784Y-54173526D01*
X107018986Y-54250071D01*
X107018973Y-54250078D01*
X106852656Y-54361208D01*
X106852652Y-54361211D01*
X106711211Y-54502652D01*
X106711208Y-54502656D01*
X106600078Y-54668973D01*
X106600071Y-54668986D01*
X106523526Y-54853784D01*
X106523523Y-54853796D01*
X106484500Y-55049977D01*
X100000500Y-55049977D01*
X100000500Y-53924982D01*
X145124500Y-53924982D01*
X145124500Y-56075017D01*
X145135000Y-56177796D01*
X145185774Y-56331020D01*
X145190186Y-56344335D01*
X145282288Y-56493656D01*
X145406344Y-56617712D01*
X145555665Y-56709814D01*
X145722202Y-56764999D01*
X145824990Y-56775500D01*
X145824995Y-56775500D01*
X147975005Y-56775500D01*
X147975010Y-56775500D01*
X148077798Y-56764999D01*
X148244335Y-56709814D01*
X148393656Y-56617712D01*
X148517712Y-56493656D01*
X148609814Y-56344335D01*
X148664999Y-56177798D01*
X148675500Y-56075010D01*
X148675500Y-54883634D01*
X149924500Y-54883634D01*
X149924500Y-55116365D01*
X149924501Y-55116382D01*
X149954865Y-55347024D01*
X149954879Y-55347126D01*
X150008717Y-55548053D01*
X150015120Y-55571947D01*
X150104180Y-55786960D01*
X150104188Y-55786976D01*
X150220553Y-55988524D01*
X150220564Y-55988540D01*
X150362242Y-56173179D01*
X150362248Y-56173186D01*
X150526813Y-56337751D01*
X150526820Y-56337757D01*
X150633280Y-56419446D01*
X150711468Y-56479442D01*
X150711475Y-56479446D01*
X150913023Y-56595811D01*
X150913039Y-56595819D01*
X151128052Y-56684879D01*
X151128054Y-56684879D01*
X151128060Y-56684882D01*
X151352874Y-56745121D01*
X151583628Y-56775500D01*
X151583635Y-56775500D01*
X151816365Y-56775500D01*
X151816372Y-56775500D01*
X152047126Y-56745121D01*
X152271940Y-56684882D01*
X152383222Y-56638788D01*
X152486960Y-56595819D01*
X152486963Y-56595817D01*
X152486969Y-56595815D01*
X152688532Y-56479442D01*
X152873181Y-56337756D01*
X153037756Y-56173181D01*
X153179442Y-55988532D01*
X153295815Y-55786969D01*
X153384882Y-55571940D01*
X153445121Y-55347126D01*
X153475500Y-55116372D01*
X153475500Y-54883634D01*
X154724500Y-54883634D01*
X154724500Y-55116365D01*
X154724501Y-55116382D01*
X154754865Y-55347024D01*
X154754879Y-55347126D01*
X154808717Y-55548053D01*
X154815120Y-55571947D01*
X154904180Y-55786960D01*
X154904188Y-55786976D01*
X155020553Y-55988524D01*
X155020564Y-55988540D01*
X155162242Y-56173179D01*
X155162248Y-56173186D01*
X155326813Y-56337751D01*
X155326820Y-56337757D01*
X155433280Y-56419446D01*
X155511468Y-56479442D01*
X155511475Y-56479446D01*
X155713023Y-56595811D01*
X155713039Y-56595819D01*
X155928052Y-56684879D01*
X155928054Y-56684879D01*
X155928060Y-56684882D01*
X156152874Y-56745121D01*
X156383628Y-56775500D01*
X156383635Y-56775500D01*
X156616365Y-56775500D01*
X156616372Y-56775500D01*
X156847126Y-56745121D01*
X157071940Y-56684882D01*
X157183222Y-56638788D01*
X157286960Y-56595819D01*
X157286963Y-56595817D01*
X157286969Y-56595815D01*
X157488532Y-56479442D01*
X157673181Y-56337756D01*
X157837756Y-56173181D01*
X157979442Y-55988532D01*
X158095815Y-55786969D01*
X158184882Y-55571940D01*
X158245121Y-55347126D01*
X158275500Y-55116372D01*
X158275500Y-54883634D01*
X159524500Y-54883634D01*
X159524500Y-55116365D01*
X159524501Y-55116382D01*
X159554865Y-55347024D01*
X159554879Y-55347126D01*
X159608717Y-55548053D01*
X159615120Y-55571947D01*
X159704180Y-55786960D01*
X159704188Y-55786976D01*
X159820553Y-55988524D01*
X159820564Y-55988540D01*
X159962242Y-56173179D01*
X159962248Y-56173186D01*
X160126813Y-56337751D01*
X160126820Y-56337757D01*
X160233280Y-56419446D01*
X160311468Y-56479442D01*
X160311475Y-56479446D01*
X160513023Y-56595811D01*
X160513039Y-56595819D01*
X160728052Y-56684879D01*
X160728054Y-56684879D01*
X160728060Y-56684882D01*
X160952874Y-56745121D01*
X161183628Y-56775500D01*
X161183635Y-56775500D01*
X161416365Y-56775500D01*
X161416372Y-56775500D01*
X161647126Y-56745121D01*
X161871940Y-56684882D01*
X161983222Y-56638788D01*
X162086960Y-56595819D01*
X162086963Y-56595817D01*
X162086969Y-56595815D01*
X162288532Y-56479442D01*
X162473181Y-56337756D01*
X162479924Y-56331013D01*
X162527125Y-56283813D01*
X162637751Y-56173186D01*
X162637756Y-56173181D01*
X162779442Y-55988532D01*
X162895815Y-55786969D01*
X162984882Y-55571940D01*
X163045121Y-55347126D01*
X163075500Y-55116372D01*
X163075500Y-54883659D01*
X164325000Y-54883659D01*
X164325000Y-55116340D01*
X164355369Y-55347024D01*
X164415592Y-55571779D01*
X164504632Y-55786740D01*
X164504636Y-55786750D01*
X164620970Y-55988248D01*
X164680551Y-56065894D01*
X165403287Y-55343158D01*
X165413204Y-55367100D01*
X165498018Y-55494034D01*
X165605966Y-55601982D01*
X165732900Y-55686796D01*
X165756839Y-55696712D01*
X165034104Y-56419446D01*
X165034104Y-56419447D01*
X165111752Y-56479029D01*
X165313249Y-56595363D01*
X165313259Y-56595367D01*
X165528220Y-56684407D01*
X165752975Y-56744630D01*
X165983659Y-56775000D01*
X166216341Y-56775000D01*
X166447024Y-56744630D01*
X166671779Y-56684407D01*
X166886740Y-56595367D01*
X166886750Y-56595363D01*
X167088255Y-56479024D01*
X167165894Y-56419447D01*
X167165894Y-56419446D01*
X166443159Y-55696712D01*
X166467100Y-55686796D01*
X166594034Y-55601982D01*
X166701982Y-55494034D01*
X166786796Y-55367100D01*
X166796712Y-55343159D01*
X167519446Y-56065894D01*
X167519447Y-56065894D01*
X167579024Y-55988255D01*
X167695363Y-55786750D01*
X167695367Y-55786740D01*
X167784407Y-55571779D01*
X167844630Y-55347024D01*
X167875000Y-55116340D01*
X167875000Y-54883659D01*
X167844630Y-54652975D01*
X167784407Y-54428220D01*
X167695367Y-54213259D01*
X167695363Y-54213249D01*
X167579029Y-54011752D01*
X167519447Y-53934104D01*
X167519446Y-53934104D01*
X166796711Y-54656839D01*
X166786796Y-54632900D01*
X166701982Y-54505966D01*
X166594034Y-54398018D01*
X166467100Y-54313204D01*
X166443158Y-54303286D01*
X167165894Y-53580551D01*
X167088248Y-53520970D01*
X166886750Y-53404636D01*
X166886740Y-53404632D01*
X166671779Y-53315592D01*
X166447024Y-53255369D01*
X166216341Y-53225000D01*
X165983659Y-53225000D01*
X165752975Y-53255369D01*
X165528220Y-53315592D01*
X165313259Y-53404632D01*
X165313249Y-53404636D01*
X165111747Y-53520973D01*
X165034104Y-53580550D01*
X165034104Y-53580551D01*
X165756840Y-54303287D01*
X165732900Y-54313204D01*
X165605966Y-54398018D01*
X165498018Y-54505966D01*
X165413204Y-54632900D01*
X165403287Y-54656840D01*
X164680551Y-53934104D01*
X164680550Y-53934104D01*
X164620973Y-54011747D01*
X164504636Y-54213249D01*
X164504632Y-54213259D01*
X164415592Y-54428220D01*
X164355369Y-54652975D01*
X164325000Y-54883659D01*
X163075500Y-54883659D01*
X163075500Y-54883628D01*
X163045121Y-54652874D01*
X162984882Y-54428060D01*
X162980029Y-54416344D01*
X162895819Y-54213039D01*
X162895811Y-54213023D01*
X162779446Y-54011475D01*
X162779442Y-54011468D01*
X162637756Y-53826819D01*
X162637751Y-53826813D01*
X162473186Y-53662248D01*
X162473179Y-53662242D01*
X162288540Y-53520564D01*
X162288538Y-53520562D01*
X162288532Y-53520558D01*
X162288527Y-53520555D01*
X162288524Y-53520553D01*
X162086976Y-53404188D01*
X162086960Y-53404180D01*
X161871947Y-53315120D01*
X161808114Y-53298016D01*
X161647126Y-53254879D01*
X161647125Y-53254878D01*
X161647122Y-53254878D01*
X161416382Y-53224501D01*
X161416377Y-53224500D01*
X161416372Y-53224500D01*
X161183628Y-53224500D01*
X161183622Y-53224500D01*
X161183617Y-53224501D01*
X160952877Y-53254878D01*
X160728052Y-53315120D01*
X160513039Y-53404180D01*
X160513023Y-53404188D01*
X160311475Y-53520553D01*
X160311459Y-53520564D01*
X160126820Y-53662242D01*
X160126813Y-53662248D01*
X159962248Y-53826813D01*
X159962242Y-53826820D01*
X159820564Y-54011459D01*
X159820553Y-54011475D01*
X159704188Y-54213023D01*
X159704180Y-54213039D01*
X159615120Y-54428052D01*
X159554878Y-54652877D01*
X159524501Y-54883617D01*
X159524500Y-54883634D01*
X158275500Y-54883634D01*
X158275500Y-54883628D01*
X158245121Y-54652874D01*
X158184882Y-54428060D01*
X158180029Y-54416344D01*
X158095819Y-54213039D01*
X158095811Y-54213023D01*
X157979446Y-54011475D01*
X157979442Y-54011468D01*
X157837756Y-53826819D01*
X157837751Y-53826813D01*
X157673186Y-53662248D01*
X157673179Y-53662242D01*
X157488540Y-53520564D01*
X157488538Y-53520562D01*
X157488532Y-53520558D01*
X157488527Y-53520555D01*
X157488524Y-53520553D01*
X157286976Y-53404188D01*
X157286960Y-53404180D01*
X157071947Y-53315120D01*
X157008114Y-53298016D01*
X156847126Y-53254879D01*
X156847125Y-53254878D01*
X156847122Y-53254878D01*
X156616382Y-53224501D01*
X156616377Y-53224500D01*
X156616372Y-53224500D01*
X156383628Y-53224500D01*
X156383622Y-53224500D01*
X156383617Y-53224501D01*
X156152877Y-53254878D01*
X155928052Y-53315120D01*
X155713039Y-53404180D01*
X155713023Y-53404188D01*
X155511475Y-53520553D01*
X155511459Y-53520564D01*
X155326820Y-53662242D01*
X155326813Y-53662248D01*
X155162248Y-53826813D01*
X155162242Y-53826820D01*
X155020564Y-54011459D01*
X155020553Y-54011475D01*
X154904188Y-54213023D01*
X154904180Y-54213039D01*
X154815120Y-54428052D01*
X154754878Y-54652877D01*
X154724501Y-54883617D01*
X154724500Y-54883634D01*
X153475500Y-54883634D01*
X153475500Y-54883628D01*
X153445121Y-54652874D01*
X153384882Y-54428060D01*
X153380029Y-54416344D01*
X153295819Y-54213039D01*
X153295811Y-54213023D01*
X153179446Y-54011475D01*
X153179442Y-54011468D01*
X153037756Y-53826819D01*
X153037751Y-53826813D01*
X152873186Y-53662248D01*
X152873179Y-53662242D01*
X152688540Y-53520564D01*
X152688538Y-53520562D01*
X152688532Y-53520558D01*
X152688527Y-53520555D01*
X152688524Y-53520553D01*
X152486976Y-53404188D01*
X152486960Y-53404180D01*
X152271947Y-53315120D01*
X152208114Y-53298016D01*
X152047126Y-53254879D01*
X152047125Y-53254878D01*
X152047122Y-53254878D01*
X151816382Y-53224501D01*
X151816377Y-53224500D01*
X151816372Y-53224500D01*
X151583628Y-53224500D01*
X151583622Y-53224500D01*
X151583617Y-53224501D01*
X151352877Y-53254878D01*
X151128052Y-53315120D01*
X150913039Y-53404180D01*
X150913023Y-53404188D01*
X150711475Y-53520553D01*
X150711459Y-53520564D01*
X150526820Y-53662242D01*
X150526813Y-53662248D01*
X150362248Y-53826813D01*
X150362242Y-53826820D01*
X150220564Y-54011459D01*
X150220553Y-54011475D01*
X150104188Y-54213023D01*
X150104180Y-54213039D01*
X150015120Y-54428052D01*
X149954878Y-54652877D01*
X149924501Y-54883617D01*
X149924500Y-54883634D01*
X148675500Y-54883634D01*
X148675500Y-53924990D01*
X148664999Y-53822202D01*
X148609814Y-53655665D01*
X148517712Y-53506344D01*
X148393656Y-53382288D01*
X148285525Y-53315592D01*
X148244337Y-53290187D01*
X148244332Y-53290185D01*
X148242863Y-53289698D01*
X148077798Y-53235001D01*
X148077796Y-53235000D01*
X147975017Y-53224500D01*
X147975010Y-53224500D01*
X145824990Y-53224500D01*
X145824982Y-53224500D01*
X145722203Y-53235000D01*
X145722202Y-53235001D01*
X145660736Y-53255369D01*
X145555667Y-53290185D01*
X145555662Y-53290187D01*
X145406342Y-53382289D01*
X145282289Y-53506342D01*
X145190187Y-53655662D01*
X145190185Y-53655667D01*
X145162349Y-53739669D01*
X145135001Y-53822202D01*
X145135001Y-53822203D01*
X145135000Y-53822203D01*
X145124500Y-53924982D01*
X100000500Y-53924982D01*
X100000500Y-52503749D01*
X100000726Y-52496262D01*
X100005865Y-52411304D01*
X108099500Y-52411304D01*
X108099500Y-52588695D01*
X108134103Y-52762658D01*
X108134106Y-52762667D01*
X108201983Y-52926540D01*
X108201990Y-52926553D01*
X108300535Y-53074034D01*
X108300538Y-53074038D01*
X108425961Y-53199461D01*
X108425965Y-53199464D01*
X108573446Y-53298009D01*
X108573459Y-53298016D01*
X108696363Y-53348923D01*
X108737334Y-53365894D01*
X108737336Y-53365894D01*
X108737341Y-53365896D01*
X108911304Y-53400499D01*
X108911307Y-53400500D01*
X108911309Y-53400500D01*
X109088693Y-53400500D01*
X109088694Y-53400499D01*
X109146682Y-53388964D01*
X109262658Y-53365896D01*
X109262661Y-53365894D01*
X109262666Y-53365894D01*
X109426547Y-53298013D01*
X109574035Y-53199464D01*
X109699464Y-53074035D01*
X109798013Y-52926547D01*
X109865894Y-52762666D01*
X109900500Y-52588691D01*
X109900500Y-52411309D01*
X109900500Y-52411306D01*
X109900499Y-52411304D01*
X118599500Y-52411304D01*
X118599500Y-52588695D01*
X118634103Y-52762658D01*
X118634106Y-52762667D01*
X118701983Y-52926540D01*
X118701990Y-52926553D01*
X118800535Y-53074034D01*
X118800538Y-53074038D01*
X118925961Y-53199461D01*
X118925965Y-53199464D01*
X119073446Y-53298009D01*
X119073459Y-53298016D01*
X119196363Y-53348923D01*
X119237334Y-53365894D01*
X119237336Y-53365894D01*
X119237341Y-53365896D01*
X119411304Y-53400499D01*
X119411307Y-53400500D01*
X119411309Y-53400500D01*
X119588693Y-53400500D01*
X119588694Y-53400499D01*
X119646682Y-53388964D01*
X119762658Y-53365896D01*
X119762661Y-53365894D01*
X119762666Y-53365894D01*
X119926547Y-53298013D01*
X120074035Y-53199464D01*
X120199464Y-53074035D01*
X120298013Y-52926547D01*
X120365894Y-52762666D01*
X120400500Y-52588691D01*
X120400500Y-52411309D01*
X120400500Y-52411306D01*
X120400499Y-52411304D01*
X128099500Y-52411304D01*
X128099500Y-52588695D01*
X128134103Y-52762658D01*
X128134106Y-52762667D01*
X128201983Y-52926540D01*
X128201990Y-52926553D01*
X128300535Y-53074034D01*
X128300538Y-53074038D01*
X128425961Y-53199461D01*
X128425965Y-53199464D01*
X128573446Y-53298009D01*
X128573459Y-53298016D01*
X128696363Y-53348923D01*
X128737334Y-53365894D01*
X128737336Y-53365894D01*
X128737341Y-53365896D01*
X128911304Y-53400499D01*
X128911307Y-53400500D01*
X128911309Y-53400500D01*
X129088693Y-53400500D01*
X129088694Y-53400499D01*
X129146682Y-53388964D01*
X129262658Y-53365896D01*
X129262661Y-53365894D01*
X129262666Y-53365894D01*
X129426547Y-53298013D01*
X129574035Y-53199464D01*
X129699464Y-53074035D01*
X129798013Y-52926547D01*
X129865894Y-52762666D01*
X129900500Y-52588691D01*
X129900500Y-52411309D01*
X129900500Y-52411306D01*
X129900499Y-52411304D01*
X138599500Y-52411304D01*
X138599500Y-52588695D01*
X138634103Y-52762658D01*
X138634106Y-52762667D01*
X138701983Y-52926540D01*
X138701990Y-52926553D01*
X138800535Y-53074034D01*
X138800538Y-53074038D01*
X138925961Y-53199461D01*
X138925965Y-53199464D01*
X139073446Y-53298009D01*
X139073459Y-53298016D01*
X139196363Y-53348923D01*
X139237334Y-53365894D01*
X139237336Y-53365894D01*
X139237341Y-53365896D01*
X139411304Y-53400499D01*
X139411307Y-53400500D01*
X139411309Y-53400500D01*
X139588693Y-53400500D01*
X139588694Y-53400499D01*
X139646682Y-53388964D01*
X139762658Y-53365896D01*
X139762661Y-53365894D01*
X139762666Y-53365894D01*
X139926547Y-53298013D01*
X140074035Y-53199464D01*
X140199464Y-53074035D01*
X140298013Y-52926547D01*
X140365894Y-52762666D01*
X140400500Y-52588691D01*
X140400500Y-52411309D01*
X140400500Y-52411306D01*
X140400499Y-52411304D01*
X140365896Y-52237341D01*
X140365893Y-52237332D01*
X140360133Y-52223427D01*
X140348923Y-52196363D01*
X140298016Y-52073459D01*
X140298009Y-52073446D01*
X140199464Y-51925965D01*
X140199461Y-51925961D01*
X140074038Y-51800538D01*
X140074034Y-51800535D01*
X139926553Y-51701990D01*
X139926540Y-51701983D01*
X139762667Y-51634106D01*
X139762658Y-51634103D01*
X139588694Y-51599500D01*
X139588691Y-51599500D01*
X139411309Y-51599500D01*
X139411306Y-51599500D01*
X139237341Y-51634103D01*
X139237332Y-51634106D01*
X139073459Y-51701983D01*
X139073446Y-51701990D01*
X138925965Y-51800535D01*
X138925961Y-51800538D01*
X138800538Y-51925961D01*
X138800535Y-51925965D01*
X138701990Y-52073446D01*
X138701983Y-52073459D01*
X138634106Y-52237332D01*
X138634103Y-52237341D01*
X138599500Y-52411304D01*
X129900499Y-52411304D01*
X129865896Y-52237341D01*
X129865893Y-52237332D01*
X129860133Y-52223427D01*
X129848923Y-52196363D01*
X129798016Y-52073459D01*
X129798009Y-52073446D01*
X129699464Y-51925965D01*
X129699461Y-51925961D01*
X129574038Y-51800538D01*
X129574034Y-51800535D01*
X129426553Y-51701990D01*
X129426540Y-51701983D01*
X129262667Y-51634106D01*
X129262658Y-51634103D01*
X129088694Y-51599500D01*
X129088691Y-51599500D01*
X128911309Y-51599500D01*
X128911306Y-51599500D01*
X128737341Y-51634103D01*
X128737332Y-51634106D01*
X128573459Y-51701983D01*
X128573446Y-51701990D01*
X128425965Y-51800535D01*
X128425961Y-51800538D01*
X128300538Y-51925961D01*
X128300535Y-51925965D01*
X128201990Y-52073446D01*
X128201983Y-52073459D01*
X128134106Y-52237332D01*
X128134103Y-52237341D01*
X128099500Y-52411304D01*
X120400499Y-52411304D01*
X120365896Y-52237341D01*
X120365893Y-52237332D01*
X120360133Y-52223427D01*
X120348923Y-52196363D01*
X120298016Y-52073459D01*
X120298009Y-52073446D01*
X120199464Y-51925965D01*
X120199461Y-51925961D01*
X120074038Y-51800538D01*
X120074034Y-51800535D01*
X119926553Y-51701990D01*
X119926540Y-51701983D01*
X119762667Y-51634106D01*
X119762658Y-51634103D01*
X119588694Y-51599500D01*
X119588691Y-51599500D01*
X119411309Y-51599500D01*
X119411306Y-51599500D01*
X119237341Y-51634103D01*
X119237332Y-51634106D01*
X119073459Y-51701983D01*
X119073446Y-51701990D01*
X118925965Y-51800535D01*
X118925961Y-51800538D01*
X118800538Y-51925961D01*
X118800535Y-51925965D01*
X118701990Y-52073446D01*
X118701983Y-52073459D01*
X118634106Y-52237332D01*
X118634103Y-52237341D01*
X118599500Y-52411304D01*
X109900499Y-52411304D01*
X109865896Y-52237341D01*
X109865893Y-52237332D01*
X109860133Y-52223427D01*
X109848923Y-52196363D01*
X109798016Y-52073459D01*
X109798009Y-52073446D01*
X109699464Y-51925965D01*
X109699461Y-51925961D01*
X109574038Y-51800538D01*
X109574034Y-51800535D01*
X109426553Y-51701990D01*
X109426540Y-51701983D01*
X109262667Y-51634106D01*
X109262658Y-51634103D01*
X109088694Y-51599500D01*
X109088691Y-51599500D01*
X108911309Y-51599500D01*
X108911306Y-51599500D01*
X108737341Y-51634103D01*
X108737332Y-51634106D01*
X108573459Y-51701983D01*
X108573446Y-51701990D01*
X108425965Y-51800535D01*
X108425961Y-51800538D01*
X108300538Y-51925961D01*
X108300535Y-51925965D01*
X108201990Y-52073446D01*
X108201983Y-52073459D01*
X108134106Y-52237332D01*
X108134103Y-52237341D01*
X108099500Y-52411304D01*
X100005865Y-52411304D01*
X100006686Y-52397730D01*
X100006686Y-52397729D01*
X100016705Y-52232093D01*
X100017534Y-52223457D01*
X100025664Y-52161704D01*
X100026614Y-52155663D01*
X100068495Y-51927122D01*
X100070676Y-51917441D01*
X100084835Y-51864598D01*
X100086197Y-51859899D01*
X100157853Y-51629947D01*
X100161665Y-51619417D01*
X100176333Y-51584007D01*
X100177726Y-51580781D01*
X100283633Y-51345466D01*
X100289295Y-51334404D01*
X100290059Y-51333082D01*
X100291227Y-51331105D01*
X100439080Y-51086526D01*
X100447567Y-51074230D01*
X100624480Y-50848417D01*
X100634395Y-50837226D01*
X100837226Y-50634395D01*
X100848417Y-50624480D01*
X101074230Y-50447567D01*
X101086526Y-50439080D01*
X101331105Y-50291227D01*
X101333082Y-50290059D01*
X101334404Y-50289295D01*
X101345466Y-50283633D01*
X101580781Y-50177726D01*
X101584007Y-50176333D01*
X101619417Y-50161665D01*
X101629947Y-50157853D01*
X101859899Y-50086197D01*
X101864598Y-50084835D01*
X101917441Y-50070676D01*
X101927122Y-50068495D01*
X102155663Y-50026614D01*
X102161704Y-50025664D01*
X102223457Y-50017534D01*
X102232093Y-50016705D01*
X102496264Y-50000726D01*
X102503750Y-50000500D01*
X111466226Y-50000500D01*
X111533265Y-50020185D01*
G37*
G04 #@! TD.AperFunction*
M02*
