G04 #@! TF.GenerationSoftware,KiCad,Pcbnew,9.0.0*
G04 #@! TF.CreationDate,2025-06-03T11:33:59-07:00*
G04 #@! TF.ProjectId,bias_coil,62696173-5f63-46f6-996c-2e6b69636164,rev?*
G04 #@! TF.SameCoordinates,Original*
G04 #@! TF.FileFunction,Legend,Bot*
G04 #@! TF.FilePolarity,Positive*
%FSLAX46Y46*%
G04 Gerber Fmt 4.6, Leading zero omitted, Abs format (unit mm)*
G04 Created by KiCad (PCBNEW 9.0.0) date 2025-06-03 11:33:59*
%MOMM*%
%LPD*%
G01*
G04 APERTURE LIST*
G04 Aperture macros list*
%AMRoundRect*
0 Rectangle with rounded corners*
0 $1 Rounding radius*
0 $2 $3 $4 $5 $6 $7 $8 $9 X,Y pos of 4 corners*
0 Add a 4 corners polygon primitive as box body*
4,1,4,$2,$3,$4,$5,$6,$7,$8,$9,$2,$3,0*
0 Add four circle primitives for the rounded corners*
1,1,$1+$1,$2,$3*
1,1,$1+$1,$4,$5*
1,1,$1+$1,$6,$7*
1,1,$1+$1,$8,$9*
0 Add four rect primitives between the rounded corners*
20,1,$1+$1,$2,$3,$4,$5,0*
20,1,$1+$1,$4,$5,$6,$7,0*
20,1,$1+$1,$6,$7,$8,$9,0*
20,1,$1+$1,$8,$9,$2,$3,0*%
G04 Aperture macros list end*
%ADD10C,0.150000*%
%ADD11C,1.600000*%
%ADD12O,1.600000X1.600000*%
%ADD13C,2.400000*%
%ADD14O,2.400000X2.400000*%
%ADD15R,1.905000X2.000000*%
%ADD16O,1.905000X2.000000*%
%ADD17R,1.800000X1.800000*%
%ADD18O,1.800000X1.800000*%
%ADD19R,2.420000X5.080000*%
%ADD20RoundRect,0.249999X-1.025001X-1.025001X1.025001X-1.025001X1.025001X1.025001X-1.025001X1.025001X0*%
%ADD21C,2.550000*%
%ADD22RoundRect,0.250000X0.265000X0.615000X-0.265000X0.615000X-0.265000X-0.615000X0.265000X-0.615000X0*%
%ADD23O,1.030000X1.730000*%
%ADD24R,3.000000X3.000000*%
%ADD25C,3.000000*%
%ADD26RoundRect,0.250000X-0.950000X-0.550000X0.950000X-0.550000X0.950000X0.550000X-0.950000X0.550000X0*%
%ADD27O,2.400000X1.600000*%
%ADD28C,3.200000*%
G04 APERTURE END LIST*
D10*
X187960000Y-71120000D02*
X187960000Y-131120000D01*
X115000000Y-65000000D02*
X185000000Y-65000000D01*
X389048571Y-112482200D02*
X389143809Y-112529819D01*
X389143809Y-112529819D02*
X389334285Y-112529819D01*
X389334285Y-112529819D02*
X389429523Y-112482200D01*
X389429523Y-112482200D02*
X389477142Y-112386961D01*
X389477142Y-112386961D02*
X389477142Y-112006009D01*
X389477142Y-112006009D02*
X389429523Y-111910771D01*
X389429523Y-111910771D02*
X389334285Y-111863152D01*
X389334285Y-111863152D02*
X389143809Y-111863152D01*
X389143809Y-111863152D02*
X389048571Y-111910771D01*
X389048571Y-111910771D02*
X389000952Y-112006009D01*
X389000952Y-112006009D02*
X389000952Y-112101247D01*
X389000952Y-112101247D02*
X389477142Y-112196485D01*
X388572380Y-112529819D02*
X388572380Y-111863152D01*
X388572380Y-112053628D02*
X388524761Y-111958390D01*
X388524761Y-111958390D02*
X388477142Y-111910771D01*
X388477142Y-111910771D02*
X388381904Y-111863152D01*
X388381904Y-111863152D02*
X388286666Y-111863152D01*
X387953332Y-112529819D02*
X387953332Y-111863152D01*
X387953332Y-112053628D02*
X387905713Y-111958390D01*
X387905713Y-111958390D02*
X387858094Y-111910771D01*
X387858094Y-111910771D02*
X387762856Y-111863152D01*
X387762856Y-111863152D02*
X387667618Y-111863152D01*
X102203152Y-91241541D02*
X102869819Y-91479636D01*
X102869819Y-91479636D02*
X102203152Y-91717731D01*
X102869819Y-92622493D02*
X102869819Y-92051065D01*
X102869819Y-92336779D02*
X101869819Y-92336779D01*
X101869819Y-92336779D02*
X102012676Y-92241541D01*
X102012676Y-92241541D02*
X102107914Y-92146303D01*
X102107914Y-92146303D02*
X102155533Y-92051065D01*
X100747438Y-70384398D02*
X100747438Y-71622493D01*
X100747438Y-71622493D02*
X101509342Y-70955826D01*
X101509342Y-70955826D02*
X101509342Y-71241541D01*
X101509342Y-71241541D02*
X101604580Y-71432017D01*
X101604580Y-71432017D02*
X101699819Y-71527255D01*
X101699819Y-71527255D02*
X101890295Y-71622493D01*
X101890295Y-71622493D02*
X102366485Y-71622493D01*
X102366485Y-71622493D02*
X102556961Y-71527255D01*
X102556961Y-71527255D02*
X102652200Y-71432017D01*
X102652200Y-71432017D02*
X102747438Y-71241541D01*
X102747438Y-71241541D02*
X102747438Y-70670112D01*
X102747438Y-70670112D02*
X102652200Y-70479636D01*
X102652200Y-70479636D02*
X102556961Y-70384398D01*
X102556961Y-75146303D02*
X102652200Y-75051065D01*
X102652200Y-75051065D02*
X102747438Y-74765351D01*
X102747438Y-74765351D02*
X102747438Y-74574875D01*
X102747438Y-74574875D02*
X102652200Y-74289160D01*
X102652200Y-74289160D02*
X102461723Y-74098684D01*
X102461723Y-74098684D02*
X102271247Y-74003446D01*
X102271247Y-74003446D02*
X101890295Y-73908208D01*
X101890295Y-73908208D02*
X101604580Y-73908208D01*
X101604580Y-73908208D02*
X101223628Y-74003446D01*
X101223628Y-74003446D02*
X101033152Y-74098684D01*
X101033152Y-74098684D02*
X100842676Y-74289160D01*
X100842676Y-74289160D02*
X100747438Y-74574875D01*
X100747438Y-74574875D02*
X100747438Y-74765351D01*
X100747438Y-74765351D02*
X100842676Y-75051065D01*
X100842676Y-75051065D02*
X100937914Y-75146303D01*
X102747438Y-76003446D02*
X100747438Y-76003446D01*
X101699819Y-76003446D02*
X101699819Y-77146303D01*
X102747438Y-77146303D02*
X100747438Y-77146303D01*
X102176009Y-78003446D02*
X102176009Y-78955827D01*
X102747438Y-77812970D02*
X100747438Y-78479636D01*
X100747438Y-78479636D02*
X102747438Y-79146303D01*
X102747438Y-79812970D02*
X100747438Y-79812970D01*
X100747438Y-79812970D02*
X102747438Y-80955827D01*
X102747438Y-80955827D02*
X100747438Y-80955827D01*
X102747438Y-81908208D02*
X100747438Y-81908208D01*
X100747438Y-81908208D02*
X102747438Y-83051065D01*
X102747438Y-83051065D02*
X100747438Y-83051065D01*
X101699819Y-84003446D02*
X101699819Y-84670113D01*
X102747438Y-84955827D02*
X102747438Y-84003446D01*
X102747438Y-84003446D02*
X100747438Y-84003446D01*
X100747438Y-84003446D02*
X100747438Y-84955827D01*
X102747438Y-86765351D02*
X102747438Y-85812970D01*
X102747438Y-85812970D02*
X100747438Y-85812970D01*
X102556961Y-90098685D02*
X102652200Y-90003447D01*
X102652200Y-90003447D02*
X102747438Y-89717733D01*
X102747438Y-89717733D02*
X102747438Y-89527257D01*
X102747438Y-89527257D02*
X102652200Y-89241542D01*
X102652200Y-89241542D02*
X102461723Y-89051066D01*
X102461723Y-89051066D02*
X102271247Y-88955828D01*
X102271247Y-88955828D02*
X101890295Y-88860590D01*
X101890295Y-88860590D02*
X101604580Y-88860590D01*
X101604580Y-88860590D02*
X101223628Y-88955828D01*
X101223628Y-88955828D02*
X101033152Y-89051066D01*
X101033152Y-89051066D02*
X100842676Y-89241542D01*
X100842676Y-89241542D02*
X100747438Y-89527257D01*
X100747438Y-89527257D02*
X100747438Y-89717733D01*
X100747438Y-89717733D02*
X100842676Y-90003447D01*
X100842676Y-90003447D02*
X100937914Y-90098685D01*
X100747438Y-90955828D02*
X102366485Y-90955828D01*
X102366485Y-90955828D02*
X102556961Y-91051066D01*
X102556961Y-91051066D02*
X102652200Y-91146304D01*
X102652200Y-91146304D02*
X102747438Y-91336780D01*
X102747438Y-91336780D02*
X102747438Y-91717733D01*
X102747438Y-91717733D02*
X102652200Y-91908209D01*
X102652200Y-91908209D02*
X102556961Y-92003447D01*
X102556961Y-92003447D02*
X102366485Y-92098685D01*
X102366485Y-92098685D02*
X100747438Y-92098685D01*
X102747438Y-94193923D02*
X101795057Y-93527256D01*
X102747438Y-93051066D02*
X100747438Y-93051066D01*
X100747438Y-93051066D02*
X100747438Y-93812971D01*
X100747438Y-93812971D02*
X100842676Y-94003447D01*
X100842676Y-94003447D02*
X100937914Y-94098685D01*
X100937914Y-94098685D02*
X101128390Y-94193923D01*
X101128390Y-94193923D02*
X101414104Y-94193923D01*
X101414104Y-94193923D02*
X101604580Y-94098685D01*
X101604580Y-94098685D02*
X101699819Y-94003447D01*
X101699819Y-94003447D02*
X101795057Y-93812971D01*
X101795057Y-93812971D02*
X101795057Y-93051066D01*
X102747438Y-96193923D02*
X101795057Y-95527256D01*
X102747438Y-95051066D02*
X100747438Y-95051066D01*
X100747438Y-95051066D02*
X100747438Y-95812971D01*
X100747438Y-95812971D02*
X100842676Y-96003447D01*
X100842676Y-96003447D02*
X100937914Y-96098685D01*
X100937914Y-96098685D02*
X101128390Y-96193923D01*
X101128390Y-96193923D02*
X101414104Y-96193923D01*
X101414104Y-96193923D02*
X101604580Y-96098685D01*
X101604580Y-96098685D02*
X101699819Y-96003447D01*
X101699819Y-96003447D02*
X101795057Y-95812971D01*
X101795057Y-95812971D02*
X101795057Y-95051066D01*
X101699819Y-97051066D02*
X101699819Y-97717733D01*
X102747438Y-98003447D02*
X102747438Y-97051066D01*
X102747438Y-97051066D02*
X100747438Y-97051066D01*
X100747438Y-97051066D02*
X100747438Y-98003447D01*
X102747438Y-98860590D02*
X100747438Y-98860590D01*
X100747438Y-98860590D02*
X102747438Y-100003447D01*
X102747438Y-100003447D02*
X100747438Y-100003447D01*
X100747438Y-100670114D02*
X100747438Y-101812971D01*
X102747438Y-101241542D02*
X100747438Y-101241542D01*
X102556961Y-105146305D02*
X102652200Y-105051067D01*
X102652200Y-105051067D02*
X102747438Y-104765353D01*
X102747438Y-104765353D02*
X102747438Y-104574877D01*
X102747438Y-104574877D02*
X102652200Y-104289162D01*
X102652200Y-104289162D02*
X102461723Y-104098686D01*
X102461723Y-104098686D02*
X102271247Y-104003448D01*
X102271247Y-104003448D02*
X101890295Y-103908210D01*
X101890295Y-103908210D02*
X101604580Y-103908210D01*
X101604580Y-103908210D02*
X101223628Y-104003448D01*
X101223628Y-104003448D02*
X101033152Y-104098686D01*
X101033152Y-104098686D02*
X100842676Y-104289162D01*
X100842676Y-104289162D02*
X100747438Y-104574877D01*
X100747438Y-104574877D02*
X100747438Y-104765353D01*
X100747438Y-104765353D02*
X100842676Y-105051067D01*
X100842676Y-105051067D02*
X100937914Y-105146305D01*
X100747438Y-106384400D02*
X100747438Y-106765353D01*
X100747438Y-106765353D02*
X100842676Y-106955829D01*
X100842676Y-106955829D02*
X101033152Y-107146305D01*
X101033152Y-107146305D02*
X101414104Y-107241543D01*
X101414104Y-107241543D02*
X102080771Y-107241543D01*
X102080771Y-107241543D02*
X102461723Y-107146305D01*
X102461723Y-107146305D02*
X102652200Y-106955829D01*
X102652200Y-106955829D02*
X102747438Y-106765353D01*
X102747438Y-106765353D02*
X102747438Y-106384400D01*
X102747438Y-106384400D02*
X102652200Y-106193924D01*
X102652200Y-106193924D02*
X102461723Y-106003448D01*
X102461723Y-106003448D02*
X102080771Y-105908210D01*
X102080771Y-105908210D02*
X101414104Y-105908210D01*
X101414104Y-105908210D02*
X101033152Y-106003448D01*
X101033152Y-106003448D02*
X100842676Y-106193924D01*
X100842676Y-106193924D02*
X100747438Y-106384400D01*
X102747438Y-108098686D02*
X100747438Y-108098686D01*
X100747438Y-108098686D02*
X102747438Y-109241543D01*
X102747438Y-109241543D02*
X100747438Y-109241543D01*
X100747438Y-109908210D02*
X100747438Y-111051067D01*
X102747438Y-110479638D02*
X100747438Y-110479638D01*
X102747438Y-112860591D02*
X101795057Y-112193924D01*
X102747438Y-111717734D02*
X100747438Y-111717734D01*
X100747438Y-111717734D02*
X100747438Y-112479639D01*
X100747438Y-112479639D02*
X100842676Y-112670115D01*
X100842676Y-112670115D02*
X100937914Y-112765353D01*
X100937914Y-112765353D02*
X101128390Y-112860591D01*
X101128390Y-112860591D02*
X101414104Y-112860591D01*
X101414104Y-112860591D02*
X101604580Y-112765353D01*
X101604580Y-112765353D02*
X101699819Y-112670115D01*
X101699819Y-112670115D02*
X101795057Y-112479639D01*
X101795057Y-112479639D02*
X101795057Y-111717734D01*
X100747438Y-114098686D02*
X100747438Y-114479639D01*
X100747438Y-114479639D02*
X100842676Y-114670115D01*
X100842676Y-114670115D02*
X101033152Y-114860591D01*
X101033152Y-114860591D02*
X101414104Y-114955829D01*
X101414104Y-114955829D02*
X102080771Y-114955829D01*
X102080771Y-114955829D02*
X102461723Y-114860591D01*
X102461723Y-114860591D02*
X102652200Y-114670115D01*
X102652200Y-114670115D02*
X102747438Y-114479639D01*
X102747438Y-114479639D02*
X102747438Y-114098686D01*
X102747438Y-114098686D02*
X102652200Y-113908210D01*
X102652200Y-113908210D02*
X102461723Y-113717734D01*
X102461723Y-113717734D02*
X102080771Y-113622496D01*
X102080771Y-113622496D02*
X101414104Y-113622496D01*
X101414104Y-113622496D02*
X101033152Y-113717734D01*
X101033152Y-113717734D02*
X100842676Y-113908210D01*
X100842676Y-113908210D02*
X100747438Y-114098686D01*
X102747438Y-116765353D02*
X102747438Y-115812972D01*
X102747438Y-115812972D02*
X100747438Y-115812972D01*
X104869819Y-70336779D02*
X103869819Y-70336779D01*
X103869819Y-70336779D02*
X104584104Y-70670112D01*
X104584104Y-70670112D02*
X103869819Y-71003445D01*
X103869819Y-71003445D02*
X104869819Y-71003445D01*
X104203152Y-71908207D02*
X104869819Y-71908207D01*
X104203152Y-71479636D02*
X104726961Y-71479636D01*
X104726961Y-71479636D02*
X104822200Y-71527255D01*
X104822200Y-71527255D02*
X104869819Y-71622493D01*
X104869819Y-71622493D02*
X104869819Y-71765350D01*
X104869819Y-71765350D02*
X104822200Y-71860588D01*
X104822200Y-71860588D02*
X104774580Y-71908207D01*
X104822200Y-72765350D02*
X104869819Y-72670112D01*
X104869819Y-72670112D02*
X104869819Y-72479636D01*
X104869819Y-72479636D02*
X104822200Y-72384398D01*
X104822200Y-72384398D02*
X104726961Y-72336779D01*
X104726961Y-72336779D02*
X104346009Y-72336779D01*
X104346009Y-72336779D02*
X104250771Y-72384398D01*
X104250771Y-72384398D02*
X104203152Y-72479636D01*
X104203152Y-72479636D02*
X104203152Y-72670112D01*
X104203152Y-72670112D02*
X104250771Y-72765350D01*
X104250771Y-72765350D02*
X104346009Y-72812969D01*
X104346009Y-72812969D02*
X104441247Y-72812969D01*
X104441247Y-72812969D02*
X104536485Y-72336779D01*
X104869819Y-73384398D02*
X104822200Y-73289160D01*
X104822200Y-73289160D02*
X104726961Y-73241541D01*
X104726961Y-73241541D02*
X103869819Y-73241541D01*
X104869819Y-73908208D02*
X104822200Y-73812970D01*
X104822200Y-73812970D02*
X104726961Y-73765351D01*
X104726961Y-73765351D02*
X103869819Y-73765351D01*
X104822200Y-74670113D02*
X104869819Y-74574875D01*
X104869819Y-74574875D02*
X104869819Y-74384399D01*
X104869819Y-74384399D02*
X104822200Y-74289161D01*
X104822200Y-74289161D02*
X104726961Y-74241542D01*
X104726961Y-74241542D02*
X104346009Y-74241542D01*
X104346009Y-74241542D02*
X104250771Y-74289161D01*
X104250771Y-74289161D02*
X104203152Y-74384399D01*
X104203152Y-74384399D02*
X104203152Y-74574875D01*
X104203152Y-74574875D02*
X104250771Y-74670113D01*
X104250771Y-74670113D02*
X104346009Y-74717732D01*
X104346009Y-74717732D02*
X104441247Y-74717732D01*
X104441247Y-74717732D02*
X104536485Y-74241542D01*
X104869819Y-75146304D02*
X104203152Y-75146304D01*
X104393628Y-75146304D02*
X104298390Y-75193923D01*
X104298390Y-75193923D02*
X104250771Y-75241542D01*
X104250771Y-75241542D02*
X104203152Y-75336780D01*
X104203152Y-75336780D02*
X104203152Y-75432018D01*
X103917438Y-77051066D02*
X103869819Y-76955828D01*
X103869819Y-76955828D02*
X103869819Y-76812971D01*
X103869819Y-76812971D02*
X103917438Y-76670114D01*
X103917438Y-76670114D02*
X104012676Y-76574876D01*
X104012676Y-76574876D02*
X104107914Y-76527257D01*
X104107914Y-76527257D02*
X104298390Y-76479638D01*
X104298390Y-76479638D02*
X104441247Y-76479638D01*
X104441247Y-76479638D02*
X104631723Y-76527257D01*
X104631723Y-76527257D02*
X104726961Y-76574876D01*
X104726961Y-76574876D02*
X104822200Y-76670114D01*
X104822200Y-76670114D02*
X104869819Y-76812971D01*
X104869819Y-76812971D02*
X104869819Y-76908209D01*
X104869819Y-76908209D02*
X104822200Y-77051066D01*
X104822200Y-77051066D02*
X104774580Y-77098685D01*
X104774580Y-77098685D02*
X104441247Y-77098685D01*
X104441247Y-77098685D02*
X104441247Y-76908209D01*
X104869819Y-77527257D02*
X104203152Y-77527257D01*
X104393628Y-77527257D02*
X104298390Y-77574876D01*
X104298390Y-77574876D02*
X104250771Y-77622495D01*
X104250771Y-77622495D02*
X104203152Y-77717733D01*
X104203152Y-77717733D02*
X104203152Y-77812971D01*
X104869819Y-78289162D02*
X104822200Y-78193924D01*
X104822200Y-78193924D02*
X104774580Y-78146305D01*
X104774580Y-78146305D02*
X104679342Y-78098686D01*
X104679342Y-78098686D02*
X104393628Y-78098686D01*
X104393628Y-78098686D02*
X104298390Y-78146305D01*
X104298390Y-78146305D02*
X104250771Y-78193924D01*
X104250771Y-78193924D02*
X104203152Y-78289162D01*
X104203152Y-78289162D02*
X104203152Y-78432019D01*
X104203152Y-78432019D02*
X104250771Y-78527257D01*
X104250771Y-78527257D02*
X104298390Y-78574876D01*
X104298390Y-78574876D02*
X104393628Y-78622495D01*
X104393628Y-78622495D02*
X104679342Y-78622495D01*
X104679342Y-78622495D02*
X104774580Y-78574876D01*
X104774580Y-78574876D02*
X104822200Y-78527257D01*
X104822200Y-78527257D02*
X104869819Y-78432019D01*
X104869819Y-78432019D02*
X104869819Y-78289162D01*
X104203152Y-79479638D02*
X104869819Y-79479638D01*
X104203152Y-79051067D02*
X104726961Y-79051067D01*
X104726961Y-79051067D02*
X104822200Y-79098686D01*
X104822200Y-79098686D02*
X104869819Y-79193924D01*
X104869819Y-79193924D02*
X104869819Y-79336781D01*
X104869819Y-79336781D02*
X104822200Y-79432019D01*
X104822200Y-79432019D02*
X104774580Y-79479638D01*
X104203152Y-79955829D02*
X105203152Y-79955829D01*
X104250771Y-79955829D02*
X104203152Y-80051067D01*
X104203152Y-80051067D02*
X104203152Y-80241543D01*
X104203152Y-80241543D02*
X104250771Y-80336781D01*
X104250771Y-80336781D02*
X104298390Y-80384400D01*
X104298390Y-80384400D02*
X104393628Y-80432019D01*
X104393628Y-80432019D02*
X104679342Y-80432019D01*
X104679342Y-80432019D02*
X104774580Y-80384400D01*
X104774580Y-80384400D02*
X104822200Y-80336781D01*
X104822200Y-80336781D02*
X104869819Y-80241543D01*
X104869819Y-80241543D02*
X104869819Y-80051067D01*
X104869819Y-80051067D02*
X104822200Y-79955829D01*
X104822200Y-80908210D02*
X104869819Y-80908210D01*
X104869819Y-80908210D02*
X104965057Y-80860591D01*
X104965057Y-80860591D02*
X105012676Y-80812972D01*
X103869819Y-82098686D02*
X104679342Y-82098686D01*
X104679342Y-82098686D02*
X104774580Y-82146305D01*
X104774580Y-82146305D02*
X104822200Y-82193924D01*
X104822200Y-82193924D02*
X104869819Y-82289162D01*
X104869819Y-82289162D02*
X104869819Y-82479638D01*
X104869819Y-82479638D02*
X104822200Y-82574876D01*
X104822200Y-82574876D02*
X104774580Y-82622495D01*
X104774580Y-82622495D02*
X104679342Y-82670114D01*
X104679342Y-82670114D02*
X103869819Y-82670114D01*
X104774580Y-83717733D02*
X104822200Y-83670114D01*
X104822200Y-83670114D02*
X104869819Y-83527257D01*
X104869819Y-83527257D02*
X104869819Y-83432019D01*
X104869819Y-83432019D02*
X104822200Y-83289162D01*
X104822200Y-83289162D02*
X104726961Y-83193924D01*
X104726961Y-83193924D02*
X104631723Y-83146305D01*
X104631723Y-83146305D02*
X104441247Y-83098686D01*
X104441247Y-83098686D02*
X104298390Y-83098686D01*
X104298390Y-83098686D02*
X104107914Y-83146305D01*
X104107914Y-83146305D02*
X104012676Y-83193924D01*
X104012676Y-83193924D02*
X103917438Y-83289162D01*
X103917438Y-83289162D02*
X103869819Y-83432019D01*
X103869819Y-83432019D02*
X103869819Y-83527257D01*
X103869819Y-83527257D02*
X103917438Y-83670114D01*
X103917438Y-83670114D02*
X103965057Y-83717733D01*
X104346009Y-85241543D02*
X104393628Y-85384400D01*
X104393628Y-85384400D02*
X104441247Y-85432019D01*
X104441247Y-85432019D02*
X104536485Y-85479638D01*
X104536485Y-85479638D02*
X104679342Y-85479638D01*
X104679342Y-85479638D02*
X104774580Y-85432019D01*
X104774580Y-85432019D02*
X104822200Y-85384400D01*
X104822200Y-85384400D02*
X104869819Y-85289162D01*
X104869819Y-85289162D02*
X104869819Y-84908210D01*
X104869819Y-84908210D02*
X103869819Y-84908210D01*
X103869819Y-84908210D02*
X103869819Y-85241543D01*
X103869819Y-85241543D02*
X103917438Y-85336781D01*
X103917438Y-85336781D02*
X103965057Y-85384400D01*
X103965057Y-85384400D02*
X104060295Y-85432019D01*
X104060295Y-85432019D02*
X104155533Y-85432019D01*
X104155533Y-85432019D02*
X104250771Y-85384400D01*
X104250771Y-85384400D02*
X104298390Y-85336781D01*
X104298390Y-85336781D02*
X104346009Y-85241543D01*
X104346009Y-85241543D02*
X104346009Y-84908210D01*
X104822200Y-86289162D02*
X104869819Y-86193924D01*
X104869819Y-86193924D02*
X104869819Y-86003448D01*
X104869819Y-86003448D02*
X104822200Y-85908210D01*
X104822200Y-85908210D02*
X104726961Y-85860591D01*
X104726961Y-85860591D02*
X104346009Y-85860591D01*
X104346009Y-85860591D02*
X104250771Y-85908210D01*
X104250771Y-85908210D02*
X104203152Y-86003448D01*
X104203152Y-86003448D02*
X104203152Y-86193924D01*
X104203152Y-86193924D02*
X104250771Y-86289162D01*
X104250771Y-86289162D02*
X104346009Y-86336781D01*
X104346009Y-86336781D02*
X104441247Y-86336781D01*
X104441247Y-86336781D02*
X104536485Y-85860591D01*
X104869819Y-86765353D02*
X104203152Y-86765353D01*
X104393628Y-86765353D02*
X104298390Y-86812972D01*
X104298390Y-86812972D02*
X104250771Y-86860591D01*
X104250771Y-86860591D02*
X104203152Y-86955829D01*
X104203152Y-86955829D02*
X104203152Y-87051067D01*
X104869819Y-87384401D02*
X103869819Y-87384401D01*
X104488866Y-87479639D02*
X104869819Y-87765353D01*
X104203152Y-87765353D02*
X104584104Y-87384401D01*
X104822200Y-88574877D02*
X104869819Y-88479639D01*
X104869819Y-88479639D02*
X104869819Y-88289163D01*
X104869819Y-88289163D02*
X104822200Y-88193925D01*
X104822200Y-88193925D02*
X104726961Y-88146306D01*
X104726961Y-88146306D02*
X104346009Y-88146306D01*
X104346009Y-88146306D02*
X104250771Y-88193925D01*
X104250771Y-88193925D02*
X104203152Y-88289163D01*
X104203152Y-88289163D02*
X104203152Y-88479639D01*
X104203152Y-88479639D02*
X104250771Y-88574877D01*
X104250771Y-88574877D02*
X104346009Y-88622496D01*
X104346009Y-88622496D02*
X104441247Y-88622496D01*
X104441247Y-88622496D02*
X104536485Y-88146306D01*
X104869819Y-89193925D02*
X104822200Y-89098687D01*
X104822200Y-89098687D02*
X104726961Y-89051068D01*
X104726961Y-89051068D02*
X103869819Y-89051068D01*
X104822200Y-89955830D02*
X104869819Y-89860592D01*
X104869819Y-89860592D02*
X104869819Y-89670116D01*
X104869819Y-89670116D02*
X104822200Y-89574878D01*
X104822200Y-89574878D02*
X104726961Y-89527259D01*
X104726961Y-89527259D02*
X104346009Y-89527259D01*
X104346009Y-89527259D02*
X104250771Y-89574878D01*
X104250771Y-89574878D02*
X104203152Y-89670116D01*
X104203152Y-89670116D02*
X104203152Y-89860592D01*
X104203152Y-89860592D02*
X104250771Y-89955830D01*
X104250771Y-89955830D02*
X104346009Y-90003449D01*
X104346009Y-90003449D02*
X104441247Y-90003449D01*
X104441247Y-90003449D02*
X104536485Y-89527259D01*
X104203152Y-90336783D02*
X104869819Y-90574878D01*
X104203152Y-90812973D02*
X104869819Y-90574878D01*
X104869819Y-90574878D02*
X105107914Y-90479640D01*
X105107914Y-90479640D02*
X105155533Y-90432021D01*
X105155533Y-90432021D02*
X105203152Y-90336783D01*
X193380951Y-60869819D02*
X193380951Y-59869819D01*
X193380951Y-59869819D02*
X193047618Y-60584104D01*
X193047618Y-60584104D02*
X192714285Y-59869819D01*
X192714285Y-59869819D02*
X192714285Y-60869819D01*
X192333332Y-59869819D02*
X191714285Y-59869819D01*
X191714285Y-59869819D02*
X192047618Y-60250771D01*
X192047618Y-60250771D02*
X191904761Y-60250771D01*
X191904761Y-60250771D02*
X191809523Y-60298390D01*
X191809523Y-60298390D02*
X191761904Y-60346009D01*
X191761904Y-60346009D02*
X191714285Y-60441247D01*
X191714285Y-60441247D02*
X191714285Y-60679342D01*
X191714285Y-60679342D02*
X191761904Y-60774580D01*
X191761904Y-60774580D02*
X191809523Y-60822200D01*
X191809523Y-60822200D02*
X191904761Y-60869819D01*
X191904761Y-60869819D02*
X192190475Y-60869819D01*
X192190475Y-60869819D02*
X192285713Y-60822200D01*
X192285713Y-60822200D02*
X192333332Y-60774580D01*
X190571428Y-59822200D02*
X191428570Y-61107914D01*
X189809523Y-60203152D02*
X189809523Y-60869819D01*
X190047618Y-59822200D02*
X190285713Y-60536485D01*
X190285713Y-60536485D02*
X189666666Y-60536485D01*
X189285713Y-60488866D02*
X188523809Y-60488866D01*
X187619047Y-60203152D02*
X187619047Y-60869819D01*
X187857142Y-59822200D02*
X188095237Y-60536485D01*
X188095237Y-60536485D02*
X187476190Y-60536485D01*
X186904761Y-59869819D02*
X186809523Y-59869819D01*
X186809523Y-59869819D02*
X186714285Y-59917438D01*
X186714285Y-59917438D02*
X186666666Y-59965057D01*
X186666666Y-59965057D02*
X186619047Y-60060295D01*
X186619047Y-60060295D02*
X186571428Y-60250771D01*
X186571428Y-60250771D02*
X186571428Y-60488866D01*
X186571428Y-60488866D02*
X186619047Y-60679342D01*
X186619047Y-60679342D02*
X186666666Y-60774580D01*
X186666666Y-60774580D02*
X186714285Y-60822200D01*
X186714285Y-60822200D02*
X186809523Y-60869819D01*
X186809523Y-60869819D02*
X186904761Y-60869819D01*
X186904761Y-60869819D02*
X186999999Y-60822200D01*
X186999999Y-60822200D02*
X187047618Y-60774580D01*
X187047618Y-60774580D02*
X187095237Y-60679342D01*
X187095237Y-60679342D02*
X187142856Y-60488866D01*
X187142856Y-60488866D02*
X187142856Y-60250771D01*
X187142856Y-60250771D02*
X187095237Y-60060295D01*
X187095237Y-60060295D02*
X187047618Y-59965057D01*
X187047618Y-59965057D02*
X186999999Y-59917438D01*
X186999999Y-59917438D02*
X186904761Y-59869819D01*
X191380180Y-102142856D02*
X191380180Y-101476190D01*
X191380180Y-101476190D02*
X190380180Y-101904761D01*
X191380180Y-100904761D02*
X191380180Y-100809523D01*
X191380180Y-100809523D02*
X191332561Y-100714285D01*
X191332561Y-100714285D02*
X191284942Y-100666666D01*
X191284942Y-100666666D02*
X191189704Y-100619047D01*
X191189704Y-100619047D02*
X190999228Y-100571428D01*
X190999228Y-100571428D02*
X190761133Y-100571428D01*
X190761133Y-100571428D02*
X190570657Y-100619047D01*
X190570657Y-100619047D02*
X190475419Y-100666666D01*
X190475419Y-100666666D02*
X190427800Y-100714285D01*
X190427800Y-100714285D02*
X190380180Y-100809523D01*
X190380180Y-100809523D02*
X190380180Y-100904761D01*
X190380180Y-100904761D02*
X190427800Y-100999999D01*
X190427800Y-100999999D02*
X190475419Y-101047618D01*
X190475419Y-101047618D02*
X190570657Y-101095237D01*
X190570657Y-101095237D02*
X190761133Y-101142856D01*
X190761133Y-101142856D02*
X190999228Y-101142856D01*
X190999228Y-101142856D02*
X191189704Y-101095237D01*
X191189704Y-101095237D02*
X191284942Y-101047618D01*
X191284942Y-101047618D02*
X191332561Y-100999999D01*
X191332561Y-100999999D02*
X191380180Y-100904761D01*
X190380180Y-100142856D02*
X191046847Y-100142856D01*
X190951609Y-100142856D02*
X190999228Y-100095237D01*
X190999228Y-100095237D02*
X191046847Y-99999999D01*
X191046847Y-99999999D02*
X191046847Y-99857142D01*
X191046847Y-99857142D02*
X190999228Y-99761904D01*
X190999228Y-99761904D02*
X190903990Y-99714285D01*
X190903990Y-99714285D02*
X190380180Y-99714285D01*
X190903990Y-99714285D02*
X190999228Y-99666666D01*
X190999228Y-99666666D02*
X191046847Y-99571428D01*
X191046847Y-99571428D02*
X191046847Y-99428571D01*
X191046847Y-99428571D02*
X190999228Y-99333332D01*
X190999228Y-99333332D02*
X190903990Y-99285713D01*
X190903990Y-99285713D02*
X190380180Y-99285713D01*
X190380180Y-98809523D02*
X191046847Y-98809523D01*
X190951609Y-98809523D02*
X190999228Y-98761904D01*
X190999228Y-98761904D02*
X191046847Y-98666666D01*
X191046847Y-98666666D02*
X191046847Y-98523809D01*
X191046847Y-98523809D02*
X190999228Y-98428571D01*
X190999228Y-98428571D02*
X190903990Y-98380952D01*
X190903990Y-98380952D02*
X190380180Y-98380952D01*
X190903990Y-98380952D02*
X190999228Y-98333333D01*
X190999228Y-98333333D02*
X191046847Y-98238095D01*
X191046847Y-98238095D02*
X191046847Y-98095238D01*
X191046847Y-98095238D02*
X190999228Y-97999999D01*
X190999228Y-97999999D02*
X190903990Y-97952380D01*
X190903990Y-97952380D02*
X190380180Y-97952380D01*
X151904761Y-64048390D02*
X151999999Y-64000771D01*
X151999999Y-64000771D02*
X152047618Y-63953152D01*
X152047618Y-63953152D02*
X152095237Y-63857914D01*
X152095237Y-63857914D02*
X152095237Y-63810295D01*
X152095237Y-63810295D02*
X152047618Y-63715057D01*
X152047618Y-63715057D02*
X151999999Y-63667438D01*
X151999999Y-63667438D02*
X151904761Y-63619819D01*
X151904761Y-63619819D02*
X151714285Y-63619819D01*
X151714285Y-63619819D02*
X151619047Y-63667438D01*
X151619047Y-63667438D02*
X151571428Y-63715057D01*
X151571428Y-63715057D02*
X151523809Y-63810295D01*
X151523809Y-63810295D02*
X151523809Y-63857914D01*
X151523809Y-63857914D02*
X151571428Y-63953152D01*
X151571428Y-63953152D02*
X151619047Y-64000771D01*
X151619047Y-64000771D02*
X151714285Y-64048390D01*
X151714285Y-64048390D02*
X151904761Y-64048390D01*
X151904761Y-64048390D02*
X151999999Y-64096009D01*
X151999999Y-64096009D02*
X152047618Y-64143628D01*
X152047618Y-64143628D02*
X152095237Y-64238866D01*
X152095237Y-64238866D02*
X152095237Y-64429342D01*
X152095237Y-64429342D02*
X152047618Y-64524580D01*
X152047618Y-64524580D02*
X151999999Y-64572200D01*
X151999999Y-64572200D02*
X151904761Y-64619819D01*
X151904761Y-64619819D02*
X151714285Y-64619819D01*
X151714285Y-64619819D02*
X151619047Y-64572200D01*
X151619047Y-64572200D02*
X151571428Y-64524580D01*
X151571428Y-64524580D02*
X151523809Y-64429342D01*
X151523809Y-64429342D02*
X151523809Y-64238866D01*
X151523809Y-64238866D02*
X151571428Y-64143628D01*
X151571428Y-64143628D02*
X151619047Y-64096009D01*
X151619047Y-64096009D02*
X151714285Y-64048390D01*
X150904761Y-63619819D02*
X150809523Y-63619819D01*
X150809523Y-63619819D02*
X150714285Y-63667438D01*
X150714285Y-63667438D02*
X150666666Y-63715057D01*
X150666666Y-63715057D02*
X150619047Y-63810295D01*
X150619047Y-63810295D02*
X150571428Y-64000771D01*
X150571428Y-64000771D02*
X150571428Y-64238866D01*
X150571428Y-64238866D02*
X150619047Y-64429342D01*
X150619047Y-64429342D02*
X150666666Y-64524580D01*
X150666666Y-64524580D02*
X150714285Y-64572200D01*
X150714285Y-64572200D02*
X150809523Y-64619819D01*
X150809523Y-64619819D02*
X150904761Y-64619819D01*
X150904761Y-64619819D02*
X150999999Y-64572200D01*
X150999999Y-64572200D02*
X151047618Y-64524580D01*
X151047618Y-64524580D02*
X151095237Y-64429342D01*
X151095237Y-64429342D02*
X151142856Y-64238866D01*
X151142856Y-64238866D02*
X151142856Y-64000771D01*
X151142856Y-64000771D02*
X151095237Y-63810295D01*
X151095237Y-63810295D02*
X151047618Y-63715057D01*
X151047618Y-63715057D02*
X150999999Y-63667438D01*
X150999999Y-63667438D02*
X150904761Y-63619819D01*
X150142856Y-64619819D02*
X150142856Y-63953152D01*
X150142856Y-64048390D02*
X150095237Y-64000771D01*
X150095237Y-64000771D02*
X149999999Y-63953152D01*
X149999999Y-63953152D02*
X149857142Y-63953152D01*
X149857142Y-63953152D02*
X149761904Y-64000771D01*
X149761904Y-64000771D02*
X149714285Y-64096009D01*
X149714285Y-64096009D02*
X149714285Y-64619819D01*
X149714285Y-64096009D02*
X149666666Y-64000771D01*
X149666666Y-64000771D02*
X149571428Y-63953152D01*
X149571428Y-63953152D02*
X149428571Y-63953152D01*
X149428571Y-63953152D02*
X149333332Y-64000771D01*
X149333332Y-64000771D02*
X149285713Y-64096009D01*
X149285713Y-64096009D02*
X149285713Y-64619819D01*
X148809523Y-64619819D02*
X148809523Y-63953152D01*
X148809523Y-64048390D02*
X148761904Y-64000771D01*
X148761904Y-64000771D02*
X148666666Y-63953152D01*
X148666666Y-63953152D02*
X148523809Y-63953152D01*
X148523809Y-63953152D02*
X148428571Y-64000771D01*
X148428571Y-64000771D02*
X148380952Y-64096009D01*
X148380952Y-64096009D02*
X148380952Y-64619819D01*
X148380952Y-64096009D02*
X148333333Y-64000771D01*
X148333333Y-64000771D02*
X148238095Y-63953152D01*
X148238095Y-63953152D02*
X148095238Y-63953152D01*
X148095238Y-63953152D02*
X147999999Y-64000771D01*
X147999999Y-64000771D02*
X147952380Y-64096009D01*
X147952380Y-64096009D02*
X147952380Y-64619819D01*
%LPC*%
D11*
X132080000Y-104140000D03*
D12*
X132080000Y-114300000D03*
D13*
X177800000Y-124465000D03*
D14*
X177800000Y-93985000D03*
D15*
X152400000Y-134620000D03*
D16*
X154940000Y-134620000D03*
X157480000Y-134620000D03*
D11*
X124460000Y-129540000D03*
D12*
X124460000Y-119380000D03*
D17*
X144780000Y-119380000D03*
D18*
X144780000Y-129540000D03*
D19*
X185620000Y-146930000D03*
X194380000Y-146930000D03*
D17*
X114300000Y-119380000D03*
D18*
X114300000Y-129540000D03*
D11*
X132080000Y-86360000D03*
X132080000Y-81360000D03*
D20*
X146900000Y-55000000D03*
D21*
X151700000Y-55000000D03*
X156500000Y-55000000D03*
X161300000Y-55000000D03*
X166100000Y-55000000D03*
D11*
X137080000Y-73660000D03*
X132080000Y-73660000D03*
D22*
X141000000Y-55500000D03*
D23*
X139500000Y-55500000D03*
X138000000Y-55500000D03*
X136500000Y-55500000D03*
X135000000Y-55500000D03*
X133500000Y-55500000D03*
X132000000Y-55500000D03*
X130500000Y-55500000D03*
X129000000Y-55500000D03*
X127500000Y-55500000D03*
D24*
X177800000Y-76200000D03*
D25*
X182880000Y-76200000D03*
D11*
X137240000Y-83820000D03*
X142240000Y-83820000D03*
D26*
X147320000Y-76200000D03*
D27*
X147320000Y-78740000D03*
X147320000Y-81280000D03*
X147320000Y-83820000D03*
X154940000Y-83820000D03*
X154940000Y-81280000D03*
X154940000Y-78740000D03*
X154940000Y-76200000D03*
D28*
X190000000Y-135000000D03*
X110000000Y-65000000D03*
D19*
X137620000Y-146930000D03*
X146380000Y-146930000D03*
D13*
X165100000Y-124465000D03*
D14*
X165100000Y-93985000D03*
D11*
X137240000Y-86360000D03*
X142240000Y-86360000D03*
D15*
X177800000Y-134620000D03*
D16*
X180340000Y-134620000D03*
X182880000Y-134620000D03*
D28*
X190000000Y-65000000D03*
D17*
X129540000Y-119380000D03*
D18*
X129540000Y-129540000D03*
D11*
X152320000Y-71120000D03*
X147320000Y-71120000D03*
X137160000Y-114300000D03*
D12*
X137160000Y-104140000D03*
D28*
X110000000Y-135000000D03*
D11*
X109300000Y-83820000D03*
X114300000Y-83820000D03*
X109300000Y-86360000D03*
X114300000Y-86360000D03*
D19*
X121620000Y-146930000D03*
X130380000Y-146930000D03*
D11*
X139700000Y-129540000D03*
D12*
X139700000Y-119380000D03*
D11*
X111760000Y-104140000D03*
D12*
X111760000Y-114300000D03*
D26*
X119380000Y-76200000D03*
D27*
X119380000Y-78740000D03*
X119380000Y-81280000D03*
X119380000Y-83820000D03*
X127000000Y-83820000D03*
X127000000Y-81280000D03*
X127000000Y-78740000D03*
X127000000Y-76200000D03*
D11*
X121920000Y-104140000D03*
D12*
X121920000Y-114300000D03*
D22*
X121000000Y-55500000D03*
D23*
X119500000Y-55500000D03*
X118000000Y-55500000D03*
X116500000Y-55500000D03*
X115000000Y-55500000D03*
X113500000Y-55500000D03*
X112000000Y-55500000D03*
X110500000Y-55500000D03*
X109000000Y-55500000D03*
X107500000Y-55500000D03*
D11*
X116840000Y-114300000D03*
D12*
X116840000Y-104140000D03*
D11*
X114300000Y-78740000D03*
X114300000Y-73740000D03*
D19*
X153620000Y-146930000D03*
X162380000Y-146930000D03*
D11*
X165020000Y-76200000D03*
X160020000Y-76200000D03*
D19*
X169620000Y-146930000D03*
X178380000Y-146930000D03*
D13*
X152400000Y-124460000D03*
D14*
X152400000Y-93980000D03*
D15*
X165100000Y-134620000D03*
D16*
X167640000Y-134620000D03*
X170180000Y-134620000D03*
D11*
X165020000Y-73660000D03*
X160020000Y-73660000D03*
X127000000Y-114300000D03*
D12*
X127000000Y-104140000D03*
D11*
X137080000Y-76200000D03*
X132080000Y-76200000D03*
D19*
X105620000Y-146930000D03*
X114380000Y-146930000D03*
D11*
X106680000Y-129540000D03*
D12*
X106680000Y-119380000D03*
%LPD*%
M02*
