G04 #@! TF.GenerationSoftware,KiCad,Pcbnew,9.0.0*
G04 #@! TF.CreationDate,2025-06-03T11:33:59-07:00*
G04 #@! TF.ProjectId,bias_coil,62696173-5f63-46f6-996c-2e6b69636164,rev?*
G04 #@! TF.SameCoordinates,Original*
G04 #@! TF.FileFunction,Soldermask,Top*
G04 #@! TF.FilePolarity,Negative*
%FSLAX46Y46*%
G04 Gerber Fmt 4.6, Leading zero omitted, Abs format (unit mm)*
G04 Created by KiCad (PCBNEW 9.0.0) date 2025-06-03 11:33:59*
%MOMM*%
%LPD*%
G01*
G04 APERTURE LIST*
G04 Aperture macros list*
%AMRoundRect*
0 Rectangle with rounded corners*
0 $1 Rounding radius*
0 $2 $3 $4 $5 $6 $7 $8 $9 X,Y pos of 4 corners*
0 Add a 4 corners polygon primitive as box body*
4,1,4,$2,$3,$4,$5,$6,$7,$8,$9,$2,$3,0*
0 Add four circle primitives for the rounded corners*
1,1,$1+$1,$2,$3*
1,1,$1+$1,$4,$5*
1,1,$1+$1,$6,$7*
1,1,$1+$1,$8,$9*
0 Add four rect primitives between the rounded corners*
20,1,$1+$1,$2,$3,$4,$5,0*
20,1,$1+$1,$4,$5,$6,$7,0*
20,1,$1+$1,$6,$7,$8,$9,0*
20,1,$1+$1,$8,$9,$2,$3,0*%
G04 Aperture macros list end*
%ADD10C,1.600000*%
%ADD11O,1.600000X1.600000*%
%ADD12C,2.400000*%
%ADD13O,2.400000X2.400000*%
%ADD14R,1.905000X2.000000*%
%ADD15O,1.905000X2.000000*%
%ADD16R,1.800000X1.800000*%
%ADD17O,1.800000X1.800000*%
%ADD18R,2.290000X5.080000*%
%ADD19R,2.420000X5.080000*%
%ADD20RoundRect,0.249999X-1.025001X-1.025001X1.025001X-1.025001X1.025001X1.025001X-1.025001X1.025001X0*%
%ADD21C,2.550000*%
%ADD22RoundRect,0.250000X0.265000X0.615000X-0.265000X0.615000X-0.265000X-0.615000X0.265000X-0.615000X0*%
%ADD23O,1.030000X1.730000*%
%ADD24R,3.000000X3.000000*%
%ADD25C,3.000000*%
%ADD26RoundRect,0.250000X-0.950000X-0.550000X0.950000X-0.550000X0.950000X0.550000X-0.950000X0.550000X0*%
%ADD27O,2.400000X1.600000*%
%ADD28C,3.200000*%
G04 APERTURE END LIST*
D10*
X132080000Y-104140000D03*
D11*
X132080000Y-114300000D03*
D12*
X177800000Y-124465000D03*
D13*
X177800000Y-93985000D03*
D14*
X152400000Y-134620000D03*
D15*
X154940000Y-134620000D03*
X157480000Y-134620000D03*
D10*
X124460000Y-129540000D03*
D11*
X124460000Y-119380000D03*
D16*
X144780000Y-119380000D03*
D17*
X144780000Y-129540000D03*
D18*
X190000000Y-146930000D03*
D19*
X185620000Y-146930000D03*
X194380000Y-146930000D03*
D16*
X114300000Y-119380000D03*
D17*
X114300000Y-129540000D03*
D10*
X132080000Y-86360000D03*
X132080000Y-81360000D03*
D20*
X146900000Y-55000000D03*
D21*
X151700000Y-55000000D03*
X156500000Y-55000000D03*
X161300000Y-55000000D03*
X166100000Y-55000000D03*
D10*
X137080000Y-73660000D03*
X132080000Y-73660000D03*
D22*
X141000000Y-55500000D03*
D23*
X139500000Y-55500000D03*
X138000000Y-55500000D03*
X136500000Y-55500000D03*
X135000000Y-55500000D03*
X133500000Y-55500000D03*
X132000000Y-55500000D03*
X130500000Y-55500000D03*
X129000000Y-55500000D03*
X127500000Y-55500000D03*
D24*
X177800000Y-76200000D03*
D25*
X182880000Y-76200000D03*
D10*
X137240000Y-83820000D03*
X142240000Y-83820000D03*
D26*
X147320000Y-76200000D03*
D27*
X147320000Y-78740000D03*
X147320000Y-81280000D03*
X147320000Y-83820000D03*
X154940000Y-83820000D03*
X154940000Y-81280000D03*
X154940000Y-78740000D03*
X154940000Y-76200000D03*
D28*
X190000000Y-135000000D03*
X110000000Y-65000000D03*
D18*
X142000000Y-146930000D03*
D19*
X137620000Y-146930000D03*
X146380000Y-146930000D03*
D12*
X165100000Y-124465000D03*
D13*
X165100000Y-93985000D03*
D10*
X137240000Y-86360000D03*
X142240000Y-86360000D03*
D14*
X177800000Y-134620000D03*
D15*
X180340000Y-134620000D03*
X182880000Y-134620000D03*
D28*
X190000000Y-65000000D03*
D16*
X129540000Y-119380000D03*
D17*
X129540000Y-129540000D03*
D10*
X152320000Y-71120000D03*
X147320000Y-71120000D03*
X137160000Y-114300000D03*
D11*
X137160000Y-104140000D03*
D28*
X110000000Y-135000000D03*
D10*
X109300000Y-83820000D03*
X114300000Y-83820000D03*
X109300000Y-86360000D03*
X114300000Y-86360000D03*
D18*
X126000000Y-146930000D03*
D19*
X121620000Y-146930000D03*
X130380000Y-146930000D03*
D10*
X139700000Y-129540000D03*
D11*
X139700000Y-119380000D03*
D10*
X111760000Y-104140000D03*
D11*
X111760000Y-114300000D03*
D26*
X119380000Y-76200000D03*
D27*
X119380000Y-78740000D03*
X119380000Y-81280000D03*
X119380000Y-83820000D03*
X127000000Y-83820000D03*
X127000000Y-81280000D03*
X127000000Y-78740000D03*
X127000000Y-76200000D03*
D10*
X121920000Y-104140000D03*
D11*
X121920000Y-114300000D03*
D22*
X121000000Y-55500000D03*
D23*
X119500000Y-55500000D03*
X118000000Y-55500000D03*
X116500000Y-55500000D03*
X115000000Y-55500000D03*
X113500000Y-55500000D03*
X112000000Y-55500000D03*
X110500000Y-55500000D03*
X109000000Y-55500000D03*
X107500000Y-55500000D03*
D10*
X116840000Y-114300000D03*
D11*
X116840000Y-104140000D03*
D10*
X114300000Y-78740000D03*
X114300000Y-73740000D03*
D18*
X158000000Y-146930000D03*
D19*
X153620000Y-146930000D03*
X162380000Y-146930000D03*
D10*
X165020000Y-76200000D03*
X160020000Y-76200000D03*
D18*
X174000000Y-146930000D03*
D19*
X169620000Y-146930000D03*
X178380000Y-146930000D03*
D12*
X152400000Y-124460000D03*
D13*
X152400000Y-93980000D03*
D14*
X165100000Y-134620000D03*
D15*
X167640000Y-134620000D03*
X170180000Y-134620000D03*
D10*
X165020000Y-73660000D03*
X160020000Y-73660000D03*
X127000000Y-114300000D03*
D11*
X127000000Y-104140000D03*
D10*
X137080000Y-76200000D03*
X132080000Y-76200000D03*
D18*
X110000000Y-146930000D03*
D19*
X105620000Y-146930000D03*
X114380000Y-146930000D03*
D10*
X106680000Y-129540000D03*
D11*
X106680000Y-119380000D03*
M02*
