M48
; DRILL file {KiCad 9.0.0} date 2025-06-03T11:40:01-0700
; FORMAT={-:-/ absolute / metric / decimal}
; #@! TF.CreationDate,2025-06-03T11:40:01-07:00
; #@! TF.GenerationSoftware,Kicad,Pcbnew,9.0.0
; #@! TF.FileFunction,Plated,1,4,PTH
FMAT,2
METRIC
; #@! TA.AperFunction,Plated,PTH,ViaDrill
T1C0.400
; #@! TA.AperFunction,Plated,PTH,ComponentDrill
T2C0.460
; #@! TA.AperFunction,Plated,PTH,ComponentDrill
T3C0.730
; #@! TA.AperFunction,Plated,PTH,ComponentDrill
T4C0.800
; #@! TA.AperFunction,Plated,PTH,ComponentDrill
T5C0.900
; #@! TA.AperFunction,Plated,PTH,ComponentDrill
T6C1.100
; #@! TA.AperFunction,Plated,PTH,ComponentDrill
T7C1.200
; #@! TA.AperFunction,Plated,PTH,ComponentDrill
T8C1.520
; #@! TA.AperFunction,Plated,PTH,ComponentDrill
T9C1.550
%
G90
G05
T1
X109.0Y-52.5
X112.0Y-51.0
X116.5Y-51.0
X119.5Y-52.5
X129.0Y-52.5
X132.0Y-51.0
X136.5Y-51.0
X139.5Y-52.5
T2
X105.62Y-143.49
X114.38Y-143.49
X121.62Y-143.49
X130.38Y-143.49
X137.62Y-143.49
X146.38Y-143.49
X153.62Y-143.49
X162.38Y-143.49
X169.62Y-143.49
X178.38Y-143.49
X185.62Y-143.49
X194.38Y-143.49
T3
X107.5Y-55.5
X109.0Y-55.5
X110.5Y-55.5
X112.0Y-55.5
X113.5Y-55.5
X115.0Y-55.5
X116.5Y-55.5
X118.0Y-55.5
X119.5Y-55.5
X121.0Y-55.5
X127.5Y-55.5
X129.0Y-55.5
X130.5Y-55.5
X132.0Y-55.5
X133.5Y-55.5
X135.0Y-55.5
X136.5Y-55.5
X138.0Y-55.5
X139.5Y-55.5
X141.0Y-55.5
T4
X106.68Y-119.38
X106.68Y-129.54
X109.3Y-83.82
X109.3Y-86.36
X111.76Y-104.14
X111.76Y-114.3
X114.3Y-73.74
X114.3Y-78.74
X114.3Y-83.82
X114.3Y-86.36
X116.84Y-104.14
X116.84Y-114.3
X119.38Y-76.2
X119.38Y-78.74
X119.38Y-81.28
X119.38Y-83.82
X121.92Y-104.14
X121.92Y-114.3
X124.46Y-119.38
X124.46Y-129.54
X127.0Y-76.2
X127.0Y-78.74
X127.0Y-81.28
X127.0Y-83.82
X127.0Y-104.14
X127.0Y-114.3
X132.08Y-73.66
X132.08Y-76.2
X132.08Y-81.36
X132.08Y-86.36
X132.08Y-104.14
X132.08Y-114.3
X137.08Y-73.66
X137.08Y-76.2
X137.16Y-104.14
X137.16Y-114.3
X137.24Y-83.82
X137.24Y-86.36
X139.7Y-119.38
X139.7Y-129.54
X142.24Y-83.82
X142.24Y-86.36
X147.32Y-71.12
X147.32Y-76.2
X147.32Y-78.74
X147.32Y-81.28
X147.32Y-83.82
X152.32Y-71.12
X154.94Y-76.2
X154.94Y-78.74
X154.94Y-81.28
X154.94Y-83.82
X160.02Y-73.66
X160.02Y-76.2
X165.02Y-73.66
X165.02Y-76.2
T5
X114.3Y-119.38
X114.3Y-129.54
X129.54Y-119.38
X129.54Y-129.54
X144.78Y-119.38
X144.78Y-129.54
T6
X152.4Y-134.62
X154.94Y-134.62
X157.48Y-134.62
X165.1Y-134.62
X167.64Y-134.62
X170.18Y-134.62
X177.8Y-134.62
X180.34Y-134.62
X182.88Y-134.62
T7
X152.4Y-93.98
X152.4Y-124.46
X165.1Y-93.985
X165.1Y-124.465
X177.8Y-93.985
X177.8Y-124.465
T8
X177.8Y-76.2
X182.88Y-76.2
T9
X146.9Y-55.0
X151.7Y-55.0
X156.5Y-55.0
X161.3Y-55.0
X166.1Y-55.0
M30
