G04 #@! TF.GenerationSoftware,KiCad,Pcbnew,9.0.0*
G04 #@! TF.CreationDate,2025-06-03T18:34:14-07:00*
G04 #@! TF.ProjectId,H_bridge,485f6272-6964-4676-952e-6b696361645f,rev?*
G04 #@! TF.SameCoordinates,Original*
G04 #@! TF.FileFunction,Legend,Top*
G04 #@! TF.FilePolarity,Positive*
%FSLAX46Y46*%
G04 Gerber Fmt 4.6, Leading zero omitted, Abs format (unit mm)*
G04 Created by KiCad (PCBNEW 9.0.0) date 2025-06-03 18:34:14*
%MOMM*%
%LPD*%
G01*
G04 APERTURE LIST*
G04 Aperture macros list*
%AMRoundRect*
0 Rectangle with rounded corners*
0 $1 Rounding radius*
0 $2 $3 $4 $5 $6 $7 $8 $9 X,Y pos of 4 corners*
0 Add a 4 corners polygon primitive as box body*
4,1,4,$2,$3,$4,$5,$6,$7,$8,$9,$2,$3,0*
0 Add four circle primitives for the rounded corners*
1,1,$1+$1,$2,$3*
1,1,$1+$1,$4,$5*
1,1,$1+$1,$6,$7*
1,1,$1+$1,$8,$9*
0 Add four rect primitives between the rounded corners*
20,1,$1+$1,$2,$3,$4,$5,0*
20,1,$1+$1,$4,$5,$6,$7,0*
20,1,$1+$1,$6,$7,$8,$9,0*
20,1,$1+$1,$8,$9,$2,$3,0*%
G04 Aperture macros list end*
%ADD10C,0.150000*%
%ADD11C,0.120000*%
%ADD12C,1.600000*%
%ADD13O,1.600000X1.600000*%
%ADD14RoundRect,0.249999X-1.025001X-1.025001X1.025001X-1.025001X1.025001X1.025001X-1.025001X1.025001X0*%
%ADD15C,2.550000*%
%ADD16R,1.050000X1.500000*%
%ADD17O,1.050000X1.500000*%
%ADD18RoundRect,0.250000X0.265000X0.615000X-0.265000X0.615000X-0.265000X-0.615000X0.265000X-0.615000X0*%
%ADD19O,1.030000X1.730000*%
%ADD20R,2.290000X5.080000*%
%ADD21R,2.420000X5.080000*%
%ADD22R,2.000000X1.905000*%
%ADD23O,2.000000X1.905000*%
%ADD24C,3.200000*%
%ADD25RoundRect,0.250000X0.550000X-0.950000X0.550000X0.950000X-0.550000X0.950000X-0.550000X-0.950000X0*%
%ADD26O,1.600000X2.400000*%
%ADD27RoundRect,0.249999X1.025001X1.025001X-1.025001X1.025001X-1.025001X-1.025001X1.025001X-1.025001X0*%
G04 APERTURE END LIST*
D10*
X134250000Y-59000000D02*
X134250000Y-57500000D01*
X126750000Y-59000000D02*
X134250000Y-59000000D01*
X114250000Y-59000000D02*
X114250000Y-57500000D01*
X121750000Y-59000000D02*
X114250000Y-59000000D01*
X122321428Y-58788152D02*
X122321428Y-59788152D01*
X122321428Y-58835771D02*
X122416666Y-58788152D01*
X122416666Y-58788152D02*
X122607142Y-58788152D01*
X122607142Y-58788152D02*
X122702380Y-58835771D01*
X122702380Y-58835771D02*
X122749999Y-58883390D01*
X122749999Y-58883390D02*
X122797618Y-58978628D01*
X122797618Y-58978628D02*
X122797618Y-59264342D01*
X122797618Y-59264342D02*
X122749999Y-59359580D01*
X122749999Y-59359580D02*
X122702380Y-59407200D01*
X122702380Y-59407200D02*
X122607142Y-59454819D01*
X122607142Y-59454819D02*
X122416666Y-59454819D01*
X122416666Y-59454819D02*
X122321428Y-59407200D01*
X123369047Y-59454819D02*
X123273809Y-59407200D01*
X123273809Y-59407200D02*
X123226190Y-59359580D01*
X123226190Y-59359580D02*
X123178571Y-59264342D01*
X123178571Y-59264342D02*
X123178571Y-58978628D01*
X123178571Y-58978628D02*
X123226190Y-58883390D01*
X123226190Y-58883390D02*
X123273809Y-58835771D01*
X123273809Y-58835771D02*
X123369047Y-58788152D01*
X123369047Y-58788152D02*
X123511904Y-58788152D01*
X123511904Y-58788152D02*
X123607142Y-58835771D01*
X123607142Y-58835771D02*
X123654761Y-58883390D01*
X123654761Y-58883390D02*
X123702380Y-58978628D01*
X123702380Y-58978628D02*
X123702380Y-59264342D01*
X123702380Y-59264342D02*
X123654761Y-59359580D01*
X123654761Y-59359580D02*
X123607142Y-59407200D01*
X123607142Y-59407200D02*
X123511904Y-59454819D01*
X123511904Y-59454819D02*
X123369047Y-59454819D01*
X124035714Y-58788152D02*
X124226190Y-59454819D01*
X124226190Y-59454819D02*
X124416666Y-58978628D01*
X124416666Y-58978628D02*
X124607142Y-59454819D01*
X124607142Y-59454819D02*
X124797618Y-58788152D01*
X125559523Y-59407200D02*
X125464285Y-59454819D01*
X125464285Y-59454819D02*
X125273809Y-59454819D01*
X125273809Y-59454819D02*
X125178571Y-59407200D01*
X125178571Y-59407200D02*
X125130952Y-59311961D01*
X125130952Y-59311961D02*
X125130952Y-58931009D01*
X125130952Y-58931009D02*
X125178571Y-58835771D01*
X125178571Y-58835771D02*
X125273809Y-58788152D01*
X125273809Y-58788152D02*
X125464285Y-58788152D01*
X125464285Y-58788152D02*
X125559523Y-58835771D01*
X125559523Y-58835771D02*
X125607142Y-58931009D01*
X125607142Y-58931009D02*
X125607142Y-59026247D01*
X125607142Y-59026247D02*
X125130952Y-59121485D01*
X126035714Y-59454819D02*
X126035714Y-58788152D01*
X126035714Y-58978628D02*
X126083333Y-58883390D01*
X126083333Y-58883390D02*
X126130952Y-58835771D01*
X126130952Y-58835771D02*
X126226190Y-58788152D01*
X126226190Y-58788152D02*
X126321428Y-58788152D01*
X151773866Y-59908207D02*
X151773866Y-59146303D01*
X151154819Y-58193922D02*
X151154819Y-58670112D01*
X151154819Y-58670112D02*
X151631009Y-58717731D01*
X151631009Y-58717731D02*
X151583390Y-58670112D01*
X151583390Y-58670112D02*
X151535771Y-58574874D01*
X151535771Y-58574874D02*
X151535771Y-58336779D01*
X151535771Y-58336779D02*
X151583390Y-58241541D01*
X151583390Y-58241541D02*
X151631009Y-58193922D01*
X151631009Y-58193922D02*
X151726247Y-58146303D01*
X151726247Y-58146303D02*
X151964342Y-58146303D01*
X151964342Y-58146303D02*
X152059580Y-58193922D01*
X152059580Y-58193922D02*
X152107200Y-58241541D01*
X152107200Y-58241541D02*
X152154819Y-58336779D01*
X152154819Y-58336779D02*
X152154819Y-58574874D01*
X152154819Y-58574874D02*
X152107200Y-58670112D01*
X152107200Y-58670112D02*
X152059580Y-58717731D01*
X151154819Y-57860588D02*
X152154819Y-57527255D01*
X152154819Y-57527255D02*
X151154819Y-57193922D01*
X146973866Y-60860588D02*
X146973866Y-60098684D01*
X147354819Y-59098684D02*
X147354819Y-59670112D01*
X147354819Y-59384398D02*
X146354819Y-59384398D01*
X146354819Y-59384398D02*
X146497676Y-59479636D01*
X146497676Y-59479636D02*
X146592914Y-59574874D01*
X146592914Y-59574874D02*
X146640533Y-59670112D01*
X146450057Y-58717731D02*
X146402438Y-58670112D01*
X146402438Y-58670112D02*
X146354819Y-58574874D01*
X146354819Y-58574874D02*
X146354819Y-58336779D01*
X146354819Y-58336779D02*
X146402438Y-58241541D01*
X146402438Y-58241541D02*
X146450057Y-58193922D01*
X146450057Y-58193922D02*
X146545295Y-58146303D01*
X146545295Y-58146303D02*
X146640533Y-58146303D01*
X146640533Y-58146303D02*
X146783390Y-58193922D01*
X146783390Y-58193922D02*
X147354819Y-58765350D01*
X147354819Y-58765350D02*
X147354819Y-58146303D01*
X146354819Y-57860588D02*
X147354819Y-57527255D01*
X147354819Y-57527255D02*
X146354819Y-57193922D01*
X156573866Y-59908207D02*
X156573866Y-59146303D01*
X156954819Y-59527255D02*
X156192914Y-59527255D01*
X155954819Y-58193922D02*
X155954819Y-58670112D01*
X155954819Y-58670112D02*
X156431009Y-58717731D01*
X156431009Y-58717731D02*
X156383390Y-58670112D01*
X156383390Y-58670112D02*
X156335771Y-58574874D01*
X156335771Y-58574874D02*
X156335771Y-58336779D01*
X156335771Y-58336779D02*
X156383390Y-58241541D01*
X156383390Y-58241541D02*
X156431009Y-58193922D01*
X156431009Y-58193922D02*
X156526247Y-58146303D01*
X156526247Y-58146303D02*
X156764342Y-58146303D01*
X156764342Y-58146303D02*
X156859580Y-58193922D01*
X156859580Y-58193922D02*
X156907200Y-58241541D01*
X156907200Y-58241541D02*
X156954819Y-58336779D01*
X156954819Y-58336779D02*
X156954819Y-58574874D01*
X156954819Y-58574874D02*
X156907200Y-58670112D01*
X156907200Y-58670112D02*
X156859580Y-58717731D01*
X155954819Y-57860588D02*
X156954819Y-57527255D01*
X156954819Y-57527255D02*
X155954819Y-57193922D01*
X161373866Y-60860588D02*
X161373866Y-60098684D01*
X161754819Y-60479636D02*
X160992914Y-60479636D01*
X161754819Y-59098684D02*
X161754819Y-59670112D01*
X161754819Y-59384398D02*
X160754819Y-59384398D01*
X160754819Y-59384398D02*
X160897676Y-59479636D01*
X160897676Y-59479636D02*
X160992914Y-59574874D01*
X160992914Y-59574874D02*
X161040533Y-59670112D01*
X160850057Y-58717731D02*
X160802438Y-58670112D01*
X160802438Y-58670112D02*
X160754819Y-58574874D01*
X160754819Y-58574874D02*
X160754819Y-58336779D01*
X160754819Y-58336779D02*
X160802438Y-58241541D01*
X160802438Y-58241541D02*
X160850057Y-58193922D01*
X160850057Y-58193922D02*
X160945295Y-58146303D01*
X160945295Y-58146303D02*
X161040533Y-58146303D01*
X161040533Y-58146303D02*
X161183390Y-58193922D01*
X161183390Y-58193922D02*
X161754819Y-58765350D01*
X161754819Y-58765350D02*
X161754819Y-58146303D01*
X160754819Y-57860588D02*
X161754819Y-57527255D01*
X161754819Y-57527255D02*
X160754819Y-57193922D01*
X165602438Y-59384398D02*
X165554819Y-59479636D01*
X165554819Y-59479636D02*
X165554819Y-59622493D01*
X165554819Y-59622493D02*
X165602438Y-59765350D01*
X165602438Y-59765350D02*
X165697676Y-59860588D01*
X165697676Y-59860588D02*
X165792914Y-59908207D01*
X165792914Y-59908207D02*
X165983390Y-59955826D01*
X165983390Y-59955826D02*
X166126247Y-59955826D01*
X166126247Y-59955826D02*
X166316723Y-59908207D01*
X166316723Y-59908207D02*
X166411961Y-59860588D01*
X166411961Y-59860588D02*
X166507200Y-59765350D01*
X166507200Y-59765350D02*
X166554819Y-59622493D01*
X166554819Y-59622493D02*
X166554819Y-59527255D01*
X166554819Y-59527255D02*
X166507200Y-59384398D01*
X166507200Y-59384398D02*
X166459580Y-59336779D01*
X166459580Y-59336779D02*
X166126247Y-59336779D01*
X166126247Y-59336779D02*
X166126247Y-59527255D01*
X166554819Y-58908207D02*
X165554819Y-58908207D01*
X165554819Y-58908207D02*
X166554819Y-58336779D01*
X166554819Y-58336779D02*
X165554819Y-58336779D01*
X166554819Y-57860588D02*
X165554819Y-57860588D01*
X165554819Y-57860588D02*
X165554819Y-57622493D01*
X165554819Y-57622493D02*
X165602438Y-57479636D01*
X165602438Y-57479636D02*
X165697676Y-57384398D01*
X165697676Y-57384398D02*
X165792914Y-57336779D01*
X165792914Y-57336779D02*
X165983390Y-57289160D01*
X165983390Y-57289160D02*
X166126247Y-57289160D01*
X166126247Y-57289160D02*
X166316723Y-57336779D01*
X166316723Y-57336779D02*
X166411961Y-57384398D01*
X166411961Y-57384398D02*
X166507200Y-57479636D01*
X166507200Y-57479636D02*
X166554819Y-57622493D01*
X166554819Y-57622493D02*
X166554819Y-57860588D01*
X173807200Y-65470112D02*
X173854819Y-65327255D01*
X173854819Y-65327255D02*
X173854819Y-65089160D01*
X173854819Y-65089160D02*
X173807200Y-64993922D01*
X173807200Y-64993922D02*
X173759580Y-64946303D01*
X173759580Y-64946303D02*
X173664342Y-64898684D01*
X173664342Y-64898684D02*
X173569104Y-64898684D01*
X173569104Y-64898684D02*
X173473866Y-64946303D01*
X173473866Y-64946303D02*
X173426247Y-64993922D01*
X173426247Y-64993922D02*
X173378628Y-65089160D01*
X173378628Y-65089160D02*
X173331009Y-65279636D01*
X173331009Y-65279636D02*
X173283390Y-65374874D01*
X173283390Y-65374874D02*
X173235771Y-65422493D01*
X173235771Y-65422493D02*
X173140533Y-65470112D01*
X173140533Y-65470112D02*
X173045295Y-65470112D01*
X173045295Y-65470112D02*
X172950057Y-65422493D01*
X172950057Y-65422493D02*
X172902438Y-65374874D01*
X172902438Y-65374874D02*
X172854819Y-65279636D01*
X172854819Y-65279636D02*
X172854819Y-65041541D01*
X172854819Y-65041541D02*
X172902438Y-64898684D01*
X173759580Y-63898684D02*
X173807200Y-63946303D01*
X173807200Y-63946303D02*
X173854819Y-64089160D01*
X173854819Y-64089160D02*
X173854819Y-64184398D01*
X173854819Y-64184398D02*
X173807200Y-64327255D01*
X173807200Y-64327255D02*
X173711961Y-64422493D01*
X173711961Y-64422493D02*
X173616723Y-64470112D01*
X173616723Y-64470112D02*
X173426247Y-64517731D01*
X173426247Y-64517731D02*
X173283390Y-64517731D01*
X173283390Y-64517731D02*
X173092914Y-64470112D01*
X173092914Y-64470112D02*
X172997676Y-64422493D01*
X172997676Y-64422493D02*
X172902438Y-64327255D01*
X172902438Y-64327255D02*
X172854819Y-64184398D01*
X172854819Y-64184398D02*
X172854819Y-64089160D01*
X172854819Y-64089160D02*
X172902438Y-63946303D01*
X172902438Y-63946303D02*
X172950057Y-63898684D01*
X173854819Y-62993922D02*
X173854819Y-63470112D01*
X173854819Y-63470112D02*
X172854819Y-63470112D01*
X177849847Y-64898683D02*
X176849847Y-64898683D01*
X176836513Y-64508208D02*
X176798418Y-64470112D01*
X176798418Y-64470112D02*
X176760323Y-64393922D01*
X176760323Y-64393922D02*
X176760323Y-64203446D01*
X176760323Y-64203446D02*
X176798418Y-64127255D01*
X176798418Y-64127255D02*
X176836513Y-64089160D01*
X176836513Y-64089160D02*
X176912704Y-64051065D01*
X176912704Y-64051065D02*
X176988894Y-64051065D01*
X176988894Y-64051065D02*
X177103180Y-64089160D01*
X177103180Y-64089160D02*
X177560323Y-64546303D01*
X177560323Y-64546303D02*
X177560323Y-64051065D01*
X177754608Y-63089160D02*
X177802228Y-63136779D01*
X177802228Y-63136779D02*
X177849847Y-63279636D01*
X177849847Y-63279636D02*
X177849847Y-63374874D01*
X177849847Y-63374874D02*
X177802228Y-63517731D01*
X177802228Y-63517731D02*
X177706989Y-63612969D01*
X177706989Y-63612969D02*
X177611751Y-63660588D01*
X177611751Y-63660588D02*
X177421275Y-63708207D01*
X177421275Y-63708207D02*
X177278418Y-63708207D01*
X177278418Y-63708207D02*
X177087942Y-63660588D01*
X177087942Y-63660588D02*
X176992704Y-63612969D01*
X176992704Y-63612969D02*
X176897466Y-63517731D01*
X176897466Y-63517731D02*
X176849847Y-63374874D01*
X176849847Y-63374874D02*
X176849847Y-63279636D01*
X176849847Y-63279636D02*
X176897466Y-63136779D01*
X176897466Y-63136779D02*
X176945085Y-63089160D01*
X178507410Y-65184398D02*
X178459791Y-65279636D01*
X178459791Y-65279636D02*
X178459791Y-65422493D01*
X178459791Y-65422493D02*
X178507410Y-65565350D01*
X178507410Y-65565350D02*
X178602648Y-65660588D01*
X178602648Y-65660588D02*
X178697886Y-65708207D01*
X178697886Y-65708207D02*
X178888362Y-65755826D01*
X178888362Y-65755826D02*
X179031219Y-65755826D01*
X179031219Y-65755826D02*
X179221695Y-65708207D01*
X179221695Y-65708207D02*
X179316933Y-65660588D01*
X179316933Y-65660588D02*
X179412172Y-65565350D01*
X179412172Y-65565350D02*
X179459791Y-65422493D01*
X179459791Y-65422493D02*
X179459791Y-65327255D01*
X179459791Y-65327255D02*
X179412172Y-65184398D01*
X179412172Y-65184398D02*
X179364552Y-65136779D01*
X179364552Y-65136779D02*
X179031219Y-65136779D01*
X179031219Y-65136779D02*
X179031219Y-65327255D01*
X179459791Y-64708207D02*
X178459791Y-64708207D01*
X178459791Y-64708207D02*
X179459791Y-64136779D01*
X179459791Y-64136779D02*
X178459791Y-64136779D01*
X179459791Y-63660588D02*
X178459791Y-63660588D01*
X178459791Y-63660588D02*
X178459791Y-63422493D01*
X178459791Y-63422493D02*
X178507410Y-63279636D01*
X178507410Y-63279636D02*
X178602648Y-63184398D01*
X178602648Y-63184398D02*
X178697886Y-63136779D01*
X178697886Y-63136779D02*
X178888362Y-63089160D01*
X178888362Y-63089160D02*
X179031219Y-63089160D01*
X179031219Y-63089160D02*
X179221695Y-63136779D01*
X179221695Y-63136779D02*
X179316933Y-63184398D01*
X179316933Y-63184398D02*
X179412172Y-63279636D01*
X179412172Y-63279636D02*
X179459791Y-63422493D01*
X179459791Y-63422493D02*
X179459791Y-63660588D01*
X183407200Y-65517731D02*
X183454819Y-65374874D01*
X183454819Y-65374874D02*
X183454819Y-65136779D01*
X183454819Y-65136779D02*
X183407200Y-65041541D01*
X183407200Y-65041541D02*
X183359580Y-64993922D01*
X183359580Y-64993922D02*
X183264342Y-64946303D01*
X183264342Y-64946303D02*
X183169104Y-64946303D01*
X183169104Y-64946303D02*
X183073866Y-64993922D01*
X183073866Y-64993922D02*
X183026247Y-65041541D01*
X183026247Y-65041541D02*
X182978628Y-65136779D01*
X182978628Y-65136779D02*
X182931009Y-65327255D01*
X182931009Y-65327255D02*
X182883390Y-65422493D01*
X182883390Y-65422493D02*
X182835771Y-65470112D01*
X182835771Y-65470112D02*
X182740533Y-65517731D01*
X182740533Y-65517731D02*
X182645295Y-65517731D01*
X182645295Y-65517731D02*
X182550057Y-65470112D01*
X182550057Y-65470112D02*
X182502438Y-65422493D01*
X182502438Y-65422493D02*
X182454819Y-65327255D01*
X182454819Y-65327255D02*
X182454819Y-65089160D01*
X182454819Y-65089160D02*
X182502438Y-64946303D01*
X183454819Y-64517731D02*
X182454819Y-64517731D01*
X182454819Y-64517731D02*
X182454819Y-64279636D01*
X182454819Y-64279636D02*
X182502438Y-64136779D01*
X182502438Y-64136779D02*
X182597676Y-64041541D01*
X182597676Y-64041541D02*
X182692914Y-63993922D01*
X182692914Y-63993922D02*
X182883390Y-63946303D01*
X182883390Y-63946303D02*
X183026247Y-63946303D01*
X183026247Y-63946303D02*
X183216723Y-63993922D01*
X183216723Y-63993922D02*
X183311961Y-64041541D01*
X183311961Y-64041541D02*
X183407200Y-64136779D01*
X183407200Y-64136779D02*
X183454819Y-64279636D01*
X183454819Y-64279636D02*
X183454819Y-64517731D01*
X183169104Y-63565350D02*
X183169104Y-63089160D01*
X183454819Y-63660588D02*
X182454819Y-63327255D01*
X182454819Y-63327255D02*
X183454819Y-62993922D01*
X144613333Y-96804819D02*
X144280000Y-96328628D01*
X144041905Y-96804819D02*
X144041905Y-95804819D01*
X144041905Y-95804819D02*
X144422857Y-95804819D01*
X144422857Y-95804819D02*
X144518095Y-95852438D01*
X144518095Y-95852438D02*
X144565714Y-95900057D01*
X144565714Y-95900057D02*
X144613333Y-95995295D01*
X144613333Y-95995295D02*
X144613333Y-96138152D01*
X144613333Y-96138152D02*
X144565714Y-96233390D01*
X144565714Y-96233390D02*
X144518095Y-96281009D01*
X144518095Y-96281009D02*
X144422857Y-96328628D01*
X144422857Y-96328628D02*
X144041905Y-96328628D01*
X144946667Y-95804819D02*
X145565714Y-95804819D01*
X145565714Y-95804819D02*
X145232381Y-96185771D01*
X145232381Y-96185771D02*
X145375238Y-96185771D01*
X145375238Y-96185771D02*
X145470476Y-96233390D01*
X145470476Y-96233390D02*
X145518095Y-96281009D01*
X145518095Y-96281009D02*
X145565714Y-96376247D01*
X145565714Y-96376247D02*
X145565714Y-96614342D01*
X145565714Y-96614342D02*
X145518095Y-96709580D01*
X145518095Y-96709580D02*
X145470476Y-96757200D01*
X145470476Y-96757200D02*
X145375238Y-96804819D01*
X145375238Y-96804819D02*
X145089524Y-96804819D01*
X145089524Y-96804819D02*
X144994286Y-96757200D01*
X144994286Y-96757200D02*
X144946667Y-96709580D01*
X169973333Y-137179580D02*
X169925714Y-137227200D01*
X169925714Y-137227200D02*
X169782857Y-137274819D01*
X169782857Y-137274819D02*
X169687619Y-137274819D01*
X169687619Y-137274819D02*
X169544762Y-137227200D01*
X169544762Y-137227200D02*
X169449524Y-137131961D01*
X169449524Y-137131961D02*
X169401905Y-137036723D01*
X169401905Y-137036723D02*
X169354286Y-136846247D01*
X169354286Y-136846247D02*
X169354286Y-136703390D01*
X169354286Y-136703390D02*
X169401905Y-136512914D01*
X169401905Y-136512914D02*
X169449524Y-136417676D01*
X169449524Y-136417676D02*
X169544762Y-136322438D01*
X169544762Y-136322438D02*
X169687619Y-136274819D01*
X169687619Y-136274819D02*
X169782857Y-136274819D01*
X169782857Y-136274819D02*
X169925714Y-136322438D01*
X169925714Y-136322438D02*
X169973333Y-136370057D01*
X170830476Y-136608152D02*
X170830476Y-137274819D01*
X170592381Y-136227200D02*
X170354286Y-136941485D01*
X170354286Y-136941485D02*
X170973333Y-136941485D01*
X118014761Y-98590057D02*
X117919523Y-98542438D01*
X117919523Y-98542438D02*
X117824285Y-98447200D01*
X117824285Y-98447200D02*
X117681428Y-98304342D01*
X117681428Y-98304342D02*
X117586190Y-98256723D01*
X117586190Y-98256723D02*
X117490952Y-98256723D01*
X117538571Y-98494819D02*
X117443333Y-98447200D01*
X117443333Y-98447200D02*
X117348095Y-98351961D01*
X117348095Y-98351961D02*
X117300476Y-98161485D01*
X117300476Y-98161485D02*
X117300476Y-97828152D01*
X117300476Y-97828152D02*
X117348095Y-97637676D01*
X117348095Y-97637676D02*
X117443333Y-97542438D01*
X117443333Y-97542438D02*
X117538571Y-97494819D01*
X117538571Y-97494819D02*
X117729047Y-97494819D01*
X117729047Y-97494819D02*
X117824285Y-97542438D01*
X117824285Y-97542438D02*
X117919523Y-97637676D01*
X117919523Y-97637676D02*
X117967142Y-97828152D01*
X117967142Y-97828152D02*
X117967142Y-98161485D01*
X117967142Y-98161485D02*
X117919523Y-98351961D01*
X117919523Y-98351961D02*
X117824285Y-98447200D01*
X117824285Y-98447200D02*
X117729047Y-98494819D01*
X117729047Y-98494819D02*
X117538571Y-98494819D01*
X118300476Y-97494819D02*
X118919523Y-97494819D01*
X118919523Y-97494819D02*
X118586190Y-97875771D01*
X118586190Y-97875771D02*
X118729047Y-97875771D01*
X118729047Y-97875771D02*
X118824285Y-97923390D01*
X118824285Y-97923390D02*
X118871904Y-97971009D01*
X118871904Y-97971009D02*
X118919523Y-98066247D01*
X118919523Y-98066247D02*
X118919523Y-98304342D01*
X118919523Y-98304342D02*
X118871904Y-98399580D01*
X118871904Y-98399580D02*
X118824285Y-98447200D01*
X118824285Y-98447200D02*
X118729047Y-98494819D01*
X118729047Y-98494819D02*
X118443333Y-98494819D01*
X118443333Y-98494819D02*
X118348095Y-98447200D01*
X118348095Y-98447200D02*
X118300476Y-98399580D01*
X124454819Y-54083333D02*
X125169104Y-54083333D01*
X125169104Y-54083333D02*
X125311961Y-54130952D01*
X125311961Y-54130952D02*
X125407200Y-54226190D01*
X125407200Y-54226190D02*
X125454819Y-54369047D01*
X125454819Y-54369047D02*
X125454819Y-54464285D01*
X125454819Y-53083333D02*
X125454819Y-53654761D01*
X125454819Y-53369047D02*
X124454819Y-53369047D01*
X124454819Y-53369047D02*
X124597676Y-53464285D01*
X124597676Y-53464285D02*
X124692914Y-53559523D01*
X124692914Y-53559523D02*
X124740533Y-53654761D01*
X140874761Y-98590057D02*
X140779523Y-98542438D01*
X140779523Y-98542438D02*
X140684285Y-98447200D01*
X140684285Y-98447200D02*
X140541428Y-98304342D01*
X140541428Y-98304342D02*
X140446190Y-98256723D01*
X140446190Y-98256723D02*
X140350952Y-98256723D01*
X140398571Y-98494819D02*
X140303333Y-98447200D01*
X140303333Y-98447200D02*
X140208095Y-98351961D01*
X140208095Y-98351961D02*
X140160476Y-98161485D01*
X140160476Y-98161485D02*
X140160476Y-97828152D01*
X140160476Y-97828152D02*
X140208095Y-97637676D01*
X140208095Y-97637676D02*
X140303333Y-97542438D01*
X140303333Y-97542438D02*
X140398571Y-97494819D01*
X140398571Y-97494819D02*
X140589047Y-97494819D01*
X140589047Y-97494819D02*
X140684285Y-97542438D01*
X140684285Y-97542438D02*
X140779523Y-97637676D01*
X140779523Y-97637676D02*
X140827142Y-97828152D01*
X140827142Y-97828152D02*
X140827142Y-98161485D01*
X140827142Y-98161485D02*
X140779523Y-98351961D01*
X140779523Y-98351961D02*
X140684285Y-98447200D01*
X140684285Y-98447200D02*
X140589047Y-98494819D01*
X140589047Y-98494819D02*
X140398571Y-98494819D01*
X141684285Y-97828152D02*
X141684285Y-98494819D01*
X141446190Y-97447200D02*
X141208095Y-98161485D01*
X141208095Y-98161485D02*
X141827142Y-98161485D01*
X223353333Y-92064819D02*
X223020000Y-91588628D01*
X222781905Y-92064819D02*
X222781905Y-91064819D01*
X222781905Y-91064819D02*
X223162857Y-91064819D01*
X223162857Y-91064819D02*
X223258095Y-91112438D01*
X223258095Y-91112438D02*
X223305714Y-91160057D01*
X223305714Y-91160057D02*
X223353333Y-91255295D01*
X223353333Y-91255295D02*
X223353333Y-91398152D01*
X223353333Y-91398152D02*
X223305714Y-91493390D01*
X223305714Y-91493390D02*
X223258095Y-91541009D01*
X223258095Y-91541009D02*
X223162857Y-91588628D01*
X223162857Y-91588628D02*
X222781905Y-91588628D01*
X223924762Y-91493390D02*
X223829524Y-91445771D01*
X223829524Y-91445771D02*
X223781905Y-91398152D01*
X223781905Y-91398152D02*
X223734286Y-91302914D01*
X223734286Y-91302914D02*
X223734286Y-91255295D01*
X223734286Y-91255295D02*
X223781905Y-91160057D01*
X223781905Y-91160057D02*
X223829524Y-91112438D01*
X223829524Y-91112438D02*
X223924762Y-91064819D01*
X223924762Y-91064819D02*
X224115238Y-91064819D01*
X224115238Y-91064819D02*
X224210476Y-91112438D01*
X224210476Y-91112438D02*
X224258095Y-91160057D01*
X224258095Y-91160057D02*
X224305714Y-91255295D01*
X224305714Y-91255295D02*
X224305714Y-91302914D01*
X224305714Y-91302914D02*
X224258095Y-91398152D01*
X224258095Y-91398152D02*
X224210476Y-91445771D01*
X224210476Y-91445771D02*
X224115238Y-91493390D01*
X224115238Y-91493390D02*
X223924762Y-91493390D01*
X223924762Y-91493390D02*
X223829524Y-91541009D01*
X223829524Y-91541009D02*
X223781905Y-91588628D01*
X223781905Y-91588628D02*
X223734286Y-91683866D01*
X223734286Y-91683866D02*
X223734286Y-91874342D01*
X223734286Y-91874342D02*
X223781905Y-91969580D01*
X223781905Y-91969580D02*
X223829524Y-92017200D01*
X223829524Y-92017200D02*
X223924762Y-92064819D01*
X223924762Y-92064819D02*
X224115238Y-92064819D01*
X224115238Y-92064819D02*
X224210476Y-92017200D01*
X224210476Y-92017200D02*
X224258095Y-91969580D01*
X224258095Y-91969580D02*
X224305714Y-91874342D01*
X224305714Y-91874342D02*
X224305714Y-91683866D01*
X224305714Y-91683866D02*
X224258095Y-91588628D01*
X224258095Y-91588628D02*
X224210476Y-91541009D01*
X224210476Y-91541009D02*
X224115238Y-91493390D01*
X212454819Y-147519523D02*
X213169104Y-147519523D01*
X213169104Y-147519523D02*
X213311961Y-147567142D01*
X213311961Y-147567142D02*
X213407200Y-147662380D01*
X213407200Y-147662380D02*
X213454819Y-147805237D01*
X213454819Y-147805237D02*
X213454819Y-147900475D01*
X213454819Y-146519523D02*
X213454819Y-147090951D01*
X213454819Y-146805237D02*
X212454819Y-146805237D01*
X212454819Y-146805237D02*
X212597676Y-146900475D01*
X212597676Y-146900475D02*
X212692914Y-146995713D01*
X212692914Y-146995713D02*
X212740533Y-147090951D01*
X212550057Y-146138570D02*
X212502438Y-146090951D01*
X212502438Y-146090951D02*
X212454819Y-145995713D01*
X212454819Y-145995713D02*
X212454819Y-145757618D01*
X212454819Y-145757618D02*
X212502438Y-145662380D01*
X212502438Y-145662380D02*
X212550057Y-145614761D01*
X212550057Y-145614761D02*
X212645295Y-145567142D01*
X212645295Y-145567142D02*
X212740533Y-145567142D01*
X212740533Y-145567142D02*
X212883390Y-145614761D01*
X212883390Y-145614761D02*
X213454819Y-146186189D01*
X213454819Y-146186189D02*
X213454819Y-145567142D01*
X114523333Y-123739580D02*
X114475714Y-123787200D01*
X114475714Y-123787200D02*
X114332857Y-123834819D01*
X114332857Y-123834819D02*
X114237619Y-123834819D01*
X114237619Y-123834819D02*
X114094762Y-123787200D01*
X114094762Y-123787200D02*
X113999524Y-123691961D01*
X113999524Y-123691961D02*
X113951905Y-123596723D01*
X113951905Y-123596723D02*
X113904286Y-123406247D01*
X113904286Y-123406247D02*
X113904286Y-123263390D01*
X113904286Y-123263390D02*
X113951905Y-123072914D01*
X113951905Y-123072914D02*
X113999524Y-122977676D01*
X113999524Y-122977676D02*
X114094762Y-122882438D01*
X114094762Y-122882438D02*
X114237619Y-122834819D01*
X114237619Y-122834819D02*
X114332857Y-122834819D01*
X114332857Y-122834819D02*
X114475714Y-122882438D01*
X114475714Y-122882438D02*
X114523333Y-122930057D01*
X115475714Y-123834819D02*
X114904286Y-123834819D01*
X115190000Y-123834819D02*
X115190000Y-122834819D01*
X115190000Y-122834819D02*
X115094762Y-122977676D01*
X115094762Y-122977676D02*
X114999524Y-123072914D01*
X114999524Y-123072914D02*
X114904286Y-123120533D01*
X244454819Y-147519523D02*
X245169104Y-147519523D01*
X245169104Y-147519523D02*
X245311961Y-147567142D01*
X245311961Y-147567142D02*
X245407200Y-147662380D01*
X245407200Y-147662380D02*
X245454819Y-147805237D01*
X245454819Y-147805237D02*
X245454819Y-147900475D01*
X245454819Y-146519523D02*
X245454819Y-147090951D01*
X245454819Y-146805237D02*
X244454819Y-146805237D01*
X244454819Y-146805237D02*
X244597676Y-146900475D01*
X244597676Y-146900475D02*
X244692914Y-146995713D01*
X244692914Y-146995713D02*
X244740533Y-147090951D01*
X244788152Y-145662380D02*
X245454819Y-145662380D01*
X244407200Y-145900475D02*
X245121485Y-146138570D01*
X245121485Y-146138570D02*
X245121485Y-145519523D01*
X172460057Y-111855238D02*
X172412438Y-111950476D01*
X172412438Y-111950476D02*
X172317200Y-112045714D01*
X172317200Y-112045714D02*
X172174342Y-112188571D01*
X172174342Y-112188571D02*
X172126723Y-112283809D01*
X172126723Y-112283809D02*
X172126723Y-112379047D01*
X172364819Y-112331428D02*
X172317200Y-112426666D01*
X172317200Y-112426666D02*
X172221961Y-112521904D01*
X172221961Y-112521904D02*
X172031485Y-112569523D01*
X172031485Y-112569523D02*
X171698152Y-112569523D01*
X171698152Y-112569523D02*
X171507676Y-112521904D01*
X171507676Y-112521904D02*
X171412438Y-112426666D01*
X171412438Y-112426666D02*
X171364819Y-112331428D01*
X171364819Y-112331428D02*
X171364819Y-112140952D01*
X171364819Y-112140952D02*
X171412438Y-112045714D01*
X171412438Y-112045714D02*
X171507676Y-111950476D01*
X171507676Y-111950476D02*
X171698152Y-111902857D01*
X171698152Y-111902857D02*
X172031485Y-111902857D01*
X172031485Y-111902857D02*
X172221961Y-111950476D01*
X172221961Y-111950476D02*
X172317200Y-112045714D01*
X172317200Y-112045714D02*
X172364819Y-112140952D01*
X172364819Y-112140952D02*
X172364819Y-112331428D01*
X171364819Y-110998095D02*
X171364819Y-111474285D01*
X171364819Y-111474285D02*
X171841009Y-111521904D01*
X171841009Y-111521904D02*
X171793390Y-111474285D01*
X171793390Y-111474285D02*
X171745771Y-111379047D01*
X171745771Y-111379047D02*
X171745771Y-111140952D01*
X171745771Y-111140952D02*
X171793390Y-111045714D01*
X171793390Y-111045714D02*
X171841009Y-110998095D01*
X171841009Y-110998095D02*
X171936247Y-110950476D01*
X171936247Y-110950476D02*
X172174342Y-110950476D01*
X172174342Y-110950476D02*
X172269580Y-110998095D01*
X172269580Y-110998095D02*
X172317200Y-111045714D01*
X172317200Y-111045714D02*
X172364819Y-111140952D01*
X172364819Y-111140952D02*
X172364819Y-111379047D01*
X172364819Y-111379047D02*
X172317200Y-111474285D01*
X172317200Y-111474285D02*
X172269580Y-111521904D01*
X237404819Y-125221904D02*
X238214342Y-125221904D01*
X238214342Y-125221904D02*
X238309580Y-125174285D01*
X238309580Y-125174285D02*
X238357200Y-125126666D01*
X238357200Y-125126666D02*
X238404819Y-125031428D01*
X238404819Y-125031428D02*
X238404819Y-124840952D01*
X238404819Y-124840952D02*
X238357200Y-124745714D01*
X238357200Y-124745714D02*
X238309580Y-124698095D01*
X238309580Y-124698095D02*
X238214342Y-124650476D01*
X238214342Y-124650476D02*
X237404819Y-124650476D01*
X237404819Y-124269523D02*
X237404819Y-123602857D01*
X237404819Y-123602857D02*
X238404819Y-124031428D01*
X190240057Y-111855238D02*
X190192438Y-111950476D01*
X190192438Y-111950476D02*
X190097200Y-112045714D01*
X190097200Y-112045714D02*
X189954342Y-112188571D01*
X189954342Y-112188571D02*
X189906723Y-112283809D01*
X189906723Y-112283809D02*
X189906723Y-112379047D01*
X190144819Y-112331428D02*
X190097200Y-112426666D01*
X190097200Y-112426666D02*
X190001961Y-112521904D01*
X190001961Y-112521904D02*
X189811485Y-112569523D01*
X189811485Y-112569523D02*
X189478152Y-112569523D01*
X189478152Y-112569523D02*
X189287676Y-112521904D01*
X189287676Y-112521904D02*
X189192438Y-112426666D01*
X189192438Y-112426666D02*
X189144819Y-112331428D01*
X189144819Y-112331428D02*
X189144819Y-112140952D01*
X189144819Y-112140952D02*
X189192438Y-112045714D01*
X189192438Y-112045714D02*
X189287676Y-111950476D01*
X189287676Y-111950476D02*
X189478152Y-111902857D01*
X189478152Y-111902857D02*
X189811485Y-111902857D01*
X189811485Y-111902857D02*
X190001961Y-111950476D01*
X190001961Y-111950476D02*
X190097200Y-112045714D01*
X190097200Y-112045714D02*
X190144819Y-112140952D01*
X190144819Y-112140952D02*
X190144819Y-112331428D01*
X189144819Y-111569523D02*
X189144819Y-110902857D01*
X189144819Y-110902857D02*
X190144819Y-111331428D01*
X129373333Y-99684819D02*
X129040000Y-99208628D01*
X128801905Y-99684819D02*
X128801905Y-98684819D01*
X128801905Y-98684819D02*
X129182857Y-98684819D01*
X129182857Y-98684819D02*
X129278095Y-98732438D01*
X129278095Y-98732438D02*
X129325714Y-98780057D01*
X129325714Y-98780057D02*
X129373333Y-98875295D01*
X129373333Y-98875295D02*
X129373333Y-99018152D01*
X129373333Y-99018152D02*
X129325714Y-99113390D01*
X129325714Y-99113390D02*
X129278095Y-99161009D01*
X129278095Y-99161009D02*
X129182857Y-99208628D01*
X129182857Y-99208628D02*
X128801905Y-99208628D01*
X130325714Y-99684819D02*
X129754286Y-99684819D01*
X130040000Y-99684819D02*
X130040000Y-98684819D01*
X130040000Y-98684819D02*
X129944762Y-98827676D01*
X129944762Y-98827676D02*
X129849524Y-98922914D01*
X129849524Y-98922914D02*
X129754286Y-98970533D01*
X143424819Y-125221904D02*
X144234342Y-125221904D01*
X144234342Y-125221904D02*
X144329580Y-125174285D01*
X144329580Y-125174285D02*
X144377200Y-125126666D01*
X144377200Y-125126666D02*
X144424819Y-125031428D01*
X144424819Y-125031428D02*
X144424819Y-124840952D01*
X144424819Y-124840952D02*
X144377200Y-124745714D01*
X144377200Y-124745714D02*
X144329580Y-124698095D01*
X144329580Y-124698095D02*
X144234342Y-124650476D01*
X144234342Y-124650476D02*
X143424819Y-124650476D01*
X143520057Y-124221904D02*
X143472438Y-124174285D01*
X143472438Y-124174285D02*
X143424819Y-124079047D01*
X143424819Y-124079047D02*
X143424819Y-123840952D01*
X143424819Y-123840952D02*
X143472438Y-123745714D01*
X143472438Y-123745714D02*
X143520057Y-123698095D01*
X143520057Y-123698095D02*
X143615295Y-123650476D01*
X143615295Y-123650476D02*
X143710533Y-123650476D01*
X143710533Y-123650476D02*
X143853390Y-123698095D01*
X143853390Y-123698095D02*
X144424819Y-124269523D01*
X144424819Y-124269523D02*
X144424819Y-123650476D01*
X163734761Y-98590057D02*
X163639523Y-98542438D01*
X163639523Y-98542438D02*
X163544285Y-98447200D01*
X163544285Y-98447200D02*
X163401428Y-98304342D01*
X163401428Y-98304342D02*
X163306190Y-98256723D01*
X163306190Y-98256723D02*
X163210952Y-98256723D01*
X163258571Y-98494819D02*
X163163333Y-98447200D01*
X163163333Y-98447200D02*
X163068095Y-98351961D01*
X163068095Y-98351961D02*
X163020476Y-98161485D01*
X163020476Y-98161485D02*
X163020476Y-97828152D01*
X163020476Y-97828152D02*
X163068095Y-97637676D01*
X163068095Y-97637676D02*
X163163333Y-97542438D01*
X163163333Y-97542438D02*
X163258571Y-97494819D01*
X163258571Y-97494819D02*
X163449047Y-97494819D01*
X163449047Y-97494819D02*
X163544285Y-97542438D01*
X163544285Y-97542438D02*
X163639523Y-97637676D01*
X163639523Y-97637676D02*
X163687142Y-97828152D01*
X163687142Y-97828152D02*
X163687142Y-98161485D01*
X163687142Y-98161485D02*
X163639523Y-98351961D01*
X163639523Y-98351961D02*
X163544285Y-98447200D01*
X163544285Y-98447200D02*
X163449047Y-98494819D01*
X163449047Y-98494819D02*
X163258571Y-98494819D01*
X164544285Y-97494819D02*
X164353809Y-97494819D01*
X164353809Y-97494819D02*
X164258571Y-97542438D01*
X164258571Y-97542438D02*
X164210952Y-97590057D01*
X164210952Y-97590057D02*
X164115714Y-97732914D01*
X164115714Y-97732914D02*
X164068095Y-97923390D01*
X164068095Y-97923390D02*
X164068095Y-98304342D01*
X164068095Y-98304342D02*
X164115714Y-98399580D01*
X164115714Y-98399580D02*
X164163333Y-98447200D01*
X164163333Y-98447200D02*
X164258571Y-98494819D01*
X164258571Y-98494819D02*
X164449047Y-98494819D01*
X164449047Y-98494819D02*
X164544285Y-98447200D01*
X164544285Y-98447200D02*
X164591904Y-98399580D01*
X164591904Y-98399580D02*
X164639523Y-98304342D01*
X164639523Y-98304342D02*
X164639523Y-98066247D01*
X164639523Y-98066247D02*
X164591904Y-97971009D01*
X164591904Y-97971009D02*
X164544285Y-97923390D01*
X164544285Y-97923390D02*
X164449047Y-97875771D01*
X164449047Y-97875771D02*
X164258571Y-97875771D01*
X164258571Y-97875771D02*
X164163333Y-97923390D01*
X164163333Y-97923390D02*
X164115714Y-97971009D01*
X164115714Y-97971009D02*
X164068095Y-98066247D01*
X218313333Y-137179580D02*
X218265714Y-137227200D01*
X218265714Y-137227200D02*
X218122857Y-137274819D01*
X218122857Y-137274819D02*
X218027619Y-137274819D01*
X218027619Y-137274819D02*
X217884762Y-137227200D01*
X217884762Y-137227200D02*
X217789524Y-137131961D01*
X217789524Y-137131961D02*
X217741905Y-137036723D01*
X217741905Y-137036723D02*
X217694286Y-136846247D01*
X217694286Y-136846247D02*
X217694286Y-136703390D01*
X217694286Y-136703390D02*
X217741905Y-136512914D01*
X217741905Y-136512914D02*
X217789524Y-136417676D01*
X217789524Y-136417676D02*
X217884762Y-136322438D01*
X217884762Y-136322438D02*
X218027619Y-136274819D01*
X218027619Y-136274819D02*
X218122857Y-136274819D01*
X218122857Y-136274819D02*
X218265714Y-136322438D01*
X218265714Y-136322438D02*
X218313333Y-136370057D01*
X218646667Y-136274819D02*
X219313333Y-136274819D01*
X219313333Y-136274819D02*
X218884762Y-137274819D01*
X164454819Y-147043333D02*
X165169104Y-147043333D01*
X165169104Y-147043333D02*
X165311961Y-147090952D01*
X165311961Y-147090952D02*
X165407200Y-147186190D01*
X165407200Y-147186190D02*
X165454819Y-147329047D01*
X165454819Y-147329047D02*
X165454819Y-147424285D01*
X165454819Y-146519523D02*
X165454819Y-146329047D01*
X165454819Y-146329047D02*
X165407200Y-146233809D01*
X165407200Y-146233809D02*
X165359580Y-146186190D01*
X165359580Y-146186190D02*
X165216723Y-146090952D01*
X165216723Y-146090952D02*
X165026247Y-146043333D01*
X165026247Y-146043333D02*
X164645295Y-146043333D01*
X164645295Y-146043333D02*
X164550057Y-146090952D01*
X164550057Y-146090952D02*
X164502438Y-146138571D01*
X164502438Y-146138571D02*
X164454819Y-146233809D01*
X164454819Y-146233809D02*
X164454819Y-146424285D01*
X164454819Y-146424285D02*
X164502438Y-146519523D01*
X164502438Y-146519523D02*
X164550057Y-146567142D01*
X164550057Y-146567142D02*
X164645295Y-146614761D01*
X164645295Y-146614761D02*
X164883390Y-146614761D01*
X164883390Y-146614761D02*
X164978628Y-146567142D01*
X164978628Y-146567142D02*
X165026247Y-146519523D01*
X165026247Y-146519523D02*
X165073866Y-146424285D01*
X165073866Y-146424285D02*
X165073866Y-146233809D01*
X165073866Y-146233809D02*
X165026247Y-146138571D01*
X165026247Y-146138571D02*
X164978628Y-146090952D01*
X164978628Y-146090952D02*
X164883390Y-146043333D01*
X190333333Y-96804819D02*
X190000000Y-96328628D01*
X189761905Y-96804819D02*
X189761905Y-95804819D01*
X189761905Y-95804819D02*
X190142857Y-95804819D01*
X190142857Y-95804819D02*
X190238095Y-95852438D01*
X190238095Y-95852438D02*
X190285714Y-95900057D01*
X190285714Y-95900057D02*
X190333333Y-95995295D01*
X190333333Y-95995295D02*
X190333333Y-96138152D01*
X190333333Y-96138152D02*
X190285714Y-96233390D01*
X190285714Y-96233390D02*
X190238095Y-96281009D01*
X190238095Y-96281009D02*
X190142857Y-96328628D01*
X190142857Y-96328628D02*
X189761905Y-96328628D01*
X191190476Y-95804819D02*
X191000000Y-95804819D01*
X191000000Y-95804819D02*
X190904762Y-95852438D01*
X190904762Y-95852438D02*
X190857143Y-95900057D01*
X190857143Y-95900057D02*
X190761905Y-96042914D01*
X190761905Y-96042914D02*
X190714286Y-96233390D01*
X190714286Y-96233390D02*
X190714286Y-96614342D01*
X190714286Y-96614342D02*
X190761905Y-96709580D01*
X190761905Y-96709580D02*
X190809524Y-96757200D01*
X190809524Y-96757200D02*
X190904762Y-96804819D01*
X190904762Y-96804819D02*
X191095238Y-96804819D01*
X191095238Y-96804819D02*
X191190476Y-96757200D01*
X191190476Y-96757200D02*
X191238095Y-96709580D01*
X191238095Y-96709580D02*
X191285714Y-96614342D01*
X191285714Y-96614342D02*
X191285714Y-96376247D01*
X191285714Y-96376247D02*
X191238095Y-96281009D01*
X191238095Y-96281009D02*
X191190476Y-96233390D01*
X191190476Y-96233390D02*
X191095238Y-96185771D01*
X191095238Y-96185771D02*
X190904762Y-96185771D01*
X190904762Y-96185771D02*
X190809524Y-96233390D01*
X190809524Y-96233390D02*
X190761905Y-96281009D01*
X190761905Y-96281009D02*
X190714286Y-96376247D01*
X189144819Y-125221904D02*
X189954342Y-125221904D01*
X189954342Y-125221904D02*
X190049580Y-125174285D01*
X190049580Y-125174285D02*
X190097200Y-125126666D01*
X190097200Y-125126666D02*
X190144819Y-125031428D01*
X190144819Y-125031428D02*
X190144819Y-124840952D01*
X190144819Y-124840952D02*
X190097200Y-124745714D01*
X190097200Y-124745714D02*
X190049580Y-124698095D01*
X190049580Y-124698095D02*
X189954342Y-124650476D01*
X189954342Y-124650476D02*
X189144819Y-124650476D01*
X189144819Y-123698095D02*
X189144819Y-124174285D01*
X189144819Y-124174285D02*
X189621009Y-124221904D01*
X189621009Y-124221904D02*
X189573390Y-124174285D01*
X189573390Y-124174285D02*
X189525771Y-124079047D01*
X189525771Y-124079047D02*
X189525771Y-123840952D01*
X189525771Y-123840952D02*
X189573390Y-123745714D01*
X189573390Y-123745714D02*
X189621009Y-123698095D01*
X189621009Y-123698095D02*
X189716247Y-123650476D01*
X189716247Y-123650476D02*
X189954342Y-123650476D01*
X189954342Y-123650476D02*
X190049580Y-123698095D01*
X190049580Y-123698095D02*
X190097200Y-123745714D01*
X190097200Y-123745714D02*
X190144819Y-123840952D01*
X190144819Y-123840952D02*
X190144819Y-124079047D01*
X190144819Y-124079047D02*
X190097200Y-124174285D01*
X190097200Y-124174285D02*
X190049580Y-124221904D01*
X158099580Y-119506666D02*
X158147200Y-119554285D01*
X158147200Y-119554285D02*
X158194819Y-119697142D01*
X158194819Y-119697142D02*
X158194819Y-119792380D01*
X158194819Y-119792380D02*
X158147200Y-119935237D01*
X158147200Y-119935237D02*
X158051961Y-120030475D01*
X158051961Y-120030475D02*
X157956723Y-120078094D01*
X157956723Y-120078094D02*
X157766247Y-120125713D01*
X157766247Y-120125713D02*
X157623390Y-120125713D01*
X157623390Y-120125713D02*
X157432914Y-120078094D01*
X157432914Y-120078094D02*
X157337676Y-120030475D01*
X157337676Y-120030475D02*
X157242438Y-119935237D01*
X157242438Y-119935237D02*
X157194819Y-119792380D01*
X157194819Y-119792380D02*
X157194819Y-119697142D01*
X157194819Y-119697142D02*
X157242438Y-119554285D01*
X157242438Y-119554285D02*
X157290057Y-119506666D01*
X157194819Y-118601904D02*
X157194819Y-119078094D01*
X157194819Y-119078094D02*
X157671009Y-119125713D01*
X157671009Y-119125713D02*
X157623390Y-119078094D01*
X157623390Y-119078094D02*
X157575771Y-118982856D01*
X157575771Y-118982856D02*
X157575771Y-118744761D01*
X157575771Y-118744761D02*
X157623390Y-118649523D01*
X157623390Y-118649523D02*
X157671009Y-118601904D01*
X157671009Y-118601904D02*
X157766247Y-118554285D01*
X157766247Y-118554285D02*
X158004342Y-118554285D01*
X158004342Y-118554285D02*
X158099580Y-118601904D01*
X158099580Y-118601904D02*
X158147200Y-118649523D01*
X158147200Y-118649523D02*
X158194819Y-118744761D01*
X158194819Y-118744761D02*
X158194819Y-118982856D01*
X158194819Y-118982856D02*
X158147200Y-119078094D01*
X158147200Y-119078094D02*
X158099580Y-119125713D01*
X144520057Y-111855238D02*
X144472438Y-111950476D01*
X144472438Y-111950476D02*
X144377200Y-112045714D01*
X144377200Y-112045714D02*
X144234342Y-112188571D01*
X144234342Y-112188571D02*
X144186723Y-112283809D01*
X144186723Y-112283809D02*
X144186723Y-112379047D01*
X144424819Y-112331428D02*
X144377200Y-112426666D01*
X144377200Y-112426666D02*
X144281961Y-112521904D01*
X144281961Y-112521904D02*
X144091485Y-112569523D01*
X144091485Y-112569523D02*
X143758152Y-112569523D01*
X143758152Y-112569523D02*
X143567676Y-112521904D01*
X143567676Y-112521904D02*
X143472438Y-112426666D01*
X143472438Y-112426666D02*
X143424819Y-112331428D01*
X143424819Y-112331428D02*
X143424819Y-112140952D01*
X143424819Y-112140952D02*
X143472438Y-112045714D01*
X143472438Y-112045714D02*
X143567676Y-111950476D01*
X143567676Y-111950476D02*
X143758152Y-111902857D01*
X143758152Y-111902857D02*
X144091485Y-111902857D01*
X144091485Y-111902857D02*
X144281961Y-111950476D01*
X144281961Y-111950476D02*
X144377200Y-112045714D01*
X144377200Y-112045714D02*
X144424819Y-112140952D01*
X144424819Y-112140952D02*
X144424819Y-112331428D01*
X143520057Y-111521904D02*
X143472438Y-111474285D01*
X143472438Y-111474285D02*
X143424819Y-111379047D01*
X143424819Y-111379047D02*
X143424819Y-111140952D01*
X143424819Y-111140952D02*
X143472438Y-111045714D01*
X143472438Y-111045714D02*
X143520057Y-110998095D01*
X143520057Y-110998095D02*
X143615295Y-110950476D01*
X143615295Y-110950476D02*
X143710533Y-110950476D01*
X143710533Y-110950476D02*
X143853390Y-110998095D01*
X143853390Y-110998095D02*
X144424819Y-111569523D01*
X144424819Y-111569523D02*
X144424819Y-110950476D01*
X151638095Y-75654819D02*
X151638095Y-76464342D01*
X151638095Y-76464342D02*
X151685714Y-76559580D01*
X151685714Y-76559580D02*
X151733333Y-76607200D01*
X151733333Y-76607200D02*
X151828571Y-76654819D01*
X151828571Y-76654819D02*
X152019047Y-76654819D01*
X152019047Y-76654819D02*
X152114285Y-76607200D01*
X152114285Y-76607200D02*
X152161904Y-76559580D01*
X152161904Y-76559580D02*
X152209523Y-76464342D01*
X152209523Y-76464342D02*
X152209523Y-75654819D01*
X152590476Y-75654819D02*
X153209523Y-75654819D01*
X153209523Y-75654819D02*
X152876190Y-76035771D01*
X152876190Y-76035771D02*
X153019047Y-76035771D01*
X153019047Y-76035771D02*
X153114285Y-76083390D01*
X153114285Y-76083390D02*
X153161904Y-76131009D01*
X153161904Y-76131009D02*
X153209523Y-76226247D01*
X153209523Y-76226247D02*
X153209523Y-76464342D01*
X153209523Y-76464342D02*
X153161904Y-76559580D01*
X153161904Y-76559580D02*
X153114285Y-76607200D01*
X153114285Y-76607200D02*
X153019047Y-76654819D01*
X153019047Y-76654819D02*
X152733333Y-76654819D01*
X152733333Y-76654819D02*
X152638095Y-76607200D01*
X152638095Y-76607200D02*
X152590476Y-76559580D01*
X129373333Y-92064819D02*
X129040000Y-91588628D01*
X128801905Y-92064819D02*
X128801905Y-91064819D01*
X128801905Y-91064819D02*
X129182857Y-91064819D01*
X129182857Y-91064819D02*
X129278095Y-91112438D01*
X129278095Y-91112438D02*
X129325714Y-91160057D01*
X129325714Y-91160057D02*
X129373333Y-91255295D01*
X129373333Y-91255295D02*
X129373333Y-91398152D01*
X129373333Y-91398152D02*
X129325714Y-91493390D01*
X129325714Y-91493390D02*
X129278095Y-91541009D01*
X129278095Y-91541009D02*
X129182857Y-91588628D01*
X129182857Y-91588628D02*
X128801905Y-91588628D01*
X129754286Y-91160057D02*
X129801905Y-91112438D01*
X129801905Y-91112438D02*
X129897143Y-91064819D01*
X129897143Y-91064819D02*
X130135238Y-91064819D01*
X130135238Y-91064819D02*
X130230476Y-91112438D01*
X130230476Y-91112438D02*
X130278095Y-91160057D01*
X130278095Y-91160057D02*
X130325714Y-91255295D01*
X130325714Y-91255295D02*
X130325714Y-91350533D01*
X130325714Y-91350533D02*
X130278095Y-91493390D01*
X130278095Y-91493390D02*
X129706667Y-92064819D01*
X129706667Y-92064819D02*
X130325714Y-92064819D01*
X238593333Y-96804819D02*
X238260000Y-96328628D01*
X238021905Y-96804819D02*
X238021905Y-95804819D01*
X238021905Y-95804819D02*
X238402857Y-95804819D01*
X238402857Y-95804819D02*
X238498095Y-95852438D01*
X238498095Y-95852438D02*
X238545714Y-95900057D01*
X238545714Y-95900057D02*
X238593333Y-95995295D01*
X238593333Y-95995295D02*
X238593333Y-96138152D01*
X238593333Y-96138152D02*
X238545714Y-96233390D01*
X238545714Y-96233390D02*
X238498095Y-96281009D01*
X238498095Y-96281009D02*
X238402857Y-96328628D01*
X238402857Y-96328628D02*
X238021905Y-96328628D01*
X238926667Y-95804819D02*
X239593333Y-95804819D01*
X239593333Y-95804819D02*
X239164762Y-96804819D01*
X228454819Y-147519523D02*
X229169104Y-147519523D01*
X229169104Y-147519523D02*
X229311961Y-147567142D01*
X229311961Y-147567142D02*
X229407200Y-147662380D01*
X229407200Y-147662380D02*
X229454819Y-147805237D01*
X229454819Y-147805237D02*
X229454819Y-147900475D01*
X229454819Y-146519523D02*
X229454819Y-147090951D01*
X229454819Y-146805237D02*
X228454819Y-146805237D01*
X228454819Y-146805237D02*
X228597676Y-146900475D01*
X228597676Y-146900475D02*
X228692914Y-146995713D01*
X228692914Y-146995713D02*
X228740533Y-147090951D01*
X228454819Y-146186189D02*
X228454819Y-145567142D01*
X228454819Y-145567142D02*
X228835771Y-145900475D01*
X228835771Y-145900475D02*
X228835771Y-145757618D01*
X228835771Y-145757618D02*
X228883390Y-145662380D01*
X228883390Y-145662380D02*
X228931009Y-145614761D01*
X228931009Y-145614761D02*
X229026247Y-145567142D01*
X229026247Y-145567142D02*
X229264342Y-145567142D01*
X229264342Y-145567142D02*
X229359580Y-145614761D01*
X229359580Y-145614761D02*
X229407200Y-145662380D01*
X229407200Y-145662380D02*
X229454819Y-145757618D01*
X229454819Y-145757618D02*
X229454819Y-146043332D01*
X229454819Y-146043332D02*
X229407200Y-146138570D01*
X229407200Y-146138570D02*
X229359580Y-146186189D01*
X219624819Y-125221904D02*
X220434342Y-125221904D01*
X220434342Y-125221904D02*
X220529580Y-125174285D01*
X220529580Y-125174285D02*
X220577200Y-125126666D01*
X220577200Y-125126666D02*
X220624819Y-125031428D01*
X220624819Y-125031428D02*
X220624819Y-124840952D01*
X220624819Y-124840952D02*
X220577200Y-124745714D01*
X220577200Y-124745714D02*
X220529580Y-124698095D01*
X220529580Y-124698095D02*
X220434342Y-124650476D01*
X220434342Y-124650476D02*
X219624819Y-124650476D01*
X219624819Y-123745714D02*
X219624819Y-123936190D01*
X219624819Y-123936190D02*
X219672438Y-124031428D01*
X219672438Y-124031428D02*
X219720057Y-124079047D01*
X219720057Y-124079047D02*
X219862914Y-124174285D01*
X219862914Y-124174285D02*
X220053390Y-124221904D01*
X220053390Y-124221904D02*
X220434342Y-124221904D01*
X220434342Y-124221904D02*
X220529580Y-124174285D01*
X220529580Y-124174285D02*
X220577200Y-124126666D01*
X220577200Y-124126666D02*
X220624819Y-124031428D01*
X220624819Y-124031428D02*
X220624819Y-123840952D01*
X220624819Y-123840952D02*
X220577200Y-123745714D01*
X220577200Y-123745714D02*
X220529580Y-123698095D01*
X220529580Y-123698095D02*
X220434342Y-123650476D01*
X220434342Y-123650476D02*
X220196247Y-123650476D01*
X220196247Y-123650476D02*
X220101009Y-123698095D01*
X220101009Y-123698095D02*
X220053390Y-123745714D01*
X220053390Y-123745714D02*
X220005771Y-123840952D01*
X220005771Y-123840952D02*
X220005771Y-124031428D01*
X220005771Y-124031428D02*
X220053390Y-124126666D01*
X220053390Y-124126666D02*
X220101009Y-124174285D01*
X220101009Y-124174285D02*
X220196247Y-124221904D01*
X116454819Y-147043333D02*
X117169104Y-147043333D01*
X117169104Y-147043333D02*
X117311961Y-147090952D01*
X117311961Y-147090952D02*
X117407200Y-147186190D01*
X117407200Y-147186190D02*
X117454819Y-147329047D01*
X117454819Y-147329047D02*
X117454819Y-147424285D01*
X116454819Y-146138571D02*
X116454819Y-146329047D01*
X116454819Y-146329047D02*
X116502438Y-146424285D01*
X116502438Y-146424285D02*
X116550057Y-146471904D01*
X116550057Y-146471904D02*
X116692914Y-146567142D01*
X116692914Y-146567142D02*
X116883390Y-146614761D01*
X116883390Y-146614761D02*
X117264342Y-146614761D01*
X117264342Y-146614761D02*
X117359580Y-146567142D01*
X117359580Y-146567142D02*
X117407200Y-146519523D01*
X117407200Y-146519523D02*
X117454819Y-146424285D01*
X117454819Y-146424285D02*
X117454819Y-146233809D01*
X117454819Y-146233809D02*
X117407200Y-146138571D01*
X117407200Y-146138571D02*
X117359580Y-146090952D01*
X117359580Y-146090952D02*
X117264342Y-146043333D01*
X117264342Y-146043333D02*
X117026247Y-146043333D01*
X117026247Y-146043333D02*
X116931009Y-146090952D01*
X116931009Y-146090952D02*
X116883390Y-146138571D01*
X116883390Y-146138571D02*
X116835771Y-146233809D01*
X116835771Y-146233809D02*
X116835771Y-146424285D01*
X116835771Y-146424285D02*
X116883390Y-146519523D01*
X116883390Y-146519523D02*
X116931009Y-146567142D01*
X116931009Y-146567142D02*
X117026247Y-146614761D01*
X223353333Y-99684819D02*
X223020000Y-99208628D01*
X222781905Y-99684819D02*
X222781905Y-98684819D01*
X222781905Y-98684819D02*
X223162857Y-98684819D01*
X223162857Y-98684819D02*
X223258095Y-98732438D01*
X223258095Y-98732438D02*
X223305714Y-98780057D01*
X223305714Y-98780057D02*
X223353333Y-98875295D01*
X223353333Y-98875295D02*
X223353333Y-99018152D01*
X223353333Y-99018152D02*
X223305714Y-99113390D01*
X223305714Y-99113390D02*
X223258095Y-99161009D01*
X223258095Y-99161009D02*
X223162857Y-99208628D01*
X223162857Y-99208628D02*
X222781905Y-99208628D01*
X223829524Y-99684819D02*
X224020000Y-99684819D01*
X224020000Y-99684819D02*
X224115238Y-99637200D01*
X224115238Y-99637200D02*
X224162857Y-99589580D01*
X224162857Y-99589580D02*
X224258095Y-99446723D01*
X224258095Y-99446723D02*
X224305714Y-99256247D01*
X224305714Y-99256247D02*
X224305714Y-98875295D01*
X224305714Y-98875295D02*
X224258095Y-98780057D01*
X224258095Y-98780057D02*
X224210476Y-98732438D01*
X224210476Y-98732438D02*
X224115238Y-98684819D01*
X224115238Y-98684819D02*
X223924762Y-98684819D01*
X223924762Y-98684819D02*
X223829524Y-98732438D01*
X223829524Y-98732438D02*
X223781905Y-98780057D01*
X223781905Y-98780057D02*
X223734286Y-98875295D01*
X223734286Y-98875295D02*
X223734286Y-99113390D01*
X223734286Y-99113390D02*
X223781905Y-99208628D01*
X223781905Y-99208628D02*
X223829524Y-99256247D01*
X223829524Y-99256247D02*
X223924762Y-99303866D01*
X223924762Y-99303866D02*
X224115238Y-99303866D01*
X224115238Y-99303866D02*
X224210476Y-99256247D01*
X224210476Y-99256247D02*
X224258095Y-99208628D01*
X224258095Y-99208628D02*
X224305714Y-99113390D01*
X193739580Y-119586666D02*
X193787200Y-119634285D01*
X193787200Y-119634285D02*
X193834819Y-119777142D01*
X193834819Y-119777142D02*
X193834819Y-119872380D01*
X193834819Y-119872380D02*
X193787200Y-120015237D01*
X193787200Y-120015237D02*
X193691961Y-120110475D01*
X193691961Y-120110475D02*
X193596723Y-120158094D01*
X193596723Y-120158094D02*
X193406247Y-120205713D01*
X193406247Y-120205713D02*
X193263390Y-120205713D01*
X193263390Y-120205713D02*
X193072914Y-120158094D01*
X193072914Y-120158094D02*
X192977676Y-120110475D01*
X192977676Y-120110475D02*
X192882438Y-120015237D01*
X192882438Y-120015237D02*
X192834819Y-119872380D01*
X192834819Y-119872380D02*
X192834819Y-119777142D01*
X192834819Y-119777142D02*
X192882438Y-119634285D01*
X192882438Y-119634285D02*
X192930057Y-119586666D01*
X192834819Y-118729523D02*
X192834819Y-118919999D01*
X192834819Y-118919999D02*
X192882438Y-119015237D01*
X192882438Y-119015237D02*
X192930057Y-119062856D01*
X192930057Y-119062856D02*
X193072914Y-119158094D01*
X193072914Y-119158094D02*
X193263390Y-119205713D01*
X193263390Y-119205713D02*
X193644342Y-119205713D01*
X193644342Y-119205713D02*
X193739580Y-119158094D01*
X193739580Y-119158094D02*
X193787200Y-119110475D01*
X193787200Y-119110475D02*
X193834819Y-119015237D01*
X193834819Y-119015237D02*
X193834819Y-118824761D01*
X193834819Y-118824761D02*
X193787200Y-118729523D01*
X193787200Y-118729523D02*
X193739580Y-118681904D01*
X193739580Y-118681904D02*
X193644342Y-118634285D01*
X193644342Y-118634285D02*
X193406247Y-118634285D01*
X193406247Y-118634285D02*
X193311009Y-118681904D01*
X193311009Y-118681904D02*
X193263390Y-118729523D01*
X193263390Y-118729523D02*
X193215771Y-118824761D01*
X193215771Y-118824761D02*
X193215771Y-119015237D01*
X193215771Y-119015237D02*
X193263390Y-119110475D01*
X193263390Y-119110475D02*
X193311009Y-119158094D01*
X193311009Y-119158094D02*
X193406247Y-119205713D01*
X196454819Y-147519523D02*
X197169104Y-147519523D01*
X197169104Y-147519523D02*
X197311961Y-147567142D01*
X197311961Y-147567142D02*
X197407200Y-147662380D01*
X197407200Y-147662380D02*
X197454819Y-147805237D01*
X197454819Y-147805237D02*
X197454819Y-147900475D01*
X197454819Y-146519523D02*
X197454819Y-147090951D01*
X197454819Y-146805237D02*
X196454819Y-146805237D01*
X196454819Y-146805237D02*
X196597676Y-146900475D01*
X196597676Y-146900475D02*
X196692914Y-146995713D01*
X196692914Y-146995713D02*
X196740533Y-147090951D01*
X197454819Y-145567142D02*
X197454819Y-146138570D01*
X197454819Y-145852856D02*
X196454819Y-145852856D01*
X196454819Y-145852856D02*
X196597676Y-145948094D01*
X196597676Y-145948094D02*
X196692914Y-146043332D01*
X196692914Y-146043332D02*
X196740533Y-146138570D01*
X175093333Y-99684819D02*
X174760000Y-99208628D01*
X174521905Y-99684819D02*
X174521905Y-98684819D01*
X174521905Y-98684819D02*
X174902857Y-98684819D01*
X174902857Y-98684819D02*
X174998095Y-98732438D01*
X174998095Y-98732438D02*
X175045714Y-98780057D01*
X175045714Y-98780057D02*
X175093333Y-98875295D01*
X175093333Y-98875295D02*
X175093333Y-99018152D01*
X175093333Y-99018152D02*
X175045714Y-99113390D01*
X175045714Y-99113390D02*
X174998095Y-99161009D01*
X174998095Y-99161009D02*
X174902857Y-99208628D01*
X174902857Y-99208628D02*
X174521905Y-99208628D01*
X175950476Y-99018152D02*
X175950476Y-99684819D01*
X175712381Y-98637200D02*
X175474286Y-99351485D01*
X175474286Y-99351485D02*
X176093333Y-99351485D01*
X148019580Y-119586666D02*
X148067200Y-119634285D01*
X148067200Y-119634285D02*
X148114819Y-119777142D01*
X148114819Y-119777142D02*
X148114819Y-119872380D01*
X148114819Y-119872380D02*
X148067200Y-120015237D01*
X148067200Y-120015237D02*
X147971961Y-120110475D01*
X147971961Y-120110475D02*
X147876723Y-120158094D01*
X147876723Y-120158094D02*
X147686247Y-120205713D01*
X147686247Y-120205713D02*
X147543390Y-120205713D01*
X147543390Y-120205713D02*
X147352914Y-120158094D01*
X147352914Y-120158094D02*
X147257676Y-120110475D01*
X147257676Y-120110475D02*
X147162438Y-120015237D01*
X147162438Y-120015237D02*
X147114819Y-119872380D01*
X147114819Y-119872380D02*
X147114819Y-119777142D01*
X147114819Y-119777142D02*
X147162438Y-119634285D01*
X147162438Y-119634285D02*
X147210057Y-119586666D01*
X147210057Y-119205713D02*
X147162438Y-119158094D01*
X147162438Y-119158094D02*
X147114819Y-119062856D01*
X147114819Y-119062856D02*
X147114819Y-118824761D01*
X147114819Y-118824761D02*
X147162438Y-118729523D01*
X147162438Y-118729523D02*
X147210057Y-118681904D01*
X147210057Y-118681904D02*
X147305295Y-118634285D01*
X147305295Y-118634285D02*
X147400533Y-118634285D01*
X147400533Y-118634285D02*
X147543390Y-118681904D01*
X147543390Y-118681904D02*
X148114819Y-119253332D01*
X148114819Y-119253332D02*
X148114819Y-118634285D01*
X124253333Y-137179580D02*
X124205714Y-137227200D01*
X124205714Y-137227200D02*
X124062857Y-137274819D01*
X124062857Y-137274819D02*
X123967619Y-137274819D01*
X123967619Y-137274819D02*
X123824762Y-137227200D01*
X123824762Y-137227200D02*
X123729524Y-137131961D01*
X123729524Y-137131961D02*
X123681905Y-137036723D01*
X123681905Y-137036723D02*
X123634286Y-136846247D01*
X123634286Y-136846247D02*
X123634286Y-136703390D01*
X123634286Y-136703390D02*
X123681905Y-136512914D01*
X123681905Y-136512914D02*
X123729524Y-136417676D01*
X123729524Y-136417676D02*
X123824762Y-136322438D01*
X123824762Y-136322438D02*
X123967619Y-136274819D01*
X123967619Y-136274819D02*
X124062857Y-136274819D01*
X124062857Y-136274819D02*
X124205714Y-136322438D01*
X124205714Y-136322438D02*
X124253333Y-136370057D01*
X124586667Y-136274819D02*
X125205714Y-136274819D01*
X125205714Y-136274819D02*
X124872381Y-136655771D01*
X124872381Y-136655771D02*
X125015238Y-136655771D01*
X125015238Y-136655771D02*
X125110476Y-136703390D01*
X125110476Y-136703390D02*
X125158095Y-136751009D01*
X125158095Y-136751009D02*
X125205714Y-136846247D01*
X125205714Y-136846247D02*
X125205714Y-137084342D01*
X125205714Y-137084342D02*
X125158095Y-137179580D01*
X125158095Y-137179580D02*
X125110476Y-137227200D01*
X125110476Y-137227200D02*
X125015238Y-137274819D01*
X125015238Y-137274819D02*
X124729524Y-137274819D01*
X124729524Y-137274819D02*
X124634286Y-137227200D01*
X124634286Y-137227200D02*
X124586667Y-137179580D01*
X180454819Y-147519523D02*
X181169104Y-147519523D01*
X181169104Y-147519523D02*
X181311961Y-147567142D01*
X181311961Y-147567142D02*
X181407200Y-147662380D01*
X181407200Y-147662380D02*
X181454819Y-147805237D01*
X181454819Y-147805237D02*
X181454819Y-147900475D01*
X181454819Y-146519523D02*
X181454819Y-147090951D01*
X181454819Y-146805237D02*
X180454819Y-146805237D01*
X180454819Y-146805237D02*
X180597676Y-146900475D01*
X180597676Y-146900475D02*
X180692914Y-146995713D01*
X180692914Y-146995713D02*
X180740533Y-147090951D01*
X180454819Y-145900475D02*
X180454819Y-145805237D01*
X180454819Y-145805237D02*
X180502438Y-145709999D01*
X180502438Y-145709999D02*
X180550057Y-145662380D01*
X180550057Y-145662380D02*
X180645295Y-145614761D01*
X180645295Y-145614761D02*
X180835771Y-145567142D01*
X180835771Y-145567142D02*
X181073866Y-145567142D01*
X181073866Y-145567142D02*
X181264342Y-145614761D01*
X181264342Y-145614761D02*
X181359580Y-145662380D01*
X181359580Y-145662380D02*
X181407200Y-145709999D01*
X181407200Y-145709999D02*
X181454819Y-145805237D01*
X181454819Y-145805237D02*
X181454819Y-145900475D01*
X181454819Y-145900475D02*
X181407200Y-145995713D01*
X181407200Y-145995713D02*
X181359580Y-146043332D01*
X181359580Y-146043332D02*
X181264342Y-146090951D01*
X181264342Y-146090951D02*
X181073866Y-146138570D01*
X181073866Y-146138570D02*
X180835771Y-146138570D01*
X180835771Y-146138570D02*
X180645295Y-146090951D01*
X180645295Y-146090951D02*
X180550057Y-146043332D01*
X180550057Y-146043332D02*
X180502438Y-145995713D01*
X180502438Y-145995713D02*
X180454819Y-145900475D01*
X148454819Y-147043333D02*
X149169104Y-147043333D01*
X149169104Y-147043333D02*
X149311961Y-147090952D01*
X149311961Y-147090952D02*
X149407200Y-147186190D01*
X149407200Y-147186190D02*
X149454819Y-147329047D01*
X149454819Y-147329047D02*
X149454819Y-147424285D01*
X148883390Y-146424285D02*
X148835771Y-146519523D01*
X148835771Y-146519523D02*
X148788152Y-146567142D01*
X148788152Y-146567142D02*
X148692914Y-146614761D01*
X148692914Y-146614761D02*
X148645295Y-146614761D01*
X148645295Y-146614761D02*
X148550057Y-146567142D01*
X148550057Y-146567142D02*
X148502438Y-146519523D01*
X148502438Y-146519523D02*
X148454819Y-146424285D01*
X148454819Y-146424285D02*
X148454819Y-146233809D01*
X148454819Y-146233809D02*
X148502438Y-146138571D01*
X148502438Y-146138571D02*
X148550057Y-146090952D01*
X148550057Y-146090952D02*
X148645295Y-146043333D01*
X148645295Y-146043333D02*
X148692914Y-146043333D01*
X148692914Y-146043333D02*
X148788152Y-146090952D01*
X148788152Y-146090952D02*
X148835771Y-146138571D01*
X148835771Y-146138571D02*
X148883390Y-146233809D01*
X148883390Y-146233809D02*
X148883390Y-146424285D01*
X148883390Y-146424285D02*
X148931009Y-146519523D01*
X148931009Y-146519523D02*
X148978628Y-146567142D01*
X148978628Y-146567142D02*
X149073866Y-146614761D01*
X149073866Y-146614761D02*
X149264342Y-146614761D01*
X149264342Y-146614761D02*
X149359580Y-146567142D01*
X149359580Y-146567142D02*
X149407200Y-146519523D01*
X149407200Y-146519523D02*
X149454819Y-146424285D01*
X149454819Y-146424285D02*
X149454819Y-146233809D01*
X149454819Y-146233809D02*
X149407200Y-146138571D01*
X149407200Y-146138571D02*
X149359580Y-146090952D01*
X149359580Y-146090952D02*
X149264342Y-146043333D01*
X149264342Y-146043333D02*
X149073866Y-146043333D01*
X149073866Y-146043333D02*
X148978628Y-146090952D01*
X148978628Y-146090952D02*
X148931009Y-146138571D01*
X148931009Y-146138571D02*
X148883390Y-146233809D01*
X104454819Y-54083333D02*
X105169104Y-54083333D01*
X105169104Y-54083333D02*
X105311961Y-54130952D01*
X105311961Y-54130952D02*
X105407200Y-54226190D01*
X105407200Y-54226190D02*
X105454819Y-54369047D01*
X105454819Y-54369047D02*
X105454819Y-54464285D01*
X104550057Y-53654761D02*
X104502438Y-53607142D01*
X104502438Y-53607142D02*
X104454819Y-53511904D01*
X104454819Y-53511904D02*
X104454819Y-53273809D01*
X104454819Y-53273809D02*
X104502438Y-53178571D01*
X104502438Y-53178571D02*
X104550057Y-53130952D01*
X104550057Y-53130952D02*
X104645295Y-53083333D01*
X104645295Y-53083333D02*
X104740533Y-53083333D01*
X104740533Y-53083333D02*
X104883390Y-53130952D01*
X104883390Y-53130952D02*
X105454819Y-53702380D01*
X105454819Y-53702380D02*
X105454819Y-53083333D01*
X210724761Y-112310057D02*
X210629523Y-112262438D01*
X210629523Y-112262438D02*
X210534285Y-112167200D01*
X210534285Y-112167200D02*
X210391428Y-112024342D01*
X210391428Y-112024342D02*
X210296190Y-111976723D01*
X210296190Y-111976723D02*
X210200952Y-111976723D01*
X210248571Y-112214819D02*
X210153333Y-112167200D01*
X210153333Y-112167200D02*
X210058095Y-112071961D01*
X210058095Y-112071961D02*
X210010476Y-111881485D01*
X210010476Y-111881485D02*
X210010476Y-111548152D01*
X210010476Y-111548152D02*
X210058095Y-111357676D01*
X210058095Y-111357676D02*
X210153333Y-111262438D01*
X210153333Y-111262438D02*
X210248571Y-111214819D01*
X210248571Y-111214819D02*
X210439047Y-111214819D01*
X210439047Y-111214819D02*
X210534285Y-111262438D01*
X210534285Y-111262438D02*
X210629523Y-111357676D01*
X210629523Y-111357676D02*
X210677142Y-111548152D01*
X210677142Y-111548152D02*
X210677142Y-111881485D01*
X210677142Y-111881485D02*
X210629523Y-112071961D01*
X210629523Y-112071961D02*
X210534285Y-112167200D01*
X210534285Y-112167200D02*
X210439047Y-112214819D01*
X210439047Y-112214819D02*
X210248571Y-112214819D01*
X211153333Y-112214819D02*
X211343809Y-112214819D01*
X211343809Y-112214819D02*
X211439047Y-112167200D01*
X211439047Y-112167200D02*
X211486666Y-112119580D01*
X211486666Y-112119580D02*
X211581904Y-111976723D01*
X211581904Y-111976723D02*
X211629523Y-111786247D01*
X211629523Y-111786247D02*
X211629523Y-111405295D01*
X211629523Y-111405295D02*
X211581904Y-111310057D01*
X211581904Y-111310057D02*
X211534285Y-111262438D01*
X211534285Y-111262438D02*
X211439047Y-111214819D01*
X211439047Y-111214819D02*
X211248571Y-111214819D01*
X211248571Y-111214819D02*
X211153333Y-111262438D01*
X211153333Y-111262438D02*
X211105714Y-111310057D01*
X211105714Y-111310057D02*
X211058095Y-111405295D01*
X211058095Y-111405295D02*
X211058095Y-111643390D01*
X211058095Y-111643390D02*
X211105714Y-111738628D01*
X211105714Y-111738628D02*
X211153333Y-111786247D01*
X211153333Y-111786247D02*
X211248571Y-111833866D01*
X211248571Y-111833866D02*
X211439047Y-111833866D01*
X211439047Y-111833866D02*
X211534285Y-111786247D01*
X211534285Y-111786247D02*
X211581904Y-111738628D01*
X211581904Y-111738628D02*
X211629523Y-111643390D01*
X132454819Y-147043333D02*
X133169104Y-147043333D01*
X133169104Y-147043333D02*
X133311961Y-147090952D01*
X133311961Y-147090952D02*
X133407200Y-147186190D01*
X133407200Y-147186190D02*
X133454819Y-147329047D01*
X133454819Y-147329047D02*
X133454819Y-147424285D01*
X132454819Y-146662380D02*
X132454819Y-145995714D01*
X132454819Y-145995714D02*
X133454819Y-146424285D01*
X127550057Y-111855238D02*
X127502438Y-111950476D01*
X127502438Y-111950476D02*
X127407200Y-112045714D01*
X127407200Y-112045714D02*
X127264342Y-112188571D01*
X127264342Y-112188571D02*
X127216723Y-112283809D01*
X127216723Y-112283809D02*
X127216723Y-112379047D01*
X127454819Y-112331428D02*
X127407200Y-112426666D01*
X127407200Y-112426666D02*
X127311961Y-112521904D01*
X127311961Y-112521904D02*
X127121485Y-112569523D01*
X127121485Y-112569523D02*
X126788152Y-112569523D01*
X126788152Y-112569523D02*
X126597676Y-112521904D01*
X126597676Y-112521904D02*
X126502438Y-112426666D01*
X126502438Y-112426666D02*
X126454819Y-112331428D01*
X126454819Y-112331428D02*
X126454819Y-112140952D01*
X126454819Y-112140952D02*
X126502438Y-112045714D01*
X126502438Y-112045714D02*
X126597676Y-111950476D01*
X126597676Y-111950476D02*
X126788152Y-111902857D01*
X126788152Y-111902857D02*
X127121485Y-111902857D01*
X127121485Y-111902857D02*
X127311961Y-111950476D01*
X127311961Y-111950476D02*
X127407200Y-112045714D01*
X127407200Y-112045714D02*
X127454819Y-112140952D01*
X127454819Y-112140952D02*
X127454819Y-112331428D01*
X127454819Y-110950476D02*
X127454819Y-111521904D01*
X127454819Y-111236190D02*
X126454819Y-111236190D01*
X126454819Y-111236190D02*
X126597676Y-111331428D01*
X126597676Y-111331428D02*
X126692914Y-111426666D01*
X126692914Y-111426666D02*
X126740533Y-111521904D01*
X203899580Y-119506666D02*
X203947200Y-119554285D01*
X203947200Y-119554285D02*
X203994819Y-119697142D01*
X203994819Y-119697142D02*
X203994819Y-119792380D01*
X203994819Y-119792380D02*
X203947200Y-119935237D01*
X203947200Y-119935237D02*
X203851961Y-120030475D01*
X203851961Y-120030475D02*
X203756723Y-120078094D01*
X203756723Y-120078094D02*
X203566247Y-120125713D01*
X203566247Y-120125713D02*
X203423390Y-120125713D01*
X203423390Y-120125713D02*
X203232914Y-120078094D01*
X203232914Y-120078094D02*
X203137676Y-120030475D01*
X203137676Y-120030475D02*
X203042438Y-119935237D01*
X203042438Y-119935237D02*
X202994819Y-119792380D01*
X202994819Y-119792380D02*
X202994819Y-119697142D01*
X202994819Y-119697142D02*
X203042438Y-119554285D01*
X203042438Y-119554285D02*
X203090057Y-119506666D01*
X203423390Y-118935237D02*
X203375771Y-119030475D01*
X203375771Y-119030475D02*
X203328152Y-119078094D01*
X203328152Y-119078094D02*
X203232914Y-119125713D01*
X203232914Y-119125713D02*
X203185295Y-119125713D01*
X203185295Y-119125713D02*
X203090057Y-119078094D01*
X203090057Y-119078094D02*
X203042438Y-119030475D01*
X203042438Y-119030475D02*
X202994819Y-118935237D01*
X202994819Y-118935237D02*
X202994819Y-118744761D01*
X202994819Y-118744761D02*
X203042438Y-118649523D01*
X203042438Y-118649523D02*
X203090057Y-118601904D01*
X203090057Y-118601904D02*
X203185295Y-118554285D01*
X203185295Y-118554285D02*
X203232914Y-118554285D01*
X203232914Y-118554285D02*
X203328152Y-118601904D01*
X203328152Y-118601904D02*
X203375771Y-118649523D01*
X203375771Y-118649523D02*
X203423390Y-118744761D01*
X203423390Y-118744761D02*
X203423390Y-118935237D01*
X203423390Y-118935237D02*
X203471009Y-119030475D01*
X203471009Y-119030475D02*
X203518628Y-119078094D01*
X203518628Y-119078094D02*
X203613866Y-119125713D01*
X203613866Y-119125713D02*
X203804342Y-119125713D01*
X203804342Y-119125713D02*
X203899580Y-119078094D01*
X203899580Y-119078094D02*
X203947200Y-119030475D01*
X203947200Y-119030475D02*
X203994819Y-118935237D01*
X203994819Y-118935237D02*
X203994819Y-118744761D01*
X203994819Y-118744761D02*
X203947200Y-118649523D01*
X203947200Y-118649523D02*
X203899580Y-118601904D01*
X203899580Y-118601904D02*
X203804342Y-118554285D01*
X203804342Y-118554285D02*
X203613866Y-118554285D01*
X203613866Y-118554285D02*
X203518628Y-118601904D01*
X203518628Y-118601904D02*
X203471009Y-118649523D01*
X203471009Y-118649523D02*
X203423390Y-118744761D01*
X238500057Y-112331428D02*
X238452438Y-112426666D01*
X238452438Y-112426666D02*
X238357200Y-112521904D01*
X238357200Y-112521904D02*
X238214342Y-112664761D01*
X238214342Y-112664761D02*
X238166723Y-112759999D01*
X238166723Y-112759999D02*
X238166723Y-112855237D01*
X238404819Y-112807618D02*
X238357200Y-112902856D01*
X238357200Y-112902856D02*
X238261961Y-112998094D01*
X238261961Y-112998094D02*
X238071485Y-113045713D01*
X238071485Y-113045713D02*
X237738152Y-113045713D01*
X237738152Y-113045713D02*
X237547676Y-112998094D01*
X237547676Y-112998094D02*
X237452438Y-112902856D01*
X237452438Y-112902856D02*
X237404819Y-112807618D01*
X237404819Y-112807618D02*
X237404819Y-112617142D01*
X237404819Y-112617142D02*
X237452438Y-112521904D01*
X237452438Y-112521904D02*
X237547676Y-112426666D01*
X237547676Y-112426666D02*
X237738152Y-112379047D01*
X237738152Y-112379047D02*
X238071485Y-112379047D01*
X238071485Y-112379047D02*
X238261961Y-112426666D01*
X238261961Y-112426666D02*
X238357200Y-112521904D01*
X238357200Y-112521904D02*
X238404819Y-112617142D01*
X238404819Y-112617142D02*
X238404819Y-112807618D01*
X238404819Y-111426666D02*
X238404819Y-111998094D01*
X238404819Y-111712380D02*
X237404819Y-111712380D01*
X237404819Y-111712380D02*
X237547676Y-111807618D01*
X237547676Y-111807618D02*
X237642914Y-111902856D01*
X237642914Y-111902856D02*
X237690533Y-111998094D01*
X238404819Y-110474285D02*
X238404819Y-111045713D01*
X238404819Y-110759999D02*
X237404819Y-110759999D01*
X237404819Y-110759999D02*
X237547676Y-110855237D01*
X237547676Y-110855237D02*
X237642914Y-110950475D01*
X237642914Y-110950475D02*
X237690533Y-111045713D01*
X211518571Y-98590057D02*
X211423333Y-98542438D01*
X211423333Y-98542438D02*
X211328095Y-98447200D01*
X211328095Y-98447200D02*
X211185238Y-98304342D01*
X211185238Y-98304342D02*
X211090000Y-98256723D01*
X211090000Y-98256723D02*
X210994762Y-98256723D01*
X211042381Y-98494819D02*
X210947143Y-98447200D01*
X210947143Y-98447200D02*
X210851905Y-98351961D01*
X210851905Y-98351961D02*
X210804286Y-98161485D01*
X210804286Y-98161485D02*
X210804286Y-97828152D01*
X210804286Y-97828152D02*
X210851905Y-97637676D01*
X210851905Y-97637676D02*
X210947143Y-97542438D01*
X210947143Y-97542438D02*
X211042381Y-97494819D01*
X211042381Y-97494819D02*
X211232857Y-97494819D01*
X211232857Y-97494819D02*
X211328095Y-97542438D01*
X211328095Y-97542438D02*
X211423333Y-97637676D01*
X211423333Y-97637676D02*
X211470952Y-97828152D01*
X211470952Y-97828152D02*
X211470952Y-98161485D01*
X211470952Y-98161485D02*
X211423333Y-98351961D01*
X211423333Y-98351961D02*
X211328095Y-98447200D01*
X211328095Y-98447200D02*
X211232857Y-98494819D01*
X211232857Y-98494819D02*
X211042381Y-98494819D01*
X212423333Y-98494819D02*
X211851905Y-98494819D01*
X212137619Y-98494819D02*
X212137619Y-97494819D01*
X212137619Y-97494819D02*
X212042381Y-97637676D01*
X212042381Y-97637676D02*
X211947143Y-97732914D01*
X211947143Y-97732914D02*
X211851905Y-97780533D01*
X213042381Y-97494819D02*
X213137619Y-97494819D01*
X213137619Y-97494819D02*
X213232857Y-97542438D01*
X213232857Y-97542438D02*
X213280476Y-97590057D01*
X213280476Y-97590057D02*
X213328095Y-97685295D01*
X213328095Y-97685295D02*
X213375714Y-97875771D01*
X213375714Y-97875771D02*
X213375714Y-98113866D01*
X213375714Y-98113866D02*
X213328095Y-98304342D01*
X213328095Y-98304342D02*
X213280476Y-98399580D01*
X213280476Y-98399580D02*
X213232857Y-98447200D01*
X213232857Y-98447200D02*
X213137619Y-98494819D01*
X213137619Y-98494819D02*
X213042381Y-98494819D01*
X213042381Y-98494819D02*
X212947143Y-98447200D01*
X212947143Y-98447200D02*
X212899524Y-98399580D01*
X212899524Y-98399580D02*
X212851905Y-98304342D01*
X212851905Y-98304342D02*
X212804286Y-98113866D01*
X212804286Y-98113866D02*
X212804286Y-97875771D01*
X212804286Y-97875771D02*
X212851905Y-97685295D01*
X212851905Y-97685295D02*
X212899524Y-97590057D01*
X212899524Y-97590057D02*
X212947143Y-97542438D01*
X212947143Y-97542438D02*
X213042381Y-97494819D01*
X186594761Y-98590057D02*
X186499523Y-98542438D01*
X186499523Y-98542438D02*
X186404285Y-98447200D01*
X186404285Y-98447200D02*
X186261428Y-98304342D01*
X186261428Y-98304342D02*
X186166190Y-98256723D01*
X186166190Y-98256723D02*
X186070952Y-98256723D01*
X186118571Y-98494819D02*
X186023333Y-98447200D01*
X186023333Y-98447200D02*
X185928095Y-98351961D01*
X185928095Y-98351961D02*
X185880476Y-98161485D01*
X185880476Y-98161485D02*
X185880476Y-97828152D01*
X185880476Y-97828152D02*
X185928095Y-97637676D01*
X185928095Y-97637676D02*
X186023333Y-97542438D01*
X186023333Y-97542438D02*
X186118571Y-97494819D01*
X186118571Y-97494819D02*
X186309047Y-97494819D01*
X186309047Y-97494819D02*
X186404285Y-97542438D01*
X186404285Y-97542438D02*
X186499523Y-97637676D01*
X186499523Y-97637676D02*
X186547142Y-97828152D01*
X186547142Y-97828152D02*
X186547142Y-98161485D01*
X186547142Y-98161485D02*
X186499523Y-98351961D01*
X186499523Y-98351961D02*
X186404285Y-98447200D01*
X186404285Y-98447200D02*
X186309047Y-98494819D01*
X186309047Y-98494819D02*
X186118571Y-98494819D01*
X187118571Y-97923390D02*
X187023333Y-97875771D01*
X187023333Y-97875771D02*
X186975714Y-97828152D01*
X186975714Y-97828152D02*
X186928095Y-97732914D01*
X186928095Y-97732914D02*
X186928095Y-97685295D01*
X186928095Y-97685295D02*
X186975714Y-97590057D01*
X186975714Y-97590057D02*
X187023333Y-97542438D01*
X187023333Y-97542438D02*
X187118571Y-97494819D01*
X187118571Y-97494819D02*
X187309047Y-97494819D01*
X187309047Y-97494819D02*
X187404285Y-97542438D01*
X187404285Y-97542438D02*
X187451904Y-97590057D01*
X187451904Y-97590057D02*
X187499523Y-97685295D01*
X187499523Y-97685295D02*
X187499523Y-97732914D01*
X187499523Y-97732914D02*
X187451904Y-97828152D01*
X187451904Y-97828152D02*
X187404285Y-97875771D01*
X187404285Y-97875771D02*
X187309047Y-97923390D01*
X187309047Y-97923390D02*
X187118571Y-97923390D01*
X187118571Y-97923390D02*
X187023333Y-97971009D01*
X187023333Y-97971009D02*
X186975714Y-98018628D01*
X186975714Y-98018628D02*
X186928095Y-98113866D01*
X186928095Y-98113866D02*
X186928095Y-98304342D01*
X186928095Y-98304342D02*
X186975714Y-98399580D01*
X186975714Y-98399580D02*
X187023333Y-98447200D01*
X187023333Y-98447200D02*
X187118571Y-98494819D01*
X187118571Y-98494819D02*
X187309047Y-98494819D01*
X187309047Y-98494819D02*
X187404285Y-98447200D01*
X187404285Y-98447200D02*
X187451904Y-98399580D01*
X187451904Y-98399580D02*
X187499523Y-98304342D01*
X187499523Y-98304342D02*
X187499523Y-98113866D01*
X187499523Y-98113866D02*
X187451904Y-98018628D01*
X187451904Y-98018628D02*
X187404285Y-97971009D01*
X187404285Y-97971009D02*
X187309047Y-97923390D01*
X125644819Y-125221904D02*
X126454342Y-125221904D01*
X126454342Y-125221904D02*
X126549580Y-125174285D01*
X126549580Y-125174285D02*
X126597200Y-125126666D01*
X126597200Y-125126666D02*
X126644819Y-125031428D01*
X126644819Y-125031428D02*
X126644819Y-124840952D01*
X126644819Y-124840952D02*
X126597200Y-124745714D01*
X126597200Y-124745714D02*
X126549580Y-124698095D01*
X126549580Y-124698095D02*
X126454342Y-124650476D01*
X126454342Y-124650476D02*
X125644819Y-124650476D01*
X126644819Y-123650476D02*
X126644819Y-124221904D01*
X126644819Y-123936190D02*
X125644819Y-123936190D01*
X125644819Y-123936190D02*
X125787676Y-124031428D01*
X125787676Y-124031428D02*
X125882914Y-124126666D01*
X125882914Y-124126666D02*
X125930533Y-124221904D01*
X175093333Y-92064819D02*
X174760000Y-91588628D01*
X174521905Y-92064819D02*
X174521905Y-91064819D01*
X174521905Y-91064819D02*
X174902857Y-91064819D01*
X174902857Y-91064819D02*
X174998095Y-91112438D01*
X174998095Y-91112438D02*
X175045714Y-91160057D01*
X175045714Y-91160057D02*
X175093333Y-91255295D01*
X175093333Y-91255295D02*
X175093333Y-91398152D01*
X175093333Y-91398152D02*
X175045714Y-91493390D01*
X175045714Y-91493390D02*
X174998095Y-91541009D01*
X174998095Y-91541009D02*
X174902857Y-91588628D01*
X174902857Y-91588628D02*
X174521905Y-91588628D01*
X175998095Y-91064819D02*
X175521905Y-91064819D01*
X175521905Y-91064819D02*
X175474286Y-91541009D01*
X175474286Y-91541009D02*
X175521905Y-91493390D01*
X175521905Y-91493390D02*
X175617143Y-91445771D01*
X175617143Y-91445771D02*
X175855238Y-91445771D01*
X175855238Y-91445771D02*
X175950476Y-91493390D01*
X175950476Y-91493390D02*
X175998095Y-91541009D01*
X175998095Y-91541009D02*
X176045714Y-91636247D01*
X176045714Y-91636247D02*
X176045714Y-91874342D01*
X176045714Y-91874342D02*
X175998095Y-91969580D01*
X175998095Y-91969580D02*
X175950476Y-92017200D01*
X175950476Y-92017200D02*
X175855238Y-92064819D01*
X175855238Y-92064819D02*
X175617143Y-92064819D01*
X175617143Y-92064819D02*
X175521905Y-92017200D01*
X175521905Y-92017200D02*
X175474286Y-91969580D01*
X241999580Y-119506666D02*
X242047200Y-119554285D01*
X242047200Y-119554285D02*
X242094819Y-119697142D01*
X242094819Y-119697142D02*
X242094819Y-119792380D01*
X242094819Y-119792380D02*
X242047200Y-119935237D01*
X242047200Y-119935237D02*
X241951961Y-120030475D01*
X241951961Y-120030475D02*
X241856723Y-120078094D01*
X241856723Y-120078094D02*
X241666247Y-120125713D01*
X241666247Y-120125713D02*
X241523390Y-120125713D01*
X241523390Y-120125713D02*
X241332914Y-120078094D01*
X241332914Y-120078094D02*
X241237676Y-120030475D01*
X241237676Y-120030475D02*
X241142438Y-119935237D01*
X241142438Y-119935237D02*
X241094819Y-119792380D01*
X241094819Y-119792380D02*
X241094819Y-119697142D01*
X241094819Y-119697142D02*
X241142438Y-119554285D01*
X241142438Y-119554285D02*
X241190057Y-119506666D01*
X242094819Y-119030475D02*
X242094819Y-118839999D01*
X242094819Y-118839999D02*
X242047200Y-118744761D01*
X242047200Y-118744761D02*
X241999580Y-118697142D01*
X241999580Y-118697142D02*
X241856723Y-118601904D01*
X241856723Y-118601904D02*
X241666247Y-118554285D01*
X241666247Y-118554285D02*
X241285295Y-118554285D01*
X241285295Y-118554285D02*
X241190057Y-118601904D01*
X241190057Y-118601904D02*
X241142438Y-118649523D01*
X241142438Y-118649523D02*
X241094819Y-118744761D01*
X241094819Y-118744761D02*
X241094819Y-118935237D01*
X241094819Y-118935237D02*
X241142438Y-119030475D01*
X241142438Y-119030475D02*
X241190057Y-119078094D01*
X241190057Y-119078094D02*
X241285295Y-119125713D01*
X241285295Y-119125713D02*
X241523390Y-119125713D01*
X241523390Y-119125713D02*
X241618628Y-119078094D01*
X241618628Y-119078094D02*
X241666247Y-119030475D01*
X241666247Y-119030475D02*
X241713866Y-118935237D01*
X241713866Y-118935237D02*
X241713866Y-118744761D01*
X241713866Y-118744761D02*
X241666247Y-118649523D01*
X241666247Y-118649523D02*
X241618628Y-118601904D01*
X241618628Y-118601904D02*
X241523390Y-118554285D01*
X234378571Y-98590057D02*
X234283333Y-98542438D01*
X234283333Y-98542438D02*
X234188095Y-98447200D01*
X234188095Y-98447200D02*
X234045238Y-98304342D01*
X234045238Y-98304342D02*
X233950000Y-98256723D01*
X233950000Y-98256723D02*
X233854762Y-98256723D01*
X233902381Y-98494819D02*
X233807143Y-98447200D01*
X233807143Y-98447200D02*
X233711905Y-98351961D01*
X233711905Y-98351961D02*
X233664286Y-98161485D01*
X233664286Y-98161485D02*
X233664286Y-97828152D01*
X233664286Y-97828152D02*
X233711905Y-97637676D01*
X233711905Y-97637676D02*
X233807143Y-97542438D01*
X233807143Y-97542438D02*
X233902381Y-97494819D01*
X233902381Y-97494819D02*
X234092857Y-97494819D01*
X234092857Y-97494819D02*
X234188095Y-97542438D01*
X234188095Y-97542438D02*
X234283333Y-97637676D01*
X234283333Y-97637676D02*
X234330952Y-97828152D01*
X234330952Y-97828152D02*
X234330952Y-98161485D01*
X234330952Y-98161485D02*
X234283333Y-98351961D01*
X234283333Y-98351961D02*
X234188095Y-98447200D01*
X234188095Y-98447200D02*
X234092857Y-98494819D01*
X234092857Y-98494819D02*
X233902381Y-98494819D01*
X235283333Y-98494819D02*
X234711905Y-98494819D01*
X234997619Y-98494819D02*
X234997619Y-97494819D01*
X234997619Y-97494819D02*
X234902381Y-97637676D01*
X234902381Y-97637676D02*
X234807143Y-97732914D01*
X234807143Y-97732914D02*
X234711905Y-97780533D01*
X235664286Y-97590057D02*
X235711905Y-97542438D01*
X235711905Y-97542438D02*
X235807143Y-97494819D01*
X235807143Y-97494819D02*
X236045238Y-97494819D01*
X236045238Y-97494819D02*
X236140476Y-97542438D01*
X236140476Y-97542438D02*
X236188095Y-97590057D01*
X236188095Y-97590057D02*
X236235714Y-97685295D01*
X236235714Y-97685295D02*
X236235714Y-97780533D01*
X236235714Y-97780533D02*
X236188095Y-97923390D01*
X236188095Y-97923390D02*
X235616667Y-98494819D01*
X235616667Y-98494819D02*
X236235714Y-98494819D01*
D11*
X140740000Y-93980000D02*
X141510000Y-93980000D01*
X141510000Y-92610000D02*
X141510000Y-95350000D01*
X141510000Y-95350000D02*
X148050000Y-95350000D01*
X148050000Y-92610000D02*
X141510000Y-92610000D01*
X148050000Y-95350000D02*
X148050000Y-92610000D01*
X148820000Y-93980000D02*
X148050000Y-93980000D01*
X167870000Y-133565000D02*
X167870000Y-133550000D01*
X167870000Y-135690000D02*
X167870000Y-135675000D01*
X172410000Y-133550000D02*
X167870000Y-133550000D01*
X172410000Y-133565000D02*
X172410000Y-133550000D01*
X172410000Y-135690000D02*
X167870000Y-135690000D01*
X172410000Y-135690000D02*
X172410000Y-135675000D01*
X116310000Y-103450000D02*
X119910000Y-103450000D01*
X116271522Y-103438478D02*
G75*
G02*
X118110000Y-98999999I1838478J1838478D01*
G01*
X118110000Y-99000000D02*
G75*
G02*
X119948478Y-103438478I0J-2600000D01*
G01*
X125890000Y-53190000D02*
X125890000Y-56910000D01*
X125890000Y-55000000D02*
X126290000Y-55000000D01*
X125890000Y-56000000D02*
X126290000Y-56000000D01*
X125890000Y-56910000D02*
X142610000Y-56910000D01*
X126290000Y-53590000D02*
X126290000Y-56510000D01*
X126290000Y-56510000D02*
X142210000Y-56510000D01*
X128150000Y-53990000D02*
X128150000Y-53590000D01*
X128250000Y-53590000D02*
X128250000Y-53990000D01*
X128350000Y-53590000D02*
X128350000Y-53990000D01*
X128350000Y-53990000D02*
X128150000Y-53990000D01*
X129650000Y-53990000D02*
X129650000Y-53590000D01*
X129750000Y-53590000D02*
X129750000Y-53990000D01*
X129850000Y-53590000D02*
X129850000Y-53990000D01*
X129850000Y-53990000D02*
X129650000Y-53990000D01*
X131150000Y-53990000D02*
X131150000Y-53590000D01*
X131250000Y-53590000D02*
X131250000Y-53990000D01*
X131350000Y-53590000D02*
X131350000Y-53990000D01*
X131350000Y-53990000D02*
X131150000Y-53990000D01*
X132650000Y-53990000D02*
X132650000Y-53590000D01*
X132750000Y-53590000D02*
X132750000Y-53990000D01*
X132850000Y-53590000D02*
X132850000Y-53990000D01*
X132850000Y-53990000D02*
X132650000Y-53990000D01*
X134150000Y-53990000D02*
X134150000Y-53590000D01*
X134250000Y-53590000D02*
X134250000Y-53990000D01*
X134350000Y-53590000D02*
X134350000Y-53990000D01*
X134350000Y-53990000D02*
X134150000Y-53990000D01*
X135650000Y-53990000D02*
X135650000Y-53590000D01*
X135750000Y-53590000D02*
X135750000Y-53990000D01*
X135850000Y-53590000D02*
X135850000Y-53990000D01*
X135850000Y-53990000D02*
X135650000Y-53990000D01*
X137150000Y-53990000D02*
X137150000Y-53590000D01*
X137250000Y-53590000D02*
X137250000Y-53990000D01*
X137350000Y-53590000D02*
X137350000Y-53990000D01*
X137350000Y-53990000D02*
X137150000Y-53990000D01*
X138650000Y-53990000D02*
X138650000Y-53590000D01*
X138750000Y-53590000D02*
X138750000Y-53990000D01*
X138850000Y-53590000D02*
X138850000Y-53990000D01*
X138850000Y-53990000D02*
X138650000Y-53990000D01*
X140150000Y-53990000D02*
X140150000Y-53590000D01*
X140250000Y-53590000D02*
X140250000Y-53990000D01*
X140350000Y-53590000D02*
X140350000Y-53990000D01*
X140350000Y-53990000D02*
X140150000Y-53990000D01*
X141300000Y-56910000D02*
X141300000Y-57110000D01*
X141300000Y-57010000D02*
X141600000Y-57010000D01*
X141300000Y-57110000D02*
X141600000Y-57110000D01*
X141600000Y-57110000D02*
X141600000Y-56910000D01*
X142010000Y-57110000D02*
X142810000Y-57110000D01*
X142210000Y-53590000D02*
X126290000Y-53590000D01*
X142210000Y-56510000D02*
X142210000Y-53590000D01*
X142610000Y-53190000D02*
X125890000Y-53190000D01*
X142610000Y-55000000D02*
X142210000Y-55000000D01*
X142610000Y-56000000D02*
X142210000Y-56000000D01*
X142610000Y-56910000D02*
X142610000Y-53190000D01*
X142810000Y-57110000D02*
X142810000Y-56310000D01*
X139170000Y-103450000D02*
X142770000Y-103450000D01*
X139131522Y-103438478D02*
G75*
G02*
X140970000Y-98999999I1838478J1838478D01*
G01*
X140970000Y-99000000D02*
G75*
G02*
X142808478Y-103438478I0J-2600000D01*
G01*
X219480000Y-93980000D02*
X220250000Y-93980000D01*
X220250000Y-92610000D02*
X220250000Y-95350000D01*
X220250000Y-95350000D02*
X226790000Y-95350000D01*
X226790000Y-92610000D02*
X220250000Y-92610000D01*
X226790000Y-95350000D02*
X226790000Y-92610000D01*
X227560000Y-93980000D02*
X226790000Y-93980000D01*
X205750000Y-142710000D02*
X206250000Y-142710000D01*
X206000000Y-143210000D02*
X205750000Y-142710000D01*
X206250000Y-142710000D02*
X206000000Y-143210000D01*
X113230000Y-117070000D02*
X113245000Y-117070000D01*
X113230000Y-121610000D02*
X113230000Y-117070000D01*
X113230000Y-121610000D02*
X113245000Y-121610000D01*
X115355000Y-117070000D02*
X115370000Y-117070000D01*
X115355000Y-121610000D02*
X115370000Y-121610000D01*
X115370000Y-121610000D02*
X115370000Y-117070000D01*
X237750000Y-142710000D02*
X238250000Y-142710000D01*
X238000000Y-143210000D02*
X237750000Y-142710000D01*
X238250000Y-142710000D02*
X238000000Y-143210000D01*
X166269000Y-106640000D02*
X166269000Y-116880000D01*
X169400000Y-106640000D02*
X169400000Y-116880000D01*
X170910000Y-106640000D02*
X166269000Y-106640000D01*
X170910000Y-106640000D02*
X170910000Y-116880000D01*
X170910000Y-109910000D02*
X169400000Y-109910000D01*
X170910000Y-113611000D02*
X169400000Y-113611000D01*
X170910000Y-116880000D02*
X166269000Y-116880000D01*
X232309000Y-119340000D02*
X232309000Y-129580000D01*
X235440000Y-119340000D02*
X235440000Y-129580000D01*
X236950000Y-119340000D02*
X232309000Y-119340000D01*
X236950000Y-119340000D02*
X236950000Y-129580000D01*
X236950000Y-122610000D02*
X235440000Y-122610000D01*
X236950000Y-126311000D02*
X235440000Y-126311000D01*
X236950000Y-129580000D02*
X232309000Y-129580000D01*
X184049000Y-106640000D02*
X184049000Y-116880000D01*
X187180000Y-106640000D02*
X187180000Y-116880000D01*
X188690000Y-106640000D02*
X184049000Y-106640000D01*
X188690000Y-106640000D02*
X188690000Y-116880000D01*
X188690000Y-109910000D02*
X187180000Y-109910000D01*
X188690000Y-113611000D02*
X187180000Y-113611000D01*
X188690000Y-116880000D02*
X184049000Y-116880000D01*
X125500000Y-101600000D02*
X126270000Y-101600000D01*
X126270000Y-100230000D02*
X126270000Y-102970000D01*
X126270000Y-102970000D02*
X132810000Y-102970000D01*
X132810000Y-100230000D02*
X126270000Y-100230000D01*
X132810000Y-102970000D02*
X132810000Y-100230000D01*
X133580000Y-101600000D02*
X132810000Y-101600000D01*
X138329000Y-119340000D02*
X138329000Y-129580000D01*
X141460000Y-119340000D02*
X141460000Y-129580000D01*
X142970000Y-119340000D02*
X138329000Y-119340000D01*
X142970000Y-119340000D02*
X142970000Y-129580000D01*
X142970000Y-122610000D02*
X141460000Y-122610000D01*
X142970000Y-126311000D02*
X141460000Y-126311000D01*
X142970000Y-129580000D02*
X138329000Y-129580000D01*
X162030000Y-103450000D02*
X165630000Y-103450000D01*
X161991522Y-103438478D02*
G75*
G02*
X163830000Y-98999999I1838478J1838478D01*
G01*
X163830000Y-99000000D02*
G75*
G02*
X165668478Y-103438478I0J-2600000D01*
G01*
X216210000Y-133565000D02*
X216210000Y-133550000D01*
X216210000Y-135690000D02*
X216210000Y-135675000D01*
X220750000Y-133550000D02*
X216210000Y-133550000D01*
X220750000Y-133565000D02*
X220750000Y-133550000D01*
X220750000Y-135690000D02*
X216210000Y-135690000D01*
X220750000Y-135690000D02*
X220750000Y-135675000D01*
X157750000Y-142710000D02*
X158250000Y-142710000D01*
X158000000Y-143210000D02*
X157750000Y-142710000D01*
X158250000Y-142710000D02*
X158000000Y-143210000D01*
X186460000Y-93980000D02*
X187230000Y-93980000D01*
X187230000Y-92610000D02*
X187230000Y-95350000D01*
X187230000Y-95350000D02*
X193770000Y-95350000D01*
X193770000Y-92610000D02*
X187230000Y-92610000D01*
X193770000Y-95350000D02*
X193770000Y-92610000D01*
X194540000Y-93980000D02*
X193770000Y-93980000D01*
X184049000Y-119340000D02*
X184049000Y-129580000D01*
X187180000Y-119340000D02*
X187180000Y-129580000D01*
X188690000Y-119340000D02*
X184049000Y-119340000D01*
X188690000Y-119340000D02*
X188690000Y-129580000D01*
X188690000Y-122610000D02*
X187180000Y-122610000D01*
X188690000Y-126311000D02*
X187180000Y-126311000D01*
X188690000Y-129580000D02*
X184049000Y-129580000D01*
X158870000Y-117070000D02*
X158885000Y-117070000D01*
X158870000Y-121610000D02*
X158870000Y-117070000D01*
X158870000Y-121610000D02*
X158885000Y-121610000D01*
X160995000Y-117070000D02*
X161010000Y-117070000D01*
X160995000Y-121610000D02*
X161010000Y-121610000D01*
X161010000Y-121610000D02*
X161010000Y-117070000D01*
X138329000Y-106640000D02*
X138329000Y-116880000D01*
X141460000Y-106640000D02*
X141460000Y-116880000D01*
X142970000Y-106640000D02*
X138329000Y-106640000D01*
X142970000Y-106640000D02*
X142970000Y-116880000D01*
X142970000Y-109910000D02*
X141460000Y-109910000D01*
X142970000Y-113611000D02*
X141460000Y-113611000D01*
X142970000Y-116880000D02*
X138329000Y-116880000D01*
X143450000Y-72680000D02*
X143450000Y-73930000D01*
X143450000Y-75930000D02*
X143450000Y-77180000D01*
X143450000Y-77180000D02*
X161350000Y-77180000D01*
X161350000Y-72680000D02*
X143450000Y-72680000D01*
X161350000Y-77180000D02*
X161350000Y-72680000D01*
X143390000Y-80180000D02*
X161410000Y-80180000D01*
X161410000Y-69680000D01*
X143390000Y-69680000D01*
X143390000Y-80180000D01*
X143450000Y-73930000D02*
G75*
G02*
X143450000Y-75930000I0J-1000000D01*
G01*
X125500000Y-93980000D02*
X126270000Y-93980000D01*
X126270000Y-92610000D02*
X126270000Y-95350000D01*
X126270000Y-95350000D02*
X132810000Y-95350000D01*
X132810000Y-92610000D02*
X126270000Y-92610000D01*
X132810000Y-95350000D02*
X132810000Y-92610000D01*
X133580000Y-93980000D02*
X132810000Y-93980000D01*
X234720000Y-93980000D02*
X235490000Y-93980000D01*
X235490000Y-92610000D02*
X235490000Y-95350000D01*
X235490000Y-95350000D02*
X242030000Y-95350000D01*
X242030000Y-92610000D02*
X235490000Y-92610000D01*
X242030000Y-95350000D02*
X242030000Y-92610000D01*
X242800000Y-93980000D02*
X242030000Y-93980000D01*
X166269000Y-119340000D02*
X166269000Y-129580000D01*
X169400000Y-119340000D02*
X169400000Y-129580000D01*
X170910000Y-119340000D02*
X166269000Y-119340000D01*
X170910000Y-119340000D02*
X170910000Y-129580000D01*
X170910000Y-122610000D02*
X169400000Y-122610000D01*
X170910000Y-126311000D02*
X169400000Y-126311000D01*
X170910000Y-129580000D02*
X166269000Y-129580000D01*
X221750000Y-142710000D02*
X222250000Y-142710000D01*
X222000000Y-143210000D02*
X221750000Y-142710000D01*
X222250000Y-142710000D02*
X222000000Y-143210000D01*
X214529000Y-119340000D02*
X214529000Y-129580000D01*
X217660000Y-119340000D02*
X217660000Y-129580000D01*
X219170000Y-119340000D02*
X214529000Y-119340000D01*
X219170000Y-119340000D02*
X219170000Y-129580000D01*
X219170000Y-122610000D02*
X217660000Y-122610000D01*
X219170000Y-126311000D02*
X217660000Y-126311000D01*
X219170000Y-129580000D02*
X214529000Y-129580000D01*
X109750000Y-142710000D02*
X110250000Y-142710000D01*
X110000000Y-143210000D02*
X109750000Y-142710000D01*
X110250000Y-142710000D02*
X110000000Y-143210000D01*
X219480000Y-101600000D02*
X220250000Y-101600000D01*
X220250000Y-100230000D02*
X220250000Y-102970000D01*
X220250000Y-102970000D02*
X226790000Y-102970000D01*
X226790000Y-100230000D02*
X220250000Y-100230000D01*
X226790000Y-102970000D02*
X226790000Y-100230000D01*
X227560000Y-101600000D02*
X226790000Y-101600000D01*
X194510000Y-117150000D02*
X194525000Y-117150000D01*
X194510000Y-121690000D02*
X194510000Y-117150000D01*
X194510000Y-121690000D02*
X194525000Y-121690000D01*
X196635000Y-117150000D02*
X196650000Y-117150000D01*
X196635000Y-121690000D02*
X196650000Y-121690000D01*
X196650000Y-121690000D02*
X196650000Y-117150000D01*
X189750000Y-142710000D02*
X190250000Y-142710000D01*
X190000000Y-143210000D02*
X189750000Y-142710000D01*
X190250000Y-142710000D02*
X190000000Y-143210000D01*
X171220000Y-101600000D02*
X171990000Y-101600000D01*
X171990000Y-100230000D02*
X171990000Y-102970000D01*
X171990000Y-102970000D02*
X178530000Y-102970000D01*
X178530000Y-100230000D02*
X171990000Y-100230000D01*
X178530000Y-102970000D02*
X178530000Y-100230000D01*
X179300000Y-101600000D02*
X178530000Y-101600000D01*
X148790000Y-117150000D02*
X148805000Y-117150000D01*
X148790000Y-121690000D02*
X148790000Y-117150000D01*
X148790000Y-121690000D02*
X148805000Y-121690000D01*
X150915000Y-117150000D02*
X150930000Y-117150000D01*
X150915000Y-121690000D02*
X150930000Y-121690000D01*
X150930000Y-121690000D02*
X150930000Y-117150000D01*
X122150000Y-133565000D02*
X122150000Y-133550000D01*
X122150000Y-135690000D02*
X122150000Y-135675000D01*
X126690000Y-133550000D02*
X122150000Y-133550000D01*
X126690000Y-133565000D02*
X126690000Y-133550000D01*
X126690000Y-135690000D02*
X122150000Y-135690000D01*
X126690000Y-135690000D02*
X126690000Y-135675000D01*
X173750000Y-142710000D02*
X174250000Y-142710000D01*
X174000000Y-143210000D02*
X173750000Y-142710000D01*
X174250000Y-142710000D02*
X174000000Y-143210000D01*
X141750000Y-142710000D02*
X142250000Y-142710000D01*
X142000000Y-143210000D02*
X141750000Y-142710000D01*
X142250000Y-142710000D02*
X142000000Y-143210000D01*
X105890000Y-53190000D02*
X105890000Y-56910000D01*
X105890000Y-55000000D02*
X106290000Y-55000000D01*
X105890000Y-56000000D02*
X106290000Y-56000000D01*
X105890000Y-56910000D02*
X122610000Y-56910000D01*
X106290000Y-53590000D02*
X106290000Y-56510000D01*
X106290000Y-56510000D02*
X122210000Y-56510000D01*
X108150000Y-53990000D02*
X108150000Y-53590000D01*
X108250000Y-53590000D02*
X108250000Y-53990000D01*
X108350000Y-53590000D02*
X108350000Y-53990000D01*
X108350000Y-53990000D02*
X108150000Y-53990000D01*
X109650000Y-53990000D02*
X109650000Y-53590000D01*
X109750000Y-53590000D02*
X109750000Y-53990000D01*
X109850000Y-53590000D02*
X109850000Y-53990000D01*
X109850000Y-53990000D02*
X109650000Y-53990000D01*
X111150000Y-53990000D02*
X111150000Y-53590000D01*
X111250000Y-53590000D02*
X111250000Y-53990000D01*
X111350000Y-53590000D02*
X111350000Y-53990000D01*
X111350000Y-53990000D02*
X111150000Y-53990000D01*
X112650000Y-53990000D02*
X112650000Y-53590000D01*
X112750000Y-53590000D02*
X112750000Y-53990000D01*
X112850000Y-53590000D02*
X112850000Y-53990000D01*
X112850000Y-53990000D02*
X112650000Y-53990000D01*
X114150000Y-53990000D02*
X114150000Y-53590000D01*
X114250000Y-53590000D02*
X114250000Y-53990000D01*
X114350000Y-53590000D02*
X114350000Y-53990000D01*
X114350000Y-53990000D02*
X114150000Y-53990000D01*
X115650000Y-53990000D02*
X115650000Y-53590000D01*
X115750000Y-53590000D02*
X115750000Y-53990000D01*
X115850000Y-53590000D02*
X115850000Y-53990000D01*
X115850000Y-53990000D02*
X115650000Y-53990000D01*
X117150000Y-53990000D02*
X117150000Y-53590000D01*
X117250000Y-53590000D02*
X117250000Y-53990000D01*
X117350000Y-53590000D02*
X117350000Y-53990000D01*
X117350000Y-53990000D02*
X117150000Y-53990000D01*
X118650000Y-53990000D02*
X118650000Y-53590000D01*
X118750000Y-53590000D02*
X118750000Y-53990000D01*
X118850000Y-53590000D02*
X118850000Y-53990000D01*
X118850000Y-53990000D02*
X118650000Y-53990000D01*
X120150000Y-53990000D02*
X120150000Y-53590000D01*
X120250000Y-53590000D02*
X120250000Y-53990000D01*
X120350000Y-53590000D02*
X120350000Y-53990000D01*
X120350000Y-53990000D02*
X120150000Y-53990000D01*
X121300000Y-56910000D02*
X121300000Y-57110000D01*
X121300000Y-57010000D02*
X121600000Y-57010000D01*
X121300000Y-57110000D02*
X121600000Y-57110000D01*
X121600000Y-57110000D02*
X121600000Y-56910000D01*
X122010000Y-57110000D02*
X122810000Y-57110000D01*
X122210000Y-53590000D02*
X106290000Y-53590000D01*
X122210000Y-56510000D02*
X122210000Y-53590000D01*
X122610000Y-53190000D02*
X105890000Y-53190000D01*
X122610000Y-55000000D02*
X122210000Y-55000000D01*
X122610000Y-56000000D02*
X122210000Y-56000000D01*
X122610000Y-56910000D02*
X122610000Y-53190000D01*
X122810000Y-57110000D02*
X122810000Y-56310000D01*
X214529000Y-106640000D02*
X214529000Y-116880000D01*
X217660000Y-106640000D02*
X217660000Y-116880000D01*
X219170000Y-106640000D02*
X214529000Y-106640000D01*
X219170000Y-106640000D02*
X219170000Y-116880000D01*
X219170000Y-109910000D02*
X217660000Y-109910000D01*
X219170000Y-113611000D02*
X217660000Y-113611000D01*
X219170000Y-116880000D02*
X214529000Y-116880000D01*
X125750000Y-142710000D02*
X126250000Y-142710000D01*
X126000000Y-143210000D02*
X125750000Y-142710000D01*
X126250000Y-142710000D02*
X126000000Y-143210000D01*
X120549000Y-106640000D02*
X120549000Y-116880000D01*
X123680000Y-106640000D02*
X123680000Y-116880000D01*
X125190000Y-106640000D02*
X120549000Y-106640000D01*
X125190000Y-106640000D02*
X125190000Y-116880000D01*
X125190000Y-109910000D02*
X123680000Y-109910000D01*
X125190000Y-113611000D02*
X123680000Y-113611000D01*
X125190000Y-116880000D02*
X120549000Y-116880000D01*
X204670000Y-117070000D02*
X204685000Y-117070000D01*
X204670000Y-121610000D02*
X204670000Y-117070000D01*
X204670000Y-121610000D02*
X204685000Y-121610000D01*
X206795000Y-117070000D02*
X206810000Y-117070000D01*
X206795000Y-121610000D02*
X206810000Y-121610000D01*
X206810000Y-121610000D02*
X206810000Y-117070000D01*
X232309000Y-106640000D02*
X232309000Y-116880000D01*
X235440000Y-106640000D02*
X235440000Y-116880000D01*
X236950000Y-106640000D02*
X232309000Y-106640000D01*
X236950000Y-106640000D02*
X236950000Y-116880000D01*
X236950000Y-109910000D02*
X235440000Y-109910000D01*
X236950000Y-113611000D02*
X235440000Y-113611000D01*
X236950000Y-116880000D02*
X232309000Y-116880000D01*
X210290000Y-103450000D02*
X213890000Y-103450000D01*
X210251522Y-103438478D02*
G75*
G02*
X212090000Y-98999999I1838478J1838478D01*
G01*
X212090000Y-99000000D02*
G75*
G02*
X213928478Y-103438478I0J-2600000D01*
G01*
X184890000Y-103450000D02*
X188490000Y-103450000D01*
X184851522Y-103438478D02*
G75*
G02*
X186690000Y-98999999I1838478J1838478D01*
G01*
X186690000Y-99000000D02*
G75*
G02*
X188528478Y-103438478I0J-2600000D01*
G01*
X120549000Y-119340000D02*
X120549000Y-129580000D01*
X123680000Y-119340000D02*
X123680000Y-129580000D01*
X125190000Y-119340000D02*
X120549000Y-119340000D01*
X125190000Y-119340000D02*
X125190000Y-129580000D01*
X125190000Y-122610000D02*
X123680000Y-122610000D01*
X125190000Y-126311000D02*
X123680000Y-126311000D01*
X125190000Y-129580000D02*
X120549000Y-129580000D01*
X171220000Y-93980000D02*
X171990000Y-93980000D01*
X171990000Y-92610000D02*
X171990000Y-95350000D01*
X171990000Y-95350000D02*
X178530000Y-95350000D01*
X178530000Y-92610000D02*
X171990000Y-92610000D01*
X178530000Y-95350000D02*
X178530000Y-92610000D01*
X179300000Y-93980000D02*
X178530000Y-93980000D01*
X242770000Y-117070000D02*
X242785000Y-117070000D01*
X242770000Y-121610000D02*
X242770000Y-117070000D01*
X242770000Y-121610000D02*
X242785000Y-121610000D01*
X244895000Y-117070000D02*
X244910000Y-117070000D01*
X244895000Y-121610000D02*
X244910000Y-121610000D01*
X244910000Y-121610000D02*
X244910000Y-117070000D01*
X233150000Y-103450000D02*
X236750000Y-103450000D01*
X233111522Y-103438478D02*
G75*
G02*
X234950000Y-98999999I1838478J1838478D01*
G01*
X234950000Y-99000000D02*
G75*
G02*
X236788478Y-103438478I0J-2600000D01*
G01*
%LPC*%
D12*
X149860000Y-93980000D03*
D13*
X139700000Y-93980000D03*
D12*
X172640000Y-134620000D03*
X167640000Y-134620000D03*
D14*
X146900000Y-55000000D03*
D15*
X151700000Y-55000000D03*
X156500000Y-55000000D03*
X161300000Y-55000000D03*
X166100000Y-55000000D03*
D16*
X116840000Y-101600000D03*
D17*
X118110000Y-101600000D03*
X119380000Y-101600000D03*
D18*
X141000000Y-55500000D03*
D19*
X139500000Y-55500000D03*
X138000000Y-55500000D03*
X136500000Y-55500000D03*
X135000000Y-55500000D03*
X133500000Y-55500000D03*
X132000000Y-55500000D03*
X130500000Y-55500000D03*
X129000000Y-55500000D03*
X127500000Y-55500000D03*
D16*
X139700000Y-101600000D03*
D17*
X140970000Y-101600000D03*
X142240000Y-101600000D03*
D12*
X218440000Y-93980000D03*
D13*
X228600000Y-93980000D03*
D20*
X206000000Y-146930000D03*
D21*
X201620000Y-146930000D03*
X210380000Y-146930000D03*
D12*
X114300000Y-121840000D03*
X114300000Y-116840000D03*
D20*
X238000000Y-146930000D03*
D21*
X233620000Y-146930000D03*
X242380000Y-146930000D03*
D22*
X167640000Y-109220000D03*
D23*
X167640000Y-111760000D03*
X167640000Y-114300000D03*
D22*
X233680000Y-121920000D03*
D23*
X233680000Y-124460000D03*
X233680000Y-127000000D03*
D24*
X190000000Y-135000000D03*
D22*
X185420000Y-109220000D03*
D23*
X185420000Y-111760000D03*
X185420000Y-114300000D03*
D12*
X124460000Y-101600000D03*
D13*
X134620000Y-101600000D03*
D24*
X110000000Y-65000000D03*
D22*
X139700000Y-121920000D03*
D23*
X139700000Y-124460000D03*
X139700000Y-127000000D03*
D16*
X162560000Y-101600000D03*
D17*
X163830000Y-101600000D03*
X165100000Y-101600000D03*
D12*
X220980000Y-134620000D03*
X215980000Y-134620000D03*
D20*
X158000000Y-146930000D03*
D21*
X153620000Y-146930000D03*
X162380000Y-146930000D03*
D12*
X195580000Y-93980000D03*
D13*
X185420000Y-93980000D03*
D24*
X190000000Y-65000000D03*
D22*
X185420000Y-121920000D03*
D23*
X185420000Y-124460000D03*
X185420000Y-127000000D03*
D12*
X159940000Y-121840000D03*
X159940000Y-116840000D03*
D22*
X139700000Y-109220000D03*
D23*
X139700000Y-111760000D03*
X139700000Y-114300000D03*
D25*
X144780000Y-78740000D03*
D26*
X147320000Y-78740000D03*
X149860000Y-78740000D03*
X152400000Y-78740000D03*
X154940000Y-78740000D03*
X157480000Y-78740000D03*
X160020000Y-78740000D03*
X160020000Y-71120000D03*
X157480000Y-71120000D03*
X154940000Y-71120000D03*
X152400000Y-71120000D03*
X149860000Y-71120000D03*
X147320000Y-71120000D03*
X144780000Y-71120000D03*
D24*
X110000000Y-135000000D03*
D12*
X124460000Y-93980000D03*
D13*
X134620000Y-93980000D03*
D12*
X243840000Y-93980000D03*
D13*
X233680000Y-93980000D03*
D22*
X167640000Y-121920000D03*
D23*
X167640000Y-124460000D03*
X167640000Y-127000000D03*
D20*
X222000000Y-146930000D03*
D21*
X217620000Y-146930000D03*
X226380000Y-146930000D03*
D22*
X215900000Y-121920000D03*
D23*
X215900000Y-124460000D03*
X215900000Y-127000000D03*
D20*
X110000000Y-146930000D03*
D21*
X105620000Y-146930000D03*
X114380000Y-146930000D03*
D12*
X218440000Y-101600000D03*
D13*
X228600000Y-101600000D03*
D12*
X195580000Y-121920000D03*
X195580000Y-116920000D03*
D20*
X190000000Y-146930000D03*
D21*
X185620000Y-146930000D03*
X194380000Y-146930000D03*
D12*
X170180000Y-101600000D03*
D13*
X180340000Y-101600000D03*
D12*
X149860000Y-121920000D03*
X149860000Y-116920000D03*
X126920000Y-134620000D03*
X121920000Y-134620000D03*
D20*
X174000000Y-146930000D03*
D21*
X169620000Y-146930000D03*
X178380000Y-146930000D03*
D20*
X142000000Y-146930000D03*
D21*
X137620000Y-146930000D03*
X146380000Y-146930000D03*
D18*
X121000000Y-55500000D03*
D19*
X119500000Y-55500000D03*
X118000000Y-55500000D03*
X116500000Y-55500000D03*
X115000000Y-55500000D03*
X113500000Y-55500000D03*
X112000000Y-55500000D03*
X110500000Y-55500000D03*
X109000000Y-55500000D03*
X107500000Y-55500000D03*
D27*
X183000000Y-60800000D03*
D15*
X178200000Y-60800000D03*
X173400000Y-60800000D03*
D22*
X215900000Y-109220000D03*
D23*
X215900000Y-111760000D03*
X215900000Y-114300000D03*
D20*
X126000000Y-146930000D03*
D21*
X121620000Y-146930000D03*
X130380000Y-146930000D03*
D22*
X121920000Y-109220000D03*
D23*
X121920000Y-111760000D03*
X121920000Y-114300000D03*
D12*
X205740000Y-121840000D03*
X205740000Y-116840000D03*
D22*
X233680000Y-109220000D03*
D23*
X233680000Y-111760000D03*
X233680000Y-114300000D03*
D16*
X210820000Y-101600000D03*
D17*
X212090000Y-101600000D03*
X213360000Y-101600000D03*
D16*
X185420000Y-101600000D03*
D17*
X186690000Y-101600000D03*
X187960000Y-101600000D03*
D22*
X121920000Y-121920000D03*
D23*
X121920000Y-124460000D03*
X121920000Y-127000000D03*
D12*
X170180000Y-93980000D03*
D13*
X180340000Y-93980000D03*
D12*
X243840000Y-121840000D03*
X243840000Y-116840000D03*
D16*
X233680000Y-101600000D03*
D17*
X234950000Y-101600000D03*
X236220000Y-101600000D03*
%LPD*%
M02*
