G04 #@! TF.GenerationSoftware,KiCad,Pcbnew,9.0.0*
G04 #@! TF.CreationDate,2025-06-03T18:34:14-07:00*
G04 #@! TF.ProjectId,H_bridge,485f6272-6964-4676-952e-6b696361645f,rev?*
G04 #@! TF.SameCoordinates,Original*
G04 #@! TF.FileFunction,Soldermask,Bot*
G04 #@! TF.FilePolarity,Negative*
%FSLAX46Y46*%
G04 Gerber Fmt 4.6, Leading zero omitted, Abs format (unit mm)*
G04 Created by KiCad (PCBNEW 9.0.0) date 2025-06-03 18:34:14*
%MOMM*%
%LPD*%
G01*
G04 APERTURE LIST*
G04 Aperture macros list*
%AMRoundRect*
0 Rectangle with rounded corners*
0 $1 Rounding radius*
0 $2 $3 $4 $5 $6 $7 $8 $9 X,Y pos of 4 corners*
0 Add a 4 corners polygon primitive as box body*
4,1,4,$2,$3,$4,$5,$6,$7,$8,$9,$2,$3,0*
0 Add four circle primitives for the rounded corners*
1,1,$1+$1,$2,$3*
1,1,$1+$1,$4,$5*
1,1,$1+$1,$6,$7*
1,1,$1+$1,$8,$9*
0 Add four rect primitives between the rounded corners*
20,1,$1+$1,$2,$3,$4,$5,0*
20,1,$1+$1,$4,$5,$6,$7,0*
20,1,$1+$1,$6,$7,$8,$9,0*
20,1,$1+$1,$8,$9,$2,$3,0*%
G04 Aperture macros list end*
%ADD10C,1.600000*%
%ADD11O,1.600000X1.600000*%
%ADD12RoundRect,0.249999X-1.025001X-1.025001X1.025001X-1.025001X1.025001X1.025001X-1.025001X1.025001X0*%
%ADD13C,2.550000*%
%ADD14R,1.050000X1.500000*%
%ADD15O,1.050000X1.500000*%
%ADD16RoundRect,0.250000X0.265000X0.615000X-0.265000X0.615000X-0.265000X-0.615000X0.265000X-0.615000X0*%
%ADD17O,1.030000X1.730000*%
%ADD18R,2.420000X5.080000*%
%ADD19R,2.000000X1.905000*%
%ADD20O,2.000000X1.905000*%
%ADD21C,3.200000*%
%ADD22RoundRect,0.250000X0.550000X-0.950000X0.550000X0.950000X-0.550000X0.950000X-0.550000X-0.950000X0*%
%ADD23O,1.600000X2.400000*%
%ADD24RoundRect,0.249999X1.025001X1.025001X-1.025001X1.025001X-1.025001X-1.025001X1.025001X-1.025001X0*%
G04 APERTURE END LIST*
D10*
X149860000Y-93980000D03*
D11*
X139700000Y-93980000D03*
D10*
X172640000Y-134620000D03*
X167640000Y-134620000D03*
D12*
X146900000Y-55000000D03*
D13*
X151700000Y-55000000D03*
X156500000Y-55000000D03*
X161300000Y-55000000D03*
X166100000Y-55000000D03*
D14*
X116840000Y-101600000D03*
D15*
X118110000Y-101600000D03*
X119380000Y-101600000D03*
D16*
X141000000Y-55500000D03*
D17*
X139500000Y-55500000D03*
X138000000Y-55500000D03*
X136500000Y-55500000D03*
X135000000Y-55500000D03*
X133500000Y-55500000D03*
X132000000Y-55500000D03*
X130500000Y-55500000D03*
X129000000Y-55500000D03*
X127500000Y-55500000D03*
D14*
X139700000Y-101600000D03*
D15*
X140970000Y-101600000D03*
X142240000Y-101600000D03*
D10*
X218440000Y-93980000D03*
D11*
X228600000Y-93980000D03*
D18*
X201620000Y-146930000D03*
X210380000Y-146930000D03*
D10*
X114300000Y-121840000D03*
X114300000Y-116840000D03*
D18*
X233620000Y-146930000D03*
X242380000Y-146930000D03*
D19*
X167640000Y-109220000D03*
D20*
X167640000Y-111760000D03*
X167640000Y-114300000D03*
D19*
X233680000Y-121920000D03*
D20*
X233680000Y-124460000D03*
X233680000Y-127000000D03*
D21*
X190000000Y-135000000D03*
D19*
X185420000Y-109220000D03*
D20*
X185420000Y-111760000D03*
X185420000Y-114300000D03*
D10*
X124460000Y-101600000D03*
D11*
X134620000Y-101600000D03*
D21*
X110000000Y-65000000D03*
D19*
X139700000Y-121920000D03*
D20*
X139700000Y-124460000D03*
X139700000Y-127000000D03*
D14*
X162560000Y-101600000D03*
D15*
X163830000Y-101600000D03*
X165100000Y-101600000D03*
D10*
X220980000Y-134620000D03*
X215980000Y-134620000D03*
D18*
X153620000Y-146930000D03*
X162380000Y-146930000D03*
D10*
X195580000Y-93980000D03*
D11*
X185420000Y-93980000D03*
D21*
X190000000Y-65000000D03*
D19*
X185420000Y-121920000D03*
D20*
X185420000Y-124460000D03*
X185420000Y-127000000D03*
D10*
X159940000Y-121840000D03*
X159940000Y-116840000D03*
D19*
X139700000Y-109220000D03*
D20*
X139700000Y-111760000D03*
X139700000Y-114300000D03*
D22*
X144780000Y-78740000D03*
D23*
X147320000Y-78740000D03*
X149860000Y-78740000D03*
X152400000Y-78740000D03*
X154940000Y-78740000D03*
X157480000Y-78740000D03*
X160020000Y-78740000D03*
X160020000Y-71120000D03*
X157480000Y-71120000D03*
X154940000Y-71120000D03*
X152400000Y-71120000D03*
X149860000Y-71120000D03*
X147320000Y-71120000D03*
X144780000Y-71120000D03*
D21*
X110000000Y-135000000D03*
D10*
X124460000Y-93980000D03*
D11*
X134620000Y-93980000D03*
D10*
X243840000Y-93980000D03*
D11*
X233680000Y-93980000D03*
D19*
X167640000Y-121920000D03*
D20*
X167640000Y-124460000D03*
X167640000Y-127000000D03*
D18*
X217620000Y-146930000D03*
X226380000Y-146930000D03*
D19*
X215900000Y-121920000D03*
D20*
X215900000Y-124460000D03*
X215900000Y-127000000D03*
D18*
X105620000Y-146930000D03*
X114380000Y-146930000D03*
D10*
X218440000Y-101600000D03*
D11*
X228600000Y-101600000D03*
D10*
X195580000Y-121920000D03*
X195580000Y-116920000D03*
D18*
X185620000Y-146930000D03*
X194380000Y-146930000D03*
D10*
X170180000Y-101600000D03*
D11*
X180340000Y-101600000D03*
D10*
X149860000Y-121920000D03*
X149860000Y-116920000D03*
X126920000Y-134620000D03*
X121920000Y-134620000D03*
D18*
X169620000Y-146930000D03*
X178380000Y-146930000D03*
X137620000Y-146930000D03*
X146380000Y-146930000D03*
D16*
X121000000Y-55500000D03*
D17*
X119500000Y-55500000D03*
X118000000Y-55500000D03*
X116500000Y-55500000D03*
X115000000Y-55500000D03*
X113500000Y-55500000D03*
X112000000Y-55500000D03*
X110500000Y-55500000D03*
X109000000Y-55500000D03*
X107500000Y-55500000D03*
D24*
X183000000Y-60800000D03*
D13*
X178200000Y-60800000D03*
X173400000Y-60800000D03*
D19*
X215900000Y-109220000D03*
D20*
X215900000Y-111760000D03*
X215900000Y-114300000D03*
D18*
X121620000Y-146930000D03*
X130380000Y-146930000D03*
D19*
X121920000Y-109220000D03*
D20*
X121920000Y-111760000D03*
X121920000Y-114300000D03*
D10*
X205740000Y-121840000D03*
X205740000Y-116840000D03*
D19*
X233680000Y-109220000D03*
D20*
X233680000Y-111760000D03*
X233680000Y-114300000D03*
D14*
X210820000Y-101600000D03*
D15*
X212090000Y-101600000D03*
X213360000Y-101600000D03*
D14*
X185420000Y-101600000D03*
D15*
X186690000Y-101600000D03*
X187960000Y-101600000D03*
D19*
X121920000Y-121920000D03*
D20*
X121920000Y-124460000D03*
X121920000Y-127000000D03*
D10*
X170180000Y-93980000D03*
D11*
X180340000Y-93980000D03*
D10*
X243840000Y-121840000D03*
X243840000Y-116840000D03*
D14*
X233680000Y-101600000D03*
D15*
X234950000Y-101600000D03*
X236220000Y-101600000D03*
M02*
